%TF.GenerationSoftware,KiCad,Pcbnew,4.0.7*%
%TF.CreationDate,2019-04-11T13:09:23-05:00*%
%TF.ProjectId,GolfGloveMainBoardV1.0.0,476F6C66476C6F76654D61696E426F61,rev?*%
%TF.FileFunction,Copper,L4,Bot,Signal*%
%FSLAX46Y46*%
G04 Gerber Fmt 4.6, Leading zero omitted, Abs format (unit mm)*
G04 Created by KiCad (PCBNEW 4.0.7) date 04/11/19 13:09:23*
%MOMM*%
%LPD*%
G01*
G04 APERTURE LIST*
%ADD10C,0.100000*%
%ADD11C,0.150000*%
%ADD12O,1.400000X0.800000*%
%ADD13C,0.650000*%
%ADD14C,0.600000*%
%ADD15R,1.700000X1.700000*%
%ADD16O,1.700000X1.700000*%
%ADD17R,0.600000X0.500000*%
%ADD18R,0.500000X0.600000*%
%ADD19R,0.400000X0.600000*%
%ADD20R,0.500000X0.900000*%
%ADD21R,0.600000X0.400000*%
%ADD22R,0.304800X0.812800*%
%ADD23R,2.387600X1.651000*%
%ADD24C,2.000000*%
%ADD25C,0.450000*%
%ADD26C,0.200000*%
%ADD27C,0.250000*%
%ADD28C,0.300000*%
%ADD29C,0.254000*%
G04 APERTURE END LIST*
D10*
D11*
X148925000Y-151345000D02*
X148925000Y-151355000D01*
X112365000Y-151345000D02*
X148925000Y-151345000D01*
X112365000Y-136675000D02*
X112365000Y-151345000D01*
X99805000Y-136675000D02*
X112365000Y-136675000D01*
X99805000Y-139585000D02*
X99805000Y-136675000D01*
X93605000Y-139585000D02*
X99805000Y-139585000D01*
X93605000Y-122935000D02*
X93605000Y-139585000D01*
X99805000Y-122935000D02*
X93605000Y-122935000D01*
X99805000Y-125835000D02*
X99805000Y-122935000D01*
X112375000Y-125835000D02*
X99805000Y-125835000D01*
X112375000Y-111355000D02*
X112375000Y-125835000D01*
X148925000Y-111355000D02*
X112375000Y-111355000D01*
X148925000Y-151345000D02*
X148925000Y-111355000D01*
D12*
X102870000Y-135390000D03*
X102870000Y-127130000D03*
X108820000Y-126770000D03*
X108820000Y-135750000D03*
D13*
X102270000Y-128460000D03*
X102270000Y-130060000D03*
X102270000Y-130860000D03*
X102270000Y-131660000D03*
X102270000Y-132460000D03*
X102270000Y-134060000D03*
X102970000Y-128860000D03*
X102970000Y-129660000D03*
X102970000Y-130460000D03*
X102970000Y-132060000D03*
X102970000Y-132860000D03*
X102970000Y-133660000D03*
D14*
X148275000Y-120875000D03*
X147325000Y-128275000D03*
X143275000Y-121425000D03*
X146325000Y-124075000D03*
X144475000Y-128675000D03*
X113225000Y-130925000D03*
X147725000Y-146925000D03*
X148075000Y-129925000D03*
X146025000Y-129575000D03*
X145375000Y-130225000D03*
X141225000Y-113425000D03*
X141225000Y-115425000D03*
X141225000Y-112425000D03*
X145725000Y-127325000D03*
X148175000Y-128475000D03*
X144725000Y-122925000D03*
X146325000Y-126775000D03*
X143725000Y-122925000D03*
X145225000Y-123925000D03*
X141225000Y-114425000D03*
X144225000Y-123925000D03*
X146325000Y-125875000D03*
X148025000Y-123725000D03*
X148025000Y-122775000D03*
X145225000Y-121925000D03*
X145225000Y-120925000D03*
X144225000Y-120925000D03*
X147475000Y-129175000D03*
X148225000Y-121775000D03*
X146225000Y-121925000D03*
X144225000Y-121925000D03*
X143225000Y-120425000D03*
X148025000Y-126525000D03*
X148025000Y-124675000D03*
X146225000Y-120925000D03*
X142225000Y-113925000D03*
X142225000Y-117925000D03*
X147925000Y-127525000D03*
X148025000Y-125625000D03*
X142225000Y-118925000D03*
X143225000Y-119425000D03*
X142225000Y-115925000D03*
X146325000Y-124975000D03*
X142225000Y-116925000D03*
X142225000Y-111925000D03*
X142225000Y-112925000D03*
X143225000Y-112425000D03*
X143225000Y-113425000D03*
X143225000Y-114425000D03*
X143225000Y-115425000D03*
X143225000Y-116425000D03*
X143225000Y-117425000D03*
X143225000Y-118425000D03*
X142225000Y-114925000D03*
D15*
X97980000Y-124760000D03*
D16*
X95440000Y-124760000D03*
D12*
X119485000Y-127120000D03*
X119485000Y-135380000D03*
X113535000Y-135740000D03*
X113535000Y-126760000D03*
D13*
X120085000Y-134050000D03*
X120085000Y-132450000D03*
X120085000Y-131650000D03*
X120085000Y-130850000D03*
X120085000Y-130050000D03*
X120085000Y-128450000D03*
X119385000Y-133650000D03*
X119385000Y-132850000D03*
X119385000Y-132050000D03*
X119385000Y-130450000D03*
X119385000Y-129650000D03*
X119385000Y-128850000D03*
D17*
X147250000Y-133725000D03*
X148350000Y-133725000D03*
X148375000Y-131025000D03*
X147275000Y-131025000D03*
X141425000Y-119200000D03*
X140325000Y-119200000D03*
X148365000Y-132755000D03*
X147265000Y-132755000D03*
X148375000Y-131895000D03*
X147275000Y-131895000D03*
D18*
X139725000Y-120765000D03*
X139725000Y-121865000D03*
X140655000Y-120785000D03*
X140655000Y-121885000D03*
D17*
X143850000Y-128800000D03*
X142750000Y-128800000D03*
D18*
X137545000Y-141610000D03*
X137545000Y-140510000D03*
D17*
X137995000Y-137360000D03*
X139095000Y-137360000D03*
D18*
X141745000Y-141535000D03*
X141745000Y-140435000D03*
D17*
X141420000Y-137360000D03*
X140320000Y-137360000D03*
D15*
X126450000Y-112800000D03*
D16*
X128990000Y-112800000D03*
X131530000Y-112800000D03*
X134070000Y-112800000D03*
X136610000Y-112800000D03*
X139150000Y-112800000D03*
D15*
X114415000Y-123805000D03*
D16*
X116955000Y-123805000D03*
D15*
X114555000Y-149435000D03*
D16*
X117095000Y-149435000D03*
D15*
X114435000Y-120065000D03*
D16*
X116975000Y-120065000D03*
D15*
X114455000Y-113245000D03*
D16*
X116995000Y-113245000D03*
D15*
X97980000Y-137760000D03*
D16*
X95440000Y-137760000D03*
D15*
X122500000Y-115400000D03*
D16*
X122500000Y-112860000D03*
D19*
X145500000Y-134050000D03*
X144600000Y-134050000D03*
D20*
X138845000Y-143285000D03*
X140345000Y-143285000D03*
D19*
X115335000Y-116675000D03*
X114435000Y-116675000D03*
X115455000Y-147215000D03*
X114555000Y-147215000D03*
X115335000Y-117735000D03*
X114435000Y-117735000D03*
X115335000Y-115625000D03*
X114435000Y-115625000D03*
X143725000Y-126750000D03*
X144625000Y-126750000D03*
D21*
X137520000Y-139535000D03*
X137520000Y-138635000D03*
D22*
X140585600Y-141533200D03*
X140103000Y-141533200D03*
X139595000Y-141533200D03*
X139087000Y-141533200D03*
X138604400Y-141533200D03*
X138604400Y-138586800D03*
X139087000Y-138586800D03*
X139595000Y-138586800D03*
X140103000Y-138586800D03*
X140585600Y-138586800D03*
D23*
X139595000Y-140060000D03*
D24*
X127550000Y-121000000D03*
X127550000Y-116500000D03*
X134050000Y-121000000D03*
X134050000Y-116500000D03*
D15*
X145600000Y-147000000D03*
D16*
X145600000Y-149540000D03*
D15*
X139350000Y-146800000D03*
D16*
X139350000Y-149340000D03*
D15*
X132900000Y-147000000D03*
D16*
X132900000Y-149540000D03*
D24*
X113750000Y-145350000D03*
X113750000Y-140850000D03*
X120250000Y-145350000D03*
X120250000Y-140850000D03*
D19*
X114700000Y-131500000D03*
X115600000Y-131500000D03*
X114715000Y-130519999D03*
X115615000Y-130519999D03*
D25*
X128950000Y-144800000D03*
D14*
X143975000Y-127900000D03*
X142900000Y-134300000D03*
X148085000Y-134585000D03*
X140200000Y-120050000D03*
X142145000Y-139705000D03*
X139595000Y-140060000D03*
X128355000Y-137245000D03*
X129255000Y-141275000D03*
X116025000Y-116695000D03*
X134365000Y-129455000D03*
X134465000Y-138755000D03*
X125175000Y-133745000D03*
X142850000Y-143750000D03*
X135335000Y-139475000D03*
D25*
X122500000Y-131600000D03*
X126500000Y-146600000D03*
X125200000Y-137850000D03*
D14*
X127425000Y-134315000D03*
X130475000Y-133215000D03*
X143605000Y-135905000D03*
X133895000Y-131045000D03*
X127225000Y-128515000D03*
X140450000Y-126350000D03*
X146475000Y-133175000D03*
X141435000Y-136695000D03*
D25*
X134500000Y-126300000D03*
X135000000Y-128800000D03*
X98700000Y-126300000D03*
X97600000Y-133900000D03*
X135600000Y-123350000D03*
X134200000Y-122950000D03*
X137550000Y-123350000D03*
D14*
X141115000Y-127885000D03*
D25*
X137550000Y-122650000D03*
D14*
X141885000Y-128025000D03*
X146365000Y-131025000D03*
X143675000Y-132000000D03*
X143475000Y-125750000D03*
X142025000Y-120325000D03*
X143175000Y-127955000D03*
X145625000Y-131750000D03*
X141975000Y-123850000D03*
X142600000Y-129325000D03*
X142775000Y-124325000D03*
D25*
X125700000Y-126200000D03*
D14*
X131815000Y-132255000D03*
X136845000Y-140035000D03*
D25*
X123400000Y-130150000D03*
D14*
X129985000Y-132605000D03*
X129905000Y-135175000D03*
D25*
X122450000Y-141500000D03*
X130700000Y-143500000D03*
X129000000Y-143300000D03*
D14*
X132565000Y-134825000D03*
X131355000Y-135245000D03*
X129300000Y-129950000D03*
X132595000Y-133635000D03*
D25*
X137350000Y-114100000D03*
X138700000Y-115450000D03*
X139800000Y-115000000D03*
X138050000Y-116700000D03*
X118950000Y-136250000D03*
X120150000Y-136600000D03*
X133450000Y-131850000D03*
X94300000Y-134150000D03*
X96350000Y-128650000D03*
D14*
X143775000Y-133850000D03*
X128895000Y-135875000D03*
D25*
X123400000Y-139000000D03*
X104750000Y-134900000D03*
X98950000Y-133150000D03*
X100100000Y-133150000D03*
X99650000Y-131300000D03*
X99500000Y-125050000D03*
X100150000Y-130800000D03*
X99200000Y-129800000D03*
X100450000Y-127200000D03*
X122650000Y-129150000D03*
X140500000Y-135300000D03*
X101700000Y-133350000D03*
X132900000Y-132300000D03*
X135350000Y-133700000D03*
X135900000Y-135050000D03*
X138700000Y-135850000D03*
D14*
X139500000Y-135800000D03*
D25*
X123200000Y-120600000D03*
X136250000Y-133600000D03*
D14*
X135485000Y-130915000D03*
X119115000Y-117095000D03*
D25*
X95500000Y-133800000D03*
X96500000Y-134400000D03*
X139750000Y-135150000D03*
X141600000Y-134900000D03*
X141650000Y-143050000D03*
X116300000Y-131600000D03*
X120900000Y-126500000D03*
X122400000Y-130550000D03*
X117400000Y-131500000D03*
D11*
X120250000Y-140850000D02*
X120250000Y-141200000D01*
X120250000Y-141200000D02*
X122300000Y-143250000D01*
X128950000Y-144350000D02*
X128950000Y-144800000D01*
X128400000Y-143800000D02*
X128950000Y-144350000D01*
X127350000Y-143800000D02*
X128400000Y-143800000D01*
X126800000Y-143250000D02*
X127350000Y-143800000D01*
X122300000Y-143250000D02*
X126800000Y-143250000D01*
X114715000Y-130519999D02*
X113630001Y-130519999D01*
X113630001Y-130519999D02*
X113225000Y-130925000D01*
X114715000Y-130519999D02*
X114715000Y-131485000D01*
X114715000Y-131485000D02*
X114700000Y-131500000D01*
X113750000Y-140850000D02*
X113750000Y-141750000D01*
X113750000Y-141750000D02*
X115455000Y-143455000D01*
X115455000Y-143455000D02*
X115455000Y-147215000D01*
X126450000Y-112800000D02*
X125450000Y-112800000D01*
X117355000Y-116695000D02*
X116025000Y-116695000D01*
X119950000Y-114100000D02*
X117355000Y-116695000D01*
X124150000Y-114100000D02*
X119950000Y-114100000D01*
X125450000Y-112800000D02*
X124150000Y-114100000D01*
X126435000Y-112785000D02*
X126450000Y-112800000D01*
X143850000Y-128050000D02*
X143975000Y-127925000D01*
X143975000Y-127925000D02*
X143975000Y-127900000D01*
X143850000Y-128800000D02*
X143850000Y-128050000D01*
X148350000Y-133725000D02*
X148350000Y-134320000D01*
X148350000Y-134320000D02*
X148085000Y-134585000D01*
X148350000Y-133725000D02*
X148350000Y-132770000D01*
X148350000Y-132770000D02*
X148365000Y-132755000D01*
X140200000Y-120765000D02*
X140200000Y-120050000D01*
X139725000Y-120765000D02*
X140200000Y-120765000D01*
X140200000Y-120765000D02*
X140635000Y-120765000D01*
X140635000Y-120765000D02*
X140655000Y-120785000D01*
X141745000Y-140435000D02*
X141745000Y-140105000D01*
X141745000Y-140105000D02*
X142145000Y-139705000D01*
X140103000Y-138586800D02*
X140103000Y-139552000D01*
X140103000Y-139552000D02*
X139595000Y-140060000D01*
X140103000Y-138586800D02*
X140103000Y-137577000D01*
X140103000Y-137577000D02*
X140320000Y-137360000D01*
X139095000Y-137360000D02*
X140320000Y-137360000D01*
X139595000Y-140060000D02*
X137995000Y-140060000D01*
X137995000Y-140060000D02*
X137545000Y-140510000D01*
X141745000Y-140435000D02*
X139970000Y-140435000D01*
X139970000Y-140435000D02*
X139595000Y-140060000D01*
X139595000Y-140060000D02*
X139595000Y-141533200D01*
X148365000Y-132755000D02*
X148365000Y-131905000D01*
X148365000Y-131905000D02*
X148375000Y-131895000D01*
X148375000Y-131895000D02*
X148375000Y-131025000D01*
X148375000Y-131025000D02*
X148375000Y-132745000D01*
X148375000Y-132745000D02*
X148380000Y-132750000D01*
X115335000Y-116675000D02*
X115335000Y-117735000D01*
X115335000Y-117735000D02*
X115335000Y-115625000D01*
X115335000Y-115625000D02*
X115335000Y-116675000D01*
X115335000Y-116675000D02*
X115355000Y-116695000D01*
X115355000Y-116695000D02*
X116025000Y-116695000D01*
X125755000Y-112815000D02*
X125755000Y-112785000D01*
D26*
X142720000Y-143750000D02*
X142850000Y-143750000D01*
X141875000Y-144635000D02*
X142720000Y-143750000D01*
X137845000Y-144635000D02*
X141875000Y-144635000D01*
X135365000Y-142155000D02*
X137845000Y-144635000D01*
X135365000Y-139515000D02*
X135365000Y-142155000D01*
X135335000Y-139485000D02*
X135365000Y-139515000D01*
X135335000Y-139475000D02*
X135335000Y-139485000D01*
D11*
X146475000Y-133175000D02*
X146725000Y-133175000D01*
X146775000Y-133250000D02*
X147250000Y-133725000D01*
X146725000Y-133175000D02*
X146775000Y-133225000D01*
X146775000Y-133225000D02*
X146775000Y-133250000D01*
X141420000Y-136710000D02*
X141435000Y-136695000D01*
X134500000Y-128300000D02*
X134500000Y-126300000D01*
X135000000Y-128800000D02*
X134500000Y-128300000D01*
X98400000Y-126300000D02*
X98700000Y-126300000D01*
X97550000Y-127150000D02*
X98400000Y-126300000D01*
X97450000Y-133750000D02*
X97550000Y-127150000D01*
X97600000Y-133900000D02*
X97450000Y-133750000D01*
X134600000Y-123350000D02*
X135600000Y-123350000D01*
X134200000Y-122950000D02*
X134600000Y-123350000D01*
X141115000Y-127885000D02*
X141115000Y-125015000D01*
X141115000Y-125015000D02*
X139450000Y-123350000D01*
X139450000Y-123350000D02*
X137550000Y-123350000D01*
X141115000Y-127885000D02*
X141115000Y-127885000D01*
X142035000Y-125405000D02*
X142035000Y-125135000D01*
X142035000Y-125135000D02*
X139550000Y-122650000D01*
X139550000Y-122650000D02*
X137550000Y-122650000D01*
X142035000Y-127875000D02*
X142035000Y-125405000D01*
X141885000Y-128025000D02*
X142035000Y-127875000D01*
X142035000Y-125405000D02*
X142025000Y-125395000D01*
X147275000Y-129950000D02*
X144625000Y-127300000D01*
X147275000Y-131025000D02*
X146365000Y-131025000D01*
X147275000Y-131025000D02*
X147275000Y-129950000D01*
X144625000Y-127300000D02*
X144625000Y-126750000D01*
X143300000Y-128080000D02*
X143175000Y-127955000D01*
X143300000Y-131625000D02*
X143300000Y-128080000D01*
X143675000Y-132000000D02*
X143300000Y-131625000D01*
X143175000Y-127955000D02*
X143235000Y-128015000D01*
X143725000Y-126000000D02*
X143725000Y-126750000D01*
X143475000Y-125750000D02*
X143725000Y-126000000D01*
X141425000Y-119550000D02*
X141425000Y-119200000D01*
X142025000Y-120325000D02*
X141425000Y-119550000D01*
X147275000Y-131895000D02*
X145770000Y-131895000D01*
X145770000Y-131895000D02*
X145625000Y-131750000D01*
X145500000Y-134050000D02*
X145500000Y-132775000D01*
X146700000Y-132350000D02*
X147265000Y-132350000D01*
X145925000Y-132350000D02*
X146700000Y-132350000D01*
X145500000Y-132775000D02*
X145925000Y-132350000D01*
X147265000Y-132755000D02*
X147265000Y-132350000D01*
X147265000Y-132350000D02*
X147265000Y-131905000D01*
X147265000Y-131905000D02*
X147275000Y-131895000D01*
X141975000Y-123850000D02*
X140900000Y-122775000D01*
X140900000Y-122775000D02*
X140900000Y-122130000D01*
X140900000Y-122130000D02*
X140635000Y-121865000D01*
X140635000Y-121865000D02*
X139725000Y-121865000D01*
X142750000Y-128800000D02*
X142750000Y-129175000D01*
X142750000Y-129175000D02*
X142600000Y-129325000D01*
X142625000Y-124475000D02*
X142625000Y-128675000D01*
X142775000Y-124325000D02*
X142625000Y-124475000D01*
X142625000Y-128675000D02*
X142750000Y-128800000D01*
D26*
X122500000Y-115400000D02*
X122500000Y-122850000D01*
X125700000Y-126050000D02*
X125700000Y-126200000D01*
X122500000Y-122850000D02*
X125700000Y-126050000D01*
X136845000Y-139545000D02*
X136845000Y-140035000D01*
X135145000Y-137845000D02*
X136845000Y-139545000D01*
X134225000Y-137845000D02*
X135145000Y-137845000D01*
X131975000Y-135595000D02*
X134225000Y-137845000D01*
X131975000Y-132095000D02*
X131975000Y-135595000D01*
X131815000Y-132255000D02*
X131975000Y-132095000D01*
X136845000Y-140035000D02*
X136845000Y-139860000D01*
X136845000Y-139860000D02*
X136970000Y-139735000D01*
X136845000Y-140035000D02*
X136845000Y-140295000D01*
X136845000Y-140295000D02*
X136970000Y-140420000D01*
X136855000Y-140025000D02*
X136970000Y-140025000D01*
X136845000Y-140035000D02*
X136855000Y-140025000D01*
D27*
X138604400Y-141533200D02*
X137621800Y-141533200D01*
X137621800Y-141533200D02*
X137545000Y-141610000D01*
X137520000Y-139535000D02*
X137170000Y-139535000D01*
X137170000Y-139535000D02*
X136970000Y-139735000D01*
X136970000Y-141285000D02*
X137295000Y-141610000D01*
X136970000Y-140420000D02*
X136970000Y-141285000D01*
X136970000Y-139735000D02*
X136970000Y-140025000D01*
X136970000Y-140025000D02*
X136970000Y-140420000D01*
X137295000Y-141610000D02*
X137545000Y-141610000D01*
X137995000Y-137360000D02*
X137995000Y-138160000D01*
X137995000Y-138160000D02*
X137520000Y-138635000D01*
X139595000Y-138586800D02*
X138604400Y-138586800D01*
X138604400Y-138586800D02*
X138556200Y-138635000D01*
X138556200Y-138635000D02*
X137520000Y-138635000D01*
D11*
X119385000Y-132850000D02*
X119700000Y-132850000D01*
X119700000Y-132850000D02*
X119899998Y-133049998D01*
X123400000Y-130150000D02*
X123200000Y-130350000D01*
X123200000Y-130350000D02*
X123200000Y-132450000D01*
X123200000Y-132450000D02*
X122600002Y-133049998D01*
X122600002Y-133049998D02*
X120100000Y-133049998D01*
X120100000Y-133049998D02*
X119950000Y-133049998D01*
X119899998Y-133049998D02*
X119950000Y-133049998D01*
X119485000Y-132950000D02*
X119385000Y-132850000D01*
X119385000Y-132850000D02*
X118750000Y-132850000D01*
X128000000Y-142600000D02*
X129895000Y-142600000D01*
X125800000Y-140400000D02*
X128000000Y-142600000D01*
X122400000Y-140400000D02*
X125800000Y-140400000D01*
X118300000Y-136300000D02*
X122400000Y-140400000D01*
X118300000Y-133300000D02*
X118300000Y-136300000D01*
X118750000Y-132850000D02*
X118300000Y-133300000D01*
X129895000Y-132695000D02*
X129895000Y-133885000D01*
X129985000Y-132605000D02*
X129895000Y-132695000D01*
X129895000Y-133885000D02*
X129895000Y-134795000D01*
X129895000Y-134795000D02*
X129895000Y-142600000D01*
X129895000Y-142600000D02*
X129895000Y-144815000D01*
X131635000Y-148285000D02*
X132885000Y-149535000D01*
X131635000Y-146555000D02*
X131635000Y-148285000D01*
X129895000Y-144815000D02*
X131635000Y-146555000D01*
X129905000Y-135175000D02*
X129895000Y-134795000D01*
X129895000Y-134795000D02*
X129925000Y-134795000D01*
X129925000Y-134795000D02*
X129895000Y-134795000D01*
X121700000Y-140750000D02*
X121700000Y-140300000D01*
X122450000Y-141500000D02*
X121700000Y-140750000D01*
X119385000Y-129650000D02*
X118500000Y-129650000D01*
X131150000Y-142450000D02*
X131165000Y-142450000D01*
X131165000Y-142465000D02*
X131150000Y-142450000D01*
X131165000Y-143035000D02*
X131165000Y-142465000D01*
X130700000Y-143500000D02*
X131165000Y-143035000D01*
X128000000Y-143300000D02*
X129000000Y-143300000D01*
X125550000Y-140850000D02*
X128000000Y-143300000D01*
X122250000Y-140850000D02*
X125550000Y-140850000D01*
X117900000Y-136500000D02*
X121700000Y-140300000D01*
X121700000Y-140300000D02*
X122250000Y-140850000D01*
X117900000Y-130250000D02*
X117900000Y-136500000D01*
X118500000Y-129650000D02*
X117900000Y-130250000D01*
X132595000Y-134795000D02*
X132595000Y-133635000D01*
X132565000Y-134825000D02*
X132595000Y-134795000D01*
X129605000Y-129745000D02*
X129300000Y-129950000D01*
X130225000Y-129745000D02*
X129605000Y-129745000D01*
X131165000Y-130685000D02*
X130225000Y-129745000D01*
X131165000Y-135485000D02*
X131165000Y-130685000D01*
X131165000Y-135485000D02*
X131165000Y-135435000D01*
X131165000Y-135435000D02*
X131355000Y-135245000D01*
X131165000Y-142725000D02*
X131165000Y-142450000D01*
X131165000Y-142450000D02*
X131165000Y-135485000D01*
X132885000Y-144445000D02*
X131165000Y-142725000D01*
X132885000Y-146995000D02*
X132885000Y-144445000D01*
X122625000Y-112785000D02*
X123215000Y-112785000D01*
X138700000Y-115450000D02*
X137350000Y-114100000D01*
X139800000Y-115500000D02*
X139800000Y-115000000D01*
X139150000Y-116150000D02*
X139800000Y-115500000D01*
X138600000Y-116150000D02*
X139150000Y-116150000D01*
X138050000Y-116700000D02*
X138600000Y-116150000D01*
X119800000Y-136250000D02*
X118950000Y-136250000D01*
X120150000Y-136600000D02*
X119800000Y-136250000D01*
X133100000Y-131450000D02*
X133100000Y-130300000D01*
X133450000Y-131850000D02*
X133100000Y-131500000D01*
X133100000Y-131500000D02*
X133100000Y-131450000D01*
X118000000Y-127465000D02*
X119385000Y-128850000D01*
X118000000Y-127100000D02*
X118000000Y-127465000D01*
X119100000Y-126000000D02*
X118000000Y-127100000D01*
X123550000Y-126000000D02*
X119100000Y-126000000D01*
X126650000Y-129100000D02*
X123550000Y-126000000D01*
X131650000Y-129100000D02*
X126650000Y-129100000D01*
X131700000Y-129050000D02*
X131650000Y-129100000D01*
X131850000Y-129050000D02*
X131700000Y-129050000D01*
X133100000Y-130300000D02*
X131850000Y-129050000D01*
X94300000Y-134150000D02*
X94650000Y-133800000D01*
X94650000Y-133800000D02*
X94650000Y-131100000D01*
X94650000Y-131100000D02*
X96350000Y-128650000D01*
X143975000Y-134050000D02*
X144600000Y-134050000D01*
X143775000Y-133850000D02*
X143975000Y-134050000D01*
D27*
X139087000Y-141533200D02*
X139087000Y-143043000D01*
X139087000Y-143043000D02*
X138845000Y-143285000D01*
X140103000Y-141533200D02*
X140103000Y-143043000D01*
X140103000Y-143043000D02*
X140345000Y-143285000D01*
D11*
X123175000Y-137945000D02*
X123175000Y-138775000D01*
X124875000Y-136245000D02*
X123175000Y-137945000D01*
X128525000Y-136245000D02*
X124875000Y-136245000D01*
X128895000Y-135875000D02*
X128525000Y-136245000D01*
X123175000Y-138775000D02*
X123400000Y-139000000D01*
X103750000Y-135900000D02*
X103750000Y-135949998D01*
X98950000Y-134250000D02*
X98950000Y-133150000D01*
X100799998Y-136099998D02*
X98950000Y-134250000D01*
X103600000Y-136099998D02*
X100799998Y-136099998D01*
X103750000Y-135949998D02*
X103600000Y-136099998D01*
X103750000Y-135900000D02*
X103700000Y-135900000D01*
X104750000Y-134900000D02*
X103750000Y-135900000D01*
X98950000Y-133150000D02*
X100100000Y-133150000D01*
X102970000Y-132860000D02*
X102690000Y-132860000D01*
X102690000Y-132860000D02*
X102350000Y-133200000D01*
X102350000Y-133200000D02*
X102200000Y-133200000D01*
X102200000Y-133200000D02*
X101650000Y-132650000D01*
X101650000Y-132650000D02*
X101650000Y-132200000D01*
X101650000Y-132200000D02*
X100750000Y-131300000D01*
X100750000Y-131300000D02*
X99650000Y-131300000D01*
X102970000Y-132060000D02*
X102990000Y-132060000D01*
X102990000Y-132060000D02*
X104300000Y-130750000D01*
X104300000Y-130750000D02*
X104300000Y-128450000D01*
X104300000Y-128450000D02*
X105000000Y-127750000D01*
X105000000Y-127750000D02*
X105000000Y-126750000D01*
X105000000Y-126750000D02*
X104299998Y-126049998D01*
X104299998Y-126049998D02*
X99699998Y-126049998D01*
X99699998Y-126049998D02*
X99500000Y-125850000D01*
X99500000Y-125850000D02*
X99500000Y-125050000D01*
X99525000Y-129475000D02*
X99525000Y-130175000D01*
X99525000Y-130175000D02*
X100150000Y-130800000D01*
X100250000Y-128750000D02*
X99525000Y-129475000D01*
X99525000Y-129475000D02*
X99200000Y-129800000D01*
X100250000Y-127400000D02*
X100250000Y-128750000D01*
X100450000Y-127200000D02*
X100250000Y-127400000D01*
X126825000Y-129425000D02*
X123875000Y-129425000D01*
X123600000Y-129150000D02*
X122650000Y-129150000D01*
X123875000Y-129425000D02*
X123600000Y-129150000D01*
X119685000Y-133350000D02*
X119385000Y-133650000D01*
X122900000Y-133350000D02*
X119685000Y-133350000D01*
X126849998Y-129400002D02*
X126825000Y-129425000D01*
X126825000Y-129425000D02*
X122900000Y-133350000D01*
X130450000Y-129400002D02*
X126849998Y-129400002D01*
X130549998Y-129500000D02*
X130450000Y-129400002D01*
X131400000Y-129500000D02*
X130549998Y-129500000D01*
X132400000Y-130500000D02*
X131400000Y-129500000D01*
X132400000Y-132650000D02*
X132400000Y-130500000D01*
X132650000Y-132900000D02*
X132400000Y-132650000D01*
X132900000Y-132900000D02*
X132650000Y-132900000D01*
X134350000Y-134350000D02*
X132900000Y-132900000D01*
X140300000Y-134350000D02*
X134350000Y-134350000D01*
X140550000Y-134600000D02*
X140300000Y-134350000D01*
X140550000Y-135250000D02*
X140550000Y-134600000D01*
X140500000Y-135300000D02*
X140550000Y-135250000D01*
X102970000Y-128860000D02*
X102970000Y-128630000D01*
X102970000Y-128630000D02*
X104150000Y-127450000D01*
X104150000Y-127450000D02*
X104150000Y-126750000D01*
X104150000Y-126750000D02*
X103750000Y-126350000D01*
X103750000Y-126350000D02*
X99500000Y-126350000D01*
X99500000Y-126350000D02*
X99350000Y-126200000D01*
X99350000Y-126200000D02*
X99350000Y-126130000D01*
X99350000Y-126130000D02*
X99350000Y-126130000D01*
X99350000Y-126130000D02*
X97980000Y-124760000D01*
X99350000Y-126800000D02*
X99350000Y-126130000D01*
X98050000Y-128100000D02*
X99350000Y-126800000D01*
X98050000Y-130450000D02*
X98050000Y-128100000D01*
X100600000Y-133000000D02*
X98050000Y-130450000D01*
X101500000Y-133000000D02*
X100600000Y-133000000D01*
X101700000Y-133350000D02*
X101500000Y-133000000D01*
X133550000Y-132950000D02*
X132900000Y-132300000D01*
X134600000Y-132950000D02*
X133550000Y-132950000D01*
X135350000Y-133700000D02*
X134600000Y-132950000D01*
X137000000Y-136150000D02*
X135900000Y-135050000D01*
X138400000Y-136150000D02*
X137000000Y-136150000D01*
X138700000Y-135850000D02*
X138400000Y-136150000D01*
X114415000Y-123805000D02*
X114415000Y-123565000D01*
X114415000Y-123565000D02*
X112955000Y-122105000D01*
X112955000Y-122105000D02*
X112955000Y-118145000D01*
X112955000Y-118145000D02*
X114425000Y-116675000D01*
X114425000Y-116675000D02*
X114435000Y-116675000D01*
X139700000Y-136000000D02*
X139500000Y-135800000D01*
X141850000Y-136000000D02*
X139700000Y-136000000D01*
X143650000Y-137800000D02*
X141850000Y-136000000D01*
X143650000Y-144150000D02*
X143650000Y-137800000D01*
X142700000Y-145100000D02*
X143650000Y-144150000D01*
X137950000Y-145100000D02*
X142700000Y-145100000D01*
X137200000Y-145850000D02*
X137950000Y-145100000D01*
X137200000Y-147750000D02*
X137200000Y-145850000D01*
X134100000Y-150850000D02*
X137200000Y-147750000D01*
X131050000Y-150850000D02*
X134100000Y-150850000D01*
X128135000Y-147935000D02*
X131050000Y-150850000D01*
X114555000Y-147935000D02*
X128135000Y-147935000D01*
X114555000Y-149435000D02*
X114555000Y-147935000D01*
X114555000Y-147935000D02*
X114555000Y-147215000D01*
X123250000Y-120650000D02*
X123200000Y-120600000D01*
X123250000Y-122250000D02*
X123250000Y-120650000D01*
X126250000Y-125250000D02*
X123250000Y-122250000D01*
X134400000Y-125250000D02*
X126250000Y-125250000D01*
X135100000Y-125950000D02*
X134400000Y-125250000D01*
X135100000Y-127849998D02*
X135100000Y-125950000D01*
X136400000Y-129149998D02*
X135100000Y-127849998D01*
X136400000Y-133450000D02*
X136400000Y-129149998D01*
X136250000Y-133600000D02*
X136400000Y-133450000D01*
X114435000Y-117735000D02*
X114435000Y-120065000D01*
X119195000Y-117175000D02*
X119115000Y-117095000D01*
X119195000Y-120965000D02*
X119195000Y-117175000D01*
X125965000Y-127735000D02*
X119195000Y-120965000D01*
X131525000Y-127735000D02*
X125965000Y-127735000D01*
X134105000Y-130315000D02*
X131525000Y-127735000D01*
X134885000Y-130315000D02*
X134105000Y-130315000D01*
X135485000Y-130915000D02*
X134885000Y-130315000D01*
X114435000Y-115625000D02*
X114435000Y-113265000D01*
X114435000Y-113265000D02*
X114455000Y-113245000D01*
X95500000Y-133800000D02*
X96500000Y-134350000D01*
X96500000Y-134350000D02*
X96500000Y-134400000D01*
X139545000Y-149535000D02*
X139350000Y-149340000D01*
X139545000Y-149535000D02*
X143045000Y-149535000D01*
X141800000Y-135000000D02*
X141600000Y-134900000D01*
X141850000Y-135000000D02*
X144400000Y-137550000D01*
X141850000Y-135000000D02*
X141800000Y-135000000D01*
X144400000Y-137550000D02*
X144400000Y-146450000D01*
X144400000Y-146450000D02*
X144300000Y-146550000D01*
X144300000Y-146550000D02*
X144300000Y-147750000D01*
X143045000Y-149005000D02*
X143045000Y-149535000D01*
X143045000Y-149005000D02*
X144300000Y-147750000D01*
D28*
X141745000Y-142955000D02*
X141745000Y-141535000D01*
X141650000Y-143050000D02*
X141745000Y-142955000D01*
D11*
X141745000Y-141535000D02*
X141745000Y-142265000D01*
X141745000Y-142265000D02*
X141615000Y-142395000D01*
X141420000Y-137360000D02*
X141420000Y-136710000D01*
D27*
X141420000Y-137360000D02*
X141420000Y-137752400D01*
X141420000Y-137752400D02*
X140585600Y-138586800D01*
X140585600Y-141533200D02*
X141743200Y-141533200D01*
X141743200Y-141533200D02*
X141745000Y-141535000D01*
D11*
X116200000Y-131500000D02*
X115600000Y-131500000D01*
X116300000Y-131600000D02*
X116200000Y-131500000D01*
X121750000Y-126500000D02*
X120900000Y-126500000D01*
X121950000Y-126700000D02*
X121750000Y-126500000D01*
X121950000Y-130100000D02*
X121950000Y-126700000D01*
X122400000Y-130550000D02*
X121950000Y-130100000D01*
X115615000Y-130519999D02*
X116419999Y-130519999D01*
X116419999Y-130519999D02*
X117400000Y-131500000D01*
D29*
G36*
X121608342Y-111992380D02*
X121342362Y-112390447D01*
X121248962Y-112860000D01*
X121342362Y-113329553D01*
X121608342Y-113727620D01*
X122006409Y-113993600D01*
X122475962Y-114087000D01*
X122524038Y-114087000D01*
X122993591Y-113993600D01*
X123391658Y-113727620D01*
X123657638Y-113329553D01*
X123706133Y-113085750D01*
X124965000Y-113085750D01*
X124965000Y-113776309D01*
X125061673Y-114009698D01*
X125240301Y-114188327D01*
X125473690Y-114285000D01*
X126164250Y-114285000D01*
X126323000Y-114126250D01*
X126323000Y-112927000D01*
X125123750Y-112927000D01*
X124965000Y-113085750D01*
X123706133Y-113085750D01*
X123751038Y-112860000D01*
X123657638Y-112390447D01*
X123391658Y-111992380D01*
X123114217Y-111807000D01*
X124971914Y-111807000D01*
X124965000Y-111823691D01*
X124965000Y-112514250D01*
X125123750Y-112673000D01*
X126323000Y-112673000D01*
X126323000Y-112653000D01*
X126577000Y-112653000D01*
X126577000Y-112673000D01*
X126597000Y-112673000D01*
X126597000Y-112927000D01*
X126577000Y-112927000D01*
X126577000Y-114126250D01*
X126735750Y-114285000D01*
X127426310Y-114285000D01*
X127659699Y-114188327D01*
X127838327Y-114009698D01*
X127935000Y-113776309D01*
X127935000Y-113411224D01*
X128122380Y-113691658D01*
X128520447Y-113957638D01*
X128990000Y-114051038D01*
X129459553Y-113957638D01*
X129857620Y-113691658D01*
X130123600Y-113293591D01*
X130217000Y-112824038D01*
X130217000Y-112775962D01*
X130123600Y-112306409D01*
X129857620Y-111908342D01*
X129705951Y-111807000D01*
X130814049Y-111807000D01*
X130662380Y-111908342D01*
X130396400Y-112306409D01*
X130303000Y-112775962D01*
X130303000Y-112824038D01*
X130396400Y-113293591D01*
X130662380Y-113691658D01*
X131060447Y-113957638D01*
X131530000Y-114051038D01*
X131999553Y-113957638D01*
X132397620Y-113691658D01*
X132663600Y-113293591D01*
X132757000Y-112824038D01*
X132757000Y-112775962D01*
X132663600Y-112306409D01*
X132397620Y-111908342D01*
X132245951Y-111807000D01*
X133354049Y-111807000D01*
X133202380Y-111908342D01*
X132936400Y-112306409D01*
X132843000Y-112775962D01*
X132843000Y-112824038D01*
X132936400Y-113293591D01*
X133202380Y-113691658D01*
X133600447Y-113957638D01*
X134070000Y-114051038D01*
X134539553Y-113957638D01*
X134937620Y-113691658D01*
X135203600Y-113293591D01*
X135297000Y-112824038D01*
X135297000Y-112775962D01*
X135203600Y-112306409D01*
X134937620Y-111908342D01*
X134785951Y-111807000D01*
X135894049Y-111807000D01*
X135742380Y-111908342D01*
X135476400Y-112306409D01*
X135383000Y-112775962D01*
X135383000Y-112824038D01*
X135476400Y-113293591D01*
X135742380Y-113691658D01*
X136140447Y-113957638D01*
X136610000Y-114051038D01*
X136748067Y-114023575D01*
X136747896Y-114219220D01*
X136839352Y-114440560D01*
X137008549Y-114610053D01*
X137229729Y-114701895D01*
X137312743Y-114701967D01*
X138097968Y-115487192D01*
X138097896Y-115569220D01*
X138189352Y-115790560D01*
X138254726Y-115856049D01*
X138012808Y-116097968D01*
X137930780Y-116097896D01*
X137709440Y-116189352D01*
X137539947Y-116358549D01*
X137448105Y-116579729D01*
X137447896Y-116819220D01*
X137539352Y-117040560D01*
X137708549Y-117210053D01*
X137929729Y-117301895D01*
X138169220Y-117302104D01*
X138390560Y-117210648D01*
X138560053Y-117041451D01*
X138651895Y-116820271D01*
X138651967Y-116737257D01*
X138787225Y-116602000D01*
X139150000Y-116602000D01*
X139322973Y-116567594D01*
X139469612Y-116469612D01*
X140119612Y-115819612D01*
X140217594Y-115672973D01*
X140252000Y-115500000D01*
X140252000Y-115399403D01*
X140310053Y-115341451D01*
X140401895Y-115120271D01*
X140402104Y-114880780D01*
X140310648Y-114659440D01*
X140141451Y-114489947D01*
X139920271Y-114398105D01*
X139680780Y-114397896D01*
X139459440Y-114489352D01*
X139289947Y-114658549D01*
X139198105Y-114879729D01*
X139197916Y-115096685D01*
X139041451Y-114939947D01*
X138820271Y-114848105D01*
X138737257Y-114848033D01*
X137952032Y-114062808D01*
X137952104Y-113980780D01*
X137860648Y-113759440D01*
X137691451Y-113589947D01*
X137577263Y-113542532D01*
X137743600Y-113293591D01*
X137837000Y-112824038D01*
X137837000Y-112775962D01*
X137743600Y-112306409D01*
X137477620Y-111908342D01*
X137325951Y-111807000D01*
X138434049Y-111807000D01*
X138282380Y-111908342D01*
X138016400Y-112306409D01*
X137923000Y-112775962D01*
X137923000Y-112824038D01*
X138016400Y-113293591D01*
X138282380Y-113691658D01*
X138680447Y-113957638D01*
X139150000Y-114051038D01*
X139619553Y-113957638D01*
X140017620Y-113691658D01*
X140283600Y-113293591D01*
X140377000Y-112824038D01*
X140377000Y-112775962D01*
X140283600Y-112306409D01*
X140017620Y-111908342D01*
X139865951Y-111807000D01*
X143948198Y-111807000D01*
X143958000Y-120335146D01*
X143966685Y-120381159D01*
X143993965Y-120423553D01*
X144035590Y-120451994D01*
X144085000Y-120462000D01*
X148473000Y-120462000D01*
X148473000Y-150893000D01*
X146145310Y-150893000D01*
X146481358Y-150735183D01*
X146871645Y-150306924D01*
X147041476Y-149896890D01*
X146920155Y-149667000D01*
X145727000Y-149667000D01*
X145727000Y-149687000D01*
X145473000Y-149687000D01*
X145473000Y-149667000D01*
X144279845Y-149667000D01*
X144158524Y-149896890D01*
X144328355Y-150306924D01*
X144718642Y-150735183D01*
X145054690Y-150893000D01*
X134696224Y-150893000D01*
X137519612Y-148069612D01*
X137617594Y-147922973D01*
X137652000Y-147750000D01*
X137652000Y-146037224D01*
X137739224Y-145950000D01*
X138115615Y-145950000D01*
X138115615Y-147650000D01*
X138141903Y-147789708D01*
X138224470Y-147918020D01*
X138350453Y-148004101D01*
X138500000Y-148034385D01*
X140200000Y-148034385D01*
X140339708Y-148008097D01*
X140468020Y-147925530D01*
X140554101Y-147799547D01*
X140584385Y-147650000D01*
X140584385Y-145950000D01*
X140558097Y-145810292D01*
X140475530Y-145681980D01*
X140349547Y-145595899D01*
X140200000Y-145565615D01*
X138500000Y-145565615D01*
X138360292Y-145591903D01*
X138231980Y-145674470D01*
X138145899Y-145800453D01*
X138115615Y-145950000D01*
X137739224Y-145950000D01*
X138137224Y-145552000D01*
X142700000Y-145552000D01*
X142872973Y-145517594D01*
X143019612Y-145419612D01*
X143948000Y-144491224D01*
X143948000Y-146278860D01*
X143882406Y-146377027D01*
X143848000Y-146550000D01*
X143848000Y-147562776D01*
X142725388Y-148685388D01*
X142627406Y-148832027D01*
X142593000Y-149005000D01*
X142593000Y-149083000D01*
X140549917Y-149083000D01*
X140507638Y-148870447D01*
X140241658Y-148472380D01*
X139843591Y-148206400D01*
X139374038Y-148113000D01*
X139325962Y-148113000D01*
X138856409Y-148206400D01*
X138458342Y-148472380D01*
X138192362Y-148870447D01*
X138098962Y-149340000D01*
X138192362Y-149809553D01*
X138458342Y-150207620D01*
X138856409Y-150473600D01*
X139325962Y-150567000D01*
X139374038Y-150567000D01*
X139843591Y-150473600D01*
X140241658Y-150207620D01*
X140389072Y-149987000D01*
X143045000Y-149987000D01*
X143217973Y-149952594D01*
X143364612Y-149854612D01*
X143462594Y-149707973D01*
X143497000Y-149535000D01*
X143497000Y-149192224D01*
X144531938Y-148157286D01*
X144600453Y-148204101D01*
X144750000Y-148234385D01*
X144953791Y-148234385D01*
X144718642Y-148344817D01*
X144328355Y-148773076D01*
X144158524Y-149183110D01*
X144279845Y-149413000D01*
X145473000Y-149413000D01*
X145473000Y-149393000D01*
X145727000Y-149393000D01*
X145727000Y-149413000D01*
X146920155Y-149413000D01*
X147041476Y-149183110D01*
X146871645Y-148773076D01*
X146481358Y-148344817D01*
X146246209Y-148234385D01*
X146450000Y-148234385D01*
X146589708Y-148208097D01*
X146718020Y-148125530D01*
X146804101Y-147999547D01*
X146834385Y-147850000D01*
X146834385Y-146150000D01*
X146808097Y-146010292D01*
X146725530Y-145881980D01*
X146599547Y-145795899D01*
X146450000Y-145765615D01*
X144852000Y-145765615D01*
X144852000Y-141788779D01*
X146727857Y-141788779D01*
X146853495Y-142092846D01*
X147085930Y-142325688D01*
X147389778Y-142451856D01*
X147718779Y-142452143D01*
X148022846Y-142326505D01*
X148255688Y-142094070D01*
X148381856Y-141790222D01*
X148382143Y-141461221D01*
X148256505Y-141157154D01*
X148024070Y-140924312D01*
X147720222Y-140798144D01*
X147391221Y-140797857D01*
X147087154Y-140923495D01*
X146854312Y-141155930D01*
X146728144Y-141459778D01*
X146727857Y-141788779D01*
X144852000Y-141788779D01*
X144852000Y-138788779D01*
X146727857Y-138788779D01*
X146853495Y-139092846D01*
X147085930Y-139325688D01*
X147389778Y-139451856D01*
X147718779Y-139452143D01*
X148022846Y-139326505D01*
X148255688Y-139094070D01*
X148381856Y-138790222D01*
X148382143Y-138461221D01*
X148256505Y-138157154D01*
X148024070Y-137924312D01*
X147720222Y-137798144D01*
X147391221Y-137797857D01*
X147087154Y-137923495D01*
X146854312Y-138155930D01*
X146728144Y-138459778D01*
X146727857Y-138788779D01*
X144852000Y-138788779D01*
X144852000Y-137550000D01*
X144817594Y-137377027D01*
X144792420Y-137339352D01*
X144719613Y-137230388D01*
X143974192Y-136484968D01*
X143987989Y-136479267D01*
X144178598Y-136288990D01*
X144281882Y-136040254D01*
X144282117Y-135770927D01*
X144179267Y-135522011D01*
X143988990Y-135331402D01*
X143740254Y-135228118D01*
X143470927Y-135227883D01*
X143222011Y-135330733D01*
X143031402Y-135521010D01*
X143025191Y-135535967D01*
X142169612Y-134680388D01*
X142157194Y-134672091D01*
X142110648Y-134559440D01*
X141941451Y-134389947D01*
X141720271Y-134298105D01*
X141480780Y-134297896D01*
X141259440Y-134389352D01*
X141089947Y-134558549D01*
X141002000Y-134770349D01*
X141002000Y-134600000D01*
X140967594Y-134427027D01*
X140911449Y-134343001D01*
X140869612Y-134280387D01*
X140619612Y-134030388D01*
X140472973Y-133932406D01*
X140300000Y-133898000D01*
X136778095Y-133898000D01*
X136851895Y-133720271D01*
X136852104Y-133480780D01*
X136847901Y-133470608D01*
X136852000Y-133450000D01*
X136852000Y-129149998D01*
X136817594Y-128977025D01*
X136814887Y-128972973D01*
X136719613Y-128830386D01*
X135552000Y-127662774D01*
X135552000Y-125950000D01*
X135517594Y-125777027D01*
X135517594Y-125777026D01*
X135419612Y-125630387D01*
X134719612Y-124930388D01*
X134572973Y-124832406D01*
X134400000Y-124798000D01*
X126437224Y-124798000D01*
X123702000Y-122062776D01*
X123702000Y-121272701D01*
X126172762Y-121272701D01*
X126381956Y-121778989D01*
X126768974Y-122166683D01*
X127274896Y-122376760D01*
X127822701Y-122377238D01*
X128328989Y-122168044D01*
X128716683Y-121781026D01*
X128926760Y-121275104D01*
X128926762Y-121272701D01*
X132672762Y-121272701D01*
X132881956Y-121778989D01*
X133268974Y-122166683D01*
X133774896Y-122376760D01*
X134010427Y-122376966D01*
X133859440Y-122439352D01*
X133689947Y-122608549D01*
X133598105Y-122829729D01*
X133597896Y-123069220D01*
X133689352Y-123290560D01*
X133858549Y-123460053D01*
X134079729Y-123551895D01*
X134162743Y-123551967D01*
X134280387Y-123669612D01*
X134382696Y-123737973D01*
X134427027Y-123767594D01*
X134600000Y-123802000D01*
X135200597Y-123802000D01*
X135258549Y-123860053D01*
X135479729Y-123951895D01*
X135719220Y-123952104D01*
X135940560Y-123860648D01*
X136110053Y-123691451D01*
X136201895Y-123470271D01*
X136202104Y-123230780D01*
X136110648Y-123009440D01*
X135941451Y-122839947D01*
X135771122Y-122769220D01*
X136947896Y-122769220D01*
X137039352Y-122990560D01*
X137048643Y-122999868D01*
X137039947Y-123008549D01*
X136948105Y-123229729D01*
X136947896Y-123469220D01*
X137039352Y-123690560D01*
X137208549Y-123860053D01*
X137429729Y-123951895D01*
X137669220Y-123952104D01*
X137890560Y-123860648D01*
X137949311Y-123802000D01*
X139262776Y-123802000D01*
X140663000Y-125202225D01*
X140663000Y-125705401D01*
X140585254Y-125673118D01*
X140315927Y-125672883D01*
X140067011Y-125775733D01*
X139876402Y-125966010D01*
X139773118Y-126214746D01*
X139772883Y-126484073D01*
X139875733Y-126732989D01*
X140066010Y-126923598D01*
X140314746Y-127026882D01*
X140584073Y-127027117D01*
X140663000Y-126994505D01*
X140663000Y-127379624D01*
X140541402Y-127501010D01*
X140438118Y-127749746D01*
X140437883Y-128019073D01*
X140540733Y-128267989D01*
X140731010Y-128458598D01*
X140979746Y-128561882D01*
X141249073Y-128562117D01*
X141401656Y-128499071D01*
X141501010Y-128598598D01*
X141749746Y-128701882D01*
X142019073Y-128702117D01*
X142065615Y-128682886D01*
X142065615Y-128901865D01*
X142026402Y-128941010D01*
X141923118Y-129189746D01*
X141922883Y-129459073D01*
X142025733Y-129707989D01*
X142216010Y-129898598D01*
X142464746Y-130001882D01*
X142734073Y-130002117D01*
X142848000Y-129955043D01*
X142848000Y-131625000D01*
X142882406Y-131797973D01*
X142980388Y-131944612D01*
X142998033Y-131962257D01*
X142997883Y-132134073D01*
X143100733Y-132382989D01*
X143291010Y-132573598D01*
X143539746Y-132676882D01*
X143809073Y-132677117D01*
X144057989Y-132574267D01*
X144248598Y-132383990D01*
X144351882Y-132135254D01*
X144352117Y-131865927D01*
X144249267Y-131617011D01*
X144058990Y-131426402D01*
X143810254Y-131323118D01*
X143752000Y-131323067D01*
X143752000Y-128925000D01*
X143977000Y-128925000D01*
X143977000Y-129526250D01*
X144135750Y-129685000D01*
X144276309Y-129685000D01*
X144509698Y-129588327D01*
X144688327Y-129409699D01*
X144785000Y-129176310D01*
X144785000Y-129083750D01*
X144626250Y-128925000D01*
X143977000Y-128925000D01*
X143752000Y-128925000D01*
X143752000Y-128653000D01*
X143977000Y-128653000D01*
X143977000Y-128675000D01*
X144626250Y-128675000D01*
X144785000Y-128516250D01*
X144785000Y-128423690D01*
X144688327Y-128190301D01*
X144509698Y-128011673D01*
X144276309Y-127915000D01*
X144135750Y-127915000D01*
X143977002Y-128073748D01*
X143977002Y-127915000D01*
X143852035Y-127915000D01*
X143852117Y-127820927D01*
X143749267Y-127572011D01*
X143611881Y-127434385D01*
X143925000Y-127434385D01*
X144064708Y-127408097D01*
X144176252Y-127336320D01*
X144180849Y-127339461D01*
X144207406Y-127472973D01*
X144305388Y-127619612D01*
X146823000Y-130137224D01*
X146823000Y-130424813D01*
X146761776Y-130464210D01*
X146748990Y-130451402D01*
X146500254Y-130348118D01*
X146230927Y-130347883D01*
X145982011Y-130450733D01*
X145791402Y-130641010D01*
X145688118Y-130889746D01*
X145687958Y-131073055D01*
X145490927Y-131072883D01*
X145242011Y-131175733D01*
X145051402Y-131366010D01*
X144948118Y-131614746D01*
X144947883Y-131884073D01*
X145050733Y-132132989D01*
X145241010Y-132323598D01*
X145291297Y-132344479D01*
X145180388Y-132455388D01*
X145082406Y-132602027D01*
X145048000Y-132775000D01*
X145048000Y-133463169D01*
X144949547Y-133395899D01*
X144800000Y-133365615D01*
X144400000Y-133365615D01*
X144272076Y-133389686D01*
X144158990Y-133276402D01*
X143910254Y-133173118D01*
X143640927Y-133172883D01*
X143392011Y-133275733D01*
X143201402Y-133466010D01*
X143098118Y-133714746D01*
X143097883Y-133984073D01*
X143200733Y-134232989D01*
X143391010Y-134423598D01*
X143639746Y-134526882D01*
X143909073Y-134527117D01*
X143971531Y-134501310D01*
X143975000Y-134502000D01*
X144049813Y-134502000D01*
X144124470Y-134618020D01*
X144250453Y-134704101D01*
X144400000Y-134734385D01*
X144800000Y-134734385D01*
X144939708Y-134708097D01*
X145051252Y-134636320D01*
X145150453Y-134704101D01*
X145300000Y-134734385D01*
X145700000Y-134734385D01*
X145839708Y-134708097D01*
X145968020Y-134625530D01*
X146054101Y-134499547D01*
X146084385Y-134350000D01*
X146084385Y-133750000D01*
X146082521Y-133740094D01*
X146091010Y-133748598D01*
X146339746Y-133851882D01*
X146565615Y-133852079D01*
X146565615Y-133975000D01*
X146591903Y-134114708D01*
X146674470Y-134243020D01*
X146800453Y-134329101D01*
X146950000Y-134359385D01*
X147536359Y-134359385D01*
X147690302Y-134513327D01*
X147923691Y-134610000D01*
X148064250Y-134610000D01*
X148223000Y-134451250D01*
X148223000Y-133850000D01*
X148203000Y-133850000D01*
X148203000Y-133600000D01*
X148223000Y-133600000D01*
X148223000Y-133496250D01*
X148238000Y-133481250D01*
X148238000Y-132880000D01*
X148218000Y-132880000D01*
X148218000Y-132651250D01*
X148248000Y-132621250D01*
X148248000Y-132020000D01*
X148229250Y-132020000D01*
X148228000Y-132018750D01*
X148228000Y-131771250D01*
X148229250Y-131770000D01*
X148248000Y-131770000D01*
X148248000Y-131150000D01*
X148229250Y-131150000D01*
X148228000Y-131148750D01*
X148228000Y-130900000D01*
X148248000Y-130900000D01*
X148248000Y-130298750D01*
X148089250Y-130140000D01*
X147948691Y-130140000D01*
X147727000Y-130231828D01*
X147727000Y-129950000D01*
X147692594Y-129777027D01*
X147594612Y-129630388D01*
X145172878Y-127208654D01*
X145179101Y-127199547D01*
X145209385Y-127050000D01*
X145209385Y-126450000D01*
X145183097Y-126310292D01*
X145100530Y-126181980D01*
X144974547Y-126095899D01*
X144825000Y-126065615D01*
X144425000Y-126065615D01*
X144285292Y-126091903D01*
X144177000Y-126161587D01*
X144177000Y-126000000D01*
X144151892Y-125873772D01*
X144152117Y-125615927D01*
X144049267Y-125367011D01*
X143858990Y-125176402D01*
X143610254Y-125073118D01*
X143340927Y-125072883D01*
X143092011Y-125175733D01*
X143077000Y-125190718D01*
X143077000Y-124932731D01*
X143157989Y-124899267D01*
X143348598Y-124708990D01*
X143451882Y-124460254D01*
X143452117Y-124190927D01*
X143349267Y-123942011D01*
X143158990Y-123751402D01*
X142910254Y-123648118D01*
X142640927Y-123647883D01*
X142626470Y-123653857D01*
X142549267Y-123467011D01*
X142358990Y-123276402D01*
X142110254Y-123173118D01*
X141937192Y-123172967D01*
X141352000Y-122587776D01*
X141352000Y-122130000D01*
X141317594Y-121957027D01*
X141289385Y-121914809D01*
X141289385Y-121598641D01*
X141443327Y-121444698D01*
X141540000Y-121211309D01*
X141540000Y-121070750D01*
X141381252Y-120912002D01*
X141540000Y-120912002D01*
X141540000Y-120797412D01*
X141641010Y-120898598D01*
X141889746Y-121001882D01*
X142159073Y-121002117D01*
X142407989Y-120899267D01*
X142598598Y-120708990D01*
X142701882Y-120460254D01*
X142702117Y-120190927D01*
X142599267Y-119942011D01*
X142408990Y-119751402D01*
X142160254Y-119648118D01*
X142072531Y-119648041D01*
X142058420Y-119629815D01*
X142079101Y-119599547D01*
X142109385Y-119450000D01*
X142109385Y-118950000D01*
X142083097Y-118810292D01*
X142000530Y-118681980D01*
X141874547Y-118595899D01*
X141725000Y-118565615D01*
X141138641Y-118565615D01*
X140984698Y-118411673D01*
X140751309Y-118315000D01*
X140610750Y-118315000D01*
X140452000Y-118473750D01*
X140452000Y-119075000D01*
X140472000Y-119075000D01*
X140472000Y-119325000D01*
X140452000Y-119325000D01*
X140452000Y-119347000D01*
X140198000Y-119347000D01*
X140198000Y-119325000D01*
X139548750Y-119325000D01*
X139390000Y-119483750D01*
X139390000Y-119576310D01*
X139486673Y-119809699D01*
X139597998Y-119921023D01*
X139597998Y-119986748D01*
X139441250Y-119830000D01*
X139348690Y-119830000D01*
X139115301Y-119926673D01*
X138936673Y-120105302D01*
X138840000Y-120338691D01*
X138840000Y-120479250D01*
X138998750Y-120638000D01*
X139600000Y-120638000D01*
X139600000Y-120618000D01*
X139850000Y-120618000D01*
X139850000Y-120638000D01*
X139908750Y-120638000D01*
X139928750Y-120658000D01*
X140530000Y-120658000D01*
X140530000Y-120638000D01*
X140780000Y-120638000D01*
X140780000Y-120658000D01*
X140802000Y-120658000D01*
X140802000Y-120912000D01*
X140780000Y-120912000D01*
X140780000Y-120932000D01*
X140530000Y-120932000D01*
X140530000Y-120912000D01*
X140471250Y-120912000D01*
X140451250Y-120892000D01*
X139850000Y-120892000D01*
X139850000Y-120912000D01*
X139600000Y-120912000D01*
X139600000Y-120892000D01*
X138998750Y-120892000D01*
X138840000Y-121050750D01*
X138840000Y-121191309D01*
X138936673Y-121424698D01*
X139090615Y-121578641D01*
X139090615Y-122165000D01*
X139096824Y-122198000D01*
X137949403Y-122198000D01*
X137891451Y-122139947D01*
X137670271Y-122048105D01*
X137430780Y-122047896D01*
X137209440Y-122139352D01*
X137039947Y-122308549D01*
X136948105Y-122529729D01*
X136947896Y-122769220D01*
X135771122Y-122769220D01*
X135720271Y-122748105D01*
X135480780Y-122747896D01*
X135259440Y-122839352D01*
X135200689Y-122898000D01*
X134802045Y-122898000D01*
X134802104Y-122830780D01*
X134710648Y-122609440D01*
X134541451Y-122439947D01*
X134356650Y-122363211D01*
X134828989Y-122168044D01*
X135216683Y-121781026D01*
X135426760Y-121275104D01*
X135427238Y-120727299D01*
X135218044Y-120221011D01*
X134831026Y-119833317D01*
X134325104Y-119623240D01*
X133777299Y-119622762D01*
X133271011Y-119831956D01*
X132883317Y-120218974D01*
X132673240Y-120724896D01*
X132672762Y-121272701D01*
X128926762Y-121272701D01*
X128927238Y-120727299D01*
X128718044Y-120221011D01*
X128331026Y-119833317D01*
X127825104Y-119623240D01*
X127277299Y-119622762D01*
X126771011Y-119831956D01*
X126383317Y-120218974D01*
X126173240Y-120724896D01*
X126172762Y-121272701D01*
X123702000Y-121272701D01*
X123702000Y-120949490D01*
X123710053Y-120941451D01*
X123801895Y-120720271D01*
X123802104Y-120480780D01*
X123710648Y-120259440D01*
X123541451Y-120089947D01*
X123320271Y-119998105D01*
X123080780Y-119997896D01*
X122977000Y-120040777D01*
X122977000Y-118823690D01*
X139390000Y-118823690D01*
X139390000Y-118916250D01*
X139548750Y-119075000D01*
X140198000Y-119075000D01*
X140198000Y-118473750D01*
X140039250Y-118315000D01*
X139898691Y-118315000D01*
X139665302Y-118411673D01*
X139486673Y-118590301D01*
X139390000Y-118823690D01*
X122977000Y-118823690D01*
X122977000Y-117652532D01*
X126577073Y-117652532D01*
X126675736Y-117919387D01*
X127285461Y-118145908D01*
X127935460Y-118121856D01*
X128424264Y-117919387D01*
X128522927Y-117652532D01*
X133077073Y-117652532D01*
X133175736Y-117919387D01*
X133785461Y-118145908D01*
X134435460Y-118121856D01*
X134924264Y-117919387D01*
X135022927Y-117652532D01*
X134050000Y-116679605D01*
X133077073Y-117652532D01*
X128522927Y-117652532D01*
X127550000Y-116679605D01*
X126577073Y-117652532D01*
X122977000Y-117652532D01*
X122977000Y-116634385D01*
X123350000Y-116634385D01*
X123489708Y-116608097D01*
X123618020Y-116525530D01*
X123704101Y-116399547D01*
X123734385Y-116250000D01*
X123734385Y-116235461D01*
X125904092Y-116235461D01*
X125928144Y-116885460D01*
X126130613Y-117374264D01*
X126397468Y-117472927D01*
X127370395Y-116500000D01*
X127729605Y-116500000D01*
X128702532Y-117472927D01*
X128969387Y-117374264D01*
X129195908Y-116764539D01*
X129176331Y-116235461D01*
X132404092Y-116235461D01*
X132428144Y-116885460D01*
X132630613Y-117374264D01*
X132897468Y-117472927D01*
X133870395Y-116500000D01*
X134229605Y-116500000D01*
X135202532Y-117472927D01*
X135469387Y-117374264D01*
X135695908Y-116764539D01*
X135671856Y-116114540D01*
X135469387Y-115625736D01*
X135202532Y-115527073D01*
X134229605Y-116500000D01*
X133870395Y-116500000D01*
X132897468Y-115527073D01*
X132630613Y-115625736D01*
X132404092Y-116235461D01*
X129176331Y-116235461D01*
X129171856Y-116114540D01*
X128969387Y-115625736D01*
X128702532Y-115527073D01*
X127729605Y-116500000D01*
X127370395Y-116500000D01*
X126397468Y-115527073D01*
X126130613Y-115625736D01*
X125904092Y-116235461D01*
X123734385Y-116235461D01*
X123734385Y-115347468D01*
X126577073Y-115347468D01*
X127550000Y-116320395D01*
X128522927Y-115347468D01*
X133077073Y-115347468D01*
X134050000Y-116320395D01*
X135022927Y-115347468D01*
X134924264Y-115080613D01*
X134314539Y-114854092D01*
X133664540Y-114878144D01*
X133175736Y-115080613D01*
X133077073Y-115347468D01*
X128522927Y-115347468D01*
X128424264Y-115080613D01*
X127814539Y-114854092D01*
X127164540Y-114878144D01*
X126675736Y-115080613D01*
X126577073Y-115347468D01*
X123734385Y-115347468D01*
X123734385Y-114550000D01*
X123708097Y-114410292D01*
X123625530Y-114281980D01*
X123499547Y-114195899D01*
X123350000Y-114165615D01*
X121650000Y-114165615D01*
X121510292Y-114191903D01*
X121381980Y-114274470D01*
X121295899Y-114400453D01*
X121265615Y-114550000D01*
X121265615Y-116250000D01*
X121291903Y-116389708D01*
X121374470Y-116518020D01*
X121500453Y-116604101D01*
X121650000Y-116634385D01*
X122023000Y-116634385D01*
X122023000Y-122850000D01*
X122059309Y-123032540D01*
X122162710Y-123187290D01*
X125098068Y-126122648D01*
X125097975Y-126228751D01*
X119647000Y-120777776D01*
X119647000Y-117520516D01*
X119688598Y-117478990D01*
X119791882Y-117230254D01*
X119792117Y-116960927D01*
X119689267Y-116712011D01*
X119498990Y-116521402D01*
X119250254Y-116418118D01*
X118980927Y-116417883D01*
X118732011Y-116520733D01*
X118541402Y-116711010D01*
X118438118Y-116959746D01*
X118437883Y-117229073D01*
X118540733Y-117477989D01*
X118731010Y-117668598D01*
X118743000Y-117673577D01*
X118743000Y-120965000D01*
X118777406Y-121137973D01*
X118875388Y-121284612D01*
X123138776Y-125548000D01*
X119100000Y-125548000D01*
X118927027Y-125582406D01*
X118780388Y-125680388D01*
X117680388Y-126780388D01*
X117582406Y-126927027D01*
X117548000Y-127100000D01*
X117548000Y-127465000D01*
X117582406Y-127637973D01*
X117680388Y-127784612D01*
X118683054Y-128787278D01*
X118682878Y-128989024D01*
X118769225Y-129198000D01*
X118500000Y-129198000D01*
X118327027Y-129232406D01*
X118180388Y-129330388D01*
X117580388Y-129930388D01*
X117482406Y-130077027D01*
X117448000Y-130250000D01*
X117448000Y-130898042D01*
X117437257Y-130898033D01*
X116739611Y-130200387D01*
X116592972Y-130102405D01*
X116419999Y-130067999D01*
X116165187Y-130067999D01*
X116090530Y-129951979D01*
X115964547Y-129865898D01*
X115815000Y-129835614D01*
X115428641Y-129835614D01*
X115274698Y-129681672D01*
X115041309Y-129584999D01*
X114973750Y-129584999D01*
X114815000Y-129743749D01*
X114815000Y-130392999D01*
X114862000Y-130392999D01*
X114862000Y-130646999D01*
X114815000Y-130646999D01*
X114815000Y-130708750D01*
X114800000Y-130723750D01*
X114800000Y-131373000D01*
X114847000Y-131373000D01*
X114847000Y-131627000D01*
X114800000Y-131627000D01*
X114800000Y-132276250D01*
X114958750Y-132435000D01*
X115026309Y-132435000D01*
X115259698Y-132338327D01*
X115413641Y-132184385D01*
X115800000Y-132184385D01*
X115939708Y-132158097D01*
X115992477Y-132124141D01*
X116179729Y-132201895D01*
X116419220Y-132202104D01*
X116640560Y-132110648D01*
X116810053Y-131941451D01*
X116870695Y-131795408D01*
X116889352Y-131840560D01*
X117058549Y-132010053D01*
X117279729Y-132101895D01*
X117448000Y-132102042D01*
X117448000Y-136500000D01*
X117482406Y-136672973D01*
X117580388Y-136819612D01*
X119984481Y-139223706D01*
X119864540Y-139228144D01*
X119375736Y-139430613D01*
X119277073Y-139697468D01*
X120250000Y-140670395D01*
X120264143Y-140656253D01*
X120443748Y-140835858D01*
X120429605Y-140850000D01*
X121402532Y-141822927D01*
X121669387Y-141724264D01*
X121768435Y-141457659D01*
X121847968Y-141537192D01*
X121847896Y-141619220D01*
X121939352Y-141840560D01*
X122108549Y-142010053D01*
X122329729Y-142101895D01*
X122569220Y-142102104D01*
X122790560Y-142010648D01*
X122960053Y-141841451D01*
X123051895Y-141620271D01*
X123052104Y-141380780D01*
X123019553Y-141302000D01*
X125362776Y-141302000D01*
X127680388Y-143619612D01*
X127827027Y-143717594D01*
X128000000Y-143752000D01*
X128600597Y-143752000D01*
X128658549Y-143810053D01*
X128879729Y-143901895D01*
X129119220Y-143902104D01*
X129340560Y-143810648D01*
X129443000Y-143708387D01*
X129443000Y-144815000D01*
X129477406Y-144987973D01*
X129575388Y-145134612D01*
X131183000Y-146742225D01*
X131183000Y-148285000D01*
X131217406Y-148457973D01*
X131315388Y-148604612D01*
X131757928Y-149047152D01*
X131742362Y-149070447D01*
X131648962Y-149540000D01*
X131742362Y-150009553D01*
X132001914Y-150398000D01*
X131237225Y-150398000D01*
X128454612Y-147615388D01*
X128307973Y-147517406D01*
X128135000Y-147483000D01*
X116272250Y-147483000D01*
X116131250Y-147342000D01*
X115555000Y-147342000D01*
X115555000Y-147362000D01*
X115355000Y-147362000D01*
X115355000Y-147342000D01*
X115308000Y-147342000D01*
X115308000Y-147088000D01*
X115355000Y-147088000D01*
X115355000Y-146438750D01*
X115555000Y-146438750D01*
X115555000Y-147088000D01*
X116131250Y-147088000D01*
X116290000Y-146929250D01*
X116290000Y-146788690D01*
X116193327Y-146555301D01*
X116014698Y-146376673D01*
X115781309Y-146280000D01*
X115713750Y-146280000D01*
X115555000Y-146438750D01*
X115355000Y-146438750D01*
X115196250Y-146280000D01*
X115128691Y-146280000D01*
X114895302Y-146376673D01*
X114741359Y-146530615D01*
X114498565Y-146530615D01*
X114528989Y-146518044D01*
X114916683Y-146131026D01*
X115126760Y-145625104D01*
X115126762Y-145622701D01*
X118872762Y-145622701D01*
X119081956Y-146128989D01*
X119468974Y-146516683D01*
X119974896Y-146726760D01*
X120522701Y-146727238D01*
X120542106Y-146719220D01*
X125897896Y-146719220D01*
X125989352Y-146940560D01*
X126158549Y-147110053D01*
X126379729Y-147201895D01*
X126619220Y-147202104D01*
X126840560Y-147110648D01*
X127010053Y-146941451D01*
X127101895Y-146720271D01*
X127102104Y-146480780D01*
X127010648Y-146259440D01*
X126841451Y-146089947D01*
X126620271Y-145998105D01*
X126380780Y-145997896D01*
X126159440Y-146089352D01*
X125989947Y-146258549D01*
X125898105Y-146479729D01*
X125897896Y-146719220D01*
X120542106Y-146719220D01*
X121028989Y-146518044D01*
X121416683Y-146131026D01*
X121626760Y-145625104D01*
X121627238Y-145077299D01*
X121418044Y-144571011D01*
X121031026Y-144183317D01*
X120525104Y-143973240D01*
X119977299Y-143972762D01*
X119471011Y-144181956D01*
X119083317Y-144568974D01*
X118873240Y-145074896D01*
X118872762Y-145622701D01*
X115126762Y-145622701D01*
X115127238Y-145077299D01*
X114918044Y-144571011D01*
X114531026Y-144183317D01*
X114025104Y-143973240D01*
X113477299Y-143972762D01*
X112971011Y-144181956D01*
X112817000Y-144335698D01*
X112817000Y-142110523D01*
X112875736Y-142269387D01*
X113485461Y-142495908D01*
X114135460Y-142471856D01*
X114624264Y-142269387D01*
X114722927Y-142002532D01*
X119277073Y-142002532D01*
X119375736Y-142269387D01*
X119985461Y-142495908D01*
X120635460Y-142471856D01*
X121124264Y-142269387D01*
X121222927Y-142002532D01*
X120250000Y-141029605D01*
X119277073Y-142002532D01*
X114722927Y-142002532D01*
X113750000Y-141029605D01*
X113735858Y-141043748D01*
X113556253Y-140864143D01*
X113570395Y-140850000D01*
X113929605Y-140850000D01*
X114902532Y-141822927D01*
X115169387Y-141724264D01*
X115395908Y-141114539D01*
X115376331Y-140585461D01*
X118604092Y-140585461D01*
X118628144Y-141235460D01*
X118830613Y-141724264D01*
X119097468Y-141822927D01*
X120070395Y-140850000D01*
X119097468Y-139877073D01*
X118830613Y-139975736D01*
X118604092Y-140585461D01*
X115376331Y-140585461D01*
X115371856Y-140464540D01*
X115169387Y-139975736D01*
X114902532Y-139877073D01*
X113929605Y-140850000D01*
X113570395Y-140850000D01*
X113556253Y-140835858D01*
X113735858Y-140656253D01*
X113750000Y-140670395D01*
X114722927Y-139697468D01*
X114624264Y-139430613D01*
X114014539Y-139204092D01*
X113364540Y-139228144D01*
X112875736Y-139430613D01*
X112817000Y-139589477D01*
X112817000Y-136679068D01*
X113108000Y-136775000D01*
X113408000Y-136775000D01*
X113408000Y-135867000D01*
X113662000Y-135867000D01*
X113662000Y-136775000D01*
X113962000Y-136775000D01*
X114348410Y-136647615D01*
X114656658Y-136382053D01*
X114829666Y-136026123D01*
X114701998Y-135867000D01*
X113662000Y-135867000D01*
X113408000Y-135867000D01*
X113388000Y-135867000D01*
X113388000Y-135613000D01*
X113408000Y-135613000D01*
X113408000Y-134705000D01*
X113662000Y-134705000D01*
X113662000Y-135613000D01*
X114701998Y-135613000D01*
X114829666Y-135453877D01*
X114656658Y-135097947D01*
X114348410Y-134832385D01*
X113962000Y-134705000D01*
X113662000Y-134705000D01*
X113408000Y-134705000D01*
X113108000Y-134705000D01*
X112721590Y-134832385D01*
X112496082Y-135026664D01*
X112496892Y-131785750D01*
X113865000Y-131785750D01*
X113865000Y-131926310D01*
X113961673Y-132159699D01*
X114140302Y-132338327D01*
X114373691Y-132435000D01*
X114441250Y-132435000D01*
X114600000Y-132276250D01*
X114600000Y-131627000D01*
X114023750Y-131627000D01*
X113865000Y-131785750D01*
X112496892Y-131785750D01*
X112497070Y-131073690D01*
X113865000Y-131073690D01*
X113865000Y-131214250D01*
X114023750Y-131373000D01*
X114190728Y-131373000D01*
X114388691Y-131454999D01*
X114456250Y-131454999D01*
X114538249Y-131373000D01*
X114600000Y-131373000D01*
X114600000Y-131311249D01*
X114615000Y-131296249D01*
X114615000Y-130646999D01*
X114523249Y-130646999D01*
X114441250Y-130565000D01*
X114373691Y-130565000D01*
X114175728Y-130646999D01*
X114038750Y-130646999D01*
X113880000Y-130805749D01*
X113880000Y-130946309D01*
X113898881Y-130991893D01*
X113865000Y-131073690D01*
X112497070Y-131073690D01*
X112497315Y-130093689D01*
X113880000Y-130093689D01*
X113880000Y-130234249D01*
X114038750Y-130392999D01*
X114615000Y-130392999D01*
X114615000Y-129743749D01*
X114456250Y-129584999D01*
X114388691Y-129584999D01*
X114155302Y-129681672D01*
X113976673Y-129860300D01*
X113880000Y-130093689D01*
X112497315Y-130093689D01*
X112497970Y-127474962D01*
X112721590Y-127667615D01*
X113108000Y-127795000D01*
X113408000Y-127795000D01*
X113408000Y-126887000D01*
X113662000Y-126887000D01*
X113662000Y-127795000D01*
X113962000Y-127795000D01*
X114348410Y-127667615D01*
X114656658Y-127402053D01*
X114829666Y-127046123D01*
X114701998Y-126887000D01*
X113662000Y-126887000D01*
X113408000Y-126887000D01*
X113388000Y-126887000D01*
X113388000Y-126633000D01*
X113408000Y-126633000D01*
X113408000Y-125725000D01*
X113662000Y-125725000D01*
X113662000Y-126633000D01*
X114701998Y-126633000D01*
X114829666Y-126473877D01*
X114656658Y-126117947D01*
X114348410Y-125852385D01*
X113962000Y-125725000D01*
X113662000Y-125725000D01*
X113408000Y-125725000D01*
X113108000Y-125725000D01*
X112827000Y-125817635D01*
X112827000Y-122616224D01*
X113180615Y-122969839D01*
X113180615Y-124655000D01*
X113206903Y-124794708D01*
X113289470Y-124923020D01*
X113415453Y-125009101D01*
X113565000Y-125039385D01*
X115265000Y-125039385D01*
X115404708Y-125013097D01*
X115533020Y-124930530D01*
X115619101Y-124804547D01*
X115649385Y-124655000D01*
X115649385Y-123780962D01*
X115728000Y-123780962D01*
X115728000Y-123829038D01*
X115821400Y-124298591D01*
X116087380Y-124696658D01*
X116485447Y-124962638D01*
X116955000Y-125056038D01*
X117424553Y-124962638D01*
X117822620Y-124696658D01*
X118088600Y-124298591D01*
X118182000Y-123829038D01*
X118182000Y-123780962D01*
X118088600Y-123311409D01*
X117822620Y-122913342D01*
X117424553Y-122647362D01*
X116955000Y-122553962D01*
X116485447Y-122647362D01*
X116087380Y-122913342D01*
X115821400Y-123311409D01*
X115728000Y-123780962D01*
X115649385Y-123780962D01*
X115649385Y-122955000D01*
X115623097Y-122815292D01*
X115540530Y-122686980D01*
X115414547Y-122600899D01*
X115265000Y-122570615D01*
X114059839Y-122570615D01*
X113407000Y-121917776D01*
X113407000Y-121249660D01*
X113435453Y-121269101D01*
X113585000Y-121299385D01*
X115285000Y-121299385D01*
X115424708Y-121273097D01*
X115553020Y-121190530D01*
X115639101Y-121064547D01*
X115669385Y-120915000D01*
X115669385Y-120040962D01*
X115748000Y-120040962D01*
X115748000Y-120089038D01*
X115841400Y-120558591D01*
X116107380Y-120956658D01*
X116505447Y-121222638D01*
X116975000Y-121316038D01*
X117444553Y-121222638D01*
X117842620Y-120956658D01*
X118108600Y-120558591D01*
X118202000Y-120089038D01*
X118202000Y-120040962D01*
X118108600Y-119571409D01*
X117842620Y-119173342D01*
X117444553Y-118907362D01*
X116975000Y-118813962D01*
X116505447Y-118907362D01*
X116107380Y-119173342D01*
X115841400Y-119571409D01*
X115748000Y-120040962D01*
X115669385Y-120040962D01*
X115669385Y-119215000D01*
X115643097Y-119075292D01*
X115560530Y-118946980D01*
X115434547Y-118860899D01*
X115285000Y-118830615D01*
X114887000Y-118830615D01*
X114887000Y-118619594D01*
X115008691Y-118670000D01*
X115076250Y-118670000D01*
X115235000Y-118511250D01*
X115235000Y-117862000D01*
X115435000Y-117862000D01*
X115435000Y-118511250D01*
X115593750Y-118670000D01*
X115661309Y-118670000D01*
X115894698Y-118573327D01*
X116073327Y-118394699D01*
X116170000Y-118161310D01*
X116170000Y-118020750D01*
X116011250Y-117862000D01*
X115435000Y-117862000D01*
X115235000Y-117862000D01*
X115188000Y-117862000D01*
X115188000Y-117608000D01*
X115235000Y-117608000D01*
X115235000Y-116802000D01*
X115435000Y-116802000D01*
X115435000Y-117608000D01*
X115591750Y-117608000D01*
X115593750Y-117610000D01*
X115661309Y-117610000D01*
X115666137Y-117608000D01*
X116011250Y-117608000D01*
X116170000Y-117449250D01*
X116170000Y-117308690D01*
X116127050Y-117205000D01*
X116170000Y-117101310D01*
X116170000Y-116960750D01*
X116011250Y-116802000D01*
X115666137Y-116802000D01*
X115661309Y-116800000D01*
X115593750Y-116800000D01*
X115591750Y-116802000D01*
X115435000Y-116802000D01*
X115235000Y-116802000D01*
X115188000Y-116802000D01*
X115188000Y-116548000D01*
X115235000Y-116548000D01*
X115235000Y-115752000D01*
X115435000Y-115752000D01*
X115435000Y-116548000D01*
X115581750Y-116548000D01*
X115593750Y-116560000D01*
X115661309Y-116560000D01*
X115690280Y-116548000D01*
X116011250Y-116548000D01*
X116170000Y-116389250D01*
X116170000Y-116248690D01*
X116129121Y-116150000D01*
X116170000Y-116051310D01*
X116170000Y-115910750D01*
X116011250Y-115752000D01*
X115690280Y-115752000D01*
X115661309Y-115740000D01*
X115593750Y-115740000D01*
X115581750Y-115752000D01*
X115435000Y-115752000D01*
X115235000Y-115752000D01*
X115188000Y-115752000D01*
X115188000Y-115498000D01*
X115235000Y-115498000D01*
X115235000Y-114848750D01*
X115435000Y-114848750D01*
X115435000Y-115498000D01*
X116011250Y-115498000D01*
X116170000Y-115339250D01*
X116170000Y-115198690D01*
X116073327Y-114965301D01*
X115894698Y-114786673D01*
X115661309Y-114690000D01*
X115593750Y-114690000D01*
X115435000Y-114848750D01*
X115235000Y-114848750D01*
X115076250Y-114690000D01*
X115008691Y-114690000D01*
X114887000Y-114740406D01*
X114887000Y-114479385D01*
X115305000Y-114479385D01*
X115444708Y-114453097D01*
X115573020Y-114370530D01*
X115659101Y-114244547D01*
X115689385Y-114095000D01*
X115689385Y-113220962D01*
X115768000Y-113220962D01*
X115768000Y-113269038D01*
X115861400Y-113738591D01*
X116127380Y-114136658D01*
X116525447Y-114402638D01*
X116995000Y-114496038D01*
X117464553Y-114402638D01*
X117862620Y-114136658D01*
X118128600Y-113738591D01*
X118222000Y-113269038D01*
X118222000Y-113220962D01*
X118128600Y-112751409D01*
X117862620Y-112353342D01*
X117464553Y-112087362D01*
X116995000Y-111993962D01*
X116525447Y-112087362D01*
X116127380Y-112353342D01*
X115861400Y-112751409D01*
X115768000Y-113220962D01*
X115689385Y-113220962D01*
X115689385Y-112395000D01*
X115663097Y-112255292D01*
X115580530Y-112126980D01*
X115454547Y-112040899D01*
X115305000Y-112010615D01*
X113605000Y-112010615D01*
X113465292Y-112036903D01*
X113336980Y-112119470D01*
X113250899Y-112245453D01*
X113220615Y-112395000D01*
X113220615Y-114095000D01*
X113246903Y-114234708D01*
X113329470Y-114363020D01*
X113455453Y-114449101D01*
X113605000Y-114479385D01*
X113983000Y-114479385D01*
X113983000Y-115039161D01*
X113966980Y-115049470D01*
X113880899Y-115175453D01*
X113850615Y-115325000D01*
X113850615Y-115925000D01*
X113876903Y-116064708D01*
X113932111Y-116150503D01*
X113880899Y-116225453D01*
X113850615Y-116375000D01*
X113850615Y-116610161D01*
X112827000Y-117633776D01*
X112827000Y-111807000D01*
X121885783Y-111807000D01*
X121608342Y-111992380D01*
X121608342Y-111992380D01*
G37*
X121608342Y-111992380D02*
X121342362Y-112390447D01*
X121248962Y-112860000D01*
X121342362Y-113329553D01*
X121608342Y-113727620D01*
X122006409Y-113993600D01*
X122475962Y-114087000D01*
X122524038Y-114087000D01*
X122993591Y-113993600D01*
X123391658Y-113727620D01*
X123657638Y-113329553D01*
X123706133Y-113085750D01*
X124965000Y-113085750D01*
X124965000Y-113776309D01*
X125061673Y-114009698D01*
X125240301Y-114188327D01*
X125473690Y-114285000D01*
X126164250Y-114285000D01*
X126323000Y-114126250D01*
X126323000Y-112927000D01*
X125123750Y-112927000D01*
X124965000Y-113085750D01*
X123706133Y-113085750D01*
X123751038Y-112860000D01*
X123657638Y-112390447D01*
X123391658Y-111992380D01*
X123114217Y-111807000D01*
X124971914Y-111807000D01*
X124965000Y-111823691D01*
X124965000Y-112514250D01*
X125123750Y-112673000D01*
X126323000Y-112673000D01*
X126323000Y-112653000D01*
X126577000Y-112653000D01*
X126577000Y-112673000D01*
X126597000Y-112673000D01*
X126597000Y-112927000D01*
X126577000Y-112927000D01*
X126577000Y-114126250D01*
X126735750Y-114285000D01*
X127426310Y-114285000D01*
X127659699Y-114188327D01*
X127838327Y-114009698D01*
X127935000Y-113776309D01*
X127935000Y-113411224D01*
X128122380Y-113691658D01*
X128520447Y-113957638D01*
X128990000Y-114051038D01*
X129459553Y-113957638D01*
X129857620Y-113691658D01*
X130123600Y-113293591D01*
X130217000Y-112824038D01*
X130217000Y-112775962D01*
X130123600Y-112306409D01*
X129857620Y-111908342D01*
X129705951Y-111807000D01*
X130814049Y-111807000D01*
X130662380Y-111908342D01*
X130396400Y-112306409D01*
X130303000Y-112775962D01*
X130303000Y-112824038D01*
X130396400Y-113293591D01*
X130662380Y-113691658D01*
X131060447Y-113957638D01*
X131530000Y-114051038D01*
X131999553Y-113957638D01*
X132397620Y-113691658D01*
X132663600Y-113293591D01*
X132757000Y-112824038D01*
X132757000Y-112775962D01*
X132663600Y-112306409D01*
X132397620Y-111908342D01*
X132245951Y-111807000D01*
X133354049Y-111807000D01*
X133202380Y-111908342D01*
X132936400Y-112306409D01*
X132843000Y-112775962D01*
X132843000Y-112824038D01*
X132936400Y-113293591D01*
X133202380Y-113691658D01*
X133600447Y-113957638D01*
X134070000Y-114051038D01*
X134539553Y-113957638D01*
X134937620Y-113691658D01*
X135203600Y-113293591D01*
X135297000Y-112824038D01*
X135297000Y-112775962D01*
X135203600Y-112306409D01*
X134937620Y-111908342D01*
X134785951Y-111807000D01*
X135894049Y-111807000D01*
X135742380Y-111908342D01*
X135476400Y-112306409D01*
X135383000Y-112775962D01*
X135383000Y-112824038D01*
X135476400Y-113293591D01*
X135742380Y-113691658D01*
X136140447Y-113957638D01*
X136610000Y-114051038D01*
X136748067Y-114023575D01*
X136747896Y-114219220D01*
X136839352Y-114440560D01*
X137008549Y-114610053D01*
X137229729Y-114701895D01*
X137312743Y-114701967D01*
X138097968Y-115487192D01*
X138097896Y-115569220D01*
X138189352Y-115790560D01*
X138254726Y-115856049D01*
X138012808Y-116097968D01*
X137930780Y-116097896D01*
X137709440Y-116189352D01*
X137539947Y-116358549D01*
X137448105Y-116579729D01*
X137447896Y-116819220D01*
X137539352Y-117040560D01*
X137708549Y-117210053D01*
X137929729Y-117301895D01*
X138169220Y-117302104D01*
X138390560Y-117210648D01*
X138560053Y-117041451D01*
X138651895Y-116820271D01*
X138651967Y-116737257D01*
X138787225Y-116602000D01*
X139150000Y-116602000D01*
X139322973Y-116567594D01*
X139469612Y-116469612D01*
X140119612Y-115819612D01*
X140217594Y-115672973D01*
X140252000Y-115500000D01*
X140252000Y-115399403D01*
X140310053Y-115341451D01*
X140401895Y-115120271D01*
X140402104Y-114880780D01*
X140310648Y-114659440D01*
X140141451Y-114489947D01*
X139920271Y-114398105D01*
X139680780Y-114397896D01*
X139459440Y-114489352D01*
X139289947Y-114658549D01*
X139198105Y-114879729D01*
X139197916Y-115096685D01*
X139041451Y-114939947D01*
X138820271Y-114848105D01*
X138737257Y-114848033D01*
X137952032Y-114062808D01*
X137952104Y-113980780D01*
X137860648Y-113759440D01*
X137691451Y-113589947D01*
X137577263Y-113542532D01*
X137743600Y-113293591D01*
X137837000Y-112824038D01*
X137837000Y-112775962D01*
X137743600Y-112306409D01*
X137477620Y-111908342D01*
X137325951Y-111807000D01*
X138434049Y-111807000D01*
X138282380Y-111908342D01*
X138016400Y-112306409D01*
X137923000Y-112775962D01*
X137923000Y-112824038D01*
X138016400Y-113293591D01*
X138282380Y-113691658D01*
X138680447Y-113957638D01*
X139150000Y-114051038D01*
X139619553Y-113957638D01*
X140017620Y-113691658D01*
X140283600Y-113293591D01*
X140377000Y-112824038D01*
X140377000Y-112775962D01*
X140283600Y-112306409D01*
X140017620Y-111908342D01*
X139865951Y-111807000D01*
X143948198Y-111807000D01*
X143958000Y-120335146D01*
X143966685Y-120381159D01*
X143993965Y-120423553D01*
X144035590Y-120451994D01*
X144085000Y-120462000D01*
X148473000Y-120462000D01*
X148473000Y-150893000D01*
X146145310Y-150893000D01*
X146481358Y-150735183D01*
X146871645Y-150306924D01*
X147041476Y-149896890D01*
X146920155Y-149667000D01*
X145727000Y-149667000D01*
X145727000Y-149687000D01*
X145473000Y-149687000D01*
X145473000Y-149667000D01*
X144279845Y-149667000D01*
X144158524Y-149896890D01*
X144328355Y-150306924D01*
X144718642Y-150735183D01*
X145054690Y-150893000D01*
X134696224Y-150893000D01*
X137519612Y-148069612D01*
X137617594Y-147922973D01*
X137652000Y-147750000D01*
X137652000Y-146037224D01*
X137739224Y-145950000D01*
X138115615Y-145950000D01*
X138115615Y-147650000D01*
X138141903Y-147789708D01*
X138224470Y-147918020D01*
X138350453Y-148004101D01*
X138500000Y-148034385D01*
X140200000Y-148034385D01*
X140339708Y-148008097D01*
X140468020Y-147925530D01*
X140554101Y-147799547D01*
X140584385Y-147650000D01*
X140584385Y-145950000D01*
X140558097Y-145810292D01*
X140475530Y-145681980D01*
X140349547Y-145595899D01*
X140200000Y-145565615D01*
X138500000Y-145565615D01*
X138360292Y-145591903D01*
X138231980Y-145674470D01*
X138145899Y-145800453D01*
X138115615Y-145950000D01*
X137739224Y-145950000D01*
X138137224Y-145552000D01*
X142700000Y-145552000D01*
X142872973Y-145517594D01*
X143019612Y-145419612D01*
X143948000Y-144491224D01*
X143948000Y-146278860D01*
X143882406Y-146377027D01*
X143848000Y-146550000D01*
X143848000Y-147562776D01*
X142725388Y-148685388D01*
X142627406Y-148832027D01*
X142593000Y-149005000D01*
X142593000Y-149083000D01*
X140549917Y-149083000D01*
X140507638Y-148870447D01*
X140241658Y-148472380D01*
X139843591Y-148206400D01*
X139374038Y-148113000D01*
X139325962Y-148113000D01*
X138856409Y-148206400D01*
X138458342Y-148472380D01*
X138192362Y-148870447D01*
X138098962Y-149340000D01*
X138192362Y-149809553D01*
X138458342Y-150207620D01*
X138856409Y-150473600D01*
X139325962Y-150567000D01*
X139374038Y-150567000D01*
X139843591Y-150473600D01*
X140241658Y-150207620D01*
X140389072Y-149987000D01*
X143045000Y-149987000D01*
X143217973Y-149952594D01*
X143364612Y-149854612D01*
X143462594Y-149707973D01*
X143497000Y-149535000D01*
X143497000Y-149192224D01*
X144531938Y-148157286D01*
X144600453Y-148204101D01*
X144750000Y-148234385D01*
X144953791Y-148234385D01*
X144718642Y-148344817D01*
X144328355Y-148773076D01*
X144158524Y-149183110D01*
X144279845Y-149413000D01*
X145473000Y-149413000D01*
X145473000Y-149393000D01*
X145727000Y-149393000D01*
X145727000Y-149413000D01*
X146920155Y-149413000D01*
X147041476Y-149183110D01*
X146871645Y-148773076D01*
X146481358Y-148344817D01*
X146246209Y-148234385D01*
X146450000Y-148234385D01*
X146589708Y-148208097D01*
X146718020Y-148125530D01*
X146804101Y-147999547D01*
X146834385Y-147850000D01*
X146834385Y-146150000D01*
X146808097Y-146010292D01*
X146725530Y-145881980D01*
X146599547Y-145795899D01*
X146450000Y-145765615D01*
X144852000Y-145765615D01*
X144852000Y-141788779D01*
X146727857Y-141788779D01*
X146853495Y-142092846D01*
X147085930Y-142325688D01*
X147389778Y-142451856D01*
X147718779Y-142452143D01*
X148022846Y-142326505D01*
X148255688Y-142094070D01*
X148381856Y-141790222D01*
X148382143Y-141461221D01*
X148256505Y-141157154D01*
X148024070Y-140924312D01*
X147720222Y-140798144D01*
X147391221Y-140797857D01*
X147087154Y-140923495D01*
X146854312Y-141155930D01*
X146728144Y-141459778D01*
X146727857Y-141788779D01*
X144852000Y-141788779D01*
X144852000Y-138788779D01*
X146727857Y-138788779D01*
X146853495Y-139092846D01*
X147085930Y-139325688D01*
X147389778Y-139451856D01*
X147718779Y-139452143D01*
X148022846Y-139326505D01*
X148255688Y-139094070D01*
X148381856Y-138790222D01*
X148382143Y-138461221D01*
X148256505Y-138157154D01*
X148024070Y-137924312D01*
X147720222Y-137798144D01*
X147391221Y-137797857D01*
X147087154Y-137923495D01*
X146854312Y-138155930D01*
X146728144Y-138459778D01*
X146727857Y-138788779D01*
X144852000Y-138788779D01*
X144852000Y-137550000D01*
X144817594Y-137377027D01*
X144792420Y-137339352D01*
X144719613Y-137230388D01*
X143974192Y-136484968D01*
X143987989Y-136479267D01*
X144178598Y-136288990D01*
X144281882Y-136040254D01*
X144282117Y-135770927D01*
X144179267Y-135522011D01*
X143988990Y-135331402D01*
X143740254Y-135228118D01*
X143470927Y-135227883D01*
X143222011Y-135330733D01*
X143031402Y-135521010D01*
X143025191Y-135535967D01*
X142169612Y-134680388D01*
X142157194Y-134672091D01*
X142110648Y-134559440D01*
X141941451Y-134389947D01*
X141720271Y-134298105D01*
X141480780Y-134297896D01*
X141259440Y-134389352D01*
X141089947Y-134558549D01*
X141002000Y-134770349D01*
X141002000Y-134600000D01*
X140967594Y-134427027D01*
X140911449Y-134343001D01*
X140869612Y-134280387D01*
X140619612Y-134030388D01*
X140472973Y-133932406D01*
X140300000Y-133898000D01*
X136778095Y-133898000D01*
X136851895Y-133720271D01*
X136852104Y-133480780D01*
X136847901Y-133470608D01*
X136852000Y-133450000D01*
X136852000Y-129149998D01*
X136817594Y-128977025D01*
X136814887Y-128972973D01*
X136719613Y-128830386D01*
X135552000Y-127662774D01*
X135552000Y-125950000D01*
X135517594Y-125777027D01*
X135517594Y-125777026D01*
X135419612Y-125630387D01*
X134719612Y-124930388D01*
X134572973Y-124832406D01*
X134400000Y-124798000D01*
X126437224Y-124798000D01*
X123702000Y-122062776D01*
X123702000Y-121272701D01*
X126172762Y-121272701D01*
X126381956Y-121778989D01*
X126768974Y-122166683D01*
X127274896Y-122376760D01*
X127822701Y-122377238D01*
X128328989Y-122168044D01*
X128716683Y-121781026D01*
X128926760Y-121275104D01*
X128926762Y-121272701D01*
X132672762Y-121272701D01*
X132881956Y-121778989D01*
X133268974Y-122166683D01*
X133774896Y-122376760D01*
X134010427Y-122376966D01*
X133859440Y-122439352D01*
X133689947Y-122608549D01*
X133598105Y-122829729D01*
X133597896Y-123069220D01*
X133689352Y-123290560D01*
X133858549Y-123460053D01*
X134079729Y-123551895D01*
X134162743Y-123551967D01*
X134280387Y-123669612D01*
X134382696Y-123737973D01*
X134427027Y-123767594D01*
X134600000Y-123802000D01*
X135200597Y-123802000D01*
X135258549Y-123860053D01*
X135479729Y-123951895D01*
X135719220Y-123952104D01*
X135940560Y-123860648D01*
X136110053Y-123691451D01*
X136201895Y-123470271D01*
X136202104Y-123230780D01*
X136110648Y-123009440D01*
X135941451Y-122839947D01*
X135771122Y-122769220D01*
X136947896Y-122769220D01*
X137039352Y-122990560D01*
X137048643Y-122999868D01*
X137039947Y-123008549D01*
X136948105Y-123229729D01*
X136947896Y-123469220D01*
X137039352Y-123690560D01*
X137208549Y-123860053D01*
X137429729Y-123951895D01*
X137669220Y-123952104D01*
X137890560Y-123860648D01*
X137949311Y-123802000D01*
X139262776Y-123802000D01*
X140663000Y-125202225D01*
X140663000Y-125705401D01*
X140585254Y-125673118D01*
X140315927Y-125672883D01*
X140067011Y-125775733D01*
X139876402Y-125966010D01*
X139773118Y-126214746D01*
X139772883Y-126484073D01*
X139875733Y-126732989D01*
X140066010Y-126923598D01*
X140314746Y-127026882D01*
X140584073Y-127027117D01*
X140663000Y-126994505D01*
X140663000Y-127379624D01*
X140541402Y-127501010D01*
X140438118Y-127749746D01*
X140437883Y-128019073D01*
X140540733Y-128267989D01*
X140731010Y-128458598D01*
X140979746Y-128561882D01*
X141249073Y-128562117D01*
X141401656Y-128499071D01*
X141501010Y-128598598D01*
X141749746Y-128701882D01*
X142019073Y-128702117D01*
X142065615Y-128682886D01*
X142065615Y-128901865D01*
X142026402Y-128941010D01*
X141923118Y-129189746D01*
X141922883Y-129459073D01*
X142025733Y-129707989D01*
X142216010Y-129898598D01*
X142464746Y-130001882D01*
X142734073Y-130002117D01*
X142848000Y-129955043D01*
X142848000Y-131625000D01*
X142882406Y-131797973D01*
X142980388Y-131944612D01*
X142998033Y-131962257D01*
X142997883Y-132134073D01*
X143100733Y-132382989D01*
X143291010Y-132573598D01*
X143539746Y-132676882D01*
X143809073Y-132677117D01*
X144057989Y-132574267D01*
X144248598Y-132383990D01*
X144351882Y-132135254D01*
X144352117Y-131865927D01*
X144249267Y-131617011D01*
X144058990Y-131426402D01*
X143810254Y-131323118D01*
X143752000Y-131323067D01*
X143752000Y-128925000D01*
X143977000Y-128925000D01*
X143977000Y-129526250D01*
X144135750Y-129685000D01*
X144276309Y-129685000D01*
X144509698Y-129588327D01*
X144688327Y-129409699D01*
X144785000Y-129176310D01*
X144785000Y-129083750D01*
X144626250Y-128925000D01*
X143977000Y-128925000D01*
X143752000Y-128925000D01*
X143752000Y-128653000D01*
X143977000Y-128653000D01*
X143977000Y-128675000D01*
X144626250Y-128675000D01*
X144785000Y-128516250D01*
X144785000Y-128423690D01*
X144688327Y-128190301D01*
X144509698Y-128011673D01*
X144276309Y-127915000D01*
X144135750Y-127915000D01*
X143977002Y-128073748D01*
X143977002Y-127915000D01*
X143852035Y-127915000D01*
X143852117Y-127820927D01*
X143749267Y-127572011D01*
X143611881Y-127434385D01*
X143925000Y-127434385D01*
X144064708Y-127408097D01*
X144176252Y-127336320D01*
X144180849Y-127339461D01*
X144207406Y-127472973D01*
X144305388Y-127619612D01*
X146823000Y-130137224D01*
X146823000Y-130424813D01*
X146761776Y-130464210D01*
X146748990Y-130451402D01*
X146500254Y-130348118D01*
X146230927Y-130347883D01*
X145982011Y-130450733D01*
X145791402Y-130641010D01*
X145688118Y-130889746D01*
X145687958Y-131073055D01*
X145490927Y-131072883D01*
X145242011Y-131175733D01*
X145051402Y-131366010D01*
X144948118Y-131614746D01*
X144947883Y-131884073D01*
X145050733Y-132132989D01*
X145241010Y-132323598D01*
X145291297Y-132344479D01*
X145180388Y-132455388D01*
X145082406Y-132602027D01*
X145048000Y-132775000D01*
X145048000Y-133463169D01*
X144949547Y-133395899D01*
X144800000Y-133365615D01*
X144400000Y-133365615D01*
X144272076Y-133389686D01*
X144158990Y-133276402D01*
X143910254Y-133173118D01*
X143640927Y-133172883D01*
X143392011Y-133275733D01*
X143201402Y-133466010D01*
X143098118Y-133714746D01*
X143097883Y-133984073D01*
X143200733Y-134232989D01*
X143391010Y-134423598D01*
X143639746Y-134526882D01*
X143909073Y-134527117D01*
X143971531Y-134501310D01*
X143975000Y-134502000D01*
X144049813Y-134502000D01*
X144124470Y-134618020D01*
X144250453Y-134704101D01*
X144400000Y-134734385D01*
X144800000Y-134734385D01*
X144939708Y-134708097D01*
X145051252Y-134636320D01*
X145150453Y-134704101D01*
X145300000Y-134734385D01*
X145700000Y-134734385D01*
X145839708Y-134708097D01*
X145968020Y-134625530D01*
X146054101Y-134499547D01*
X146084385Y-134350000D01*
X146084385Y-133750000D01*
X146082521Y-133740094D01*
X146091010Y-133748598D01*
X146339746Y-133851882D01*
X146565615Y-133852079D01*
X146565615Y-133975000D01*
X146591903Y-134114708D01*
X146674470Y-134243020D01*
X146800453Y-134329101D01*
X146950000Y-134359385D01*
X147536359Y-134359385D01*
X147690302Y-134513327D01*
X147923691Y-134610000D01*
X148064250Y-134610000D01*
X148223000Y-134451250D01*
X148223000Y-133850000D01*
X148203000Y-133850000D01*
X148203000Y-133600000D01*
X148223000Y-133600000D01*
X148223000Y-133496250D01*
X148238000Y-133481250D01*
X148238000Y-132880000D01*
X148218000Y-132880000D01*
X148218000Y-132651250D01*
X148248000Y-132621250D01*
X148248000Y-132020000D01*
X148229250Y-132020000D01*
X148228000Y-132018750D01*
X148228000Y-131771250D01*
X148229250Y-131770000D01*
X148248000Y-131770000D01*
X148248000Y-131150000D01*
X148229250Y-131150000D01*
X148228000Y-131148750D01*
X148228000Y-130900000D01*
X148248000Y-130900000D01*
X148248000Y-130298750D01*
X148089250Y-130140000D01*
X147948691Y-130140000D01*
X147727000Y-130231828D01*
X147727000Y-129950000D01*
X147692594Y-129777027D01*
X147594612Y-129630388D01*
X145172878Y-127208654D01*
X145179101Y-127199547D01*
X145209385Y-127050000D01*
X145209385Y-126450000D01*
X145183097Y-126310292D01*
X145100530Y-126181980D01*
X144974547Y-126095899D01*
X144825000Y-126065615D01*
X144425000Y-126065615D01*
X144285292Y-126091903D01*
X144177000Y-126161587D01*
X144177000Y-126000000D01*
X144151892Y-125873772D01*
X144152117Y-125615927D01*
X144049267Y-125367011D01*
X143858990Y-125176402D01*
X143610254Y-125073118D01*
X143340927Y-125072883D01*
X143092011Y-125175733D01*
X143077000Y-125190718D01*
X143077000Y-124932731D01*
X143157989Y-124899267D01*
X143348598Y-124708990D01*
X143451882Y-124460254D01*
X143452117Y-124190927D01*
X143349267Y-123942011D01*
X143158990Y-123751402D01*
X142910254Y-123648118D01*
X142640927Y-123647883D01*
X142626470Y-123653857D01*
X142549267Y-123467011D01*
X142358990Y-123276402D01*
X142110254Y-123173118D01*
X141937192Y-123172967D01*
X141352000Y-122587776D01*
X141352000Y-122130000D01*
X141317594Y-121957027D01*
X141289385Y-121914809D01*
X141289385Y-121598641D01*
X141443327Y-121444698D01*
X141540000Y-121211309D01*
X141540000Y-121070750D01*
X141381252Y-120912002D01*
X141540000Y-120912002D01*
X141540000Y-120797412D01*
X141641010Y-120898598D01*
X141889746Y-121001882D01*
X142159073Y-121002117D01*
X142407989Y-120899267D01*
X142598598Y-120708990D01*
X142701882Y-120460254D01*
X142702117Y-120190927D01*
X142599267Y-119942011D01*
X142408990Y-119751402D01*
X142160254Y-119648118D01*
X142072531Y-119648041D01*
X142058420Y-119629815D01*
X142079101Y-119599547D01*
X142109385Y-119450000D01*
X142109385Y-118950000D01*
X142083097Y-118810292D01*
X142000530Y-118681980D01*
X141874547Y-118595899D01*
X141725000Y-118565615D01*
X141138641Y-118565615D01*
X140984698Y-118411673D01*
X140751309Y-118315000D01*
X140610750Y-118315000D01*
X140452000Y-118473750D01*
X140452000Y-119075000D01*
X140472000Y-119075000D01*
X140472000Y-119325000D01*
X140452000Y-119325000D01*
X140452000Y-119347000D01*
X140198000Y-119347000D01*
X140198000Y-119325000D01*
X139548750Y-119325000D01*
X139390000Y-119483750D01*
X139390000Y-119576310D01*
X139486673Y-119809699D01*
X139597998Y-119921023D01*
X139597998Y-119986748D01*
X139441250Y-119830000D01*
X139348690Y-119830000D01*
X139115301Y-119926673D01*
X138936673Y-120105302D01*
X138840000Y-120338691D01*
X138840000Y-120479250D01*
X138998750Y-120638000D01*
X139600000Y-120638000D01*
X139600000Y-120618000D01*
X139850000Y-120618000D01*
X139850000Y-120638000D01*
X139908750Y-120638000D01*
X139928750Y-120658000D01*
X140530000Y-120658000D01*
X140530000Y-120638000D01*
X140780000Y-120638000D01*
X140780000Y-120658000D01*
X140802000Y-120658000D01*
X140802000Y-120912000D01*
X140780000Y-120912000D01*
X140780000Y-120932000D01*
X140530000Y-120932000D01*
X140530000Y-120912000D01*
X140471250Y-120912000D01*
X140451250Y-120892000D01*
X139850000Y-120892000D01*
X139850000Y-120912000D01*
X139600000Y-120912000D01*
X139600000Y-120892000D01*
X138998750Y-120892000D01*
X138840000Y-121050750D01*
X138840000Y-121191309D01*
X138936673Y-121424698D01*
X139090615Y-121578641D01*
X139090615Y-122165000D01*
X139096824Y-122198000D01*
X137949403Y-122198000D01*
X137891451Y-122139947D01*
X137670271Y-122048105D01*
X137430780Y-122047896D01*
X137209440Y-122139352D01*
X137039947Y-122308549D01*
X136948105Y-122529729D01*
X136947896Y-122769220D01*
X135771122Y-122769220D01*
X135720271Y-122748105D01*
X135480780Y-122747896D01*
X135259440Y-122839352D01*
X135200689Y-122898000D01*
X134802045Y-122898000D01*
X134802104Y-122830780D01*
X134710648Y-122609440D01*
X134541451Y-122439947D01*
X134356650Y-122363211D01*
X134828989Y-122168044D01*
X135216683Y-121781026D01*
X135426760Y-121275104D01*
X135427238Y-120727299D01*
X135218044Y-120221011D01*
X134831026Y-119833317D01*
X134325104Y-119623240D01*
X133777299Y-119622762D01*
X133271011Y-119831956D01*
X132883317Y-120218974D01*
X132673240Y-120724896D01*
X132672762Y-121272701D01*
X128926762Y-121272701D01*
X128927238Y-120727299D01*
X128718044Y-120221011D01*
X128331026Y-119833317D01*
X127825104Y-119623240D01*
X127277299Y-119622762D01*
X126771011Y-119831956D01*
X126383317Y-120218974D01*
X126173240Y-120724896D01*
X126172762Y-121272701D01*
X123702000Y-121272701D01*
X123702000Y-120949490D01*
X123710053Y-120941451D01*
X123801895Y-120720271D01*
X123802104Y-120480780D01*
X123710648Y-120259440D01*
X123541451Y-120089947D01*
X123320271Y-119998105D01*
X123080780Y-119997896D01*
X122977000Y-120040777D01*
X122977000Y-118823690D01*
X139390000Y-118823690D01*
X139390000Y-118916250D01*
X139548750Y-119075000D01*
X140198000Y-119075000D01*
X140198000Y-118473750D01*
X140039250Y-118315000D01*
X139898691Y-118315000D01*
X139665302Y-118411673D01*
X139486673Y-118590301D01*
X139390000Y-118823690D01*
X122977000Y-118823690D01*
X122977000Y-117652532D01*
X126577073Y-117652532D01*
X126675736Y-117919387D01*
X127285461Y-118145908D01*
X127935460Y-118121856D01*
X128424264Y-117919387D01*
X128522927Y-117652532D01*
X133077073Y-117652532D01*
X133175736Y-117919387D01*
X133785461Y-118145908D01*
X134435460Y-118121856D01*
X134924264Y-117919387D01*
X135022927Y-117652532D01*
X134050000Y-116679605D01*
X133077073Y-117652532D01*
X128522927Y-117652532D01*
X127550000Y-116679605D01*
X126577073Y-117652532D01*
X122977000Y-117652532D01*
X122977000Y-116634385D01*
X123350000Y-116634385D01*
X123489708Y-116608097D01*
X123618020Y-116525530D01*
X123704101Y-116399547D01*
X123734385Y-116250000D01*
X123734385Y-116235461D01*
X125904092Y-116235461D01*
X125928144Y-116885460D01*
X126130613Y-117374264D01*
X126397468Y-117472927D01*
X127370395Y-116500000D01*
X127729605Y-116500000D01*
X128702532Y-117472927D01*
X128969387Y-117374264D01*
X129195908Y-116764539D01*
X129176331Y-116235461D01*
X132404092Y-116235461D01*
X132428144Y-116885460D01*
X132630613Y-117374264D01*
X132897468Y-117472927D01*
X133870395Y-116500000D01*
X134229605Y-116500000D01*
X135202532Y-117472927D01*
X135469387Y-117374264D01*
X135695908Y-116764539D01*
X135671856Y-116114540D01*
X135469387Y-115625736D01*
X135202532Y-115527073D01*
X134229605Y-116500000D01*
X133870395Y-116500000D01*
X132897468Y-115527073D01*
X132630613Y-115625736D01*
X132404092Y-116235461D01*
X129176331Y-116235461D01*
X129171856Y-116114540D01*
X128969387Y-115625736D01*
X128702532Y-115527073D01*
X127729605Y-116500000D01*
X127370395Y-116500000D01*
X126397468Y-115527073D01*
X126130613Y-115625736D01*
X125904092Y-116235461D01*
X123734385Y-116235461D01*
X123734385Y-115347468D01*
X126577073Y-115347468D01*
X127550000Y-116320395D01*
X128522927Y-115347468D01*
X133077073Y-115347468D01*
X134050000Y-116320395D01*
X135022927Y-115347468D01*
X134924264Y-115080613D01*
X134314539Y-114854092D01*
X133664540Y-114878144D01*
X133175736Y-115080613D01*
X133077073Y-115347468D01*
X128522927Y-115347468D01*
X128424264Y-115080613D01*
X127814539Y-114854092D01*
X127164540Y-114878144D01*
X126675736Y-115080613D01*
X126577073Y-115347468D01*
X123734385Y-115347468D01*
X123734385Y-114550000D01*
X123708097Y-114410292D01*
X123625530Y-114281980D01*
X123499547Y-114195899D01*
X123350000Y-114165615D01*
X121650000Y-114165615D01*
X121510292Y-114191903D01*
X121381980Y-114274470D01*
X121295899Y-114400453D01*
X121265615Y-114550000D01*
X121265615Y-116250000D01*
X121291903Y-116389708D01*
X121374470Y-116518020D01*
X121500453Y-116604101D01*
X121650000Y-116634385D01*
X122023000Y-116634385D01*
X122023000Y-122850000D01*
X122059309Y-123032540D01*
X122162710Y-123187290D01*
X125098068Y-126122648D01*
X125097975Y-126228751D01*
X119647000Y-120777776D01*
X119647000Y-117520516D01*
X119688598Y-117478990D01*
X119791882Y-117230254D01*
X119792117Y-116960927D01*
X119689267Y-116712011D01*
X119498990Y-116521402D01*
X119250254Y-116418118D01*
X118980927Y-116417883D01*
X118732011Y-116520733D01*
X118541402Y-116711010D01*
X118438118Y-116959746D01*
X118437883Y-117229073D01*
X118540733Y-117477989D01*
X118731010Y-117668598D01*
X118743000Y-117673577D01*
X118743000Y-120965000D01*
X118777406Y-121137973D01*
X118875388Y-121284612D01*
X123138776Y-125548000D01*
X119100000Y-125548000D01*
X118927027Y-125582406D01*
X118780388Y-125680388D01*
X117680388Y-126780388D01*
X117582406Y-126927027D01*
X117548000Y-127100000D01*
X117548000Y-127465000D01*
X117582406Y-127637973D01*
X117680388Y-127784612D01*
X118683054Y-128787278D01*
X118682878Y-128989024D01*
X118769225Y-129198000D01*
X118500000Y-129198000D01*
X118327027Y-129232406D01*
X118180388Y-129330388D01*
X117580388Y-129930388D01*
X117482406Y-130077027D01*
X117448000Y-130250000D01*
X117448000Y-130898042D01*
X117437257Y-130898033D01*
X116739611Y-130200387D01*
X116592972Y-130102405D01*
X116419999Y-130067999D01*
X116165187Y-130067999D01*
X116090530Y-129951979D01*
X115964547Y-129865898D01*
X115815000Y-129835614D01*
X115428641Y-129835614D01*
X115274698Y-129681672D01*
X115041309Y-129584999D01*
X114973750Y-129584999D01*
X114815000Y-129743749D01*
X114815000Y-130392999D01*
X114862000Y-130392999D01*
X114862000Y-130646999D01*
X114815000Y-130646999D01*
X114815000Y-130708750D01*
X114800000Y-130723750D01*
X114800000Y-131373000D01*
X114847000Y-131373000D01*
X114847000Y-131627000D01*
X114800000Y-131627000D01*
X114800000Y-132276250D01*
X114958750Y-132435000D01*
X115026309Y-132435000D01*
X115259698Y-132338327D01*
X115413641Y-132184385D01*
X115800000Y-132184385D01*
X115939708Y-132158097D01*
X115992477Y-132124141D01*
X116179729Y-132201895D01*
X116419220Y-132202104D01*
X116640560Y-132110648D01*
X116810053Y-131941451D01*
X116870695Y-131795408D01*
X116889352Y-131840560D01*
X117058549Y-132010053D01*
X117279729Y-132101895D01*
X117448000Y-132102042D01*
X117448000Y-136500000D01*
X117482406Y-136672973D01*
X117580388Y-136819612D01*
X119984481Y-139223706D01*
X119864540Y-139228144D01*
X119375736Y-139430613D01*
X119277073Y-139697468D01*
X120250000Y-140670395D01*
X120264143Y-140656253D01*
X120443748Y-140835858D01*
X120429605Y-140850000D01*
X121402532Y-141822927D01*
X121669387Y-141724264D01*
X121768435Y-141457659D01*
X121847968Y-141537192D01*
X121847896Y-141619220D01*
X121939352Y-141840560D01*
X122108549Y-142010053D01*
X122329729Y-142101895D01*
X122569220Y-142102104D01*
X122790560Y-142010648D01*
X122960053Y-141841451D01*
X123051895Y-141620271D01*
X123052104Y-141380780D01*
X123019553Y-141302000D01*
X125362776Y-141302000D01*
X127680388Y-143619612D01*
X127827027Y-143717594D01*
X128000000Y-143752000D01*
X128600597Y-143752000D01*
X128658549Y-143810053D01*
X128879729Y-143901895D01*
X129119220Y-143902104D01*
X129340560Y-143810648D01*
X129443000Y-143708387D01*
X129443000Y-144815000D01*
X129477406Y-144987973D01*
X129575388Y-145134612D01*
X131183000Y-146742225D01*
X131183000Y-148285000D01*
X131217406Y-148457973D01*
X131315388Y-148604612D01*
X131757928Y-149047152D01*
X131742362Y-149070447D01*
X131648962Y-149540000D01*
X131742362Y-150009553D01*
X132001914Y-150398000D01*
X131237225Y-150398000D01*
X128454612Y-147615388D01*
X128307973Y-147517406D01*
X128135000Y-147483000D01*
X116272250Y-147483000D01*
X116131250Y-147342000D01*
X115555000Y-147342000D01*
X115555000Y-147362000D01*
X115355000Y-147362000D01*
X115355000Y-147342000D01*
X115308000Y-147342000D01*
X115308000Y-147088000D01*
X115355000Y-147088000D01*
X115355000Y-146438750D01*
X115555000Y-146438750D01*
X115555000Y-147088000D01*
X116131250Y-147088000D01*
X116290000Y-146929250D01*
X116290000Y-146788690D01*
X116193327Y-146555301D01*
X116014698Y-146376673D01*
X115781309Y-146280000D01*
X115713750Y-146280000D01*
X115555000Y-146438750D01*
X115355000Y-146438750D01*
X115196250Y-146280000D01*
X115128691Y-146280000D01*
X114895302Y-146376673D01*
X114741359Y-146530615D01*
X114498565Y-146530615D01*
X114528989Y-146518044D01*
X114916683Y-146131026D01*
X115126760Y-145625104D01*
X115126762Y-145622701D01*
X118872762Y-145622701D01*
X119081956Y-146128989D01*
X119468974Y-146516683D01*
X119974896Y-146726760D01*
X120522701Y-146727238D01*
X120542106Y-146719220D01*
X125897896Y-146719220D01*
X125989352Y-146940560D01*
X126158549Y-147110053D01*
X126379729Y-147201895D01*
X126619220Y-147202104D01*
X126840560Y-147110648D01*
X127010053Y-146941451D01*
X127101895Y-146720271D01*
X127102104Y-146480780D01*
X127010648Y-146259440D01*
X126841451Y-146089947D01*
X126620271Y-145998105D01*
X126380780Y-145997896D01*
X126159440Y-146089352D01*
X125989947Y-146258549D01*
X125898105Y-146479729D01*
X125897896Y-146719220D01*
X120542106Y-146719220D01*
X121028989Y-146518044D01*
X121416683Y-146131026D01*
X121626760Y-145625104D01*
X121627238Y-145077299D01*
X121418044Y-144571011D01*
X121031026Y-144183317D01*
X120525104Y-143973240D01*
X119977299Y-143972762D01*
X119471011Y-144181956D01*
X119083317Y-144568974D01*
X118873240Y-145074896D01*
X118872762Y-145622701D01*
X115126762Y-145622701D01*
X115127238Y-145077299D01*
X114918044Y-144571011D01*
X114531026Y-144183317D01*
X114025104Y-143973240D01*
X113477299Y-143972762D01*
X112971011Y-144181956D01*
X112817000Y-144335698D01*
X112817000Y-142110523D01*
X112875736Y-142269387D01*
X113485461Y-142495908D01*
X114135460Y-142471856D01*
X114624264Y-142269387D01*
X114722927Y-142002532D01*
X119277073Y-142002532D01*
X119375736Y-142269387D01*
X119985461Y-142495908D01*
X120635460Y-142471856D01*
X121124264Y-142269387D01*
X121222927Y-142002532D01*
X120250000Y-141029605D01*
X119277073Y-142002532D01*
X114722927Y-142002532D01*
X113750000Y-141029605D01*
X113735858Y-141043748D01*
X113556253Y-140864143D01*
X113570395Y-140850000D01*
X113929605Y-140850000D01*
X114902532Y-141822927D01*
X115169387Y-141724264D01*
X115395908Y-141114539D01*
X115376331Y-140585461D01*
X118604092Y-140585461D01*
X118628144Y-141235460D01*
X118830613Y-141724264D01*
X119097468Y-141822927D01*
X120070395Y-140850000D01*
X119097468Y-139877073D01*
X118830613Y-139975736D01*
X118604092Y-140585461D01*
X115376331Y-140585461D01*
X115371856Y-140464540D01*
X115169387Y-139975736D01*
X114902532Y-139877073D01*
X113929605Y-140850000D01*
X113570395Y-140850000D01*
X113556253Y-140835858D01*
X113735858Y-140656253D01*
X113750000Y-140670395D01*
X114722927Y-139697468D01*
X114624264Y-139430613D01*
X114014539Y-139204092D01*
X113364540Y-139228144D01*
X112875736Y-139430613D01*
X112817000Y-139589477D01*
X112817000Y-136679068D01*
X113108000Y-136775000D01*
X113408000Y-136775000D01*
X113408000Y-135867000D01*
X113662000Y-135867000D01*
X113662000Y-136775000D01*
X113962000Y-136775000D01*
X114348410Y-136647615D01*
X114656658Y-136382053D01*
X114829666Y-136026123D01*
X114701998Y-135867000D01*
X113662000Y-135867000D01*
X113408000Y-135867000D01*
X113388000Y-135867000D01*
X113388000Y-135613000D01*
X113408000Y-135613000D01*
X113408000Y-134705000D01*
X113662000Y-134705000D01*
X113662000Y-135613000D01*
X114701998Y-135613000D01*
X114829666Y-135453877D01*
X114656658Y-135097947D01*
X114348410Y-134832385D01*
X113962000Y-134705000D01*
X113662000Y-134705000D01*
X113408000Y-134705000D01*
X113108000Y-134705000D01*
X112721590Y-134832385D01*
X112496082Y-135026664D01*
X112496892Y-131785750D01*
X113865000Y-131785750D01*
X113865000Y-131926310D01*
X113961673Y-132159699D01*
X114140302Y-132338327D01*
X114373691Y-132435000D01*
X114441250Y-132435000D01*
X114600000Y-132276250D01*
X114600000Y-131627000D01*
X114023750Y-131627000D01*
X113865000Y-131785750D01*
X112496892Y-131785750D01*
X112497070Y-131073690D01*
X113865000Y-131073690D01*
X113865000Y-131214250D01*
X114023750Y-131373000D01*
X114190728Y-131373000D01*
X114388691Y-131454999D01*
X114456250Y-131454999D01*
X114538249Y-131373000D01*
X114600000Y-131373000D01*
X114600000Y-131311249D01*
X114615000Y-131296249D01*
X114615000Y-130646999D01*
X114523249Y-130646999D01*
X114441250Y-130565000D01*
X114373691Y-130565000D01*
X114175728Y-130646999D01*
X114038750Y-130646999D01*
X113880000Y-130805749D01*
X113880000Y-130946309D01*
X113898881Y-130991893D01*
X113865000Y-131073690D01*
X112497070Y-131073690D01*
X112497315Y-130093689D01*
X113880000Y-130093689D01*
X113880000Y-130234249D01*
X114038750Y-130392999D01*
X114615000Y-130392999D01*
X114615000Y-129743749D01*
X114456250Y-129584999D01*
X114388691Y-129584999D01*
X114155302Y-129681672D01*
X113976673Y-129860300D01*
X113880000Y-130093689D01*
X112497315Y-130093689D01*
X112497970Y-127474962D01*
X112721590Y-127667615D01*
X113108000Y-127795000D01*
X113408000Y-127795000D01*
X113408000Y-126887000D01*
X113662000Y-126887000D01*
X113662000Y-127795000D01*
X113962000Y-127795000D01*
X114348410Y-127667615D01*
X114656658Y-127402053D01*
X114829666Y-127046123D01*
X114701998Y-126887000D01*
X113662000Y-126887000D01*
X113408000Y-126887000D01*
X113388000Y-126887000D01*
X113388000Y-126633000D01*
X113408000Y-126633000D01*
X113408000Y-125725000D01*
X113662000Y-125725000D01*
X113662000Y-126633000D01*
X114701998Y-126633000D01*
X114829666Y-126473877D01*
X114656658Y-126117947D01*
X114348410Y-125852385D01*
X113962000Y-125725000D01*
X113662000Y-125725000D01*
X113408000Y-125725000D01*
X113108000Y-125725000D01*
X112827000Y-125817635D01*
X112827000Y-122616224D01*
X113180615Y-122969839D01*
X113180615Y-124655000D01*
X113206903Y-124794708D01*
X113289470Y-124923020D01*
X113415453Y-125009101D01*
X113565000Y-125039385D01*
X115265000Y-125039385D01*
X115404708Y-125013097D01*
X115533020Y-124930530D01*
X115619101Y-124804547D01*
X115649385Y-124655000D01*
X115649385Y-123780962D01*
X115728000Y-123780962D01*
X115728000Y-123829038D01*
X115821400Y-124298591D01*
X116087380Y-124696658D01*
X116485447Y-124962638D01*
X116955000Y-125056038D01*
X117424553Y-124962638D01*
X117822620Y-124696658D01*
X118088600Y-124298591D01*
X118182000Y-123829038D01*
X118182000Y-123780962D01*
X118088600Y-123311409D01*
X117822620Y-122913342D01*
X117424553Y-122647362D01*
X116955000Y-122553962D01*
X116485447Y-122647362D01*
X116087380Y-122913342D01*
X115821400Y-123311409D01*
X115728000Y-123780962D01*
X115649385Y-123780962D01*
X115649385Y-122955000D01*
X115623097Y-122815292D01*
X115540530Y-122686980D01*
X115414547Y-122600899D01*
X115265000Y-122570615D01*
X114059839Y-122570615D01*
X113407000Y-121917776D01*
X113407000Y-121249660D01*
X113435453Y-121269101D01*
X113585000Y-121299385D01*
X115285000Y-121299385D01*
X115424708Y-121273097D01*
X115553020Y-121190530D01*
X115639101Y-121064547D01*
X115669385Y-120915000D01*
X115669385Y-120040962D01*
X115748000Y-120040962D01*
X115748000Y-120089038D01*
X115841400Y-120558591D01*
X116107380Y-120956658D01*
X116505447Y-121222638D01*
X116975000Y-121316038D01*
X117444553Y-121222638D01*
X117842620Y-120956658D01*
X118108600Y-120558591D01*
X118202000Y-120089038D01*
X118202000Y-120040962D01*
X118108600Y-119571409D01*
X117842620Y-119173342D01*
X117444553Y-118907362D01*
X116975000Y-118813962D01*
X116505447Y-118907362D01*
X116107380Y-119173342D01*
X115841400Y-119571409D01*
X115748000Y-120040962D01*
X115669385Y-120040962D01*
X115669385Y-119215000D01*
X115643097Y-119075292D01*
X115560530Y-118946980D01*
X115434547Y-118860899D01*
X115285000Y-118830615D01*
X114887000Y-118830615D01*
X114887000Y-118619594D01*
X115008691Y-118670000D01*
X115076250Y-118670000D01*
X115235000Y-118511250D01*
X115235000Y-117862000D01*
X115435000Y-117862000D01*
X115435000Y-118511250D01*
X115593750Y-118670000D01*
X115661309Y-118670000D01*
X115894698Y-118573327D01*
X116073327Y-118394699D01*
X116170000Y-118161310D01*
X116170000Y-118020750D01*
X116011250Y-117862000D01*
X115435000Y-117862000D01*
X115235000Y-117862000D01*
X115188000Y-117862000D01*
X115188000Y-117608000D01*
X115235000Y-117608000D01*
X115235000Y-116802000D01*
X115435000Y-116802000D01*
X115435000Y-117608000D01*
X115591750Y-117608000D01*
X115593750Y-117610000D01*
X115661309Y-117610000D01*
X115666137Y-117608000D01*
X116011250Y-117608000D01*
X116170000Y-117449250D01*
X116170000Y-117308690D01*
X116127050Y-117205000D01*
X116170000Y-117101310D01*
X116170000Y-116960750D01*
X116011250Y-116802000D01*
X115666137Y-116802000D01*
X115661309Y-116800000D01*
X115593750Y-116800000D01*
X115591750Y-116802000D01*
X115435000Y-116802000D01*
X115235000Y-116802000D01*
X115188000Y-116802000D01*
X115188000Y-116548000D01*
X115235000Y-116548000D01*
X115235000Y-115752000D01*
X115435000Y-115752000D01*
X115435000Y-116548000D01*
X115581750Y-116548000D01*
X115593750Y-116560000D01*
X115661309Y-116560000D01*
X115690280Y-116548000D01*
X116011250Y-116548000D01*
X116170000Y-116389250D01*
X116170000Y-116248690D01*
X116129121Y-116150000D01*
X116170000Y-116051310D01*
X116170000Y-115910750D01*
X116011250Y-115752000D01*
X115690280Y-115752000D01*
X115661309Y-115740000D01*
X115593750Y-115740000D01*
X115581750Y-115752000D01*
X115435000Y-115752000D01*
X115235000Y-115752000D01*
X115188000Y-115752000D01*
X115188000Y-115498000D01*
X115235000Y-115498000D01*
X115235000Y-114848750D01*
X115435000Y-114848750D01*
X115435000Y-115498000D01*
X116011250Y-115498000D01*
X116170000Y-115339250D01*
X116170000Y-115198690D01*
X116073327Y-114965301D01*
X115894698Y-114786673D01*
X115661309Y-114690000D01*
X115593750Y-114690000D01*
X115435000Y-114848750D01*
X115235000Y-114848750D01*
X115076250Y-114690000D01*
X115008691Y-114690000D01*
X114887000Y-114740406D01*
X114887000Y-114479385D01*
X115305000Y-114479385D01*
X115444708Y-114453097D01*
X115573020Y-114370530D01*
X115659101Y-114244547D01*
X115689385Y-114095000D01*
X115689385Y-113220962D01*
X115768000Y-113220962D01*
X115768000Y-113269038D01*
X115861400Y-113738591D01*
X116127380Y-114136658D01*
X116525447Y-114402638D01*
X116995000Y-114496038D01*
X117464553Y-114402638D01*
X117862620Y-114136658D01*
X118128600Y-113738591D01*
X118222000Y-113269038D01*
X118222000Y-113220962D01*
X118128600Y-112751409D01*
X117862620Y-112353342D01*
X117464553Y-112087362D01*
X116995000Y-111993962D01*
X116525447Y-112087362D01*
X116127380Y-112353342D01*
X115861400Y-112751409D01*
X115768000Y-113220962D01*
X115689385Y-113220962D01*
X115689385Y-112395000D01*
X115663097Y-112255292D01*
X115580530Y-112126980D01*
X115454547Y-112040899D01*
X115305000Y-112010615D01*
X113605000Y-112010615D01*
X113465292Y-112036903D01*
X113336980Y-112119470D01*
X113250899Y-112245453D01*
X113220615Y-112395000D01*
X113220615Y-114095000D01*
X113246903Y-114234708D01*
X113329470Y-114363020D01*
X113455453Y-114449101D01*
X113605000Y-114479385D01*
X113983000Y-114479385D01*
X113983000Y-115039161D01*
X113966980Y-115049470D01*
X113880899Y-115175453D01*
X113850615Y-115325000D01*
X113850615Y-115925000D01*
X113876903Y-116064708D01*
X113932111Y-116150503D01*
X113880899Y-116225453D01*
X113850615Y-116375000D01*
X113850615Y-116610161D01*
X112827000Y-117633776D01*
X112827000Y-111807000D01*
X121885783Y-111807000D01*
X121608342Y-111992380D01*
G36*
X131637710Y-135932290D02*
X133887710Y-138182290D01*
X134042460Y-138285691D01*
X134225000Y-138322000D01*
X134947420Y-138322000D01*
X135423497Y-138798077D01*
X135200927Y-138797883D01*
X134952011Y-138900733D01*
X134761402Y-139091010D01*
X134658118Y-139339746D01*
X134657883Y-139609073D01*
X134760733Y-139857989D01*
X134888000Y-139985478D01*
X134888000Y-142155000D01*
X134924309Y-142337540D01*
X135027710Y-142492290D01*
X137473098Y-144937678D01*
X136880388Y-145530388D01*
X136782406Y-145677027D01*
X136748000Y-145850000D01*
X136748000Y-147562776D01*
X133912776Y-150398000D01*
X133798086Y-150398000D01*
X134057638Y-150009553D01*
X134151038Y-149540000D01*
X134057638Y-149070447D01*
X133791658Y-148672380D01*
X133393591Y-148406400D01*
X132924038Y-148313000D01*
X132875962Y-148313000D01*
X132406409Y-148406400D01*
X132399944Y-148410720D01*
X132223609Y-148234385D01*
X133750000Y-148234385D01*
X133889708Y-148208097D01*
X134018020Y-148125530D01*
X134104101Y-147999547D01*
X134134385Y-147850000D01*
X134134385Y-146150000D01*
X134108097Y-146010292D01*
X134025530Y-145881980D01*
X133899547Y-145795899D01*
X133750000Y-145765615D01*
X133337000Y-145765615D01*
X133337000Y-144445000D01*
X133302594Y-144272027D01*
X133204612Y-144125388D01*
X131617000Y-142537776D01*
X131617000Y-135901295D01*
X131637710Y-135932290D01*
X131637710Y-135932290D01*
G37*
X131637710Y-135932290D02*
X133887710Y-138182290D01*
X134042460Y-138285691D01*
X134225000Y-138322000D01*
X134947420Y-138322000D01*
X135423497Y-138798077D01*
X135200927Y-138797883D01*
X134952011Y-138900733D01*
X134761402Y-139091010D01*
X134658118Y-139339746D01*
X134657883Y-139609073D01*
X134760733Y-139857989D01*
X134888000Y-139985478D01*
X134888000Y-142155000D01*
X134924309Y-142337540D01*
X135027710Y-142492290D01*
X137473098Y-144937678D01*
X136880388Y-145530388D01*
X136782406Y-145677027D01*
X136748000Y-145850000D01*
X136748000Y-147562776D01*
X133912776Y-150398000D01*
X133798086Y-150398000D01*
X134057638Y-150009553D01*
X134151038Y-149540000D01*
X134057638Y-149070447D01*
X133791658Y-148672380D01*
X133393591Y-148406400D01*
X132924038Y-148313000D01*
X132875962Y-148313000D01*
X132406409Y-148406400D01*
X132399944Y-148410720D01*
X132223609Y-148234385D01*
X133750000Y-148234385D01*
X133889708Y-148208097D01*
X134018020Y-148125530D01*
X134104101Y-147999547D01*
X134134385Y-147850000D01*
X134134385Y-146150000D01*
X134108097Y-146010292D01*
X134025530Y-145881980D01*
X133899547Y-145795899D01*
X133750000Y-145765615D01*
X133337000Y-145765615D01*
X133337000Y-144445000D01*
X133302594Y-144272027D01*
X133204612Y-144125388D01*
X131617000Y-142537776D01*
X131617000Y-135901295D01*
X131637710Y-135932290D01*
G36*
X143198000Y-137987225D02*
X143198000Y-143161458D01*
X142985254Y-143073118D01*
X142715927Y-143072883D01*
X142467011Y-143175733D01*
X142276402Y-143366010D01*
X142173118Y-143614746D01*
X142173103Y-143632055D01*
X141670930Y-144158000D01*
X138042580Y-144158000D01*
X135842000Y-141957420D01*
X135842000Y-139925472D01*
X135908598Y-139858990D01*
X136011882Y-139610254D01*
X136012077Y-139386657D01*
X136273918Y-139648498D01*
X136271402Y-139651010D01*
X136168118Y-139899746D01*
X136167883Y-140169073D01*
X136270733Y-140417989D01*
X136461010Y-140608598D01*
X136468000Y-140611500D01*
X136468000Y-141284995D01*
X136467999Y-141285000D01*
X136506212Y-141477107D01*
X136615032Y-141639968D01*
X136916537Y-141941472D01*
X136936903Y-142049708D01*
X137019470Y-142178020D01*
X137145453Y-142264101D01*
X137295000Y-142294385D01*
X137795000Y-142294385D01*
X137934708Y-142268097D01*
X138063020Y-142185530D01*
X138114126Y-142110735D01*
X138176470Y-142207620D01*
X138302453Y-142293701D01*
X138452000Y-142323985D01*
X138585000Y-142323985D01*
X138585000Y-142452497D01*
X138455292Y-142476903D01*
X138326980Y-142559470D01*
X138240899Y-142685453D01*
X138210615Y-142835000D01*
X138210615Y-143735000D01*
X138236903Y-143874708D01*
X138319470Y-144003020D01*
X138445453Y-144089101D01*
X138595000Y-144119385D01*
X139095000Y-144119385D01*
X139234708Y-144093097D01*
X139363020Y-144010530D01*
X139449101Y-143884547D01*
X139479385Y-143735000D01*
X139479385Y-143341969D01*
X139550788Y-143235107D01*
X139561672Y-143180388D01*
X139589001Y-143043000D01*
X139589000Y-143042995D01*
X139589000Y-142095734D01*
X139593501Y-142089147D01*
X139594778Y-142082843D01*
X139601000Y-142092513D01*
X139601000Y-143042995D01*
X139600999Y-143043000D01*
X139639212Y-143235107D01*
X139710615Y-143341969D01*
X139710615Y-143735000D01*
X139736903Y-143874708D01*
X139819470Y-144003020D01*
X139945453Y-144089101D01*
X140095000Y-144119385D01*
X140595000Y-144119385D01*
X140734708Y-144093097D01*
X140863020Y-144010530D01*
X140949101Y-143884547D01*
X140979385Y-143735000D01*
X140979385Y-142835000D01*
X140953097Y-142695292D01*
X140870530Y-142566980D01*
X140744547Y-142480899D01*
X140605000Y-142452640D01*
X140605000Y-142323985D01*
X140738000Y-142323985D01*
X140877708Y-142297697D01*
X141006020Y-142215130D01*
X141092101Y-142089147D01*
X141103026Y-142035200D01*
X141175829Y-142035200D01*
X141218000Y-142100736D01*
X141218000Y-142191206D01*
X141197406Y-142222027D01*
X141163000Y-142395000D01*
X141197406Y-142567973D01*
X141218000Y-142598794D01*
X141218000Y-142630632D01*
X141139947Y-142708549D01*
X141048105Y-142929729D01*
X141047896Y-143169220D01*
X141139352Y-143390560D01*
X141308549Y-143560053D01*
X141529729Y-143651895D01*
X141769220Y-143652104D01*
X141990560Y-143560648D01*
X142160053Y-143391451D01*
X142251895Y-143170271D01*
X142251995Y-143055573D01*
X142272000Y-142955000D01*
X142272000Y-142097387D01*
X142349101Y-141984547D01*
X142379385Y-141835000D01*
X142379385Y-141248641D01*
X142533327Y-141094698D01*
X142630000Y-140861309D01*
X142630000Y-140720750D01*
X142471250Y-140562000D01*
X141870000Y-140562000D01*
X141870000Y-140582000D01*
X141620000Y-140582000D01*
X141620000Y-140562000D01*
X141598000Y-140562000D01*
X141598000Y-140308000D01*
X141620000Y-140308000D01*
X141620000Y-139658750D01*
X141870000Y-139658750D01*
X141870000Y-140308000D01*
X142471250Y-140308000D01*
X142630000Y-140149250D01*
X142630000Y-140008691D01*
X142533327Y-139775302D01*
X142354699Y-139596673D01*
X142121310Y-139500000D01*
X142028750Y-139500000D01*
X141870000Y-139658750D01*
X141620000Y-139658750D01*
X141461250Y-139500000D01*
X141423800Y-139500000D01*
X141423800Y-139108191D01*
X141327127Y-138874802D01*
X141167331Y-138715005D01*
X141774965Y-138107370D01*
X141774968Y-138107368D01*
X141874300Y-137958708D01*
X141988020Y-137885530D01*
X142074101Y-137759547D01*
X142104385Y-137610000D01*
X142104385Y-137110000D01*
X142078097Y-136970292D01*
X142063289Y-136947280D01*
X142091094Y-136880318D01*
X143198000Y-137987225D01*
X143198000Y-137987225D01*
G37*
X143198000Y-137987225D02*
X143198000Y-143161458D01*
X142985254Y-143073118D01*
X142715927Y-143072883D01*
X142467011Y-143175733D01*
X142276402Y-143366010D01*
X142173118Y-143614746D01*
X142173103Y-143632055D01*
X141670930Y-144158000D01*
X138042580Y-144158000D01*
X135842000Y-141957420D01*
X135842000Y-139925472D01*
X135908598Y-139858990D01*
X136011882Y-139610254D01*
X136012077Y-139386657D01*
X136273918Y-139648498D01*
X136271402Y-139651010D01*
X136168118Y-139899746D01*
X136167883Y-140169073D01*
X136270733Y-140417989D01*
X136461010Y-140608598D01*
X136468000Y-140611500D01*
X136468000Y-141284995D01*
X136467999Y-141285000D01*
X136506212Y-141477107D01*
X136615032Y-141639968D01*
X136916537Y-141941472D01*
X136936903Y-142049708D01*
X137019470Y-142178020D01*
X137145453Y-142264101D01*
X137295000Y-142294385D01*
X137795000Y-142294385D01*
X137934708Y-142268097D01*
X138063020Y-142185530D01*
X138114126Y-142110735D01*
X138176470Y-142207620D01*
X138302453Y-142293701D01*
X138452000Y-142323985D01*
X138585000Y-142323985D01*
X138585000Y-142452497D01*
X138455292Y-142476903D01*
X138326980Y-142559470D01*
X138240899Y-142685453D01*
X138210615Y-142835000D01*
X138210615Y-143735000D01*
X138236903Y-143874708D01*
X138319470Y-144003020D01*
X138445453Y-144089101D01*
X138595000Y-144119385D01*
X139095000Y-144119385D01*
X139234708Y-144093097D01*
X139363020Y-144010530D01*
X139449101Y-143884547D01*
X139479385Y-143735000D01*
X139479385Y-143341969D01*
X139550788Y-143235107D01*
X139561672Y-143180388D01*
X139589001Y-143043000D01*
X139589000Y-143042995D01*
X139589000Y-142095734D01*
X139593501Y-142089147D01*
X139594778Y-142082843D01*
X139601000Y-142092513D01*
X139601000Y-143042995D01*
X139600999Y-143043000D01*
X139639212Y-143235107D01*
X139710615Y-143341969D01*
X139710615Y-143735000D01*
X139736903Y-143874708D01*
X139819470Y-144003020D01*
X139945453Y-144089101D01*
X140095000Y-144119385D01*
X140595000Y-144119385D01*
X140734708Y-144093097D01*
X140863020Y-144010530D01*
X140949101Y-143884547D01*
X140979385Y-143735000D01*
X140979385Y-142835000D01*
X140953097Y-142695292D01*
X140870530Y-142566980D01*
X140744547Y-142480899D01*
X140605000Y-142452640D01*
X140605000Y-142323985D01*
X140738000Y-142323985D01*
X140877708Y-142297697D01*
X141006020Y-142215130D01*
X141092101Y-142089147D01*
X141103026Y-142035200D01*
X141175829Y-142035200D01*
X141218000Y-142100736D01*
X141218000Y-142191206D01*
X141197406Y-142222027D01*
X141163000Y-142395000D01*
X141197406Y-142567973D01*
X141218000Y-142598794D01*
X141218000Y-142630632D01*
X141139947Y-142708549D01*
X141048105Y-142929729D01*
X141047896Y-143169220D01*
X141139352Y-143390560D01*
X141308549Y-143560053D01*
X141529729Y-143651895D01*
X141769220Y-143652104D01*
X141990560Y-143560648D01*
X142160053Y-143391451D01*
X142251895Y-143170271D01*
X142251995Y-143055573D01*
X142272000Y-142955000D01*
X142272000Y-142097387D01*
X142349101Y-141984547D01*
X142379385Y-141835000D01*
X142379385Y-141248641D01*
X142533327Y-141094698D01*
X142630000Y-140861309D01*
X142630000Y-140720750D01*
X142471250Y-140562000D01*
X141870000Y-140562000D01*
X141870000Y-140582000D01*
X141620000Y-140582000D01*
X141620000Y-140562000D01*
X141598000Y-140562000D01*
X141598000Y-140308000D01*
X141620000Y-140308000D01*
X141620000Y-139658750D01*
X141870000Y-139658750D01*
X141870000Y-140308000D01*
X142471250Y-140308000D01*
X142630000Y-140149250D01*
X142630000Y-140008691D01*
X142533327Y-139775302D01*
X142354699Y-139596673D01*
X142121310Y-139500000D01*
X142028750Y-139500000D01*
X141870000Y-139658750D01*
X141620000Y-139658750D01*
X141461250Y-139500000D01*
X141423800Y-139500000D01*
X141423800Y-139108191D01*
X141327127Y-138874802D01*
X141167331Y-138715005D01*
X141774965Y-138107370D01*
X141774968Y-138107368D01*
X141874300Y-137958708D01*
X141988020Y-137885530D01*
X142074101Y-137759547D01*
X142104385Y-137610000D01*
X142104385Y-137110000D01*
X142078097Y-136970292D01*
X142063289Y-136947280D01*
X142091094Y-136880318D01*
X143198000Y-137987225D01*
G36*
X128622883Y-130084073D02*
X128725733Y-130332989D01*
X128916010Y-130523598D01*
X129164746Y-130626882D01*
X129434073Y-130627117D01*
X129682989Y-130524267D01*
X129873598Y-130333990D01*
X129930481Y-130197000D01*
X130037776Y-130197000D01*
X130713000Y-130872224D01*
X130713000Y-132580782D01*
X130662040Y-132559621D01*
X130662117Y-132470927D01*
X130559267Y-132222011D01*
X130368990Y-132031402D01*
X130120254Y-131928118D01*
X129850927Y-131927883D01*
X129602011Y-132030733D01*
X129411402Y-132221010D01*
X129308118Y-132469746D01*
X129307883Y-132739073D01*
X129410733Y-132987989D01*
X129443000Y-133020312D01*
X129443000Y-134679606D01*
X129331402Y-134791010D01*
X129228118Y-135039746D01*
X129227908Y-135280191D01*
X129030254Y-135198118D01*
X128760927Y-135197883D01*
X128512011Y-135300733D01*
X128321402Y-135491010D01*
X128218118Y-135739746D01*
X128218072Y-135793000D01*
X124875000Y-135793000D01*
X124702027Y-135827406D01*
X124555388Y-135925388D01*
X122855388Y-137625388D01*
X122757406Y-137772027D01*
X122723000Y-137945000D01*
X122723000Y-138775000D01*
X122757406Y-138947973D01*
X122797992Y-139008714D01*
X122797896Y-139119220D01*
X122889352Y-139340560D01*
X123058549Y-139510053D01*
X123279729Y-139601895D01*
X123519220Y-139602104D01*
X123740560Y-139510648D01*
X123910053Y-139341451D01*
X124001895Y-139120271D01*
X124002104Y-138880780D01*
X123910648Y-138659440D01*
X123741451Y-138489947D01*
X123627000Y-138442423D01*
X123627000Y-138132224D01*
X123790004Y-137969220D01*
X124597896Y-137969220D01*
X124689352Y-138190560D01*
X124858549Y-138360053D01*
X125079729Y-138451895D01*
X125319220Y-138452104D01*
X125540560Y-138360648D01*
X125710053Y-138191451D01*
X125801895Y-137970271D01*
X125802104Y-137730780D01*
X125710648Y-137509440D01*
X125541451Y-137339947D01*
X125320271Y-137248105D01*
X125080780Y-137247896D01*
X124859440Y-137339352D01*
X124689947Y-137508549D01*
X124598105Y-137729729D01*
X124597896Y-137969220D01*
X123790004Y-137969220D01*
X125062224Y-136697000D01*
X128525000Y-136697000D01*
X128697973Y-136662594D01*
X128844612Y-136564612D01*
X128857257Y-136551967D01*
X129029073Y-136552117D01*
X129277989Y-136449267D01*
X129443000Y-136284543D01*
X129443000Y-142148000D01*
X128187224Y-142148000D01*
X126119612Y-140080388D01*
X125972973Y-139982406D01*
X125800000Y-139948000D01*
X122587225Y-139948000D01*
X119345264Y-136706040D01*
X119349311Y-136702000D01*
X119547911Y-136702000D01*
X119547896Y-136719220D01*
X119639352Y-136940560D01*
X119808549Y-137110053D01*
X120029729Y-137201895D01*
X120269220Y-137202104D01*
X120490560Y-137110648D01*
X120660053Y-136941451D01*
X120751895Y-136720271D01*
X120752104Y-136480780D01*
X120660648Y-136259440D01*
X120508281Y-136106807D01*
X120606658Y-136022053D01*
X120756159Y-135714483D01*
X121003644Y-135665255D01*
X121231389Y-135513081D01*
X121383563Y-135285336D01*
X121437000Y-135016692D01*
X121437000Y-134683308D01*
X121390408Y-134449073D01*
X126747883Y-134449073D01*
X126850733Y-134697989D01*
X127041010Y-134888598D01*
X127289746Y-134991882D01*
X127559073Y-134992117D01*
X127807989Y-134889267D01*
X127998598Y-134698990D01*
X128101882Y-134450254D01*
X128102117Y-134180927D01*
X127999267Y-133932011D01*
X127808990Y-133741402D01*
X127560254Y-133638118D01*
X127290927Y-133637883D01*
X127042011Y-133740733D01*
X126851402Y-133931010D01*
X126748118Y-134179746D01*
X126747883Y-134449073D01*
X121390408Y-134449073D01*
X121383563Y-134414664D01*
X121231389Y-134186919D01*
X121050434Y-134066009D01*
X121026383Y-133802000D01*
X122900000Y-133802000D01*
X123072973Y-133767594D01*
X123219612Y-133669612D01*
X127037222Y-129852002D01*
X128623085Y-129852002D01*
X128622883Y-130084073D01*
X128622883Y-130084073D01*
G37*
X128622883Y-130084073D02*
X128725733Y-130332989D01*
X128916010Y-130523598D01*
X129164746Y-130626882D01*
X129434073Y-130627117D01*
X129682989Y-130524267D01*
X129873598Y-130333990D01*
X129930481Y-130197000D01*
X130037776Y-130197000D01*
X130713000Y-130872224D01*
X130713000Y-132580782D01*
X130662040Y-132559621D01*
X130662117Y-132470927D01*
X130559267Y-132222011D01*
X130368990Y-132031402D01*
X130120254Y-131928118D01*
X129850927Y-131927883D01*
X129602011Y-132030733D01*
X129411402Y-132221010D01*
X129308118Y-132469746D01*
X129307883Y-132739073D01*
X129410733Y-132987989D01*
X129443000Y-133020312D01*
X129443000Y-134679606D01*
X129331402Y-134791010D01*
X129228118Y-135039746D01*
X129227908Y-135280191D01*
X129030254Y-135198118D01*
X128760927Y-135197883D01*
X128512011Y-135300733D01*
X128321402Y-135491010D01*
X128218118Y-135739746D01*
X128218072Y-135793000D01*
X124875000Y-135793000D01*
X124702027Y-135827406D01*
X124555388Y-135925388D01*
X122855388Y-137625388D01*
X122757406Y-137772027D01*
X122723000Y-137945000D01*
X122723000Y-138775000D01*
X122757406Y-138947973D01*
X122797992Y-139008714D01*
X122797896Y-139119220D01*
X122889352Y-139340560D01*
X123058549Y-139510053D01*
X123279729Y-139601895D01*
X123519220Y-139602104D01*
X123740560Y-139510648D01*
X123910053Y-139341451D01*
X124001895Y-139120271D01*
X124002104Y-138880780D01*
X123910648Y-138659440D01*
X123741451Y-138489947D01*
X123627000Y-138442423D01*
X123627000Y-138132224D01*
X123790004Y-137969220D01*
X124597896Y-137969220D01*
X124689352Y-138190560D01*
X124858549Y-138360053D01*
X125079729Y-138451895D01*
X125319220Y-138452104D01*
X125540560Y-138360648D01*
X125710053Y-138191451D01*
X125801895Y-137970271D01*
X125802104Y-137730780D01*
X125710648Y-137509440D01*
X125541451Y-137339947D01*
X125320271Y-137248105D01*
X125080780Y-137247896D01*
X124859440Y-137339352D01*
X124689947Y-137508549D01*
X124598105Y-137729729D01*
X124597896Y-137969220D01*
X123790004Y-137969220D01*
X125062224Y-136697000D01*
X128525000Y-136697000D01*
X128697973Y-136662594D01*
X128844612Y-136564612D01*
X128857257Y-136551967D01*
X129029073Y-136552117D01*
X129277989Y-136449267D01*
X129443000Y-136284543D01*
X129443000Y-142148000D01*
X128187224Y-142148000D01*
X126119612Y-140080388D01*
X125972973Y-139982406D01*
X125800000Y-139948000D01*
X122587225Y-139948000D01*
X119345264Y-136706040D01*
X119349311Y-136702000D01*
X119547911Y-136702000D01*
X119547896Y-136719220D01*
X119639352Y-136940560D01*
X119808549Y-137110053D01*
X120029729Y-137201895D01*
X120269220Y-137202104D01*
X120490560Y-137110648D01*
X120660053Y-136941451D01*
X120751895Y-136720271D01*
X120752104Y-136480780D01*
X120660648Y-136259440D01*
X120508281Y-136106807D01*
X120606658Y-136022053D01*
X120756159Y-135714483D01*
X121003644Y-135665255D01*
X121231389Y-135513081D01*
X121383563Y-135285336D01*
X121437000Y-135016692D01*
X121437000Y-134683308D01*
X121390408Y-134449073D01*
X126747883Y-134449073D01*
X126850733Y-134697989D01*
X127041010Y-134888598D01*
X127289746Y-134991882D01*
X127559073Y-134992117D01*
X127807989Y-134889267D01*
X127998598Y-134698990D01*
X128101882Y-134450254D01*
X128102117Y-134180927D01*
X127999267Y-133932011D01*
X127808990Y-133741402D01*
X127560254Y-133638118D01*
X127290927Y-133637883D01*
X127042011Y-133740733D01*
X126851402Y-133931010D01*
X126748118Y-134179746D01*
X126747883Y-134449073D01*
X121390408Y-134449073D01*
X121383563Y-134414664D01*
X121231389Y-134186919D01*
X121050434Y-134066009D01*
X121026383Y-133802000D01*
X122900000Y-133802000D01*
X123072973Y-133767594D01*
X123219612Y-133669612D01*
X127037222Y-129852002D01*
X128623085Y-129852002D01*
X128622883Y-130084073D01*
G36*
X137670000Y-140383000D02*
X137692000Y-140383000D01*
X137692000Y-140637000D01*
X137670000Y-140637000D01*
X137670000Y-140657000D01*
X137472000Y-140657000D01*
X137472000Y-140363000D01*
X137670000Y-140363000D01*
X137670000Y-140383000D01*
X137670000Y-140383000D01*
G37*
X137670000Y-140383000D02*
X137692000Y-140383000D01*
X137692000Y-140637000D01*
X137670000Y-140637000D01*
X137670000Y-140657000D01*
X137472000Y-140657000D01*
X137472000Y-140363000D01*
X137670000Y-140363000D01*
X137670000Y-140383000D01*
G36*
X139722000Y-139933000D02*
X139742000Y-139933000D01*
X139742000Y-140187000D01*
X139722000Y-140187000D01*
X139722000Y-140207000D01*
X139468000Y-140207000D01*
X139468000Y-140187000D01*
X139448000Y-140187000D01*
X139448000Y-139933000D01*
X139468000Y-139933000D01*
X139468000Y-139913000D01*
X139722000Y-139913000D01*
X139722000Y-139933000D01*
X139722000Y-139933000D01*
G37*
X139722000Y-139933000D02*
X139742000Y-139933000D01*
X139742000Y-140187000D01*
X139722000Y-140187000D01*
X139722000Y-140207000D01*
X139468000Y-140207000D01*
X139468000Y-140187000D01*
X139448000Y-140187000D01*
X139448000Y-139933000D01*
X139468000Y-139933000D01*
X139468000Y-139913000D01*
X139722000Y-139913000D01*
X139722000Y-139933000D01*
G36*
X139116010Y-136373598D02*
X139364746Y-136476882D01*
X139378856Y-136476894D01*
X139222000Y-136633750D01*
X139222000Y-137235000D01*
X140193000Y-137235000D01*
X140193000Y-136633750D01*
X140034250Y-136475000D01*
X139893691Y-136475000D01*
X139707500Y-136552123D01*
X139526193Y-136477023D01*
X139634073Y-136477117D01*
X139696531Y-136451310D01*
X139700000Y-136452000D01*
X140802858Y-136452000D01*
X140786410Y-136491611D01*
X140746309Y-136475000D01*
X140605750Y-136475000D01*
X140447000Y-136633750D01*
X140447000Y-137235000D01*
X140467000Y-137235000D01*
X140467000Y-137485000D01*
X140447000Y-137485000D01*
X140447000Y-137507000D01*
X140193000Y-137507000D01*
X140193000Y-137485000D01*
X139222000Y-137485000D01*
X139222000Y-137507000D01*
X138968000Y-137507000D01*
X138968000Y-137485000D01*
X138948000Y-137485000D01*
X138948000Y-137235000D01*
X138968000Y-137235000D01*
X138968000Y-136633750D01*
X138809250Y-136475000D01*
X138711548Y-136475000D01*
X138719612Y-136469612D01*
X138737192Y-136452032D01*
X138819220Y-136452104D01*
X139040560Y-136360648D01*
X139071876Y-136329387D01*
X139116010Y-136373598D01*
X139116010Y-136373598D01*
G37*
X139116010Y-136373598D02*
X139364746Y-136476882D01*
X139378856Y-136476894D01*
X139222000Y-136633750D01*
X139222000Y-137235000D01*
X140193000Y-137235000D01*
X140193000Y-136633750D01*
X140034250Y-136475000D01*
X139893691Y-136475000D01*
X139707500Y-136552123D01*
X139526193Y-136477023D01*
X139634073Y-136477117D01*
X139696531Y-136451310D01*
X139700000Y-136452000D01*
X140802858Y-136452000D01*
X140786410Y-136491611D01*
X140746309Y-136475000D01*
X140605750Y-136475000D01*
X140447000Y-136633750D01*
X140447000Y-137235000D01*
X140467000Y-137235000D01*
X140467000Y-137485000D01*
X140447000Y-137485000D01*
X140447000Y-137507000D01*
X140193000Y-137507000D01*
X140193000Y-137485000D01*
X139222000Y-137485000D01*
X139222000Y-137507000D01*
X138968000Y-137507000D01*
X138968000Y-137485000D01*
X138948000Y-137485000D01*
X138948000Y-137235000D01*
X138968000Y-137235000D01*
X138968000Y-136633750D01*
X138809250Y-136475000D01*
X138711548Y-136475000D01*
X138719612Y-136469612D01*
X138737192Y-136452032D01*
X138819220Y-136452104D01*
X139040560Y-136360648D01*
X139071876Y-136329387D01*
X139116010Y-136373598D01*
G36*
X119612000Y-135253000D02*
X119632000Y-135253000D01*
X119632000Y-135507000D01*
X119612000Y-135507000D01*
X119612000Y-135527000D01*
X119358000Y-135527000D01*
X119358000Y-135507000D01*
X119338000Y-135507000D01*
X119338000Y-135253000D01*
X119358000Y-135253000D01*
X119358000Y-135233000D01*
X119612000Y-135233000D01*
X119612000Y-135253000D01*
X119612000Y-135253000D01*
G37*
X119612000Y-135253000D02*
X119632000Y-135253000D01*
X119632000Y-135507000D01*
X119612000Y-135507000D01*
X119612000Y-135527000D01*
X119358000Y-135527000D01*
X119358000Y-135507000D01*
X119338000Y-135507000D01*
X119338000Y-135253000D01*
X119358000Y-135253000D01*
X119358000Y-135233000D01*
X119612000Y-135233000D01*
X119612000Y-135253000D01*
G36*
X120278748Y-134035858D02*
X120264605Y-134050000D01*
X120278748Y-134064143D01*
X120099143Y-134243748D01*
X120085000Y-134229605D01*
X119955323Y-134359282D01*
X119912000Y-134345000D01*
X119610395Y-134345000D01*
X119659075Y-134296320D01*
X119782132Y-134245474D01*
X119979780Y-134048170D01*
X120051386Y-133875724D01*
X120070858Y-133856253D01*
X120085000Y-133870395D01*
X120099143Y-133856253D01*
X120278748Y-134035858D01*
X120278748Y-134035858D01*
G37*
X120278748Y-134035858D02*
X120264605Y-134050000D01*
X120278748Y-134064143D01*
X120099143Y-134243748D01*
X120085000Y-134229605D01*
X119955323Y-134359282D01*
X119912000Y-134345000D01*
X119610395Y-134345000D01*
X119659075Y-134296320D01*
X119782132Y-134245474D01*
X119979780Y-134048170D01*
X120051386Y-133875724D01*
X120070858Y-133856253D01*
X120085000Y-133870395D01*
X120099143Y-133856253D01*
X120278748Y-134035858D01*
G36*
X121498000Y-130100000D02*
X121532406Y-130272973D01*
X121630388Y-130419612D01*
X121797968Y-130587192D01*
X121797896Y-130669220D01*
X121889352Y-130890560D01*
X122058549Y-131060053D01*
X122150530Y-131098247D01*
X121989947Y-131258549D01*
X121898105Y-131479729D01*
X121897896Y-131719220D01*
X121989352Y-131940560D01*
X122158549Y-132110053D01*
X122379729Y-132201895D01*
X122619220Y-132202104D01*
X122748000Y-132148893D01*
X122748000Y-132262776D01*
X122412778Y-132597998D01*
X120783660Y-132597998D01*
X120786878Y-132590249D01*
X120787122Y-132310976D01*
X120680474Y-132052868D01*
X120677779Y-132050168D01*
X120679780Y-132048170D01*
X120786878Y-131790249D01*
X120787122Y-131510976D01*
X120680474Y-131252868D01*
X120677779Y-131250168D01*
X120679780Y-131248170D01*
X120786878Y-130990249D01*
X120787122Y-130710976D01*
X120680474Y-130452868D01*
X120677779Y-130450168D01*
X120679780Y-130448170D01*
X120786878Y-130190249D01*
X120787122Y-129910976D01*
X120680474Y-129652868D01*
X120483170Y-129455220D01*
X120330075Y-129391649D01*
X120362262Y-129388717D01*
X120552721Y-129309827D01*
X120568070Y-129112675D01*
X120085000Y-128629605D01*
X120070858Y-128643748D01*
X120051236Y-128624126D01*
X119980474Y-128452868D01*
X119783170Y-128255220D01*
X119659094Y-128203699D01*
X119610395Y-128155000D01*
X119912000Y-128155000D01*
X119955323Y-128140718D01*
X120085000Y-128270395D01*
X120099143Y-128256253D01*
X120278748Y-128435858D01*
X120264605Y-128450000D01*
X120747675Y-128933070D01*
X120944827Y-128917721D01*
X121058366Y-128553076D01*
X121034036Y-128286006D01*
X121132132Y-128245474D01*
X121329780Y-128048170D01*
X121436878Y-127790249D01*
X121437122Y-127510976D01*
X121330474Y-127252868D01*
X121133170Y-127055220D01*
X121132929Y-127055120D01*
X121240560Y-127010648D01*
X121299311Y-126952000D01*
X121498000Y-126952000D01*
X121498000Y-130100000D01*
X121498000Y-130100000D01*
G37*
X121498000Y-130100000D02*
X121532406Y-130272973D01*
X121630388Y-130419612D01*
X121797968Y-130587192D01*
X121797896Y-130669220D01*
X121889352Y-130890560D01*
X122058549Y-131060053D01*
X122150530Y-131098247D01*
X121989947Y-131258549D01*
X121898105Y-131479729D01*
X121897896Y-131719220D01*
X121989352Y-131940560D01*
X122158549Y-132110053D01*
X122379729Y-132201895D01*
X122619220Y-132202104D01*
X122748000Y-132148893D01*
X122748000Y-132262776D01*
X122412778Y-132597998D01*
X120783660Y-132597998D01*
X120786878Y-132590249D01*
X120787122Y-132310976D01*
X120680474Y-132052868D01*
X120677779Y-132050168D01*
X120679780Y-132048170D01*
X120786878Y-131790249D01*
X120787122Y-131510976D01*
X120680474Y-131252868D01*
X120677779Y-131250168D01*
X120679780Y-131248170D01*
X120786878Y-130990249D01*
X120787122Y-130710976D01*
X120680474Y-130452868D01*
X120677779Y-130450168D01*
X120679780Y-130448170D01*
X120786878Y-130190249D01*
X120787122Y-129910976D01*
X120680474Y-129652868D01*
X120483170Y-129455220D01*
X120330075Y-129391649D01*
X120362262Y-129388717D01*
X120552721Y-129309827D01*
X120568070Y-129112675D01*
X120085000Y-128629605D01*
X120070858Y-128643748D01*
X120051236Y-128624126D01*
X119980474Y-128452868D01*
X119783170Y-128255220D01*
X119659094Y-128203699D01*
X119610395Y-128155000D01*
X119912000Y-128155000D01*
X119955323Y-128140718D01*
X120085000Y-128270395D01*
X120099143Y-128256253D01*
X120278748Y-128435858D01*
X120264605Y-128450000D01*
X120747675Y-128933070D01*
X120944827Y-128917721D01*
X121058366Y-128553076D01*
X121034036Y-128286006D01*
X121132132Y-128245474D01*
X121329780Y-128048170D01*
X121436878Y-127790249D01*
X121437122Y-127510976D01*
X121330474Y-127252868D01*
X121133170Y-127055220D01*
X121132929Y-127055120D01*
X121240560Y-127010648D01*
X121299311Y-126952000D01*
X121498000Y-126952000D01*
X121498000Y-130100000D01*
G36*
X125930388Y-125569612D02*
X126077027Y-125667594D01*
X126250000Y-125702000D01*
X134212776Y-125702000D01*
X134258993Y-125748217D01*
X134159440Y-125789352D01*
X133989947Y-125958549D01*
X133898105Y-126179729D01*
X133897896Y-126419220D01*
X133989352Y-126640560D01*
X134048000Y-126699311D01*
X134048000Y-128300000D01*
X134082406Y-128472973D01*
X134180388Y-128619612D01*
X134397968Y-128837192D01*
X134397896Y-128919220D01*
X134489352Y-129140560D01*
X134658549Y-129310053D01*
X134879729Y-129401895D01*
X135119220Y-129402104D01*
X135340560Y-129310648D01*
X135510053Y-129141451D01*
X135581108Y-128970331D01*
X135948000Y-129337223D01*
X135948000Y-130420550D01*
X135868990Y-130341402D01*
X135620254Y-130238118D01*
X135447191Y-130237967D01*
X135204612Y-129995388D01*
X135057973Y-129897406D01*
X134885000Y-129863000D01*
X134292224Y-129863000D01*
X131844612Y-127415388D01*
X131697973Y-127317406D01*
X131525000Y-127283000D01*
X126152224Y-127283000D01*
X125671199Y-126801975D01*
X125819220Y-126802104D01*
X126040560Y-126710648D01*
X126210053Y-126541451D01*
X126301895Y-126320271D01*
X126302104Y-126080780D01*
X126210648Y-125859440D01*
X126041451Y-125689947D01*
X125995408Y-125670828D01*
X122977000Y-122652420D01*
X122977000Y-122616224D01*
X125930388Y-125569612D01*
X125930388Y-125569612D01*
G37*
X125930388Y-125569612D02*
X126077027Y-125667594D01*
X126250000Y-125702000D01*
X134212776Y-125702000D01*
X134258993Y-125748217D01*
X134159440Y-125789352D01*
X133989947Y-125958549D01*
X133898105Y-126179729D01*
X133897896Y-126419220D01*
X133989352Y-126640560D01*
X134048000Y-126699311D01*
X134048000Y-128300000D01*
X134082406Y-128472973D01*
X134180388Y-128619612D01*
X134397968Y-128837192D01*
X134397896Y-128919220D01*
X134489352Y-129140560D01*
X134658549Y-129310053D01*
X134879729Y-129401895D01*
X135119220Y-129402104D01*
X135340560Y-129310648D01*
X135510053Y-129141451D01*
X135581108Y-128970331D01*
X135948000Y-129337223D01*
X135948000Y-130420550D01*
X135868990Y-130341402D01*
X135620254Y-130238118D01*
X135447191Y-130237967D01*
X135204612Y-129995388D01*
X135057973Y-129897406D01*
X134885000Y-129863000D01*
X134292224Y-129863000D01*
X131844612Y-127415388D01*
X131697973Y-127317406D01*
X131525000Y-127283000D01*
X126152224Y-127283000D01*
X125671199Y-126801975D01*
X125819220Y-126802104D01*
X126040560Y-126710648D01*
X126210053Y-126541451D01*
X126301895Y-126320271D01*
X126302104Y-126080780D01*
X126210648Y-125859440D01*
X126041451Y-125689947D01*
X125995408Y-125670828D01*
X122977000Y-122652420D01*
X122977000Y-122616224D01*
X125930388Y-125569612D01*
G36*
X119612000Y-126993000D02*
X119632000Y-126993000D01*
X119632000Y-127247000D01*
X119612000Y-127247000D01*
X119612000Y-127267000D01*
X119358000Y-127267000D01*
X119358000Y-127247000D01*
X119338000Y-127247000D01*
X119338000Y-126993000D01*
X119358000Y-126993000D01*
X119358000Y-126973000D01*
X119612000Y-126973000D01*
X119612000Y-126993000D01*
X119612000Y-126993000D01*
G37*
X119612000Y-126993000D02*
X119632000Y-126993000D01*
X119632000Y-127247000D01*
X119612000Y-127247000D01*
X119612000Y-127267000D01*
X119358000Y-127267000D01*
X119358000Y-127247000D01*
X119338000Y-127247000D01*
X119338000Y-126993000D01*
X119358000Y-126993000D01*
X119358000Y-126973000D01*
X119612000Y-126973000D01*
X119612000Y-126993000D01*
M02*
