%TF.GenerationSoftware,KiCad,Pcbnew,4.0.7*%
%TF.CreationDate,2019-04-11T13:09:23-05:00*%
%TF.ProjectId,GolfGloveMainBoardV1.0.0,476F6C66476C6F76654D61696E426F61,rev?*%
%TF.FileFunction,Soldermask,Bot*%
%FSLAX46Y46*%
G04 Gerber Fmt 4.6, Leading zero omitted, Abs format (unit mm)*
G04 Created by KiCad (PCBNEW 4.0.7) date 04/11/19 13:09:23*
%MOMM*%
%LPD*%
G01*
G04 APERTURE LIST*
%ADD10C,0.100000*%
%ADD11C,0.150000*%
G04 APERTURE END LIST*
D10*
D11*
X148925000Y-151345000D02*
X148925000Y-151355000D01*
X112365000Y-151345000D02*
X148925000Y-151345000D01*
X112365000Y-136675000D02*
X112365000Y-151345000D01*
X99805000Y-136675000D02*
X112365000Y-136675000D01*
X99805000Y-139585000D02*
X99805000Y-136675000D01*
X93605000Y-139585000D02*
X99805000Y-139585000D01*
X93605000Y-122935000D02*
X93605000Y-139585000D01*
X99805000Y-122935000D02*
X93605000Y-122935000D01*
X99805000Y-125835000D02*
X99805000Y-122935000D01*
X112375000Y-125835000D02*
X99805000Y-125835000D01*
X112375000Y-111355000D02*
X112375000Y-125835000D01*
X148925000Y-111355000D02*
X112375000Y-111355000D01*
X148925000Y-151345000D02*
X148925000Y-111355000D01*
D10*
G36*
X145614666Y-148490066D02*
X145614673Y-148490067D01*
X145619741Y-148490102D01*
X145823388Y-148512945D01*
X146018720Y-148574908D01*
X146198296Y-148673631D01*
X146355277Y-148805353D01*
X146483684Y-148965059D01*
X146578624Y-149146663D01*
X146636483Y-149343250D01*
X146636491Y-149343334D01*
X146636498Y-149343359D01*
X146655060Y-149547330D01*
X146633652Y-149751009D01*
X146633646Y-149751029D01*
X146633635Y-149751132D01*
X146573037Y-149946891D01*
X146475570Y-150127153D01*
X146344947Y-150285049D01*
X146186142Y-150414567D01*
X146005205Y-150510773D01*
X145809027Y-150570003D01*
X145605081Y-150590000D01*
X145594763Y-150590000D01*
X145585334Y-150589934D01*
X145585327Y-150589933D01*
X145580259Y-150589898D01*
X145376612Y-150567055D01*
X145181280Y-150505092D01*
X145001704Y-150406369D01*
X144844723Y-150274647D01*
X144716316Y-150114941D01*
X144621376Y-149933337D01*
X144563517Y-149736750D01*
X144563509Y-149736666D01*
X144563502Y-149736641D01*
X144544940Y-149532670D01*
X144566348Y-149328991D01*
X144566354Y-149328971D01*
X144566365Y-149328868D01*
X144626963Y-149133109D01*
X144724430Y-148952847D01*
X144855053Y-148794951D01*
X145013858Y-148665433D01*
X145194795Y-148569227D01*
X145390973Y-148509997D01*
X145594919Y-148490000D01*
X145605237Y-148490000D01*
X145614666Y-148490066D01*
X145614666Y-148490066D01*
G37*
G36*
X132914666Y-148490066D02*
X132914673Y-148490067D01*
X132919741Y-148490102D01*
X133123388Y-148512945D01*
X133318720Y-148574908D01*
X133498296Y-148673631D01*
X133655277Y-148805353D01*
X133783684Y-148965059D01*
X133878624Y-149146663D01*
X133936483Y-149343250D01*
X133936491Y-149343334D01*
X133936498Y-149343359D01*
X133955060Y-149547330D01*
X133933652Y-149751009D01*
X133933646Y-149751029D01*
X133933635Y-149751132D01*
X133873037Y-149946891D01*
X133775570Y-150127153D01*
X133644947Y-150285049D01*
X133486142Y-150414567D01*
X133305205Y-150510773D01*
X133109027Y-150570003D01*
X132905081Y-150590000D01*
X132894763Y-150590000D01*
X132885334Y-150589934D01*
X132885327Y-150589933D01*
X132880259Y-150589898D01*
X132676612Y-150567055D01*
X132481280Y-150505092D01*
X132301704Y-150406369D01*
X132144723Y-150274647D01*
X132016316Y-150114941D01*
X131921376Y-149933337D01*
X131863517Y-149736750D01*
X131863509Y-149736666D01*
X131863502Y-149736641D01*
X131844940Y-149532670D01*
X131866348Y-149328991D01*
X131866354Y-149328971D01*
X131866365Y-149328868D01*
X131926963Y-149133109D01*
X132024430Y-148952847D01*
X132155053Y-148794951D01*
X132313858Y-148665433D01*
X132494795Y-148569227D01*
X132690973Y-148509997D01*
X132894919Y-148490000D01*
X132905237Y-148490000D01*
X132914666Y-148490066D01*
X132914666Y-148490066D01*
G37*
G36*
X117306009Y-148401348D02*
X117306029Y-148401354D01*
X117306132Y-148401365D01*
X117501891Y-148461963D01*
X117682153Y-148559430D01*
X117840049Y-148690053D01*
X117969567Y-148848858D01*
X118065773Y-149029795D01*
X118125003Y-149225973D01*
X118145000Y-149429919D01*
X118145000Y-149440237D01*
X118144934Y-149449666D01*
X118144933Y-149449673D01*
X118144898Y-149454741D01*
X118122055Y-149658388D01*
X118060092Y-149853720D01*
X117961369Y-150033296D01*
X117829647Y-150190277D01*
X117669941Y-150318684D01*
X117488337Y-150413624D01*
X117291750Y-150471483D01*
X117291666Y-150471491D01*
X117291641Y-150471498D01*
X117087670Y-150490060D01*
X116883991Y-150468652D01*
X116883971Y-150468646D01*
X116883868Y-150468635D01*
X116688109Y-150408037D01*
X116507847Y-150310570D01*
X116349951Y-150179947D01*
X116220433Y-150021142D01*
X116124227Y-149840205D01*
X116064997Y-149644027D01*
X116045000Y-149440081D01*
X116045000Y-149429763D01*
X116045066Y-149420334D01*
X116045067Y-149420327D01*
X116045102Y-149415259D01*
X116067945Y-149211612D01*
X116129908Y-149016280D01*
X116228631Y-148836704D01*
X116360353Y-148679723D01*
X116520059Y-148551316D01*
X116701663Y-148456376D01*
X116898250Y-148398517D01*
X116898334Y-148398509D01*
X116898359Y-148398502D01*
X117102330Y-148379940D01*
X117306009Y-148401348D01*
X117306009Y-148401348D01*
G37*
G36*
X115605000Y-150485000D02*
X113505000Y-150485000D01*
X113505000Y-148385000D01*
X115605000Y-148385000D01*
X115605000Y-150485000D01*
X115605000Y-150485000D01*
G37*
G36*
X139364666Y-148290066D02*
X139364673Y-148290067D01*
X139369741Y-148290102D01*
X139573388Y-148312945D01*
X139768720Y-148374908D01*
X139948296Y-148473631D01*
X140105277Y-148605353D01*
X140233684Y-148765059D01*
X140328624Y-148946663D01*
X140386483Y-149143250D01*
X140386491Y-149143334D01*
X140386498Y-149143359D01*
X140405060Y-149347330D01*
X140383652Y-149551009D01*
X140383646Y-149551029D01*
X140383635Y-149551132D01*
X140323037Y-149746891D01*
X140225570Y-149927153D01*
X140094947Y-150085049D01*
X139936142Y-150214567D01*
X139755205Y-150310773D01*
X139559027Y-150370003D01*
X139355081Y-150390000D01*
X139344763Y-150390000D01*
X139335334Y-150389934D01*
X139335327Y-150389933D01*
X139330259Y-150389898D01*
X139126612Y-150367055D01*
X138931280Y-150305092D01*
X138751704Y-150206369D01*
X138594723Y-150074647D01*
X138466316Y-149914941D01*
X138371376Y-149733337D01*
X138313517Y-149536750D01*
X138313509Y-149536666D01*
X138313502Y-149536641D01*
X138294940Y-149332670D01*
X138316348Y-149128991D01*
X138316354Y-149128971D01*
X138316365Y-149128868D01*
X138376963Y-148933109D01*
X138474430Y-148752847D01*
X138605053Y-148594951D01*
X138763858Y-148465433D01*
X138944795Y-148369227D01*
X139140973Y-148309997D01*
X139344919Y-148290000D01*
X139355237Y-148290000D01*
X139364666Y-148290066D01*
X139364666Y-148290066D01*
G37*
G36*
X133950000Y-148050000D02*
X131850000Y-148050000D01*
X131850000Y-145950000D01*
X133950000Y-145950000D01*
X133950000Y-148050000D01*
X133950000Y-148050000D01*
G37*
G36*
X146650000Y-148050000D02*
X144550000Y-148050000D01*
X144550000Y-145950000D01*
X146650000Y-145950000D01*
X146650000Y-148050000D01*
X146650000Y-148050000D01*
G37*
G36*
X140400000Y-147850000D02*
X138300000Y-147850000D01*
X138300000Y-145750000D01*
X140400000Y-145750000D01*
X140400000Y-147850000D01*
X140400000Y-147850000D01*
G37*
G36*
X114155923Y-146698912D02*
X114188694Y-146711691D01*
X114217267Y-146715000D01*
X115855000Y-146715000D01*
X115855000Y-147715000D01*
X114155000Y-147715000D01*
X114155000Y-146698204D01*
X114155923Y-146698912D01*
X114155923Y-146698912D01*
G37*
G36*
X120376041Y-144150794D02*
X120606569Y-144198115D01*
X120823512Y-144289309D01*
X121018616Y-144420908D01*
X121184437Y-144587890D01*
X121314669Y-144783906D01*
X121404348Y-145001484D01*
X121449886Y-145231465D01*
X121449886Y-145231498D01*
X121450051Y-145232334D01*
X121446298Y-145501128D01*
X121446107Y-145501967D01*
X121446107Y-145501988D01*
X121394165Y-145730616D01*
X121298447Y-145945601D01*
X121162795Y-146137901D01*
X120992372Y-146300191D01*
X120793673Y-146426290D01*
X120574265Y-146511393D01*
X120342511Y-146552257D01*
X120107225Y-146547329D01*
X119877383Y-146496795D01*
X119661735Y-146402580D01*
X119468487Y-146268269D01*
X119305016Y-146098991D01*
X119177530Y-145901171D01*
X119090899Y-145682366D01*
X119048417Y-145450903D01*
X119051703Y-145215586D01*
X119100630Y-144985402D01*
X119193340Y-144769095D01*
X119326294Y-144574920D01*
X119494433Y-144410266D01*
X119691353Y-144281406D01*
X119909549Y-144193248D01*
X120140714Y-144149152D01*
X120376041Y-144150794D01*
X120376041Y-144150794D01*
G37*
G36*
X113876041Y-144150794D02*
X114106569Y-144198115D01*
X114323512Y-144289309D01*
X114518616Y-144420908D01*
X114684437Y-144587890D01*
X114814669Y-144783906D01*
X114904348Y-145001484D01*
X114949886Y-145231465D01*
X114949886Y-145231498D01*
X114950051Y-145232334D01*
X114946298Y-145501128D01*
X114946107Y-145501967D01*
X114946107Y-145501988D01*
X114894165Y-145730616D01*
X114798447Y-145945601D01*
X114662795Y-146137901D01*
X114492372Y-146300191D01*
X114293673Y-146426290D01*
X114172064Y-146473459D01*
X114141386Y-146490667D01*
X114116717Y-146515739D01*
X114101061Y-146544743D01*
X114083410Y-146533111D01*
X114049810Y-146522706D01*
X114008294Y-146523025D01*
X113842511Y-146552257D01*
X113607225Y-146547329D01*
X113377383Y-146496795D01*
X113161735Y-146402580D01*
X112968487Y-146268269D01*
X112805016Y-146098991D01*
X112677530Y-145901171D01*
X112590899Y-145682366D01*
X112548417Y-145450903D01*
X112551703Y-145215586D01*
X112600630Y-144985402D01*
X112693340Y-144769095D01*
X112826294Y-144574920D01*
X112994433Y-144410266D01*
X113191353Y-144281406D01*
X113409549Y-144193248D01*
X113640714Y-144149152D01*
X113876041Y-144150794D01*
X113876041Y-144150794D01*
G37*
G36*
X140795000Y-143935000D02*
X139895000Y-143935000D01*
X139895000Y-142635000D01*
X140795000Y-142635000D01*
X140795000Y-143935000D01*
X140795000Y-143935000D01*
G37*
G36*
X139295000Y-143935000D02*
X138395000Y-143935000D01*
X138395000Y-142635000D01*
X139295000Y-142635000D01*
X139295000Y-143935000D01*
X139295000Y-143935000D01*
G37*
G36*
X147623273Y-140975427D02*
X147748141Y-141001059D01*
X147865654Y-141050458D01*
X147971337Y-141121741D01*
X148061154Y-141212188D01*
X148131697Y-141318363D01*
X148180273Y-141436217D01*
X148204862Y-141560400D01*
X148204862Y-141560424D01*
X148205028Y-141561264D01*
X148202995Y-141706861D01*
X148202804Y-141707700D01*
X148202804Y-141707721D01*
X148174758Y-141831169D01*
X148122911Y-141947618D01*
X148049433Y-142051781D01*
X147957120Y-142139688D01*
X147849487Y-142207995D01*
X147730647Y-142254090D01*
X147605111Y-142276225D01*
X147477662Y-142273556D01*
X147353163Y-142246182D01*
X147236357Y-142195151D01*
X147131678Y-142122397D01*
X147043133Y-142030707D01*
X146974077Y-141923552D01*
X146927150Y-141805031D01*
X146904140Y-141679657D01*
X146905920Y-141552191D01*
X146932423Y-141427507D01*
X146982639Y-141310343D01*
X147054657Y-141205163D01*
X147145734Y-141115975D01*
X147252397Y-141046176D01*
X147370589Y-140998424D01*
X147495804Y-140974538D01*
X147623273Y-140975427D01*
X147623273Y-140975427D01*
G37*
G36*
X141920000Y-137810000D02*
X141063000Y-137810000D01*
X141028176Y-137814949D01*
X140996109Y-137829404D01*
X140969339Y-137852220D01*
X140949985Y-137881590D01*
X140939580Y-137915190D01*
X140938000Y-137935000D01*
X140938000Y-138909500D01*
X140942949Y-138944324D01*
X140957404Y-138976391D01*
X140980220Y-139003161D01*
X140988800Y-139008815D01*
X140988800Y-141111133D01*
X140969339Y-141127720D01*
X140949985Y-141157090D01*
X140939580Y-141190690D01*
X140938000Y-141210500D01*
X140938000Y-142139600D01*
X138252000Y-142139600D01*
X138252000Y-141210500D01*
X138247051Y-141175676D01*
X138232596Y-141143609D01*
X138209780Y-141116839D01*
X138180410Y-141097485D01*
X138146810Y-141087080D01*
X138127000Y-141085500D01*
X138120000Y-141085500D01*
X138085176Y-141090449D01*
X138053109Y-141104904D01*
X138026339Y-141127720D01*
X138006985Y-141157090D01*
X137996580Y-141190690D01*
X137995000Y-141210500D01*
X137995000Y-142110000D01*
X137095000Y-142110000D01*
X137095000Y-140060000D01*
X137090051Y-140025176D01*
X137075596Y-139993109D01*
X137052780Y-139966339D01*
X137023410Y-139946985D01*
X137020000Y-139945929D01*
X137020000Y-138235000D01*
X138127000Y-138235000D01*
X138161824Y-138230051D01*
X138193891Y-138215596D01*
X138220661Y-138192780D01*
X138240015Y-138163410D01*
X138250420Y-138129810D01*
X138252000Y-138110000D01*
X138252000Y-137935000D01*
X138247051Y-137900176D01*
X138232596Y-137868109D01*
X138209780Y-137841339D01*
X138180410Y-137821985D01*
X138146810Y-137811580D01*
X138127000Y-137810000D01*
X137495000Y-137810000D01*
X137495000Y-136910000D01*
X141920000Y-136910000D01*
X141920000Y-137810000D01*
X141920000Y-137810000D01*
G37*
G36*
X113876041Y-139650794D02*
X114106569Y-139698115D01*
X114323512Y-139789309D01*
X114518616Y-139920908D01*
X114684437Y-140087890D01*
X114814669Y-140283906D01*
X114904348Y-140501484D01*
X114949886Y-140731465D01*
X114949886Y-140731498D01*
X114950051Y-140732334D01*
X114946298Y-141001128D01*
X114946107Y-141001967D01*
X114946107Y-141001988D01*
X114894165Y-141230616D01*
X114798447Y-141445601D01*
X114662795Y-141637901D01*
X114492372Y-141800191D01*
X114293673Y-141926290D01*
X114074265Y-142011393D01*
X113842511Y-142052257D01*
X113607225Y-142047329D01*
X113377383Y-141996795D01*
X113161735Y-141902580D01*
X112968487Y-141768269D01*
X112805016Y-141598991D01*
X112677530Y-141401171D01*
X112590899Y-141182366D01*
X112548417Y-140950903D01*
X112551703Y-140715586D01*
X112600630Y-140485402D01*
X112693340Y-140269095D01*
X112826294Y-140074920D01*
X112994433Y-139910266D01*
X113191353Y-139781406D01*
X113409549Y-139693248D01*
X113640714Y-139649152D01*
X113876041Y-139650794D01*
X113876041Y-139650794D01*
G37*
G36*
X120376041Y-139650794D02*
X120606569Y-139698115D01*
X120823512Y-139789309D01*
X121018616Y-139920908D01*
X121184437Y-140087890D01*
X121314669Y-140283906D01*
X121404348Y-140501484D01*
X121449886Y-140731465D01*
X121449886Y-140731498D01*
X121450051Y-140732334D01*
X121446298Y-141001128D01*
X121446107Y-141001967D01*
X121446107Y-141001988D01*
X121394165Y-141230616D01*
X121298447Y-141445601D01*
X121162795Y-141637901D01*
X120992372Y-141800191D01*
X120793673Y-141926290D01*
X120574265Y-142011393D01*
X120342511Y-142052257D01*
X120107225Y-142047329D01*
X119877383Y-141996795D01*
X119661735Y-141902580D01*
X119468487Y-141768269D01*
X119305016Y-141598991D01*
X119177530Y-141401171D01*
X119090899Y-141182366D01*
X119048417Y-140950903D01*
X119051703Y-140715586D01*
X119100630Y-140485402D01*
X119193340Y-140269095D01*
X119326294Y-140074920D01*
X119494433Y-139910266D01*
X119691353Y-139781406D01*
X119909549Y-139693248D01*
X120140714Y-139649152D01*
X120376041Y-139650794D01*
X120376041Y-139650794D01*
G37*
G36*
X142195000Y-142035000D02*
X141295000Y-142035000D01*
X141295000Y-139935000D01*
X142195000Y-139935000D01*
X142195000Y-142035000D01*
X142195000Y-142035000D01*
G37*
G36*
X147623273Y-137975427D02*
X147748141Y-138001059D01*
X147865654Y-138050458D01*
X147971337Y-138121741D01*
X148061154Y-138212188D01*
X148131697Y-138318363D01*
X148180273Y-138436217D01*
X148204862Y-138560400D01*
X148204862Y-138560424D01*
X148205028Y-138561264D01*
X148202995Y-138706861D01*
X148202804Y-138707700D01*
X148202804Y-138707721D01*
X148174758Y-138831169D01*
X148122911Y-138947618D01*
X148049433Y-139051781D01*
X147957120Y-139139688D01*
X147849487Y-139207995D01*
X147730647Y-139254090D01*
X147605111Y-139276225D01*
X147477662Y-139273556D01*
X147353163Y-139246182D01*
X147236357Y-139195151D01*
X147131678Y-139122397D01*
X147043133Y-139030707D01*
X146974077Y-138923552D01*
X146927150Y-138805031D01*
X146904140Y-138679657D01*
X146905920Y-138552191D01*
X146932423Y-138427507D01*
X146982639Y-138310343D01*
X147054657Y-138205163D01*
X147145734Y-138115975D01*
X147252397Y-138046176D01*
X147370589Y-137998424D01*
X147495804Y-137974538D01*
X147623273Y-137975427D01*
X147623273Y-137975427D01*
G37*
G36*
X95651009Y-136726348D02*
X95651029Y-136726354D01*
X95651132Y-136726365D01*
X95846891Y-136786963D01*
X96027153Y-136884430D01*
X96185049Y-137015053D01*
X96314567Y-137173858D01*
X96410773Y-137354795D01*
X96470003Y-137550973D01*
X96490000Y-137754919D01*
X96490000Y-137765237D01*
X96489934Y-137774666D01*
X96489933Y-137774673D01*
X96489898Y-137779741D01*
X96467055Y-137983388D01*
X96405092Y-138178720D01*
X96306369Y-138358296D01*
X96174647Y-138515277D01*
X96014941Y-138643684D01*
X95833337Y-138738624D01*
X95636750Y-138796483D01*
X95636666Y-138796491D01*
X95636641Y-138796498D01*
X95432670Y-138815060D01*
X95228991Y-138793652D01*
X95228971Y-138793646D01*
X95228868Y-138793635D01*
X95033109Y-138733037D01*
X94852847Y-138635570D01*
X94694951Y-138504947D01*
X94565433Y-138346142D01*
X94469227Y-138165205D01*
X94409997Y-137969027D01*
X94390000Y-137765081D01*
X94390000Y-137754763D01*
X94390066Y-137745334D01*
X94390067Y-137745327D01*
X94390102Y-137740259D01*
X94412945Y-137536612D01*
X94474908Y-137341280D01*
X94573631Y-137161704D01*
X94705353Y-137004723D01*
X94865059Y-136876316D01*
X95046663Y-136781376D01*
X95243250Y-136723517D01*
X95243334Y-136723509D01*
X95243359Y-136723502D01*
X95447330Y-136704940D01*
X95651009Y-136726348D01*
X95651009Y-136726348D01*
G37*
G36*
X99030000Y-138810000D02*
X96930000Y-138810000D01*
X96930000Y-136710000D01*
X99030000Y-136710000D01*
X99030000Y-138810000D01*
X99030000Y-138810000D01*
G37*
G36*
X109127659Y-135150022D02*
X109127667Y-135150023D01*
X109132732Y-135150058D01*
X109249102Y-135163111D01*
X109360720Y-135198519D01*
X109463335Y-135254932D01*
X109553039Y-135330202D01*
X109626414Y-135421462D01*
X109680665Y-135525236D01*
X109713727Y-135637571D01*
X109713734Y-135637652D01*
X109713743Y-135637681D01*
X109724346Y-135754188D01*
X109712118Y-135870525D01*
X109712110Y-135870550D01*
X109712100Y-135870647D01*
X109677473Y-135982509D01*
X109621778Y-136085516D01*
X109547136Y-136175742D01*
X109456390Y-136249753D01*
X109352997Y-136304728D01*
X109240896Y-136338573D01*
X109124355Y-136350000D01*
X108515489Y-136350000D01*
X108512341Y-136349978D01*
X108512333Y-136349977D01*
X108507268Y-136349942D01*
X108390898Y-136336889D01*
X108279280Y-136301481D01*
X108176665Y-136245068D01*
X108086961Y-136169798D01*
X108013586Y-136078538D01*
X107959335Y-135974764D01*
X107926273Y-135862429D01*
X107926266Y-135862348D01*
X107926257Y-135862319D01*
X107915654Y-135745812D01*
X107927882Y-135629475D01*
X107927890Y-135629450D01*
X107927900Y-135629353D01*
X107962527Y-135517491D01*
X108018222Y-135414484D01*
X108092864Y-135324258D01*
X108183610Y-135250247D01*
X108287003Y-135195272D01*
X108399104Y-135161427D01*
X108515645Y-135150000D01*
X109124511Y-135150000D01*
X109127659Y-135150022D01*
X109127659Y-135150022D01*
G37*
G36*
X113842659Y-135140022D02*
X113842667Y-135140023D01*
X113847732Y-135140058D01*
X113964102Y-135153111D01*
X114075720Y-135188519D01*
X114178335Y-135244932D01*
X114268039Y-135320202D01*
X114341414Y-135411462D01*
X114395665Y-135515236D01*
X114428727Y-135627571D01*
X114428734Y-135627652D01*
X114428743Y-135627681D01*
X114439346Y-135744188D01*
X114427118Y-135860525D01*
X114427110Y-135860550D01*
X114427100Y-135860647D01*
X114392473Y-135972509D01*
X114336778Y-136075516D01*
X114262136Y-136165742D01*
X114171390Y-136239753D01*
X114067997Y-136294728D01*
X113955896Y-136328573D01*
X113839355Y-136340000D01*
X113230489Y-136340000D01*
X113227341Y-136339978D01*
X113227333Y-136339977D01*
X113222268Y-136339942D01*
X113105898Y-136326889D01*
X112994280Y-136291481D01*
X112891665Y-136235068D01*
X112801961Y-136159798D01*
X112728586Y-136068538D01*
X112674335Y-135964764D01*
X112641273Y-135852429D01*
X112641266Y-135852348D01*
X112641257Y-135852319D01*
X112630654Y-135735812D01*
X112642882Y-135619475D01*
X112642890Y-135619450D01*
X112642900Y-135619353D01*
X112677527Y-135507491D01*
X112733222Y-135404484D01*
X112807864Y-135314258D01*
X112898610Y-135240247D01*
X113002003Y-135185272D01*
X113114104Y-135151427D01*
X113230645Y-135140000D01*
X113839511Y-135140000D01*
X113842659Y-135140022D01*
X113842659Y-135140022D01*
G37*
G36*
X103177659Y-126530022D02*
X103177667Y-126530023D01*
X103182732Y-126530058D01*
X103299102Y-126543111D01*
X103410720Y-126578519D01*
X103513335Y-126634932D01*
X103603039Y-126710202D01*
X103676414Y-126801462D01*
X103730665Y-126905236D01*
X103763727Y-127017571D01*
X103763734Y-127017652D01*
X103763743Y-127017681D01*
X103774346Y-127134188D01*
X103762118Y-127250525D01*
X103762110Y-127250550D01*
X103762100Y-127250647D01*
X103727473Y-127362509D01*
X103671778Y-127465516D01*
X103597136Y-127555742D01*
X103506390Y-127629753D01*
X103402997Y-127684728D01*
X103290896Y-127718573D01*
X103174355Y-127730000D01*
X102565489Y-127730000D01*
X102562341Y-127729978D01*
X102562333Y-127729977D01*
X102557268Y-127729942D01*
X102501119Y-127723644D01*
X102469721Y-127724569D01*
X102436243Y-127735360D01*
X102426659Y-127741834D01*
X102420557Y-127731647D01*
X102394792Y-127707702D01*
X102363704Y-127692401D01*
X102329280Y-127681481D01*
X102327415Y-127680456D01*
X102325231Y-127679763D01*
X102297316Y-127669209D01*
X102262252Y-127666428D01*
X102227801Y-127673526D01*
X102196692Y-127689941D01*
X102171388Y-127714373D01*
X102153892Y-127744886D01*
X102145000Y-127791188D01*
X102145000Y-127809956D01*
X102149949Y-127844780D01*
X102164404Y-127876847D01*
X102187220Y-127903617D01*
X102216590Y-127922971D01*
X102250190Y-127933376D01*
X102269127Y-127934953D01*
X102322555Y-127935326D01*
X102357413Y-127930620D01*
X102387426Y-127917343D01*
X102409248Y-127942360D01*
X102442508Y-127962987D01*
X102520913Y-127995945D01*
X102606272Y-128053521D01*
X102678818Y-128126574D01*
X102735795Y-128212331D01*
X102757263Y-128264419D01*
X102775109Y-128294730D01*
X102800692Y-128318870D01*
X102831988Y-128334926D01*
X102866518Y-128341627D01*
X102896256Y-128339573D01*
X102922190Y-128334626D01*
X103025143Y-128335344D01*
X103126000Y-128356048D01*
X103220913Y-128395945D01*
X103306272Y-128453521D01*
X103378818Y-128526574D01*
X103435797Y-128612334D01*
X103475029Y-128707521D01*
X103494857Y-128807654D01*
X103494857Y-128807685D01*
X103495022Y-128808521D01*
X103493380Y-128926118D01*
X103493190Y-128926953D01*
X103493190Y-128926979D01*
X103470576Y-129026519D01*
X103428697Y-129120578D01*
X103381866Y-129186966D01*
X103365836Y-129218275D01*
X103359163Y-129252810D01*
X103362376Y-129287837D01*
X103379894Y-129328194D01*
X103435796Y-129412334D01*
X103475029Y-129507521D01*
X103494857Y-129607654D01*
X103494857Y-129607685D01*
X103495022Y-129608521D01*
X103493380Y-129726118D01*
X103493190Y-129726953D01*
X103493190Y-129726979D01*
X103470576Y-129826519D01*
X103428697Y-129920578D01*
X103381866Y-129986966D01*
X103365836Y-130018275D01*
X103359163Y-130052810D01*
X103362376Y-130087837D01*
X103379894Y-130128194D01*
X103435796Y-130212334D01*
X103475029Y-130307521D01*
X103494857Y-130407654D01*
X103494857Y-130407685D01*
X103495022Y-130408521D01*
X103493380Y-130526118D01*
X103493190Y-130526953D01*
X103493190Y-130526979D01*
X103470576Y-130626519D01*
X103428697Y-130720578D01*
X103369351Y-130804708D01*
X103294788Y-130875712D01*
X103207857Y-130930881D01*
X103111870Y-130968112D01*
X103010475Y-130985990D01*
X102907533Y-130983834D01*
X102899666Y-130982104D01*
X102864592Y-130979459D01*
X102830169Y-130986691D01*
X102799124Y-131003227D01*
X102773915Y-131027756D01*
X102758632Y-131053345D01*
X102728697Y-131120578D01*
X102681866Y-131186966D01*
X102665836Y-131218275D01*
X102659163Y-131252810D01*
X102662376Y-131287837D01*
X102679894Y-131328194D01*
X102735795Y-131412331D01*
X102757263Y-131464419D01*
X102775109Y-131494730D01*
X102800692Y-131518870D01*
X102831988Y-131534926D01*
X102866518Y-131541627D01*
X102896256Y-131539573D01*
X102922190Y-131534626D01*
X103025143Y-131535344D01*
X103126000Y-131556048D01*
X103220913Y-131595945D01*
X103306272Y-131653521D01*
X103378818Y-131726574D01*
X103435797Y-131812334D01*
X103475029Y-131907521D01*
X103494857Y-132007654D01*
X103494857Y-132007685D01*
X103495022Y-132008521D01*
X103493380Y-132126118D01*
X103493190Y-132126953D01*
X103493190Y-132126979D01*
X103470576Y-132226519D01*
X103428697Y-132320578D01*
X103381866Y-132386966D01*
X103365836Y-132418275D01*
X103359163Y-132452810D01*
X103362376Y-132487837D01*
X103379894Y-132528194D01*
X103435796Y-132612334D01*
X103475029Y-132707521D01*
X103494857Y-132807654D01*
X103494857Y-132807685D01*
X103495022Y-132808521D01*
X103493380Y-132926118D01*
X103493190Y-132926953D01*
X103493190Y-132926979D01*
X103470576Y-133026519D01*
X103428697Y-133120578D01*
X103381866Y-133186966D01*
X103365836Y-133218275D01*
X103359163Y-133252810D01*
X103362376Y-133287837D01*
X103379894Y-133328194D01*
X103435796Y-133412334D01*
X103475029Y-133507521D01*
X103494857Y-133607654D01*
X103494857Y-133607685D01*
X103495022Y-133608521D01*
X103493380Y-133726118D01*
X103493190Y-133726953D01*
X103493190Y-133726979D01*
X103470576Y-133826519D01*
X103428697Y-133920578D01*
X103369351Y-134004708D01*
X103294788Y-134075712D01*
X103207857Y-134130881D01*
X103111870Y-134168112D01*
X103010475Y-134185990D01*
X102907533Y-134183834D01*
X102899666Y-134182104D01*
X102864592Y-134179459D01*
X102830169Y-134186691D01*
X102799124Y-134203227D01*
X102773915Y-134227756D01*
X102758632Y-134253345D01*
X102728697Y-134320578D01*
X102669351Y-134404708D01*
X102594788Y-134475712D01*
X102507858Y-134530880D01*
X102443148Y-134555980D01*
X102412470Y-134573187D01*
X102387801Y-134598260D01*
X102383691Y-134605874D01*
X102354898Y-134592016D01*
X102319693Y-134586183D01*
X102255528Y-134584839D01*
X102220608Y-134589058D01*
X102188245Y-134602838D01*
X102161003Y-134625088D01*
X102141038Y-134654047D01*
X102129932Y-134687422D01*
X102130290Y-134734090D01*
X102135477Y-134760288D01*
X102147096Y-134793488D01*
X102167503Y-134822136D01*
X102195084Y-134843965D01*
X102227654Y-134857246D01*
X102262635Y-134860928D01*
X102297257Y-134854718D01*
X102313397Y-134847824D01*
X102337003Y-134835272D01*
X102355921Y-134829560D01*
X102385113Y-134816017D01*
X102411633Y-134792911D01*
X102421658Y-134777330D01*
X102427009Y-134781433D01*
X102459780Y-134794211D01*
X102497267Y-134796705D01*
X102565645Y-134790000D01*
X103174511Y-134790000D01*
X103177659Y-134790022D01*
X103177667Y-134790023D01*
X103182732Y-134790058D01*
X103299102Y-134803111D01*
X103410720Y-134838519D01*
X103513335Y-134894932D01*
X103603039Y-134970202D01*
X103676414Y-135061462D01*
X103730665Y-135165236D01*
X103763727Y-135277571D01*
X103763734Y-135277652D01*
X103763743Y-135277681D01*
X103774346Y-135394188D01*
X103762118Y-135510525D01*
X103762110Y-135510550D01*
X103762100Y-135510647D01*
X103727473Y-135622509D01*
X103671778Y-135725516D01*
X103597136Y-135815742D01*
X103506390Y-135889753D01*
X103402997Y-135944728D01*
X103290896Y-135978573D01*
X103174355Y-135990000D01*
X102565489Y-135990000D01*
X102562341Y-135989978D01*
X102562333Y-135989977D01*
X102557268Y-135989942D01*
X102440898Y-135976889D01*
X102329280Y-135941481D01*
X102226665Y-135885068D01*
X102136961Y-135809798D01*
X102063586Y-135718538D01*
X102009335Y-135614764D01*
X101976273Y-135502429D01*
X101976266Y-135502348D01*
X101976257Y-135502319D01*
X101972185Y-135457566D01*
X101964100Y-135423334D01*
X101946799Y-135392709D01*
X101921651Y-135368116D01*
X101890647Y-135351504D01*
X101856243Y-135344186D01*
X101821162Y-135346743D01*
X101802496Y-135352354D01*
X101761870Y-135368112D01*
X101660475Y-135385990D01*
X101557533Y-135383834D01*
X101456979Y-135361726D01*
X101362630Y-135320506D01*
X101278088Y-135261747D01*
X101206569Y-135187688D01*
X101150791Y-135101137D01*
X101112890Y-135005411D01*
X101094305Y-134904147D01*
X101095742Y-134801192D01*
X101117147Y-134700490D01*
X101157710Y-134605849D01*
X101215874Y-134520902D01*
X101289437Y-134448864D01*
X101375591Y-134392488D01*
X101471052Y-134353918D01*
X101572188Y-134334626D01*
X101635786Y-134335070D01*
X101670644Y-134330365D01*
X101702810Y-134316134D01*
X101729739Y-134293506D01*
X101749298Y-134264271D01*
X101759938Y-134230745D01*
X101759605Y-134187508D01*
X101744305Y-134104147D01*
X101745742Y-134001192D01*
X101767147Y-133900490D01*
X101807710Y-133805849D01*
X101865874Y-133720902D01*
X101939437Y-133648864D01*
X102025591Y-133592488D01*
X102121052Y-133553918D01*
X102222188Y-133534626D01*
X102325141Y-133535344D01*
X102342067Y-133538819D01*
X102377175Y-133540974D01*
X102411493Y-133533262D01*
X102442305Y-133516296D01*
X102467169Y-133491417D01*
X102482095Y-133465614D01*
X102507708Y-133405853D01*
X102558386Y-133331840D01*
X102573977Y-133300310D01*
X102580167Y-133265685D01*
X102576466Y-133230706D01*
X102560318Y-133193505D01*
X102500791Y-133101138D01*
X102483286Y-133056925D01*
X102465865Y-133026368D01*
X102440620Y-133001874D01*
X102409552Y-132985383D01*
X102375119Y-132978201D01*
X102345359Y-132979840D01*
X102310477Y-132985990D01*
X102207533Y-132983834D01*
X102106979Y-132961726D01*
X102012630Y-132920506D01*
X101928088Y-132861747D01*
X101856569Y-132787688D01*
X101800791Y-132701137D01*
X101762890Y-132605411D01*
X101744305Y-132504147D01*
X101745742Y-132401192D01*
X101767147Y-132300490D01*
X101807709Y-132205852D01*
X101858386Y-132131840D01*
X101873977Y-132100310D01*
X101880167Y-132065685D01*
X101876466Y-132030706D01*
X101860318Y-131993505D01*
X101800791Y-131901137D01*
X101762890Y-131805411D01*
X101744305Y-131704147D01*
X101745742Y-131601192D01*
X101767147Y-131500490D01*
X101807709Y-131405852D01*
X101858386Y-131331840D01*
X101873977Y-131300310D01*
X101880167Y-131265685D01*
X101876466Y-131230706D01*
X101860318Y-131193505D01*
X101800791Y-131101137D01*
X101762890Y-131005411D01*
X101744305Y-130904147D01*
X101745742Y-130801192D01*
X101767147Y-130700490D01*
X101807709Y-130605852D01*
X101858386Y-130531840D01*
X101873977Y-130500310D01*
X101880167Y-130465685D01*
X101876466Y-130430706D01*
X101860318Y-130393505D01*
X101800791Y-130301137D01*
X101762890Y-130205411D01*
X101744305Y-130104147D01*
X101745742Y-130001192D01*
X101767147Y-129900490D01*
X101807710Y-129805849D01*
X101865874Y-129720902D01*
X101939437Y-129648864D01*
X102025591Y-129592488D01*
X102121052Y-129553918D01*
X102222188Y-129534626D01*
X102325141Y-129535344D01*
X102342067Y-129538819D01*
X102377175Y-129540974D01*
X102411493Y-129533262D01*
X102442305Y-129516296D01*
X102467169Y-129491417D01*
X102482095Y-129465614D01*
X102507708Y-129405853D01*
X102558386Y-129331840D01*
X102573977Y-129300310D01*
X102580167Y-129265685D01*
X102576466Y-129230706D01*
X102560318Y-129193505D01*
X102500791Y-129101138D01*
X102483286Y-129056925D01*
X102465865Y-129026368D01*
X102440620Y-129001874D01*
X102409552Y-128985383D01*
X102375119Y-128978201D01*
X102345359Y-128979840D01*
X102310477Y-128985990D01*
X102207533Y-128983834D01*
X102106979Y-128961726D01*
X102012630Y-128920506D01*
X101928088Y-128861747D01*
X101856569Y-128787688D01*
X101800791Y-128701137D01*
X101762890Y-128605411D01*
X101744305Y-128504147D01*
X101744849Y-128465200D01*
X101740387Y-128430311D01*
X101726381Y-128398045D01*
X101703941Y-128370959D01*
X101674844Y-128351197D01*
X101641392Y-128340323D01*
X101628502Y-128339792D01*
X101628528Y-128339540D01*
X101514557Y-128327561D01*
X101514532Y-128327553D01*
X101514434Y-128327543D01*
X101416554Y-128297244D01*
X101326424Y-128248511D01*
X101247475Y-128183199D01*
X101182716Y-128103797D01*
X101134613Y-128013328D01*
X101104999Y-127915239D01*
X101095000Y-127813266D01*
X101095000Y-127506565D01*
X101095015Y-127504476D01*
X101095016Y-127504469D01*
X101095051Y-127499404D01*
X101106473Y-127397580D01*
X101137454Y-127299914D01*
X101186815Y-127210126D01*
X101252677Y-127131636D01*
X101332529Y-127067433D01*
X101423332Y-127019962D01*
X101521625Y-126991033D01*
X101521709Y-126991025D01*
X101521734Y-126991018D01*
X101623665Y-126981741D01*
X101725443Y-126992439D01*
X101725468Y-126992447D01*
X101725566Y-126992457D01*
X101823446Y-127022756D01*
X101823532Y-127022803D01*
X101834921Y-127026328D01*
X101834955Y-127026218D01*
X101851318Y-127032275D01*
X101886400Y-127034813D01*
X101920800Y-127027477D01*
X101951795Y-127010847D01*
X101976930Y-126986241D01*
X101997150Y-126947168D01*
X102012527Y-126897491D01*
X102068222Y-126794484D01*
X102142864Y-126704258D01*
X102233610Y-126630247D01*
X102337003Y-126575272D01*
X102449104Y-126541427D01*
X102565645Y-126530000D01*
X103174511Y-126530000D01*
X103177659Y-126530022D01*
X103177659Y-126530022D01*
G37*
G36*
X119792659Y-126520022D02*
X119792667Y-126520023D01*
X119797732Y-126520058D01*
X119914102Y-126533111D01*
X120025720Y-126568519D01*
X120128335Y-126624932D01*
X120218039Y-126700202D01*
X120291414Y-126791462D01*
X120345665Y-126895236D01*
X120378727Y-127007571D01*
X120378734Y-127007652D01*
X120378743Y-127007681D01*
X120382799Y-127052255D01*
X120390884Y-127086487D01*
X120408186Y-127117112D01*
X120433334Y-127141704D01*
X120464338Y-127158317D01*
X120498742Y-127165634D01*
X120533823Y-127163076D01*
X120554112Y-127156823D01*
X120586050Y-127143919D01*
X120687188Y-127124626D01*
X120790143Y-127125344D01*
X120891000Y-127146048D01*
X120985913Y-127185945D01*
X121071272Y-127243521D01*
X121143818Y-127316574D01*
X121200797Y-127402334D01*
X121240029Y-127497521D01*
X121259857Y-127597654D01*
X121259857Y-127597685D01*
X121260022Y-127598521D01*
X121258380Y-127716118D01*
X121258190Y-127716953D01*
X121258190Y-127716979D01*
X121235576Y-127816519D01*
X121193697Y-127910578D01*
X121134351Y-127994708D01*
X121059788Y-128065712D01*
X120972857Y-128120881D01*
X120876870Y-128158112D01*
X120775476Y-128175990D01*
X120720529Y-128174839D01*
X120685608Y-128179058D01*
X120653246Y-128192837D01*
X120626004Y-128215088D01*
X120606039Y-128244047D01*
X120594932Y-128277421D01*
X120595291Y-128324091D01*
X120609857Y-128397653D01*
X120609857Y-128397685D01*
X120610022Y-128398521D01*
X120608380Y-128516118D01*
X120608190Y-128516953D01*
X120608190Y-128516979D01*
X120585576Y-128616519D01*
X120543697Y-128710578D01*
X120484351Y-128794708D01*
X120409788Y-128865712D01*
X120322857Y-128920881D01*
X120226870Y-128958112D01*
X120125475Y-128975990D01*
X120022533Y-128973834D01*
X120014666Y-128972104D01*
X119979592Y-128969459D01*
X119945169Y-128976691D01*
X119914124Y-128993227D01*
X119888915Y-129017756D01*
X119873632Y-129043345D01*
X119843697Y-129110578D01*
X119796866Y-129176966D01*
X119780836Y-129208275D01*
X119774163Y-129242810D01*
X119777376Y-129277837D01*
X119794894Y-129318194D01*
X119850795Y-129402331D01*
X119872263Y-129454419D01*
X119890109Y-129484730D01*
X119915692Y-129508870D01*
X119946988Y-129524926D01*
X119981518Y-129531627D01*
X120011256Y-129529573D01*
X120037190Y-129524626D01*
X120140143Y-129525344D01*
X120241000Y-129546048D01*
X120335913Y-129585945D01*
X120421272Y-129643521D01*
X120493818Y-129716574D01*
X120550797Y-129802334D01*
X120590029Y-129897521D01*
X120609857Y-129997654D01*
X120609857Y-129997685D01*
X120610022Y-129998521D01*
X120608380Y-130116118D01*
X120608190Y-130116953D01*
X120608190Y-130116979D01*
X120585576Y-130216519D01*
X120543697Y-130310578D01*
X120496866Y-130376966D01*
X120480836Y-130408275D01*
X120474163Y-130442810D01*
X120477376Y-130477837D01*
X120494894Y-130518194D01*
X120550796Y-130602334D01*
X120590029Y-130697521D01*
X120609857Y-130797654D01*
X120609857Y-130797685D01*
X120610022Y-130798521D01*
X120608380Y-130916118D01*
X120608190Y-130916953D01*
X120608190Y-130916979D01*
X120585576Y-131016519D01*
X120543697Y-131110578D01*
X120496866Y-131176966D01*
X120480836Y-131208275D01*
X120474163Y-131242810D01*
X120477376Y-131277837D01*
X120494894Y-131318194D01*
X120550796Y-131402334D01*
X120590029Y-131497521D01*
X120609857Y-131597654D01*
X120609857Y-131597685D01*
X120610022Y-131598521D01*
X120608380Y-131716118D01*
X120608190Y-131716953D01*
X120608190Y-131716979D01*
X120585576Y-131816519D01*
X120543697Y-131910578D01*
X120496866Y-131976966D01*
X120480836Y-132008275D01*
X120474163Y-132042810D01*
X120477376Y-132077837D01*
X120494894Y-132118194D01*
X120550796Y-132202334D01*
X120590029Y-132297521D01*
X120609857Y-132397654D01*
X120609857Y-132397685D01*
X120610022Y-132398521D01*
X120608380Y-132516118D01*
X120608190Y-132516953D01*
X120608190Y-132516979D01*
X120585576Y-132616519D01*
X120543697Y-132710578D01*
X120484351Y-132794708D01*
X120409788Y-132865712D01*
X120322857Y-132920881D01*
X120226870Y-132958112D01*
X120125475Y-132975990D01*
X120022533Y-132973834D01*
X120014666Y-132972104D01*
X119979592Y-132969459D01*
X119945169Y-132976691D01*
X119914124Y-132993227D01*
X119888915Y-133017756D01*
X119873632Y-133043345D01*
X119843697Y-133110578D01*
X119796866Y-133176966D01*
X119780836Y-133208275D01*
X119774163Y-133242810D01*
X119777376Y-133277837D01*
X119794894Y-133318194D01*
X119850795Y-133402331D01*
X119872263Y-133454419D01*
X119890109Y-133484730D01*
X119915692Y-133508870D01*
X119946988Y-133524926D01*
X119981518Y-133531627D01*
X120011256Y-133529573D01*
X120037190Y-133524626D01*
X120140143Y-133525344D01*
X120241000Y-133546048D01*
X120335913Y-133585945D01*
X120421272Y-133643521D01*
X120493818Y-133716574D01*
X120550797Y-133802334D01*
X120590029Y-133897521D01*
X120609857Y-133997654D01*
X120609857Y-133997685D01*
X120610022Y-133998521D01*
X120609357Y-134046139D01*
X120613659Y-134079776D01*
X120627665Y-134112042D01*
X120650105Y-134139128D01*
X120679202Y-134158890D01*
X120712654Y-134169764D01*
X120726485Y-134170334D01*
X120726472Y-134170460D01*
X120840443Y-134182439D01*
X120840468Y-134182447D01*
X120840566Y-134182457D01*
X120938446Y-134212756D01*
X121028576Y-134261489D01*
X121107525Y-134326801D01*
X121172284Y-134406203D01*
X121220387Y-134496672D01*
X121250001Y-134594761D01*
X121260000Y-134696734D01*
X121260000Y-135003435D01*
X121259985Y-135005524D01*
X121259984Y-135005531D01*
X121259949Y-135010596D01*
X121248527Y-135112420D01*
X121217546Y-135210086D01*
X121168185Y-135299874D01*
X121102323Y-135378364D01*
X121022471Y-135442567D01*
X120931668Y-135490038D01*
X120833375Y-135518967D01*
X120833291Y-135518975D01*
X120833266Y-135518982D01*
X120731335Y-135528259D01*
X120629557Y-135517561D01*
X120629532Y-135517553D01*
X120629434Y-135517543D01*
X120531554Y-135487244D01*
X120531468Y-135487197D01*
X120520079Y-135483672D01*
X120520045Y-135483782D01*
X120503682Y-135477725D01*
X120468600Y-135475187D01*
X120434200Y-135482523D01*
X120403205Y-135499153D01*
X120378070Y-135523759D01*
X120357850Y-135562832D01*
X120342473Y-135612509D01*
X120286778Y-135715516D01*
X120212136Y-135805742D01*
X120121390Y-135879753D01*
X120017997Y-135934728D01*
X119905896Y-135968573D01*
X119789355Y-135980000D01*
X119180489Y-135980000D01*
X119177341Y-135979978D01*
X119177333Y-135979977D01*
X119172268Y-135979942D01*
X119055898Y-135966889D01*
X118944280Y-135931481D01*
X118841665Y-135875068D01*
X118751961Y-135799798D01*
X118678586Y-135708538D01*
X118624335Y-135604764D01*
X118591273Y-135492429D01*
X118591266Y-135492348D01*
X118591257Y-135492319D01*
X118580654Y-135375812D01*
X118592882Y-135259475D01*
X118592890Y-135259450D01*
X118592900Y-135259353D01*
X118627527Y-135147491D01*
X118683222Y-135044484D01*
X118757864Y-134954258D01*
X118848610Y-134880247D01*
X118952003Y-134825272D01*
X119064104Y-134791427D01*
X119180645Y-134780000D01*
X119789511Y-134780000D01*
X119792657Y-134780022D01*
X119792665Y-134780023D01*
X119797732Y-134780058D01*
X119852097Y-134786156D01*
X119883489Y-134785231D01*
X119916967Y-134774441D01*
X119926451Y-134768034D01*
X119931262Y-134776325D01*
X119956691Y-134800627D01*
X119989321Y-134816972D01*
X120025720Y-134828519D01*
X120027584Y-134829544D01*
X120029773Y-134830238D01*
X120057684Y-134840791D01*
X120092748Y-134843572D01*
X120127199Y-134836474D01*
X120158308Y-134820059D01*
X120183612Y-134795627D01*
X120201108Y-134765114D01*
X120210000Y-134718812D01*
X120210000Y-134700170D01*
X120205051Y-134665346D01*
X120190596Y-134633279D01*
X120167780Y-134606509D01*
X120138410Y-134587155D01*
X120087618Y-134575197D01*
X120032098Y-134574034D01*
X119997178Y-134578253D01*
X119965253Y-134591847D01*
X119943964Y-134567441D01*
X119912308Y-134547501D01*
X119827630Y-134510506D01*
X119743088Y-134451747D01*
X119671569Y-134377688D01*
X119615791Y-134291138D01*
X119598286Y-134246925D01*
X119580865Y-134216368D01*
X119555620Y-134191874D01*
X119524552Y-134175383D01*
X119490119Y-134168201D01*
X119460359Y-134169840D01*
X119425477Y-134175990D01*
X119322533Y-134173834D01*
X119221979Y-134151726D01*
X119127630Y-134110506D01*
X119043088Y-134051747D01*
X118971569Y-133977688D01*
X118915791Y-133891137D01*
X118877890Y-133795411D01*
X118859305Y-133694147D01*
X118860742Y-133591192D01*
X118882147Y-133490490D01*
X118922709Y-133395852D01*
X118973386Y-133321840D01*
X118988977Y-133290310D01*
X118995167Y-133255685D01*
X118991466Y-133220706D01*
X118975318Y-133183505D01*
X118915791Y-133091137D01*
X118877890Y-132995411D01*
X118859305Y-132894147D01*
X118860742Y-132791192D01*
X118882147Y-132690490D01*
X118922709Y-132595852D01*
X118973386Y-132521840D01*
X118988977Y-132490310D01*
X118995167Y-132455685D01*
X118991466Y-132420706D01*
X118975318Y-132383505D01*
X118915791Y-132291137D01*
X118877890Y-132195411D01*
X118859305Y-132094147D01*
X118860742Y-131991192D01*
X118882147Y-131890490D01*
X118922710Y-131795849D01*
X118980874Y-131710902D01*
X119054437Y-131638864D01*
X119140591Y-131582488D01*
X119236052Y-131543918D01*
X119337188Y-131524626D01*
X119440141Y-131525344D01*
X119457067Y-131528819D01*
X119492175Y-131530974D01*
X119526493Y-131523262D01*
X119557305Y-131506296D01*
X119582169Y-131481417D01*
X119597095Y-131455614D01*
X119622708Y-131395853D01*
X119673386Y-131321840D01*
X119688977Y-131290310D01*
X119695167Y-131255685D01*
X119691466Y-131220706D01*
X119675318Y-131183505D01*
X119615791Y-131091138D01*
X119598286Y-131046925D01*
X119580865Y-131016368D01*
X119555620Y-130991874D01*
X119524552Y-130975383D01*
X119490119Y-130968201D01*
X119460359Y-130969840D01*
X119425477Y-130975990D01*
X119322533Y-130973834D01*
X119221979Y-130951726D01*
X119127630Y-130910506D01*
X119043088Y-130851747D01*
X118971569Y-130777688D01*
X118915791Y-130691137D01*
X118877890Y-130595411D01*
X118859305Y-130494147D01*
X118860742Y-130391192D01*
X118882147Y-130290490D01*
X118922709Y-130195852D01*
X118973386Y-130121840D01*
X118988977Y-130090310D01*
X118995167Y-130055685D01*
X118991466Y-130020706D01*
X118975318Y-129983505D01*
X118915791Y-129891137D01*
X118877890Y-129795411D01*
X118859305Y-129694147D01*
X118860742Y-129591192D01*
X118882147Y-129490490D01*
X118922709Y-129395852D01*
X118973386Y-129321840D01*
X118988977Y-129290310D01*
X118995167Y-129255685D01*
X118991466Y-129220706D01*
X118975318Y-129183505D01*
X118915791Y-129091137D01*
X118877890Y-128995411D01*
X118859305Y-128894147D01*
X118860742Y-128791192D01*
X118882147Y-128690490D01*
X118922710Y-128595849D01*
X118980874Y-128510902D01*
X119054437Y-128438864D01*
X119140591Y-128382488D01*
X119236052Y-128343918D01*
X119337188Y-128324626D01*
X119440141Y-128325344D01*
X119457067Y-128328819D01*
X119492175Y-128330974D01*
X119526493Y-128323262D01*
X119557305Y-128306296D01*
X119582169Y-128281417D01*
X119597095Y-128255614D01*
X119622709Y-128195850D01*
X119680874Y-128110902D01*
X119754437Y-128038864D01*
X119840591Y-127982488D01*
X119912370Y-127953487D01*
X119942804Y-127935853D01*
X119967121Y-127910438D01*
X119969765Y-127905371D01*
X119997561Y-127918750D01*
X120034513Y-127924607D01*
X120100786Y-127925070D01*
X120135644Y-127920364D01*
X120167811Y-127906134D01*
X120194740Y-127883506D01*
X120214298Y-127854271D01*
X120224938Y-127820745D01*
X120224605Y-127777505D01*
X120219820Y-127751437D01*
X120208665Y-127718079D01*
X120188659Y-127689149D01*
X120161384Y-127666938D01*
X120129002Y-127653204D01*
X120094076Y-127649036D01*
X120059371Y-127654763D01*
X120041335Y-127662319D01*
X120017997Y-127674728D01*
X119996539Y-127681207D01*
X119967350Y-127694748D01*
X119940830Y-127717854D01*
X119931478Y-127732386D01*
X119925361Y-127727830D01*
X119892415Y-127715511D01*
X119856771Y-127713390D01*
X119789355Y-127720000D01*
X119180489Y-127720000D01*
X119177341Y-127719978D01*
X119177333Y-127719977D01*
X119172268Y-127719942D01*
X119055898Y-127706889D01*
X118944280Y-127671481D01*
X118841665Y-127615068D01*
X118751961Y-127539798D01*
X118678586Y-127448538D01*
X118624335Y-127344764D01*
X118591273Y-127232429D01*
X118591266Y-127232348D01*
X118591257Y-127232319D01*
X118580654Y-127115812D01*
X118592882Y-126999475D01*
X118592890Y-126999450D01*
X118592900Y-126999353D01*
X118627527Y-126887491D01*
X118683222Y-126784484D01*
X118757864Y-126694258D01*
X118848610Y-126620247D01*
X118952003Y-126565272D01*
X119064104Y-126531427D01*
X119180645Y-126520000D01*
X119789511Y-126520000D01*
X119792659Y-126520022D01*
X119792659Y-126520022D01*
G37*
G36*
X145900000Y-134550000D02*
X144200000Y-134550000D01*
X144200000Y-133550000D01*
X145900000Y-133550000D01*
X145900000Y-134550000D01*
X145900000Y-134550000D01*
G37*
G36*
X148875000Y-132423000D02*
X148866580Y-132450190D01*
X148865000Y-132470000D01*
X148865000Y-133272015D01*
X148861985Y-133276590D01*
X148851580Y-133310190D01*
X148850000Y-133330000D01*
X148850000Y-134175000D01*
X146750000Y-134175000D01*
X146750000Y-133207985D01*
X146753015Y-133203410D01*
X146763420Y-133169810D01*
X146765000Y-133150000D01*
X146765000Y-132227000D01*
X146773420Y-132199810D01*
X146775000Y-132180000D01*
X146775000Y-130575000D01*
X148875000Y-130575000D01*
X148875000Y-132423000D01*
X148875000Y-132423000D01*
G37*
G36*
X116015000Y-131087014D02*
X116011985Y-131091589D01*
X116001580Y-131125189D01*
X116000000Y-131144999D01*
X116000000Y-132000000D01*
X114300000Y-132000000D01*
X114300000Y-130932985D01*
X114303015Y-130928410D01*
X114313420Y-130894810D01*
X114315000Y-130875000D01*
X114315000Y-130019999D01*
X116015000Y-130019999D01*
X116015000Y-131087014D01*
X116015000Y-131087014D01*
G37*
G36*
X144350000Y-129250000D02*
X142250000Y-129250000D01*
X142250000Y-128350000D01*
X144350000Y-128350000D01*
X144350000Y-129250000D01*
X144350000Y-129250000D01*
G37*
G36*
X109127659Y-126170022D02*
X109127667Y-126170023D01*
X109132732Y-126170058D01*
X109249102Y-126183111D01*
X109360720Y-126218519D01*
X109463335Y-126274932D01*
X109553039Y-126350202D01*
X109626414Y-126441462D01*
X109680665Y-126545236D01*
X109713727Y-126657571D01*
X109713734Y-126657652D01*
X109713743Y-126657681D01*
X109724346Y-126774188D01*
X109712118Y-126890525D01*
X109712110Y-126890550D01*
X109712100Y-126890647D01*
X109677473Y-127002509D01*
X109621778Y-127105516D01*
X109547136Y-127195742D01*
X109456390Y-127269753D01*
X109352997Y-127324728D01*
X109240896Y-127358573D01*
X109124355Y-127370000D01*
X108515489Y-127370000D01*
X108512341Y-127369978D01*
X108512333Y-127369977D01*
X108507268Y-127369942D01*
X108390898Y-127356889D01*
X108279280Y-127321481D01*
X108176665Y-127265068D01*
X108086961Y-127189798D01*
X108013586Y-127098538D01*
X107959335Y-126994764D01*
X107926273Y-126882429D01*
X107926266Y-126882348D01*
X107926257Y-126882319D01*
X107915654Y-126765812D01*
X107927882Y-126649475D01*
X107927890Y-126649450D01*
X107927900Y-126649353D01*
X107962527Y-126537491D01*
X108018222Y-126434484D01*
X108092864Y-126344258D01*
X108183610Y-126270247D01*
X108287003Y-126215272D01*
X108399104Y-126181427D01*
X108515645Y-126170000D01*
X109124511Y-126170000D01*
X109127659Y-126170022D01*
X109127659Y-126170022D01*
G37*
G36*
X113842659Y-126160022D02*
X113842667Y-126160023D01*
X113847732Y-126160058D01*
X113964102Y-126173111D01*
X114075720Y-126208519D01*
X114178335Y-126264932D01*
X114268039Y-126340202D01*
X114341414Y-126431462D01*
X114395665Y-126535236D01*
X114428727Y-126647571D01*
X114428734Y-126647652D01*
X114428743Y-126647681D01*
X114439346Y-126764188D01*
X114427118Y-126880525D01*
X114427110Y-126880550D01*
X114427100Y-126880647D01*
X114392473Y-126992509D01*
X114336778Y-127095516D01*
X114262136Y-127185742D01*
X114171390Y-127259753D01*
X114067997Y-127314728D01*
X113955896Y-127348573D01*
X113839355Y-127360000D01*
X113230489Y-127360000D01*
X113227341Y-127359978D01*
X113227333Y-127359977D01*
X113222268Y-127359942D01*
X113105898Y-127346889D01*
X112994280Y-127311481D01*
X112891665Y-127255068D01*
X112801961Y-127179798D01*
X112728586Y-127088538D01*
X112674335Y-126984764D01*
X112641273Y-126872429D01*
X112641266Y-126872348D01*
X112641257Y-126872319D01*
X112630654Y-126755812D01*
X112642882Y-126639475D01*
X112642890Y-126639450D01*
X112642900Y-126639353D01*
X112677527Y-126527491D01*
X112733222Y-126424484D01*
X112807864Y-126334258D01*
X112898610Y-126260247D01*
X113002003Y-126205272D01*
X113114104Y-126171427D01*
X113230645Y-126160000D01*
X113839511Y-126160000D01*
X113842659Y-126160022D01*
X113842659Y-126160022D01*
G37*
G36*
X145025000Y-127250000D02*
X143325000Y-127250000D01*
X143325000Y-126250000D01*
X145025000Y-126250000D01*
X145025000Y-127250000D01*
X145025000Y-127250000D01*
G37*
G36*
X95651009Y-123726348D02*
X95651029Y-123726354D01*
X95651132Y-123726365D01*
X95846891Y-123786963D01*
X96027153Y-123884430D01*
X96185049Y-124015053D01*
X96314567Y-124173858D01*
X96410773Y-124354795D01*
X96470003Y-124550973D01*
X96490000Y-124754919D01*
X96490000Y-124765237D01*
X96489934Y-124774666D01*
X96489933Y-124774673D01*
X96489898Y-124779741D01*
X96467055Y-124983388D01*
X96405092Y-125178720D01*
X96306369Y-125358296D01*
X96174647Y-125515277D01*
X96014941Y-125643684D01*
X95833337Y-125738624D01*
X95636750Y-125796483D01*
X95636666Y-125796491D01*
X95636641Y-125796498D01*
X95432670Y-125815060D01*
X95228991Y-125793652D01*
X95228971Y-125793646D01*
X95228868Y-125793635D01*
X95033109Y-125733037D01*
X94852847Y-125635570D01*
X94694951Y-125504947D01*
X94565433Y-125346142D01*
X94469227Y-125165205D01*
X94409997Y-124969027D01*
X94390000Y-124765081D01*
X94390000Y-124754763D01*
X94390066Y-124745334D01*
X94390067Y-124745327D01*
X94390102Y-124740259D01*
X94412945Y-124536612D01*
X94474908Y-124341280D01*
X94573631Y-124161704D01*
X94705353Y-124004723D01*
X94865059Y-123876316D01*
X95046663Y-123781376D01*
X95243250Y-123723517D01*
X95243334Y-123723509D01*
X95243359Y-123723502D01*
X95447330Y-123704940D01*
X95651009Y-123726348D01*
X95651009Y-123726348D01*
G37*
G36*
X99030000Y-125810000D02*
X96930000Y-125810000D01*
X96930000Y-123710000D01*
X99030000Y-123710000D01*
X99030000Y-125810000D01*
X99030000Y-125810000D01*
G37*
G36*
X117166009Y-122771348D02*
X117166029Y-122771354D01*
X117166132Y-122771365D01*
X117361891Y-122831963D01*
X117542153Y-122929430D01*
X117700049Y-123060053D01*
X117829567Y-123218858D01*
X117925773Y-123399795D01*
X117985003Y-123595973D01*
X118005000Y-123799919D01*
X118005000Y-123810237D01*
X118004934Y-123819666D01*
X118004933Y-123819673D01*
X118004898Y-123824741D01*
X117982055Y-124028388D01*
X117920092Y-124223720D01*
X117821369Y-124403296D01*
X117689647Y-124560277D01*
X117529941Y-124688684D01*
X117348337Y-124783624D01*
X117151750Y-124841483D01*
X117151666Y-124841491D01*
X117151641Y-124841498D01*
X116947670Y-124860060D01*
X116743991Y-124838652D01*
X116743971Y-124838646D01*
X116743868Y-124838635D01*
X116548109Y-124778037D01*
X116367847Y-124680570D01*
X116209951Y-124549947D01*
X116080433Y-124391142D01*
X115984227Y-124210205D01*
X115924997Y-124014027D01*
X115905000Y-123810081D01*
X115905000Y-123799763D01*
X115905066Y-123790334D01*
X115905067Y-123790327D01*
X115905102Y-123785259D01*
X115927945Y-123581612D01*
X115989908Y-123386280D01*
X116088631Y-123206704D01*
X116220353Y-123049723D01*
X116380059Y-122921316D01*
X116561663Y-122826376D01*
X116758250Y-122768517D01*
X116758334Y-122768509D01*
X116758359Y-122768502D01*
X116962330Y-122749940D01*
X117166009Y-122771348D01*
X117166009Y-122771348D01*
G37*
G36*
X115465000Y-124855000D02*
X113365000Y-124855000D01*
X113365000Y-122755000D01*
X115465000Y-122755000D01*
X115465000Y-124855000D01*
X115465000Y-124855000D01*
G37*
G36*
X140246590Y-120273015D02*
X140280190Y-120283420D01*
X140300000Y-120285000D01*
X141105000Y-120285000D01*
X141105000Y-122385000D01*
X140145573Y-122385000D01*
X140133410Y-122376985D01*
X140099810Y-122366580D01*
X140080000Y-122365000D01*
X139275000Y-122365000D01*
X139275000Y-120265000D01*
X140234427Y-120265000D01*
X140246590Y-120273015D01*
X140246590Y-120273015D01*
G37*
G36*
X134176041Y-119800794D02*
X134406569Y-119848115D01*
X134623512Y-119939309D01*
X134818616Y-120070908D01*
X134984437Y-120237890D01*
X135114669Y-120433906D01*
X135204348Y-120651484D01*
X135249886Y-120881465D01*
X135249886Y-120881498D01*
X135250051Y-120882334D01*
X135246298Y-121151128D01*
X135246107Y-121151967D01*
X135246107Y-121151988D01*
X135194165Y-121380616D01*
X135098447Y-121595601D01*
X134962795Y-121787901D01*
X134792372Y-121950191D01*
X134593673Y-122076290D01*
X134374265Y-122161393D01*
X134142511Y-122202257D01*
X133907225Y-122197329D01*
X133677383Y-122146795D01*
X133461735Y-122052580D01*
X133268487Y-121918269D01*
X133105016Y-121748991D01*
X132977530Y-121551171D01*
X132890899Y-121332366D01*
X132848417Y-121100903D01*
X132851703Y-120865586D01*
X132900630Y-120635402D01*
X132993340Y-120419095D01*
X133126294Y-120224920D01*
X133294433Y-120060266D01*
X133491353Y-119931406D01*
X133709549Y-119843248D01*
X133940714Y-119799152D01*
X134176041Y-119800794D01*
X134176041Y-119800794D01*
G37*
G36*
X127676041Y-119800794D02*
X127906569Y-119848115D01*
X128123512Y-119939309D01*
X128318616Y-120070908D01*
X128484437Y-120237890D01*
X128614669Y-120433906D01*
X128704348Y-120651484D01*
X128749886Y-120881465D01*
X128749886Y-120881498D01*
X128750051Y-120882334D01*
X128746298Y-121151128D01*
X128746107Y-121151967D01*
X128746107Y-121151988D01*
X128694165Y-121380616D01*
X128598447Y-121595601D01*
X128462795Y-121787901D01*
X128292372Y-121950191D01*
X128093673Y-122076290D01*
X127874265Y-122161393D01*
X127642511Y-122202257D01*
X127407225Y-122197329D01*
X127177383Y-122146795D01*
X126961735Y-122052580D01*
X126768487Y-121918269D01*
X126605016Y-121748991D01*
X126477530Y-121551171D01*
X126390899Y-121332366D01*
X126348417Y-121100903D01*
X126351703Y-120865586D01*
X126400630Y-120635402D01*
X126493340Y-120419095D01*
X126626294Y-120224920D01*
X126794433Y-120060266D01*
X126991353Y-119931406D01*
X127209549Y-119843248D01*
X127440714Y-119799152D01*
X127676041Y-119800794D01*
X127676041Y-119800794D01*
G37*
G36*
X117186009Y-119031348D02*
X117186029Y-119031354D01*
X117186132Y-119031365D01*
X117381891Y-119091963D01*
X117562153Y-119189430D01*
X117720049Y-119320053D01*
X117849567Y-119478858D01*
X117945773Y-119659795D01*
X118005003Y-119855973D01*
X118025000Y-120059919D01*
X118025000Y-120070237D01*
X118024934Y-120079666D01*
X118024933Y-120079673D01*
X118024898Y-120084741D01*
X118002055Y-120288388D01*
X117940092Y-120483720D01*
X117841369Y-120663296D01*
X117709647Y-120820277D01*
X117549941Y-120948684D01*
X117368337Y-121043624D01*
X117171750Y-121101483D01*
X117171666Y-121101491D01*
X117171641Y-121101498D01*
X116967670Y-121120060D01*
X116763991Y-121098652D01*
X116763971Y-121098646D01*
X116763868Y-121098635D01*
X116568109Y-121038037D01*
X116387847Y-120940570D01*
X116229951Y-120809947D01*
X116100433Y-120651142D01*
X116004227Y-120470205D01*
X115944997Y-120274027D01*
X115925000Y-120070081D01*
X115925000Y-120059763D01*
X115925066Y-120050334D01*
X115925067Y-120050327D01*
X115925102Y-120045259D01*
X115947945Y-119841612D01*
X116009908Y-119646280D01*
X116108631Y-119466704D01*
X116240353Y-119309723D01*
X116400059Y-119181316D01*
X116581663Y-119086376D01*
X116778250Y-119028517D01*
X116778334Y-119028509D01*
X116778359Y-119028502D01*
X116982330Y-119009940D01*
X117186009Y-119031348D01*
X117186009Y-119031348D01*
G37*
G36*
X115485000Y-121115000D02*
X113385000Y-121115000D01*
X113385000Y-119015000D01*
X115485000Y-119015000D01*
X115485000Y-121115000D01*
X115485000Y-121115000D01*
G37*
G36*
X141925000Y-119650000D02*
X139825000Y-119650000D01*
X139825000Y-118750000D01*
X141925000Y-118750000D01*
X141925000Y-119650000D01*
X141925000Y-119650000D01*
G37*
G36*
X115735000Y-118235000D02*
X114035000Y-118235000D01*
X114035000Y-115125000D01*
X115735000Y-115125000D01*
X115735000Y-118235000D01*
X115735000Y-118235000D01*
G37*
G36*
X127676041Y-115300794D02*
X127906569Y-115348115D01*
X128123512Y-115439309D01*
X128318616Y-115570908D01*
X128484437Y-115737890D01*
X128614669Y-115933906D01*
X128704348Y-116151484D01*
X128749886Y-116381465D01*
X128749886Y-116381498D01*
X128750051Y-116382334D01*
X128746298Y-116651128D01*
X128746107Y-116651967D01*
X128746107Y-116651988D01*
X128694165Y-116880616D01*
X128598447Y-117095601D01*
X128462795Y-117287901D01*
X128292372Y-117450191D01*
X128093673Y-117576290D01*
X127874265Y-117661393D01*
X127642511Y-117702257D01*
X127407225Y-117697329D01*
X127177383Y-117646795D01*
X126961735Y-117552580D01*
X126768487Y-117418269D01*
X126605016Y-117248991D01*
X126477530Y-117051171D01*
X126390899Y-116832366D01*
X126348417Y-116600903D01*
X126351703Y-116365586D01*
X126400630Y-116135402D01*
X126493340Y-115919095D01*
X126626294Y-115724920D01*
X126794433Y-115560266D01*
X126991353Y-115431406D01*
X127209549Y-115343248D01*
X127440714Y-115299152D01*
X127676041Y-115300794D01*
X127676041Y-115300794D01*
G37*
G36*
X134176041Y-115300794D02*
X134406569Y-115348115D01*
X134623512Y-115439309D01*
X134818616Y-115570908D01*
X134984437Y-115737890D01*
X135114669Y-115933906D01*
X135204348Y-116151484D01*
X135249886Y-116381465D01*
X135249886Y-116381498D01*
X135250051Y-116382334D01*
X135246298Y-116651128D01*
X135246107Y-116651967D01*
X135246107Y-116651988D01*
X135194165Y-116880616D01*
X135098447Y-117095601D01*
X134962795Y-117287901D01*
X134792372Y-117450191D01*
X134593673Y-117576290D01*
X134374265Y-117661393D01*
X134142511Y-117702257D01*
X133907225Y-117697329D01*
X133677383Y-117646795D01*
X133461735Y-117552580D01*
X133268487Y-117418269D01*
X133105016Y-117248991D01*
X132977530Y-117051171D01*
X132890899Y-116832366D01*
X132848417Y-116600903D01*
X132851703Y-116365586D01*
X132900630Y-116135402D01*
X132993340Y-115919095D01*
X133126294Y-115724920D01*
X133294433Y-115560266D01*
X133491353Y-115431406D01*
X133709549Y-115343248D01*
X133940714Y-115299152D01*
X134176041Y-115300794D01*
X134176041Y-115300794D01*
G37*
G36*
X123550000Y-116450000D02*
X121450000Y-116450000D01*
X121450000Y-114350000D01*
X123550000Y-114350000D01*
X123550000Y-116450000D01*
X123550000Y-116450000D01*
G37*
G36*
X117206009Y-112211348D02*
X117206029Y-112211354D01*
X117206132Y-112211365D01*
X117401891Y-112271963D01*
X117582153Y-112369430D01*
X117740049Y-112500053D01*
X117869567Y-112658858D01*
X117965773Y-112839795D01*
X118025003Y-113035973D01*
X118045000Y-113239919D01*
X118045000Y-113250237D01*
X118044934Y-113259666D01*
X118044933Y-113259673D01*
X118044898Y-113264741D01*
X118022055Y-113468388D01*
X117960092Y-113663720D01*
X117861369Y-113843296D01*
X117729647Y-114000277D01*
X117569941Y-114128684D01*
X117388337Y-114223624D01*
X117191750Y-114281483D01*
X117191666Y-114281491D01*
X117191641Y-114281498D01*
X116987670Y-114300060D01*
X116783991Y-114278652D01*
X116783971Y-114278646D01*
X116783868Y-114278635D01*
X116588109Y-114218037D01*
X116407847Y-114120570D01*
X116249951Y-113989947D01*
X116120433Y-113831142D01*
X116024227Y-113650205D01*
X115964997Y-113454027D01*
X115945000Y-113250081D01*
X115945000Y-113239763D01*
X115945066Y-113230334D01*
X115945067Y-113230327D01*
X115945102Y-113225259D01*
X115967945Y-113021612D01*
X116029908Y-112826280D01*
X116128631Y-112646704D01*
X116260353Y-112489723D01*
X116420059Y-112361316D01*
X116601663Y-112266376D01*
X116798250Y-112208517D01*
X116798334Y-112208509D01*
X116798359Y-112208502D01*
X117002330Y-112189940D01*
X117206009Y-112211348D01*
X117206009Y-112211348D01*
G37*
G36*
X115505000Y-114295000D02*
X113405000Y-114295000D01*
X113405000Y-112195000D01*
X115505000Y-112195000D01*
X115505000Y-114295000D01*
X115505000Y-114295000D01*
G37*
G36*
X122514666Y-111810066D02*
X122514673Y-111810067D01*
X122519741Y-111810102D01*
X122723388Y-111832945D01*
X122918720Y-111894908D01*
X123098296Y-111993631D01*
X123255277Y-112125353D01*
X123383684Y-112285059D01*
X123478624Y-112466663D01*
X123536483Y-112663250D01*
X123536491Y-112663334D01*
X123536498Y-112663359D01*
X123555060Y-112867330D01*
X123533652Y-113071009D01*
X123533646Y-113071029D01*
X123533635Y-113071132D01*
X123473037Y-113266891D01*
X123375570Y-113447153D01*
X123244947Y-113605049D01*
X123086142Y-113734567D01*
X122905205Y-113830773D01*
X122709027Y-113890003D01*
X122505081Y-113910000D01*
X122494763Y-113910000D01*
X122485334Y-113909934D01*
X122485327Y-113909933D01*
X122480259Y-113909898D01*
X122276612Y-113887055D01*
X122081280Y-113825092D01*
X121901704Y-113726369D01*
X121744723Y-113594647D01*
X121616316Y-113434941D01*
X121521376Y-113253337D01*
X121463517Y-113056750D01*
X121463509Y-113056666D01*
X121463502Y-113056641D01*
X121444940Y-112852670D01*
X121466348Y-112648991D01*
X121466354Y-112648971D01*
X121466365Y-112648868D01*
X121526963Y-112453109D01*
X121624430Y-112272847D01*
X121755053Y-112114951D01*
X121913858Y-111985433D01*
X122094795Y-111889227D01*
X122290973Y-111829997D01*
X122494919Y-111810000D01*
X122505237Y-111810000D01*
X122514666Y-111810066D01*
X122514666Y-111810066D01*
G37*
G36*
X129201009Y-111766348D02*
X129201029Y-111766354D01*
X129201132Y-111766365D01*
X129396891Y-111826963D01*
X129577153Y-111924430D01*
X129735049Y-112055053D01*
X129864567Y-112213858D01*
X129960773Y-112394795D01*
X130020003Y-112590973D01*
X130040000Y-112794919D01*
X130040000Y-112805237D01*
X130039934Y-112814666D01*
X130039933Y-112814673D01*
X130039898Y-112819741D01*
X130017055Y-113023388D01*
X129955092Y-113218720D01*
X129856369Y-113398296D01*
X129724647Y-113555277D01*
X129564941Y-113683684D01*
X129383337Y-113778624D01*
X129186750Y-113836483D01*
X129186666Y-113836491D01*
X129186641Y-113836498D01*
X128982670Y-113855060D01*
X128778991Y-113833652D01*
X128778971Y-113833646D01*
X128778868Y-113833635D01*
X128583109Y-113773037D01*
X128402847Y-113675570D01*
X128244951Y-113544947D01*
X128115433Y-113386142D01*
X128019227Y-113205205D01*
X127959997Y-113009027D01*
X127940000Y-112805081D01*
X127940000Y-112794763D01*
X127940066Y-112785334D01*
X127940067Y-112785327D01*
X127940102Y-112780259D01*
X127962945Y-112576612D01*
X128024908Y-112381280D01*
X128123631Y-112201704D01*
X128255353Y-112044723D01*
X128415059Y-111916316D01*
X128596663Y-111821376D01*
X128793250Y-111763517D01*
X128793334Y-111763509D01*
X128793359Y-111763502D01*
X128997330Y-111744940D01*
X129201009Y-111766348D01*
X129201009Y-111766348D01*
G37*
G36*
X136821009Y-111766348D02*
X136821029Y-111766354D01*
X136821132Y-111766365D01*
X137016891Y-111826963D01*
X137197153Y-111924430D01*
X137355049Y-112055053D01*
X137484567Y-112213858D01*
X137580773Y-112394795D01*
X137640003Y-112590973D01*
X137660000Y-112794919D01*
X137660000Y-112805237D01*
X137659934Y-112814666D01*
X137659933Y-112814673D01*
X137659898Y-112819741D01*
X137637055Y-113023388D01*
X137575092Y-113218720D01*
X137476369Y-113398296D01*
X137344647Y-113555277D01*
X137184941Y-113683684D01*
X137003337Y-113778624D01*
X136806750Y-113836483D01*
X136806666Y-113836491D01*
X136806641Y-113836498D01*
X136602670Y-113855060D01*
X136398991Y-113833652D01*
X136398971Y-113833646D01*
X136398868Y-113833635D01*
X136203109Y-113773037D01*
X136022847Y-113675570D01*
X135864951Y-113544947D01*
X135735433Y-113386142D01*
X135639227Y-113205205D01*
X135579997Y-113009027D01*
X135560000Y-112805081D01*
X135560000Y-112794763D01*
X135560066Y-112785334D01*
X135560067Y-112785327D01*
X135560102Y-112780259D01*
X135582945Y-112576612D01*
X135644908Y-112381280D01*
X135743631Y-112201704D01*
X135875353Y-112044723D01*
X136035059Y-111916316D01*
X136216663Y-111821376D01*
X136413250Y-111763517D01*
X136413334Y-111763509D01*
X136413359Y-111763502D01*
X136617330Y-111744940D01*
X136821009Y-111766348D01*
X136821009Y-111766348D01*
G37*
G36*
X139361009Y-111766348D02*
X139361029Y-111766354D01*
X139361132Y-111766365D01*
X139556891Y-111826963D01*
X139737153Y-111924430D01*
X139895049Y-112055053D01*
X140024567Y-112213858D01*
X140120773Y-112394795D01*
X140180003Y-112590973D01*
X140200000Y-112794919D01*
X140200000Y-112805237D01*
X140199934Y-112814666D01*
X140199933Y-112814673D01*
X140199898Y-112819741D01*
X140177055Y-113023388D01*
X140115092Y-113218720D01*
X140016369Y-113398296D01*
X139884647Y-113555277D01*
X139724941Y-113683684D01*
X139543337Y-113778624D01*
X139346750Y-113836483D01*
X139346666Y-113836491D01*
X139346641Y-113836498D01*
X139142670Y-113855060D01*
X138938991Y-113833652D01*
X138938971Y-113833646D01*
X138938868Y-113833635D01*
X138743109Y-113773037D01*
X138562847Y-113675570D01*
X138404951Y-113544947D01*
X138275433Y-113386142D01*
X138179227Y-113205205D01*
X138119997Y-113009027D01*
X138100000Y-112805081D01*
X138100000Y-112794763D01*
X138100066Y-112785334D01*
X138100067Y-112785327D01*
X138100102Y-112780259D01*
X138122945Y-112576612D01*
X138184908Y-112381280D01*
X138283631Y-112201704D01*
X138415353Y-112044723D01*
X138575059Y-111916316D01*
X138756663Y-111821376D01*
X138953250Y-111763517D01*
X138953334Y-111763509D01*
X138953359Y-111763502D01*
X139157330Y-111744940D01*
X139361009Y-111766348D01*
X139361009Y-111766348D01*
G37*
G36*
X134281009Y-111766348D02*
X134281029Y-111766354D01*
X134281132Y-111766365D01*
X134476891Y-111826963D01*
X134657153Y-111924430D01*
X134815049Y-112055053D01*
X134944567Y-112213858D01*
X135040773Y-112394795D01*
X135100003Y-112590973D01*
X135120000Y-112794919D01*
X135120000Y-112805237D01*
X135119934Y-112814666D01*
X135119933Y-112814673D01*
X135119898Y-112819741D01*
X135097055Y-113023388D01*
X135035092Y-113218720D01*
X134936369Y-113398296D01*
X134804647Y-113555277D01*
X134644941Y-113683684D01*
X134463337Y-113778624D01*
X134266750Y-113836483D01*
X134266666Y-113836491D01*
X134266641Y-113836498D01*
X134062670Y-113855060D01*
X133858991Y-113833652D01*
X133858971Y-113833646D01*
X133858868Y-113833635D01*
X133663109Y-113773037D01*
X133482847Y-113675570D01*
X133324951Y-113544947D01*
X133195433Y-113386142D01*
X133099227Y-113205205D01*
X133039997Y-113009027D01*
X133020000Y-112805081D01*
X133020000Y-112794763D01*
X133020066Y-112785334D01*
X133020067Y-112785327D01*
X133020102Y-112780259D01*
X133042945Y-112576612D01*
X133104908Y-112381280D01*
X133203631Y-112201704D01*
X133335353Y-112044723D01*
X133495059Y-111916316D01*
X133676663Y-111821376D01*
X133873250Y-111763517D01*
X133873334Y-111763509D01*
X133873359Y-111763502D01*
X134077330Y-111744940D01*
X134281009Y-111766348D01*
X134281009Y-111766348D01*
G37*
G36*
X131741009Y-111766348D02*
X131741029Y-111766354D01*
X131741132Y-111766365D01*
X131936891Y-111826963D01*
X132117153Y-111924430D01*
X132275049Y-112055053D01*
X132404567Y-112213858D01*
X132500773Y-112394795D01*
X132560003Y-112590973D01*
X132580000Y-112794919D01*
X132580000Y-112805237D01*
X132579934Y-112814666D01*
X132579933Y-112814673D01*
X132579898Y-112819741D01*
X132557055Y-113023388D01*
X132495092Y-113218720D01*
X132396369Y-113398296D01*
X132264647Y-113555277D01*
X132104941Y-113683684D01*
X131923337Y-113778624D01*
X131726750Y-113836483D01*
X131726666Y-113836491D01*
X131726641Y-113836498D01*
X131522670Y-113855060D01*
X131318991Y-113833652D01*
X131318971Y-113833646D01*
X131318868Y-113833635D01*
X131123109Y-113773037D01*
X130942847Y-113675570D01*
X130784951Y-113544947D01*
X130655433Y-113386142D01*
X130559227Y-113205205D01*
X130499997Y-113009027D01*
X130480000Y-112805081D01*
X130480000Y-112794763D01*
X130480066Y-112785334D01*
X130480067Y-112785327D01*
X130480102Y-112780259D01*
X130502945Y-112576612D01*
X130564908Y-112381280D01*
X130663631Y-112201704D01*
X130795353Y-112044723D01*
X130955059Y-111916316D01*
X131136663Y-111821376D01*
X131333250Y-111763517D01*
X131333334Y-111763509D01*
X131333359Y-111763502D01*
X131537330Y-111744940D01*
X131741009Y-111766348D01*
X131741009Y-111766348D01*
G37*
G36*
X127500000Y-113850000D02*
X125400000Y-113850000D01*
X125400000Y-111750000D01*
X127500000Y-111750000D01*
X127500000Y-113850000D01*
X127500000Y-113850000D01*
G37*
M02*
