%TF.GenerationSoftware,KiCad,Pcbnew,4.0.7*%
%TF.CreationDate,2019-04-11T13:09:23-05:00*%
%TF.ProjectId,GolfGloveMainBoardV1.0.0,476F6C66476C6F76654D61696E426F61,rev?*%
%TF.FileFunction,Copper,L3,Inr,Signal*%
%FSLAX46Y46*%
G04 Gerber Fmt 4.6, Leading zero omitted, Abs format (unit mm)*
G04 Created by KiCad (PCBNEW 4.0.7) date 04/11/19 13:09:23*
%MOMM*%
%LPD*%
G01*
G04 APERTURE LIST*
%ADD10C,0.100000*%
%ADD11C,0.150000*%
%ADD12O,1.400000X0.800000*%
%ADD13C,0.650000*%
%ADD14C,0.600000*%
%ADD15R,1.700000X1.700000*%
%ADD16O,1.700000X1.700000*%
%ADD17C,2.000000*%
%ADD18C,0.450000*%
%ADD19C,0.250000*%
%ADD20C,0.300000*%
%ADD21C,0.254000*%
G04 APERTURE END LIST*
D10*
D11*
X148925000Y-151345000D02*
X148925000Y-151355000D01*
X112365000Y-151345000D02*
X148925000Y-151345000D01*
X112365000Y-136675000D02*
X112365000Y-151345000D01*
X99805000Y-136675000D02*
X112365000Y-136675000D01*
X99805000Y-139585000D02*
X99805000Y-136675000D01*
X93605000Y-139585000D02*
X99805000Y-139585000D01*
X93605000Y-122935000D02*
X93605000Y-139585000D01*
X99805000Y-122935000D02*
X93605000Y-122935000D01*
X99805000Y-125835000D02*
X99805000Y-122935000D01*
X112375000Y-125835000D02*
X99805000Y-125835000D01*
X112375000Y-111355000D02*
X112375000Y-125835000D01*
X148925000Y-111355000D02*
X112375000Y-111355000D01*
X148925000Y-151345000D02*
X148925000Y-111355000D01*
D12*
X102870000Y-135390000D03*
X102870000Y-127130000D03*
X108820000Y-126770000D03*
X108820000Y-135750000D03*
D13*
X102270000Y-128460000D03*
X102270000Y-130060000D03*
X102270000Y-130860000D03*
X102270000Y-131660000D03*
X102270000Y-132460000D03*
X102270000Y-134060000D03*
X102970000Y-128860000D03*
X102970000Y-129660000D03*
X102970000Y-130460000D03*
X102970000Y-132060000D03*
X102970000Y-132860000D03*
X102970000Y-133660000D03*
D14*
X148275000Y-120875000D03*
X147325000Y-128275000D03*
X143275000Y-121425000D03*
X146325000Y-124075000D03*
X144475000Y-128675000D03*
X113225000Y-130925000D03*
X147725000Y-146925000D03*
X148075000Y-129925000D03*
X146025000Y-129575000D03*
X145375000Y-130225000D03*
X141225000Y-113425000D03*
X141225000Y-115425000D03*
X141225000Y-112425000D03*
X145725000Y-127325000D03*
X148175000Y-128475000D03*
X144725000Y-122925000D03*
X146325000Y-126775000D03*
X143725000Y-122925000D03*
X145225000Y-123925000D03*
X141225000Y-114425000D03*
X144225000Y-123925000D03*
X146325000Y-125875000D03*
X148025000Y-123725000D03*
X148025000Y-122775000D03*
X145225000Y-121925000D03*
X145225000Y-120925000D03*
X144225000Y-120925000D03*
X147475000Y-129175000D03*
X148225000Y-121775000D03*
X146225000Y-121925000D03*
X144225000Y-121925000D03*
X143225000Y-120425000D03*
X148025000Y-126525000D03*
X148025000Y-124675000D03*
X146225000Y-120925000D03*
X142225000Y-113925000D03*
X142225000Y-117925000D03*
X147925000Y-127525000D03*
X148025000Y-125625000D03*
X142225000Y-118925000D03*
X143225000Y-119425000D03*
X142225000Y-115925000D03*
X146325000Y-124975000D03*
X142225000Y-116925000D03*
X142225000Y-111925000D03*
X142225000Y-112925000D03*
X143225000Y-112425000D03*
X143225000Y-113425000D03*
X143225000Y-114425000D03*
X143225000Y-115425000D03*
X143225000Y-116425000D03*
X143225000Y-117425000D03*
X143225000Y-118425000D03*
X142225000Y-114925000D03*
D15*
X97980000Y-124760000D03*
D16*
X95440000Y-124760000D03*
D12*
X119485000Y-127120000D03*
X119485000Y-135380000D03*
X113535000Y-135740000D03*
X113535000Y-126760000D03*
D13*
X120085000Y-134050000D03*
X120085000Y-132450000D03*
X120085000Y-131650000D03*
X120085000Y-130850000D03*
X120085000Y-130050000D03*
X120085000Y-128450000D03*
X119385000Y-133650000D03*
X119385000Y-132850000D03*
X119385000Y-132050000D03*
X119385000Y-130450000D03*
X119385000Y-129650000D03*
X119385000Y-128850000D03*
D15*
X126450000Y-112800000D03*
D16*
X128990000Y-112800000D03*
X131530000Y-112800000D03*
X134070000Y-112800000D03*
X136610000Y-112800000D03*
X139150000Y-112800000D03*
D15*
X114415000Y-123805000D03*
D16*
X116955000Y-123805000D03*
D15*
X114555000Y-149435000D03*
D16*
X117095000Y-149435000D03*
D15*
X114435000Y-120065000D03*
D16*
X116975000Y-120065000D03*
D15*
X114455000Y-113245000D03*
D16*
X116995000Y-113245000D03*
D15*
X97980000Y-137760000D03*
D16*
X95440000Y-137760000D03*
D15*
X122500000Y-115400000D03*
D16*
X122500000Y-112860000D03*
D17*
X127550000Y-121000000D03*
X127550000Y-116500000D03*
X134050000Y-121000000D03*
X134050000Y-116500000D03*
D15*
X145600000Y-147000000D03*
D16*
X145600000Y-149540000D03*
D15*
X139350000Y-146800000D03*
D16*
X139350000Y-149340000D03*
D15*
X132900000Y-147000000D03*
D16*
X132900000Y-149540000D03*
D17*
X113750000Y-145350000D03*
X113750000Y-140850000D03*
X120250000Y-145350000D03*
X120250000Y-140850000D03*
D18*
X128950000Y-144800000D03*
D14*
X143975000Y-127900000D03*
X142900000Y-134300000D03*
X148085000Y-134585000D03*
X140200000Y-120050000D03*
X142145000Y-139705000D03*
X139595000Y-140060000D03*
X128355000Y-137245000D03*
X129255000Y-141275000D03*
X116025000Y-116695000D03*
X134365000Y-129455000D03*
X134465000Y-138755000D03*
X125175000Y-133745000D03*
X142850000Y-143750000D03*
X135335000Y-139475000D03*
D18*
X122500000Y-131600000D03*
X126500000Y-146600000D03*
X125200000Y-137850000D03*
D14*
X127425000Y-134315000D03*
X130475000Y-133215000D03*
X143605000Y-135905000D03*
X133895000Y-131045000D03*
X127225000Y-128515000D03*
X140450000Y-126350000D03*
X146475000Y-133175000D03*
X141435000Y-136695000D03*
D18*
X134500000Y-126300000D03*
X135000000Y-128800000D03*
X98700000Y-126300000D03*
X97600000Y-133900000D03*
X135600000Y-123350000D03*
X134200000Y-122950000D03*
X137550000Y-123350000D03*
D14*
X141115000Y-127885000D03*
D18*
X137550000Y-122650000D03*
D14*
X141885000Y-128025000D03*
X146365000Y-131025000D03*
X143675000Y-132000000D03*
X143475000Y-125750000D03*
X142025000Y-120325000D03*
X143175000Y-127955000D03*
X145625000Y-131750000D03*
X141975000Y-123850000D03*
X142600000Y-129325000D03*
X142775000Y-124325000D03*
D18*
X125700000Y-126200000D03*
D14*
X131815000Y-132255000D03*
X136845000Y-140035000D03*
D18*
X123400000Y-130150000D03*
D14*
X129985000Y-132605000D03*
X129905000Y-135175000D03*
D18*
X122450000Y-141500000D03*
X130700000Y-143500000D03*
X129000000Y-143300000D03*
D14*
X132565000Y-134825000D03*
X131355000Y-135245000D03*
X129300000Y-129950000D03*
X132595000Y-133635000D03*
D18*
X137350000Y-114100000D03*
X138700000Y-115450000D03*
X139800000Y-115000000D03*
X138050000Y-116700000D03*
X118950000Y-136250000D03*
X120150000Y-136600000D03*
X133450000Y-131850000D03*
X94300000Y-134150000D03*
X96350000Y-128650000D03*
D14*
X143775000Y-133850000D03*
X128895000Y-135875000D03*
D18*
X123400000Y-139000000D03*
X104750000Y-134900000D03*
X98950000Y-133150000D03*
X100100000Y-133150000D03*
X99650000Y-131300000D03*
X99500000Y-125050000D03*
X100150000Y-130800000D03*
X99200000Y-129800000D03*
X100450000Y-127200000D03*
X122650000Y-129150000D03*
X140500000Y-135300000D03*
X101700000Y-133350000D03*
X132900000Y-132300000D03*
X135350000Y-133700000D03*
X135900000Y-135050000D03*
X138700000Y-135850000D03*
D14*
X139500000Y-135800000D03*
D18*
X123200000Y-120600000D03*
X136250000Y-133600000D03*
D14*
X135485000Y-130915000D03*
X119115000Y-117095000D03*
D18*
X95500000Y-133800000D03*
X96500000Y-134400000D03*
X139750000Y-135150000D03*
X141600000Y-134900000D03*
X141650000Y-143050000D03*
X116300000Y-131600000D03*
X120900000Y-126500000D03*
X122400000Y-130550000D03*
X117400000Y-131500000D03*
D19*
X29050000Y-55850000D02*
X29050000Y-55875000D01*
X123500000Y-93650000D02*
X123450000Y-93650000D01*
D11*
X122155000Y-129245000D02*
X122145000Y-129235000D01*
X121285000Y-120345000D02*
X121285000Y-119625000D01*
X121275000Y-120355000D02*
X121285000Y-120345000D01*
X148065000Y-134605000D02*
X148065000Y-134615000D01*
X148085000Y-134585000D02*
X148065000Y-134605000D01*
D20*
X124300000Y-128500000D02*
X123382500Y-127582500D01*
X124300000Y-130600000D02*
X124300000Y-128500000D01*
X123900000Y-131000000D02*
X124300000Y-130600000D01*
X123100000Y-131000000D02*
X123900000Y-131000000D01*
X122500000Y-131600000D02*
X123100000Y-131000000D01*
X117300000Y-130000000D02*
X117900000Y-130000000D01*
X117300000Y-124150000D02*
X117300000Y-130000000D01*
X118350000Y-130450000D02*
X119385000Y-130450000D01*
X117900000Y-130000000D02*
X118350000Y-130450000D01*
X126500000Y-143825000D02*
X126300000Y-144025000D01*
X126500000Y-146600000D02*
X126500000Y-143825000D01*
X126300000Y-144025000D02*
X126300000Y-144100000D01*
X126300000Y-144100000D02*
X126300000Y-144025000D01*
X117300000Y-124150000D02*
X116955000Y-123805000D01*
X125550000Y-137800000D02*
X125975000Y-137375000D01*
X125250000Y-137800000D02*
X125550000Y-137800000D01*
X125200000Y-137850000D02*
X125250000Y-137800000D01*
X139900000Y-132000000D02*
X139900000Y-133450000D01*
X137800000Y-135550000D02*
X137800000Y-136695000D01*
X139900000Y-133450000D02*
X137800000Y-135550000D01*
X143605000Y-135905000D02*
X145895000Y-135905000D01*
X146550000Y-133250000D02*
X146475000Y-133175000D01*
X146550000Y-135250000D02*
X146550000Y-133250000D01*
X145895000Y-135905000D02*
X146550000Y-135250000D01*
X142815000Y-136695000D02*
X143605000Y-135905000D01*
X130325000Y-127475000D02*
X128265000Y-127475000D01*
X128265000Y-127475000D02*
X127225000Y-128515000D01*
X127225000Y-128515000D02*
X126292500Y-127582500D01*
X134225000Y-131375000D02*
X133895000Y-131045000D01*
X134225000Y-134500000D02*
X134225000Y-131375000D01*
X133895000Y-131045000D02*
X131705000Y-131045000D01*
X131705000Y-131045000D02*
X130925000Y-131825000D01*
X130925000Y-131825000D02*
X130925000Y-132765000D01*
X130925000Y-132765000D02*
X130475000Y-133215000D01*
X130475000Y-133215000D02*
X130475000Y-135375000D01*
X130475000Y-135375000D02*
X129362500Y-136487500D01*
X126787500Y-136487500D02*
X129362500Y-136487500D01*
X125975000Y-140875000D02*
X125975000Y-137375000D01*
X125975000Y-137375000D02*
X125975000Y-137300000D01*
X125975000Y-137300000D02*
X126787500Y-136487500D01*
X126787500Y-136487500D02*
X127425000Y-135850000D01*
X127425000Y-135850000D02*
X127425000Y-134315000D01*
X117095000Y-149435000D02*
X122190000Y-149435000D01*
X122190000Y-149435000D02*
X125350000Y-146275000D01*
X125350000Y-146275000D02*
X125350000Y-144975000D01*
X125350000Y-144975000D02*
X126300000Y-144025000D01*
X126300000Y-144025000D02*
X126800000Y-143525000D01*
X126800000Y-143525000D02*
X126800000Y-141700000D01*
X126800000Y-141700000D02*
X125975000Y-140875000D01*
X125975000Y-140875000D02*
X125955000Y-140855000D01*
D11*
X130475000Y-133215000D02*
X130475000Y-135725000D01*
X126825000Y-136750000D02*
X126525000Y-136750000D01*
X127125000Y-136450000D02*
X126825000Y-136750000D01*
X129750000Y-136450000D02*
X127125000Y-136450000D01*
X130475000Y-135725000D02*
X129750000Y-136450000D01*
X126050000Y-140950000D02*
X126050000Y-137225000D01*
X126050000Y-137225000D02*
X126525000Y-136750000D01*
X126525000Y-136750000D02*
X127425000Y-135850000D01*
X127425000Y-135850000D02*
X127425000Y-134315000D01*
X126800000Y-141700000D02*
X126050000Y-140950000D01*
X126050000Y-140950000D02*
X125955000Y-140855000D01*
X126800000Y-143525000D02*
X126800000Y-141700000D01*
X125350000Y-144975000D02*
X126800000Y-143525000D01*
X125350000Y-146275000D02*
X125350000Y-144975000D01*
X122190000Y-149435000D02*
X125350000Y-146275000D01*
D20*
X139900000Y-127275000D02*
X139900000Y-132000000D01*
D11*
X130325000Y-127475000D02*
X130350000Y-127475000D01*
D20*
X130350000Y-127475000D02*
X133895000Y-131020000D01*
D11*
X133895000Y-131020000D02*
X133895000Y-131045000D01*
X126292500Y-127582500D02*
X127225000Y-128515000D01*
X134375000Y-131525000D02*
X133895000Y-131045000D01*
X134375000Y-134650000D02*
X134375000Y-131525000D01*
D20*
X133895000Y-131045000D02*
X131705000Y-131045000D01*
D11*
X130925000Y-132765000D02*
X130475000Y-133215000D01*
X130925000Y-131825000D02*
X130925000Y-132765000D01*
X131705000Y-131045000D02*
X130925000Y-131825000D01*
X143625000Y-135925000D02*
X143625000Y-135935000D01*
X143605000Y-135905000D02*
X143625000Y-135925000D01*
X133895000Y-131045000D02*
X133875000Y-131065000D01*
D20*
X140450000Y-126350000D02*
X140445000Y-126730000D01*
X140445000Y-126730000D02*
X139900000Y-127275000D01*
X116995000Y-113245000D02*
X118945000Y-113245000D01*
X118945000Y-113245000D02*
X120975000Y-115275000D01*
X120975000Y-115275000D02*
X130150000Y-115275000D01*
X130150000Y-115275000D02*
X136625000Y-121750000D01*
X136625000Y-121750000D02*
X138025000Y-121750000D01*
X122307500Y-127582500D02*
X122307500Y-126257500D01*
X122307500Y-126257500D02*
X119855000Y-123805000D01*
X119855000Y-123805000D02*
X116955000Y-123805000D01*
X116955000Y-123805000D02*
X116995000Y-123765000D01*
X116995000Y-123765000D02*
X116995000Y-113245000D01*
X126292500Y-127582500D02*
X124400000Y-127582500D01*
X124400000Y-127582500D02*
X123382500Y-127582500D01*
X123382500Y-127582500D02*
X122307500Y-127582500D01*
X140445000Y-124170000D02*
X140450000Y-126350000D01*
X138025000Y-121750000D02*
X140445000Y-124170000D01*
D11*
X136625000Y-121750000D02*
X138025000Y-121750000D01*
X130150000Y-115275000D02*
X136625000Y-121750000D01*
X120975000Y-115275000D02*
X130150000Y-115275000D01*
X118945000Y-113245000D02*
X120975000Y-115275000D01*
X116975000Y-120065000D02*
X116975000Y-119450000D01*
X116975000Y-119450000D02*
X117950000Y-118475000D01*
X117950000Y-114200000D02*
X116995000Y-113245000D01*
X117950000Y-118475000D02*
X117950000Y-114200000D01*
X116955000Y-123805000D02*
X116955000Y-123545000D01*
X116955000Y-123545000D02*
X118125000Y-122375000D01*
X118125000Y-121215000D02*
X116975000Y-120065000D01*
X118125000Y-122375000D02*
X118125000Y-121215000D01*
D20*
X140445000Y-126730000D02*
X139900000Y-127275000D01*
D11*
X122307500Y-127582500D02*
X126292500Y-127582500D01*
X116955000Y-123805000D02*
X119855000Y-123805000D01*
X116995000Y-113245000D02*
X116995000Y-123765000D01*
X116995000Y-123765000D02*
X116955000Y-123805000D01*
X116955000Y-123805000D02*
X116955000Y-120085000D01*
X116955000Y-120085000D02*
X116995000Y-120045000D01*
X116995000Y-120045000D02*
X116995000Y-113245000D01*
X140450000Y-126350000D02*
X140470000Y-126370000D01*
D20*
X141435000Y-136695000D02*
X137800000Y-136695000D01*
X137800000Y-136695000D02*
X136370000Y-136695000D01*
X136370000Y-136695000D02*
X136112500Y-136437500D01*
X141435000Y-136695000D02*
X142815000Y-136695000D01*
X136162500Y-136437500D02*
X136112500Y-136437500D01*
X136112500Y-136437500D02*
X135912500Y-136437500D01*
X135912500Y-136437500D02*
X135725000Y-136625000D01*
X135725000Y-136625000D02*
X135725000Y-138625000D01*
X142725000Y-137985000D02*
X141435000Y-136695000D01*
X136162500Y-136487500D02*
X136162500Y-136437500D01*
X136162500Y-136437500D02*
X134225000Y-134500000D01*
X129362500Y-136487500D02*
X136162500Y-136487500D01*
X136162500Y-136487500D02*
X136200000Y-136450000D01*
D11*
X142825000Y-138085000D02*
X141435000Y-136695000D01*
X135725000Y-136925000D02*
X136200000Y-136450000D01*
X135725000Y-138475000D02*
X135725000Y-136925000D01*
X129750000Y-136450000D02*
X136200000Y-136450000D01*
X136200000Y-136450000D02*
X136445000Y-136695000D01*
X141435000Y-136695000D02*
X136445000Y-136695000D01*
X136445000Y-136695000D02*
X136420000Y-136695000D01*
X136420000Y-136695000D02*
X134375000Y-134650000D01*
X141435000Y-136695000D02*
X141445000Y-136695000D01*
D20*
X135725000Y-138625000D02*
X136325000Y-139225000D01*
X136325000Y-139225000D02*
X137350000Y-139225000D01*
X137350000Y-139225000D02*
X137675000Y-139550000D01*
X137675000Y-140325000D02*
X139745000Y-142395000D01*
X137675000Y-139550000D02*
X137675000Y-140325000D01*
X139745000Y-142395000D02*
X141455000Y-142395000D01*
X141455000Y-142395000D02*
X142725000Y-141125000D01*
X142725000Y-141125000D02*
X142725000Y-137985000D01*
D11*
X142825000Y-141025000D02*
X142825000Y-138085000D01*
X141615000Y-142235000D02*
X142825000Y-141025000D01*
X141615000Y-142395000D02*
X139745000Y-142395000D01*
X137350000Y-139225000D02*
X136475000Y-139225000D01*
X136475000Y-139225000D02*
X135725000Y-138475000D01*
X137625000Y-139500000D02*
X137350000Y-139225000D01*
X139745000Y-142395000D02*
X137625000Y-140275000D01*
X137625000Y-140275000D02*
X137625000Y-139500000D01*
X141615000Y-142395000D02*
X141605000Y-142395000D01*
X141615000Y-142395000D02*
X141615000Y-142235000D01*
D20*
X119385000Y-132050000D02*
X119350000Y-132050000D01*
D21*
G36*
X121608342Y-111992380D02*
X121342362Y-112390447D01*
X121248962Y-112860000D01*
X121342362Y-113329553D01*
X121608342Y-113727620D01*
X122006409Y-113993600D01*
X122475962Y-114087000D01*
X122524038Y-114087000D01*
X122993591Y-113993600D01*
X123391658Y-113727620D01*
X123657638Y-113329553D01*
X123706133Y-113085750D01*
X124965000Y-113085750D01*
X124965000Y-113776309D01*
X125061673Y-114009698D01*
X125240301Y-114188327D01*
X125473690Y-114285000D01*
X126164250Y-114285000D01*
X126323000Y-114126250D01*
X126323000Y-112927000D01*
X125123750Y-112927000D01*
X124965000Y-113085750D01*
X123706133Y-113085750D01*
X123751038Y-112860000D01*
X123657638Y-112390447D01*
X123391658Y-111992380D01*
X123114217Y-111807000D01*
X124971914Y-111807000D01*
X124965000Y-111823691D01*
X124965000Y-112514250D01*
X125123750Y-112673000D01*
X126323000Y-112673000D01*
X126323000Y-112653000D01*
X126577000Y-112653000D01*
X126577000Y-112673000D01*
X126597000Y-112673000D01*
X126597000Y-112927000D01*
X126577000Y-112927000D01*
X126577000Y-114126250D01*
X126735750Y-114285000D01*
X127426310Y-114285000D01*
X127659699Y-114188327D01*
X127838327Y-114009698D01*
X127935000Y-113776309D01*
X127935000Y-113411224D01*
X128122380Y-113691658D01*
X128520447Y-113957638D01*
X128990000Y-114051038D01*
X129459553Y-113957638D01*
X129857620Y-113691658D01*
X130123600Y-113293591D01*
X130217000Y-112824038D01*
X130217000Y-112775962D01*
X130123600Y-112306409D01*
X129857620Y-111908342D01*
X129705951Y-111807000D01*
X130814049Y-111807000D01*
X130662380Y-111908342D01*
X130396400Y-112306409D01*
X130303000Y-112775962D01*
X130303000Y-112824038D01*
X130396400Y-113293591D01*
X130662380Y-113691658D01*
X131060447Y-113957638D01*
X131530000Y-114051038D01*
X131999553Y-113957638D01*
X132397620Y-113691658D01*
X132663600Y-113293591D01*
X132757000Y-112824038D01*
X132757000Y-112775962D01*
X132663600Y-112306409D01*
X132397620Y-111908342D01*
X132245951Y-111807000D01*
X133354049Y-111807000D01*
X133202380Y-111908342D01*
X132936400Y-112306409D01*
X132843000Y-112775962D01*
X132843000Y-112824038D01*
X132936400Y-113293591D01*
X133202380Y-113691658D01*
X133600447Y-113957638D01*
X134070000Y-114051038D01*
X134539553Y-113957638D01*
X134937620Y-113691658D01*
X135203600Y-113293591D01*
X135297000Y-112824038D01*
X135297000Y-112775962D01*
X135203600Y-112306409D01*
X134937620Y-111908342D01*
X134785951Y-111807000D01*
X135894049Y-111807000D01*
X135742380Y-111908342D01*
X135476400Y-112306409D01*
X135383000Y-112775962D01*
X135383000Y-112824038D01*
X135476400Y-113293591D01*
X135742380Y-113691658D01*
X136140447Y-113957638D01*
X136610000Y-114051038D01*
X136748067Y-114023575D01*
X136747896Y-114219220D01*
X136839352Y-114440560D01*
X137008549Y-114610053D01*
X137229729Y-114701895D01*
X137469220Y-114702104D01*
X137690560Y-114610648D01*
X137860053Y-114441451D01*
X137951895Y-114220271D01*
X137952104Y-113980780D01*
X137860648Y-113759440D01*
X137691451Y-113589947D01*
X137577263Y-113542532D01*
X137743600Y-113293591D01*
X137837000Y-112824038D01*
X137837000Y-112775962D01*
X137743600Y-112306409D01*
X137477620Y-111908342D01*
X137325951Y-111807000D01*
X138434049Y-111807000D01*
X138282380Y-111908342D01*
X138016400Y-112306409D01*
X137923000Y-112775962D01*
X137923000Y-112824038D01*
X138016400Y-113293591D01*
X138282380Y-113691658D01*
X138680447Y-113957638D01*
X139150000Y-114051038D01*
X139619553Y-113957638D01*
X140017620Y-113691658D01*
X140283600Y-113293591D01*
X140377000Y-112824038D01*
X140377000Y-112775962D01*
X140283600Y-112306409D01*
X140017620Y-111908342D01*
X139865951Y-111807000D01*
X143948439Y-111807000D01*
X143958000Y-120335142D01*
X143966685Y-120381159D01*
X143993965Y-120423553D01*
X144035590Y-120451994D01*
X144085000Y-120462000D01*
X148473000Y-120462000D01*
X148473000Y-150893000D01*
X146145310Y-150893000D01*
X146481358Y-150735183D01*
X146871645Y-150306924D01*
X147041476Y-149896890D01*
X146920155Y-149667000D01*
X145727000Y-149667000D01*
X145727000Y-149687000D01*
X145473000Y-149687000D01*
X145473000Y-149667000D01*
X144279845Y-149667000D01*
X144158524Y-149896890D01*
X144328355Y-150306924D01*
X144718642Y-150735183D01*
X145054690Y-150893000D01*
X112817000Y-150893000D01*
X112817000Y-148585000D01*
X113320615Y-148585000D01*
X113320615Y-150285000D01*
X113346903Y-150424708D01*
X113429470Y-150553020D01*
X113555453Y-150639101D01*
X113705000Y-150669385D01*
X115405000Y-150669385D01*
X115544708Y-150643097D01*
X115673020Y-150560530D01*
X115759101Y-150434547D01*
X115789385Y-150285000D01*
X115789385Y-148585000D01*
X115763097Y-148445292D01*
X115680530Y-148316980D01*
X115554547Y-148230899D01*
X115405000Y-148200615D01*
X113705000Y-148200615D01*
X113565292Y-148226903D01*
X113436980Y-148309470D01*
X113350899Y-148435453D01*
X113320615Y-148585000D01*
X112817000Y-148585000D01*
X112817000Y-146364444D01*
X112968974Y-146516683D01*
X113474896Y-146726760D01*
X114022701Y-146727238D01*
X114528989Y-146518044D01*
X114916683Y-146131026D01*
X115126760Y-145625104D01*
X115126762Y-145622701D01*
X118872762Y-145622701D01*
X119081956Y-146128989D01*
X119468974Y-146516683D01*
X119974896Y-146726760D01*
X120522701Y-146727238D01*
X121028989Y-146518044D01*
X121416683Y-146131026D01*
X121626760Y-145625104D01*
X121627238Y-145077299D01*
X121418044Y-144571011D01*
X121031026Y-144183317D01*
X120525104Y-143973240D01*
X119977299Y-143972762D01*
X119471011Y-144181956D01*
X119083317Y-144568974D01*
X118873240Y-145074896D01*
X118872762Y-145622701D01*
X115126762Y-145622701D01*
X115127238Y-145077299D01*
X114918044Y-144571011D01*
X114531026Y-144183317D01*
X114025104Y-143973240D01*
X113477299Y-143972762D01*
X112971011Y-144181956D01*
X112817000Y-144335698D01*
X112817000Y-142110523D01*
X112875736Y-142269387D01*
X113485461Y-142495908D01*
X114135460Y-142471856D01*
X114624264Y-142269387D01*
X114722927Y-142002532D01*
X119277073Y-142002532D01*
X119375736Y-142269387D01*
X119985461Y-142495908D01*
X120635460Y-142471856D01*
X121124264Y-142269387D01*
X121222927Y-142002532D01*
X120250000Y-141029605D01*
X119277073Y-142002532D01*
X114722927Y-142002532D01*
X113750000Y-141029605D01*
X113735858Y-141043748D01*
X113556253Y-140864143D01*
X113570395Y-140850000D01*
X113929605Y-140850000D01*
X114902532Y-141822927D01*
X115169387Y-141724264D01*
X115395908Y-141114539D01*
X115376331Y-140585461D01*
X118604092Y-140585461D01*
X118628144Y-141235460D01*
X118830613Y-141724264D01*
X119097468Y-141822927D01*
X120070395Y-140850000D01*
X120429605Y-140850000D01*
X121402532Y-141822927D01*
X121669387Y-141724264D01*
X121708412Y-141619220D01*
X121847896Y-141619220D01*
X121939352Y-141840560D01*
X122108549Y-142010053D01*
X122329729Y-142101895D01*
X122569220Y-142102104D01*
X122790560Y-142010648D01*
X122960053Y-141841451D01*
X123051895Y-141620271D01*
X123052104Y-141380780D01*
X122960648Y-141159440D01*
X122791451Y-140989947D01*
X122570271Y-140898105D01*
X122330780Y-140897896D01*
X122109440Y-140989352D01*
X121939947Y-141158549D01*
X121848105Y-141379729D01*
X121847896Y-141619220D01*
X121708412Y-141619220D01*
X121895908Y-141114539D01*
X121871856Y-140464540D01*
X121669387Y-139975736D01*
X121402532Y-139877073D01*
X120429605Y-140850000D01*
X120070395Y-140850000D01*
X119097468Y-139877073D01*
X118830613Y-139975736D01*
X118604092Y-140585461D01*
X115376331Y-140585461D01*
X115371856Y-140464540D01*
X115169387Y-139975736D01*
X114902532Y-139877073D01*
X113929605Y-140850000D01*
X113570395Y-140850000D01*
X113556253Y-140835858D01*
X113735858Y-140656253D01*
X113750000Y-140670395D01*
X114722927Y-139697468D01*
X119277073Y-139697468D01*
X120250000Y-140670395D01*
X121222927Y-139697468D01*
X121124264Y-139430613D01*
X120514539Y-139204092D01*
X119864540Y-139228144D01*
X119375736Y-139430613D01*
X119277073Y-139697468D01*
X114722927Y-139697468D01*
X114624264Y-139430613D01*
X114014539Y-139204092D01*
X113364540Y-139228144D01*
X112875736Y-139430613D01*
X112817000Y-139589477D01*
X112817000Y-139119220D01*
X122797896Y-139119220D01*
X122889352Y-139340560D01*
X123058549Y-139510053D01*
X123279729Y-139601895D01*
X123519220Y-139602104D01*
X123740560Y-139510648D01*
X123910053Y-139341451D01*
X124001895Y-139120271D01*
X124002104Y-138880780D01*
X123910648Y-138659440D01*
X123741451Y-138489947D01*
X123520271Y-138398105D01*
X123280780Y-138397896D01*
X123059440Y-138489352D01*
X122889947Y-138658549D01*
X122798105Y-138879729D01*
X122797896Y-139119220D01*
X112817000Y-139119220D01*
X112817000Y-136679068D01*
X113108000Y-136775000D01*
X113408000Y-136775000D01*
X113408000Y-135867000D01*
X113662000Y-135867000D01*
X113662000Y-136775000D01*
X113962000Y-136775000D01*
X114348410Y-136647615D01*
X114656658Y-136382053D01*
X114829666Y-136026123D01*
X114701998Y-135867000D01*
X113662000Y-135867000D01*
X113408000Y-135867000D01*
X113388000Y-135867000D01*
X113388000Y-135613000D01*
X113408000Y-135613000D01*
X113408000Y-134705000D01*
X113662000Y-134705000D01*
X113662000Y-135613000D01*
X114701998Y-135613000D01*
X114829666Y-135453877D01*
X114656658Y-135097947D01*
X114348410Y-134832385D01*
X113962000Y-134705000D01*
X113662000Y-134705000D01*
X113408000Y-134705000D01*
X113108000Y-134705000D01*
X112721590Y-134832385D01*
X112502000Y-135021566D01*
X112502000Y-131719220D01*
X115697896Y-131719220D01*
X115789352Y-131940560D01*
X115958549Y-132110053D01*
X116179729Y-132201895D01*
X116419220Y-132202104D01*
X116640560Y-132110648D01*
X116810053Y-131941451D01*
X116870695Y-131795408D01*
X116889352Y-131840560D01*
X117058549Y-132010053D01*
X117279729Y-132101895D01*
X117519220Y-132102104D01*
X117740560Y-132010648D01*
X117910053Y-131841451D01*
X118001895Y-131620271D01*
X118002104Y-131380780D01*
X117910648Y-131159440D01*
X117741451Y-130989947D01*
X117520271Y-130898105D01*
X117280780Y-130897896D01*
X117059440Y-130989352D01*
X116889947Y-131158549D01*
X116829305Y-131304592D01*
X116810648Y-131259440D01*
X116641451Y-131089947D01*
X116420271Y-130998105D01*
X116180780Y-130997896D01*
X115959440Y-131089352D01*
X115789947Y-131258549D01*
X115698105Y-131479729D01*
X115697896Y-131719220D01*
X112502000Y-131719220D01*
X112502000Y-127478434D01*
X112721590Y-127667615D01*
X113108000Y-127795000D01*
X113408000Y-127795000D01*
X113408000Y-126887000D01*
X113662000Y-126887000D01*
X113662000Y-127795000D01*
X113962000Y-127795000D01*
X114348410Y-127667615D01*
X114656658Y-127402053D01*
X114829666Y-127046123D01*
X114701998Y-126887000D01*
X113662000Y-126887000D01*
X113408000Y-126887000D01*
X113388000Y-126887000D01*
X113388000Y-126633000D01*
X113408000Y-126633000D01*
X113408000Y-125725000D01*
X113662000Y-125725000D01*
X113662000Y-126633000D01*
X114701998Y-126633000D01*
X114829666Y-126473877D01*
X114656658Y-126117947D01*
X114348410Y-125852385D01*
X113962000Y-125725000D01*
X113662000Y-125725000D01*
X113408000Y-125725000D01*
X113108000Y-125725000D01*
X112827000Y-125817635D01*
X112827000Y-122955000D01*
X113180615Y-122955000D01*
X113180615Y-124655000D01*
X113206903Y-124794708D01*
X113289470Y-124923020D01*
X113415453Y-125009101D01*
X113565000Y-125039385D01*
X115265000Y-125039385D01*
X115404708Y-125013097D01*
X115533020Y-124930530D01*
X115619101Y-124804547D01*
X115649385Y-124655000D01*
X115649385Y-123780962D01*
X115728000Y-123780962D01*
X115728000Y-123829038D01*
X115821400Y-124298591D01*
X116087380Y-124696658D01*
X116485447Y-124962638D01*
X116773000Y-125019836D01*
X116773000Y-130000000D01*
X116813115Y-130201674D01*
X116927355Y-130372645D01*
X117098326Y-130486885D01*
X117300000Y-130527000D01*
X117681710Y-130527000D01*
X117977355Y-130822645D01*
X118148325Y-130936885D01*
X118350000Y-130977000D01*
X118919168Y-130977000D01*
X118986830Y-131044780D01*
X119244751Y-131151878D01*
X119450242Y-131152058D01*
X119489526Y-131247132D01*
X119492221Y-131249832D01*
X119490220Y-131251830D01*
X119450263Y-131348056D01*
X119245976Y-131347878D01*
X118987868Y-131454526D01*
X118790220Y-131651830D01*
X118683122Y-131909751D01*
X118682878Y-132189024D01*
X118789526Y-132447132D01*
X118792221Y-132449832D01*
X118790220Y-132451830D01*
X118683122Y-132709751D01*
X118682878Y-132989024D01*
X118789526Y-133247132D01*
X118792221Y-133249832D01*
X118790220Y-133251830D01*
X118683122Y-133509751D01*
X118682878Y-133789024D01*
X118789526Y-134047132D01*
X118986830Y-134244780D01*
X119144742Y-134310351D01*
X119146283Y-134327262D01*
X119153630Y-134345000D01*
X119058000Y-134345000D01*
X118671590Y-134472385D01*
X118363342Y-134737947D01*
X118190334Y-135093877D01*
X118318002Y-135253000D01*
X119358000Y-135253000D01*
X119358000Y-135233000D01*
X119612000Y-135233000D01*
X119612000Y-135253000D01*
X119632000Y-135253000D01*
X119632000Y-135507000D01*
X119612000Y-135507000D01*
X119612000Y-135527000D01*
X119358000Y-135527000D01*
X119358000Y-135507000D01*
X118318002Y-135507000D01*
X118190334Y-135666123D01*
X118363342Y-136022053D01*
X118385050Y-136040755D01*
X118348105Y-136129729D01*
X118347896Y-136369220D01*
X118439352Y-136590560D01*
X118608549Y-136760053D01*
X118829729Y-136851895D01*
X119069220Y-136852104D01*
X119290560Y-136760648D01*
X119460053Y-136591451D01*
X119533322Y-136415000D01*
X119574983Y-136415000D01*
X119548105Y-136479729D01*
X119547896Y-136719220D01*
X119639352Y-136940560D01*
X119808549Y-137110053D01*
X120029729Y-137201895D01*
X120269220Y-137202104D01*
X120490560Y-137110648D01*
X120660053Y-136941451D01*
X120751895Y-136720271D01*
X120752104Y-136480780D01*
X120660648Y-136259440D01*
X120508281Y-136106807D01*
X120606658Y-136022053D01*
X120756159Y-135714483D01*
X121003644Y-135665255D01*
X121231389Y-135513081D01*
X121383563Y-135285336D01*
X121437000Y-135016692D01*
X121437000Y-134683308D01*
X121383563Y-134414664D01*
X121231389Y-134186919D01*
X121050434Y-134066009D01*
X121023717Y-133772738D01*
X120944827Y-133582279D01*
X120747675Y-133566930D01*
X120264605Y-134050000D01*
X120278748Y-134064143D01*
X120099143Y-134243748D01*
X120085000Y-134229605D01*
X119955323Y-134359282D01*
X119912000Y-134345000D01*
X119610395Y-134345000D01*
X119659075Y-134296320D01*
X119782132Y-134245474D01*
X119979780Y-134048170D01*
X120051386Y-133875724D01*
X120070858Y-133856253D01*
X120085000Y-133870395D01*
X120568070Y-133387325D01*
X120552721Y-133190173D01*
X120312761Y-133115457D01*
X120482132Y-133045474D01*
X120679780Y-132848170D01*
X120786878Y-132590249D01*
X120787122Y-132310976D01*
X120680474Y-132052868D01*
X120677779Y-132050168D01*
X120679780Y-132048170D01*
X120786878Y-131790249D01*
X120787122Y-131510976D01*
X120680474Y-131252868D01*
X120677779Y-131250168D01*
X120679780Y-131248170D01*
X120786878Y-130990249D01*
X120787122Y-130710976D01*
X120680474Y-130452868D01*
X120677779Y-130450168D01*
X120679780Y-130448170D01*
X120786878Y-130190249D01*
X120787122Y-129910976D01*
X120680474Y-129652868D01*
X120483170Y-129455220D01*
X120330075Y-129391649D01*
X120362262Y-129388717D01*
X120552721Y-129309827D01*
X120558546Y-129235000D01*
X121693000Y-129235000D01*
X121727406Y-129407973D01*
X121825388Y-129554612D01*
X121835388Y-129564612D01*
X121982027Y-129662594D01*
X122155000Y-129697000D01*
X122318977Y-129664383D01*
X122529729Y-129751895D01*
X122769220Y-129752104D01*
X122990560Y-129660648D01*
X123160053Y-129491451D01*
X123251895Y-129270271D01*
X123252104Y-129030780D01*
X123160648Y-128809440D01*
X122991451Y-128639947D01*
X122770271Y-128548105D01*
X122530780Y-128547896D01*
X122309440Y-128639352D01*
X122162128Y-128786407D01*
X122145000Y-128783000D01*
X121972027Y-128817406D01*
X121825388Y-128915388D01*
X121727406Y-129062027D01*
X121693000Y-129235000D01*
X120558546Y-129235000D01*
X120568070Y-129112675D01*
X120085000Y-128629605D01*
X120070858Y-128643748D01*
X120051236Y-128624126D01*
X119980474Y-128452868D01*
X119783170Y-128255220D01*
X119659094Y-128203699D01*
X119610395Y-128155000D01*
X119912000Y-128155000D01*
X119955323Y-128140718D01*
X120085000Y-128270395D01*
X120099143Y-128256253D01*
X120278748Y-128435858D01*
X120264605Y-128450000D01*
X120747675Y-128933070D01*
X120944827Y-128917721D01*
X121058366Y-128553076D01*
X121034036Y-128286006D01*
X121132132Y-128245474D01*
X121329780Y-128048170D01*
X121436878Y-127790249D01*
X121437122Y-127510976D01*
X121330474Y-127252868D01*
X121133170Y-127055220D01*
X121132929Y-127055120D01*
X121240560Y-127010648D01*
X121410053Y-126841451D01*
X121501895Y-126620271D01*
X121502104Y-126380780D01*
X121410648Y-126159440D01*
X121241451Y-125989947D01*
X121020271Y-125898105D01*
X120780780Y-125897896D01*
X120559440Y-125989352D01*
X120389947Y-126158549D01*
X120349364Y-126256283D01*
X120298410Y-126212385D01*
X119912000Y-126085000D01*
X119612000Y-126085000D01*
X119612000Y-126993000D01*
X119632000Y-126993000D01*
X119632000Y-127247000D01*
X119612000Y-127247000D01*
X119612000Y-127267000D01*
X119358000Y-127267000D01*
X119358000Y-127247000D01*
X118318002Y-127247000D01*
X118190334Y-127406123D01*
X118363342Y-127762053D01*
X118671590Y-128027615D01*
X119058000Y-128155000D01*
X119171393Y-128155000D01*
X119162926Y-128182194D01*
X118987868Y-128254526D01*
X118790220Y-128451830D01*
X118683122Y-128709751D01*
X118682878Y-128989024D01*
X118789526Y-129247132D01*
X118792221Y-129249832D01*
X118790220Y-129251830D01*
X118683122Y-129509751D01*
X118682878Y-129789024D01*
X118738236Y-129923000D01*
X118568290Y-129923000D01*
X118272645Y-129627355D01*
X118101675Y-129513115D01*
X117900000Y-129473000D01*
X117827000Y-129473000D01*
X117827000Y-126833877D01*
X118190334Y-126833877D01*
X118318002Y-126993000D01*
X119358000Y-126993000D01*
X119358000Y-126085000D01*
X119058000Y-126085000D01*
X118671590Y-126212385D01*
X118363342Y-126477947D01*
X118190334Y-126833877D01*
X117827000Y-126833877D01*
X117827000Y-124690103D01*
X118066277Y-124332000D01*
X119636710Y-124332000D01*
X121780500Y-126475790D01*
X121780500Y-127582500D01*
X121820615Y-127784174D01*
X121934855Y-127955145D01*
X122105826Y-128069385D01*
X122307500Y-128109500D01*
X123164210Y-128109500D01*
X123773000Y-128718290D01*
X123773000Y-129671551D01*
X123741451Y-129639947D01*
X123520271Y-129548105D01*
X123280780Y-129547896D01*
X123059440Y-129639352D01*
X122889947Y-129808549D01*
X122798105Y-130029729D01*
X122798047Y-130096642D01*
X122741451Y-130039947D01*
X122520271Y-129948105D01*
X122280780Y-129947896D01*
X122059440Y-130039352D01*
X121889947Y-130208549D01*
X121798105Y-130429729D01*
X121797896Y-130669220D01*
X121889352Y-130890560D01*
X122058549Y-131060053D01*
X122150530Y-131098247D01*
X121989947Y-131258549D01*
X121898105Y-131479729D01*
X121897896Y-131719220D01*
X121989352Y-131940560D01*
X122158549Y-132110053D01*
X122379729Y-132201895D01*
X122619220Y-132202104D01*
X122840560Y-132110648D01*
X123010053Y-131941451D01*
X123085475Y-131759815D01*
X123318290Y-131527000D01*
X123900000Y-131527000D01*
X124101675Y-131486885D01*
X124272645Y-131372645D01*
X124672645Y-130972646D01*
X124759054Y-130843325D01*
X124786885Y-130801674D01*
X124827000Y-130600000D01*
X124827000Y-130084073D01*
X128622883Y-130084073D01*
X128725733Y-130332989D01*
X128916010Y-130523598D01*
X129164746Y-130626882D01*
X129434073Y-130627117D01*
X129682989Y-130524267D01*
X129873598Y-130333990D01*
X129976882Y-130085254D01*
X129977117Y-129815927D01*
X129874267Y-129567011D01*
X129683990Y-129376402D01*
X129435254Y-129273118D01*
X129165927Y-129272883D01*
X128917011Y-129375733D01*
X128726402Y-129566010D01*
X128623118Y-129814746D01*
X128622883Y-130084073D01*
X124827000Y-130084073D01*
X124827000Y-128500000D01*
X124817625Y-128452868D01*
X124786885Y-128298325D01*
X124672645Y-128127355D01*
X124654790Y-128109500D01*
X126074210Y-128109500D01*
X126547940Y-128583230D01*
X126547883Y-128649073D01*
X126650733Y-128897989D01*
X126841010Y-129088598D01*
X127089746Y-129191882D01*
X127359073Y-129192117D01*
X127607989Y-129089267D01*
X127798598Y-128898990D01*
X127901882Y-128650254D01*
X127901940Y-128583350D01*
X128483290Y-128002000D01*
X130131710Y-128002000D01*
X132647710Y-130518000D01*
X131705000Y-130518000D01*
X131503326Y-130558115D01*
X131332355Y-130672354D01*
X130552355Y-131452355D01*
X130438115Y-131623325D01*
X130432445Y-131651830D01*
X130398000Y-131825000D01*
X130398000Y-132060463D01*
X130368990Y-132031402D01*
X130120254Y-131928118D01*
X129850927Y-131927883D01*
X129602011Y-132030733D01*
X129411402Y-132221010D01*
X129308118Y-132469746D01*
X129307883Y-132739073D01*
X129410733Y-132987989D01*
X129601010Y-133178598D01*
X129797960Y-133260379D01*
X129797883Y-133349073D01*
X129900733Y-133597989D01*
X129948000Y-133645338D01*
X129948000Y-134498038D01*
X129770927Y-134497883D01*
X129522011Y-134600733D01*
X129331402Y-134791010D01*
X129228118Y-135039746D01*
X129227908Y-135280191D01*
X129030254Y-135198118D01*
X128760927Y-135197883D01*
X128512011Y-135300733D01*
X128321402Y-135491010D01*
X128218118Y-135739746D01*
X128217925Y-135960500D01*
X127930021Y-135960500D01*
X127952000Y-135850000D01*
X127952000Y-134745507D01*
X127998598Y-134698990D01*
X128101882Y-134450254D01*
X128102117Y-134180927D01*
X127999267Y-133932011D01*
X127808990Y-133741402D01*
X127560254Y-133638118D01*
X127290927Y-133637883D01*
X127042011Y-133740733D01*
X126851402Y-133931010D01*
X126748118Y-134179746D01*
X126747883Y-134449073D01*
X126850733Y-134697989D01*
X126898000Y-134745338D01*
X126898000Y-135631710D01*
X126414858Y-136114852D01*
X126414855Y-136114854D01*
X125602355Y-136927355D01*
X125488115Y-137098325D01*
X125483579Y-137121131D01*
X125345944Y-137258766D01*
X125320271Y-137248105D01*
X125080780Y-137247896D01*
X124859440Y-137339352D01*
X124689947Y-137508549D01*
X124598105Y-137729729D01*
X124597896Y-137969220D01*
X124689352Y-138190560D01*
X124858549Y-138360053D01*
X125079729Y-138451895D01*
X125319220Y-138452104D01*
X125448000Y-138398893D01*
X125448000Y-140754452D01*
X125428000Y-140855000D01*
X125468115Y-141056675D01*
X125582355Y-141227645D01*
X126273000Y-141918290D01*
X126273000Y-143306710D01*
X124977355Y-144602355D01*
X124863115Y-144773325D01*
X124863115Y-144773326D01*
X124823000Y-144975000D01*
X124823000Y-146056710D01*
X121971710Y-148908000D01*
X118206277Y-148908000D01*
X117962620Y-148543342D01*
X117564553Y-148277362D01*
X117095000Y-148183962D01*
X116625447Y-148277362D01*
X116227380Y-148543342D01*
X115961400Y-148941409D01*
X115868000Y-149410962D01*
X115868000Y-149459038D01*
X115961400Y-149928591D01*
X116227380Y-150326658D01*
X116625447Y-150592638D01*
X117095000Y-150686038D01*
X117564553Y-150592638D01*
X117962620Y-150326658D01*
X118206277Y-149962000D01*
X122190000Y-149962000D01*
X122391675Y-149921885D01*
X122562645Y-149807645D01*
X122830290Y-149540000D01*
X131648962Y-149540000D01*
X131742362Y-150009553D01*
X132008342Y-150407620D01*
X132406409Y-150673600D01*
X132875962Y-150767000D01*
X132924038Y-150767000D01*
X133393591Y-150673600D01*
X133791658Y-150407620D01*
X134057638Y-150009553D01*
X134151038Y-149540000D01*
X134111256Y-149340000D01*
X138098962Y-149340000D01*
X138192362Y-149809553D01*
X138458342Y-150207620D01*
X138856409Y-150473600D01*
X139325962Y-150567000D01*
X139374038Y-150567000D01*
X139843591Y-150473600D01*
X140241658Y-150207620D01*
X140507638Y-149809553D01*
X140601038Y-149340000D01*
X140569831Y-149183110D01*
X144158524Y-149183110D01*
X144279845Y-149413000D01*
X145473000Y-149413000D01*
X145473000Y-149393000D01*
X145727000Y-149393000D01*
X145727000Y-149413000D01*
X146920155Y-149413000D01*
X147041476Y-149183110D01*
X146871645Y-148773076D01*
X146481358Y-148344817D01*
X146246209Y-148234385D01*
X146450000Y-148234385D01*
X146589708Y-148208097D01*
X146718020Y-148125530D01*
X146804101Y-147999547D01*
X146834385Y-147850000D01*
X146834385Y-146150000D01*
X146808097Y-146010292D01*
X146725530Y-145881980D01*
X146599547Y-145795899D01*
X146450000Y-145765615D01*
X144750000Y-145765615D01*
X144610292Y-145791903D01*
X144481980Y-145874470D01*
X144395899Y-146000453D01*
X144365615Y-146150000D01*
X144365615Y-147850000D01*
X144391903Y-147989708D01*
X144474470Y-148118020D01*
X144600453Y-148204101D01*
X144750000Y-148234385D01*
X144953791Y-148234385D01*
X144718642Y-148344817D01*
X144328355Y-148773076D01*
X144158524Y-149183110D01*
X140569831Y-149183110D01*
X140507638Y-148870447D01*
X140241658Y-148472380D01*
X139843591Y-148206400D01*
X139374038Y-148113000D01*
X139325962Y-148113000D01*
X138856409Y-148206400D01*
X138458342Y-148472380D01*
X138192362Y-148870447D01*
X138098962Y-149340000D01*
X134111256Y-149340000D01*
X134057638Y-149070447D01*
X133791658Y-148672380D01*
X133393591Y-148406400D01*
X132924038Y-148313000D01*
X132875962Y-148313000D01*
X132406409Y-148406400D01*
X132008342Y-148672380D01*
X131742362Y-149070447D01*
X131648962Y-149540000D01*
X122830290Y-149540000D01*
X125722645Y-146647645D01*
X125836885Y-146476675D01*
X125877000Y-146275000D01*
X125877000Y-145193290D01*
X125973000Y-145097290D01*
X125973000Y-146299362D01*
X125898105Y-146479729D01*
X125897896Y-146719220D01*
X125989352Y-146940560D01*
X126158549Y-147110053D01*
X126379729Y-147201895D01*
X126619220Y-147202104D01*
X126840560Y-147110648D01*
X127010053Y-146941451D01*
X127101895Y-146720271D01*
X127102104Y-146480780D01*
X127027000Y-146299015D01*
X127027000Y-146150000D01*
X131665615Y-146150000D01*
X131665615Y-147850000D01*
X131691903Y-147989708D01*
X131774470Y-148118020D01*
X131900453Y-148204101D01*
X132050000Y-148234385D01*
X133750000Y-148234385D01*
X133889708Y-148208097D01*
X134018020Y-148125530D01*
X134104101Y-147999547D01*
X134134385Y-147850000D01*
X134134385Y-146150000D01*
X134108097Y-146010292D01*
X134069300Y-145950000D01*
X138115615Y-145950000D01*
X138115615Y-147650000D01*
X138141903Y-147789708D01*
X138224470Y-147918020D01*
X138350453Y-148004101D01*
X138500000Y-148034385D01*
X140200000Y-148034385D01*
X140339708Y-148008097D01*
X140468020Y-147925530D01*
X140554101Y-147799547D01*
X140584385Y-147650000D01*
X140584385Y-145950000D01*
X140558097Y-145810292D01*
X140475530Y-145681980D01*
X140349547Y-145595899D01*
X140200000Y-145565615D01*
X138500000Y-145565615D01*
X138360292Y-145591903D01*
X138231980Y-145674470D01*
X138145899Y-145800453D01*
X138115615Y-145950000D01*
X134069300Y-145950000D01*
X134025530Y-145881980D01*
X133899547Y-145795899D01*
X133750000Y-145765615D01*
X132050000Y-145765615D01*
X131910292Y-145791903D01*
X131781980Y-145874470D01*
X131695899Y-146000453D01*
X131665615Y-146150000D01*
X127027000Y-146150000D01*
X127027000Y-144043290D01*
X127172645Y-143897645D01*
X127286885Y-143726674D01*
X127327000Y-143525000D01*
X127327000Y-143419220D01*
X128397896Y-143419220D01*
X128489352Y-143640560D01*
X128658549Y-143810053D01*
X128879729Y-143901895D01*
X129119220Y-143902104D01*
X129340560Y-143810648D01*
X129510053Y-143641451D01*
X129519284Y-143619220D01*
X130097896Y-143619220D01*
X130189352Y-143840560D01*
X130358549Y-144010053D01*
X130579729Y-144101895D01*
X130819220Y-144102104D01*
X131040560Y-144010648D01*
X131167356Y-143884073D01*
X142172883Y-143884073D01*
X142275733Y-144132989D01*
X142466010Y-144323598D01*
X142714746Y-144426882D01*
X142984073Y-144427117D01*
X143232989Y-144324267D01*
X143423598Y-144133990D01*
X143526882Y-143885254D01*
X143527117Y-143615927D01*
X143424267Y-143367011D01*
X143233990Y-143176402D01*
X142985254Y-143073118D01*
X142715927Y-143072883D01*
X142467011Y-143175733D01*
X142276402Y-143366010D01*
X142173118Y-143614746D01*
X142172883Y-143884073D01*
X131167356Y-143884073D01*
X131210053Y-143841451D01*
X131301895Y-143620271D01*
X131302104Y-143380780D01*
X131210648Y-143159440D01*
X131041451Y-142989947D01*
X130820271Y-142898105D01*
X130580780Y-142897896D01*
X130359440Y-142989352D01*
X130189947Y-143158549D01*
X130098105Y-143379729D01*
X130097896Y-143619220D01*
X129519284Y-143619220D01*
X129601895Y-143420271D01*
X129602104Y-143180780D01*
X129510648Y-142959440D01*
X129341451Y-142789947D01*
X129120271Y-142698105D01*
X128880780Y-142697896D01*
X128659440Y-142789352D01*
X128489947Y-142958549D01*
X128398105Y-143179729D01*
X128397896Y-143419220D01*
X127327000Y-143419220D01*
X127327000Y-141700000D01*
X127286885Y-141498326D01*
X127286885Y-141498325D01*
X127172645Y-141327355D01*
X126502000Y-140656710D01*
X126502000Y-137518290D01*
X126818291Y-137202000D01*
X126825000Y-137202000D01*
X126997973Y-137167594D01*
X127144612Y-137069612D01*
X127199724Y-137014500D01*
X135198000Y-137014500D01*
X135198000Y-138625000D01*
X135232393Y-138797910D01*
X135200927Y-138797883D01*
X134952011Y-138900733D01*
X134761402Y-139091010D01*
X134658118Y-139339746D01*
X134657883Y-139609073D01*
X134760733Y-139857989D01*
X134951010Y-140048598D01*
X135199746Y-140151882D01*
X135469073Y-140152117D01*
X135717989Y-140049267D01*
X135908598Y-139858990D01*
X136003052Y-139631520D01*
X136123325Y-139711885D01*
X136236756Y-139734447D01*
X136168118Y-139899746D01*
X136167883Y-140169073D01*
X136270733Y-140417989D01*
X136461010Y-140608598D01*
X136709746Y-140711882D01*
X136979073Y-140712117D01*
X137227989Y-140609267D01*
X137237175Y-140600097D01*
X137302355Y-140697645D01*
X139372355Y-142767645D01*
X139543325Y-142881885D01*
X139745000Y-142922000D01*
X141051314Y-142922000D01*
X141048105Y-142929729D01*
X141047896Y-143169220D01*
X141139352Y-143390560D01*
X141308549Y-143560053D01*
X141529729Y-143651895D01*
X141769220Y-143652104D01*
X141990560Y-143560648D01*
X142160053Y-143391451D01*
X142251895Y-143170271D01*
X142252104Y-142930780D01*
X142160648Y-142709440D01*
X142027315Y-142575874D01*
X142032594Y-142567973D01*
X142033904Y-142561386D01*
X142806511Y-141788779D01*
X146727857Y-141788779D01*
X146853495Y-142092846D01*
X147085930Y-142325688D01*
X147389778Y-142451856D01*
X147718779Y-142452143D01*
X148022846Y-142326505D01*
X148255688Y-142094070D01*
X148381856Y-141790222D01*
X148382143Y-141461221D01*
X148256505Y-141157154D01*
X148024070Y-140924312D01*
X147720222Y-140798144D01*
X147391221Y-140797857D01*
X147087154Y-140923495D01*
X146854312Y-141155930D01*
X146728144Y-141459778D01*
X146727857Y-141788779D01*
X142806511Y-141788779D01*
X143097645Y-141497645D01*
X143211885Y-141326675D01*
X143227534Y-141248000D01*
X143235319Y-141208860D01*
X143242594Y-141197973D01*
X143247561Y-141173000D01*
X143277000Y-141025000D01*
X143277000Y-138788779D01*
X146727857Y-138788779D01*
X146853495Y-139092846D01*
X147085930Y-139325688D01*
X147389778Y-139451856D01*
X147718779Y-139452143D01*
X148022846Y-139326505D01*
X148255688Y-139094070D01*
X148381856Y-138790222D01*
X148382143Y-138461221D01*
X148256505Y-138157154D01*
X148024070Y-137924312D01*
X147720222Y-137798144D01*
X147391221Y-137797857D01*
X147087154Y-137923495D01*
X146854312Y-138155930D01*
X146728144Y-138459778D01*
X146727857Y-138788779D01*
X143277000Y-138788779D01*
X143277000Y-138085000D01*
X143242594Y-137912027D01*
X143235319Y-137901140D01*
X143211885Y-137783326D01*
X143137930Y-137672645D01*
X143097645Y-137612354D01*
X142707291Y-137222000D01*
X142815000Y-137222000D01*
X143016675Y-137181885D01*
X143187645Y-137067645D01*
X143673230Y-136582060D01*
X143739073Y-136582117D01*
X143987989Y-136479267D01*
X144035338Y-136432000D01*
X145895000Y-136432000D01*
X146096675Y-136391885D01*
X146267645Y-136277645D01*
X146922645Y-135622645D01*
X147036885Y-135451675D01*
X147077000Y-135250000D01*
X147077000Y-133490590D01*
X147151882Y-133310254D01*
X147152117Y-133040927D01*
X147049267Y-132792011D01*
X146858990Y-132601402D01*
X146610254Y-132498118D01*
X146340927Y-132497883D01*
X146092011Y-132600733D01*
X145901402Y-132791010D01*
X145798118Y-133039746D01*
X145797883Y-133309073D01*
X145900733Y-133557989D01*
X146023000Y-133680469D01*
X146023000Y-135031710D01*
X145676710Y-135378000D01*
X144035507Y-135378000D01*
X143988990Y-135331402D01*
X143740254Y-135228118D01*
X143470927Y-135227883D01*
X143222011Y-135330733D01*
X143031402Y-135521010D01*
X142928118Y-135769746D01*
X142928060Y-135836650D01*
X142596710Y-136168000D01*
X141865507Y-136168000D01*
X141818990Y-136121402D01*
X141570254Y-136018118D01*
X141300927Y-136017883D01*
X141052011Y-136120733D01*
X141004662Y-136168000D01*
X140080238Y-136168000D01*
X140176882Y-135935254D01*
X140176985Y-135817708D01*
X140379729Y-135901895D01*
X140619220Y-135902104D01*
X140840560Y-135810648D01*
X141010053Y-135641451D01*
X141101895Y-135420271D01*
X141102041Y-135253271D01*
X141258549Y-135410053D01*
X141479729Y-135501895D01*
X141719220Y-135502104D01*
X141940560Y-135410648D01*
X142110053Y-135241451D01*
X142201895Y-135020271D01*
X142202104Y-134780780D01*
X142110648Y-134559440D01*
X141941451Y-134389947D01*
X141720271Y-134298105D01*
X141480780Y-134297896D01*
X141259440Y-134389352D01*
X141089947Y-134558549D01*
X140998105Y-134779729D01*
X140997959Y-134946729D01*
X140841451Y-134789947D01*
X140620271Y-134698105D01*
X140380780Y-134697896D01*
X140216896Y-134765612D01*
X140091451Y-134639947D01*
X139870271Y-134548105D01*
X139630780Y-134547896D01*
X139488680Y-134606611D01*
X140111218Y-133984073D01*
X143097883Y-133984073D01*
X143200733Y-134232989D01*
X143391010Y-134423598D01*
X143639746Y-134526882D01*
X143909073Y-134527117D01*
X144157989Y-134424267D01*
X144348598Y-134233990D01*
X144451882Y-133985254D01*
X144452117Y-133715927D01*
X144349267Y-133467011D01*
X144158990Y-133276402D01*
X143910254Y-133173118D01*
X143640927Y-133172883D01*
X143392011Y-133275733D01*
X143201402Y-133466010D01*
X143098118Y-133714746D01*
X143097883Y-133984073D01*
X140111218Y-133984073D01*
X140272645Y-133822646D01*
X140386884Y-133651675D01*
X140386885Y-133651674D01*
X140427000Y-133450000D01*
X140427000Y-132134073D01*
X142997883Y-132134073D01*
X143100733Y-132382989D01*
X143291010Y-132573598D01*
X143539746Y-132676882D01*
X143809073Y-132677117D01*
X144057989Y-132574267D01*
X144248598Y-132383990D01*
X144351882Y-132135254D01*
X144352101Y-131884073D01*
X144947883Y-131884073D01*
X145050733Y-132132989D01*
X145241010Y-132323598D01*
X145489746Y-132426882D01*
X145759073Y-132427117D01*
X146007989Y-132324267D01*
X146198598Y-132133990D01*
X146301882Y-131885254D01*
X146302042Y-131701945D01*
X146499073Y-131702117D01*
X146747989Y-131599267D01*
X146938598Y-131408990D01*
X147041882Y-131160254D01*
X147042117Y-130890927D01*
X146939267Y-130642011D01*
X146748990Y-130451402D01*
X146500254Y-130348118D01*
X146230927Y-130347883D01*
X145982011Y-130450733D01*
X145791402Y-130641010D01*
X145688118Y-130889746D01*
X145687958Y-131073055D01*
X145490927Y-131072883D01*
X145242011Y-131175733D01*
X145051402Y-131366010D01*
X144948118Y-131614746D01*
X144947883Y-131884073D01*
X144352101Y-131884073D01*
X144352117Y-131865927D01*
X144249267Y-131617011D01*
X144058990Y-131426402D01*
X143810254Y-131323118D01*
X143540927Y-131322883D01*
X143292011Y-131425733D01*
X143101402Y-131616010D01*
X142998118Y-131864746D01*
X142997883Y-132134073D01*
X140427000Y-132134073D01*
X140427000Y-129459073D01*
X141922883Y-129459073D01*
X142025733Y-129707989D01*
X142216010Y-129898598D01*
X142464746Y-130001882D01*
X142734073Y-130002117D01*
X142982989Y-129899267D01*
X143173598Y-129708990D01*
X143276882Y-129460254D01*
X143277117Y-129190927D01*
X143174267Y-128942011D01*
X142983990Y-128751402D01*
X142735254Y-128648118D01*
X142465927Y-128647883D01*
X142217011Y-128750733D01*
X142026402Y-128941010D01*
X141923118Y-129189746D01*
X141922883Y-129459073D01*
X140427000Y-129459073D01*
X140427000Y-128019073D01*
X140437883Y-128019073D01*
X140540733Y-128267989D01*
X140731010Y-128458598D01*
X140979746Y-128561882D01*
X141249073Y-128562117D01*
X141401656Y-128499071D01*
X141501010Y-128598598D01*
X141749746Y-128701882D01*
X142019073Y-128702117D01*
X142267989Y-128599267D01*
X142458598Y-128408990D01*
X142544546Y-128202005D01*
X142600733Y-128337989D01*
X142791010Y-128528598D01*
X143039746Y-128631882D01*
X143309073Y-128632117D01*
X143557989Y-128529267D01*
X143748598Y-128338990D01*
X143851882Y-128090254D01*
X143852117Y-127820927D01*
X143749267Y-127572011D01*
X143558990Y-127381402D01*
X143310254Y-127278118D01*
X143040927Y-127277883D01*
X142792011Y-127380733D01*
X142601402Y-127571010D01*
X142515454Y-127777995D01*
X142459267Y-127642011D01*
X142268990Y-127451402D01*
X142020254Y-127348118D01*
X141750927Y-127347883D01*
X141598344Y-127410929D01*
X141498990Y-127311402D01*
X141250254Y-127208118D01*
X140980927Y-127207883D01*
X140732011Y-127310733D01*
X140541402Y-127501010D01*
X140438118Y-127749746D01*
X140437883Y-128019073D01*
X140427000Y-128019073D01*
X140427000Y-127493290D01*
X140817645Y-127102646D01*
X140872888Y-127019968D01*
X140929189Y-126938062D01*
X140929923Y-126934610D01*
X140931884Y-126931675D01*
X140951272Y-126834205D01*
X140958833Y-126798642D01*
X141023598Y-126733990D01*
X141126882Y-126485254D01*
X141127117Y-126215927D01*
X141024267Y-125967011D01*
X140976012Y-125918672D01*
X140975933Y-125884073D01*
X142797883Y-125884073D01*
X142900733Y-126132989D01*
X143091010Y-126323598D01*
X143339746Y-126426882D01*
X143609073Y-126427117D01*
X143857989Y-126324267D01*
X144048598Y-126133990D01*
X144151882Y-125885254D01*
X144152117Y-125615927D01*
X144049267Y-125367011D01*
X143858990Y-125176402D01*
X143610254Y-125073118D01*
X143340927Y-125072883D01*
X143092011Y-125175733D01*
X142901402Y-125366010D01*
X142798118Y-125614746D01*
X142797883Y-125884073D01*
X140975933Y-125884073D01*
X140971999Y-124168791D01*
X140951825Y-124068573D01*
X140935018Y-123984073D01*
X141297883Y-123984073D01*
X141400733Y-124232989D01*
X141591010Y-124423598D01*
X141839746Y-124526882D01*
X142109073Y-124527117D01*
X142123530Y-124521143D01*
X142200733Y-124707989D01*
X142391010Y-124898598D01*
X142639746Y-125001882D01*
X142909073Y-125002117D01*
X143157989Y-124899267D01*
X143348598Y-124708990D01*
X143451882Y-124460254D01*
X143452117Y-124190927D01*
X143349267Y-123942011D01*
X143158990Y-123751402D01*
X142910254Y-123648118D01*
X142640927Y-123647883D01*
X142626470Y-123653857D01*
X142549267Y-123467011D01*
X142358990Y-123276402D01*
X142110254Y-123173118D01*
X141840927Y-123172883D01*
X141592011Y-123275733D01*
X141401402Y-123466010D01*
X141298118Y-123714746D01*
X141297883Y-123984073D01*
X140935018Y-123984073D01*
X140931885Y-123968325D01*
X140931542Y-123967812D01*
X140931421Y-123967210D01*
X140874544Y-123882509D01*
X140817645Y-123797355D01*
X138397645Y-121377355D01*
X138226675Y-121263115D01*
X138025000Y-121223000D01*
X136843290Y-121223000D01*
X136079363Y-120459073D01*
X141347883Y-120459073D01*
X141450733Y-120707989D01*
X141641010Y-120898598D01*
X141889746Y-121001882D01*
X142159073Y-121002117D01*
X142407989Y-120899267D01*
X142598598Y-120708990D01*
X142701882Y-120460254D01*
X142702117Y-120190927D01*
X142599267Y-119942011D01*
X142408990Y-119751402D01*
X142160254Y-119648118D01*
X141890927Y-119647883D01*
X141642011Y-119750733D01*
X141451402Y-119941010D01*
X141348118Y-120189746D01*
X141347883Y-120459073D01*
X136079363Y-120459073D01*
X133754811Y-118134521D01*
X133785461Y-118145908D01*
X134435460Y-118121856D01*
X134924264Y-117919387D01*
X135022927Y-117652532D01*
X134050000Y-116679605D01*
X134035858Y-116693748D01*
X133856253Y-116514143D01*
X133870395Y-116500000D01*
X134229605Y-116500000D01*
X135202532Y-117472927D01*
X135469387Y-117374264D01*
X135675593Y-116819220D01*
X137447896Y-116819220D01*
X137539352Y-117040560D01*
X137708549Y-117210053D01*
X137929729Y-117301895D01*
X138169220Y-117302104D01*
X138390560Y-117210648D01*
X138560053Y-117041451D01*
X138651895Y-116820271D01*
X138652104Y-116580780D01*
X138560648Y-116359440D01*
X138391451Y-116189947D01*
X138170271Y-116098105D01*
X137930780Y-116097896D01*
X137709440Y-116189352D01*
X137539947Y-116358549D01*
X137448105Y-116579729D01*
X137447896Y-116819220D01*
X135675593Y-116819220D01*
X135695908Y-116764539D01*
X135671856Y-116114540D01*
X135469387Y-115625736D01*
X135316528Y-115569220D01*
X138097896Y-115569220D01*
X138189352Y-115790560D01*
X138358549Y-115960053D01*
X138579729Y-116051895D01*
X138819220Y-116052104D01*
X139040560Y-115960648D01*
X139210053Y-115791451D01*
X139301895Y-115570271D01*
X139302084Y-115353315D01*
X139458549Y-115510053D01*
X139679729Y-115601895D01*
X139919220Y-115602104D01*
X140140560Y-115510648D01*
X140310053Y-115341451D01*
X140401895Y-115120271D01*
X140402104Y-114880780D01*
X140310648Y-114659440D01*
X140141451Y-114489947D01*
X139920271Y-114398105D01*
X139680780Y-114397896D01*
X139459440Y-114489352D01*
X139289947Y-114658549D01*
X139198105Y-114879729D01*
X139197916Y-115096685D01*
X139041451Y-114939947D01*
X138820271Y-114848105D01*
X138580780Y-114847896D01*
X138359440Y-114939352D01*
X138189947Y-115108549D01*
X138098105Y-115329729D01*
X138097896Y-115569220D01*
X135316528Y-115569220D01*
X135202532Y-115527073D01*
X134229605Y-116500000D01*
X133870395Y-116500000D01*
X132897468Y-115527073D01*
X132630613Y-115625736D01*
X132404092Y-116235461D01*
X132425162Y-116804872D01*
X130967758Y-115347468D01*
X133077073Y-115347468D01*
X134050000Y-116320395D01*
X135022927Y-115347468D01*
X134924264Y-115080613D01*
X134314539Y-114854092D01*
X133664540Y-114878144D01*
X133175736Y-115080613D01*
X133077073Y-115347468D01*
X130967758Y-115347468D01*
X130522645Y-114902355D01*
X130351675Y-114788115D01*
X130150000Y-114748000D01*
X123734385Y-114748000D01*
X123734385Y-114550000D01*
X123708097Y-114410292D01*
X123625530Y-114281980D01*
X123499547Y-114195899D01*
X123350000Y-114165615D01*
X121650000Y-114165615D01*
X121510292Y-114191903D01*
X121381980Y-114274470D01*
X121295899Y-114400453D01*
X121265615Y-114550000D01*
X121265615Y-114748000D01*
X121193291Y-114748000D01*
X119317645Y-112872355D01*
X119146675Y-112758115D01*
X118945000Y-112718000D01*
X118106277Y-112718000D01*
X117862620Y-112353342D01*
X117464553Y-112087362D01*
X116995000Y-111993962D01*
X116525447Y-112087362D01*
X116127380Y-112353342D01*
X115861400Y-112751409D01*
X115768000Y-113220962D01*
X115768000Y-113269038D01*
X115861400Y-113738591D01*
X116127380Y-114136658D01*
X116468000Y-114364253D01*
X116468000Y-118932383D01*
X116107380Y-119173342D01*
X115841400Y-119571409D01*
X115748000Y-120040962D01*
X115748000Y-120089038D01*
X115841400Y-120558591D01*
X116107380Y-120956658D01*
X116468000Y-121197617D01*
X116468000Y-122659020D01*
X116087380Y-122913342D01*
X115821400Y-123311409D01*
X115728000Y-123780962D01*
X115649385Y-123780962D01*
X115649385Y-122955000D01*
X115623097Y-122815292D01*
X115540530Y-122686980D01*
X115414547Y-122600899D01*
X115265000Y-122570615D01*
X113565000Y-122570615D01*
X113425292Y-122596903D01*
X113296980Y-122679470D01*
X113210899Y-122805453D01*
X113180615Y-122955000D01*
X112827000Y-122955000D01*
X112827000Y-119215000D01*
X113200615Y-119215000D01*
X113200615Y-120915000D01*
X113226903Y-121054708D01*
X113309470Y-121183020D01*
X113435453Y-121269101D01*
X113585000Y-121299385D01*
X115285000Y-121299385D01*
X115424708Y-121273097D01*
X115553020Y-121190530D01*
X115639101Y-121064547D01*
X115669385Y-120915000D01*
X115669385Y-119215000D01*
X115643097Y-119075292D01*
X115560530Y-118946980D01*
X115434547Y-118860899D01*
X115285000Y-118830615D01*
X113585000Y-118830615D01*
X113445292Y-118856903D01*
X113316980Y-118939470D01*
X113230899Y-119065453D01*
X113200615Y-119215000D01*
X112827000Y-119215000D01*
X112827000Y-112395000D01*
X113220615Y-112395000D01*
X113220615Y-114095000D01*
X113246903Y-114234708D01*
X113329470Y-114363020D01*
X113455453Y-114449101D01*
X113605000Y-114479385D01*
X115305000Y-114479385D01*
X115444708Y-114453097D01*
X115573020Y-114370530D01*
X115659101Y-114244547D01*
X115689385Y-114095000D01*
X115689385Y-112395000D01*
X115663097Y-112255292D01*
X115580530Y-112126980D01*
X115454547Y-112040899D01*
X115305000Y-112010615D01*
X113605000Y-112010615D01*
X113465292Y-112036903D01*
X113336980Y-112119470D01*
X113250899Y-112245453D01*
X113220615Y-112395000D01*
X112827000Y-112395000D01*
X112827000Y-111807000D01*
X121885783Y-111807000D01*
X121608342Y-111992380D01*
X121608342Y-111992380D01*
G37*
X121608342Y-111992380D02*
X121342362Y-112390447D01*
X121248962Y-112860000D01*
X121342362Y-113329553D01*
X121608342Y-113727620D01*
X122006409Y-113993600D01*
X122475962Y-114087000D01*
X122524038Y-114087000D01*
X122993591Y-113993600D01*
X123391658Y-113727620D01*
X123657638Y-113329553D01*
X123706133Y-113085750D01*
X124965000Y-113085750D01*
X124965000Y-113776309D01*
X125061673Y-114009698D01*
X125240301Y-114188327D01*
X125473690Y-114285000D01*
X126164250Y-114285000D01*
X126323000Y-114126250D01*
X126323000Y-112927000D01*
X125123750Y-112927000D01*
X124965000Y-113085750D01*
X123706133Y-113085750D01*
X123751038Y-112860000D01*
X123657638Y-112390447D01*
X123391658Y-111992380D01*
X123114217Y-111807000D01*
X124971914Y-111807000D01*
X124965000Y-111823691D01*
X124965000Y-112514250D01*
X125123750Y-112673000D01*
X126323000Y-112673000D01*
X126323000Y-112653000D01*
X126577000Y-112653000D01*
X126577000Y-112673000D01*
X126597000Y-112673000D01*
X126597000Y-112927000D01*
X126577000Y-112927000D01*
X126577000Y-114126250D01*
X126735750Y-114285000D01*
X127426310Y-114285000D01*
X127659699Y-114188327D01*
X127838327Y-114009698D01*
X127935000Y-113776309D01*
X127935000Y-113411224D01*
X128122380Y-113691658D01*
X128520447Y-113957638D01*
X128990000Y-114051038D01*
X129459553Y-113957638D01*
X129857620Y-113691658D01*
X130123600Y-113293591D01*
X130217000Y-112824038D01*
X130217000Y-112775962D01*
X130123600Y-112306409D01*
X129857620Y-111908342D01*
X129705951Y-111807000D01*
X130814049Y-111807000D01*
X130662380Y-111908342D01*
X130396400Y-112306409D01*
X130303000Y-112775962D01*
X130303000Y-112824038D01*
X130396400Y-113293591D01*
X130662380Y-113691658D01*
X131060447Y-113957638D01*
X131530000Y-114051038D01*
X131999553Y-113957638D01*
X132397620Y-113691658D01*
X132663600Y-113293591D01*
X132757000Y-112824038D01*
X132757000Y-112775962D01*
X132663600Y-112306409D01*
X132397620Y-111908342D01*
X132245951Y-111807000D01*
X133354049Y-111807000D01*
X133202380Y-111908342D01*
X132936400Y-112306409D01*
X132843000Y-112775962D01*
X132843000Y-112824038D01*
X132936400Y-113293591D01*
X133202380Y-113691658D01*
X133600447Y-113957638D01*
X134070000Y-114051038D01*
X134539553Y-113957638D01*
X134937620Y-113691658D01*
X135203600Y-113293591D01*
X135297000Y-112824038D01*
X135297000Y-112775962D01*
X135203600Y-112306409D01*
X134937620Y-111908342D01*
X134785951Y-111807000D01*
X135894049Y-111807000D01*
X135742380Y-111908342D01*
X135476400Y-112306409D01*
X135383000Y-112775962D01*
X135383000Y-112824038D01*
X135476400Y-113293591D01*
X135742380Y-113691658D01*
X136140447Y-113957638D01*
X136610000Y-114051038D01*
X136748067Y-114023575D01*
X136747896Y-114219220D01*
X136839352Y-114440560D01*
X137008549Y-114610053D01*
X137229729Y-114701895D01*
X137469220Y-114702104D01*
X137690560Y-114610648D01*
X137860053Y-114441451D01*
X137951895Y-114220271D01*
X137952104Y-113980780D01*
X137860648Y-113759440D01*
X137691451Y-113589947D01*
X137577263Y-113542532D01*
X137743600Y-113293591D01*
X137837000Y-112824038D01*
X137837000Y-112775962D01*
X137743600Y-112306409D01*
X137477620Y-111908342D01*
X137325951Y-111807000D01*
X138434049Y-111807000D01*
X138282380Y-111908342D01*
X138016400Y-112306409D01*
X137923000Y-112775962D01*
X137923000Y-112824038D01*
X138016400Y-113293591D01*
X138282380Y-113691658D01*
X138680447Y-113957638D01*
X139150000Y-114051038D01*
X139619553Y-113957638D01*
X140017620Y-113691658D01*
X140283600Y-113293591D01*
X140377000Y-112824038D01*
X140377000Y-112775962D01*
X140283600Y-112306409D01*
X140017620Y-111908342D01*
X139865951Y-111807000D01*
X143948439Y-111807000D01*
X143958000Y-120335142D01*
X143966685Y-120381159D01*
X143993965Y-120423553D01*
X144035590Y-120451994D01*
X144085000Y-120462000D01*
X148473000Y-120462000D01*
X148473000Y-150893000D01*
X146145310Y-150893000D01*
X146481358Y-150735183D01*
X146871645Y-150306924D01*
X147041476Y-149896890D01*
X146920155Y-149667000D01*
X145727000Y-149667000D01*
X145727000Y-149687000D01*
X145473000Y-149687000D01*
X145473000Y-149667000D01*
X144279845Y-149667000D01*
X144158524Y-149896890D01*
X144328355Y-150306924D01*
X144718642Y-150735183D01*
X145054690Y-150893000D01*
X112817000Y-150893000D01*
X112817000Y-148585000D01*
X113320615Y-148585000D01*
X113320615Y-150285000D01*
X113346903Y-150424708D01*
X113429470Y-150553020D01*
X113555453Y-150639101D01*
X113705000Y-150669385D01*
X115405000Y-150669385D01*
X115544708Y-150643097D01*
X115673020Y-150560530D01*
X115759101Y-150434547D01*
X115789385Y-150285000D01*
X115789385Y-148585000D01*
X115763097Y-148445292D01*
X115680530Y-148316980D01*
X115554547Y-148230899D01*
X115405000Y-148200615D01*
X113705000Y-148200615D01*
X113565292Y-148226903D01*
X113436980Y-148309470D01*
X113350899Y-148435453D01*
X113320615Y-148585000D01*
X112817000Y-148585000D01*
X112817000Y-146364444D01*
X112968974Y-146516683D01*
X113474896Y-146726760D01*
X114022701Y-146727238D01*
X114528989Y-146518044D01*
X114916683Y-146131026D01*
X115126760Y-145625104D01*
X115126762Y-145622701D01*
X118872762Y-145622701D01*
X119081956Y-146128989D01*
X119468974Y-146516683D01*
X119974896Y-146726760D01*
X120522701Y-146727238D01*
X121028989Y-146518044D01*
X121416683Y-146131026D01*
X121626760Y-145625104D01*
X121627238Y-145077299D01*
X121418044Y-144571011D01*
X121031026Y-144183317D01*
X120525104Y-143973240D01*
X119977299Y-143972762D01*
X119471011Y-144181956D01*
X119083317Y-144568974D01*
X118873240Y-145074896D01*
X118872762Y-145622701D01*
X115126762Y-145622701D01*
X115127238Y-145077299D01*
X114918044Y-144571011D01*
X114531026Y-144183317D01*
X114025104Y-143973240D01*
X113477299Y-143972762D01*
X112971011Y-144181956D01*
X112817000Y-144335698D01*
X112817000Y-142110523D01*
X112875736Y-142269387D01*
X113485461Y-142495908D01*
X114135460Y-142471856D01*
X114624264Y-142269387D01*
X114722927Y-142002532D01*
X119277073Y-142002532D01*
X119375736Y-142269387D01*
X119985461Y-142495908D01*
X120635460Y-142471856D01*
X121124264Y-142269387D01*
X121222927Y-142002532D01*
X120250000Y-141029605D01*
X119277073Y-142002532D01*
X114722927Y-142002532D01*
X113750000Y-141029605D01*
X113735858Y-141043748D01*
X113556253Y-140864143D01*
X113570395Y-140850000D01*
X113929605Y-140850000D01*
X114902532Y-141822927D01*
X115169387Y-141724264D01*
X115395908Y-141114539D01*
X115376331Y-140585461D01*
X118604092Y-140585461D01*
X118628144Y-141235460D01*
X118830613Y-141724264D01*
X119097468Y-141822927D01*
X120070395Y-140850000D01*
X120429605Y-140850000D01*
X121402532Y-141822927D01*
X121669387Y-141724264D01*
X121708412Y-141619220D01*
X121847896Y-141619220D01*
X121939352Y-141840560D01*
X122108549Y-142010053D01*
X122329729Y-142101895D01*
X122569220Y-142102104D01*
X122790560Y-142010648D01*
X122960053Y-141841451D01*
X123051895Y-141620271D01*
X123052104Y-141380780D01*
X122960648Y-141159440D01*
X122791451Y-140989947D01*
X122570271Y-140898105D01*
X122330780Y-140897896D01*
X122109440Y-140989352D01*
X121939947Y-141158549D01*
X121848105Y-141379729D01*
X121847896Y-141619220D01*
X121708412Y-141619220D01*
X121895908Y-141114539D01*
X121871856Y-140464540D01*
X121669387Y-139975736D01*
X121402532Y-139877073D01*
X120429605Y-140850000D01*
X120070395Y-140850000D01*
X119097468Y-139877073D01*
X118830613Y-139975736D01*
X118604092Y-140585461D01*
X115376331Y-140585461D01*
X115371856Y-140464540D01*
X115169387Y-139975736D01*
X114902532Y-139877073D01*
X113929605Y-140850000D01*
X113570395Y-140850000D01*
X113556253Y-140835858D01*
X113735858Y-140656253D01*
X113750000Y-140670395D01*
X114722927Y-139697468D01*
X119277073Y-139697468D01*
X120250000Y-140670395D01*
X121222927Y-139697468D01*
X121124264Y-139430613D01*
X120514539Y-139204092D01*
X119864540Y-139228144D01*
X119375736Y-139430613D01*
X119277073Y-139697468D01*
X114722927Y-139697468D01*
X114624264Y-139430613D01*
X114014539Y-139204092D01*
X113364540Y-139228144D01*
X112875736Y-139430613D01*
X112817000Y-139589477D01*
X112817000Y-139119220D01*
X122797896Y-139119220D01*
X122889352Y-139340560D01*
X123058549Y-139510053D01*
X123279729Y-139601895D01*
X123519220Y-139602104D01*
X123740560Y-139510648D01*
X123910053Y-139341451D01*
X124001895Y-139120271D01*
X124002104Y-138880780D01*
X123910648Y-138659440D01*
X123741451Y-138489947D01*
X123520271Y-138398105D01*
X123280780Y-138397896D01*
X123059440Y-138489352D01*
X122889947Y-138658549D01*
X122798105Y-138879729D01*
X122797896Y-139119220D01*
X112817000Y-139119220D01*
X112817000Y-136679068D01*
X113108000Y-136775000D01*
X113408000Y-136775000D01*
X113408000Y-135867000D01*
X113662000Y-135867000D01*
X113662000Y-136775000D01*
X113962000Y-136775000D01*
X114348410Y-136647615D01*
X114656658Y-136382053D01*
X114829666Y-136026123D01*
X114701998Y-135867000D01*
X113662000Y-135867000D01*
X113408000Y-135867000D01*
X113388000Y-135867000D01*
X113388000Y-135613000D01*
X113408000Y-135613000D01*
X113408000Y-134705000D01*
X113662000Y-134705000D01*
X113662000Y-135613000D01*
X114701998Y-135613000D01*
X114829666Y-135453877D01*
X114656658Y-135097947D01*
X114348410Y-134832385D01*
X113962000Y-134705000D01*
X113662000Y-134705000D01*
X113408000Y-134705000D01*
X113108000Y-134705000D01*
X112721590Y-134832385D01*
X112502000Y-135021566D01*
X112502000Y-131719220D01*
X115697896Y-131719220D01*
X115789352Y-131940560D01*
X115958549Y-132110053D01*
X116179729Y-132201895D01*
X116419220Y-132202104D01*
X116640560Y-132110648D01*
X116810053Y-131941451D01*
X116870695Y-131795408D01*
X116889352Y-131840560D01*
X117058549Y-132010053D01*
X117279729Y-132101895D01*
X117519220Y-132102104D01*
X117740560Y-132010648D01*
X117910053Y-131841451D01*
X118001895Y-131620271D01*
X118002104Y-131380780D01*
X117910648Y-131159440D01*
X117741451Y-130989947D01*
X117520271Y-130898105D01*
X117280780Y-130897896D01*
X117059440Y-130989352D01*
X116889947Y-131158549D01*
X116829305Y-131304592D01*
X116810648Y-131259440D01*
X116641451Y-131089947D01*
X116420271Y-130998105D01*
X116180780Y-130997896D01*
X115959440Y-131089352D01*
X115789947Y-131258549D01*
X115698105Y-131479729D01*
X115697896Y-131719220D01*
X112502000Y-131719220D01*
X112502000Y-127478434D01*
X112721590Y-127667615D01*
X113108000Y-127795000D01*
X113408000Y-127795000D01*
X113408000Y-126887000D01*
X113662000Y-126887000D01*
X113662000Y-127795000D01*
X113962000Y-127795000D01*
X114348410Y-127667615D01*
X114656658Y-127402053D01*
X114829666Y-127046123D01*
X114701998Y-126887000D01*
X113662000Y-126887000D01*
X113408000Y-126887000D01*
X113388000Y-126887000D01*
X113388000Y-126633000D01*
X113408000Y-126633000D01*
X113408000Y-125725000D01*
X113662000Y-125725000D01*
X113662000Y-126633000D01*
X114701998Y-126633000D01*
X114829666Y-126473877D01*
X114656658Y-126117947D01*
X114348410Y-125852385D01*
X113962000Y-125725000D01*
X113662000Y-125725000D01*
X113408000Y-125725000D01*
X113108000Y-125725000D01*
X112827000Y-125817635D01*
X112827000Y-122955000D01*
X113180615Y-122955000D01*
X113180615Y-124655000D01*
X113206903Y-124794708D01*
X113289470Y-124923020D01*
X113415453Y-125009101D01*
X113565000Y-125039385D01*
X115265000Y-125039385D01*
X115404708Y-125013097D01*
X115533020Y-124930530D01*
X115619101Y-124804547D01*
X115649385Y-124655000D01*
X115649385Y-123780962D01*
X115728000Y-123780962D01*
X115728000Y-123829038D01*
X115821400Y-124298591D01*
X116087380Y-124696658D01*
X116485447Y-124962638D01*
X116773000Y-125019836D01*
X116773000Y-130000000D01*
X116813115Y-130201674D01*
X116927355Y-130372645D01*
X117098326Y-130486885D01*
X117300000Y-130527000D01*
X117681710Y-130527000D01*
X117977355Y-130822645D01*
X118148325Y-130936885D01*
X118350000Y-130977000D01*
X118919168Y-130977000D01*
X118986830Y-131044780D01*
X119244751Y-131151878D01*
X119450242Y-131152058D01*
X119489526Y-131247132D01*
X119492221Y-131249832D01*
X119490220Y-131251830D01*
X119450263Y-131348056D01*
X119245976Y-131347878D01*
X118987868Y-131454526D01*
X118790220Y-131651830D01*
X118683122Y-131909751D01*
X118682878Y-132189024D01*
X118789526Y-132447132D01*
X118792221Y-132449832D01*
X118790220Y-132451830D01*
X118683122Y-132709751D01*
X118682878Y-132989024D01*
X118789526Y-133247132D01*
X118792221Y-133249832D01*
X118790220Y-133251830D01*
X118683122Y-133509751D01*
X118682878Y-133789024D01*
X118789526Y-134047132D01*
X118986830Y-134244780D01*
X119144742Y-134310351D01*
X119146283Y-134327262D01*
X119153630Y-134345000D01*
X119058000Y-134345000D01*
X118671590Y-134472385D01*
X118363342Y-134737947D01*
X118190334Y-135093877D01*
X118318002Y-135253000D01*
X119358000Y-135253000D01*
X119358000Y-135233000D01*
X119612000Y-135233000D01*
X119612000Y-135253000D01*
X119632000Y-135253000D01*
X119632000Y-135507000D01*
X119612000Y-135507000D01*
X119612000Y-135527000D01*
X119358000Y-135527000D01*
X119358000Y-135507000D01*
X118318002Y-135507000D01*
X118190334Y-135666123D01*
X118363342Y-136022053D01*
X118385050Y-136040755D01*
X118348105Y-136129729D01*
X118347896Y-136369220D01*
X118439352Y-136590560D01*
X118608549Y-136760053D01*
X118829729Y-136851895D01*
X119069220Y-136852104D01*
X119290560Y-136760648D01*
X119460053Y-136591451D01*
X119533322Y-136415000D01*
X119574983Y-136415000D01*
X119548105Y-136479729D01*
X119547896Y-136719220D01*
X119639352Y-136940560D01*
X119808549Y-137110053D01*
X120029729Y-137201895D01*
X120269220Y-137202104D01*
X120490560Y-137110648D01*
X120660053Y-136941451D01*
X120751895Y-136720271D01*
X120752104Y-136480780D01*
X120660648Y-136259440D01*
X120508281Y-136106807D01*
X120606658Y-136022053D01*
X120756159Y-135714483D01*
X121003644Y-135665255D01*
X121231389Y-135513081D01*
X121383563Y-135285336D01*
X121437000Y-135016692D01*
X121437000Y-134683308D01*
X121383563Y-134414664D01*
X121231389Y-134186919D01*
X121050434Y-134066009D01*
X121023717Y-133772738D01*
X120944827Y-133582279D01*
X120747675Y-133566930D01*
X120264605Y-134050000D01*
X120278748Y-134064143D01*
X120099143Y-134243748D01*
X120085000Y-134229605D01*
X119955323Y-134359282D01*
X119912000Y-134345000D01*
X119610395Y-134345000D01*
X119659075Y-134296320D01*
X119782132Y-134245474D01*
X119979780Y-134048170D01*
X120051386Y-133875724D01*
X120070858Y-133856253D01*
X120085000Y-133870395D01*
X120568070Y-133387325D01*
X120552721Y-133190173D01*
X120312761Y-133115457D01*
X120482132Y-133045474D01*
X120679780Y-132848170D01*
X120786878Y-132590249D01*
X120787122Y-132310976D01*
X120680474Y-132052868D01*
X120677779Y-132050168D01*
X120679780Y-132048170D01*
X120786878Y-131790249D01*
X120787122Y-131510976D01*
X120680474Y-131252868D01*
X120677779Y-131250168D01*
X120679780Y-131248170D01*
X120786878Y-130990249D01*
X120787122Y-130710976D01*
X120680474Y-130452868D01*
X120677779Y-130450168D01*
X120679780Y-130448170D01*
X120786878Y-130190249D01*
X120787122Y-129910976D01*
X120680474Y-129652868D01*
X120483170Y-129455220D01*
X120330075Y-129391649D01*
X120362262Y-129388717D01*
X120552721Y-129309827D01*
X120558546Y-129235000D01*
X121693000Y-129235000D01*
X121727406Y-129407973D01*
X121825388Y-129554612D01*
X121835388Y-129564612D01*
X121982027Y-129662594D01*
X122155000Y-129697000D01*
X122318977Y-129664383D01*
X122529729Y-129751895D01*
X122769220Y-129752104D01*
X122990560Y-129660648D01*
X123160053Y-129491451D01*
X123251895Y-129270271D01*
X123252104Y-129030780D01*
X123160648Y-128809440D01*
X122991451Y-128639947D01*
X122770271Y-128548105D01*
X122530780Y-128547896D01*
X122309440Y-128639352D01*
X122162128Y-128786407D01*
X122145000Y-128783000D01*
X121972027Y-128817406D01*
X121825388Y-128915388D01*
X121727406Y-129062027D01*
X121693000Y-129235000D01*
X120558546Y-129235000D01*
X120568070Y-129112675D01*
X120085000Y-128629605D01*
X120070858Y-128643748D01*
X120051236Y-128624126D01*
X119980474Y-128452868D01*
X119783170Y-128255220D01*
X119659094Y-128203699D01*
X119610395Y-128155000D01*
X119912000Y-128155000D01*
X119955323Y-128140718D01*
X120085000Y-128270395D01*
X120099143Y-128256253D01*
X120278748Y-128435858D01*
X120264605Y-128450000D01*
X120747675Y-128933070D01*
X120944827Y-128917721D01*
X121058366Y-128553076D01*
X121034036Y-128286006D01*
X121132132Y-128245474D01*
X121329780Y-128048170D01*
X121436878Y-127790249D01*
X121437122Y-127510976D01*
X121330474Y-127252868D01*
X121133170Y-127055220D01*
X121132929Y-127055120D01*
X121240560Y-127010648D01*
X121410053Y-126841451D01*
X121501895Y-126620271D01*
X121502104Y-126380780D01*
X121410648Y-126159440D01*
X121241451Y-125989947D01*
X121020271Y-125898105D01*
X120780780Y-125897896D01*
X120559440Y-125989352D01*
X120389947Y-126158549D01*
X120349364Y-126256283D01*
X120298410Y-126212385D01*
X119912000Y-126085000D01*
X119612000Y-126085000D01*
X119612000Y-126993000D01*
X119632000Y-126993000D01*
X119632000Y-127247000D01*
X119612000Y-127247000D01*
X119612000Y-127267000D01*
X119358000Y-127267000D01*
X119358000Y-127247000D01*
X118318002Y-127247000D01*
X118190334Y-127406123D01*
X118363342Y-127762053D01*
X118671590Y-128027615D01*
X119058000Y-128155000D01*
X119171393Y-128155000D01*
X119162926Y-128182194D01*
X118987868Y-128254526D01*
X118790220Y-128451830D01*
X118683122Y-128709751D01*
X118682878Y-128989024D01*
X118789526Y-129247132D01*
X118792221Y-129249832D01*
X118790220Y-129251830D01*
X118683122Y-129509751D01*
X118682878Y-129789024D01*
X118738236Y-129923000D01*
X118568290Y-129923000D01*
X118272645Y-129627355D01*
X118101675Y-129513115D01*
X117900000Y-129473000D01*
X117827000Y-129473000D01*
X117827000Y-126833877D01*
X118190334Y-126833877D01*
X118318002Y-126993000D01*
X119358000Y-126993000D01*
X119358000Y-126085000D01*
X119058000Y-126085000D01*
X118671590Y-126212385D01*
X118363342Y-126477947D01*
X118190334Y-126833877D01*
X117827000Y-126833877D01*
X117827000Y-124690103D01*
X118066277Y-124332000D01*
X119636710Y-124332000D01*
X121780500Y-126475790D01*
X121780500Y-127582500D01*
X121820615Y-127784174D01*
X121934855Y-127955145D01*
X122105826Y-128069385D01*
X122307500Y-128109500D01*
X123164210Y-128109500D01*
X123773000Y-128718290D01*
X123773000Y-129671551D01*
X123741451Y-129639947D01*
X123520271Y-129548105D01*
X123280780Y-129547896D01*
X123059440Y-129639352D01*
X122889947Y-129808549D01*
X122798105Y-130029729D01*
X122798047Y-130096642D01*
X122741451Y-130039947D01*
X122520271Y-129948105D01*
X122280780Y-129947896D01*
X122059440Y-130039352D01*
X121889947Y-130208549D01*
X121798105Y-130429729D01*
X121797896Y-130669220D01*
X121889352Y-130890560D01*
X122058549Y-131060053D01*
X122150530Y-131098247D01*
X121989947Y-131258549D01*
X121898105Y-131479729D01*
X121897896Y-131719220D01*
X121989352Y-131940560D01*
X122158549Y-132110053D01*
X122379729Y-132201895D01*
X122619220Y-132202104D01*
X122840560Y-132110648D01*
X123010053Y-131941451D01*
X123085475Y-131759815D01*
X123318290Y-131527000D01*
X123900000Y-131527000D01*
X124101675Y-131486885D01*
X124272645Y-131372645D01*
X124672645Y-130972646D01*
X124759054Y-130843325D01*
X124786885Y-130801674D01*
X124827000Y-130600000D01*
X124827000Y-130084073D01*
X128622883Y-130084073D01*
X128725733Y-130332989D01*
X128916010Y-130523598D01*
X129164746Y-130626882D01*
X129434073Y-130627117D01*
X129682989Y-130524267D01*
X129873598Y-130333990D01*
X129976882Y-130085254D01*
X129977117Y-129815927D01*
X129874267Y-129567011D01*
X129683990Y-129376402D01*
X129435254Y-129273118D01*
X129165927Y-129272883D01*
X128917011Y-129375733D01*
X128726402Y-129566010D01*
X128623118Y-129814746D01*
X128622883Y-130084073D01*
X124827000Y-130084073D01*
X124827000Y-128500000D01*
X124817625Y-128452868D01*
X124786885Y-128298325D01*
X124672645Y-128127355D01*
X124654790Y-128109500D01*
X126074210Y-128109500D01*
X126547940Y-128583230D01*
X126547883Y-128649073D01*
X126650733Y-128897989D01*
X126841010Y-129088598D01*
X127089746Y-129191882D01*
X127359073Y-129192117D01*
X127607989Y-129089267D01*
X127798598Y-128898990D01*
X127901882Y-128650254D01*
X127901940Y-128583350D01*
X128483290Y-128002000D01*
X130131710Y-128002000D01*
X132647710Y-130518000D01*
X131705000Y-130518000D01*
X131503326Y-130558115D01*
X131332355Y-130672354D01*
X130552355Y-131452355D01*
X130438115Y-131623325D01*
X130432445Y-131651830D01*
X130398000Y-131825000D01*
X130398000Y-132060463D01*
X130368990Y-132031402D01*
X130120254Y-131928118D01*
X129850927Y-131927883D01*
X129602011Y-132030733D01*
X129411402Y-132221010D01*
X129308118Y-132469746D01*
X129307883Y-132739073D01*
X129410733Y-132987989D01*
X129601010Y-133178598D01*
X129797960Y-133260379D01*
X129797883Y-133349073D01*
X129900733Y-133597989D01*
X129948000Y-133645338D01*
X129948000Y-134498038D01*
X129770927Y-134497883D01*
X129522011Y-134600733D01*
X129331402Y-134791010D01*
X129228118Y-135039746D01*
X129227908Y-135280191D01*
X129030254Y-135198118D01*
X128760927Y-135197883D01*
X128512011Y-135300733D01*
X128321402Y-135491010D01*
X128218118Y-135739746D01*
X128217925Y-135960500D01*
X127930021Y-135960500D01*
X127952000Y-135850000D01*
X127952000Y-134745507D01*
X127998598Y-134698990D01*
X128101882Y-134450254D01*
X128102117Y-134180927D01*
X127999267Y-133932011D01*
X127808990Y-133741402D01*
X127560254Y-133638118D01*
X127290927Y-133637883D01*
X127042011Y-133740733D01*
X126851402Y-133931010D01*
X126748118Y-134179746D01*
X126747883Y-134449073D01*
X126850733Y-134697989D01*
X126898000Y-134745338D01*
X126898000Y-135631710D01*
X126414858Y-136114852D01*
X126414855Y-136114854D01*
X125602355Y-136927355D01*
X125488115Y-137098325D01*
X125483579Y-137121131D01*
X125345944Y-137258766D01*
X125320271Y-137248105D01*
X125080780Y-137247896D01*
X124859440Y-137339352D01*
X124689947Y-137508549D01*
X124598105Y-137729729D01*
X124597896Y-137969220D01*
X124689352Y-138190560D01*
X124858549Y-138360053D01*
X125079729Y-138451895D01*
X125319220Y-138452104D01*
X125448000Y-138398893D01*
X125448000Y-140754452D01*
X125428000Y-140855000D01*
X125468115Y-141056675D01*
X125582355Y-141227645D01*
X126273000Y-141918290D01*
X126273000Y-143306710D01*
X124977355Y-144602355D01*
X124863115Y-144773325D01*
X124863115Y-144773326D01*
X124823000Y-144975000D01*
X124823000Y-146056710D01*
X121971710Y-148908000D01*
X118206277Y-148908000D01*
X117962620Y-148543342D01*
X117564553Y-148277362D01*
X117095000Y-148183962D01*
X116625447Y-148277362D01*
X116227380Y-148543342D01*
X115961400Y-148941409D01*
X115868000Y-149410962D01*
X115868000Y-149459038D01*
X115961400Y-149928591D01*
X116227380Y-150326658D01*
X116625447Y-150592638D01*
X117095000Y-150686038D01*
X117564553Y-150592638D01*
X117962620Y-150326658D01*
X118206277Y-149962000D01*
X122190000Y-149962000D01*
X122391675Y-149921885D01*
X122562645Y-149807645D01*
X122830290Y-149540000D01*
X131648962Y-149540000D01*
X131742362Y-150009553D01*
X132008342Y-150407620D01*
X132406409Y-150673600D01*
X132875962Y-150767000D01*
X132924038Y-150767000D01*
X133393591Y-150673600D01*
X133791658Y-150407620D01*
X134057638Y-150009553D01*
X134151038Y-149540000D01*
X134111256Y-149340000D01*
X138098962Y-149340000D01*
X138192362Y-149809553D01*
X138458342Y-150207620D01*
X138856409Y-150473600D01*
X139325962Y-150567000D01*
X139374038Y-150567000D01*
X139843591Y-150473600D01*
X140241658Y-150207620D01*
X140507638Y-149809553D01*
X140601038Y-149340000D01*
X140569831Y-149183110D01*
X144158524Y-149183110D01*
X144279845Y-149413000D01*
X145473000Y-149413000D01*
X145473000Y-149393000D01*
X145727000Y-149393000D01*
X145727000Y-149413000D01*
X146920155Y-149413000D01*
X147041476Y-149183110D01*
X146871645Y-148773076D01*
X146481358Y-148344817D01*
X146246209Y-148234385D01*
X146450000Y-148234385D01*
X146589708Y-148208097D01*
X146718020Y-148125530D01*
X146804101Y-147999547D01*
X146834385Y-147850000D01*
X146834385Y-146150000D01*
X146808097Y-146010292D01*
X146725530Y-145881980D01*
X146599547Y-145795899D01*
X146450000Y-145765615D01*
X144750000Y-145765615D01*
X144610292Y-145791903D01*
X144481980Y-145874470D01*
X144395899Y-146000453D01*
X144365615Y-146150000D01*
X144365615Y-147850000D01*
X144391903Y-147989708D01*
X144474470Y-148118020D01*
X144600453Y-148204101D01*
X144750000Y-148234385D01*
X144953791Y-148234385D01*
X144718642Y-148344817D01*
X144328355Y-148773076D01*
X144158524Y-149183110D01*
X140569831Y-149183110D01*
X140507638Y-148870447D01*
X140241658Y-148472380D01*
X139843591Y-148206400D01*
X139374038Y-148113000D01*
X139325962Y-148113000D01*
X138856409Y-148206400D01*
X138458342Y-148472380D01*
X138192362Y-148870447D01*
X138098962Y-149340000D01*
X134111256Y-149340000D01*
X134057638Y-149070447D01*
X133791658Y-148672380D01*
X133393591Y-148406400D01*
X132924038Y-148313000D01*
X132875962Y-148313000D01*
X132406409Y-148406400D01*
X132008342Y-148672380D01*
X131742362Y-149070447D01*
X131648962Y-149540000D01*
X122830290Y-149540000D01*
X125722645Y-146647645D01*
X125836885Y-146476675D01*
X125877000Y-146275000D01*
X125877000Y-145193290D01*
X125973000Y-145097290D01*
X125973000Y-146299362D01*
X125898105Y-146479729D01*
X125897896Y-146719220D01*
X125989352Y-146940560D01*
X126158549Y-147110053D01*
X126379729Y-147201895D01*
X126619220Y-147202104D01*
X126840560Y-147110648D01*
X127010053Y-146941451D01*
X127101895Y-146720271D01*
X127102104Y-146480780D01*
X127027000Y-146299015D01*
X127027000Y-146150000D01*
X131665615Y-146150000D01*
X131665615Y-147850000D01*
X131691903Y-147989708D01*
X131774470Y-148118020D01*
X131900453Y-148204101D01*
X132050000Y-148234385D01*
X133750000Y-148234385D01*
X133889708Y-148208097D01*
X134018020Y-148125530D01*
X134104101Y-147999547D01*
X134134385Y-147850000D01*
X134134385Y-146150000D01*
X134108097Y-146010292D01*
X134069300Y-145950000D01*
X138115615Y-145950000D01*
X138115615Y-147650000D01*
X138141903Y-147789708D01*
X138224470Y-147918020D01*
X138350453Y-148004101D01*
X138500000Y-148034385D01*
X140200000Y-148034385D01*
X140339708Y-148008097D01*
X140468020Y-147925530D01*
X140554101Y-147799547D01*
X140584385Y-147650000D01*
X140584385Y-145950000D01*
X140558097Y-145810292D01*
X140475530Y-145681980D01*
X140349547Y-145595899D01*
X140200000Y-145565615D01*
X138500000Y-145565615D01*
X138360292Y-145591903D01*
X138231980Y-145674470D01*
X138145899Y-145800453D01*
X138115615Y-145950000D01*
X134069300Y-145950000D01*
X134025530Y-145881980D01*
X133899547Y-145795899D01*
X133750000Y-145765615D01*
X132050000Y-145765615D01*
X131910292Y-145791903D01*
X131781980Y-145874470D01*
X131695899Y-146000453D01*
X131665615Y-146150000D01*
X127027000Y-146150000D01*
X127027000Y-144043290D01*
X127172645Y-143897645D01*
X127286885Y-143726674D01*
X127327000Y-143525000D01*
X127327000Y-143419220D01*
X128397896Y-143419220D01*
X128489352Y-143640560D01*
X128658549Y-143810053D01*
X128879729Y-143901895D01*
X129119220Y-143902104D01*
X129340560Y-143810648D01*
X129510053Y-143641451D01*
X129519284Y-143619220D01*
X130097896Y-143619220D01*
X130189352Y-143840560D01*
X130358549Y-144010053D01*
X130579729Y-144101895D01*
X130819220Y-144102104D01*
X131040560Y-144010648D01*
X131167356Y-143884073D01*
X142172883Y-143884073D01*
X142275733Y-144132989D01*
X142466010Y-144323598D01*
X142714746Y-144426882D01*
X142984073Y-144427117D01*
X143232989Y-144324267D01*
X143423598Y-144133990D01*
X143526882Y-143885254D01*
X143527117Y-143615927D01*
X143424267Y-143367011D01*
X143233990Y-143176402D01*
X142985254Y-143073118D01*
X142715927Y-143072883D01*
X142467011Y-143175733D01*
X142276402Y-143366010D01*
X142173118Y-143614746D01*
X142172883Y-143884073D01*
X131167356Y-143884073D01*
X131210053Y-143841451D01*
X131301895Y-143620271D01*
X131302104Y-143380780D01*
X131210648Y-143159440D01*
X131041451Y-142989947D01*
X130820271Y-142898105D01*
X130580780Y-142897896D01*
X130359440Y-142989352D01*
X130189947Y-143158549D01*
X130098105Y-143379729D01*
X130097896Y-143619220D01*
X129519284Y-143619220D01*
X129601895Y-143420271D01*
X129602104Y-143180780D01*
X129510648Y-142959440D01*
X129341451Y-142789947D01*
X129120271Y-142698105D01*
X128880780Y-142697896D01*
X128659440Y-142789352D01*
X128489947Y-142958549D01*
X128398105Y-143179729D01*
X128397896Y-143419220D01*
X127327000Y-143419220D01*
X127327000Y-141700000D01*
X127286885Y-141498326D01*
X127286885Y-141498325D01*
X127172645Y-141327355D01*
X126502000Y-140656710D01*
X126502000Y-137518290D01*
X126818291Y-137202000D01*
X126825000Y-137202000D01*
X126997973Y-137167594D01*
X127144612Y-137069612D01*
X127199724Y-137014500D01*
X135198000Y-137014500D01*
X135198000Y-138625000D01*
X135232393Y-138797910D01*
X135200927Y-138797883D01*
X134952011Y-138900733D01*
X134761402Y-139091010D01*
X134658118Y-139339746D01*
X134657883Y-139609073D01*
X134760733Y-139857989D01*
X134951010Y-140048598D01*
X135199746Y-140151882D01*
X135469073Y-140152117D01*
X135717989Y-140049267D01*
X135908598Y-139858990D01*
X136003052Y-139631520D01*
X136123325Y-139711885D01*
X136236756Y-139734447D01*
X136168118Y-139899746D01*
X136167883Y-140169073D01*
X136270733Y-140417989D01*
X136461010Y-140608598D01*
X136709746Y-140711882D01*
X136979073Y-140712117D01*
X137227989Y-140609267D01*
X137237175Y-140600097D01*
X137302355Y-140697645D01*
X139372355Y-142767645D01*
X139543325Y-142881885D01*
X139745000Y-142922000D01*
X141051314Y-142922000D01*
X141048105Y-142929729D01*
X141047896Y-143169220D01*
X141139352Y-143390560D01*
X141308549Y-143560053D01*
X141529729Y-143651895D01*
X141769220Y-143652104D01*
X141990560Y-143560648D01*
X142160053Y-143391451D01*
X142251895Y-143170271D01*
X142252104Y-142930780D01*
X142160648Y-142709440D01*
X142027315Y-142575874D01*
X142032594Y-142567973D01*
X142033904Y-142561386D01*
X142806511Y-141788779D01*
X146727857Y-141788779D01*
X146853495Y-142092846D01*
X147085930Y-142325688D01*
X147389778Y-142451856D01*
X147718779Y-142452143D01*
X148022846Y-142326505D01*
X148255688Y-142094070D01*
X148381856Y-141790222D01*
X148382143Y-141461221D01*
X148256505Y-141157154D01*
X148024070Y-140924312D01*
X147720222Y-140798144D01*
X147391221Y-140797857D01*
X147087154Y-140923495D01*
X146854312Y-141155930D01*
X146728144Y-141459778D01*
X146727857Y-141788779D01*
X142806511Y-141788779D01*
X143097645Y-141497645D01*
X143211885Y-141326675D01*
X143227534Y-141248000D01*
X143235319Y-141208860D01*
X143242594Y-141197973D01*
X143247561Y-141173000D01*
X143277000Y-141025000D01*
X143277000Y-138788779D01*
X146727857Y-138788779D01*
X146853495Y-139092846D01*
X147085930Y-139325688D01*
X147389778Y-139451856D01*
X147718779Y-139452143D01*
X148022846Y-139326505D01*
X148255688Y-139094070D01*
X148381856Y-138790222D01*
X148382143Y-138461221D01*
X148256505Y-138157154D01*
X148024070Y-137924312D01*
X147720222Y-137798144D01*
X147391221Y-137797857D01*
X147087154Y-137923495D01*
X146854312Y-138155930D01*
X146728144Y-138459778D01*
X146727857Y-138788779D01*
X143277000Y-138788779D01*
X143277000Y-138085000D01*
X143242594Y-137912027D01*
X143235319Y-137901140D01*
X143211885Y-137783326D01*
X143137930Y-137672645D01*
X143097645Y-137612354D01*
X142707291Y-137222000D01*
X142815000Y-137222000D01*
X143016675Y-137181885D01*
X143187645Y-137067645D01*
X143673230Y-136582060D01*
X143739073Y-136582117D01*
X143987989Y-136479267D01*
X144035338Y-136432000D01*
X145895000Y-136432000D01*
X146096675Y-136391885D01*
X146267645Y-136277645D01*
X146922645Y-135622645D01*
X147036885Y-135451675D01*
X147077000Y-135250000D01*
X147077000Y-133490590D01*
X147151882Y-133310254D01*
X147152117Y-133040927D01*
X147049267Y-132792011D01*
X146858990Y-132601402D01*
X146610254Y-132498118D01*
X146340927Y-132497883D01*
X146092011Y-132600733D01*
X145901402Y-132791010D01*
X145798118Y-133039746D01*
X145797883Y-133309073D01*
X145900733Y-133557989D01*
X146023000Y-133680469D01*
X146023000Y-135031710D01*
X145676710Y-135378000D01*
X144035507Y-135378000D01*
X143988990Y-135331402D01*
X143740254Y-135228118D01*
X143470927Y-135227883D01*
X143222011Y-135330733D01*
X143031402Y-135521010D01*
X142928118Y-135769746D01*
X142928060Y-135836650D01*
X142596710Y-136168000D01*
X141865507Y-136168000D01*
X141818990Y-136121402D01*
X141570254Y-136018118D01*
X141300927Y-136017883D01*
X141052011Y-136120733D01*
X141004662Y-136168000D01*
X140080238Y-136168000D01*
X140176882Y-135935254D01*
X140176985Y-135817708D01*
X140379729Y-135901895D01*
X140619220Y-135902104D01*
X140840560Y-135810648D01*
X141010053Y-135641451D01*
X141101895Y-135420271D01*
X141102041Y-135253271D01*
X141258549Y-135410053D01*
X141479729Y-135501895D01*
X141719220Y-135502104D01*
X141940560Y-135410648D01*
X142110053Y-135241451D01*
X142201895Y-135020271D01*
X142202104Y-134780780D01*
X142110648Y-134559440D01*
X141941451Y-134389947D01*
X141720271Y-134298105D01*
X141480780Y-134297896D01*
X141259440Y-134389352D01*
X141089947Y-134558549D01*
X140998105Y-134779729D01*
X140997959Y-134946729D01*
X140841451Y-134789947D01*
X140620271Y-134698105D01*
X140380780Y-134697896D01*
X140216896Y-134765612D01*
X140091451Y-134639947D01*
X139870271Y-134548105D01*
X139630780Y-134547896D01*
X139488680Y-134606611D01*
X140111218Y-133984073D01*
X143097883Y-133984073D01*
X143200733Y-134232989D01*
X143391010Y-134423598D01*
X143639746Y-134526882D01*
X143909073Y-134527117D01*
X144157989Y-134424267D01*
X144348598Y-134233990D01*
X144451882Y-133985254D01*
X144452117Y-133715927D01*
X144349267Y-133467011D01*
X144158990Y-133276402D01*
X143910254Y-133173118D01*
X143640927Y-133172883D01*
X143392011Y-133275733D01*
X143201402Y-133466010D01*
X143098118Y-133714746D01*
X143097883Y-133984073D01*
X140111218Y-133984073D01*
X140272645Y-133822646D01*
X140386884Y-133651675D01*
X140386885Y-133651674D01*
X140427000Y-133450000D01*
X140427000Y-132134073D01*
X142997883Y-132134073D01*
X143100733Y-132382989D01*
X143291010Y-132573598D01*
X143539746Y-132676882D01*
X143809073Y-132677117D01*
X144057989Y-132574267D01*
X144248598Y-132383990D01*
X144351882Y-132135254D01*
X144352101Y-131884073D01*
X144947883Y-131884073D01*
X145050733Y-132132989D01*
X145241010Y-132323598D01*
X145489746Y-132426882D01*
X145759073Y-132427117D01*
X146007989Y-132324267D01*
X146198598Y-132133990D01*
X146301882Y-131885254D01*
X146302042Y-131701945D01*
X146499073Y-131702117D01*
X146747989Y-131599267D01*
X146938598Y-131408990D01*
X147041882Y-131160254D01*
X147042117Y-130890927D01*
X146939267Y-130642011D01*
X146748990Y-130451402D01*
X146500254Y-130348118D01*
X146230927Y-130347883D01*
X145982011Y-130450733D01*
X145791402Y-130641010D01*
X145688118Y-130889746D01*
X145687958Y-131073055D01*
X145490927Y-131072883D01*
X145242011Y-131175733D01*
X145051402Y-131366010D01*
X144948118Y-131614746D01*
X144947883Y-131884073D01*
X144352101Y-131884073D01*
X144352117Y-131865927D01*
X144249267Y-131617011D01*
X144058990Y-131426402D01*
X143810254Y-131323118D01*
X143540927Y-131322883D01*
X143292011Y-131425733D01*
X143101402Y-131616010D01*
X142998118Y-131864746D01*
X142997883Y-132134073D01*
X140427000Y-132134073D01*
X140427000Y-129459073D01*
X141922883Y-129459073D01*
X142025733Y-129707989D01*
X142216010Y-129898598D01*
X142464746Y-130001882D01*
X142734073Y-130002117D01*
X142982989Y-129899267D01*
X143173598Y-129708990D01*
X143276882Y-129460254D01*
X143277117Y-129190927D01*
X143174267Y-128942011D01*
X142983990Y-128751402D01*
X142735254Y-128648118D01*
X142465927Y-128647883D01*
X142217011Y-128750733D01*
X142026402Y-128941010D01*
X141923118Y-129189746D01*
X141922883Y-129459073D01*
X140427000Y-129459073D01*
X140427000Y-128019073D01*
X140437883Y-128019073D01*
X140540733Y-128267989D01*
X140731010Y-128458598D01*
X140979746Y-128561882D01*
X141249073Y-128562117D01*
X141401656Y-128499071D01*
X141501010Y-128598598D01*
X141749746Y-128701882D01*
X142019073Y-128702117D01*
X142267989Y-128599267D01*
X142458598Y-128408990D01*
X142544546Y-128202005D01*
X142600733Y-128337989D01*
X142791010Y-128528598D01*
X143039746Y-128631882D01*
X143309073Y-128632117D01*
X143557989Y-128529267D01*
X143748598Y-128338990D01*
X143851882Y-128090254D01*
X143852117Y-127820927D01*
X143749267Y-127572011D01*
X143558990Y-127381402D01*
X143310254Y-127278118D01*
X143040927Y-127277883D01*
X142792011Y-127380733D01*
X142601402Y-127571010D01*
X142515454Y-127777995D01*
X142459267Y-127642011D01*
X142268990Y-127451402D01*
X142020254Y-127348118D01*
X141750927Y-127347883D01*
X141598344Y-127410929D01*
X141498990Y-127311402D01*
X141250254Y-127208118D01*
X140980927Y-127207883D01*
X140732011Y-127310733D01*
X140541402Y-127501010D01*
X140438118Y-127749746D01*
X140437883Y-128019073D01*
X140427000Y-128019073D01*
X140427000Y-127493290D01*
X140817645Y-127102646D01*
X140872888Y-127019968D01*
X140929189Y-126938062D01*
X140929923Y-126934610D01*
X140931884Y-126931675D01*
X140951272Y-126834205D01*
X140958833Y-126798642D01*
X141023598Y-126733990D01*
X141126882Y-126485254D01*
X141127117Y-126215927D01*
X141024267Y-125967011D01*
X140976012Y-125918672D01*
X140975933Y-125884073D01*
X142797883Y-125884073D01*
X142900733Y-126132989D01*
X143091010Y-126323598D01*
X143339746Y-126426882D01*
X143609073Y-126427117D01*
X143857989Y-126324267D01*
X144048598Y-126133990D01*
X144151882Y-125885254D01*
X144152117Y-125615927D01*
X144049267Y-125367011D01*
X143858990Y-125176402D01*
X143610254Y-125073118D01*
X143340927Y-125072883D01*
X143092011Y-125175733D01*
X142901402Y-125366010D01*
X142798118Y-125614746D01*
X142797883Y-125884073D01*
X140975933Y-125884073D01*
X140971999Y-124168791D01*
X140951825Y-124068573D01*
X140935018Y-123984073D01*
X141297883Y-123984073D01*
X141400733Y-124232989D01*
X141591010Y-124423598D01*
X141839746Y-124526882D01*
X142109073Y-124527117D01*
X142123530Y-124521143D01*
X142200733Y-124707989D01*
X142391010Y-124898598D01*
X142639746Y-125001882D01*
X142909073Y-125002117D01*
X143157989Y-124899267D01*
X143348598Y-124708990D01*
X143451882Y-124460254D01*
X143452117Y-124190927D01*
X143349267Y-123942011D01*
X143158990Y-123751402D01*
X142910254Y-123648118D01*
X142640927Y-123647883D01*
X142626470Y-123653857D01*
X142549267Y-123467011D01*
X142358990Y-123276402D01*
X142110254Y-123173118D01*
X141840927Y-123172883D01*
X141592011Y-123275733D01*
X141401402Y-123466010D01*
X141298118Y-123714746D01*
X141297883Y-123984073D01*
X140935018Y-123984073D01*
X140931885Y-123968325D01*
X140931542Y-123967812D01*
X140931421Y-123967210D01*
X140874544Y-123882509D01*
X140817645Y-123797355D01*
X138397645Y-121377355D01*
X138226675Y-121263115D01*
X138025000Y-121223000D01*
X136843290Y-121223000D01*
X136079363Y-120459073D01*
X141347883Y-120459073D01*
X141450733Y-120707989D01*
X141641010Y-120898598D01*
X141889746Y-121001882D01*
X142159073Y-121002117D01*
X142407989Y-120899267D01*
X142598598Y-120708990D01*
X142701882Y-120460254D01*
X142702117Y-120190927D01*
X142599267Y-119942011D01*
X142408990Y-119751402D01*
X142160254Y-119648118D01*
X141890927Y-119647883D01*
X141642011Y-119750733D01*
X141451402Y-119941010D01*
X141348118Y-120189746D01*
X141347883Y-120459073D01*
X136079363Y-120459073D01*
X133754811Y-118134521D01*
X133785461Y-118145908D01*
X134435460Y-118121856D01*
X134924264Y-117919387D01*
X135022927Y-117652532D01*
X134050000Y-116679605D01*
X134035858Y-116693748D01*
X133856253Y-116514143D01*
X133870395Y-116500000D01*
X134229605Y-116500000D01*
X135202532Y-117472927D01*
X135469387Y-117374264D01*
X135675593Y-116819220D01*
X137447896Y-116819220D01*
X137539352Y-117040560D01*
X137708549Y-117210053D01*
X137929729Y-117301895D01*
X138169220Y-117302104D01*
X138390560Y-117210648D01*
X138560053Y-117041451D01*
X138651895Y-116820271D01*
X138652104Y-116580780D01*
X138560648Y-116359440D01*
X138391451Y-116189947D01*
X138170271Y-116098105D01*
X137930780Y-116097896D01*
X137709440Y-116189352D01*
X137539947Y-116358549D01*
X137448105Y-116579729D01*
X137447896Y-116819220D01*
X135675593Y-116819220D01*
X135695908Y-116764539D01*
X135671856Y-116114540D01*
X135469387Y-115625736D01*
X135316528Y-115569220D01*
X138097896Y-115569220D01*
X138189352Y-115790560D01*
X138358549Y-115960053D01*
X138579729Y-116051895D01*
X138819220Y-116052104D01*
X139040560Y-115960648D01*
X139210053Y-115791451D01*
X139301895Y-115570271D01*
X139302084Y-115353315D01*
X139458549Y-115510053D01*
X139679729Y-115601895D01*
X139919220Y-115602104D01*
X140140560Y-115510648D01*
X140310053Y-115341451D01*
X140401895Y-115120271D01*
X140402104Y-114880780D01*
X140310648Y-114659440D01*
X140141451Y-114489947D01*
X139920271Y-114398105D01*
X139680780Y-114397896D01*
X139459440Y-114489352D01*
X139289947Y-114658549D01*
X139198105Y-114879729D01*
X139197916Y-115096685D01*
X139041451Y-114939947D01*
X138820271Y-114848105D01*
X138580780Y-114847896D01*
X138359440Y-114939352D01*
X138189947Y-115108549D01*
X138098105Y-115329729D01*
X138097896Y-115569220D01*
X135316528Y-115569220D01*
X135202532Y-115527073D01*
X134229605Y-116500000D01*
X133870395Y-116500000D01*
X132897468Y-115527073D01*
X132630613Y-115625736D01*
X132404092Y-116235461D01*
X132425162Y-116804872D01*
X130967758Y-115347468D01*
X133077073Y-115347468D01*
X134050000Y-116320395D01*
X135022927Y-115347468D01*
X134924264Y-115080613D01*
X134314539Y-114854092D01*
X133664540Y-114878144D01*
X133175736Y-115080613D01*
X133077073Y-115347468D01*
X130967758Y-115347468D01*
X130522645Y-114902355D01*
X130351675Y-114788115D01*
X130150000Y-114748000D01*
X123734385Y-114748000D01*
X123734385Y-114550000D01*
X123708097Y-114410292D01*
X123625530Y-114281980D01*
X123499547Y-114195899D01*
X123350000Y-114165615D01*
X121650000Y-114165615D01*
X121510292Y-114191903D01*
X121381980Y-114274470D01*
X121295899Y-114400453D01*
X121265615Y-114550000D01*
X121265615Y-114748000D01*
X121193291Y-114748000D01*
X119317645Y-112872355D01*
X119146675Y-112758115D01*
X118945000Y-112718000D01*
X118106277Y-112718000D01*
X117862620Y-112353342D01*
X117464553Y-112087362D01*
X116995000Y-111993962D01*
X116525447Y-112087362D01*
X116127380Y-112353342D01*
X115861400Y-112751409D01*
X115768000Y-113220962D01*
X115768000Y-113269038D01*
X115861400Y-113738591D01*
X116127380Y-114136658D01*
X116468000Y-114364253D01*
X116468000Y-118932383D01*
X116107380Y-119173342D01*
X115841400Y-119571409D01*
X115748000Y-120040962D01*
X115748000Y-120089038D01*
X115841400Y-120558591D01*
X116107380Y-120956658D01*
X116468000Y-121197617D01*
X116468000Y-122659020D01*
X116087380Y-122913342D01*
X115821400Y-123311409D01*
X115728000Y-123780962D01*
X115649385Y-123780962D01*
X115649385Y-122955000D01*
X115623097Y-122815292D01*
X115540530Y-122686980D01*
X115414547Y-122600899D01*
X115265000Y-122570615D01*
X113565000Y-122570615D01*
X113425292Y-122596903D01*
X113296980Y-122679470D01*
X113210899Y-122805453D01*
X113180615Y-122955000D01*
X112827000Y-122955000D01*
X112827000Y-119215000D01*
X113200615Y-119215000D01*
X113200615Y-120915000D01*
X113226903Y-121054708D01*
X113309470Y-121183020D01*
X113435453Y-121269101D01*
X113585000Y-121299385D01*
X115285000Y-121299385D01*
X115424708Y-121273097D01*
X115553020Y-121190530D01*
X115639101Y-121064547D01*
X115669385Y-120915000D01*
X115669385Y-119215000D01*
X115643097Y-119075292D01*
X115560530Y-118946980D01*
X115434547Y-118860899D01*
X115285000Y-118830615D01*
X113585000Y-118830615D01*
X113445292Y-118856903D01*
X113316980Y-118939470D01*
X113230899Y-119065453D01*
X113200615Y-119215000D01*
X112827000Y-119215000D01*
X112827000Y-112395000D01*
X113220615Y-112395000D01*
X113220615Y-114095000D01*
X113246903Y-114234708D01*
X113329470Y-114363020D01*
X113455453Y-114449101D01*
X113605000Y-114479385D01*
X115305000Y-114479385D01*
X115444708Y-114453097D01*
X115573020Y-114370530D01*
X115659101Y-114244547D01*
X115689385Y-114095000D01*
X115689385Y-112395000D01*
X115663097Y-112255292D01*
X115580530Y-112126980D01*
X115454547Y-112040899D01*
X115305000Y-112010615D01*
X113605000Y-112010615D01*
X113465292Y-112036903D01*
X113336980Y-112119470D01*
X113250899Y-112245453D01*
X113220615Y-112395000D01*
X112827000Y-112395000D01*
X112827000Y-111807000D01*
X121885783Y-111807000D01*
X121608342Y-111992380D01*
G36*
X136370000Y-137222000D02*
X141004493Y-137222000D01*
X141051010Y-137268598D01*
X141299746Y-137371882D01*
X141366650Y-137371940D01*
X142198000Y-138203291D01*
X142198000Y-140906710D01*
X141236710Y-141868000D01*
X139963290Y-141868000D01*
X138202000Y-140106710D01*
X138202000Y-139550000D01*
X138161885Y-139348326D01*
X138106467Y-139265388D01*
X138047645Y-139177354D01*
X137722645Y-138852355D01*
X137551675Y-138738115D01*
X137350000Y-138698000D01*
X136587224Y-138698000D01*
X136252000Y-138362776D01*
X136252000Y-137198529D01*
X136370000Y-137222000D01*
X136370000Y-137222000D01*
G37*
X136370000Y-137222000D02*
X141004493Y-137222000D01*
X141051010Y-137268598D01*
X141299746Y-137371882D01*
X141366650Y-137371940D01*
X142198000Y-138203291D01*
X142198000Y-140906710D01*
X141236710Y-141868000D01*
X139963290Y-141868000D01*
X138202000Y-140106710D01*
X138202000Y-139550000D01*
X138161885Y-139348326D01*
X138106467Y-139265388D01*
X138047645Y-139177354D01*
X137722645Y-138852355D01*
X137551675Y-138738115D01*
X137350000Y-138698000D01*
X136587224Y-138698000D01*
X136252000Y-138362776D01*
X136252000Y-137198529D01*
X136370000Y-137222000D01*
G36*
X120602355Y-115647646D02*
X120773326Y-115761885D01*
X120975000Y-115802000D01*
X121265615Y-115802000D01*
X121265615Y-116250000D01*
X121291903Y-116389708D01*
X121374470Y-116518020D01*
X121500453Y-116604101D01*
X121650000Y-116634385D01*
X123350000Y-116634385D01*
X123489708Y-116608097D01*
X123618020Y-116525530D01*
X123704101Y-116399547D01*
X123734385Y-116250000D01*
X123734385Y-115802000D01*
X126065129Y-115802000D01*
X125904092Y-116235461D01*
X125928144Y-116885460D01*
X126130613Y-117374264D01*
X126397468Y-117472927D01*
X127370395Y-116500000D01*
X127356253Y-116485858D01*
X127535858Y-116306253D01*
X127550000Y-116320395D01*
X127564143Y-116306253D01*
X127743748Y-116485858D01*
X127729605Y-116500000D01*
X128702532Y-117472927D01*
X128969387Y-117374264D01*
X129195908Y-116764539D01*
X129171856Y-116114540D01*
X129042398Y-115802000D01*
X129931710Y-115802000D01*
X133759731Y-119630021D01*
X133271011Y-119831956D01*
X132883317Y-120218974D01*
X132673240Y-120724896D01*
X132672762Y-121272701D01*
X132881956Y-121778989D01*
X133268974Y-122166683D01*
X133774896Y-122376760D01*
X134010427Y-122376966D01*
X133859440Y-122439352D01*
X133689947Y-122608549D01*
X133598105Y-122829729D01*
X133597896Y-123069220D01*
X133689352Y-123290560D01*
X133858549Y-123460053D01*
X134079729Y-123551895D01*
X134319220Y-123552104D01*
X134519814Y-123469220D01*
X134997896Y-123469220D01*
X135089352Y-123690560D01*
X135258549Y-123860053D01*
X135479729Y-123951895D01*
X135719220Y-123952104D01*
X135940560Y-123860648D01*
X136110053Y-123691451D01*
X136201895Y-123470271D01*
X136202104Y-123230780D01*
X136110648Y-123009440D01*
X135941451Y-122839947D01*
X135720271Y-122748105D01*
X135480780Y-122747896D01*
X135259440Y-122839352D01*
X135089947Y-123008549D01*
X134998105Y-123229729D01*
X134997896Y-123469220D01*
X134519814Y-123469220D01*
X134540560Y-123460648D01*
X134710053Y-123291451D01*
X134801895Y-123070271D01*
X134802104Y-122830780D01*
X134710648Y-122609440D01*
X134541451Y-122439947D01*
X134356650Y-122363211D01*
X134828989Y-122168044D01*
X135216683Y-121781026D01*
X135420321Y-121290611D01*
X136252355Y-122122645D01*
X136423325Y-122236885D01*
X136625000Y-122277000D01*
X137071551Y-122277000D01*
X137039947Y-122308549D01*
X136948105Y-122529729D01*
X136947896Y-122769220D01*
X137039352Y-122990560D01*
X137048643Y-122999868D01*
X137039947Y-123008549D01*
X136948105Y-123229729D01*
X136947896Y-123469220D01*
X137039352Y-123690560D01*
X137208549Y-123860053D01*
X137429729Y-123951895D01*
X137669220Y-123952104D01*
X137890560Y-123860648D01*
X138060053Y-123691451D01*
X138151895Y-123470271D01*
X138152104Y-123230780D01*
X138060648Y-123009440D01*
X138051357Y-123000132D01*
X138060053Y-122991451D01*
X138151895Y-122770271D01*
X138152024Y-122622314D01*
X139918500Y-124388790D01*
X139922013Y-125920478D01*
X139876402Y-125966010D01*
X139773118Y-126214746D01*
X139772883Y-126484073D01*
X139823393Y-126606316D01*
X139527355Y-126902355D01*
X139413115Y-127073325D01*
X139385958Y-127209855D01*
X139373000Y-127275000D01*
X139373000Y-133231709D01*
X137427355Y-135177355D01*
X137313115Y-135348325D01*
X137299652Y-135416010D01*
X137273000Y-135550000D01*
X137273000Y-136168000D01*
X136633213Y-136168000D01*
X136572645Y-136077355D01*
X136497301Y-136027011D01*
X136092228Y-135621938D01*
X136240560Y-135560648D01*
X136410053Y-135391451D01*
X136501895Y-135170271D01*
X136502104Y-134930780D01*
X136410648Y-134709440D01*
X136241451Y-134539947D01*
X136020271Y-134448105D01*
X135780780Y-134447896D01*
X135559440Y-134539352D01*
X135389947Y-134708549D01*
X135328007Y-134857717D01*
X134827000Y-134356710D01*
X134827000Y-134010666D01*
X134839352Y-134040560D01*
X135008549Y-134210053D01*
X135229729Y-134301895D01*
X135469220Y-134302104D01*
X135690560Y-134210648D01*
X135850042Y-134051444D01*
X135908549Y-134110053D01*
X136129729Y-134201895D01*
X136369220Y-134202104D01*
X136590560Y-134110648D01*
X136760053Y-133941451D01*
X136851895Y-133720271D01*
X136852104Y-133480780D01*
X136760648Y-133259440D01*
X136591451Y-133089947D01*
X136370271Y-132998105D01*
X136130780Y-132997896D01*
X135909440Y-133089352D01*
X135749958Y-133248556D01*
X135691451Y-133189947D01*
X135470271Y-133098105D01*
X135230780Y-133097896D01*
X135009440Y-133189352D01*
X134839947Y-133358549D01*
X134827000Y-133389729D01*
X134827000Y-131525000D01*
X134792594Y-131352027D01*
X134783298Y-131338115D01*
X134728287Y-131255784D01*
X134711885Y-131173326D01*
X134644771Y-131072883D01*
X134628862Y-131049073D01*
X134807883Y-131049073D01*
X134910733Y-131297989D01*
X135101010Y-131488598D01*
X135349746Y-131591882D01*
X135619073Y-131592117D01*
X135867989Y-131489267D01*
X136058598Y-131298990D01*
X136161882Y-131050254D01*
X136162117Y-130780927D01*
X136059267Y-130532011D01*
X135868990Y-130341402D01*
X135620254Y-130238118D01*
X135350927Y-130237883D01*
X135102011Y-130340733D01*
X134911402Y-130531010D01*
X134808118Y-130779746D01*
X134807883Y-131049073D01*
X134628862Y-131049073D01*
X134597645Y-131002354D01*
X134572060Y-130976769D01*
X134572117Y-130910927D01*
X134469267Y-130662011D01*
X134278990Y-130471402D01*
X134030254Y-130368118D01*
X133988371Y-130368081D01*
X132539510Y-128919220D01*
X134397896Y-128919220D01*
X134489352Y-129140560D01*
X134658549Y-129310053D01*
X134879729Y-129401895D01*
X135119220Y-129402104D01*
X135340560Y-129310648D01*
X135510053Y-129141451D01*
X135601895Y-128920271D01*
X135602104Y-128680780D01*
X135510648Y-128459440D01*
X135341451Y-128289947D01*
X135120271Y-128198105D01*
X134880780Y-128197896D01*
X134659440Y-128289352D01*
X134489947Y-128458549D01*
X134398105Y-128679729D01*
X134397896Y-128919220D01*
X132539510Y-128919220D01*
X130722645Y-127102355D01*
X130551675Y-126988115D01*
X130350000Y-126948000D01*
X130337500Y-126950486D01*
X130325000Y-126948000D01*
X128265000Y-126948000D01*
X128063325Y-126988115D01*
X127892355Y-127102355D01*
X127225000Y-127769710D01*
X126665145Y-127209855D01*
X126494175Y-127095615D01*
X126292500Y-127055500D01*
X122834500Y-127055500D01*
X122834500Y-126319220D01*
X125097896Y-126319220D01*
X125189352Y-126540560D01*
X125358549Y-126710053D01*
X125579729Y-126801895D01*
X125819220Y-126802104D01*
X126040560Y-126710648D01*
X126210053Y-126541451D01*
X126260807Y-126419220D01*
X133897896Y-126419220D01*
X133989352Y-126640560D01*
X134158549Y-126810053D01*
X134379729Y-126901895D01*
X134619220Y-126902104D01*
X134840560Y-126810648D01*
X135010053Y-126641451D01*
X135101895Y-126420271D01*
X135102104Y-126180780D01*
X135010648Y-125959440D01*
X134841451Y-125789947D01*
X134620271Y-125698105D01*
X134380780Y-125697896D01*
X134159440Y-125789352D01*
X133989947Y-125958549D01*
X133898105Y-126179729D01*
X133897896Y-126419220D01*
X126260807Y-126419220D01*
X126301895Y-126320271D01*
X126302104Y-126080780D01*
X126210648Y-125859440D01*
X126041451Y-125689947D01*
X125820271Y-125598105D01*
X125580780Y-125597896D01*
X125359440Y-125689352D01*
X125189947Y-125858549D01*
X125098105Y-126079729D01*
X125097896Y-126319220D01*
X122834500Y-126319220D01*
X122834500Y-126257500D01*
X122794385Y-126055826D01*
X122680145Y-125884855D01*
X120227645Y-123432355D01*
X120056675Y-123318115D01*
X119855000Y-123278000D01*
X118066277Y-123278000D01*
X117984144Y-123155080D01*
X118444612Y-122694612D01*
X118542594Y-122547973D01*
X118577000Y-122375000D01*
X118577000Y-121272701D01*
X126172762Y-121272701D01*
X126381956Y-121778989D01*
X126768974Y-122166683D01*
X127274896Y-122376760D01*
X127822701Y-122377238D01*
X128328989Y-122168044D01*
X128716683Y-121781026D01*
X128926760Y-121275104D01*
X128927238Y-120727299D01*
X128718044Y-120221011D01*
X128331026Y-119833317D01*
X127825104Y-119623240D01*
X127277299Y-119622762D01*
X126771011Y-119831956D01*
X126383317Y-120218974D01*
X126173240Y-120724896D01*
X126172762Y-121272701D01*
X118577000Y-121272701D01*
X118577000Y-121215000D01*
X118542594Y-121042027D01*
X118475391Y-120941451D01*
X118444613Y-120895388D01*
X118108286Y-120559061D01*
X118108600Y-120558591D01*
X118149096Y-120355000D01*
X120823000Y-120355000D01*
X120857406Y-120527973D01*
X120955388Y-120674612D01*
X121102027Y-120772594D01*
X121275000Y-120807000D01*
X121447973Y-120772594D01*
X121527852Y-120719220D01*
X122597896Y-120719220D01*
X122689352Y-120940560D01*
X122858549Y-121110053D01*
X123079729Y-121201895D01*
X123319220Y-121202104D01*
X123540560Y-121110648D01*
X123710053Y-120941451D01*
X123801895Y-120720271D01*
X123802104Y-120480780D01*
X123710648Y-120259440D01*
X123541451Y-120089947D01*
X123320271Y-119998105D01*
X123080780Y-119997896D01*
X122859440Y-120089352D01*
X122689947Y-120258549D01*
X122598105Y-120479729D01*
X122597896Y-120719220D01*
X121527852Y-120719220D01*
X121594612Y-120674612D01*
X121604612Y-120664612D01*
X121702594Y-120517973D01*
X121737000Y-120345000D01*
X121737000Y-119625000D01*
X121702594Y-119452027D01*
X121604612Y-119305388D01*
X121457973Y-119207406D01*
X121285000Y-119173000D01*
X121112027Y-119207406D01*
X120965388Y-119305388D01*
X120867406Y-119452027D01*
X120833000Y-119625000D01*
X120833000Y-120304726D01*
X120823000Y-120355000D01*
X118149096Y-120355000D01*
X118202000Y-120089038D01*
X118202000Y-120040962D01*
X118108600Y-119571409D01*
X117861951Y-119202273D01*
X118269612Y-118794612D01*
X118367594Y-118647973D01*
X118402000Y-118475000D01*
X118402000Y-117229073D01*
X118437883Y-117229073D01*
X118540733Y-117477989D01*
X118731010Y-117668598D01*
X118979746Y-117771882D01*
X119249073Y-117772117D01*
X119497989Y-117669267D01*
X119514753Y-117652532D01*
X126577073Y-117652532D01*
X126675736Y-117919387D01*
X127285461Y-118145908D01*
X127935460Y-118121856D01*
X128424264Y-117919387D01*
X128522927Y-117652532D01*
X127550000Y-116679605D01*
X126577073Y-117652532D01*
X119514753Y-117652532D01*
X119688598Y-117478990D01*
X119791882Y-117230254D01*
X119792117Y-116960927D01*
X119689267Y-116712011D01*
X119498990Y-116521402D01*
X119250254Y-116418118D01*
X118980927Y-116417883D01*
X118732011Y-116520733D01*
X118541402Y-116711010D01*
X118438118Y-116959746D01*
X118437883Y-117229073D01*
X118402000Y-117229073D01*
X118402000Y-114200000D01*
X118367594Y-114027027D01*
X118269612Y-113880388D01*
X118161224Y-113772000D01*
X118726710Y-113772000D01*
X120602355Y-115647646D01*
X120602355Y-115647646D01*
G37*
X120602355Y-115647646D02*
X120773326Y-115761885D01*
X120975000Y-115802000D01*
X121265615Y-115802000D01*
X121265615Y-116250000D01*
X121291903Y-116389708D01*
X121374470Y-116518020D01*
X121500453Y-116604101D01*
X121650000Y-116634385D01*
X123350000Y-116634385D01*
X123489708Y-116608097D01*
X123618020Y-116525530D01*
X123704101Y-116399547D01*
X123734385Y-116250000D01*
X123734385Y-115802000D01*
X126065129Y-115802000D01*
X125904092Y-116235461D01*
X125928144Y-116885460D01*
X126130613Y-117374264D01*
X126397468Y-117472927D01*
X127370395Y-116500000D01*
X127356253Y-116485858D01*
X127535858Y-116306253D01*
X127550000Y-116320395D01*
X127564143Y-116306253D01*
X127743748Y-116485858D01*
X127729605Y-116500000D01*
X128702532Y-117472927D01*
X128969387Y-117374264D01*
X129195908Y-116764539D01*
X129171856Y-116114540D01*
X129042398Y-115802000D01*
X129931710Y-115802000D01*
X133759731Y-119630021D01*
X133271011Y-119831956D01*
X132883317Y-120218974D01*
X132673240Y-120724896D01*
X132672762Y-121272701D01*
X132881956Y-121778989D01*
X133268974Y-122166683D01*
X133774896Y-122376760D01*
X134010427Y-122376966D01*
X133859440Y-122439352D01*
X133689947Y-122608549D01*
X133598105Y-122829729D01*
X133597896Y-123069220D01*
X133689352Y-123290560D01*
X133858549Y-123460053D01*
X134079729Y-123551895D01*
X134319220Y-123552104D01*
X134519814Y-123469220D01*
X134997896Y-123469220D01*
X135089352Y-123690560D01*
X135258549Y-123860053D01*
X135479729Y-123951895D01*
X135719220Y-123952104D01*
X135940560Y-123860648D01*
X136110053Y-123691451D01*
X136201895Y-123470271D01*
X136202104Y-123230780D01*
X136110648Y-123009440D01*
X135941451Y-122839947D01*
X135720271Y-122748105D01*
X135480780Y-122747896D01*
X135259440Y-122839352D01*
X135089947Y-123008549D01*
X134998105Y-123229729D01*
X134997896Y-123469220D01*
X134519814Y-123469220D01*
X134540560Y-123460648D01*
X134710053Y-123291451D01*
X134801895Y-123070271D01*
X134802104Y-122830780D01*
X134710648Y-122609440D01*
X134541451Y-122439947D01*
X134356650Y-122363211D01*
X134828989Y-122168044D01*
X135216683Y-121781026D01*
X135420321Y-121290611D01*
X136252355Y-122122645D01*
X136423325Y-122236885D01*
X136625000Y-122277000D01*
X137071551Y-122277000D01*
X137039947Y-122308549D01*
X136948105Y-122529729D01*
X136947896Y-122769220D01*
X137039352Y-122990560D01*
X137048643Y-122999868D01*
X137039947Y-123008549D01*
X136948105Y-123229729D01*
X136947896Y-123469220D01*
X137039352Y-123690560D01*
X137208549Y-123860053D01*
X137429729Y-123951895D01*
X137669220Y-123952104D01*
X137890560Y-123860648D01*
X138060053Y-123691451D01*
X138151895Y-123470271D01*
X138152104Y-123230780D01*
X138060648Y-123009440D01*
X138051357Y-123000132D01*
X138060053Y-122991451D01*
X138151895Y-122770271D01*
X138152024Y-122622314D01*
X139918500Y-124388790D01*
X139922013Y-125920478D01*
X139876402Y-125966010D01*
X139773118Y-126214746D01*
X139772883Y-126484073D01*
X139823393Y-126606316D01*
X139527355Y-126902355D01*
X139413115Y-127073325D01*
X139385958Y-127209855D01*
X139373000Y-127275000D01*
X139373000Y-133231709D01*
X137427355Y-135177355D01*
X137313115Y-135348325D01*
X137299652Y-135416010D01*
X137273000Y-135550000D01*
X137273000Y-136168000D01*
X136633213Y-136168000D01*
X136572645Y-136077355D01*
X136497301Y-136027011D01*
X136092228Y-135621938D01*
X136240560Y-135560648D01*
X136410053Y-135391451D01*
X136501895Y-135170271D01*
X136502104Y-134930780D01*
X136410648Y-134709440D01*
X136241451Y-134539947D01*
X136020271Y-134448105D01*
X135780780Y-134447896D01*
X135559440Y-134539352D01*
X135389947Y-134708549D01*
X135328007Y-134857717D01*
X134827000Y-134356710D01*
X134827000Y-134010666D01*
X134839352Y-134040560D01*
X135008549Y-134210053D01*
X135229729Y-134301895D01*
X135469220Y-134302104D01*
X135690560Y-134210648D01*
X135850042Y-134051444D01*
X135908549Y-134110053D01*
X136129729Y-134201895D01*
X136369220Y-134202104D01*
X136590560Y-134110648D01*
X136760053Y-133941451D01*
X136851895Y-133720271D01*
X136852104Y-133480780D01*
X136760648Y-133259440D01*
X136591451Y-133089947D01*
X136370271Y-132998105D01*
X136130780Y-132997896D01*
X135909440Y-133089352D01*
X135749958Y-133248556D01*
X135691451Y-133189947D01*
X135470271Y-133098105D01*
X135230780Y-133097896D01*
X135009440Y-133189352D01*
X134839947Y-133358549D01*
X134827000Y-133389729D01*
X134827000Y-131525000D01*
X134792594Y-131352027D01*
X134783298Y-131338115D01*
X134728287Y-131255784D01*
X134711885Y-131173326D01*
X134644771Y-131072883D01*
X134628862Y-131049073D01*
X134807883Y-131049073D01*
X134910733Y-131297989D01*
X135101010Y-131488598D01*
X135349746Y-131591882D01*
X135619073Y-131592117D01*
X135867989Y-131489267D01*
X136058598Y-131298990D01*
X136161882Y-131050254D01*
X136162117Y-130780927D01*
X136059267Y-130532011D01*
X135868990Y-130341402D01*
X135620254Y-130238118D01*
X135350927Y-130237883D01*
X135102011Y-130340733D01*
X134911402Y-130531010D01*
X134808118Y-130779746D01*
X134807883Y-131049073D01*
X134628862Y-131049073D01*
X134597645Y-131002354D01*
X134572060Y-130976769D01*
X134572117Y-130910927D01*
X134469267Y-130662011D01*
X134278990Y-130471402D01*
X134030254Y-130368118D01*
X133988371Y-130368081D01*
X132539510Y-128919220D01*
X134397896Y-128919220D01*
X134489352Y-129140560D01*
X134658549Y-129310053D01*
X134879729Y-129401895D01*
X135119220Y-129402104D01*
X135340560Y-129310648D01*
X135510053Y-129141451D01*
X135601895Y-128920271D01*
X135602104Y-128680780D01*
X135510648Y-128459440D01*
X135341451Y-128289947D01*
X135120271Y-128198105D01*
X134880780Y-128197896D01*
X134659440Y-128289352D01*
X134489947Y-128458549D01*
X134398105Y-128679729D01*
X134397896Y-128919220D01*
X132539510Y-128919220D01*
X130722645Y-127102355D01*
X130551675Y-126988115D01*
X130350000Y-126948000D01*
X130337500Y-126950486D01*
X130325000Y-126948000D01*
X128265000Y-126948000D01*
X128063325Y-126988115D01*
X127892355Y-127102355D01*
X127225000Y-127769710D01*
X126665145Y-127209855D01*
X126494175Y-127095615D01*
X126292500Y-127055500D01*
X122834500Y-127055500D01*
X122834500Y-126319220D01*
X125097896Y-126319220D01*
X125189352Y-126540560D01*
X125358549Y-126710053D01*
X125579729Y-126801895D01*
X125819220Y-126802104D01*
X126040560Y-126710648D01*
X126210053Y-126541451D01*
X126260807Y-126419220D01*
X133897896Y-126419220D01*
X133989352Y-126640560D01*
X134158549Y-126810053D01*
X134379729Y-126901895D01*
X134619220Y-126902104D01*
X134840560Y-126810648D01*
X135010053Y-126641451D01*
X135101895Y-126420271D01*
X135102104Y-126180780D01*
X135010648Y-125959440D01*
X134841451Y-125789947D01*
X134620271Y-125698105D01*
X134380780Y-125697896D01*
X134159440Y-125789352D01*
X133989947Y-125958549D01*
X133898105Y-126179729D01*
X133897896Y-126419220D01*
X126260807Y-126419220D01*
X126301895Y-126320271D01*
X126302104Y-126080780D01*
X126210648Y-125859440D01*
X126041451Y-125689947D01*
X125820271Y-125598105D01*
X125580780Y-125597896D01*
X125359440Y-125689352D01*
X125189947Y-125858549D01*
X125098105Y-126079729D01*
X125097896Y-126319220D01*
X122834500Y-126319220D01*
X122834500Y-126257500D01*
X122794385Y-126055826D01*
X122680145Y-125884855D01*
X120227645Y-123432355D01*
X120056675Y-123318115D01*
X119855000Y-123278000D01*
X118066277Y-123278000D01*
X117984144Y-123155080D01*
X118444612Y-122694612D01*
X118542594Y-122547973D01*
X118577000Y-122375000D01*
X118577000Y-121272701D01*
X126172762Y-121272701D01*
X126381956Y-121778989D01*
X126768974Y-122166683D01*
X127274896Y-122376760D01*
X127822701Y-122377238D01*
X128328989Y-122168044D01*
X128716683Y-121781026D01*
X128926760Y-121275104D01*
X128927238Y-120727299D01*
X128718044Y-120221011D01*
X128331026Y-119833317D01*
X127825104Y-119623240D01*
X127277299Y-119622762D01*
X126771011Y-119831956D01*
X126383317Y-120218974D01*
X126173240Y-120724896D01*
X126172762Y-121272701D01*
X118577000Y-121272701D01*
X118577000Y-121215000D01*
X118542594Y-121042027D01*
X118475391Y-120941451D01*
X118444613Y-120895388D01*
X118108286Y-120559061D01*
X118108600Y-120558591D01*
X118149096Y-120355000D01*
X120823000Y-120355000D01*
X120857406Y-120527973D01*
X120955388Y-120674612D01*
X121102027Y-120772594D01*
X121275000Y-120807000D01*
X121447973Y-120772594D01*
X121527852Y-120719220D01*
X122597896Y-120719220D01*
X122689352Y-120940560D01*
X122858549Y-121110053D01*
X123079729Y-121201895D01*
X123319220Y-121202104D01*
X123540560Y-121110648D01*
X123710053Y-120941451D01*
X123801895Y-120720271D01*
X123802104Y-120480780D01*
X123710648Y-120259440D01*
X123541451Y-120089947D01*
X123320271Y-119998105D01*
X123080780Y-119997896D01*
X122859440Y-120089352D01*
X122689947Y-120258549D01*
X122598105Y-120479729D01*
X122597896Y-120719220D01*
X121527852Y-120719220D01*
X121594612Y-120674612D01*
X121604612Y-120664612D01*
X121702594Y-120517973D01*
X121737000Y-120345000D01*
X121737000Y-119625000D01*
X121702594Y-119452027D01*
X121604612Y-119305388D01*
X121457973Y-119207406D01*
X121285000Y-119173000D01*
X121112027Y-119207406D01*
X120965388Y-119305388D01*
X120867406Y-119452027D01*
X120833000Y-119625000D01*
X120833000Y-120304726D01*
X120823000Y-120355000D01*
X118149096Y-120355000D01*
X118202000Y-120089038D01*
X118202000Y-120040962D01*
X118108600Y-119571409D01*
X117861951Y-119202273D01*
X118269612Y-118794612D01*
X118367594Y-118647973D01*
X118402000Y-118475000D01*
X118402000Y-117229073D01*
X118437883Y-117229073D01*
X118540733Y-117477989D01*
X118731010Y-117668598D01*
X118979746Y-117771882D01*
X119249073Y-117772117D01*
X119497989Y-117669267D01*
X119514753Y-117652532D01*
X126577073Y-117652532D01*
X126675736Y-117919387D01*
X127285461Y-118145908D01*
X127935460Y-118121856D01*
X128424264Y-117919387D01*
X128522927Y-117652532D01*
X127550000Y-116679605D01*
X126577073Y-117652532D01*
X119514753Y-117652532D01*
X119688598Y-117478990D01*
X119791882Y-117230254D01*
X119792117Y-116960927D01*
X119689267Y-116712011D01*
X119498990Y-116521402D01*
X119250254Y-116418118D01*
X118980927Y-116417883D01*
X118732011Y-116520733D01*
X118541402Y-116711010D01*
X118438118Y-116959746D01*
X118437883Y-117229073D01*
X118402000Y-117229073D01*
X118402000Y-114200000D01*
X118367594Y-114027027D01*
X118269612Y-113880388D01*
X118161224Y-113772000D01*
X118726710Y-113772000D01*
X120602355Y-115647646D01*
G36*
X99273000Y-125740000D02*
X99283006Y-125789410D01*
X99311447Y-125831035D01*
X99353841Y-125858315D01*
X99357785Y-125859057D01*
X99387406Y-126007973D01*
X99485388Y-126154612D01*
X99632027Y-126252594D01*
X99805000Y-126287000D01*
X107905096Y-126287000D01*
X107781046Y-126472655D01*
X107721900Y-126770000D01*
X107781046Y-127067345D01*
X107949478Y-127319422D01*
X108201555Y-127487854D01*
X108498900Y-127547000D01*
X109141100Y-127547000D01*
X109438445Y-127487854D01*
X109690522Y-127319422D01*
X109783000Y-127181019D01*
X109783000Y-135338981D01*
X109690522Y-135200578D01*
X109438445Y-135032146D01*
X109141100Y-134973000D01*
X108498900Y-134973000D01*
X108201555Y-135032146D01*
X107949478Y-135200578D01*
X107781046Y-135452655D01*
X107721900Y-135750000D01*
X107781046Y-136047345D01*
X107898415Y-136223000D01*
X99805000Y-136223000D01*
X99632027Y-136257406D01*
X99485388Y-136355388D01*
X99387406Y-136502027D01*
X99362931Y-136625072D01*
X99338965Y-136641447D01*
X99311685Y-136683841D01*
X99303000Y-136730000D01*
X99303000Y-139113000D01*
X96010503Y-139113000D01*
X96206924Y-139031645D01*
X96635183Y-138641358D01*
X96745615Y-138406209D01*
X96745615Y-138610000D01*
X96771903Y-138749708D01*
X96854470Y-138878020D01*
X96980453Y-138964101D01*
X97130000Y-138994385D01*
X98830000Y-138994385D01*
X98969708Y-138968097D01*
X99098020Y-138885530D01*
X99184101Y-138759547D01*
X99214385Y-138610000D01*
X99214385Y-136910000D01*
X99188097Y-136770292D01*
X99105530Y-136641980D01*
X98979547Y-136555899D01*
X98830000Y-136525615D01*
X97130000Y-136525615D01*
X96990292Y-136551903D01*
X96861980Y-136634470D01*
X96775899Y-136760453D01*
X96745615Y-136910000D01*
X96745615Y-137113791D01*
X96635183Y-136878642D01*
X96206924Y-136488355D01*
X95796890Y-136318524D01*
X95567000Y-136439845D01*
X95567000Y-137633000D01*
X95587000Y-137633000D01*
X95587000Y-137887000D01*
X95567000Y-137887000D01*
X95567000Y-137907000D01*
X95313000Y-137907000D01*
X95313000Y-137887000D01*
X95293000Y-137887000D01*
X95293000Y-137633000D01*
X95313000Y-137633000D01*
X95313000Y-136439845D01*
X95083110Y-136318524D01*
X94673076Y-136488355D01*
X94244817Y-136878642D01*
X94057000Y-137278571D01*
X94057000Y-134700933D01*
X94179729Y-134751895D01*
X94419220Y-134752104D01*
X94640560Y-134660648D01*
X94810053Y-134491451D01*
X94901895Y-134270271D01*
X94902104Y-134030780D01*
X94856009Y-133919220D01*
X94897896Y-133919220D01*
X94989352Y-134140560D01*
X95158549Y-134310053D01*
X95379729Y-134401895D01*
X95619220Y-134402104D01*
X95840560Y-134310648D01*
X95916917Y-134234424D01*
X95898105Y-134279729D01*
X95897896Y-134519220D01*
X95989352Y-134740560D01*
X96158549Y-134910053D01*
X96379729Y-135001895D01*
X96619220Y-135002104D01*
X96626674Y-134999024D01*
X100917878Y-134999024D01*
X101024526Y-135257132D01*
X101221830Y-135454780D01*
X101479751Y-135561878D01*
X101759024Y-135562122D01*
X101802559Y-135544134D01*
X101831046Y-135687345D01*
X101999478Y-135939422D01*
X102251555Y-136107854D01*
X102548900Y-136167000D01*
X103191100Y-136167000D01*
X103488445Y-136107854D01*
X103740522Y-135939422D01*
X103908954Y-135687345D01*
X103968100Y-135390000D01*
X103908954Y-135092655D01*
X103859887Y-135019220D01*
X104147896Y-135019220D01*
X104239352Y-135240560D01*
X104408549Y-135410053D01*
X104629729Y-135501895D01*
X104869220Y-135502104D01*
X105090560Y-135410648D01*
X105260053Y-135241451D01*
X105351895Y-135020271D01*
X105352104Y-134780780D01*
X105260648Y-134559440D01*
X105091451Y-134389947D01*
X104870271Y-134298105D01*
X104630780Y-134297896D01*
X104409440Y-134389352D01*
X104239947Y-134558549D01*
X104148105Y-134779729D01*
X104147896Y-135019220D01*
X103859887Y-135019220D01*
X103740522Y-134840578D01*
X103488445Y-134672146D01*
X103191100Y-134613000D01*
X102709680Y-134613000D01*
X102864780Y-134458170D01*
X102904737Y-134361944D01*
X103109024Y-134362122D01*
X103367132Y-134255474D01*
X103564780Y-134058170D01*
X103671878Y-133800249D01*
X103672122Y-133520976D01*
X103565474Y-133262868D01*
X103562779Y-133260168D01*
X103564780Y-133258170D01*
X103671878Y-133000249D01*
X103672107Y-132738617D01*
X103750166Y-132660558D01*
X103632678Y-132543070D01*
X103829827Y-132527721D01*
X103943366Y-132163076D01*
X103908717Y-131782738D01*
X103829827Y-131592279D01*
X103632675Y-131576930D01*
X103149605Y-132060000D01*
X103163748Y-132074143D01*
X103079795Y-132158095D01*
X102904758Y-132157942D01*
X102865474Y-132062868D01*
X102862779Y-132060168D01*
X102864780Y-132058170D01*
X102936386Y-131885724D01*
X102955858Y-131866253D01*
X102970000Y-131880395D01*
X103453070Y-131397325D01*
X103437721Y-131200173D01*
X103197761Y-131125457D01*
X103367132Y-131055474D01*
X103564780Y-130858170D01*
X103671878Y-130600249D01*
X103672122Y-130320976D01*
X103565474Y-130062868D01*
X103562779Y-130060168D01*
X103564780Y-130058170D01*
X103671878Y-129800249D01*
X103672122Y-129520976D01*
X103565474Y-129262868D01*
X103562779Y-129260168D01*
X103564780Y-129258170D01*
X103671878Y-129000249D01*
X103672122Y-128720976D01*
X103565474Y-128462868D01*
X103368170Y-128265220D01*
X103110249Y-128158122D01*
X102904758Y-128157942D01*
X102865474Y-128062868D01*
X102709877Y-127907000D01*
X103191100Y-127907000D01*
X103488445Y-127847854D01*
X103740522Y-127679422D01*
X103908954Y-127427345D01*
X103968100Y-127130000D01*
X103908954Y-126832655D01*
X103740522Y-126580578D01*
X103488445Y-126412146D01*
X103191100Y-126353000D01*
X102548900Y-126353000D01*
X102251555Y-126412146D01*
X101999478Y-126580578D01*
X101831046Y-126832655D01*
X101830925Y-126833264D01*
X101620000Y-126791308D01*
X101351356Y-126844745D01*
X101123611Y-126996919D01*
X100971437Y-127224664D01*
X100918000Y-127493308D01*
X100918000Y-127826692D01*
X100971437Y-128095336D01*
X101123611Y-128323081D01*
X101351356Y-128475255D01*
X101567948Y-128518338D01*
X101567878Y-128599024D01*
X101674526Y-128857132D01*
X101871830Y-129054780D01*
X102129751Y-129161878D01*
X102335242Y-129162058D01*
X102374526Y-129257132D01*
X102377221Y-129259832D01*
X102375220Y-129261830D01*
X102335263Y-129358056D01*
X102130976Y-129357878D01*
X101872868Y-129464526D01*
X101675220Y-129661830D01*
X101568122Y-129919751D01*
X101567878Y-130199024D01*
X101674526Y-130457132D01*
X101677221Y-130459832D01*
X101675220Y-130461830D01*
X101568122Y-130719751D01*
X101567878Y-130999024D01*
X101674526Y-131257132D01*
X101677221Y-131259832D01*
X101675220Y-131261830D01*
X101568122Y-131519751D01*
X101567878Y-131799024D01*
X101674526Y-132057132D01*
X101677221Y-132059832D01*
X101675220Y-132061830D01*
X101568122Y-132319751D01*
X101567878Y-132599024D01*
X101629408Y-132747938D01*
X101580780Y-132747896D01*
X101359440Y-132839352D01*
X101189947Y-133008549D01*
X101098105Y-133229729D01*
X101097896Y-133469220D01*
X101189352Y-133690560D01*
X101358549Y-133860053D01*
X101568098Y-133947065D01*
X101567914Y-134157954D01*
X101480976Y-134157878D01*
X101222868Y-134264526D01*
X101025220Y-134461830D01*
X100918122Y-134719751D01*
X100917878Y-134999024D01*
X96626674Y-134999024D01*
X96840560Y-134910648D01*
X97010053Y-134741451D01*
X97101895Y-134520271D01*
X97102104Y-134280780D01*
X97010648Y-134059440D01*
X96970499Y-134019220D01*
X96997896Y-134019220D01*
X97089352Y-134240560D01*
X97258549Y-134410053D01*
X97479729Y-134501895D01*
X97719220Y-134502104D01*
X97940560Y-134410648D01*
X98110053Y-134241451D01*
X98201895Y-134020271D01*
X98202104Y-133780780D01*
X98110648Y-133559440D01*
X97941451Y-133389947D01*
X97720271Y-133298105D01*
X97480780Y-133297896D01*
X97259440Y-133389352D01*
X97089947Y-133558549D01*
X96998105Y-133779729D01*
X96997896Y-134019220D01*
X96970499Y-134019220D01*
X96841451Y-133889947D01*
X96620271Y-133798105D01*
X96380780Y-133797896D01*
X96159440Y-133889352D01*
X96083083Y-133965576D01*
X96101895Y-133920271D01*
X96102104Y-133680780D01*
X96010648Y-133459440D01*
X95841451Y-133289947D01*
X95791535Y-133269220D01*
X98347896Y-133269220D01*
X98439352Y-133490560D01*
X98608549Y-133660053D01*
X98829729Y-133751895D01*
X99069220Y-133752104D01*
X99290560Y-133660648D01*
X99460053Y-133491451D01*
X99525047Y-133334929D01*
X99589352Y-133490560D01*
X99758549Y-133660053D01*
X99979729Y-133751895D01*
X100219220Y-133752104D01*
X100440560Y-133660648D01*
X100610053Y-133491451D01*
X100701895Y-133270271D01*
X100702104Y-133030780D01*
X100610648Y-132809440D01*
X100441451Y-132639947D01*
X100220271Y-132548105D01*
X99980780Y-132547896D01*
X99759440Y-132639352D01*
X99589947Y-132808549D01*
X99524953Y-132965071D01*
X99460648Y-132809440D01*
X99291451Y-132639947D01*
X99070271Y-132548105D01*
X98830780Y-132547896D01*
X98609440Y-132639352D01*
X98439947Y-132808549D01*
X98348105Y-133029729D01*
X98347896Y-133269220D01*
X95791535Y-133269220D01*
X95620271Y-133198105D01*
X95380780Y-133197896D01*
X95159440Y-133289352D01*
X94989947Y-133458549D01*
X94898105Y-133679729D01*
X94897896Y-133919220D01*
X94856009Y-133919220D01*
X94810648Y-133809440D01*
X94641451Y-133639947D01*
X94420271Y-133548105D01*
X94180780Y-133547896D01*
X94057000Y-133599041D01*
X94057000Y-131419220D01*
X99047896Y-131419220D01*
X99139352Y-131640560D01*
X99308549Y-131810053D01*
X99529729Y-131901895D01*
X99769220Y-131902104D01*
X99990560Y-131810648D01*
X100160053Y-131641451D01*
X100251895Y-131420271D01*
X100252104Y-131180780D01*
X100160648Y-130959440D01*
X99991451Y-130789947D01*
X99770271Y-130698105D01*
X99530780Y-130697896D01*
X99309440Y-130789352D01*
X99139947Y-130958549D01*
X99048105Y-131179729D01*
X99047896Y-131419220D01*
X94057000Y-131419220D01*
X94057000Y-128769220D01*
X95747896Y-128769220D01*
X95839352Y-128990560D01*
X96008549Y-129160053D01*
X96229729Y-129251895D01*
X96469220Y-129252104D01*
X96690560Y-129160648D01*
X96860053Y-128991451D01*
X96951895Y-128770271D01*
X96952104Y-128530780D01*
X96860648Y-128309440D01*
X96691451Y-128139947D01*
X96470271Y-128048105D01*
X96230780Y-128047896D01*
X96009440Y-128139352D01*
X95839947Y-128308549D01*
X95748105Y-128529729D01*
X95747896Y-128769220D01*
X94057000Y-128769220D01*
X94057000Y-125241429D01*
X94244817Y-125641358D01*
X94673076Y-126031645D01*
X95083110Y-126201476D01*
X95313000Y-126080155D01*
X95313000Y-124887000D01*
X95293000Y-124887000D01*
X95293000Y-124633000D01*
X95313000Y-124633000D01*
X95313000Y-124613000D01*
X95567000Y-124613000D01*
X95567000Y-124633000D01*
X95587000Y-124633000D01*
X95587000Y-124887000D01*
X95567000Y-124887000D01*
X95567000Y-126080155D01*
X95796890Y-126201476D01*
X96206924Y-126031645D01*
X96635183Y-125641358D01*
X96745615Y-125406209D01*
X96745615Y-125610000D01*
X96771903Y-125749708D01*
X96854470Y-125878020D01*
X96980453Y-125964101D01*
X97130000Y-125994385D01*
X98175067Y-125994385D01*
X98098105Y-126179729D01*
X98097896Y-126419220D01*
X98189352Y-126640560D01*
X98358549Y-126810053D01*
X98579729Y-126901895D01*
X98819220Y-126902104D01*
X99040560Y-126810648D01*
X99210053Y-126641451D01*
X99301895Y-126420271D01*
X99302104Y-126180780D01*
X99210648Y-125959440D01*
X99113805Y-125862428D01*
X99184101Y-125759547D01*
X99214385Y-125610000D01*
X99214385Y-123910000D01*
X99188097Y-123770292D01*
X99105530Y-123641980D01*
X98979547Y-123555899D01*
X98830000Y-123525615D01*
X97130000Y-123525615D01*
X96990292Y-123551903D01*
X96861980Y-123634470D01*
X96775899Y-123760453D01*
X96745615Y-123910000D01*
X96745615Y-124113791D01*
X96635183Y-123878642D01*
X96206924Y-123488355D01*
X95962216Y-123387000D01*
X99273000Y-123387000D01*
X99273000Y-125740000D01*
X99273000Y-125740000D01*
G37*
X99273000Y-125740000D02*
X99283006Y-125789410D01*
X99311447Y-125831035D01*
X99353841Y-125858315D01*
X99357785Y-125859057D01*
X99387406Y-126007973D01*
X99485388Y-126154612D01*
X99632027Y-126252594D01*
X99805000Y-126287000D01*
X107905096Y-126287000D01*
X107781046Y-126472655D01*
X107721900Y-126770000D01*
X107781046Y-127067345D01*
X107949478Y-127319422D01*
X108201555Y-127487854D01*
X108498900Y-127547000D01*
X109141100Y-127547000D01*
X109438445Y-127487854D01*
X109690522Y-127319422D01*
X109783000Y-127181019D01*
X109783000Y-135338981D01*
X109690522Y-135200578D01*
X109438445Y-135032146D01*
X109141100Y-134973000D01*
X108498900Y-134973000D01*
X108201555Y-135032146D01*
X107949478Y-135200578D01*
X107781046Y-135452655D01*
X107721900Y-135750000D01*
X107781046Y-136047345D01*
X107898415Y-136223000D01*
X99805000Y-136223000D01*
X99632027Y-136257406D01*
X99485388Y-136355388D01*
X99387406Y-136502027D01*
X99362931Y-136625072D01*
X99338965Y-136641447D01*
X99311685Y-136683841D01*
X99303000Y-136730000D01*
X99303000Y-139113000D01*
X96010503Y-139113000D01*
X96206924Y-139031645D01*
X96635183Y-138641358D01*
X96745615Y-138406209D01*
X96745615Y-138610000D01*
X96771903Y-138749708D01*
X96854470Y-138878020D01*
X96980453Y-138964101D01*
X97130000Y-138994385D01*
X98830000Y-138994385D01*
X98969708Y-138968097D01*
X99098020Y-138885530D01*
X99184101Y-138759547D01*
X99214385Y-138610000D01*
X99214385Y-136910000D01*
X99188097Y-136770292D01*
X99105530Y-136641980D01*
X98979547Y-136555899D01*
X98830000Y-136525615D01*
X97130000Y-136525615D01*
X96990292Y-136551903D01*
X96861980Y-136634470D01*
X96775899Y-136760453D01*
X96745615Y-136910000D01*
X96745615Y-137113791D01*
X96635183Y-136878642D01*
X96206924Y-136488355D01*
X95796890Y-136318524D01*
X95567000Y-136439845D01*
X95567000Y-137633000D01*
X95587000Y-137633000D01*
X95587000Y-137887000D01*
X95567000Y-137887000D01*
X95567000Y-137907000D01*
X95313000Y-137907000D01*
X95313000Y-137887000D01*
X95293000Y-137887000D01*
X95293000Y-137633000D01*
X95313000Y-137633000D01*
X95313000Y-136439845D01*
X95083110Y-136318524D01*
X94673076Y-136488355D01*
X94244817Y-136878642D01*
X94057000Y-137278571D01*
X94057000Y-134700933D01*
X94179729Y-134751895D01*
X94419220Y-134752104D01*
X94640560Y-134660648D01*
X94810053Y-134491451D01*
X94901895Y-134270271D01*
X94902104Y-134030780D01*
X94856009Y-133919220D01*
X94897896Y-133919220D01*
X94989352Y-134140560D01*
X95158549Y-134310053D01*
X95379729Y-134401895D01*
X95619220Y-134402104D01*
X95840560Y-134310648D01*
X95916917Y-134234424D01*
X95898105Y-134279729D01*
X95897896Y-134519220D01*
X95989352Y-134740560D01*
X96158549Y-134910053D01*
X96379729Y-135001895D01*
X96619220Y-135002104D01*
X96626674Y-134999024D01*
X100917878Y-134999024D01*
X101024526Y-135257132D01*
X101221830Y-135454780D01*
X101479751Y-135561878D01*
X101759024Y-135562122D01*
X101802559Y-135544134D01*
X101831046Y-135687345D01*
X101999478Y-135939422D01*
X102251555Y-136107854D01*
X102548900Y-136167000D01*
X103191100Y-136167000D01*
X103488445Y-136107854D01*
X103740522Y-135939422D01*
X103908954Y-135687345D01*
X103968100Y-135390000D01*
X103908954Y-135092655D01*
X103859887Y-135019220D01*
X104147896Y-135019220D01*
X104239352Y-135240560D01*
X104408549Y-135410053D01*
X104629729Y-135501895D01*
X104869220Y-135502104D01*
X105090560Y-135410648D01*
X105260053Y-135241451D01*
X105351895Y-135020271D01*
X105352104Y-134780780D01*
X105260648Y-134559440D01*
X105091451Y-134389947D01*
X104870271Y-134298105D01*
X104630780Y-134297896D01*
X104409440Y-134389352D01*
X104239947Y-134558549D01*
X104148105Y-134779729D01*
X104147896Y-135019220D01*
X103859887Y-135019220D01*
X103740522Y-134840578D01*
X103488445Y-134672146D01*
X103191100Y-134613000D01*
X102709680Y-134613000D01*
X102864780Y-134458170D01*
X102904737Y-134361944D01*
X103109024Y-134362122D01*
X103367132Y-134255474D01*
X103564780Y-134058170D01*
X103671878Y-133800249D01*
X103672122Y-133520976D01*
X103565474Y-133262868D01*
X103562779Y-133260168D01*
X103564780Y-133258170D01*
X103671878Y-133000249D01*
X103672107Y-132738617D01*
X103750166Y-132660558D01*
X103632678Y-132543070D01*
X103829827Y-132527721D01*
X103943366Y-132163076D01*
X103908717Y-131782738D01*
X103829827Y-131592279D01*
X103632675Y-131576930D01*
X103149605Y-132060000D01*
X103163748Y-132074143D01*
X103079795Y-132158095D01*
X102904758Y-132157942D01*
X102865474Y-132062868D01*
X102862779Y-132060168D01*
X102864780Y-132058170D01*
X102936386Y-131885724D01*
X102955858Y-131866253D01*
X102970000Y-131880395D01*
X103453070Y-131397325D01*
X103437721Y-131200173D01*
X103197761Y-131125457D01*
X103367132Y-131055474D01*
X103564780Y-130858170D01*
X103671878Y-130600249D01*
X103672122Y-130320976D01*
X103565474Y-130062868D01*
X103562779Y-130060168D01*
X103564780Y-130058170D01*
X103671878Y-129800249D01*
X103672122Y-129520976D01*
X103565474Y-129262868D01*
X103562779Y-129260168D01*
X103564780Y-129258170D01*
X103671878Y-129000249D01*
X103672122Y-128720976D01*
X103565474Y-128462868D01*
X103368170Y-128265220D01*
X103110249Y-128158122D01*
X102904758Y-128157942D01*
X102865474Y-128062868D01*
X102709877Y-127907000D01*
X103191100Y-127907000D01*
X103488445Y-127847854D01*
X103740522Y-127679422D01*
X103908954Y-127427345D01*
X103968100Y-127130000D01*
X103908954Y-126832655D01*
X103740522Y-126580578D01*
X103488445Y-126412146D01*
X103191100Y-126353000D01*
X102548900Y-126353000D01*
X102251555Y-126412146D01*
X101999478Y-126580578D01*
X101831046Y-126832655D01*
X101830925Y-126833264D01*
X101620000Y-126791308D01*
X101351356Y-126844745D01*
X101123611Y-126996919D01*
X100971437Y-127224664D01*
X100918000Y-127493308D01*
X100918000Y-127826692D01*
X100971437Y-128095336D01*
X101123611Y-128323081D01*
X101351356Y-128475255D01*
X101567948Y-128518338D01*
X101567878Y-128599024D01*
X101674526Y-128857132D01*
X101871830Y-129054780D01*
X102129751Y-129161878D01*
X102335242Y-129162058D01*
X102374526Y-129257132D01*
X102377221Y-129259832D01*
X102375220Y-129261830D01*
X102335263Y-129358056D01*
X102130976Y-129357878D01*
X101872868Y-129464526D01*
X101675220Y-129661830D01*
X101568122Y-129919751D01*
X101567878Y-130199024D01*
X101674526Y-130457132D01*
X101677221Y-130459832D01*
X101675220Y-130461830D01*
X101568122Y-130719751D01*
X101567878Y-130999024D01*
X101674526Y-131257132D01*
X101677221Y-131259832D01*
X101675220Y-131261830D01*
X101568122Y-131519751D01*
X101567878Y-131799024D01*
X101674526Y-132057132D01*
X101677221Y-132059832D01*
X101675220Y-132061830D01*
X101568122Y-132319751D01*
X101567878Y-132599024D01*
X101629408Y-132747938D01*
X101580780Y-132747896D01*
X101359440Y-132839352D01*
X101189947Y-133008549D01*
X101098105Y-133229729D01*
X101097896Y-133469220D01*
X101189352Y-133690560D01*
X101358549Y-133860053D01*
X101568098Y-133947065D01*
X101567914Y-134157954D01*
X101480976Y-134157878D01*
X101222868Y-134264526D01*
X101025220Y-134461830D01*
X100918122Y-134719751D01*
X100917878Y-134999024D01*
X96626674Y-134999024D01*
X96840560Y-134910648D01*
X97010053Y-134741451D01*
X97101895Y-134520271D01*
X97102104Y-134280780D01*
X97010648Y-134059440D01*
X96970499Y-134019220D01*
X96997896Y-134019220D01*
X97089352Y-134240560D01*
X97258549Y-134410053D01*
X97479729Y-134501895D01*
X97719220Y-134502104D01*
X97940560Y-134410648D01*
X98110053Y-134241451D01*
X98201895Y-134020271D01*
X98202104Y-133780780D01*
X98110648Y-133559440D01*
X97941451Y-133389947D01*
X97720271Y-133298105D01*
X97480780Y-133297896D01*
X97259440Y-133389352D01*
X97089947Y-133558549D01*
X96998105Y-133779729D01*
X96997896Y-134019220D01*
X96970499Y-134019220D01*
X96841451Y-133889947D01*
X96620271Y-133798105D01*
X96380780Y-133797896D01*
X96159440Y-133889352D01*
X96083083Y-133965576D01*
X96101895Y-133920271D01*
X96102104Y-133680780D01*
X96010648Y-133459440D01*
X95841451Y-133289947D01*
X95791535Y-133269220D01*
X98347896Y-133269220D01*
X98439352Y-133490560D01*
X98608549Y-133660053D01*
X98829729Y-133751895D01*
X99069220Y-133752104D01*
X99290560Y-133660648D01*
X99460053Y-133491451D01*
X99525047Y-133334929D01*
X99589352Y-133490560D01*
X99758549Y-133660053D01*
X99979729Y-133751895D01*
X100219220Y-133752104D01*
X100440560Y-133660648D01*
X100610053Y-133491451D01*
X100701895Y-133270271D01*
X100702104Y-133030780D01*
X100610648Y-132809440D01*
X100441451Y-132639947D01*
X100220271Y-132548105D01*
X99980780Y-132547896D01*
X99759440Y-132639352D01*
X99589947Y-132808549D01*
X99524953Y-132965071D01*
X99460648Y-132809440D01*
X99291451Y-132639947D01*
X99070271Y-132548105D01*
X98830780Y-132547896D01*
X98609440Y-132639352D01*
X98439947Y-132808549D01*
X98348105Y-133029729D01*
X98347896Y-133269220D01*
X95791535Y-133269220D01*
X95620271Y-133198105D01*
X95380780Y-133197896D01*
X95159440Y-133289352D01*
X94989947Y-133458549D01*
X94898105Y-133679729D01*
X94897896Y-133919220D01*
X94856009Y-133919220D01*
X94810648Y-133809440D01*
X94641451Y-133639947D01*
X94420271Y-133548105D01*
X94180780Y-133547896D01*
X94057000Y-133599041D01*
X94057000Y-131419220D01*
X99047896Y-131419220D01*
X99139352Y-131640560D01*
X99308549Y-131810053D01*
X99529729Y-131901895D01*
X99769220Y-131902104D01*
X99990560Y-131810648D01*
X100160053Y-131641451D01*
X100251895Y-131420271D01*
X100252104Y-131180780D01*
X100160648Y-130959440D01*
X99991451Y-130789947D01*
X99770271Y-130698105D01*
X99530780Y-130697896D01*
X99309440Y-130789352D01*
X99139947Y-130958549D01*
X99048105Y-131179729D01*
X99047896Y-131419220D01*
X94057000Y-131419220D01*
X94057000Y-128769220D01*
X95747896Y-128769220D01*
X95839352Y-128990560D01*
X96008549Y-129160053D01*
X96229729Y-129251895D01*
X96469220Y-129252104D01*
X96690560Y-129160648D01*
X96860053Y-128991451D01*
X96951895Y-128770271D01*
X96952104Y-128530780D01*
X96860648Y-128309440D01*
X96691451Y-128139947D01*
X96470271Y-128048105D01*
X96230780Y-128047896D01*
X96009440Y-128139352D01*
X95839947Y-128308549D01*
X95748105Y-128529729D01*
X95747896Y-128769220D01*
X94057000Y-128769220D01*
X94057000Y-125241429D01*
X94244817Y-125641358D01*
X94673076Y-126031645D01*
X95083110Y-126201476D01*
X95313000Y-126080155D01*
X95313000Y-124887000D01*
X95293000Y-124887000D01*
X95293000Y-124633000D01*
X95313000Y-124633000D01*
X95313000Y-124613000D01*
X95567000Y-124613000D01*
X95567000Y-124633000D01*
X95587000Y-124633000D01*
X95587000Y-124887000D01*
X95567000Y-124887000D01*
X95567000Y-126080155D01*
X95796890Y-126201476D01*
X96206924Y-126031645D01*
X96635183Y-125641358D01*
X96745615Y-125406209D01*
X96745615Y-125610000D01*
X96771903Y-125749708D01*
X96854470Y-125878020D01*
X96980453Y-125964101D01*
X97130000Y-125994385D01*
X98175067Y-125994385D01*
X98098105Y-126179729D01*
X98097896Y-126419220D01*
X98189352Y-126640560D01*
X98358549Y-126810053D01*
X98579729Y-126901895D01*
X98819220Y-126902104D01*
X99040560Y-126810648D01*
X99210053Y-126641451D01*
X99301895Y-126420271D01*
X99302104Y-126180780D01*
X99210648Y-125959440D01*
X99113805Y-125862428D01*
X99184101Y-125759547D01*
X99214385Y-125610000D01*
X99214385Y-123910000D01*
X99188097Y-123770292D01*
X99105530Y-123641980D01*
X98979547Y-123555899D01*
X98830000Y-123525615D01*
X97130000Y-123525615D01*
X96990292Y-123551903D01*
X96861980Y-123634470D01*
X96775899Y-123760453D01*
X96745615Y-123910000D01*
X96745615Y-124113791D01*
X96635183Y-123878642D01*
X96206924Y-123488355D01*
X95962216Y-123387000D01*
X99273000Y-123387000D01*
X99273000Y-125740000D01*
M02*
