%TF.GenerationSoftware,KiCad,Pcbnew,4.0.7*%
%TF.CreationDate,2019-04-11T13:09:23-05:00*%
%TF.ProjectId,GolfGloveMainBoardV1.0.0,476F6C66476C6F76654D61696E426F61,rev?*%
%TF.FileFunction,Copper,L1,Top,Signal*%
%FSLAX46Y46*%
G04 Gerber Fmt 4.6, Leading zero omitted, Abs format (unit mm)*
G04 Created by KiCad (PCBNEW 4.0.7) date 04/11/19 13:09:23*
%MOMM*%
%LPD*%
G01*
G04 APERTURE LIST*
%ADD10C,0.100000*%
%ADD11C,0.300000*%
%ADD12C,0.150000*%
%ADD13O,1.400000X0.800000*%
%ADD14R,0.700000X0.300000*%
%ADD15C,0.650000*%
%ADD16R,0.280000X0.750000*%
%ADD17R,0.750000X0.280000*%
%ADD18R,0.280000X1.060000*%
%ADD19R,1.060000X0.280000*%
%ADD20C,0.600000*%
%ADD21R,0.810000X0.220000*%
%ADD22R,0.220000X0.810000*%
%ADD23R,3.700000X3.700000*%
%ADD24R,1.700000X1.700000*%
%ADD25O,1.700000X1.700000*%
%ADD26R,2.000000X1.000000*%
%ADD27R,0.700000X2.800000*%
%ADD28R,0.600000X0.500000*%
%ADD29R,0.500000X0.600000*%
%ADD30R,0.750000X0.800000*%
%ADD31R,0.900000X0.500000*%
%ADD32R,0.400000X0.600000*%
%ADD33R,0.600000X0.400000*%
%ADD34R,1.500000X0.700000*%
%ADD35R,0.800000X1.000000*%
%ADD36R,1.270000X0.558800*%
%ADD37R,0.800000X0.900000*%
%ADD38R,1.800000X1.000000*%
%ADD39C,2.000000*%
%ADD40R,1.200000X0.900000*%
%ADD41R,0.800000X0.750000*%
%ADD42C,0.450000*%
%ADD43C,0.293370*%
%ADD44C,0.250000*%
%ADD45C,0.200000*%
%ADD46C,0.254000*%
G04 APERTURE END LIST*
D10*
D11*
X119385715Y-147428571D02*
X119742858Y-148428571D01*
X120100000Y-147428571D02*
X119742858Y-148428571D01*
X119600000Y-148785714D01*
X119528572Y-148857143D01*
X119385715Y-148928571D01*
X120528572Y-146928571D02*
X121457143Y-146928571D01*
X120957143Y-147500000D01*
X121171429Y-147500000D01*
X121314286Y-147571429D01*
X121385715Y-147642857D01*
X121457143Y-147785714D01*
X121457143Y-148142857D01*
X121385715Y-148285714D01*
X121314286Y-148357143D01*
X121171429Y-148428571D01*
X120742857Y-148428571D01*
X120600000Y-148357143D01*
X120528572Y-148285714D01*
X121957143Y-146928571D02*
X122885714Y-146928571D01*
X122385714Y-147500000D01*
X122600000Y-147500000D01*
X122742857Y-147571429D01*
X122814286Y-147642857D01*
X122885714Y-147785714D01*
X122885714Y-148142857D01*
X122814286Y-148285714D01*
X122742857Y-148357143D01*
X122600000Y-148428571D01*
X122171428Y-148428571D01*
X122028571Y-148357143D01*
X121957143Y-148285714D01*
X123314285Y-147428571D02*
X123885714Y-147428571D01*
X123528571Y-146928571D02*
X123528571Y-148214286D01*
X123599999Y-148357143D01*
X123742857Y-148428571D01*
X123885714Y-148428571D01*
D12*
X148925000Y-151345000D02*
X148925000Y-151355000D01*
X112365000Y-151345000D02*
X148925000Y-151345000D01*
X112365000Y-136675000D02*
X112365000Y-151345000D01*
X99805000Y-136675000D02*
X112365000Y-136675000D01*
X99805000Y-139585000D02*
X99805000Y-136675000D01*
X93605000Y-139585000D02*
X99805000Y-139585000D01*
X93605000Y-122935000D02*
X93605000Y-139585000D01*
X99805000Y-122935000D02*
X93605000Y-122935000D01*
X99805000Y-125835000D02*
X99805000Y-122935000D01*
X112375000Y-125835000D02*
X99805000Y-125835000D01*
X112375000Y-111355000D02*
X112375000Y-125835000D01*
X148925000Y-111355000D02*
X112375000Y-111355000D01*
X148925000Y-151345000D02*
X148925000Y-111355000D01*
D13*
X102870000Y-135390000D03*
D14*
X100960000Y-134010000D03*
X100960000Y-133510000D03*
X100960000Y-133010000D03*
X100960000Y-132510000D03*
X100960000Y-132010000D03*
X100960000Y-131510000D03*
X100960000Y-131010000D03*
X100960000Y-128510000D03*
X100960000Y-129510000D03*
X100960000Y-130010000D03*
X100960000Y-130510000D03*
X100960000Y-129010000D03*
D13*
X102870000Y-127130000D03*
X108820000Y-126770000D03*
X108820000Y-135750000D03*
D15*
X102270000Y-128460000D03*
X102270000Y-130060000D03*
X102270000Y-130860000D03*
X102270000Y-131660000D03*
X102270000Y-132460000D03*
X102270000Y-134060000D03*
X102970000Y-128860000D03*
X102970000Y-129660000D03*
X102970000Y-130460000D03*
X102970000Y-132060000D03*
X102970000Y-132860000D03*
X102970000Y-133660000D03*
D16*
X128430000Y-132360000D03*
D17*
X128520000Y-131660000D03*
X128520000Y-131230000D03*
X128520000Y-130800000D03*
X128520000Y-130370000D03*
D16*
X128430000Y-129670000D03*
X128000000Y-129670000D03*
X127570000Y-129670000D03*
X127140000Y-129670000D03*
X126710000Y-129670000D03*
X126280000Y-129670000D03*
X125850000Y-129670000D03*
X125420000Y-129670000D03*
D17*
X125330000Y-130370000D03*
X125330000Y-130800000D03*
X125330000Y-131230000D03*
X125330000Y-131660000D03*
D16*
X125420000Y-132360000D03*
X125850000Y-132360000D03*
X126280000Y-132360000D03*
X126710000Y-132360000D03*
X127140000Y-132360000D03*
X127570000Y-132360000D03*
X128000000Y-132360000D03*
D18*
X98235000Y-132745000D03*
D19*
X98465000Y-131905000D03*
X98465000Y-131475000D03*
X98465000Y-131045000D03*
X98465000Y-130615000D03*
D18*
X98235000Y-129775000D03*
X97805000Y-129775000D03*
X97375000Y-129775000D03*
X96945000Y-129775000D03*
X96515000Y-129775000D03*
X96085000Y-129775000D03*
X95655000Y-129775000D03*
X95225000Y-129775000D03*
D19*
X94995000Y-130615000D03*
X94995000Y-131045000D03*
X94995000Y-131475000D03*
X94995000Y-131905000D03*
D18*
X95225000Y-132745000D03*
X95655000Y-132745000D03*
X96085000Y-132745000D03*
X96515000Y-132745000D03*
X96945000Y-132745000D03*
X97375000Y-132745000D03*
X97805000Y-132745000D03*
D20*
X148275000Y-120875000D03*
X147325000Y-128275000D03*
D21*
X142405000Y-133375000D03*
X142405000Y-132975000D03*
X142405000Y-132575000D03*
X142405000Y-132175000D03*
X142405000Y-131775000D03*
X142405000Y-131375000D03*
X142405000Y-130975000D03*
X142405000Y-130575000D03*
X142405000Y-130175000D03*
X142405000Y-129775000D03*
X137495000Y-129775000D03*
X137495000Y-130175000D03*
X137495000Y-130575000D03*
X137495000Y-130975000D03*
X137495000Y-131375000D03*
X137495000Y-131775000D03*
X137495000Y-132175000D03*
X137495000Y-132575000D03*
X137495000Y-132975000D03*
X137495000Y-133375000D03*
D22*
X138150000Y-134030000D03*
X138550000Y-134030000D03*
X138950000Y-134030000D03*
X139350000Y-134030000D03*
X139750000Y-134030000D03*
X140150000Y-134030000D03*
X140550000Y-134030000D03*
X140950000Y-134030000D03*
X141350000Y-134030000D03*
X141750000Y-134030000D03*
X141750000Y-129120000D03*
X141350000Y-129120000D03*
X140950000Y-129120000D03*
X140550000Y-129120000D03*
X140150000Y-129120000D03*
X139750000Y-129120000D03*
X139350000Y-129120000D03*
X138950000Y-129120000D03*
X138550000Y-129120000D03*
X138150000Y-129120000D03*
D23*
X139950000Y-131575000D03*
D20*
X143275000Y-121425000D03*
X146325000Y-124075000D03*
X144475000Y-128675000D03*
X113225000Y-130925000D03*
X147725000Y-146925000D03*
X148075000Y-129925000D03*
X146025000Y-129575000D03*
X145375000Y-130225000D03*
X141225000Y-113425000D03*
X141225000Y-115425000D03*
X141225000Y-112425000D03*
X145725000Y-127325000D03*
X148175000Y-128475000D03*
X144725000Y-122925000D03*
X146325000Y-126775000D03*
X143725000Y-122925000D03*
X145225000Y-123925000D03*
X141225000Y-114425000D03*
X144225000Y-123925000D03*
X146325000Y-125875000D03*
X148025000Y-123725000D03*
X148025000Y-122775000D03*
X145225000Y-121925000D03*
X145225000Y-120925000D03*
X144225000Y-120925000D03*
X147475000Y-129175000D03*
X148225000Y-121775000D03*
X146225000Y-121925000D03*
X144225000Y-121925000D03*
X143225000Y-120425000D03*
X148025000Y-126525000D03*
X148025000Y-124675000D03*
X146225000Y-120925000D03*
X142225000Y-113925000D03*
X142225000Y-117925000D03*
X147925000Y-127525000D03*
X148025000Y-125625000D03*
X142225000Y-118925000D03*
X143225000Y-119425000D03*
X142225000Y-115925000D03*
X146325000Y-124975000D03*
X142225000Y-116925000D03*
X142225000Y-111925000D03*
X142225000Y-112925000D03*
X143225000Y-112425000D03*
X143225000Y-113425000D03*
X143225000Y-114425000D03*
X143225000Y-115425000D03*
X143225000Y-116425000D03*
X143225000Y-117425000D03*
X143225000Y-118425000D03*
X142225000Y-114925000D03*
D24*
X97980000Y-124760000D03*
D25*
X95440000Y-124760000D03*
D13*
X119485000Y-127120000D03*
D14*
X121395000Y-128500000D03*
X121395000Y-129000000D03*
X121395000Y-129500000D03*
X121395000Y-130000000D03*
X121395000Y-130500000D03*
X121395000Y-131000000D03*
X121395000Y-131500000D03*
X121395000Y-134000000D03*
X121395000Y-133000000D03*
X121395000Y-132500000D03*
X121395000Y-132000000D03*
X121395000Y-133500000D03*
D13*
X119485000Y-135380000D03*
X113535000Y-135740000D03*
X113535000Y-126760000D03*
D15*
X120085000Y-134050000D03*
X120085000Y-132450000D03*
X120085000Y-131650000D03*
X120085000Y-130850000D03*
X120085000Y-130050000D03*
X120085000Y-128450000D03*
X119385000Y-133650000D03*
X119385000Y-132850000D03*
X119385000Y-132050000D03*
X119385000Y-130450000D03*
X119385000Y-129650000D03*
X119385000Y-128850000D03*
D26*
X146337500Y-118587500D03*
X146337500Y-113387500D03*
D27*
X145487500Y-115987500D03*
X147187500Y-115987500D03*
D28*
X130067500Y-137227500D03*
X128967500Y-137227500D03*
X133017500Y-137452500D03*
X134117500Y-137452500D03*
X125475000Y-134315000D03*
X126575000Y-134315000D03*
X126475000Y-128515000D03*
X125375000Y-128515000D03*
D29*
X128325000Y-134465000D03*
X128325000Y-133365000D03*
D28*
X132750000Y-124950000D03*
X131650000Y-124950000D03*
X131650000Y-127550000D03*
X132750000Y-127550000D03*
X125475000Y-133215000D03*
X126575000Y-133215000D03*
D29*
X129425000Y-133365000D03*
X129425000Y-134465000D03*
X99480000Y-128310000D03*
X99480000Y-127210000D03*
D28*
X142940000Y-135090000D03*
X144040000Y-135090000D03*
D29*
X134365000Y-129935000D03*
X134365000Y-131035000D03*
X99480000Y-134210000D03*
X99480000Y-135310000D03*
X98480000Y-128310000D03*
X98480000Y-127210000D03*
X95480000Y-127210000D03*
X95480000Y-128310000D03*
X98480000Y-134210000D03*
X98480000Y-135310000D03*
X120300000Y-122650000D03*
X120300000Y-123750000D03*
X124400000Y-123750000D03*
X124400000Y-122650000D03*
D30*
X129092500Y-138552500D03*
X129092500Y-140052500D03*
D24*
X126450000Y-112800000D03*
D25*
X128990000Y-112800000D03*
X131530000Y-112800000D03*
X134070000Y-112800000D03*
X136610000Y-112800000D03*
X139150000Y-112800000D03*
D24*
X114415000Y-123805000D03*
D25*
X116955000Y-123805000D03*
D24*
X114555000Y-149435000D03*
D25*
X117095000Y-149435000D03*
D24*
X114435000Y-120065000D03*
D25*
X116975000Y-120065000D03*
D24*
X114455000Y-113245000D03*
D25*
X116995000Y-113245000D03*
D24*
X97980000Y-137760000D03*
D25*
X95440000Y-137760000D03*
D24*
X122500000Y-115400000D03*
D25*
X122500000Y-112860000D03*
D31*
X142425000Y-125575000D03*
X142425000Y-127075000D03*
X142275000Y-121300000D03*
X142275000Y-122800000D03*
D32*
X130817500Y-141302500D03*
X129917500Y-141302500D03*
X131867500Y-137202500D03*
X130967500Y-137202500D03*
D33*
X125200000Y-138850000D03*
X125200000Y-139750000D03*
X132750000Y-125800000D03*
X132750000Y-126700000D03*
D32*
X129975000Y-131915000D03*
X130875000Y-131915000D03*
X129975000Y-130565000D03*
X130875000Y-130565000D03*
D33*
X97480000Y-135210000D03*
X97480000Y-136110000D03*
X97380000Y-128310000D03*
X97380000Y-127410000D03*
D34*
X145795000Y-142375000D03*
X145795000Y-139375000D03*
X145795000Y-137875000D03*
D35*
X148655000Y-143775000D03*
X148655000Y-136475000D03*
X146445000Y-136475000D03*
X146445000Y-143775000D03*
D36*
X133387900Y-140267300D03*
X133387900Y-139327500D03*
X133387900Y-138387700D03*
X130797100Y-138387700D03*
X130797100Y-140267300D03*
D29*
X147150000Y-121750000D03*
X147150000Y-120650000D03*
D28*
X145900000Y-122950000D03*
X147000000Y-122950000D03*
D37*
X121750000Y-122550000D03*
X121750000Y-123950000D03*
X122850000Y-123950000D03*
X122850000Y-122550000D03*
D38*
X134550000Y-125000000D03*
X134550000Y-127500000D03*
D39*
X127550000Y-121000000D03*
X127550000Y-116500000D03*
X134050000Y-121000000D03*
X134050000Y-116500000D03*
D24*
X145600000Y-147000000D03*
D25*
X145600000Y-149540000D03*
D24*
X139350000Y-146800000D03*
D25*
X139350000Y-149340000D03*
D24*
X132900000Y-147000000D03*
D25*
X132900000Y-149540000D03*
D39*
X113750000Y-145350000D03*
X113750000Y-140850000D03*
X120250000Y-145350000D03*
X120250000Y-140850000D03*
D40*
X125350000Y-149500000D03*
X127550000Y-149500000D03*
D41*
X126200000Y-144750000D03*
X127700000Y-144750000D03*
D32*
X124850000Y-144750000D03*
X123950000Y-144750000D03*
D42*
X128950000Y-144800000D03*
D20*
X143975000Y-127900000D03*
X142900000Y-134300000D03*
X148085000Y-134585000D03*
X140200000Y-120050000D03*
X142145000Y-139705000D03*
X139595000Y-140060000D03*
X128355000Y-137245000D03*
X129255000Y-141275000D03*
X116025000Y-116695000D03*
X134365000Y-129455000D03*
X134465000Y-138755000D03*
X125175000Y-133745000D03*
X142850000Y-143750000D03*
X135335000Y-139475000D03*
D42*
X122500000Y-131600000D03*
X126500000Y-146600000D03*
X125200000Y-137850000D03*
D20*
X127425000Y-134315000D03*
X130475000Y-133215000D03*
X143605000Y-135905000D03*
X133895000Y-131045000D03*
X127225000Y-128515000D03*
X140450000Y-126350000D03*
X146475000Y-133175000D03*
X141435000Y-136695000D03*
D42*
X134500000Y-126300000D03*
X135000000Y-128800000D03*
X98700000Y-126300000D03*
X97600000Y-133900000D03*
X135600000Y-123350000D03*
X134200000Y-122950000D03*
X137550000Y-123350000D03*
D20*
X141115000Y-127885000D03*
D42*
X137550000Y-122650000D03*
D20*
X141885000Y-128025000D03*
X146365000Y-131025000D03*
X143675000Y-132000000D03*
X143475000Y-125750000D03*
X142025000Y-120325000D03*
X143175000Y-127955000D03*
X145625000Y-131750000D03*
X141975000Y-123850000D03*
X142600000Y-129325000D03*
X142775000Y-124325000D03*
D42*
X125700000Y-126200000D03*
D20*
X131815000Y-132255000D03*
X136845000Y-140035000D03*
D42*
X123400000Y-130150000D03*
D20*
X129985000Y-132605000D03*
X129905000Y-135175000D03*
D42*
X122450000Y-141500000D03*
X130700000Y-143500000D03*
X129000000Y-143300000D03*
D20*
X132565000Y-134825000D03*
X131355000Y-135245000D03*
X129300000Y-129950000D03*
X132595000Y-133635000D03*
D42*
X137350000Y-114100000D03*
X138700000Y-115450000D03*
X139800000Y-115000000D03*
X138050000Y-116700000D03*
X118950000Y-136250000D03*
X120150000Y-136600000D03*
X133450000Y-131850000D03*
X94300000Y-134150000D03*
X96350000Y-128650000D03*
D20*
X143775000Y-133850000D03*
X128895000Y-135875000D03*
D42*
X123400000Y-139000000D03*
X104750000Y-134900000D03*
X98950000Y-133150000D03*
X100100000Y-133150000D03*
X99650000Y-131300000D03*
X99500000Y-125050000D03*
X100150000Y-130800000D03*
X99200000Y-129800000D03*
X100450000Y-127200000D03*
X122650000Y-129150000D03*
X140500000Y-135300000D03*
X101700000Y-133350000D03*
X132900000Y-132300000D03*
X135350000Y-133700000D03*
X135900000Y-135050000D03*
X138700000Y-135850000D03*
D20*
X139500000Y-135800000D03*
D42*
X123200000Y-120600000D03*
X136250000Y-133600000D03*
D20*
X135485000Y-130915000D03*
X119115000Y-117095000D03*
D42*
X95500000Y-133800000D03*
X96500000Y-134400000D03*
X139750000Y-135150000D03*
X141600000Y-134900000D03*
X141650000Y-143050000D03*
X116300000Y-131600000D03*
X120900000Y-126500000D03*
X122400000Y-130550000D03*
X117400000Y-131500000D03*
D12*
X141620000Y-135780000D02*
X141670000Y-135780000D01*
X141670000Y-135780000D02*
X141750000Y-135700000D01*
D43*
X146337500Y-118587500D02*
X146637500Y-118587500D01*
X146637500Y-118587500D02*
X147175000Y-118675000D01*
X147175000Y-120675000D02*
X147175000Y-118675000D01*
D12*
X121395000Y-132500000D02*
X122850000Y-132500000D01*
X123950000Y-131400000D02*
X123950000Y-131100000D01*
X122850000Y-132500000D02*
X123950000Y-131400000D01*
X121395000Y-130000000D02*
X122600000Y-130000000D01*
X122600000Y-130000000D02*
X123600000Y-131000000D01*
X123600000Y-131000000D02*
X123850000Y-131000000D01*
X123950000Y-131100000D02*
X123850000Y-131000000D01*
X130067500Y-136967500D02*
X129650000Y-136550000D01*
X130067500Y-136967500D02*
X130067500Y-137227500D01*
X124450000Y-131600000D02*
X123950000Y-131100000D01*
X124450000Y-135000000D02*
X124450000Y-131600000D01*
X126000000Y-136550000D02*
X124450000Y-135000000D01*
X129650000Y-136550000D02*
X126000000Y-136550000D01*
X120085000Y-132450000D02*
X121345000Y-132450000D01*
X121345000Y-132450000D02*
X121395000Y-132500000D01*
X120085000Y-130050000D02*
X121345000Y-130050000D01*
X121345000Y-130050000D02*
X121395000Y-130000000D01*
X121345000Y-132450000D02*
X121395000Y-132500000D01*
X120135000Y-130000000D02*
X120085000Y-130050000D01*
D44*
X130067500Y-137227500D02*
X130565000Y-137227500D01*
X130565000Y-137227500D02*
X130942500Y-137227500D01*
X130942500Y-137227500D02*
X130967500Y-137202500D01*
X130967500Y-137202500D02*
X130967500Y-138217300D01*
X130967500Y-138217300D02*
X130797100Y-138387700D01*
D12*
X128900000Y-144750000D02*
X127700000Y-144750000D01*
X128950000Y-144800000D02*
X128900000Y-144750000D01*
X120085000Y-128450000D02*
X120085000Y-128385000D01*
X120085000Y-128385000D02*
X119485000Y-127785000D01*
X119485000Y-127785000D02*
X119485000Y-127120000D01*
X121395000Y-134000000D02*
X120135000Y-134000000D01*
X120135000Y-134000000D02*
X119485000Y-134650000D01*
X119485000Y-134650000D02*
X119485000Y-135380000D01*
X121395000Y-128500000D02*
X120135000Y-128500000D01*
X120135000Y-128500000D02*
X120085000Y-128450000D01*
X125455000Y-130370000D02*
X125455000Y-132200000D01*
X125455000Y-132200000D02*
X125490000Y-132235000D01*
X125490000Y-132235000D02*
X125850000Y-132235000D01*
X128430000Y-129795000D02*
X128430000Y-129520000D01*
X126140000Y-127750000D02*
X125375000Y-128515000D01*
X128000000Y-127750000D02*
X126140000Y-127750000D01*
X128800000Y-128550000D02*
X128000000Y-127750000D01*
X128800000Y-129150000D02*
X128800000Y-128550000D01*
X128430000Y-129520000D02*
X128800000Y-129150000D01*
X128430000Y-129795000D02*
X128430000Y-130335000D01*
X128430000Y-130335000D02*
X128395000Y-130370000D01*
X113750000Y-140850000D02*
X120250000Y-140850000D01*
X113750000Y-140850000D02*
X113750000Y-135955000D01*
X113750000Y-135955000D02*
X113535000Y-135740000D01*
X119485000Y-135380000D02*
X119485000Y-140085000D01*
X119485000Y-140085000D02*
X120250000Y-140850000D01*
X127550000Y-116500000D02*
X127350000Y-116500000D01*
X127350000Y-116500000D02*
X126450000Y-115600000D01*
X126450000Y-115600000D02*
X126450000Y-112800000D01*
X127550000Y-116500000D02*
X134050000Y-116500000D01*
X131650000Y-127550000D02*
X131650000Y-127750000D01*
X131650000Y-127750000D02*
X133835000Y-129935000D01*
X133835000Y-129935000D02*
X134365000Y-129935000D01*
X131650000Y-127550000D02*
X131650000Y-124950000D01*
X120300000Y-123750000D02*
X121550000Y-123750000D01*
X121550000Y-123750000D02*
X121750000Y-123950000D01*
X124400000Y-122650000D02*
X122950000Y-122650000D01*
X122950000Y-122650000D02*
X122350000Y-123250000D01*
X122350000Y-123250000D02*
X122150000Y-123250000D01*
X122150000Y-123250000D02*
X121750000Y-123650000D01*
X121750000Y-123650000D02*
X121750000Y-123950000D01*
X142940000Y-135090000D02*
X142940000Y-134340000D01*
X142940000Y-134340000D02*
X142900000Y-134300000D01*
X142405000Y-133375000D02*
X142405000Y-133805000D01*
X142405000Y-133805000D02*
X142900000Y-134300000D01*
X142940000Y-135090000D02*
X142900000Y-135000000D01*
X142900000Y-135000000D02*
X142900000Y-134300000D01*
X142940000Y-135090000D02*
X142650000Y-135090000D01*
X142255000Y-133525000D02*
X142405000Y-133375000D01*
X142405000Y-133375000D02*
X141750000Y-133375000D01*
X141750000Y-133375000D02*
X139950000Y-131575000D01*
X128967500Y-137227500D02*
X128372500Y-137227500D01*
X128372500Y-137227500D02*
X128355000Y-137245000D01*
X129917500Y-141302500D02*
X129417500Y-141302500D01*
X129390000Y-141275000D02*
X129255000Y-141275000D01*
X129417500Y-141302500D02*
X129390000Y-141275000D01*
X134365000Y-129935000D02*
X134365000Y-129455000D01*
X121345000Y-134050000D02*
X121395000Y-134000000D01*
X134117500Y-137452500D02*
X134132500Y-137452500D01*
X134132500Y-137452500D02*
X134465000Y-137785000D01*
X134465000Y-137785000D02*
X134465000Y-138755000D01*
X134465000Y-138755000D02*
X134465000Y-139005000D01*
X134465000Y-139005000D02*
X134142500Y-139327500D01*
X134142500Y-139327500D02*
X133387900Y-139327500D01*
X121395000Y-128500000D02*
X125360000Y-128500000D01*
X125360000Y-128500000D02*
X125375000Y-128515000D01*
X120135000Y-128500000D02*
X120085000Y-128450000D01*
X125475000Y-134315000D02*
X125475000Y-134935000D01*
X127825000Y-134965000D02*
X128325000Y-134465000D01*
X125505000Y-134965000D02*
X127825000Y-134965000D01*
X125475000Y-134935000D02*
X125505000Y-134965000D01*
X129425000Y-134465000D02*
X128325000Y-134465000D01*
X125475000Y-134315000D02*
X125475000Y-134045000D01*
X125475000Y-134045000D02*
X125175000Y-133745000D01*
X126280000Y-132235000D02*
X125850000Y-132235000D01*
X125475000Y-134315000D02*
X125475000Y-133215000D01*
X125475000Y-133215000D02*
X125850000Y-132840000D01*
X125850000Y-132840000D02*
X125850000Y-132665000D01*
X125850000Y-132665000D02*
X125850000Y-132235000D01*
D45*
X145445000Y-142725000D02*
X143915000Y-142725000D01*
X142850000Y-143750000D02*
X143915000Y-142725000D01*
X145445000Y-142725000D02*
X145795000Y-142375000D01*
X132755000Y-136555000D02*
X134635000Y-136555000D01*
X132405000Y-136905000D02*
X132755000Y-136555000D01*
X132405000Y-138275000D02*
X132405000Y-136905000D01*
X132517700Y-138387700D02*
X132405000Y-138275000D01*
X132517700Y-138387700D02*
X133387900Y-138387700D01*
D44*
X133017500Y-137452500D02*
X133017500Y-138017300D01*
X133017500Y-138017300D02*
X133387900Y-138387700D01*
D45*
X135335000Y-137255000D02*
X135335000Y-139475000D01*
X134635000Y-136555000D02*
X135335000Y-137255000D01*
D11*
X125350000Y-149500000D02*
X125350000Y-147450000D01*
X123950000Y-146050000D02*
X123950000Y-144750000D01*
X125350000Y-147450000D02*
X123950000Y-146050000D01*
X121395000Y-132000000D02*
X122100000Y-132000000D01*
X122100000Y-132000000D02*
X122500000Y-131600000D01*
X125350000Y-149500000D02*
X125350000Y-147750000D01*
X125350000Y-147750000D02*
X126500000Y-146600000D01*
X125350000Y-149500000D02*
X117160000Y-149500000D01*
X117160000Y-149500000D02*
X117095000Y-149435000D01*
D12*
X117160000Y-149500000D02*
X117095000Y-149435000D01*
X128000000Y-129795000D02*
X127570000Y-129795000D01*
X127325000Y-132250000D02*
X127325000Y-131075000D01*
X127570000Y-130830000D02*
X127570000Y-130870000D01*
X127325000Y-131075000D02*
X127570000Y-130830000D01*
X127570000Y-129795000D02*
X127570000Y-130870000D01*
X127930000Y-131230000D02*
X128395000Y-131230000D01*
X127570000Y-130870000D02*
X127930000Y-131230000D01*
D11*
X125200000Y-138850000D02*
X125200000Y-137850000D01*
D12*
X144040000Y-135090000D02*
X144040000Y-135470000D01*
X144040000Y-135470000D02*
X143605000Y-135905000D01*
X134365000Y-131035000D02*
X133905000Y-131035000D01*
X133905000Y-131035000D02*
X133895000Y-131045000D01*
X137495000Y-132975000D02*
X131035000Y-132975000D01*
X131035000Y-132975000D02*
X130875000Y-132815000D01*
D44*
X130475000Y-133215000D02*
X130875000Y-132815000D01*
X130875000Y-132815000D02*
X130875000Y-131915000D01*
X129425000Y-133365000D02*
X130325000Y-133365000D01*
X130325000Y-133365000D02*
X130475000Y-133215000D01*
X128430000Y-132235000D02*
X128745000Y-132235000D01*
X129425000Y-132915000D02*
X129425000Y-133365000D01*
X128745000Y-132235000D02*
X129425000Y-132915000D01*
X130190000Y-131230000D02*
X130210000Y-131230000D01*
X130210000Y-131230000D02*
X130875000Y-130565000D01*
X128395000Y-131230000D02*
X130190000Y-131230000D01*
X130190000Y-131230000D02*
X130875000Y-131915000D01*
X127325000Y-132235000D02*
X127325000Y-132250000D01*
X127325000Y-132250000D02*
X127325000Y-134215000D01*
X127325000Y-134215000D02*
X127425000Y-134315000D01*
X127425000Y-134315000D02*
X126575000Y-134315000D01*
X127140000Y-132235000D02*
X127325000Y-132235000D01*
X127325000Y-132235000D02*
X127570000Y-132235000D01*
X127225000Y-128515000D02*
X126475000Y-128515000D01*
D12*
X140150000Y-129120000D02*
X140150000Y-126650000D01*
X140150000Y-126650000D02*
X140450000Y-126350000D01*
X146475000Y-133175000D02*
X145875000Y-132575000D01*
X142405000Y-132575000D02*
X145875000Y-132575000D01*
D44*
X128000000Y-132235000D02*
X128000000Y-133040000D01*
X128000000Y-133040000D02*
X128325000Y-133365000D01*
D12*
X137495000Y-130175000D02*
X136375000Y-130175000D01*
X134550000Y-126250000D02*
X134550000Y-125000000D01*
X134500000Y-126300000D02*
X134550000Y-126250000D01*
X136375000Y-130175000D02*
X135000000Y-128800000D01*
X132750000Y-125800000D02*
X132750000Y-124950000D01*
X132750000Y-124950000D02*
X132800000Y-125000000D01*
X132800000Y-125000000D02*
X134550000Y-125000000D01*
X134550000Y-127500000D02*
X134700000Y-127500000D01*
X134700000Y-127500000D02*
X136975000Y-129775000D01*
X136975000Y-129775000D02*
X137495000Y-129775000D01*
X132750000Y-126700000D02*
X132750000Y-127550000D01*
X134550000Y-127500000D02*
X132800000Y-127500000D01*
X132800000Y-127500000D02*
X132750000Y-127550000D01*
D44*
X126710000Y-132235000D02*
X126710000Y-133080000D01*
X126710000Y-133080000D02*
X126575000Y-133215000D01*
D12*
X97805000Y-132480000D02*
X97705000Y-133795000D01*
X98480000Y-126520000D02*
X98480000Y-127210000D01*
X98700000Y-126300000D02*
X98480000Y-126520000D01*
X97705000Y-133795000D02*
X97600000Y-133900000D01*
X95480000Y-128310000D02*
X95480000Y-128520000D01*
X95480000Y-128520000D02*
X94050000Y-129950000D01*
X94050000Y-129950000D02*
X94050000Y-133150000D01*
X94050000Y-133150000D02*
X95250000Y-134350000D01*
X95250000Y-134350000D02*
X95800000Y-134350000D01*
X95800000Y-134350000D02*
X96515000Y-133635000D01*
X96515000Y-133635000D02*
X96515000Y-132480000D01*
X120300000Y-122650000D02*
X120300000Y-121950000D01*
X135600000Y-123350000D02*
X137550000Y-123350000D01*
X133800000Y-123350000D02*
X134200000Y-122950000D01*
X125600000Y-123350000D02*
X133800000Y-123350000D01*
X125400000Y-123150000D02*
X125600000Y-123350000D01*
X125400000Y-122550000D02*
X125400000Y-123150000D01*
X124900000Y-122050000D02*
X125400000Y-122550000D01*
X124350000Y-122050000D02*
X124900000Y-122050000D01*
X123850000Y-121550000D02*
X124350000Y-122050000D01*
X120700000Y-121550000D02*
X123850000Y-121550000D01*
X120300000Y-121950000D02*
X120700000Y-121550000D01*
X121750000Y-122550000D02*
X120400000Y-122550000D01*
X120400000Y-122550000D02*
X120300000Y-122650000D01*
X137550000Y-123350000D02*
X137350000Y-123350000D01*
X140950000Y-129120000D02*
X140950000Y-128050000D01*
X140950000Y-128050000D02*
X141115000Y-127885000D01*
X124400000Y-123750000D02*
X134400000Y-123750000D01*
X135500000Y-122650000D02*
X137550000Y-122650000D01*
X134400000Y-123750000D02*
X135500000Y-122650000D01*
X122850000Y-123950000D02*
X124200000Y-123950000D01*
X124200000Y-123950000D02*
X124400000Y-123750000D01*
X137550000Y-122650000D02*
X137450000Y-122650000D01*
X141350000Y-129120000D02*
X141350000Y-128570000D01*
X141885000Y-128035000D02*
X141885000Y-128025000D01*
X141350000Y-128570000D02*
X141885000Y-128035000D01*
X142816687Y-130996687D02*
X142405000Y-130996687D01*
X142845000Y-131025000D02*
X142816687Y-130996687D01*
X143555000Y-131025000D02*
X142845000Y-131025000D01*
X146365000Y-131025000D02*
X143555000Y-131025000D01*
X142405000Y-130996687D02*
X142405000Y-130975000D01*
X142405000Y-130996687D02*
X142405000Y-130975000D01*
X142426687Y-130996687D02*
X142405000Y-130975000D01*
X142405000Y-130996687D02*
X142405000Y-130975000D01*
X142275000Y-121300000D02*
X142275000Y-121475000D01*
X142275000Y-121475000D02*
X143125000Y-122325000D01*
X143325000Y-125600000D02*
X143475000Y-125750000D01*
X143325000Y-123925000D02*
X143325000Y-125600000D01*
X143125000Y-123725000D02*
X143325000Y-123925000D01*
X143125000Y-122325000D02*
X143125000Y-123725000D01*
X142405000Y-132175000D02*
X143500000Y-132175000D01*
X143500000Y-132175000D02*
X143675000Y-132000000D01*
X142425000Y-125575000D02*
X143300000Y-125575000D01*
X143300000Y-125575000D02*
X143475000Y-125750000D01*
X142275000Y-121300000D02*
X142225000Y-120525000D01*
X142225000Y-120525000D02*
X142025000Y-120325000D01*
X142425000Y-125725000D02*
X143175000Y-126475000D01*
X143175000Y-126475000D02*
X143175000Y-127955000D01*
X142425000Y-125575000D02*
X142425000Y-125725000D01*
X145300000Y-131425000D02*
X142455000Y-131425000D01*
X145625000Y-131750000D02*
X145300000Y-131425000D01*
X142455000Y-131425000D02*
X142405000Y-131375000D01*
X142405000Y-131775000D02*
X142405000Y-131375000D01*
X142425000Y-127075000D02*
X142300000Y-127075000D01*
X142300000Y-127075000D02*
X141705002Y-126480002D01*
X141705002Y-126480002D02*
X141705002Y-124119998D01*
X141705002Y-124119998D02*
X141975000Y-123850000D01*
X142275000Y-127095000D02*
X142275000Y-127565000D01*
X142425000Y-127715000D02*
X142275000Y-127565000D01*
X142425000Y-127715000D02*
X142425000Y-128695000D01*
X142275000Y-127095000D02*
X142265000Y-127085000D01*
X141750000Y-129120000D02*
X141960000Y-129120000D01*
X141960000Y-129120000D02*
X142385000Y-128695000D01*
X142385000Y-128695000D02*
X142425000Y-128695000D01*
X142976687Y-130153313D02*
X142405000Y-130153313D01*
X142425000Y-128695000D02*
X143245000Y-128695000D01*
X143245000Y-128695000D02*
X143505000Y-128955000D01*
X143505000Y-128955000D02*
X143505000Y-129775000D01*
X143505000Y-129775000D02*
X143185000Y-130095000D01*
X143185000Y-130095000D02*
X143035000Y-130095000D01*
X143035000Y-130095000D02*
X142976687Y-130153313D01*
X142405000Y-130153313D02*
X142405000Y-130175000D01*
X142405000Y-129520000D02*
X142405000Y-129775000D01*
X142600000Y-129325000D02*
X142405000Y-129520000D01*
X142275000Y-122800000D02*
X142275000Y-123300000D01*
X142775000Y-123800000D02*
X142775000Y-124325000D01*
X142275000Y-123300000D02*
X142775000Y-123800000D01*
D45*
X127780000Y-126950000D02*
X128355000Y-127525000D01*
X126450000Y-126950000D02*
X127780000Y-126950000D01*
X125700000Y-126200000D02*
X126450000Y-126950000D01*
X131635000Y-132075000D02*
X131815000Y-132255000D01*
X131635000Y-130305000D02*
X131635000Y-132075000D01*
X130915000Y-129585000D02*
X131635000Y-130305000D01*
X130415000Y-129585000D02*
X130915000Y-129585000D01*
X128355000Y-127525000D02*
X130415000Y-129585000D01*
X143850000Y-137825000D02*
X145745000Y-137825000D01*
X145745000Y-137825000D02*
X145795000Y-137875000D01*
X143915000Y-137825000D02*
X143850000Y-137825000D01*
X143850000Y-137825000D02*
X142625000Y-137825000D01*
X137415000Y-139465000D02*
X136845000Y-140035000D01*
X140985000Y-139465000D02*
X137415000Y-139465000D01*
X142625000Y-137825000D02*
X140985000Y-139465000D01*
D44*
X129092500Y-138552500D02*
X129242500Y-138552500D01*
X129242500Y-138552500D02*
X129892500Y-139202500D01*
X129892500Y-139202500D02*
X131617500Y-139202500D01*
X131617500Y-139202500D02*
X131867500Y-138952500D01*
X131867500Y-138952500D02*
X131867500Y-137202500D01*
X133387900Y-140267300D02*
X132682300Y-140267300D01*
X129542498Y-139602502D02*
X129092500Y-140052500D01*
X132017502Y-139602502D02*
X129542498Y-139602502D01*
X132682300Y-140267300D02*
X132017502Y-139602502D01*
D12*
X122300000Y-129500000D02*
X122500000Y-129700000D01*
X122500000Y-129700000D02*
X122950000Y-129700000D01*
X122950000Y-129700000D02*
X123400000Y-130150000D01*
X121395000Y-129500000D02*
X122300000Y-129500000D01*
X119385000Y-132850000D02*
X119200000Y-132850000D01*
X140950000Y-134030000D02*
X140950000Y-134800000D01*
X141100000Y-135700000D02*
X140950000Y-135850000D01*
X141100000Y-134950000D02*
X141100000Y-135700000D01*
X140950000Y-134800000D02*
X141100000Y-134950000D01*
X140455000Y-136345000D02*
X136065000Y-136345000D01*
X140950000Y-135850000D02*
X140455000Y-136345000D01*
X129975000Y-131915000D02*
X129975000Y-132595000D01*
X129975000Y-132595000D02*
X129985000Y-132605000D01*
D44*
X128395000Y-131660000D02*
X129720000Y-131660000D01*
X129720000Y-131660000D02*
X129975000Y-131915000D01*
D12*
X133905000Y-134185000D02*
X131105000Y-134185000D01*
X136065000Y-136345000D02*
X133905000Y-134185000D01*
X131105000Y-134185000D02*
X129905000Y-135175000D01*
X121395000Y-133000000D02*
X122500000Y-133000000D01*
X122450000Y-137500000D02*
X122450000Y-141500000D01*
X123100000Y-136850000D02*
X122450000Y-137500000D01*
X123100000Y-133600000D02*
X123100000Y-136850000D01*
X122500000Y-133000000D02*
X123100000Y-133600000D01*
X129200000Y-143500000D02*
X130700000Y-143500000D01*
X129000000Y-143300000D02*
X129200000Y-143500000D01*
X131775000Y-134825000D02*
X132565000Y-134825000D01*
X131355000Y-135245000D02*
X131775000Y-134825000D01*
X129745000Y-130565000D02*
X129975000Y-130565000D01*
X129300000Y-129950000D02*
X129745000Y-130565000D01*
D44*
X128395000Y-130800000D02*
X129790000Y-130800000D01*
X129790000Y-130800000D02*
X129975000Y-130615000D01*
D12*
X138550000Y-135130000D02*
X138550000Y-134030000D01*
X137655000Y-136025000D02*
X138550000Y-135130000D01*
X136169266Y-136025000D02*
X137655000Y-136025000D01*
X133869266Y-133725000D02*
X136169266Y-136025000D01*
X132685000Y-133725000D02*
X133869266Y-133725000D01*
X132595000Y-133635000D02*
X132685000Y-133725000D01*
X130400000Y-114150000D02*
X131950000Y-114150000D01*
X138550000Y-129120000D02*
X138550000Y-116100000D01*
X134650000Y-114150000D02*
X131950000Y-114150000D01*
X135600000Y-115100000D02*
X134650000Y-114150000D01*
X137550000Y-115100000D02*
X135600000Y-115100000D01*
X138550000Y-116100000D02*
X137550000Y-115100000D01*
X130400000Y-114150000D02*
X129050000Y-112800000D01*
X129050000Y-112800000D02*
X128990000Y-112800000D01*
X128000000Y-111700000D02*
X123660000Y-111700000D01*
X130100000Y-111700000D02*
X128000000Y-111700000D01*
X131200000Y-112800000D02*
X130100000Y-111700000D01*
X123660000Y-111700000D02*
X122500000Y-112860000D01*
X131530000Y-112800000D02*
X131200000Y-112800000D01*
X130835000Y-112785000D02*
X130945000Y-112785000D01*
X139350000Y-129120000D02*
X139350000Y-115250000D01*
X135920000Y-114650000D02*
X134070000Y-112800000D01*
X138750000Y-114650000D02*
X135920000Y-114650000D01*
X139350000Y-115250000D02*
X138750000Y-114650000D01*
X134115000Y-112845000D02*
X134070000Y-112800000D01*
X138950000Y-129120000D02*
X138950000Y-115700000D01*
X137350000Y-114100000D02*
X136610000Y-113360000D01*
X138950000Y-115700000D02*
X138700000Y-115450000D01*
X136610000Y-113360000D02*
X136610000Y-112800000D01*
X127550000Y-121000000D02*
X134050000Y-121000000D01*
X134050000Y-121000000D02*
X137850000Y-121000000D01*
X137850000Y-121000000D02*
X138150000Y-121300000D01*
X138150000Y-129120000D02*
X138150000Y-121300000D01*
X138150000Y-121300000D02*
X138150000Y-116800000D01*
X139150000Y-114350000D02*
X139150000Y-112800000D01*
X139800000Y-115000000D02*
X139150000Y-114350000D01*
X138150000Y-116800000D02*
X138050000Y-116700000D01*
X138075000Y-129045000D02*
X138150000Y-129120000D01*
X102970000Y-133660000D02*
X103060000Y-133660000D01*
X103060000Y-133660000D02*
X104050000Y-134650000D01*
X104050000Y-134650000D02*
X104050000Y-136150000D01*
X104050000Y-136150000D02*
X104050000Y-136150000D01*
X104050000Y-136150000D02*
X98750000Y-136150000D01*
X98750000Y-136150000D02*
X98710000Y-136110000D01*
X98710000Y-136110000D02*
X97480000Y-136110000D01*
X100960000Y-129010000D02*
X99710000Y-129010000D01*
X99710000Y-129010000D02*
X99610000Y-128910000D01*
X97480000Y-136110000D02*
X97510000Y-136110000D01*
X97510000Y-136110000D02*
X97980000Y-136580000D01*
X97980000Y-136580000D02*
X97980000Y-137760000D01*
X121395000Y-133500000D02*
X122150000Y-133500000D01*
X116850000Y-131385000D02*
X119385000Y-128850000D01*
X116850000Y-134150000D02*
X116850000Y-131385000D01*
X118950000Y-136250000D02*
X116850000Y-134150000D01*
X120200000Y-136650000D02*
X120150000Y-136600000D01*
X121450000Y-136650000D02*
X120200000Y-136650000D01*
X122150000Y-135950000D02*
X121450000Y-136650000D01*
X122150000Y-133500000D02*
X122150000Y-135950000D01*
X135425000Y-132575000D02*
X134700000Y-131850000D01*
X134700000Y-131850000D02*
X133450000Y-131850000D01*
X137495000Y-132575000D02*
X135425000Y-132575000D01*
X97980000Y-137760000D02*
X97980000Y-137470000D01*
X97480000Y-136110000D02*
X96260000Y-136110000D01*
X96260000Y-136110000D02*
X94300000Y-134150000D01*
X97980000Y-137760000D02*
X97860000Y-137760000D01*
X97860000Y-137760000D02*
X94300000Y-134200000D01*
X94300000Y-134200000D02*
X94300000Y-134150000D01*
X96631667Y-128910000D02*
X99610000Y-128910000D01*
X96350000Y-128650000D02*
X96631667Y-128910000D01*
D44*
X97480000Y-137260000D02*
X97980000Y-137760000D01*
D12*
X142405000Y-132975000D02*
X143625000Y-132975000D01*
X143775000Y-133125000D02*
X143775000Y-133850000D01*
X143625000Y-132975000D02*
X143775000Y-133125000D01*
D44*
X130797100Y-140267300D02*
X130797100Y-141282100D01*
X130797100Y-141282100D02*
X130817500Y-141302500D01*
X130817500Y-140287700D02*
X130797100Y-140267300D01*
D12*
X125200000Y-139750000D02*
X125200000Y-140400000D01*
X125200000Y-140400000D02*
X120250000Y-145350000D01*
X113750000Y-145350000D02*
X120250000Y-145350000D01*
X129205000Y-136185000D02*
X128895000Y-135875000D01*
X135015000Y-136185000D02*
X129205000Y-136185000D01*
X135585000Y-136755000D02*
X135015000Y-136185000D01*
X140055000Y-136755000D02*
X135585000Y-136755000D01*
X142270000Y-135780000D02*
X141450000Y-135800000D01*
X142300000Y-135750000D02*
X142270000Y-135780000D01*
X142300000Y-134950000D02*
X142300000Y-135750000D01*
X142175000Y-134825000D02*
X142300000Y-134950000D01*
X140495000Y-136755000D02*
X141100000Y-136150000D01*
X141100000Y-136150000D02*
X141450000Y-135800000D01*
X140055000Y-136755000D02*
X140495000Y-136755000D01*
X123090000Y-139310000D02*
X123090000Y-140195000D01*
X123400000Y-139000000D02*
X123090000Y-139310000D01*
X123090000Y-140195000D02*
X124755000Y-140195000D01*
X124755000Y-140195000D02*
X125200000Y-139750000D01*
X123090000Y-140200000D02*
X123090000Y-140195000D01*
X141750000Y-134030000D02*
X141750000Y-134400000D01*
X141750000Y-134400000D02*
X142175000Y-134825000D01*
X142175000Y-134825000D02*
X142200000Y-134850000D01*
X102970000Y-129660000D02*
X104360000Y-129660000D01*
X104800000Y-134850000D02*
X104750000Y-134900000D01*
X104800000Y-130100000D02*
X104800000Y-134850000D01*
X104360000Y-129660000D02*
X104800000Y-130100000D01*
X98200000Y-131905000D02*
X98655000Y-131905000D01*
X98655000Y-131905000D02*
X98950000Y-132200000D01*
X98950000Y-132200000D02*
X98950000Y-133150000D01*
X100240000Y-133010000D02*
X100960000Y-133010000D01*
X100100000Y-133150000D02*
X100240000Y-133010000D01*
X99650000Y-131300000D02*
X99395000Y-131045000D01*
X99395000Y-131045000D02*
X99255000Y-131045000D01*
X98200000Y-131045000D02*
X99255000Y-131045000D01*
X100290000Y-129510000D02*
X100960000Y-129510000D01*
X99900000Y-129900000D02*
X100290000Y-129510000D01*
X99900000Y-130400000D02*
X99900000Y-129900000D01*
X99255000Y-131045000D02*
X99900000Y-130400000D01*
X99500000Y-125050000D02*
X99480000Y-125030000D01*
X99480000Y-125030000D02*
X99480000Y-124630000D01*
X99480000Y-124630000D02*
X99450000Y-124600000D01*
X99450000Y-124600000D02*
X99480000Y-124600000D01*
X100440000Y-130510000D02*
X100960000Y-130510000D01*
X100150000Y-130800000D02*
X100440000Y-130510000D01*
X99480000Y-127210000D02*
X100440000Y-127210000D01*
X98960000Y-130040000D02*
X98235000Y-130040000D01*
X99200000Y-129800000D02*
X98960000Y-130040000D01*
X100440000Y-127210000D02*
X100450000Y-127200000D01*
X95440000Y-124760000D02*
X95540000Y-124760000D01*
X95540000Y-124760000D02*
X96800000Y-123500000D01*
X96800000Y-123500000D02*
X99100000Y-123500000D01*
X99100000Y-123500000D02*
X99480000Y-123880000D01*
X99480000Y-123880000D02*
X99480000Y-124600000D01*
X99480000Y-124600000D02*
X99480000Y-127210000D01*
X98200000Y-131475000D02*
X99025000Y-131475000D01*
X99550000Y-132000000D02*
X99550000Y-134140000D01*
X99550000Y-134140000D02*
X99480000Y-134210000D01*
X98200000Y-131475000D02*
X97575000Y-131475000D01*
X97575000Y-131475000D02*
X97375000Y-131675000D01*
X97375000Y-132480000D02*
X97375000Y-131675000D01*
X97375000Y-131675000D02*
X97375000Y-130040000D01*
X98480000Y-134210000D02*
X99480000Y-134210000D01*
X98480000Y-134210000D02*
X98480000Y-133400000D01*
X98480000Y-133400000D02*
X98480000Y-132725000D01*
X98480000Y-132725000D02*
X98235000Y-132480000D01*
X98235000Y-130040000D02*
X98235000Y-130580000D01*
X98235000Y-130580000D02*
X98200000Y-130615000D01*
X98235000Y-130040000D02*
X97805000Y-130040000D01*
X97805000Y-130040000D02*
X97375000Y-130040000D01*
D44*
X97375000Y-132480000D02*
X96945000Y-132480000D01*
D12*
X99025000Y-131475000D02*
X99550000Y-132000000D01*
X122500000Y-129000000D02*
X121395000Y-129000000D01*
X122650000Y-129150000D02*
X122500000Y-129000000D01*
X140150000Y-134030000D02*
X140150000Y-134850000D01*
X140500000Y-135200000D02*
X140500000Y-135300000D01*
X140150000Y-134850000D02*
X140500000Y-135200000D01*
X100960000Y-133510000D02*
X101690000Y-133510000D01*
X101690000Y-133510000D02*
X101700000Y-133350000D01*
X97980000Y-124760000D02*
X97980000Y-126270000D01*
X97380000Y-126870000D02*
X97380000Y-127410000D01*
X97980000Y-126270000D02*
X97380000Y-126870000D01*
D44*
X97980000Y-124760000D02*
X97980000Y-125260000D01*
D12*
X135900000Y-135050000D02*
X135900000Y-134250000D01*
X114415000Y-124915000D02*
X115150000Y-125650000D01*
X115150000Y-125650000D02*
X118650000Y-125650000D01*
X118650000Y-125650000D02*
X118900000Y-125400000D01*
X118900000Y-125400000D02*
X125650000Y-125400000D01*
X125650000Y-125400000D02*
X126650000Y-126400000D01*
X126650000Y-126400000D02*
X128150000Y-126400000D01*
X128150000Y-126400000D02*
X130700000Y-128950000D01*
X130700000Y-128950000D02*
X130850000Y-128950000D01*
X130850000Y-128950000D02*
X132350000Y-130450000D01*
X132350000Y-130450000D02*
X132350000Y-131200000D01*
X132350000Y-131200000D02*
X132150000Y-131400000D01*
X114415000Y-124915000D02*
X114415000Y-123805000D01*
X132150000Y-131550000D02*
X132150000Y-131400000D01*
X132900000Y-132300000D02*
X132150000Y-131550000D01*
X135900000Y-134250000D02*
X135350000Y-133700000D01*
X138950000Y-134030000D02*
X138950000Y-135600000D01*
X138950000Y-135600000D02*
X138700000Y-135850000D01*
X139350000Y-134030000D02*
X139350000Y-134650002D01*
X139250002Y-135400000D02*
X139250002Y-135550002D01*
X139250002Y-135550002D02*
X139500000Y-135800000D01*
X139350000Y-134650002D02*
X139250002Y-134750000D01*
X139250002Y-134750000D02*
X139250002Y-135400000D01*
X136500000Y-135450000D02*
X136500000Y-133850000D01*
X116120000Y-121750000D02*
X114435000Y-120065000D01*
X118750000Y-121750000D02*
X116120000Y-121750000D01*
X119550000Y-120950000D02*
X118750000Y-121750000D01*
X122850000Y-120950000D02*
X119550000Y-120950000D01*
X123200000Y-120600000D02*
X122850000Y-120950000D01*
X136500000Y-133850000D02*
X136250000Y-133600000D01*
X138150000Y-134030000D02*
X138150000Y-134950000D01*
X137650000Y-135450000D02*
X136500000Y-135450000D01*
X138150000Y-134950000D02*
X137650000Y-135450000D01*
X138150000Y-134030000D02*
X138150000Y-134290000D01*
X136790000Y-135450000D02*
X136500000Y-135450000D01*
X137495000Y-130575000D02*
X136755000Y-130575000D01*
X136415000Y-130915000D02*
X135485000Y-130915000D01*
X136755000Y-130575000D02*
X136415000Y-130915000D01*
X118390000Y-116370000D02*
X117450000Y-116370000D01*
X117450000Y-116370000D02*
X114455000Y-113375000D01*
X114455000Y-113375000D02*
X114455000Y-113245000D01*
X119115000Y-117095000D02*
X118390000Y-116370000D01*
X108820000Y-135750000D02*
X108820000Y-126770000D01*
X95655000Y-132480000D02*
X95655000Y-133645000D01*
X95655000Y-133645000D02*
X95500000Y-133800000D01*
X102870000Y-127130000D02*
X107270000Y-127130000D01*
X108820000Y-126770000D02*
X107630000Y-126770000D01*
X107630000Y-126770000D02*
X107270000Y-127130000D01*
X107270000Y-127130000D02*
X107300000Y-127100000D01*
X102270000Y-128460000D02*
X102270000Y-127730000D01*
X102270000Y-127730000D02*
X102870000Y-127130000D01*
X100960000Y-128510000D02*
X102220000Y-128510000D01*
X102220000Y-128510000D02*
X102270000Y-128460000D01*
X98480000Y-135310000D02*
X99480000Y-135310000D01*
X95655000Y-132480000D02*
X95655000Y-133095000D01*
X96500000Y-134400000D02*
X97310000Y-135210000D01*
X97310000Y-135210000D02*
X97480000Y-135210000D01*
X102870000Y-135390000D02*
X102870000Y-134660000D01*
X102870000Y-134660000D02*
X102220000Y-134010000D01*
X102220000Y-134010000D02*
X100960000Y-134010000D01*
X97480000Y-135210000D02*
X98380000Y-135210000D01*
X98380000Y-135210000D02*
X98480000Y-135310000D01*
X98480000Y-135310000D02*
X99890000Y-135310000D01*
X99890000Y-135310000D02*
X100960000Y-134240000D01*
X100960000Y-134240000D02*
X100960000Y-134010000D01*
X95480000Y-127210000D02*
X95660000Y-127210000D01*
X95660000Y-127210000D02*
X96760000Y-128310000D01*
X96760000Y-128310000D02*
X97380000Y-128310000D01*
X97380000Y-128310000D02*
X98480000Y-128310000D01*
X98480000Y-128310000D02*
X99480000Y-128310000D01*
X99480000Y-128310000D02*
X99680000Y-128510000D01*
X99680000Y-128510000D02*
X100960000Y-128510000D01*
X95260000Y-130615000D02*
X95260000Y-132445000D01*
X95260000Y-132445000D02*
X95295000Y-132480000D01*
X95295000Y-132480000D02*
X95655000Y-132480000D01*
D44*
X101010000Y-134060000D02*
X100960000Y-134010000D01*
X99480000Y-135310000D02*
X99480000Y-135260000D01*
X100730000Y-134010000D02*
X100960000Y-134010000D01*
X98480000Y-135310000D02*
X98380000Y-135210000D01*
X96085000Y-132480000D02*
X95655000Y-132480000D01*
D12*
X147150000Y-121750000D02*
X147150000Y-122800000D01*
X147150000Y-122800000D02*
X147000000Y-122950000D01*
D43*
X146975000Y-122975000D02*
X147162500Y-122975000D01*
X147162500Y-123937500D02*
X147162500Y-122087500D01*
X147162500Y-126287500D02*
X147162500Y-123937500D01*
X147175000Y-122075000D02*
X147175000Y-121575000D01*
X147162500Y-122087500D02*
X147175000Y-122075000D01*
X142405000Y-130575000D02*
X143750000Y-130575000D01*
X143750000Y-130575000D02*
X147162500Y-127162500D01*
X147162500Y-127162500D02*
X147162500Y-126287500D01*
D12*
X147525000Y-145055000D02*
X145585000Y-146995000D01*
X147525000Y-143100000D02*
X147525000Y-145055000D01*
X148400000Y-142225000D02*
X147525000Y-143100000D01*
X148400000Y-140700000D02*
X148400000Y-142225000D01*
X145585000Y-146995000D02*
X145585000Y-146265000D01*
X147075000Y-139375000D02*
X148400000Y-140700000D01*
X145795000Y-139375000D02*
X147075000Y-139375000D01*
X139750000Y-135150000D02*
X139750000Y-134030000D01*
X141350000Y-134650000D02*
X141350000Y-134030000D01*
X141350000Y-134650000D02*
X141600000Y-134900000D01*
D11*
X127550000Y-149500000D02*
X127550000Y-148200000D01*
X141650000Y-143800000D02*
X141650000Y-143050000D01*
X140800000Y-144650000D02*
X141650000Y-143800000D01*
X131100000Y-144650000D02*
X140800000Y-144650000D01*
X127550000Y-148200000D02*
X131100000Y-144650000D01*
D44*
X100925000Y-131045000D02*
X100960000Y-131010000D01*
X102080000Y-130860000D02*
X102270000Y-130860000D01*
D12*
X121395000Y-130500000D02*
X122350000Y-130500000D01*
X116300000Y-127800000D02*
X116300000Y-131600000D01*
X117800000Y-126300000D02*
X116300000Y-127800000D01*
X120700000Y-126300000D02*
X117800000Y-126300000D01*
X120900000Y-126500000D02*
X120700000Y-126300000D01*
X122350000Y-130500000D02*
X122400000Y-130550000D01*
X118550000Y-131500000D02*
X119100000Y-132050000D01*
X117400000Y-131500000D02*
X118550000Y-131500000D01*
X119100000Y-132050000D02*
X119385000Y-132050000D01*
X126200000Y-144750000D02*
X124850000Y-144750000D01*
D46*
G36*
X148473000Y-135590615D02*
X148255000Y-135590615D01*
X148115292Y-135616903D01*
X147986980Y-135699470D01*
X147900899Y-135825453D01*
X147870615Y-135975000D01*
X147870615Y-136975000D01*
X147896903Y-137114708D01*
X147979470Y-137243020D01*
X148105453Y-137329101D01*
X148255000Y-137359385D01*
X148473000Y-137359385D01*
X148473000Y-140133776D01*
X147770144Y-139430920D01*
X148022846Y-139326505D01*
X148255688Y-139094070D01*
X148381856Y-138790222D01*
X148382143Y-138461221D01*
X148256505Y-138157154D01*
X148024070Y-137924312D01*
X147720222Y-137798144D01*
X147391221Y-137797857D01*
X147087154Y-137923495D01*
X146929385Y-138080988D01*
X146929385Y-137525000D01*
X146903097Y-137385292D01*
X146881952Y-137352432D01*
X146984708Y-137333097D01*
X147113020Y-137250530D01*
X147199101Y-137124547D01*
X147229385Y-136975000D01*
X147229385Y-135975000D01*
X147203097Y-135835292D01*
X147120530Y-135706980D01*
X146994547Y-135620899D01*
X146845000Y-135590615D01*
X146045000Y-135590615D01*
X145905292Y-135616903D01*
X145776980Y-135699470D01*
X145690899Y-135825453D01*
X145660615Y-135975000D01*
X145660615Y-136975000D01*
X145686903Y-137114708D01*
X145703574Y-137140615D01*
X145045000Y-137140615D01*
X144905292Y-137166903D01*
X144776980Y-137249470D01*
X144709657Y-137348000D01*
X142625000Y-137348000D01*
X142442460Y-137384309D01*
X142287710Y-137487710D01*
X140787420Y-138988000D01*
X137415000Y-138988000D01*
X137232460Y-139024309D01*
X137077710Y-139127710D01*
X136847418Y-139358002D01*
X136710927Y-139357883D01*
X136462011Y-139460733D01*
X136271402Y-139651010D01*
X136168118Y-139899746D01*
X136167883Y-140169073D01*
X136270733Y-140417989D01*
X136461010Y-140608598D01*
X136709746Y-140711882D01*
X136979073Y-140712117D01*
X137227989Y-140609267D01*
X137418598Y-140418990D01*
X137521882Y-140170254D01*
X137522002Y-140032578D01*
X137612580Y-139942000D01*
X140985000Y-139942000D01*
X141167540Y-139905691D01*
X141322290Y-139802290D01*
X142822580Y-138302000D01*
X144675104Y-138302000D01*
X144686903Y-138364708D01*
X144769470Y-138493020D01*
X144895453Y-138579101D01*
X145045000Y-138609385D01*
X146545000Y-138609385D01*
X146684708Y-138583097D01*
X146728061Y-138555200D01*
X146727940Y-138693716D01*
X146694547Y-138670899D01*
X146545000Y-138640615D01*
X145045000Y-138640615D01*
X144905292Y-138666903D01*
X144776980Y-138749470D01*
X144690899Y-138875453D01*
X144660615Y-139025000D01*
X144660615Y-139725000D01*
X144686903Y-139864708D01*
X144769470Y-139993020D01*
X144895453Y-140079101D01*
X145045000Y-140109385D01*
X146545000Y-140109385D01*
X146684708Y-140083097D01*
X146813020Y-140000530D01*
X146899101Y-139874547D01*
X146905201Y-139844425D01*
X147948000Y-140887224D01*
X147948000Y-140892725D01*
X147720222Y-140798144D01*
X147391221Y-140797857D01*
X147087154Y-140923495D01*
X146854312Y-141155930D01*
X146728144Y-141459778D01*
X146727940Y-141693716D01*
X146694547Y-141670899D01*
X146545000Y-141640615D01*
X145045000Y-141640615D01*
X144905292Y-141666903D01*
X144776980Y-141749470D01*
X144690899Y-141875453D01*
X144660615Y-142025000D01*
X144660615Y-142248000D01*
X143915000Y-142248000D01*
X143828121Y-142265281D01*
X143740926Y-142280897D01*
X143737016Y-142283403D01*
X143732460Y-142284309D01*
X143658795Y-142333531D01*
X143584226Y-142381318D01*
X142865537Y-143073014D01*
X142715927Y-143072883D01*
X142467011Y-143175733D01*
X142276402Y-143366010D01*
X142177000Y-143605397D01*
X142177000Y-143350638D01*
X142251895Y-143170271D01*
X142252104Y-142930780D01*
X142160648Y-142709440D01*
X141991451Y-142539947D01*
X141770271Y-142448105D01*
X141530780Y-142447896D01*
X141309440Y-142539352D01*
X141139947Y-142708549D01*
X141048105Y-142929729D01*
X141047896Y-143169220D01*
X141123000Y-143350985D01*
X141123000Y-143581709D01*
X140581710Y-144123000D01*
X131100000Y-144123000D01*
X130898325Y-144163115D01*
X130727355Y-144277355D01*
X127177355Y-147827355D01*
X127063115Y-147998325D01*
X127040305Y-148113000D01*
X127023000Y-148200000D01*
X127023000Y-148665615D01*
X126950000Y-148665615D01*
X126810292Y-148691903D01*
X126681980Y-148774470D01*
X126595899Y-148900453D01*
X126565615Y-149050000D01*
X126565615Y-149950000D01*
X126591903Y-150089708D01*
X126674470Y-150218020D01*
X126800453Y-150304101D01*
X126950000Y-150334385D01*
X128150000Y-150334385D01*
X128289708Y-150308097D01*
X128418020Y-150225530D01*
X128504101Y-150099547D01*
X128534385Y-149950000D01*
X128534385Y-149540000D01*
X131648962Y-149540000D01*
X131742362Y-150009553D01*
X132008342Y-150407620D01*
X132406409Y-150673600D01*
X132875962Y-150767000D01*
X132924038Y-150767000D01*
X133393591Y-150673600D01*
X133791658Y-150407620D01*
X134057638Y-150009553D01*
X134151038Y-149540000D01*
X134111256Y-149340000D01*
X138098962Y-149340000D01*
X138192362Y-149809553D01*
X138458342Y-150207620D01*
X138856409Y-150473600D01*
X139325962Y-150567000D01*
X139374038Y-150567000D01*
X139843591Y-150473600D01*
X140241658Y-150207620D01*
X140507638Y-149809553D01*
X140601038Y-149340000D01*
X140507638Y-148870447D01*
X140241658Y-148472380D01*
X139843591Y-148206400D01*
X139374038Y-148113000D01*
X139325962Y-148113000D01*
X138856409Y-148206400D01*
X138458342Y-148472380D01*
X138192362Y-148870447D01*
X138098962Y-149340000D01*
X134111256Y-149340000D01*
X134057638Y-149070447D01*
X133791658Y-148672380D01*
X133393591Y-148406400D01*
X132924038Y-148313000D01*
X132875962Y-148313000D01*
X132406409Y-148406400D01*
X132008342Y-148672380D01*
X131742362Y-149070447D01*
X131648962Y-149540000D01*
X128534385Y-149540000D01*
X128534385Y-149050000D01*
X128508097Y-148910292D01*
X128425530Y-148781980D01*
X128299547Y-148695899D01*
X128150000Y-148665615D01*
X128077000Y-148665615D01*
X128077000Y-148418290D01*
X130345290Y-146150000D01*
X131665615Y-146150000D01*
X131665615Y-147850000D01*
X131691903Y-147989708D01*
X131774470Y-148118020D01*
X131900453Y-148204101D01*
X132050000Y-148234385D01*
X133750000Y-148234385D01*
X133889708Y-148208097D01*
X134018020Y-148125530D01*
X134104101Y-147999547D01*
X134134385Y-147850000D01*
X134134385Y-146150000D01*
X134108097Y-146010292D01*
X134069300Y-145950000D01*
X138115615Y-145950000D01*
X138115615Y-147650000D01*
X138141903Y-147789708D01*
X138224470Y-147918020D01*
X138350453Y-148004101D01*
X138500000Y-148034385D01*
X140200000Y-148034385D01*
X140339708Y-148008097D01*
X140468020Y-147925530D01*
X140554101Y-147799547D01*
X140584385Y-147650000D01*
X140584385Y-145950000D01*
X140558097Y-145810292D01*
X140475530Y-145681980D01*
X140349547Y-145595899D01*
X140200000Y-145565615D01*
X138500000Y-145565615D01*
X138360292Y-145591903D01*
X138231980Y-145674470D01*
X138145899Y-145800453D01*
X138115615Y-145950000D01*
X134069300Y-145950000D01*
X134025530Y-145881980D01*
X133899547Y-145795899D01*
X133750000Y-145765615D01*
X132050000Y-145765615D01*
X131910292Y-145791903D01*
X131781980Y-145874470D01*
X131695899Y-146000453D01*
X131665615Y-146150000D01*
X130345290Y-146150000D01*
X131318290Y-145177000D01*
X140800000Y-145177000D01*
X141001675Y-145136885D01*
X141172645Y-145022645D01*
X142022646Y-144172645D01*
X142136885Y-144001674D01*
X142172939Y-143820419D01*
X142172883Y-143884073D01*
X142275733Y-144132989D01*
X142466010Y-144323598D01*
X142714746Y-144426882D01*
X142984073Y-144427117D01*
X143232989Y-144324267D01*
X143423598Y-144133990D01*
X143526882Y-143885254D01*
X143526991Y-143760469D01*
X144107253Y-143202000D01*
X145445000Y-143202000D01*
X145627540Y-143165691D01*
X145693536Y-143121594D01*
X145690899Y-143125453D01*
X145660615Y-143275000D01*
X145660615Y-144275000D01*
X145686903Y-144414708D01*
X145769470Y-144543020D01*
X145895453Y-144629101D01*
X146045000Y-144659385D01*
X146845000Y-144659385D01*
X146984708Y-144633097D01*
X147073000Y-144576282D01*
X147073000Y-144867776D01*
X146175161Y-145765615D01*
X144750000Y-145765615D01*
X144610292Y-145791903D01*
X144481980Y-145874470D01*
X144395899Y-146000453D01*
X144365615Y-146150000D01*
X144365615Y-147850000D01*
X144391903Y-147989708D01*
X144474470Y-148118020D01*
X144600453Y-148204101D01*
X144750000Y-148234385D01*
X144953791Y-148234385D01*
X144718642Y-148344817D01*
X144328355Y-148773076D01*
X144158524Y-149183110D01*
X144279845Y-149413000D01*
X145473000Y-149413000D01*
X145473000Y-149393000D01*
X145727000Y-149393000D01*
X145727000Y-149413000D01*
X146920155Y-149413000D01*
X147041476Y-149183110D01*
X146871645Y-148773076D01*
X146481358Y-148344817D01*
X146246209Y-148234385D01*
X146450000Y-148234385D01*
X146589708Y-148208097D01*
X146718020Y-148125530D01*
X146804101Y-147999547D01*
X146834385Y-147850000D01*
X146834385Y-146384839D01*
X147844612Y-145374612D01*
X147942594Y-145227973D01*
X147950205Y-145189708D01*
X147977000Y-145055000D01*
X147977000Y-144539182D01*
X147979470Y-144543020D01*
X148105453Y-144629101D01*
X148255000Y-144659385D01*
X148473000Y-144659385D01*
X148473000Y-150893000D01*
X146145310Y-150893000D01*
X146481358Y-150735183D01*
X146871645Y-150306924D01*
X147041476Y-149896890D01*
X146920155Y-149667000D01*
X145727000Y-149667000D01*
X145727000Y-149687000D01*
X145473000Y-149687000D01*
X145473000Y-149667000D01*
X144279845Y-149667000D01*
X144158524Y-149896890D01*
X144328355Y-150306924D01*
X144718642Y-150735183D01*
X145054690Y-150893000D01*
X112817000Y-150893000D01*
X112817000Y-148585000D01*
X113320615Y-148585000D01*
X113320615Y-150285000D01*
X113346903Y-150424708D01*
X113429470Y-150553020D01*
X113555453Y-150639101D01*
X113705000Y-150669385D01*
X115405000Y-150669385D01*
X115544708Y-150643097D01*
X115673020Y-150560530D01*
X115759101Y-150434547D01*
X115789385Y-150285000D01*
X115789385Y-148585000D01*
X115763097Y-148445292D01*
X115680530Y-148316980D01*
X115554547Y-148230899D01*
X115405000Y-148200615D01*
X113705000Y-148200615D01*
X113565292Y-148226903D01*
X113436980Y-148309470D01*
X113350899Y-148435453D01*
X113320615Y-148585000D01*
X112817000Y-148585000D01*
X112817000Y-146364444D01*
X112968974Y-146516683D01*
X113474896Y-146726760D01*
X114022701Y-146727238D01*
X114528989Y-146518044D01*
X114916683Y-146131026D01*
X115053306Y-145802000D01*
X118946847Y-145802000D01*
X119081956Y-146128989D01*
X119125890Y-146173000D01*
X118794429Y-146173000D01*
X118794429Y-148973000D01*
X118234884Y-148973000D01*
X118228600Y-148941409D01*
X117962620Y-148543342D01*
X117564553Y-148277362D01*
X117095000Y-148183962D01*
X116625447Y-148277362D01*
X116227380Y-148543342D01*
X115961400Y-148941409D01*
X115868000Y-149410962D01*
X115868000Y-149459038D01*
X115961400Y-149928591D01*
X116227380Y-150326658D01*
X116625447Y-150592638D01*
X117095000Y-150686038D01*
X117564553Y-150592638D01*
X117962620Y-150326658D01*
X118162845Y-150027000D01*
X124380104Y-150027000D01*
X124391903Y-150089708D01*
X124474470Y-150218020D01*
X124600453Y-150304101D01*
X124750000Y-150334385D01*
X125950000Y-150334385D01*
X126089708Y-150308097D01*
X126218020Y-150225530D01*
X126304101Y-150099547D01*
X126334385Y-149950000D01*
X126334385Y-149050000D01*
X126308097Y-148910292D01*
X126225530Y-148781980D01*
X126099547Y-148695899D01*
X125950000Y-148665615D01*
X125877000Y-148665615D01*
X125877000Y-147968290D01*
X126660063Y-147185228D01*
X126840560Y-147110648D01*
X127010053Y-146941451D01*
X127101895Y-146720271D01*
X127102104Y-146480780D01*
X127010648Y-146259440D01*
X126841451Y-146089947D01*
X126620271Y-145998105D01*
X126380780Y-145997896D01*
X126159440Y-146089352D01*
X125989947Y-146258549D01*
X125914526Y-146440183D01*
X125500000Y-146854710D01*
X124477000Y-145831710D01*
X124477000Y-145388076D01*
X124500453Y-145404101D01*
X124650000Y-145434385D01*
X125050000Y-145434385D01*
X125189708Y-145408097D01*
X125318020Y-145325530D01*
X125402425Y-145202000D01*
X125430104Y-145202000D01*
X125441903Y-145264708D01*
X125524470Y-145393020D01*
X125650453Y-145479101D01*
X125800000Y-145509385D01*
X126600000Y-145509385D01*
X126739708Y-145483097D01*
X126756527Y-145472274D01*
X126761673Y-145484699D01*
X126940302Y-145663327D01*
X127173691Y-145760000D01*
X127414250Y-145760000D01*
X127573000Y-145601250D01*
X127573000Y-144877000D01*
X127827000Y-144877000D01*
X127827000Y-145601250D01*
X127985750Y-145760000D01*
X128226309Y-145760000D01*
X128459698Y-145663327D01*
X128638327Y-145484699D01*
X128735000Y-145251310D01*
X128735000Y-145035750D01*
X128576250Y-144877000D01*
X127827000Y-144877000D01*
X127573000Y-144877000D01*
X127553000Y-144877000D01*
X127553000Y-144623000D01*
X127573000Y-144623000D01*
X127573000Y-143898750D01*
X127827000Y-143898750D01*
X127827000Y-144623000D01*
X128576250Y-144623000D01*
X128735000Y-144464250D01*
X128735000Y-144248690D01*
X128638327Y-144015301D01*
X128459698Y-143836673D01*
X128226309Y-143740000D01*
X127985750Y-143740000D01*
X127827000Y-143898750D01*
X127573000Y-143898750D01*
X127414250Y-143740000D01*
X127173691Y-143740000D01*
X126940302Y-143836673D01*
X126761673Y-144015301D01*
X126757191Y-144026122D01*
X126749547Y-144020899D01*
X126600000Y-143990615D01*
X125800000Y-143990615D01*
X125660292Y-144016903D01*
X125531980Y-144099470D01*
X125445899Y-144225453D01*
X125431208Y-144298000D01*
X125400187Y-144298000D01*
X125325530Y-144181980D01*
X125199547Y-144095899D01*
X125050000Y-144065615D01*
X124650000Y-144065615D01*
X124510292Y-144091903D01*
X124398748Y-144163680D01*
X124299547Y-144095899D01*
X124150000Y-144065615D01*
X123750000Y-144065615D01*
X123610292Y-144091903D01*
X123481980Y-144174470D01*
X123395899Y-144300453D01*
X123365615Y-144450000D01*
X123365615Y-145050000D01*
X123391903Y-145189708D01*
X123423000Y-145238034D01*
X123423000Y-146050000D01*
X123447466Y-146173000D01*
X121374636Y-146173000D01*
X121416683Y-146131026D01*
X121626760Y-145625104D01*
X121627238Y-145077299D01*
X121491189Y-144748035D01*
X122820004Y-143419220D01*
X128397896Y-143419220D01*
X128489352Y-143640560D01*
X128658549Y-143810053D01*
X128879729Y-143901895D01*
X129003694Y-143902003D01*
X129027027Y-143917594D01*
X129200000Y-143952000D01*
X130300597Y-143952000D01*
X130358549Y-144010053D01*
X130579729Y-144101895D01*
X130819220Y-144102104D01*
X131040560Y-144010648D01*
X131210053Y-143841451D01*
X131301895Y-143620271D01*
X131302104Y-143380780D01*
X131210648Y-143159440D01*
X131041451Y-142989947D01*
X130820271Y-142898105D01*
X130580780Y-142897896D01*
X130359440Y-142989352D01*
X130300689Y-143048000D01*
X129547240Y-143048000D01*
X129510648Y-142959440D01*
X129341451Y-142789947D01*
X129120271Y-142698105D01*
X128880780Y-142697896D01*
X128659440Y-142789352D01*
X128489947Y-142958549D01*
X128398105Y-143179729D01*
X128397896Y-143419220D01*
X122820004Y-143419220D01*
X124650974Y-141588250D01*
X129082500Y-141588250D01*
X129082500Y-141728810D01*
X129179173Y-141962199D01*
X129357802Y-142140827D01*
X129591191Y-142237500D01*
X129658750Y-142237500D01*
X129817500Y-142078750D01*
X129817500Y-141429500D01*
X129241250Y-141429500D01*
X129082500Y-141588250D01*
X124650974Y-141588250D01*
X125519612Y-140719612D01*
X125617594Y-140572973D01*
X125652000Y-140400000D01*
X125652000Y-140300187D01*
X125768020Y-140225530D01*
X125854101Y-140099547D01*
X125884385Y-139950000D01*
X125884385Y-139550000D01*
X125858097Y-139410292D01*
X125786320Y-139298748D01*
X125854101Y-139199547D01*
X125884385Y-139050000D01*
X125884385Y-138650000D01*
X125858097Y-138510292D01*
X125775530Y-138381980D01*
X125727000Y-138348821D01*
X125727000Y-138150638D01*
X125801895Y-137970271D01*
X125802104Y-137730780D01*
X125710648Y-137509440D01*
X125541451Y-137339947D01*
X125320271Y-137248105D01*
X125080780Y-137247896D01*
X124859440Y-137339352D01*
X124689947Y-137508549D01*
X124598105Y-137729729D01*
X124597896Y-137969220D01*
X124673000Y-138150985D01*
X124673000Y-138348074D01*
X124631980Y-138374470D01*
X124545899Y-138500453D01*
X124515615Y-138650000D01*
X124515615Y-139050000D01*
X124541903Y-139189708D01*
X124613680Y-139301252D01*
X124545899Y-139400453D01*
X124515615Y-139550000D01*
X124515615Y-139743000D01*
X123542000Y-139743000D01*
X123542000Y-139592691D01*
X123740560Y-139510648D01*
X123910053Y-139341451D01*
X124001895Y-139120271D01*
X124002104Y-138880780D01*
X123910648Y-138659440D01*
X123741451Y-138489947D01*
X123520271Y-138398105D01*
X123280780Y-138397896D01*
X123059440Y-138489352D01*
X122902000Y-138646517D01*
X122902000Y-137687224D01*
X123419612Y-137169612D01*
X123517594Y-137022973D01*
X123552000Y-136850000D01*
X123552000Y-133600000D01*
X123517594Y-133427027D01*
X123419612Y-133280388D01*
X123043262Y-132904038D01*
X123169612Y-132819612D01*
X123998000Y-131991224D01*
X123998000Y-135000000D01*
X124032406Y-135172973D01*
X124130388Y-135319612D01*
X125680388Y-136869612D01*
X125827027Y-136967594D01*
X126000000Y-137002000D01*
X128090750Y-137002000D01*
X128191250Y-137102500D01*
X128840500Y-137102500D01*
X128840500Y-137080500D01*
X129094500Y-137080500D01*
X129094500Y-137102500D01*
X129114500Y-137102500D01*
X129114500Y-137352500D01*
X129094500Y-137352500D01*
X129094500Y-137374500D01*
X128840500Y-137374500D01*
X128840500Y-137352500D01*
X128191250Y-137352500D01*
X128032500Y-137511250D01*
X128032500Y-137603810D01*
X128129173Y-137837199D01*
X128307802Y-138015827D01*
X128356691Y-138036078D01*
X128333115Y-138152500D01*
X128333115Y-138952500D01*
X128359403Y-139092208D01*
X128441970Y-139220520D01*
X128563531Y-139303580D01*
X128449480Y-139376970D01*
X128363399Y-139502953D01*
X128333115Y-139652500D01*
X128333115Y-140452500D01*
X128359403Y-140592208D01*
X128441970Y-140720520D01*
X128567953Y-140806601D01*
X128717500Y-140836885D01*
X129098781Y-140836885D01*
X129082500Y-140876190D01*
X129082500Y-141016750D01*
X129241250Y-141175500D01*
X129817500Y-141175500D01*
X129817500Y-141155500D01*
X130017500Y-141155500D01*
X130017500Y-141175500D01*
X130064500Y-141175500D01*
X130064500Y-141429500D01*
X130017500Y-141429500D01*
X130017500Y-142078750D01*
X130176250Y-142237500D01*
X130243809Y-142237500D01*
X130477198Y-142140827D01*
X130631141Y-141986885D01*
X131017500Y-141986885D01*
X131157208Y-141960597D01*
X131285520Y-141878030D01*
X131371601Y-141752047D01*
X131401885Y-141602500D01*
X131401885Y-141002500D01*
X131388447Y-140931085D01*
X131432100Y-140931085D01*
X131571808Y-140904797D01*
X131700120Y-140822230D01*
X131786201Y-140696247D01*
X131816485Y-140546700D01*
X131816485Y-140111421D01*
X132327330Y-140622265D01*
X132327332Y-140622268D01*
X132390701Y-140664610D01*
X132394803Y-140686408D01*
X132477370Y-140814720D01*
X132603353Y-140900801D01*
X132752900Y-140931085D01*
X134022900Y-140931085D01*
X134162608Y-140904797D01*
X134290920Y-140822230D01*
X134377001Y-140696247D01*
X134407285Y-140546700D01*
X134407285Y-140120540D01*
X134561227Y-139966599D01*
X134657900Y-139733210D01*
X134657900Y-139613250D01*
X134499150Y-139454500D01*
X133514900Y-139454500D01*
X133514900Y-139474500D01*
X133260900Y-139474500D01*
X133260900Y-139454500D01*
X133240900Y-139454500D01*
X133240900Y-139200500D01*
X133260900Y-139200500D01*
X133260900Y-139180500D01*
X133514900Y-139180500D01*
X133514900Y-139200500D01*
X134499150Y-139200500D01*
X134657900Y-139041750D01*
X134657900Y-138921790D01*
X134561227Y-138688401D01*
X134407285Y-138534460D01*
X134407285Y-138337500D01*
X134543809Y-138337500D01*
X134777198Y-138240827D01*
X134858000Y-138160025D01*
X134858000Y-138994580D01*
X134761402Y-139091010D01*
X134658118Y-139339746D01*
X134657883Y-139609073D01*
X134760733Y-139857989D01*
X134951010Y-140048598D01*
X135199746Y-140151882D01*
X135469073Y-140152117D01*
X135717989Y-140049267D01*
X135908598Y-139858990D01*
X136011882Y-139610254D01*
X136012117Y-139340927D01*
X135909267Y-139092011D01*
X135812000Y-138994574D01*
X135812000Y-137255000D01*
X135802452Y-137207000D01*
X140495000Y-137207000D01*
X140667973Y-137172594D01*
X140814612Y-137074612D01*
X140846261Y-137042963D01*
X140860733Y-137077989D01*
X141051010Y-137268598D01*
X141299746Y-137371882D01*
X141569073Y-137372117D01*
X141817989Y-137269267D01*
X142008598Y-137078990D01*
X142111882Y-136830254D01*
X142112117Y-136560927D01*
X142009267Y-136312011D01*
X141937623Y-136240242D01*
X142281021Y-136231866D01*
X142361791Y-136213742D01*
X142442973Y-136197594D01*
X142447634Y-136194479D01*
X142453104Y-136193252D01*
X142520788Y-136145599D01*
X142589612Y-136099612D01*
X142619612Y-136069613D01*
X142717594Y-135922973D01*
X142720404Y-135908846D01*
X142812998Y-135816252D01*
X142812998Y-135975000D01*
X142927939Y-135975000D01*
X142927883Y-136039073D01*
X143030733Y-136287989D01*
X143221010Y-136478598D01*
X143469746Y-136581882D01*
X143739073Y-136582117D01*
X143987989Y-136479267D01*
X144178598Y-136288990D01*
X144281882Y-136040254D01*
X144282033Y-135867191D01*
X144359612Y-135789612D01*
X144412284Y-135710784D01*
X144479708Y-135698097D01*
X144608020Y-135615530D01*
X144694101Y-135489547D01*
X144724385Y-135340000D01*
X144724385Y-134840000D01*
X144698097Y-134700292D01*
X144615530Y-134571980D01*
X144489547Y-134485899D01*
X144340000Y-134455615D01*
X144082121Y-134455615D01*
X144157989Y-134424267D01*
X144348598Y-134233990D01*
X144451882Y-133985254D01*
X144452117Y-133715927D01*
X144349267Y-133467011D01*
X144227000Y-133344531D01*
X144227000Y-133125000D01*
X144207507Y-133027000D01*
X145687776Y-133027000D01*
X145798033Y-133137257D01*
X145797883Y-133309073D01*
X145900733Y-133557989D01*
X146091010Y-133748598D01*
X146339746Y-133851882D01*
X146609073Y-133852117D01*
X146857989Y-133749267D01*
X147048598Y-133558990D01*
X147151882Y-133310254D01*
X147152117Y-133040927D01*
X147049267Y-132792011D01*
X146858990Y-132601402D01*
X146610254Y-132498118D01*
X146437191Y-132497967D01*
X146194612Y-132255388D01*
X146124151Y-132208307D01*
X146198598Y-132133990D01*
X146301882Y-131885254D01*
X146302042Y-131701945D01*
X146499073Y-131702117D01*
X146747989Y-131599267D01*
X146938598Y-131408990D01*
X147041882Y-131160254D01*
X147042117Y-130890927D01*
X146939267Y-130642011D01*
X146748990Y-130451402D01*
X146500254Y-130348118D01*
X146230927Y-130347883D01*
X145982011Y-130450733D01*
X145859531Y-130573000D01*
X144492602Y-130573000D01*
X147532801Y-127532801D01*
X147554718Y-127500000D01*
X147646322Y-127362906D01*
X147686185Y-127162500D01*
X147686185Y-122298945D01*
X147754101Y-122199547D01*
X147784385Y-122050000D01*
X147784385Y-121450000D01*
X147758097Y-121310292D01*
X147686320Y-121198748D01*
X147754101Y-121099547D01*
X147784385Y-120950000D01*
X147784385Y-120464500D01*
X148473000Y-120464500D01*
X148473000Y-135590615D01*
X148473000Y-135590615D01*
G37*
X148473000Y-135590615D02*
X148255000Y-135590615D01*
X148115292Y-135616903D01*
X147986980Y-135699470D01*
X147900899Y-135825453D01*
X147870615Y-135975000D01*
X147870615Y-136975000D01*
X147896903Y-137114708D01*
X147979470Y-137243020D01*
X148105453Y-137329101D01*
X148255000Y-137359385D01*
X148473000Y-137359385D01*
X148473000Y-140133776D01*
X147770144Y-139430920D01*
X148022846Y-139326505D01*
X148255688Y-139094070D01*
X148381856Y-138790222D01*
X148382143Y-138461221D01*
X148256505Y-138157154D01*
X148024070Y-137924312D01*
X147720222Y-137798144D01*
X147391221Y-137797857D01*
X147087154Y-137923495D01*
X146929385Y-138080988D01*
X146929385Y-137525000D01*
X146903097Y-137385292D01*
X146881952Y-137352432D01*
X146984708Y-137333097D01*
X147113020Y-137250530D01*
X147199101Y-137124547D01*
X147229385Y-136975000D01*
X147229385Y-135975000D01*
X147203097Y-135835292D01*
X147120530Y-135706980D01*
X146994547Y-135620899D01*
X146845000Y-135590615D01*
X146045000Y-135590615D01*
X145905292Y-135616903D01*
X145776980Y-135699470D01*
X145690899Y-135825453D01*
X145660615Y-135975000D01*
X145660615Y-136975000D01*
X145686903Y-137114708D01*
X145703574Y-137140615D01*
X145045000Y-137140615D01*
X144905292Y-137166903D01*
X144776980Y-137249470D01*
X144709657Y-137348000D01*
X142625000Y-137348000D01*
X142442460Y-137384309D01*
X142287710Y-137487710D01*
X140787420Y-138988000D01*
X137415000Y-138988000D01*
X137232460Y-139024309D01*
X137077710Y-139127710D01*
X136847418Y-139358002D01*
X136710927Y-139357883D01*
X136462011Y-139460733D01*
X136271402Y-139651010D01*
X136168118Y-139899746D01*
X136167883Y-140169073D01*
X136270733Y-140417989D01*
X136461010Y-140608598D01*
X136709746Y-140711882D01*
X136979073Y-140712117D01*
X137227989Y-140609267D01*
X137418598Y-140418990D01*
X137521882Y-140170254D01*
X137522002Y-140032578D01*
X137612580Y-139942000D01*
X140985000Y-139942000D01*
X141167540Y-139905691D01*
X141322290Y-139802290D01*
X142822580Y-138302000D01*
X144675104Y-138302000D01*
X144686903Y-138364708D01*
X144769470Y-138493020D01*
X144895453Y-138579101D01*
X145045000Y-138609385D01*
X146545000Y-138609385D01*
X146684708Y-138583097D01*
X146728061Y-138555200D01*
X146727940Y-138693716D01*
X146694547Y-138670899D01*
X146545000Y-138640615D01*
X145045000Y-138640615D01*
X144905292Y-138666903D01*
X144776980Y-138749470D01*
X144690899Y-138875453D01*
X144660615Y-139025000D01*
X144660615Y-139725000D01*
X144686903Y-139864708D01*
X144769470Y-139993020D01*
X144895453Y-140079101D01*
X145045000Y-140109385D01*
X146545000Y-140109385D01*
X146684708Y-140083097D01*
X146813020Y-140000530D01*
X146899101Y-139874547D01*
X146905201Y-139844425D01*
X147948000Y-140887224D01*
X147948000Y-140892725D01*
X147720222Y-140798144D01*
X147391221Y-140797857D01*
X147087154Y-140923495D01*
X146854312Y-141155930D01*
X146728144Y-141459778D01*
X146727940Y-141693716D01*
X146694547Y-141670899D01*
X146545000Y-141640615D01*
X145045000Y-141640615D01*
X144905292Y-141666903D01*
X144776980Y-141749470D01*
X144690899Y-141875453D01*
X144660615Y-142025000D01*
X144660615Y-142248000D01*
X143915000Y-142248000D01*
X143828121Y-142265281D01*
X143740926Y-142280897D01*
X143737016Y-142283403D01*
X143732460Y-142284309D01*
X143658795Y-142333531D01*
X143584226Y-142381318D01*
X142865537Y-143073014D01*
X142715927Y-143072883D01*
X142467011Y-143175733D01*
X142276402Y-143366010D01*
X142177000Y-143605397D01*
X142177000Y-143350638D01*
X142251895Y-143170271D01*
X142252104Y-142930780D01*
X142160648Y-142709440D01*
X141991451Y-142539947D01*
X141770271Y-142448105D01*
X141530780Y-142447896D01*
X141309440Y-142539352D01*
X141139947Y-142708549D01*
X141048105Y-142929729D01*
X141047896Y-143169220D01*
X141123000Y-143350985D01*
X141123000Y-143581709D01*
X140581710Y-144123000D01*
X131100000Y-144123000D01*
X130898325Y-144163115D01*
X130727355Y-144277355D01*
X127177355Y-147827355D01*
X127063115Y-147998325D01*
X127040305Y-148113000D01*
X127023000Y-148200000D01*
X127023000Y-148665615D01*
X126950000Y-148665615D01*
X126810292Y-148691903D01*
X126681980Y-148774470D01*
X126595899Y-148900453D01*
X126565615Y-149050000D01*
X126565615Y-149950000D01*
X126591903Y-150089708D01*
X126674470Y-150218020D01*
X126800453Y-150304101D01*
X126950000Y-150334385D01*
X128150000Y-150334385D01*
X128289708Y-150308097D01*
X128418020Y-150225530D01*
X128504101Y-150099547D01*
X128534385Y-149950000D01*
X128534385Y-149540000D01*
X131648962Y-149540000D01*
X131742362Y-150009553D01*
X132008342Y-150407620D01*
X132406409Y-150673600D01*
X132875962Y-150767000D01*
X132924038Y-150767000D01*
X133393591Y-150673600D01*
X133791658Y-150407620D01*
X134057638Y-150009553D01*
X134151038Y-149540000D01*
X134111256Y-149340000D01*
X138098962Y-149340000D01*
X138192362Y-149809553D01*
X138458342Y-150207620D01*
X138856409Y-150473600D01*
X139325962Y-150567000D01*
X139374038Y-150567000D01*
X139843591Y-150473600D01*
X140241658Y-150207620D01*
X140507638Y-149809553D01*
X140601038Y-149340000D01*
X140507638Y-148870447D01*
X140241658Y-148472380D01*
X139843591Y-148206400D01*
X139374038Y-148113000D01*
X139325962Y-148113000D01*
X138856409Y-148206400D01*
X138458342Y-148472380D01*
X138192362Y-148870447D01*
X138098962Y-149340000D01*
X134111256Y-149340000D01*
X134057638Y-149070447D01*
X133791658Y-148672380D01*
X133393591Y-148406400D01*
X132924038Y-148313000D01*
X132875962Y-148313000D01*
X132406409Y-148406400D01*
X132008342Y-148672380D01*
X131742362Y-149070447D01*
X131648962Y-149540000D01*
X128534385Y-149540000D01*
X128534385Y-149050000D01*
X128508097Y-148910292D01*
X128425530Y-148781980D01*
X128299547Y-148695899D01*
X128150000Y-148665615D01*
X128077000Y-148665615D01*
X128077000Y-148418290D01*
X130345290Y-146150000D01*
X131665615Y-146150000D01*
X131665615Y-147850000D01*
X131691903Y-147989708D01*
X131774470Y-148118020D01*
X131900453Y-148204101D01*
X132050000Y-148234385D01*
X133750000Y-148234385D01*
X133889708Y-148208097D01*
X134018020Y-148125530D01*
X134104101Y-147999547D01*
X134134385Y-147850000D01*
X134134385Y-146150000D01*
X134108097Y-146010292D01*
X134069300Y-145950000D01*
X138115615Y-145950000D01*
X138115615Y-147650000D01*
X138141903Y-147789708D01*
X138224470Y-147918020D01*
X138350453Y-148004101D01*
X138500000Y-148034385D01*
X140200000Y-148034385D01*
X140339708Y-148008097D01*
X140468020Y-147925530D01*
X140554101Y-147799547D01*
X140584385Y-147650000D01*
X140584385Y-145950000D01*
X140558097Y-145810292D01*
X140475530Y-145681980D01*
X140349547Y-145595899D01*
X140200000Y-145565615D01*
X138500000Y-145565615D01*
X138360292Y-145591903D01*
X138231980Y-145674470D01*
X138145899Y-145800453D01*
X138115615Y-145950000D01*
X134069300Y-145950000D01*
X134025530Y-145881980D01*
X133899547Y-145795899D01*
X133750000Y-145765615D01*
X132050000Y-145765615D01*
X131910292Y-145791903D01*
X131781980Y-145874470D01*
X131695899Y-146000453D01*
X131665615Y-146150000D01*
X130345290Y-146150000D01*
X131318290Y-145177000D01*
X140800000Y-145177000D01*
X141001675Y-145136885D01*
X141172645Y-145022645D01*
X142022646Y-144172645D01*
X142136885Y-144001674D01*
X142172939Y-143820419D01*
X142172883Y-143884073D01*
X142275733Y-144132989D01*
X142466010Y-144323598D01*
X142714746Y-144426882D01*
X142984073Y-144427117D01*
X143232989Y-144324267D01*
X143423598Y-144133990D01*
X143526882Y-143885254D01*
X143526991Y-143760469D01*
X144107253Y-143202000D01*
X145445000Y-143202000D01*
X145627540Y-143165691D01*
X145693536Y-143121594D01*
X145690899Y-143125453D01*
X145660615Y-143275000D01*
X145660615Y-144275000D01*
X145686903Y-144414708D01*
X145769470Y-144543020D01*
X145895453Y-144629101D01*
X146045000Y-144659385D01*
X146845000Y-144659385D01*
X146984708Y-144633097D01*
X147073000Y-144576282D01*
X147073000Y-144867776D01*
X146175161Y-145765615D01*
X144750000Y-145765615D01*
X144610292Y-145791903D01*
X144481980Y-145874470D01*
X144395899Y-146000453D01*
X144365615Y-146150000D01*
X144365615Y-147850000D01*
X144391903Y-147989708D01*
X144474470Y-148118020D01*
X144600453Y-148204101D01*
X144750000Y-148234385D01*
X144953791Y-148234385D01*
X144718642Y-148344817D01*
X144328355Y-148773076D01*
X144158524Y-149183110D01*
X144279845Y-149413000D01*
X145473000Y-149413000D01*
X145473000Y-149393000D01*
X145727000Y-149393000D01*
X145727000Y-149413000D01*
X146920155Y-149413000D01*
X147041476Y-149183110D01*
X146871645Y-148773076D01*
X146481358Y-148344817D01*
X146246209Y-148234385D01*
X146450000Y-148234385D01*
X146589708Y-148208097D01*
X146718020Y-148125530D01*
X146804101Y-147999547D01*
X146834385Y-147850000D01*
X146834385Y-146384839D01*
X147844612Y-145374612D01*
X147942594Y-145227973D01*
X147950205Y-145189708D01*
X147977000Y-145055000D01*
X147977000Y-144539182D01*
X147979470Y-144543020D01*
X148105453Y-144629101D01*
X148255000Y-144659385D01*
X148473000Y-144659385D01*
X148473000Y-150893000D01*
X146145310Y-150893000D01*
X146481358Y-150735183D01*
X146871645Y-150306924D01*
X147041476Y-149896890D01*
X146920155Y-149667000D01*
X145727000Y-149667000D01*
X145727000Y-149687000D01*
X145473000Y-149687000D01*
X145473000Y-149667000D01*
X144279845Y-149667000D01*
X144158524Y-149896890D01*
X144328355Y-150306924D01*
X144718642Y-150735183D01*
X145054690Y-150893000D01*
X112817000Y-150893000D01*
X112817000Y-148585000D01*
X113320615Y-148585000D01*
X113320615Y-150285000D01*
X113346903Y-150424708D01*
X113429470Y-150553020D01*
X113555453Y-150639101D01*
X113705000Y-150669385D01*
X115405000Y-150669385D01*
X115544708Y-150643097D01*
X115673020Y-150560530D01*
X115759101Y-150434547D01*
X115789385Y-150285000D01*
X115789385Y-148585000D01*
X115763097Y-148445292D01*
X115680530Y-148316980D01*
X115554547Y-148230899D01*
X115405000Y-148200615D01*
X113705000Y-148200615D01*
X113565292Y-148226903D01*
X113436980Y-148309470D01*
X113350899Y-148435453D01*
X113320615Y-148585000D01*
X112817000Y-148585000D01*
X112817000Y-146364444D01*
X112968974Y-146516683D01*
X113474896Y-146726760D01*
X114022701Y-146727238D01*
X114528989Y-146518044D01*
X114916683Y-146131026D01*
X115053306Y-145802000D01*
X118946847Y-145802000D01*
X119081956Y-146128989D01*
X119125890Y-146173000D01*
X118794429Y-146173000D01*
X118794429Y-148973000D01*
X118234884Y-148973000D01*
X118228600Y-148941409D01*
X117962620Y-148543342D01*
X117564553Y-148277362D01*
X117095000Y-148183962D01*
X116625447Y-148277362D01*
X116227380Y-148543342D01*
X115961400Y-148941409D01*
X115868000Y-149410962D01*
X115868000Y-149459038D01*
X115961400Y-149928591D01*
X116227380Y-150326658D01*
X116625447Y-150592638D01*
X117095000Y-150686038D01*
X117564553Y-150592638D01*
X117962620Y-150326658D01*
X118162845Y-150027000D01*
X124380104Y-150027000D01*
X124391903Y-150089708D01*
X124474470Y-150218020D01*
X124600453Y-150304101D01*
X124750000Y-150334385D01*
X125950000Y-150334385D01*
X126089708Y-150308097D01*
X126218020Y-150225530D01*
X126304101Y-150099547D01*
X126334385Y-149950000D01*
X126334385Y-149050000D01*
X126308097Y-148910292D01*
X126225530Y-148781980D01*
X126099547Y-148695899D01*
X125950000Y-148665615D01*
X125877000Y-148665615D01*
X125877000Y-147968290D01*
X126660063Y-147185228D01*
X126840560Y-147110648D01*
X127010053Y-146941451D01*
X127101895Y-146720271D01*
X127102104Y-146480780D01*
X127010648Y-146259440D01*
X126841451Y-146089947D01*
X126620271Y-145998105D01*
X126380780Y-145997896D01*
X126159440Y-146089352D01*
X125989947Y-146258549D01*
X125914526Y-146440183D01*
X125500000Y-146854710D01*
X124477000Y-145831710D01*
X124477000Y-145388076D01*
X124500453Y-145404101D01*
X124650000Y-145434385D01*
X125050000Y-145434385D01*
X125189708Y-145408097D01*
X125318020Y-145325530D01*
X125402425Y-145202000D01*
X125430104Y-145202000D01*
X125441903Y-145264708D01*
X125524470Y-145393020D01*
X125650453Y-145479101D01*
X125800000Y-145509385D01*
X126600000Y-145509385D01*
X126739708Y-145483097D01*
X126756527Y-145472274D01*
X126761673Y-145484699D01*
X126940302Y-145663327D01*
X127173691Y-145760000D01*
X127414250Y-145760000D01*
X127573000Y-145601250D01*
X127573000Y-144877000D01*
X127827000Y-144877000D01*
X127827000Y-145601250D01*
X127985750Y-145760000D01*
X128226309Y-145760000D01*
X128459698Y-145663327D01*
X128638327Y-145484699D01*
X128735000Y-145251310D01*
X128735000Y-145035750D01*
X128576250Y-144877000D01*
X127827000Y-144877000D01*
X127573000Y-144877000D01*
X127553000Y-144877000D01*
X127553000Y-144623000D01*
X127573000Y-144623000D01*
X127573000Y-143898750D01*
X127827000Y-143898750D01*
X127827000Y-144623000D01*
X128576250Y-144623000D01*
X128735000Y-144464250D01*
X128735000Y-144248690D01*
X128638327Y-144015301D01*
X128459698Y-143836673D01*
X128226309Y-143740000D01*
X127985750Y-143740000D01*
X127827000Y-143898750D01*
X127573000Y-143898750D01*
X127414250Y-143740000D01*
X127173691Y-143740000D01*
X126940302Y-143836673D01*
X126761673Y-144015301D01*
X126757191Y-144026122D01*
X126749547Y-144020899D01*
X126600000Y-143990615D01*
X125800000Y-143990615D01*
X125660292Y-144016903D01*
X125531980Y-144099470D01*
X125445899Y-144225453D01*
X125431208Y-144298000D01*
X125400187Y-144298000D01*
X125325530Y-144181980D01*
X125199547Y-144095899D01*
X125050000Y-144065615D01*
X124650000Y-144065615D01*
X124510292Y-144091903D01*
X124398748Y-144163680D01*
X124299547Y-144095899D01*
X124150000Y-144065615D01*
X123750000Y-144065615D01*
X123610292Y-144091903D01*
X123481980Y-144174470D01*
X123395899Y-144300453D01*
X123365615Y-144450000D01*
X123365615Y-145050000D01*
X123391903Y-145189708D01*
X123423000Y-145238034D01*
X123423000Y-146050000D01*
X123447466Y-146173000D01*
X121374636Y-146173000D01*
X121416683Y-146131026D01*
X121626760Y-145625104D01*
X121627238Y-145077299D01*
X121491189Y-144748035D01*
X122820004Y-143419220D01*
X128397896Y-143419220D01*
X128489352Y-143640560D01*
X128658549Y-143810053D01*
X128879729Y-143901895D01*
X129003694Y-143902003D01*
X129027027Y-143917594D01*
X129200000Y-143952000D01*
X130300597Y-143952000D01*
X130358549Y-144010053D01*
X130579729Y-144101895D01*
X130819220Y-144102104D01*
X131040560Y-144010648D01*
X131210053Y-143841451D01*
X131301895Y-143620271D01*
X131302104Y-143380780D01*
X131210648Y-143159440D01*
X131041451Y-142989947D01*
X130820271Y-142898105D01*
X130580780Y-142897896D01*
X130359440Y-142989352D01*
X130300689Y-143048000D01*
X129547240Y-143048000D01*
X129510648Y-142959440D01*
X129341451Y-142789947D01*
X129120271Y-142698105D01*
X128880780Y-142697896D01*
X128659440Y-142789352D01*
X128489947Y-142958549D01*
X128398105Y-143179729D01*
X128397896Y-143419220D01*
X122820004Y-143419220D01*
X124650974Y-141588250D01*
X129082500Y-141588250D01*
X129082500Y-141728810D01*
X129179173Y-141962199D01*
X129357802Y-142140827D01*
X129591191Y-142237500D01*
X129658750Y-142237500D01*
X129817500Y-142078750D01*
X129817500Y-141429500D01*
X129241250Y-141429500D01*
X129082500Y-141588250D01*
X124650974Y-141588250D01*
X125519612Y-140719612D01*
X125617594Y-140572973D01*
X125652000Y-140400000D01*
X125652000Y-140300187D01*
X125768020Y-140225530D01*
X125854101Y-140099547D01*
X125884385Y-139950000D01*
X125884385Y-139550000D01*
X125858097Y-139410292D01*
X125786320Y-139298748D01*
X125854101Y-139199547D01*
X125884385Y-139050000D01*
X125884385Y-138650000D01*
X125858097Y-138510292D01*
X125775530Y-138381980D01*
X125727000Y-138348821D01*
X125727000Y-138150638D01*
X125801895Y-137970271D01*
X125802104Y-137730780D01*
X125710648Y-137509440D01*
X125541451Y-137339947D01*
X125320271Y-137248105D01*
X125080780Y-137247896D01*
X124859440Y-137339352D01*
X124689947Y-137508549D01*
X124598105Y-137729729D01*
X124597896Y-137969220D01*
X124673000Y-138150985D01*
X124673000Y-138348074D01*
X124631980Y-138374470D01*
X124545899Y-138500453D01*
X124515615Y-138650000D01*
X124515615Y-139050000D01*
X124541903Y-139189708D01*
X124613680Y-139301252D01*
X124545899Y-139400453D01*
X124515615Y-139550000D01*
X124515615Y-139743000D01*
X123542000Y-139743000D01*
X123542000Y-139592691D01*
X123740560Y-139510648D01*
X123910053Y-139341451D01*
X124001895Y-139120271D01*
X124002104Y-138880780D01*
X123910648Y-138659440D01*
X123741451Y-138489947D01*
X123520271Y-138398105D01*
X123280780Y-138397896D01*
X123059440Y-138489352D01*
X122902000Y-138646517D01*
X122902000Y-137687224D01*
X123419612Y-137169612D01*
X123517594Y-137022973D01*
X123552000Y-136850000D01*
X123552000Y-133600000D01*
X123517594Y-133427027D01*
X123419612Y-133280388D01*
X123043262Y-132904038D01*
X123169612Y-132819612D01*
X123998000Y-131991224D01*
X123998000Y-135000000D01*
X124032406Y-135172973D01*
X124130388Y-135319612D01*
X125680388Y-136869612D01*
X125827027Y-136967594D01*
X126000000Y-137002000D01*
X128090750Y-137002000D01*
X128191250Y-137102500D01*
X128840500Y-137102500D01*
X128840500Y-137080500D01*
X129094500Y-137080500D01*
X129094500Y-137102500D01*
X129114500Y-137102500D01*
X129114500Y-137352500D01*
X129094500Y-137352500D01*
X129094500Y-137374500D01*
X128840500Y-137374500D01*
X128840500Y-137352500D01*
X128191250Y-137352500D01*
X128032500Y-137511250D01*
X128032500Y-137603810D01*
X128129173Y-137837199D01*
X128307802Y-138015827D01*
X128356691Y-138036078D01*
X128333115Y-138152500D01*
X128333115Y-138952500D01*
X128359403Y-139092208D01*
X128441970Y-139220520D01*
X128563531Y-139303580D01*
X128449480Y-139376970D01*
X128363399Y-139502953D01*
X128333115Y-139652500D01*
X128333115Y-140452500D01*
X128359403Y-140592208D01*
X128441970Y-140720520D01*
X128567953Y-140806601D01*
X128717500Y-140836885D01*
X129098781Y-140836885D01*
X129082500Y-140876190D01*
X129082500Y-141016750D01*
X129241250Y-141175500D01*
X129817500Y-141175500D01*
X129817500Y-141155500D01*
X130017500Y-141155500D01*
X130017500Y-141175500D01*
X130064500Y-141175500D01*
X130064500Y-141429500D01*
X130017500Y-141429500D01*
X130017500Y-142078750D01*
X130176250Y-142237500D01*
X130243809Y-142237500D01*
X130477198Y-142140827D01*
X130631141Y-141986885D01*
X131017500Y-141986885D01*
X131157208Y-141960597D01*
X131285520Y-141878030D01*
X131371601Y-141752047D01*
X131401885Y-141602500D01*
X131401885Y-141002500D01*
X131388447Y-140931085D01*
X131432100Y-140931085D01*
X131571808Y-140904797D01*
X131700120Y-140822230D01*
X131786201Y-140696247D01*
X131816485Y-140546700D01*
X131816485Y-140111421D01*
X132327330Y-140622265D01*
X132327332Y-140622268D01*
X132390701Y-140664610D01*
X132394803Y-140686408D01*
X132477370Y-140814720D01*
X132603353Y-140900801D01*
X132752900Y-140931085D01*
X134022900Y-140931085D01*
X134162608Y-140904797D01*
X134290920Y-140822230D01*
X134377001Y-140696247D01*
X134407285Y-140546700D01*
X134407285Y-140120540D01*
X134561227Y-139966599D01*
X134657900Y-139733210D01*
X134657900Y-139613250D01*
X134499150Y-139454500D01*
X133514900Y-139454500D01*
X133514900Y-139474500D01*
X133260900Y-139474500D01*
X133260900Y-139454500D01*
X133240900Y-139454500D01*
X133240900Y-139200500D01*
X133260900Y-139200500D01*
X133260900Y-139180500D01*
X133514900Y-139180500D01*
X133514900Y-139200500D01*
X134499150Y-139200500D01*
X134657900Y-139041750D01*
X134657900Y-138921790D01*
X134561227Y-138688401D01*
X134407285Y-138534460D01*
X134407285Y-138337500D01*
X134543809Y-138337500D01*
X134777198Y-138240827D01*
X134858000Y-138160025D01*
X134858000Y-138994580D01*
X134761402Y-139091010D01*
X134658118Y-139339746D01*
X134657883Y-139609073D01*
X134760733Y-139857989D01*
X134951010Y-140048598D01*
X135199746Y-140151882D01*
X135469073Y-140152117D01*
X135717989Y-140049267D01*
X135908598Y-139858990D01*
X136011882Y-139610254D01*
X136012117Y-139340927D01*
X135909267Y-139092011D01*
X135812000Y-138994574D01*
X135812000Y-137255000D01*
X135802452Y-137207000D01*
X140495000Y-137207000D01*
X140667973Y-137172594D01*
X140814612Y-137074612D01*
X140846261Y-137042963D01*
X140860733Y-137077989D01*
X141051010Y-137268598D01*
X141299746Y-137371882D01*
X141569073Y-137372117D01*
X141817989Y-137269267D01*
X142008598Y-137078990D01*
X142111882Y-136830254D01*
X142112117Y-136560927D01*
X142009267Y-136312011D01*
X141937623Y-136240242D01*
X142281021Y-136231866D01*
X142361791Y-136213742D01*
X142442973Y-136197594D01*
X142447634Y-136194479D01*
X142453104Y-136193252D01*
X142520788Y-136145599D01*
X142589612Y-136099612D01*
X142619612Y-136069613D01*
X142717594Y-135922973D01*
X142720404Y-135908846D01*
X142812998Y-135816252D01*
X142812998Y-135975000D01*
X142927939Y-135975000D01*
X142927883Y-136039073D01*
X143030733Y-136287989D01*
X143221010Y-136478598D01*
X143469746Y-136581882D01*
X143739073Y-136582117D01*
X143987989Y-136479267D01*
X144178598Y-136288990D01*
X144281882Y-136040254D01*
X144282033Y-135867191D01*
X144359612Y-135789612D01*
X144412284Y-135710784D01*
X144479708Y-135698097D01*
X144608020Y-135615530D01*
X144694101Y-135489547D01*
X144724385Y-135340000D01*
X144724385Y-134840000D01*
X144698097Y-134700292D01*
X144615530Y-134571980D01*
X144489547Y-134485899D01*
X144340000Y-134455615D01*
X144082121Y-134455615D01*
X144157989Y-134424267D01*
X144348598Y-134233990D01*
X144451882Y-133985254D01*
X144452117Y-133715927D01*
X144349267Y-133467011D01*
X144227000Y-133344531D01*
X144227000Y-133125000D01*
X144207507Y-133027000D01*
X145687776Y-133027000D01*
X145798033Y-133137257D01*
X145797883Y-133309073D01*
X145900733Y-133557989D01*
X146091010Y-133748598D01*
X146339746Y-133851882D01*
X146609073Y-133852117D01*
X146857989Y-133749267D01*
X147048598Y-133558990D01*
X147151882Y-133310254D01*
X147152117Y-133040927D01*
X147049267Y-132792011D01*
X146858990Y-132601402D01*
X146610254Y-132498118D01*
X146437191Y-132497967D01*
X146194612Y-132255388D01*
X146124151Y-132208307D01*
X146198598Y-132133990D01*
X146301882Y-131885254D01*
X146302042Y-131701945D01*
X146499073Y-131702117D01*
X146747989Y-131599267D01*
X146938598Y-131408990D01*
X147041882Y-131160254D01*
X147042117Y-130890927D01*
X146939267Y-130642011D01*
X146748990Y-130451402D01*
X146500254Y-130348118D01*
X146230927Y-130347883D01*
X145982011Y-130450733D01*
X145859531Y-130573000D01*
X144492602Y-130573000D01*
X147532801Y-127532801D01*
X147554718Y-127500000D01*
X147646322Y-127362906D01*
X147686185Y-127162500D01*
X147686185Y-122298945D01*
X147754101Y-122199547D01*
X147784385Y-122050000D01*
X147784385Y-121450000D01*
X147758097Y-121310292D01*
X147686320Y-121198748D01*
X147754101Y-121099547D01*
X147784385Y-120950000D01*
X147784385Y-120464500D01*
X148473000Y-120464500D01*
X148473000Y-135590615D01*
G36*
X121608342Y-111992380D02*
X121342362Y-112390447D01*
X121248962Y-112860000D01*
X121342362Y-113329553D01*
X121608342Y-113727620D01*
X122006409Y-113993600D01*
X122475962Y-114087000D01*
X122524038Y-114087000D01*
X122993591Y-113993600D01*
X123391658Y-113727620D01*
X123657638Y-113329553D01*
X123706133Y-113085750D01*
X124965000Y-113085750D01*
X124965000Y-113776309D01*
X125061673Y-114009698D01*
X125240301Y-114188327D01*
X125473690Y-114285000D01*
X126164250Y-114285000D01*
X126323000Y-114126250D01*
X126323000Y-112927000D01*
X125123750Y-112927000D01*
X124965000Y-113085750D01*
X123706133Y-113085750D01*
X123751038Y-112860000D01*
X123657638Y-112390447D01*
X123638067Y-112361157D01*
X123847224Y-112152000D01*
X124965000Y-112152000D01*
X124965000Y-112514250D01*
X125123750Y-112673000D01*
X126323000Y-112673000D01*
X126323000Y-112653000D01*
X126577000Y-112653000D01*
X126577000Y-112673000D01*
X126597000Y-112673000D01*
X126597000Y-112927000D01*
X126577000Y-112927000D01*
X126577000Y-114126250D01*
X126735750Y-114285000D01*
X127426310Y-114285000D01*
X127659699Y-114188327D01*
X127838327Y-114009698D01*
X127935000Y-113776309D01*
X127935000Y-113411224D01*
X128122380Y-113691658D01*
X128520447Y-113957638D01*
X128990000Y-114051038D01*
X129459553Y-113957638D01*
X129524810Y-113914034D01*
X130080388Y-114469612D01*
X130227027Y-114567594D01*
X130400000Y-114602000D01*
X134462776Y-114602000D01*
X135115584Y-115254808D01*
X135022926Y-115347466D01*
X134924264Y-115080613D01*
X134314539Y-114854092D01*
X133664540Y-114878144D01*
X133175736Y-115080613D01*
X133077073Y-115347468D01*
X134050000Y-116320395D01*
X134064143Y-116306253D01*
X134243748Y-116485858D01*
X134229605Y-116500000D01*
X135202532Y-117472927D01*
X135469387Y-117374264D01*
X135695908Y-116764539D01*
X135671856Y-116114540D01*
X135469387Y-115625736D01*
X135202534Y-115527074D01*
X135298137Y-115431471D01*
X135427027Y-115517594D01*
X135600000Y-115552000D01*
X137362776Y-115552000D01*
X137915136Y-116104360D01*
X137709440Y-116189352D01*
X137539947Y-116358549D01*
X137448105Y-116579729D01*
X137447896Y-116819220D01*
X137539352Y-117040560D01*
X137698000Y-117199486D01*
X137698000Y-120548000D01*
X135353153Y-120548000D01*
X135218044Y-120221011D01*
X134831026Y-119833317D01*
X134325104Y-119623240D01*
X133777299Y-119622762D01*
X133271011Y-119831956D01*
X132883317Y-120218974D01*
X132746694Y-120548000D01*
X128853153Y-120548000D01*
X128718044Y-120221011D01*
X128331026Y-119833317D01*
X127825104Y-119623240D01*
X127277299Y-119622762D01*
X126771011Y-119831956D01*
X126383317Y-120218974D01*
X126173240Y-120724896D01*
X126172762Y-121272701D01*
X126381956Y-121778989D01*
X126768974Y-122166683D01*
X127274896Y-122376760D01*
X127822701Y-122377238D01*
X128328989Y-122168044D01*
X128716683Y-121781026D01*
X128853306Y-121452000D01*
X132746847Y-121452000D01*
X132881956Y-121778989D01*
X133268974Y-122166683D01*
X133774896Y-122376760D01*
X134010427Y-122376966D01*
X133859440Y-122439352D01*
X133689947Y-122608549D01*
X133598105Y-122829729D01*
X133598045Y-122898000D01*
X125852000Y-122898000D01*
X125852000Y-122550000D01*
X125817594Y-122377027D01*
X125719612Y-122230388D01*
X125219612Y-121730388D01*
X125072973Y-121632406D01*
X124900000Y-121598000D01*
X124537224Y-121598000D01*
X124169612Y-121230388D01*
X124022973Y-121132406D01*
X123850000Y-121098000D01*
X123553230Y-121098000D01*
X123710053Y-120941451D01*
X123801895Y-120720271D01*
X123802104Y-120480780D01*
X123710648Y-120259440D01*
X123541451Y-120089947D01*
X123320271Y-119998105D01*
X123080780Y-119997896D01*
X122859440Y-120089352D01*
X122689947Y-120258549D01*
X122598105Y-120479729D01*
X122598089Y-120498000D01*
X119550000Y-120498000D01*
X119377027Y-120532406D01*
X119230388Y-120630388D01*
X118562776Y-121298000D01*
X117065683Y-121298000D01*
X117444553Y-121222638D01*
X117842620Y-120956658D01*
X118108600Y-120558591D01*
X118202000Y-120089038D01*
X118202000Y-120040962D01*
X118108600Y-119571409D01*
X117842620Y-119173342D01*
X117444553Y-118907362D01*
X116975000Y-118813962D01*
X116505447Y-118907362D01*
X116107380Y-119173342D01*
X115841400Y-119571409D01*
X115748000Y-120040962D01*
X115748000Y-120089038D01*
X115841400Y-120558591D01*
X116107380Y-120956658D01*
X116505447Y-121222638D01*
X116884317Y-121298000D01*
X116307224Y-121298000D01*
X115669385Y-120660161D01*
X115669385Y-119215000D01*
X115643097Y-119075292D01*
X115560530Y-118946980D01*
X115434547Y-118860899D01*
X115285000Y-118830615D01*
X113585000Y-118830615D01*
X113445292Y-118856903D01*
X113316980Y-118939470D01*
X113230899Y-119065453D01*
X113200615Y-119215000D01*
X113200615Y-120915000D01*
X113226903Y-121054708D01*
X113309470Y-121183020D01*
X113435453Y-121269101D01*
X113585000Y-121299385D01*
X115030161Y-121299385D01*
X115800388Y-122069612D01*
X115947027Y-122167594D01*
X116120000Y-122202000D01*
X118750000Y-122202000D01*
X118922973Y-122167594D01*
X119069612Y-122069612D01*
X119737224Y-121402000D01*
X120208775Y-121402000D01*
X119980388Y-121630388D01*
X119882406Y-121777027D01*
X119848000Y-121950000D01*
X119848000Y-122031987D01*
X119781980Y-122074470D01*
X119695899Y-122200453D01*
X119665615Y-122350000D01*
X119665615Y-122936359D01*
X119511673Y-123090302D01*
X119415000Y-123323691D01*
X119415000Y-123464250D01*
X119573750Y-123623000D01*
X120175000Y-123623000D01*
X120175000Y-123603000D01*
X120425000Y-123603000D01*
X120425000Y-123623000D01*
X120447000Y-123623000D01*
X120447000Y-123877000D01*
X120425000Y-123877000D01*
X120425000Y-124526250D01*
X120583750Y-124685000D01*
X120676310Y-124685000D01*
X120765440Y-124648081D01*
X120811673Y-124759698D01*
X120990301Y-124938327D01*
X121013654Y-124948000D01*
X118900000Y-124948000D01*
X118727027Y-124982406D01*
X118580387Y-125080388D01*
X118462775Y-125198000D01*
X115337224Y-125198000D01*
X115178609Y-125039385D01*
X115265000Y-125039385D01*
X115404708Y-125013097D01*
X115533020Y-124930530D01*
X115619101Y-124804547D01*
X115649385Y-124655000D01*
X115649385Y-123780962D01*
X115728000Y-123780962D01*
X115728000Y-123829038D01*
X115821400Y-124298591D01*
X116087380Y-124696658D01*
X116485447Y-124962638D01*
X116955000Y-125056038D01*
X117424553Y-124962638D01*
X117822620Y-124696658D01*
X118088600Y-124298591D01*
X118140882Y-124035750D01*
X119415000Y-124035750D01*
X119415000Y-124176309D01*
X119511673Y-124409698D01*
X119690301Y-124588327D01*
X119923690Y-124685000D01*
X120016250Y-124685000D01*
X120175000Y-124526250D01*
X120175000Y-123877000D01*
X119573750Y-123877000D01*
X119415000Y-124035750D01*
X118140882Y-124035750D01*
X118182000Y-123829038D01*
X118182000Y-123780962D01*
X118088600Y-123311409D01*
X117822620Y-122913342D01*
X117424553Y-122647362D01*
X116955000Y-122553962D01*
X116485447Y-122647362D01*
X116087380Y-122913342D01*
X115821400Y-123311409D01*
X115728000Y-123780962D01*
X115649385Y-123780962D01*
X115649385Y-122955000D01*
X115623097Y-122815292D01*
X115540530Y-122686980D01*
X115414547Y-122600899D01*
X115265000Y-122570615D01*
X113565000Y-122570615D01*
X113425292Y-122596903D01*
X113296980Y-122679470D01*
X113210899Y-122805453D01*
X113180615Y-122955000D01*
X113180615Y-124655000D01*
X113206903Y-124794708D01*
X113289470Y-124923020D01*
X113415453Y-125009101D01*
X113565000Y-125039385D01*
X113987741Y-125039385D01*
X113997406Y-125087973D01*
X114095388Y-125234612D01*
X114830388Y-125969612D01*
X114977027Y-126067594D01*
X115150000Y-126102000D01*
X117358775Y-126102000D01*
X115980388Y-127480388D01*
X115882406Y-127627027D01*
X115848000Y-127800000D01*
X115848000Y-131200597D01*
X115789947Y-131258549D01*
X115698105Y-131479729D01*
X115697896Y-131719220D01*
X115789352Y-131940560D01*
X115958549Y-132110053D01*
X116179729Y-132201895D01*
X116398000Y-132202085D01*
X116398000Y-134150000D01*
X116432406Y-134322973D01*
X116530388Y-134469612D01*
X118347968Y-136287192D01*
X118347896Y-136369220D01*
X118439352Y-136590560D01*
X118608549Y-136760053D01*
X118829729Y-136851895D01*
X119069220Y-136852104D01*
X119290560Y-136760648D01*
X119460053Y-136591451D01*
X119533322Y-136415000D01*
X119574983Y-136415000D01*
X119548105Y-136479729D01*
X119547896Y-136719220D01*
X119639352Y-136940560D01*
X119808549Y-137110053D01*
X120029729Y-137201895D01*
X120269220Y-137202104D01*
X120490560Y-137110648D01*
X120499223Y-137102000D01*
X121450000Y-137102000D01*
X121622973Y-137067594D01*
X121769612Y-136969612D01*
X122469612Y-136269613D01*
X122567594Y-136122974D01*
X122574282Y-136089352D01*
X122602000Y-135950000D01*
X122602000Y-133741224D01*
X122648000Y-133787224D01*
X122648000Y-136662776D01*
X122130388Y-137180388D01*
X122032406Y-137327027D01*
X121998000Y-137500000D01*
X121998000Y-141100597D01*
X121939947Y-141158549D01*
X121848105Y-141379729D01*
X121847896Y-141619220D01*
X121939352Y-141840560D01*
X122108549Y-142010053D01*
X122329729Y-142101895D01*
X122569220Y-142102104D01*
X122790560Y-142010648D01*
X122960053Y-141841451D01*
X123051895Y-141620271D01*
X123052104Y-141380780D01*
X122960648Y-141159440D01*
X122902000Y-141100689D01*
X122902000Y-140607553D01*
X122917027Y-140617594D01*
X123090000Y-140652000D01*
X123115137Y-140647000D01*
X124313776Y-140647000D01*
X120851857Y-144108919D01*
X120525104Y-143973240D01*
X119977299Y-143972762D01*
X119471011Y-144181956D01*
X119083317Y-144568974D01*
X118946694Y-144898000D01*
X115053153Y-144898000D01*
X114918044Y-144571011D01*
X114531026Y-144183317D01*
X114025104Y-143973240D01*
X113477299Y-143972762D01*
X112971011Y-144181956D01*
X112817000Y-144335698D01*
X112817000Y-142110523D01*
X112875736Y-142269387D01*
X113485461Y-142495908D01*
X114135460Y-142471856D01*
X114624264Y-142269387D01*
X114722927Y-142002532D01*
X119277073Y-142002532D01*
X119375736Y-142269387D01*
X119985461Y-142495908D01*
X120635460Y-142471856D01*
X121124264Y-142269387D01*
X121222927Y-142002532D01*
X120250000Y-141029605D01*
X119277073Y-142002532D01*
X114722927Y-142002532D01*
X113750000Y-141029605D01*
X113735858Y-141043748D01*
X113556253Y-140864143D01*
X113570395Y-140850000D01*
X113929605Y-140850000D01*
X114902532Y-141822927D01*
X115169387Y-141724264D01*
X115395908Y-141114539D01*
X115376331Y-140585461D01*
X118604092Y-140585461D01*
X118628144Y-141235460D01*
X118830613Y-141724264D01*
X119097468Y-141822927D01*
X120070395Y-140850000D01*
X120429605Y-140850000D01*
X121402532Y-141822927D01*
X121669387Y-141724264D01*
X121895908Y-141114539D01*
X121871856Y-140464540D01*
X121669387Y-139975736D01*
X121402532Y-139877073D01*
X120429605Y-140850000D01*
X120070395Y-140850000D01*
X119097468Y-139877073D01*
X118830613Y-139975736D01*
X118604092Y-140585461D01*
X115376331Y-140585461D01*
X115371856Y-140464540D01*
X115169387Y-139975736D01*
X114902532Y-139877073D01*
X113929605Y-140850000D01*
X113570395Y-140850000D01*
X113556253Y-140835858D01*
X113735858Y-140656253D01*
X113750000Y-140670395D01*
X114722927Y-139697468D01*
X119277073Y-139697468D01*
X120250000Y-140670395D01*
X121222927Y-139697468D01*
X121124264Y-139430613D01*
X120514539Y-139204092D01*
X119864540Y-139228144D01*
X119375736Y-139430613D01*
X119277073Y-139697468D01*
X114722927Y-139697468D01*
X114624264Y-139430613D01*
X114014539Y-139204092D01*
X113364540Y-139228144D01*
X112875736Y-139430613D01*
X112817000Y-139589477D01*
X112817000Y-136679068D01*
X113108000Y-136775000D01*
X113408000Y-136775000D01*
X113408000Y-135867000D01*
X113662000Y-135867000D01*
X113662000Y-136775000D01*
X113962000Y-136775000D01*
X114348410Y-136647615D01*
X114656658Y-136382053D01*
X114829666Y-136026123D01*
X114701998Y-135867000D01*
X113662000Y-135867000D01*
X113408000Y-135867000D01*
X113388000Y-135867000D01*
X113388000Y-135613000D01*
X113408000Y-135613000D01*
X113408000Y-134705000D01*
X113662000Y-134705000D01*
X113662000Y-135613000D01*
X114701998Y-135613000D01*
X114829666Y-135453877D01*
X114656658Y-135097947D01*
X114348410Y-134832385D01*
X113962000Y-134705000D01*
X113662000Y-134705000D01*
X113408000Y-134705000D01*
X113108000Y-134705000D01*
X112721590Y-134832385D01*
X112502000Y-135021566D01*
X112502000Y-127478434D01*
X112721590Y-127667615D01*
X113108000Y-127795000D01*
X113408000Y-127795000D01*
X113408000Y-126887000D01*
X113662000Y-126887000D01*
X113662000Y-127795000D01*
X113962000Y-127795000D01*
X114348410Y-127667615D01*
X114656658Y-127402053D01*
X114829666Y-127046123D01*
X114701998Y-126887000D01*
X113662000Y-126887000D01*
X113408000Y-126887000D01*
X113388000Y-126887000D01*
X113388000Y-126633000D01*
X113408000Y-126633000D01*
X113408000Y-125725000D01*
X113662000Y-125725000D01*
X113662000Y-126633000D01*
X114701998Y-126633000D01*
X114829666Y-126473877D01*
X114656658Y-126117947D01*
X114348410Y-125852385D01*
X113962000Y-125725000D01*
X113662000Y-125725000D01*
X113408000Y-125725000D01*
X113108000Y-125725000D01*
X112827000Y-125817635D01*
X112827000Y-112395000D01*
X113220615Y-112395000D01*
X113220615Y-114095000D01*
X113246903Y-114234708D01*
X113329470Y-114363020D01*
X113455453Y-114449101D01*
X113605000Y-114479385D01*
X114920161Y-114479385D01*
X117130388Y-116689613D01*
X117277027Y-116787594D01*
X117450000Y-116822000D01*
X118202776Y-116822000D01*
X118438033Y-117057257D01*
X118437883Y-117229073D01*
X118540733Y-117477989D01*
X118731010Y-117668598D01*
X118979746Y-117771882D01*
X119249073Y-117772117D01*
X119497989Y-117669267D01*
X119514753Y-117652532D01*
X126577073Y-117652532D01*
X126675736Y-117919387D01*
X127285461Y-118145908D01*
X127935460Y-118121856D01*
X128424264Y-117919387D01*
X128522927Y-117652532D01*
X133077073Y-117652532D01*
X133175736Y-117919387D01*
X133785461Y-118145908D01*
X134435460Y-118121856D01*
X134924264Y-117919387D01*
X135022927Y-117652532D01*
X134050000Y-116679605D01*
X133077073Y-117652532D01*
X128522927Y-117652532D01*
X127550000Y-116679605D01*
X126577073Y-117652532D01*
X119514753Y-117652532D01*
X119688598Y-117478990D01*
X119791882Y-117230254D01*
X119792117Y-116960927D01*
X119689267Y-116712011D01*
X119498990Y-116521402D01*
X119250254Y-116418118D01*
X119077191Y-116417967D01*
X118709612Y-116050388D01*
X118562973Y-115952406D01*
X118390000Y-115918000D01*
X117637225Y-115918000D01*
X116269225Y-114550000D01*
X121265615Y-114550000D01*
X121265615Y-116250000D01*
X121291903Y-116389708D01*
X121374470Y-116518020D01*
X121500453Y-116604101D01*
X121650000Y-116634385D01*
X123350000Y-116634385D01*
X123489708Y-116608097D01*
X123618020Y-116525530D01*
X123704101Y-116399547D01*
X123734385Y-116250000D01*
X123734385Y-116235461D01*
X125904092Y-116235461D01*
X125928144Y-116885460D01*
X126130613Y-117374264D01*
X126397468Y-117472927D01*
X127370395Y-116500000D01*
X127729605Y-116500000D01*
X128702532Y-117472927D01*
X128969387Y-117374264D01*
X129195908Y-116764539D01*
X129176331Y-116235461D01*
X132404092Y-116235461D01*
X132428144Y-116885460D01*
X132630613Y-117374264D01*
X132897468Y-117472927D01*
X133870395Y-116500000D01*
X132897468Y-115527073D01*
X132630613Y-115625736D01*
X132404092Y-116235461D01*
X129176331Y-116235461D01*
X129171856Y-116114540D01*
X128969387Y-115625736D01*
X128702532Y-115527073D01*
X127729605Y-116500000D01*
X127370395Y-116500000D01*
X126397468Y-115527073D01*
X126130613Y-115625736D01*
X125904092Y-116235461D01*
X123734385Y-116235461D01*
X123734385Y-115347468D01*
X126577073Y-115347468D01*
X127550000Y-116320395D01*
X128522927Y-115347468D01*
X128424264Y-115080613D01*
X127814539Y-114854092D01*
X127164540Y-114878144D01*
X126675736Y-115080613D01*
X126577073Y-115347468D01*
X123734385Y-115347468D01*
X123734385Y-114550000D01*
X123708097Y-114410292D01*
X123625530Y-114281980D01*
X123499547Y-114195899D01*
X123350000Y-114165615D01*
X121650000Y-114165615D01*
X121510292Y-114191903D01*
X121381980Y-114274470D01*
X121295899Y-114400453D01*
X121265615Y-114550000D01*
X116269225Y-114550000D01*
X115689385Y-113970161D01*
X115689385Y-113220962D01*
X115768000Y-113220962D01*
X115768000Y-113269038D01*
X115861400Y-113738591D01*
X116127380Y-114136658D01*
X116525447Y-114402638D01*
X116995000Y-114496038D01*
X117464553Y-114402638D01*
X117862620Y-114136658D01*
X118128600Y-113738591D01*
X118222000Y-113269038D01*
X118222000Y-113220962D01*
X118128600Y-112751409D01*
X117862620Y-112353342D01*
X117464553Y-112087362D01*
X116995000Y-111993962D01*
X116525447Y-112087362D01*
X116127380Y-112353342D01*
X115861400Y-112751409D01*
X115768000Y-113220962D01*
X115689385Y-113220962D01*
X115689385Y-112395000D01*
X115663097Y-112255292D01*
X115580530Y-112126980D01*
X115454547Y-112040899D01*
X115305000Y-112010615D01*
X113605000Y-112010615D01*
X113465292Y-112036903D01*
X113336980Y-112119470D01*
X113250899Y-112245453D01*
X113220615Y-112395000D01*
X112827000Y-112395000D01*
X112827000Y-111807000D01*
X121885783Y-111807000D01*
X121608342Y-111992380D01*
X121608342Y-111992380D01*
G37*
X121608342Y-111992380D02*
X121342362Y-112390447D01*
X121248962Y-112860000D01*
X121342362Y-113329553D01*
X121608342Y-113727620D01*
X122006409Y-113993600D01*
X122475962Y-114087000D01*
X122524038Y-114087000D01*
X122993591Y-113993600D01*
X123391658Y-113727620D01*
X123657638Y-113329553D01*
X123706133Y-113085750D01*
X124965000Y-113085750D01*
X124965000Y-113776309D01*
X125061673Y-114009698D01*
X125240301Y-114188327D01*
X125473690Y-114285000D01*
X126164250Y-114285000D01*
X126323000Y-114126250D01*
X126323000Y-112927000D01*
X125123750Y-112927000D01*
X124965000Y-113085750D01*
X123706133Y-113085750D01*
X123751038Y-112860000D01*
X123657638Y-112390447D01*
X123638067Y-112361157D01*
X123847224Y-112152000D01*
X124965000Y-112152000D01*
X124965000Y-112514250D01*
X125123750Y-112673000D01*
X126323000Y-112673000D01*
X126323000Y-112653000D01*
X126577000Y-112653000D01*
X126577000Y-112673000D01*
X126597000Y-112673000D01*
X126597000Y-112927000D01*
X126577000Y-112927000D01*
X126577000Y-114126250D01*
X126735750Y-114285000D01*
X127426310Y-114285000D01*
X127659699Y-114188327D01*
X127838327Y-114009698D01*
X127935000Y-113776309D01*
X127935000Y-113411224D01*
X128122380Y-113691658D01*
X128520447Y-113957638D01*
X128990000Y-114051038D01*
X129459553Y-113957638D01*
X129524810Y-113914034D01*
X130080388Y-114469612D01*
X130227027Y-114567594D01*
X130400000Y-114602000D01*
X134462776Y-114602000D01*
X135115584Y-115254808D01*
X135022926Y-115347466D01*
X134924264Y-115080613D01*
X134314539Y-114854092D01*
X133664540Y-114878144D01*
X133175736Y-115080613D01*
X133077073Y-115347468D01*
X134050000Y-116320395D01*
X134064143Y-116306253D01*
X134243748Y-116485858D01*
X134229605Y-116500000D01*
X135202532Y-117472927D01*
X135469387Y-117374264D01*
X135695908Y-116764539D01*
X135671856Y-116114540D01*
X135469387Y-115625736D01*
X135202534Y-115527074D01*
X135298137Y-115431471D01*
X135427027Y-115517594D01*
X135600000Y-115552000D01*
X137362776Y-115552000D01*
X137915136Y-116104360D01*
X137709440Y-116189352D01*
X137539947Y-116358549D01*
X137448105Y-116579729D01*
X137447896Y-116819220D01*
X137539352Y-117040560D01*
X137698000Y-117199486D01*
X137698000Y-120548000D01*
X135353153Y-120548000D01*
X135218044Y-120221011D01*
X134831026Y-119833317D01*
X134325104Y-119623240D01*
X133777299Y-119622762D01*
X133271011Y-119831956D01*
X132883317Y-120218974D01*
X132746694Y-120548000D01*
X128853153Y-120548000D01*
X128718044Y-120221011D01*
X128331026Y-119833317D01*
X127825104Y-119623240D01*
X127277299Y-119622762D01*
X126771011Y-119831956D01*
X126383317Y-120218974D01*
X126173240Y-120724896D01*
X126172762Y-121272701D01*
X126381956Y-121778989D01*
X126768974Y-122166683D01*
X127274896Y-122376760D01*
X127822701Y-122377238D01*
X128328989Y-122168044D01*
X128716683Y-121781026D01*
X128853306Y-121452000D01*
X132746847Y-121452000D01*
X132881956Y-121778989D01*
X133268974Y-122166683D01*
X133774896Y-122376760D01*
X134010427Y-122376966D01*
X133859440Y-122439352D01*
X133689947Y-122608549D01*
X133598105Y-122829729D01*
X133598045Y-122898000D01*
X125852000Y-122898000D01*
X125852000Y-122550000D01*
X125817594Y-122377027D01*
X125719612Y-122230388D01*
X125219612Y-121730388D01*
X125072973Y-121632406D01*
X124900000Y-121598000D01*
X124537224Y-121598000D01*
X124169612Y-121230388D01*
X124022973Y-121132406D01*
X123850000Y-121098000D01*
X123553230Y-121098000D01*
X123710053Y-120941451D01*
X123801895Y-120720271D01*
X123802104Y-120480780D01*
X123710648Y-120259440D01*
X123541451Y-120089947D01*
X123320271Y-119998105D01*
X123080780Y-119997896D01*
X122859440Y-120089352D01*
X122689947Y-120258549D01*
X122598105Y-120479729D01*
X122598089Y-120498000D01*
X119550000Y-120498000D01*
X119377027Y-120532406D01*
X119230388Y-120630388D01*
X118562776Y-121298000D01*
X117065683Y-121298000D01*
X117444553Y-121222638D01*
X117842620Y-120956658D01*
X118108600Y-120558591D01*
X118202000Y-120089038D01*
X118202000Y-120040962D01*
X118108600Y-119571409D01*
X117842620Y-119173342D01*
X117444553Y-118907362D01*
X116975000Y-118813962D01*
X116505447Y-118907362D01*
X116107380Y-119173342D01*
X115841400Y-119571409D01*
X115748000Y-120040962D01*
X115748000Y-120089038D01*
X115841400Y-120558591D01*
X116107380Y-120956658D01*
X116505447Y-121222638D01*
X116884317Y-121298000D01*
X116307224Y-121298000D01*
X115669385Y-120660161D01*
X115669385Y-119215000D01*
X115643097Y-119075292D01*
X115560530Y-118946980D01*
X115434547Y-118860899D01*
X115285000Y-118830615D01*
X113585000Y-118830615D01*
X113445292Y-118856903D01*
X113316980Y-118939470D01*
X113230899Y-119065453D01*
X113200615Y-119215000D01*
X113200615Y-120915000D01*
X113226903Y-121054708D01*
X113309470Y-121183020D01*
X113435453Y-121269101D01*
X113585000Y-121299385D01*
X115030161Y-121299385D01*
X115800388Y-122069612D01*
X115947027Y-122167594D01*
X116120000Y-122202000D01*
X118750000Y-122202000D01*
X118922973Y-122167594D01*
X119069612Y-122069612D01*
X119737224Y-121402000D01*
X120208775Y-121402000D01*
X119980388Y-121630388D01*
X119882406Y-121777027D01*
X119848000Y-121950000D01*
X119848000Y-122031987D01*
X119781980Y-122074470D01*
X119695899Y-122200453D01*
X119665615Y-122350000D01*
X119665615Y-122936359D01*
X119511673Y-123090302D01*
X119415000Y-123323691D01*
X119415000Y-123464250D01*
X119573750Y-123623000D01*
X120175000Y-123623000D01*
X120175000Y-123603000D01*
X120425000Y-123603000D01*
X120425000Y-123623000D01*
X120447000Y-123623000D01*
X120447000Y-123877000D01*
X120425000Y-123877000D01*
X120425000Y-124526250D01*
X120583750Y-124685000D01*
X120676310Y-124685000D01*
X120765440Y-124648081D01*
X120811673Y-124759698D01*
X120990301Y-124938327D01*
X121013654Y-124948000D01*
X118900000Y-124948000D01*
X118727027Y-124982406D01*
X118580387Y-125080388D01*
X118462775Y-125198000D01*
X115337224Y-125198000D01*
X115178609Y-125039385D01*
X115265000Y-125039385D01*
X115404708Y-125013097D01*
X115533020Y-124930530D01*
X115619101Y-124804547D01*
X115649385Y-124655000D01*
X115649385Y-123780962D01*
X115728000Y-123780962D01*
X115728000Y-123829038D01*
X115821400Y-124298591D01*
X116087380Y-124696658D01*
X116485447Y-124962638D01*
X116955000Y-125056038D01*
X117424553Y-124962638D01*
X117822620Y-124696658D01*
X118088600Y-124298591D01*
X118140882Y-124035750D01*
X119415000Y-124035750D01*
X119415000Y-124176309D01*
X119511673Y-124409698D01*
X119690301Y-124588327D01*
X119923690Y-124685000D01*
X120016250Y-124685000D01*
X120175000Y-124526250D01*
X120175000Y-123877000D01*
X119573750Y-123877000D01*
X119415000Y-124035750D01*
X118140882Y-124035750D01*
X118182000Y-123829038D01*
X118182000Y-123780962D01*
X118088600Y-123311409D01*
X117822620Y-122913342D01*
X117424553Y-122647362D01*
X116955000Y-122553962D01*
X116485447Y-122647362D01*
X116087380Y-122913342D01*
X115821400Y-123311409D01*
X115728000Y-123780962D01*
X115649385Y-123780962D01*
X115649385Y-122955000D01*
X115623097Y-122815292D01*
X115540530Y-122686980D01*
X115414547Y-122600899D01*
X115265000Y-122570615D01*
X113565000Y-122570615D01*
X113425292Y-122596903D01*
X113296980Y-122679470D01*
X113210899Y-122805453D01*
X113180615Y-122955000D01*
X113180615Y-124655000D01*
X113206903Y-124794708D01*
X113289470Y-124923020D01*
X113415453Y-125009101D01*
X113565000Y-125039385D01*
X113987741Y-125039385D01*
X113997406Y-125087973D01*
X114095388Y-125234612D01*
X114830388Y-125969612D01*
X114977027Y-126067594D01*
X115150000Y-126102000D01*
X117358775Y-126102000D01*
X115980388Y-127480388D01*
X115882406Y-127627027D01*
X115848000Y-127800000D01*
X115848000Y-131200597D01*
X115789947Y-131258549D01*
X115698105Y-131479729D01*
X115697896Y-131719220D01*
X115789352Y-131940560D01*
X115958549Y-132110053D01*
X116179729Y-132201895D01*
X116398000Y-132202085D01*
X116398000Y-134150000D01*
X116432406Y-134322973D01*
X116530388Y-134469612D01*
X118347968Y-136287192D01*
X118347896Y-136369220D01*
X118439352Y-136590560D01*
X118608549Y-136760053D01*
X118829729Y-136851895D01*
X119069220Y-136852104D01*
X119290560Y-136760648D01*
X119460053Y-136591451D01*
X119533322Y-136415000D01*
X119574983Y-136415000D01*
X119548105Y-136479729D01*
X119547896Y-136719220D01*
X119639352Y-136940560D01*
X119808549Y-137110053D01*
X120029729Y-137201895D01*
X120269220Y-137202104D01*
X120490560Y-137110648D01*
X120499223Y-137102000D01*
X121450000Y-137102000D01*
X121622973Y-137067594D01*
X121769612Y-136969612D01*
X122469612Y-136269613D01*
X122567594Y-136122974D01*
X122574282Y-136089352D01*
X122602000Y-135950000D01*
X122602000Y-133741224D01*
X122648000Y-133787224D01*
X122648000Y-136662776D01*
X122130388Y-137180388D01*
X122032406Y-137327027D01*
X121998000Y-137500000D01*
X121998000Y-141100597D01*
X121939947Y-141158549D01*
X121848105Y-141379729D01*
X121847896Y-141619220D01*
X121939352Y-141840560D01*
X122108549Y-142010053D01*
X122329729Y-142101895D01*
X122569220Y-142102104D01*
X122790560Y-142010648D01*
X122960053Y-141841451D01*
X123051895Y-141620271D01*
X123052104Y-141380780D01*
X122960648Y-141159440D01*
X122902000Y-141100689D01*
X122902000Y-140607553D01*
X122917027Y-140617594D01*
X123090000Y-140652000D01*
X123115137Y-140647000D01*
X124313776Y-140647000D01*
X120851857Y-144108919D01*
X120525104Y-143973240D01*
X119977299Y-143972762D01*
X119471011Y-144181956D01*
X119083317Y-144568974D01*
X118946694Y-144898000D01*
X115053153Y-144898000D01*
X114918044Y-144571011D01*
X114531026Y-144183317D01*
X114025104Y-143973240D01*
X113477299Y-143972762D01*
X112971011Y-144181956D01*
X112817000Y-144335698D01*
X112817000Y-142110523D01*
X112875736Y-142269387D01*
X113485461Y-142495908D01*
X114135460Y-142471856D01*
X114624264Y-142269387D01*
X114722927Y-142002532D01*
X119277073Y-142002532D01*
X119375736Y-142269387D01*
X119985461Y-142495908D01*
X120635460Y-142471856D01*
X121124264Y-142269387D01*
X121222927Y-142002532D01*
X120250000Y-141029605D01*
X119277073Y-142002532D01*
X114722927Y-142002532D01*
X113750000Y-141029605D01*
X113735858Y-141043748D01*
X113556253Y-140864143D01*
X113570395Y-140850000D01*
X113929605Y-140850000D01*
X114902532Y-141822927D01*
X115169387Y-141724264D01*
X115395908Y-141114539D01*
X115376331Y-140585461D01*
X118604092Y-140585461D01*
X118628144Y-141235460D01*
X118830613Y-141724264D01*
X119097468Y-141822927D01*
X120070395Y-140850000D01*
X120429605Y-140850000D01*
X121402532Y-141822927D01*
X121669387Y-141724264D01*
X121895908Y-141114539D01*
X121871856Y-140464540D01*
X121669387Y-139975736D01*
X121402532Y-139877073D01*
X120429605Y-140850000D01*
X120070395Y-140850000D01*
X119097468Y-139877073D01*
X118830613Y-139975736D01*
X118604092Y-140585461D01*
X115376331Y-140585461D01*
X115371856Y-140464540D01*
X115169387Y-139975736D01*
X114902532Y-139877073D01*
X113929605Y-140850000D01*
X113570395Y-140850000D01*
X113556253Y-140835858D01*
X113735858Y-140656253D01*
X113750000Y-140670395D01*
X114722927Y-139697468D01*
X119277073Y-139697468D01*
X120250000Y-140670395D01*
X121222927Y-139697468D01*
X121124264Y-139430613D01*
X120514539Y-139204092D01*
X119864540Y-139228144D01*
X119375736Y-139430613D01*
X119277073Y-139697468D01*
X114722927Y-139697468D01*
X114624264Y-139430613D01*
X114014539Y-139204092D01*
X113364540Y-139228144D01*
X112875736Y-139430613D01*
X112817000Y-139589477D01*
X112817000Y-136679068D01*
X113108000Y-136775000D01*
X113408000Y-136775000D01*
X113408000Y-135867000D01*
X113662000Y-135867000D01*
X113662000Y-136775000D01*
X113962000Y-136775000D01*
X114348410Y-136647615D01*
X114656658Y-136382053D01*
X114829666Y-136026123D01*
X114701998Y-135867000D01*
X113662000Y-135867000D01*
X113408000Y-135867000D01*
X113388000Y-135867000D01*
X113388000Y-135613000D01*
X113408000Y-135613000D01*
X113408000Y-134705000D01*
X113662000Y-134705000D01*
X113662000Y-135613000D01*
X114701998Y-135613000D01*
X114829666Y-135453877D01*
X114656658Y-135097947D01*
X114348410Y-134832385D01*
X113962000Y-134705000D01*
X113662000Y-134705000D01*
X113408000Y-134705000D01*
X113108000Y-134705000D01*
X112721590Y-134832385D01*
X112502000Y-135021566D01*
X112502000Y-127478434D01*
X112721590Y-127667615D01*
X113108000Y-127795000D01*
X113408000Y-127795000D01*
X113408000Y-126887000D01*
X113662000Y-126887000D01*
X113662000Y-127795000D01*
X113962000Y-127795000D01*
X114348410Y-127667615D01*
X114656658Y-127402053D01*
X114829666Y-127046123D01*
X114701998Y-126887000D01*
X113662000Y-126887000D01*
X113408000Y-126887000D01*
X113388000Y-126887000D01*
X113388000Y-126633000D01*
X113408000Y-126633000D01*
X113408000Y-125725000D01*
X113662000Y-125725000D01*
X113662000Y-126633000D01*
X114701998Y-126633000D01*
X114829666Y-126473877D01*
X114656658Y-126117947D01*
X114348410Y-125852385D01*
X113962000Y-125725000D01*
X113662000Y-125725000D01*
X113408000Y-125725000D01*
X113108000Y-125725000D01*
X112827000Y-125817635D01*
X112827000Y-112395000D01*
X113220615Y-112395000D01*
X113220615Y-114095000D01*
X113246903Y-114234708D01*
X113329470Y-114363020D01*
X113455453Y-114449101D01*
X113605000Y-114479385D01*
X114920161Y-114479385D01*
X117130388Y-116689613D01*
X117277027Y-116787594D01*
X117450000Y-116822000D01*
X118202776Y-116822000D01*
X118438033Y-117057257D01*
X118437883Y-117229073D01*
X118540733Y-117477989D01*
X118731010Y-117668598D01*
X118979746Y-117771882D01*
X119249073Y-117772117D01*
X119497989Y-117669267D01*
X119514753Y-117652532D01*
X126577073Y-117652532D01*
X126675736Y-117919387D01*
X127285461Y-118145908D01*
X127935460Y-118121856D01*
X128424264Y-117919387D01*
X128522927Y-117652532D01*
X133077073Y-117652532D01*
X133175736Y-117919387D01*
X133785461Y-118145908D01*
X134435460Y-118121856D01*
X134924264Y-117919387D01*
X135022927Y-117652532D01*
X134050000Y-116679605D01*
X133077073Y-117652532D01*
X128522927Y-117652532D01*
X127550000Y-116679605D01*
X126577073Y-117652532D01*
X119514753Y-117652532D01*
X119688598Y-117478990D01*
X119791882Y-117230254D01*
X119792117Y-116960927D01*
X119689267Y-116712011D01*
X119498990Y-116521402D01*
X119250254Y-116418118D01*
X119077191Y-116417967D01*
X118709612Y-116050388D01*
X118562973Y-115952406D01*
X118390000Y-115918000D01*
X117637225Y-115918000D01*
X116269225Y-114550000D01*
X121265615Y-114550000D01*
X121265615Y-116250000D01*
X121291903Y-116389708D01*
X121374470Y-116518020D01*
X121500453Y-116604101D01*
X121650000Y-116634385D01*
X123350000Y-116634385D01*
X123489708Y-116608097D01*
X123618020Y-116525530D01*
X123704101Y-116399547D01*
X123734385Y-116250000D01*
X123734385Y-116235461D01*
X125904092Y-116235461D01*
X125928144Y-116885460D01*
X126130613Y-117374264D01*
X126397468Y-117472927D01*
X127370395Y-116500000D01*
X127729605Y-116500000D01*
X128702532Y-117472927D01*
X128969387Y-117374264D01*
X129195908Y-116764539D01*
X129176331Y-116235461D01*
X132404092Y-116235461D01*
X132428144Y-116885460D01*
X132630613Y-117374264D01*
X132897468Y-117472927D01*
X133870395Y-116500000D01*
X132897468Y-115527073D01*
X132630613Y-115625736D01*
X132404092Y-116235461D01*
X129176331Y-116235461D01*
X129171856Y-116114540D01*
X128969387Y-115625736D01*
X128702532Y-115527073D01*
X127729605Y-116500000D01*
X127370395Y-116500000D01*
X126397468Y-115527073D01*
X126130613Y-115625736D01*
X125904092Y-116235461D01*
X123734385Y-116235461D01*
X123734385Y-115347468D01*
X126577073Y-115347468D01*
X127550000Y-116320395D01*
X128522927Y-115347468D01*
X128424264Y-115080613D01*
X127814539Y-114854092D01*
X127164540Y-114878144D01*
X126675736Y-115080613D01*
X126577073Y-115347468D01*
X123734385Y-115347468D01*
X123734385Y-114550000D01*
X123708097Y-114410292D01*
X123625530Y-114281980D01*
X123499547Y-114195899D01*
X123350000Y-114165615D01*
X121650000Y-114165615D01*
X121510292Y-114191903D01*
X121381980Y-114274470D01*
X121295899Y-114400453D01*
X121265615Y-114550000D01*
X116269225Y-114550000D01*
X115689385Y-113970161D01*
X115689385Y-113220962D01*
X115768000Y-113220962D01*
X115768000Y-113269038D01*
X115861400Y-113738591D01*
X116127380Y-114136658D01*
X116525447Y-114402638D01*
X116995000Y-114496038D01*
X117464553Y-114402638D01*
X117862620Y-114136658D01*
X118128600Y-113738591D01*
X118222000Y-113269038D01*
X118222000Y-113220962D01*
X118128600Y-112751409D01*
X117862620Y-112353342D01*
X117464553Y-112087362D01*
X116995000Y-111993962D01*
X116525447Y-112087362D01*
X116127380Y-112353342D01*
X115861400Y-112751409D01*
X115768000Y-113220962D01*
X115689385Y-113220962D01*
X115689385Y-112395000D01*
X115663097Y-112255292D01*
X115580530Y-112126980D01*
X115454547Y-112040899D01*
X115305000Y-112010615D01*
X113605000Y-112010615D01*
X113465292Y-112036903D01*
X113336980Y-112119470D01*
X113250899Y-112245453D01*
X113220615Y-112395000D01*
X112827000Y-112395000D01*
X112827000Y-111807000D01*
X121885783Y-111807000D01*
X121608342Y-111992380D01*
G36*
X134244500Y-137327500D02*
X134264500Y-137327500D01*
X134264500Y-137577500D01*
X134244500Y-137577500D01*
X134244500Y-137599500D01*
X133990500Y-137599500D01*
X133990500Y-137577500D01*
X133970500Y-137577500D01*
X133970500Y-137327500D01*
X133990500Y-137327500D01*
X133990500Y-137305500D01*
X134244500Y-137305500D01*
X134244500Y-137327500D01*
X134244500Y-137327500D01*
G37*
X134244500Y-137327500D02*
X134264500Y-137327500D01*
X134264500Y-137577500D01*
X134244500Y-137577500D01*
X134244500Y-137599500D01*
X133990500Y-137599500D01*
X133990500Y-137577500D01*
X133970500Y-137577500D01*
X133970500Y-137327500D01*
X133990500Y-137327500D01*
X133990500Y-137305500D01*
X134244500Y-137305500D01*
X134244500Y-137327500D01*
G36*
X125350301Y-133273327D02*
X125583690Y-133370000D01*
X125602000Y-133370000D01*
X125602000Y-134190000D01*
X125622000Y-134190000D01*
X125622000Y-134440000D01*
X125602000Y-134440000D01*
X125602000Y-135041250D01*
X125760750Y-135200000D01*
X125901309Y-135200000D01*
X126134698Y-135103327D01*
X126288641Y-134949385D01*
X126875000Y-134949385D01*
X127014708Y-134923097D01*
X127057609Y-134895491D01*
X127289746Y-134991882D01*
X127481728Y-134992050D01*
X127536673Y-135124698D01*
X127715301Y-135303327D01*
X127948690Y-135400000D01*
X128041250Y-135400000D01*
X128200000Y-135241250D01*
X128200000Y-134592000D01*
X128178000Y-134592000D01*
X128178000Y-134338000D01*
X128200000Y-134338000D01*
X128200000Y-134318000D01*
X128450000Y-134318000D01*
X128450000Y-134338000D01*
X129300000Y-134338000D01*
X129300000Y-134318000D01*
X129550000Y-134318000D01*
X129550000Y-134338000D01*
X129572000Y-134338000D01*
X129572000Y-134580078D01*
X129522011Y-134600733D01*
X129510724Y-134612000D01*
X129300000Y-134612000D01*
X129300000Y-134592000D01*
X128450000Y-134592000D01*
X128450000Y-135241250D01*
X128510746Y-135301996D01*
X128321402Y-135491010D01*
X128218118Y-135739746D01*
X128217883Y-136009073D01*
X128254627Y-136098000D01*
X126187224Y-136098000D01*
X125239237Y-135150013D01*
X125348000Y-135041250D01*
X125348000Y-134440000D01*
X125328000Y-134440000D01*
X125328000Y-134190000D01*
X125348000Y-134190000D01*
X125348000Y-133340000D01*
X125328000Y-133340000D01*
X125328000Y-133251026D01*
X125350301Y-133273327D01*
X125350301Y-133273327D01*
G37*
X125350301Y-133273327D02*
X125583690Y-133370000D01*
X125602000Y-133370000D01*
X125602000Y-134190000D01*
X125622000Y-134190000D01*
X125622000Y-134440000D01*
X125602000Y-134440000D01*
X125602000Y-135041250D01*
X125760750Y-135200000D01*
X125901309Y-135200000D01*
X126134698Y-135103327D01*
X126288641Y-134949385D01*
X126875000Y-134949385D01*
X127014708Y-134923097D01*
X127057609Y-134895491D01*
X127289746Y-134991882D01*
X127481728Y-134992050D01*
X127536673Y-135124698D01*
X127715301Y-135303327D01*
X127948690Y-135400000D01*
X128041250Y-135400000D01*
X128200000Y-135241250D01*
X128200000Y-134592000D01*
X128178000Y-134592000D01*
X128178000Y-134338000D01*
X128200000Y-134338000D01*
X128200000Y-134318000D01*
X128450000Y-134318000D01*
X128450000Y-134338000D01*
X129300000Y-134338000D01*
X129300000Y-134318000D01*
X129550000Y-134318000D01*
X129550000Y-134338000D01*
X129572000Y-134338000D01*
X129572000Y-134580078D01*
X129522011Y-134600733D01*
X129510724Y-134612000D01*
X129300000Y-134612000D01*
X129300000Y-134592000D01*
X128450000Y-134592000D01*
X128450000Y-135241250D01*
X128510746Y-135301996D01*
X128321402Y-135491010D01*
X128218118Y-135739746D01*
X128217883Y-136009073D01*
X128254627Y-136098000D01*
X126187224Y-136098000D01*
X125239237Y-135150013D01*
X125348000Y-135041250D01*
X125348000Y-134440000D01*
X125328000Y-134440000D01*
X125328000Y-134190000D01*
X125348000Y-134190000D01*
X125348000Y-133340000D01*
X125328000Y-133340000D01*
X125328000Y-133251026D01*
X125350301Y-133273327D01*
G36*
X119612000Y-135253000D02*
X119632000Y-135253000D01*
X119632000Y-135507000D01*
X119612000Y-135507000D01*
X119612000Y-135527000D01*
X119358000Y-135527000D01*
X119358000Y-135507000D01*
X119338000Y-135507000D01*
X119338000Y-135253000D01*
X119358000Y-135253000D01*
X119358000Y-135233000D01*
X119612000Y-135233000D01*
X119612000Y-135253000D01*
X119612000Y-135253000D01*
G37*
X119612000Y-135253000D02*
X119632000Y-135253000D01*
X119632000Y-135507000D01*
X119612000Y-135507000D01*
X119612000Y-135527000D01*
X119358000Y-135527000D01*
X119358000Y-135507000D01*
X119338000Y-135507000D01*
X119338000Y-135253000D01*
X119358000Y-135253000D01*
X119358000Y-135233000D01*
X119612000Y-135233000D01*
X119612000Y-135253000D01*
G36*
X142532000Y-133961250D02*
X142690750Y-134120000D01*
X142936309Y-134120000D01*
X143122227Y-134042990D01*
X143199864Y-134230886D01*
X143067000Y-134363750D01*
X143067000Y-134965000D01*
X143087000Y-134965000D01*
X143087000Y-135215000D01*
X143067000Y-135215000D01*
X143067000Y-135237000D01*
X142813000Y-135237000D01*
X142813000Y-135215000D01*
X142793000Y-135215000D01*
X142793000Y-134965000D01*
X142813000Y-134965000D01*
X142813000Y-134363750D01*
X142654250Y-134205000D01*
X142513691Y-134205000D01*
X142287794Y-134298570D01*
X142244385Y-134255161D01*
X142244385Y-133994865D01*
X142278000Y-133961250D01*
X142278000Y-133845025D01*
X142338327Y-133784698D01*
X142435000Y-133551309D01*
X142435000Y-133469385D01*
X142532000Y-133469385D01*
X142532000Y-133961250D01*
X142532000Y-133961250D01*
G37*
X142532000Y-133961250D02*
X142690750Y-134120000D01*
X142936309Y-134120000D01*
X143122227Y-134042990D01*
X143199864Y-134230886D01*
X143067000Y-134363750D01*
X143067000Y-134965000D01*
X143087000Y-134965000D01*
X143087000Y-135215000D01*
X143067000Y-135215000D01*
X143067000Y-135237000D01*
X142813000Y-135237000D01*
X142813000Y-135215000D01*
X142793000Y-135215000D01*
X142793000Y-134965000D01*
X142813000Y-134965000D01*
X142813000Y-134363750D01*
X142654250Y-134205000D01*
X142513691Y-134205000D01*
X142287794Y-134298570D01*
X142244385Y-134255161D01*
X142244385Y-133994865D01*
X142278000Y-133961250D01*
X142278000Y-133845025D01*
X142338327Y-133784698D01*
X142435000Y-133551309D01*
X142435000Y-133469385D01*
X142532000Y-133469385D01*
X142532000Y-133961250D01*
G36*
X120278748Y-134035858D02*
X120264605Y-134050000D01*
X120278748Y-134064143D01*
X120099143Y-134243748D01*
X120085000Y-134229605D01*
X119955323Y-134359282D01*
X119912000Y-134345000D01*
X119610395Y-134345000D01*
X119659075Y-134296320D01*
X119782132Y-134245474D01*
X119979780Y-134048170D01*
X120051386Y-133875724D01*
X120070858Y-133856253D01*
X120085000Y-133870395D01*
X120099143Y-133856253D01*
X120278748Y-134035858D01*
X120278748Y-134035858D01*
G37*
X120278748Y-134035858D02*
X120264605Y-134050000D01*
X120278748Y-134064143D01*
X120099143Y-134243748D01*
X120085000Y-134229605D01*
X119955323Y-134359282D01*
X119912000Y-134345000D01*
X119610395Y-134345000D01*
X119659075Y-134296320D01*
X119782132Y-134245474D01*
X119979780Y-134048170D01*
X120051386Y-133875724D01*
X120070858Y-133856253D01*
X120085000Y-133870395D01*
X120099143Y-133856253D01*
X120278748Y-134035858D01*
G36*
X121542000Y-134075000D02*
X121522000Y-134075000D01*
X121522000Y-134147000D01*
X121268000Y-134147000D01*
X121268000Y-134075000D01*
X121248000Y-134075000D01*
X121248000Y-134034385D01*
X121542000Y-134034385D01*
X121542000Y-134075000D01*
X121542000Y-134075000D01*
G37*
X121542000Y-134075000D02*
X121522000Y-134075000D01*
X121522000Y-134147000D01*
X121268000Y-134147000D01*
X121268000Y-134075000D01*
X121248000Y-134075000D01*
X121248000Y-134034385D01*
X121542000Y-134034385D01*
X121542000Y-134075000D01*
G36*
X140077000Y-131448000D02*
X140097000Y-131448000D01*
X140097000Y-131702000D01*
X140077000Y-131702000D01*
X140077000Y-131722000D01*
X139823000Y-131722000D01*
X139823000Y-131702000D01*
X139803000Y-131702000D01*
X139803000Y-131448000D01*
X139823000Y-131448000D01*
X139823000Y-131428000D01*
X140077000Y-131428000D01*
X140077000Y-131448000D01*
X140077000Y-131448000D01*
G37*
X140077000Y-131448000D02*
X140097000Y-131448000D01*
X140097000Y-131702000D01*
X140077000Y-131702000D01*
X140077000Y-131722000D01*
X139823000Y-131722000D01*
X139823000Y-131702000D01*
X139803000Y-131702000D01*
X139803000Y-131448000D01*
X139823000Y-131448000D01*
X139823000Y-131428000D01*
X140077000Y-131428000D01*
X140077000Y-131448000D01*
G36*
X130811673Y-124340301D02*
X130715000Y-124573690D01*
X130715000Y-124666250D01*
X130873750Y-124825000D01*
X131523000Y-124825000D01*
X131523000Y-124803000D01*
X131777000Y-124803000D01*
X131777000Y-124825000D01*
X131797000Y-124825000D01*
X131797000Y-125075000D01*
X131777000Y-125075000D01*
X131777000Y-125676250D01*
X131935750Y-125835000D01*
X132065615Y-125835000D01*
X132065615Y-126000000D01*
X132091903Y-126139708D01*
X132163680Y-126251252D01*
X132095899Y-126350453D01*
X132065615Y-126500000D01*
X132065615Y-126665000D01*
X131935750Y-126665000D01*
X131777000Y-126823750D01*
X131777000Y-127425000D01*
X131797000Y-127425000D01*
X131797000Y-127675000D01*
X131777000Y-127675000D01*
X131777000Y-128276250D01*
X131935750Y-128435000D01*
X132076309Y-128435000D01*
X132309698Y-128338327D01*
X132463641Y-128184385D01*
X133050000Y-128184385D01*
X133189708Y-128158097D01*
X133283952Y-128097452D01*
X133291903Y-128139708D01*
X133374470Y-128268020D01*
X133500453Y-128354101D01*
X133650000Y-128384385D01*
X134564241Y-128384385D01*
X134489947Y-128458549D01*
X134398105Y-128679729D01*
X134397896Y-128919220D01*
X134489352Y-129140560D01*
X134498763Y-129149987D01*
X134490000Y-129158750D01*
X134490000Y-129808000D01*
X135091250Y-129808000D01*
X135230013Y-129669237D01*
X136023775Y-130463000D01*
X135990376Y-130463000D01*
X135868990Y-130341402D01*
X135620254Y-130238118D01*
X135350927Y-130237883D01*
X135250000Y-130279585D01*
X135250000Y-130220750D01*
X135091250Y-130062000D01*
X134490000Y-130062000D01*
X134490000Y-130082000D01*
X134240000Y-130082000D01*
X134240000Y-130062000D01*
X133638750Y-130062000D01*
X133480000Y-130220750D01*
X133480000Y-130361309D01*
X133523379Y-130466036D01*
X133512011Y-130470733D01*
X133321402Y-130661010D01*
X133218118Y-130909746D01*
X133217883Y-131179073D01*
X133258637Y-131277705D01*
X133109440Y-131339352D01*
X132939947Y-131508549D01*
X132883562Y-131644338D01*
X132705350Y-131466126D01*
X132767594Y-131372973D01*
X132802000Y-131200000D01*
X132802000Y-130450000D01*
X132767594Y-130277027D01*
X132762488Y-130269385D01*
X132669612Y-130130387D01*
X132047916Y-129508691D01*
X133480000Y-129508691D01*
X133480000Y-129649250D01*
X133638750Y-129808000D01*
X134240000Y-129808000D01*
X134240000Y-129158750D01*
X134081250Y-129000000D01*
X133988690Y-129000000D01*
X133755301Y-129096673D01*
X133576673Y-129275302D01*
X133480000Y-129508691D01*
X132047916Y-129508691D01*
X131169612Y-128630388D01*
X131022973Y-128532406D01*
X130896468Y-128507243D01*
X130222975Y-127833750D01*
X130715000Y-127833750D01*
X130715000Y-127926310D01*
X130811673Y-128159699D01*
X130990302Y-128338327D01*
X131223691Y-128435000D01*
X131364250Y-128435000D01*
X131523000Y-128276250D01*
X131523000Y-127675000D01*
X130873750Y-127675000D01*
X130715000Y-127833750D01*
X130222975Y-127833750D01*
X129562915Y-127173690D01*
X130715000Y-127173690D01*
X130715000Y-127266250D01*
X130873750Y-127425000D01*
X131523000Y-127425000D01*
X131523000Y-126823750D01*
X131364250Y-126665000D01*
X131223691Y-126665000D01*
X130990302Y-126761673D01*
X130811673Y-126940301D01*
X130715000Y-127173690D01*
X129562915Y-127173690D01*
X128469612Y-126080388D01*
X128322973Y-125982406D01*
X128150000Y-125948000D01*
X126837225Y-125948000D01*
X126122975Y-125233750D01*
X130715000Y-125233750D01*
X130715000Y-125326310D01*
X130811673Y-125559699D01*
X130990302Y-125738327D01*
X131223691Y-125835000D01*
X131364250Y-125835000D01*
X131523000Y-125676250D01*
X131523000Y-125075000D01*
X130873750Y-125075000D01*
X130715000Y-125233750D01*
X126122975Y-125233750D01*
X125969612Y-125080388D01*
X125822973Y-124982406D01*
X125650000Y-124948000D01*
X122486346Y-124948000D01*
X122509699Y-124938327D01*
X122663640Y-124784385D01*
X123250000Y-124784385D01*
X123389708Y-124758097D01*
X123518020Y-124675530D01*
X123604101Y-124549547D01*
X123633980Y-124402000D01*
X123997378Y-124402000D01*
X124000453Y-124404101D01*
X124150000Y-124434385D01*
X124650000Y-124434385D01*
X124789708Y-124408097D01*
X124918020Y-124325530D01*
X125002425Y-124202000D01*
X130949975Y-124202000D01*
X130811673Y-124340301D01*
X130811673Y-124340301D01*
G37*
X130811673Y-124340301D02*
X130715000Y-124573690D01*
X130715000Y-124666250D01*
X130873750Y-124825000D01*
X131523000Y-124825000D01*
X131523000Y-124803000D01*
X131777000Y-124803000D01*
X131777000Y-124825000D01*
X131797000Y-124825000D01*
X131797000Y-125075000D01*
X131777000Y-125075000D01*
X131777000Y-125676250D01*
X131935750Y-125835000D01*
X132065615Y-125835000D01*
X132065615Y-126000000D01*
X132091903Y-126139708D01*
X132163680Y-126251252D01*
X132095899Y-126350453D01*
X132065615Y-126500000D01*
X132065615Y-126665000D01*
X131935750Y-126665000D01*
X131777000Y-126823750D01*
X131777000Y-127425000D01*
X131797000Y-127425000D01*
X131797000Y-127675000D01*
X131777000Y-127675000D01*
X131777000Y-128276250D01*
X131935750Y-128435000D01*
X132076309Y-128435000D01*
X132309698Y-128338327D01*
X132463641Y-128184385D01*
X133050000Y-128184385D01*
X133189708Y-128158097D01*
X133283952Y-128097452D01*
X133291903Y-128139708D01*
X133374470Y-128268020D01*
X133500453Y-128354101D01*
X133650000Y-128384385D01*
X134564241Y-128384385D01*
X134489947Y-128458549D01*
X134398105Y-128679729D01*
X134397896Y-128919220D01*
X134489352Y-129140560D01*
X134498763Y-129149987D01*
X134490000Y-129158750D01*
X134490000Y-129808000D01*
X135091250Y-129808000D01*
X135230013Y-129669237D01*
X136023775Y-130463000D01*
X135990376Y-130463000D01*
X135868990Y-130341402D01*
X135620254Y-130238118D01*
X135350927Y-130237883D01*
X135250000Y-130279585D01*
X135250000Y-130220750D01*
X135091250Y-130062000D01*
X134490000Y-130062000D01*
X134490000Y-130082000D01*
X134240000Y-130082000D01*
X134240000Y-130062000D01*
X133638750Y-130062000D01*
X133480000Y-130220750D01*
X133480000Y-130361309D01*
X133523379Y-130466036D01*
X133512011Y-130470733D01*
X133321402Y-130661010D01*
X133218118Y-130909746D01*
X133217883Y-131179073D01*
X133258637Y-131277705D01*
X133109440Y-131339352D01*
X132939947Y-131508549D01*
X132883562Y-131644338D01*
X132705350Y-131466126D01*
X132767594Y-131372973D01*
X132802000Y-131200000D01*
X132802000Y-130450000D01*
X132767594Y-130277027D01*
X132762488Y-130269385D01*
X132669612Y-130130387D01*
X132047916Y-129508691D01*
X133480000Y-129508691D01*
X133480000Y-129649250D01*
X133638750Y-129808000D01*
X134240000Y-129808000D01*
X134240000Y-129158750D01*
X134081250Y-129000000D01*
X133988690Y-129000000D01*
X133755301Y-129096673D01*
X133576673Y-129275302D01*
X133480000Y-129508691D01*
X132047916Y-129508691D01*
X131169612Y-128630388D01*
X131022973Y-128532406D01*
X130896468Y-128507243D01*
X130222975Y-127833750D01*
X130715000Y-127833750D01*
X130715000Y-127926310D01*
X130811673Y-128159699D01*
X130990302Y-128338327D01*
X131223691Y-128435000D01*
X131364250Y-128435000D01*
X131523000Y-128276250D01*
X131523000Y-127675000D01*
X130873750Y-127675000D01*
X130715000Y-127833750D01*
X130222975Y-127833750D01*
X129562915Y-127173690D01*
X130715000Y-127173690D01*
X130715000Y-127266250D01*
X130873750Y-127425000D01*
X131523000Y-127425000D01*
X131523000Y-126823750D01*
X131364250Y-126665000D01*
X131223691Y-126665000D01*
X130990302Y-126761673D01*
X130811673Y-126940301D01*
X130715000Y-127173690D01*
X129562915Y-127173690D01*
X128469612Y-126080388D01*
X128322973Y-125982406D01*
X128150000Y-125948000D01*
X126837225Y-125948000D01*
X126122975Y-125233750D01*
X130715000Y-125233750D01*
X130715000Y-125326310D01*
X130811673Y-125559699D01*
X130990302Y-125738327D01*
X131223691Y-125835000D01*
X131364250Y-125835000D01*
X131523000Y-125676250D01*
X131523000Y-125075000D01*
X130873750Y-125075000D01*
X130715000Y-125233750D01*
X126122975Y-125233750D01*
X125969612Y-125080388D01*
X125822973Y-124982406D01*
X125650000Y-124948000D01*
X122486346Y-124948000D01*
X122509699Y-124938327D01*
X122663640Y-124784385D01*
X123250000Y-124784385D01*
X123389708Y-124758097D01*
X123518020Y-124675530D01*
X123604101Y-124549547D01*
X123633980Y-124402000D01*
X123997378Y-124402000D01*
X124000453Y-124404101D01*
X124150000Y-124434385D01*
X124650000Y-124434385D01*
X124789708Y-124408097D01*
X124918020Y-124325530D01*
X125002425Y-124202000D01*
X130949975Y-124202000D01*
X130811673Y-124340301D01*
G36*
X125189947Y-125858549D02*
X125098105Y-126079729D01*
X125097896Y-126319220D01*
X125189352Y-126540560D01*
X125358549Y-126710053D01*
X125579729Y-126801895D01*
X125627357Y-126801937D01*
X126112710Y-127287290D01*
X126267460Y-127390691D01*
X126450000Y-127427000D01*
X127582420Y-127427000D01*
X128899644Y-128744224D01*
X128696310Y-128660000D01*
X128658750Y-128660000D01*
X128500000Y-128818750D01*
X128500000Y-129165406D01*
X128498097Y-129155292D01*
X128415530Y-129026980D01*
X128360000Y-128989038D01*
X128360000Y-128818750D01*
X128201250Y-128660000D01*
X128163690Y-128660000D01*
X127930301Y-128756673D01*
X127806134Y-128880840D01*
X127901882Y-128650254D01*
X127902117Y-128380927D01*
X127799267Y-128132011D01*
X127608990Y-127941402D01*
X127360254Y-127838118D01*
X127090927Y-127837883D01*
X126917613Y-127909495D01*
X126775000Y-127880615D01*
X126188641Y-127880615D01*
X126034698Y-127726673D01*
X125801309Y-127630000D01*
X125660750Y-127630000D01*
X125502000Y-127788750D01*
X125502000Y-128390000D01*
X125522000Y-128390000D01*
X125522000Y-128640000D01*
X125502000Y-128640000D01*
X125502000Y-128662000D01*
X125248000Y-128662000D01*
X125248000Y-128640000D01*
X124598750Y-128640000D01*
X124440000Y-128798750D01*
X124440000Y-128891310D01*
X124536673Y-129124699D01*
X124715302Y-129303327D01*
X124895615Y-129378015D01*
X124895615Y-129856789D01*
X124815292Y-129871903D01*
X124686980Y-129954470D01*
X124600899Y-130080453D01*
X124570615Y-130230000D01*
X124570615Y-130510000D01*
X124585245Y-130587753D01*
X124570615Y-130660000D01*
X124570615Y-130940000D01*
X124585245Y-131017753D01*
X124572065Y-131082841D01*
X124269614Y-130780390D01*
X124269612Y-130780387D01*
X124169612Y-130680388D01*
X124022973Y-130582406D01*
X123852839Y-130548565D01*
X123910053Y-130491451D01*
X124001895Y-130270271D01*
X124002104Y-130030780D01*
X123910648Y-129809440D01*
X123741451Y-129639947D01*
X123520271Y-129548105D01*
X123437257Y-129548033D01*
X123269612Y-129380388D01*
X123219950Y-129347204D01*
X123251895Y-129270271D01*
X123252104Y-129030780D01*
X123160648Y-128809440D01*
X122991451Y-128639947D01*
X122770271Y-128548105D01*
X122530780Y-128547896D01*
X122520608Y-128552099D01*
X122500000Y-128548000D01*
X121970799Y-128548000D01*
X121894547Y-128495899D01*
X121745000Y-128465615D01*
X121248000Y-128465615D01*
X121248000Y-128425000D01*
X121268000Y-128425000D01*
X121268000Y-128353000D01*
X121522000Y-128353000D01*
X121522000Y-128425000D01*
X122221250Y-128425000D01*
X122380000Y-128266250D01*
X122380000Y-128223691D01*
X122344792Y-128138690D01*
X124440000Y-128138690D01*
X124440000Y-128231250D01*
X124598750Y-128390000D01*
X125248000Y-128390000D01*
X125248000Y-127788750D01*
X125089250Y-127630000D01*
X124948691Y-127630000D01*
X124715302Y-127726673D01*
X124536673Y-127905301D01*
X124440000Y-128138690D01*
X122344792Y-128138690D01*
X122283327Y-127990302D01*
X122104699Y-127811673D01*
X121871310Y-127715000D01*
X121680750Y-127715000D01*
X121522002Y-127873748D01*
X121522002Y-127715000D01*
X121436944Y-127715000D01*
X121437122Y-127510976D01*
X121330474Y-127252868D01*
X121133170Y-127055220D01*
X121132929Y-127055120D01*
X121240560Y-127010648D01*
X121410053Y-126841451D01*
X121501895Y-126620271D01*
X121502104Y-126380780D01*
X121410648Y-126159440D01*
X121241451Y-125989947D01*
X121020271Y-125898105D01*
X120896306Y-125897997D01*
X120872973Y-125882406D01*
X120720110Y-125852000D01*
X125196507Y-125852000D01*
X125189947Y-125858549D01*
X125189947Y-125858549D01*
G37*
X125189947Y-125858549D02*
X125098105Y-126079729D01*
X125097896Y-126319220D01*
X125189352Y-126540560D01*
X125358549Y-126710053D01*
X125579729Y-126801895D01*
X125627357Y-126801937D01*
X126112710Y-127287290D01*
X126267460Y-127390691D01*
X126450000Y-127427000D01*
X127582420Y-127427000D01*
X128899644Y-128744224D01*
X128696310Y-128660000D01*
X128658750Y-128660000D01*
X128500000Y-128818750D01*
X128500000Y-129165406D01*
X128498097Y-129155292D01*
X128415530Y-129026980D01*
X128360000Y-128989038D01*
X128360000Y-128818750D01*
X128201250Y-128660000D01*
X128163690Y-128660000D01*
X127930301Y-128756673D01*
X127806134Y-128880840D01*
X127901882Y-128650254D01*
X127902117Y-128380927D01*
X127799267Y-128132011D01*
X127608990Y-127941402D01*
X127360254Y-127838118D01*
X127090927Y-127837883D01*
X126917613Y-127909495D01*
X126775000Y-127880615D01*
X126188641Y-127880615D01*
X126034698Y-127726673D01*
X125801309Y-127630000D01*
X125660750Y-127630000D01*
X125502000Y-127788750D01*
X125502000Y-128390000D01*
X125522000Y-128390000D01*
X125522000Y-128640000D01*
X125502000Y-128640000D01*
X125502000Y-128662000D01*
X125248000Y-128662000D01*
X125248000Y-128640000D01*
X124598750Y-128640000D01*
X124440000Y-128798750D01*
X124440000Y-128891310D01*
X124536673Y-129124699D01*
X124715302Y-129303327D01*
X124895615Y-129378015D01*
X124895615Y-129856789D01*
X124815292Y-129871903D01*
X124686980Y-129954470D01*
X124600899Y-130080453D01*
X124570615Y-130230000D01*
X124570615Y-130510000D01*
X124585245Y-130587753D01*
X124570615Y-130660000D01*
X124570615Y-130940000D01*
X124585245Y-131017753D01*
X124572065Y-131082841D01*
X124269614Y-130780390D01*
X124269612Y-130780387D01*
X124169612Y-130680388D01*
X124022973Y-130582406D01*
X123852839Y-130548565D01*
X123910053Y-130491451D01*
X124001895Y-130270271D01*
X124002104Y-130030780D01*
X123910648Y-129809440D01*
X123741451Y-129639947D01*
X123520271Y-129548105D01*
X123437257Y-129548033D01*
X123269612Y-129380388D01*
X123219950Y-129347204D01*
X123251895Y-129270271D01*
X123252104Y-129030780D01*
X123160648Y-128809440D01*
X122991451Y-128639947D01*
X122770271Y-128548105D01*
X122530780Y-128547896D01*
X122520608Y-128552099D01*
X122500000Y-128548000D01*
X121970799Y-128548000D01*
X121894547Y-128495899D01*
X121745000Y-128465615D01*
X121248000Y-128465615D01*
X121248000Y-128425000D01*
X121268000Y-128425000D01*
X121268000Y-128353000D01*
X121522000Y-128353000D01*
X121522000Y-128425000D01*
X122221250Y-128425000D01*
X122380000Y-128266250D01*
X122380000Y-128223691D01*
X122344792Y-128138690D01*
X124440000Y-128138690D01*
X124440000Y-128231250D01*
X124598750Y-128390000D01*
X125248000Y-128390000D01*
X125248000Y-127788750D01*
X125089250Y-127630000D01*
X124948691Y-127630000D01*
X124715302Y-127726673D01*
X124536673Y-127905301D01*
X124440000Y-128138690D01*
X122344792Y-128138690D01*
X122283327Y-127990302D01*
X122104699Y-127811673D01*
X121871310Y-127715000D01*
X121680750Y-127715000D01*
X121522002Y-127873748D01*
X121522002Y-127715000D01*
X121436944Y-127715000D01*
X121437122Y-127510976D01*
X121330474Y-127252868D01*
X121133170Y-127055220D01*
X121132929Y-127055120D01*
X121240560Y-127010648D01*
X121410053Y-126841451D01*
X121501895Y-126620271D01*
X121502104Y-126380780D01*
X121410648Y-126159440D01*
X121241451Y-125989947D01*
X121020271Y-125898105D01*
X120896306Y-125897997D01*
X120872973Y-125882406D01*
X120720110Y-125852000D01*
X125196507Y-125852000D01*
X125189947Y-125858549D01*
G36*
X118190334Y-126833877D02*
X118318002Y-126993000D01*
X119358000Y-126993000D01*
X119358000Y-126973000D01*
X119612000Y-126973000D01*
X119612000Y-126993000D01*
X119632000Y-126993000D01*
X119632000Y-127247000D01*
X119612000Y-127247000D01*
X119612000Y-127267000D01*
X119358000Y-127267000D01*
X119358000Y-127247000D01*
X118318002Y-127247000D01*
X118190334Y-127406123D01*
X118363342Y-127762053D01*
X118671590Y-128027615D01*
X119058000Y-128155000D01*
X119171393Y-128155000D01*
X119162926Y-128182194D01*
X118987868Y-128254526D01*
X118790220Y-128451830D01*
X118683122Y-128709751D01*
X118682945Y-128912831D01*
X116752000Y-130843776D01*
X116752000Y-127987224D01*
X117987225Y-126752000D01*
X118230132Y-126752000D01*
X118190334Y-126833877D01*
X118190334Y-126833877D01*
G37*
X118190334Y-126833877D02*
X118318002Y-126993000D01*
X119358000Y-126993000D01*
X119358000Y-126973000D01*
X119612000Y-126973000D01*
X119612000Y-126993000D01*
X119632000Y-126993000D01*
X119632000Y-127247000D01*
X119612000Y-127247000D01*
X119612000Y-127267000D01*
X119358000Y-127267000D01*
X119358000Y-127247000D01*
X118318002Y-127247000D01*
X118190334Y-127406123D01*
X118363342Y-127762053D01*
X118671590Y-128027615D01*
X119058000Y-128155000D01*
X119171393Y-128155000D01*
X119162926Y-128182194D01*
X118987868Y-128254526D01*
X118790220Y-128451830D01*
X118683122Y-128709751D01*
X118682945Y-128912831D01*
X116752000Y-130843776D01*
X116752000Y-127987224D01*
X117987225Y-126752000D01*
X118230132Y-126752000D01*
X118190334Y-126833877D01*
G36*
X143960500Y-120337500D02*
X143969185Y-120383659D01*
X143996465Y-120426053D01*
X144038090Y-120454494D01*
X144087500Y-120464500D01*
X146515615Y-120464500D01*
X146515615Y-120950000D01*
X146541903Y-121089708D01*
X146613680Y-121201252D01*
X146545899Y-121300453D01*
X146515615Y-121450000D01*
X146515615Y-122050000D01*
X146534678Y-122151309D01*
X146326309Y-122065000D01*
X146185750Y-122065000D01*
X146027000Y-122223750D01*
X146027000Y-122825000D01*
X146047000Y-122825000D01*
X146047000Y-123075000D01*
X146027000Y-123075000D01*
X146027000Y-123676250D01*
X146185750Y-123835000D01*
X146326309Y-123835000D01*
X146559698Y-123738327D01*
X146638815Y-123659210D01*
X146638815Y-126945583D01*
X143957000Y-129627398D01*
X143957000Y-128955000D01*
X143922594Y-128782027D01*
X143874662Y-128710292D01*
X143824613Y-128635388D01*
X143638310Y-128449086D01*
X143748598Y-128338990D01*
X143851882Y-128090254D01*
X143852117Y-127820927D01*
X143749267Y-127572011D01*
X143627000Y-127449531D01*
X143627000Y-126475000D01*
X143616837Y-126423909D01*
X143857989Y-126324267D01*
X144048598Y-126133990D01*
X144151882Y-125885254D01*
X144152117Y-125615927D01*
X144049267Y-125367011D01*
X143858990Y-125176402D01*
X143777000Y-125142357D01*
X143777000Y-123925000D01*
X143742594Y-123752027D01*
X143644612Y-123605388D01*
X143577000Y-123537776D01*
X143577000Y-123233750D01*
X144965000Y-123233750D01*
X144965000Y-123326310D01*
X145061673Y-123559699D01*
X145240302Y-123738327D01*
X145473691Y-123835000D01*
X145614250Y-123835000D01*
X145773000Y-123676250D01*
X145773000Y-123075000D01*
X145123750Y-123075000D01*
X144965000Y-123233750D01*
X143577000Y-123233750D01*
X143577000Y-122573690D01*
X144965000Y-122573690D01*
X144965000Y-122666250D01*
X145123750Y-122825000D01*
X145773000Y-122825000D01*
X145773000Y-122223750D01*
X145614250Y-122065000D01*
X145473691Y-122065000D01*
X145240302Y-122161673D01*
X145061673Y-122340301D01*
X144965000Y-122573690D01*
X143577000Y-122573690D01*
X143577000Y-122325000D01*
X143542594Y-122152027D01*
X143523181Y-122122973D01*
X143444613Y-122005388D01*
X143089150Y-121649925D01*
X143109385Y-121550000D01*
X143109385Y-121050000D01*
X143083097Y-120910292D01*
X143000530Y-120781980D01*
X142874547Y-120695899D01*
X142725000Y-120665615D01*
X142687011Y-120665615D01*
X142677544Y-120518867D01*
X142701882Y-120460254D01*
X142702117Y-120190927D01*
X142599267Y-119942011D01*
X142408990Y-119751402D01*
X142160254Y-119648118D01*
X141890927Y-119647883D01*
X141642011Y-119750733D01*
X141451402Y-119941010D01*
X141348118Y-120189746D01*
X141347883Y-120459073D01*
X141450733Y-120707989D01*
X141540774Y-120798188D01*
X141470899Y-120900453D01*
X141440615Y-121050000D01*
X141440615Y-121550000D01*
X141466903Y-121689708D01*
X141549470Y-121818020D01*
X141675453Y-121904101D01*
X141825000Y-121934385D01*
X142095161Y-121934385D01*
X142326391Y-122165615D01*
X141825000Y-122165615D01*
X141685292Y-122191903D01*
X141556980Y-122274470D01*
X141470899Y-122400453D01*
X141440615Y-122550000D01*
X141440615Y-123050000D01*
X141466903Y-123189708D01*
X141549470Y-123318020D01*
X141549577Y-123318093D01*
X141401402Y-123466010D01*
X141298118Y-123714746D01*
X141297929Y-123931279D01*
X141287408Y-123947025D01*
X141253002Y-124119998D01*
X141253002Y-126480002D01*
X141287408Y-126652975D01*
X141385390Y-126799614D01*
X141590615Y-127004839D01*
X141590615Y-127325000D01*
X141606175Y-127407693D01*
X141598344Y-127410929D01*
X141498990Y-127311402D01*
X141250254Y-127208118D01*
X140980927Y-127207883D01*
X140732011Y-127310733D01*
X140602000Y-127440518D01*
X140602000Y-127019710D01*
X140832989Y-126924267D01*
X141023598Y-126733990D01*
X141126882Y-126485254D01*
X141127117Y-126215927D01*
X141024267Y-125967011D01*
X140833990Y-125776402D01*
X140585254Y-125673118D01*
X140315927Y-125672883D01*
X140067011Y-125775733D01*
X139876402Y-125966010D01*
X139802000Y-126145190D01*
X139802000Y-115602002D01*
X139919220Y-115602104D01*
X140140560Y-115510648D01*
X140310053Y-115341451D01*
X140401895Y-115120271D01*
X140402104Y-114880780D01*
X140310648Y-114659440D01*
X140141451Y-114489947D01*
X139920271Y-114398105D01*
X139837257Y-114398033D01*
X139602000Y-114162776D01*
X139602000Y-113961130D01*
X139619553Y-113957638D01*
X140017620Y-113691658D01*
X140283600Y-113293591D01*
X140377000Y-112824038D01*
X140377000Y-112775962D01*
X140283600Y-112306409D01*
X140017620Y-111908342D01*
X139865951Y-111807000D01*
X143960500Y-111807000D01*
X143960500Y-120337500D01*
X143960500Y-120337500D01*
G37*
X143960500Y-120337500D02*
X143969185Y-120383659D01*
X143996465Y-120426053D01*
X144038090Y-120454494D01*
X144087500Y-120464500D01*
X146515615Y-120464500D01*
X146515615Y-120950000D01*
X146541903Y-121089708D01*
X146613680Y-121201252D01*
X146545899Y-121300453D01*
X146515615Y-121450000D01*
X146515615Y-122050000D01*
X146534678Y-122151309D01*
X146326309Y-122065000D01*
X146185750Y-122065000D01*
X146027000Y-122223750D01*
X146027000Y-122825000D01*
X146047000Y-122825000D01*
X146047000Y-123075000D01*
X146027000Y-123075000D01*
X146027000Y-123676250D01*
X146185750Y-123835000D01*
X146326309Y-123835000D01*
X146559698Y-123738327D01*
X146638815Y-123659210D01*
X146638815Y-126945583D01*
X143957000Y-129627398D01*
X143957000Y-128955000D01*
X143922594Y-128782027D01*
X143874662Y-128710292D01*
X143824613Y-128635388D01*
X143638310Y-128449086D01*
X143748598Y-128338990D01*
X143851882Y-128090254D01*
X143852117Y-127820927D01*
X143749267Y-127572011D01*
X143627000Y-127449531D01*
X143627000Y-126475000D01*
X143616837Y-126423909D01*
X143857989Y-126324267D01*
X144048598Y-126133990D01*
X144151882Y-125885254D01*
X144152117Y-125615927D01*
X144049267Y-125367011D01*
X143858990Y-125176402D01*
X143777000Y-125142357D01*
X143777000Y-123925000D01*
X143742594Y-123752027D01*
X143644612Y-123605388D01*
X143577000Y-123537776D01*
X143577000Y-123233750D01*
X144965000Y-123233750D01*
X144965000Y-123326310D01*
X145061673Y-123559699D01*
X145240302Y-123738327D01*
X145473691Y-123835000D01*
X145614250Y-123835000D01*
X145773000Y-123676250D01*
X145773000Y-123075000D01*
X145123750Y-123075000D01*
X144965000Y-123233750D01*
X143577000Y-123233750D01*
X143577000Y-122573690D01*
X144965000Y-122573690D01*
X144965000Y-122666250D01*
X145123750Y-122825000D01*
X145773000Y-122825000D01*
X145773000Y-122223750D01*
X145614250Y-122065000D01*
X145473691Y-122065000D01*
X145240302Y-122161673D01*
X145061673Y-122340301D01*
X144965000Y-122573690D01*
X143577000Y-122573690D01*
X143577000Y-122325000D01*
X143542594Y-122152027D01*
X143523181Y-122122973D01*
X143444613Y-122005388D01*
X143089150Y-121649925D01*
X143109385Y-121550000D01*
X143109385Y-121050000D01*
X143083097Y-120910292D01*
X143000530Y-120781980D01*
X142874547Y-120695899D01*
X142725000Y-120665615D01*
X142687011Y-120665615D01*
X142677544Y-120518867D01*
X142701882Y-120460254D01*
X142702117Y-120190927D01*
X142599267Y-119942011D01*
X142408990Y-119751402D01*
X142160254Y-119648118D01*
X141890927Y-119647883D01*
X141642011Y-119750733D01*
X141451402Y-119941010D01*
X141348118Y-120189746D01*
X141347883Y-120459073D01*
X141450733Y-120707989D01*
X141540774Y-120798188D01*
X141470899Y-120900453D01*
X141440615Y-121050000D01*
X141440615Y-121550000D01*
X141466903Y-121689708D01*
X141549470Y-121818020D01*
X141675453Y-121904101D01*
X141825000Y-121934385D01*
X142095161Y-121934385D01*
X142326391Y-122165615D01*
X141825000Y-122165615D01*
X141685292Y-122191903D01*
X141556980Y-122274470D01*
X141470899Y-122400453D01*
X141440615Y-122550000D01*
X141440615Y-123050000D01*
X141466903Y-123189708D01*
X141549470Y-123318020D01*
X141549577Y-123318093D01*
X141401402Y-123466010D01*
X141298118Y-123714746D01*
X141297929Y-123931279D01*
X141287408Y-123947025D01*
X141253002Y-124119998D01*
X141253002Y-126480002D01*
X141287408Y-126652975D01*
X141385390Y-126799614D01*
X141590615Y-127004839D01*
X141590615Y-127325000D01*
X141606175Y-127407693D01*
X141598344Y-127410929D01*
X141498990Y-127311402D01*
X141250254Y-127208118D01*
X140980927Y-127207883D01*
X140732011Y-127310733D01*
X140602000Y-127440518D01*
X140602000Y-127019710D01*
X140832989Y-126924267D01*
X141023598Y-126733990D01*
X141126882Y-126485254D01*
X141127117Y-126215927D01*
X141024267Y-125967011D01*
X140833990Y-125776402D01*
X140585254Y-125673118D01*
X140315927Y-125672883D01*
X140067011Y-125775733D01*
X139876402Y-125966010D01*
X139802000Y-126145190D01*
X139802000Y-115602002D01*
X139919220Y-115602104D01*
X140140560Y-115510648D01*
X140310053Y-115341451D01*
X140401895Y-115120271D01*
X140402104Y-114880780D01*
X140310648Y-114659440D01*
X140141451Y-114489947D01*
X139920271Y-114398105D01*
X139837257Y-114398033D01*
X139602000Y-114162776D01*
X139602000Y-113961130D01*
X139619553Y-113957638D01*
X140017620Y-113691658D01*
X140283600Y-113293591D01*
X140377000Y-112824038D01*
X140377000Y-112775962D01*
X140283600Y-112306409D01*
X140017620Y-111908342D01*
X139865951Y-111807000D01*
X143960500Y-111807000D01*
X143960500Y-120337500D01*
G36*
X120085000Y-128270395D02*
X120099143Y-128256253D01*
X120278748Y-128435858D01*
X120264605Y-128450000D01*
X120278748Y-128464143D01*
X120099143Y-128643748D01*
X120085000Y-128629605D01*
X120070858Y-128643748D01*
X120051236Y-128624126D01*
X119980474Y-128452868D01*
X119783170Y-128255220D01*
X119659094Y-128203699D01*
X119610395Y-128155000D01*
X119912000Y-128155000D01*
X119955323Y-128140718D01*
X120085000Y-128270395D01*
X120085000Y-128270395D01*
G37*
X120085000Y-128270395D02*
X120099143Y-128256253D01*
X120278748Y-128435858D01*
X120264605Y-128450000D01*
X120278748Y-128464143D01*
X120099143Y-128643748D01*
X120085000Y-128629605D01*
X120070858Y-128643748D01*
X120051236Y-128624126D01*
X119980474Y-128452868D01*
X119783170Y-128255220D01*
X119659094Y-128203699D01*
X119610395Y-128155000D01*
X119912000Y-128155000D01*
X119955323Y-128140718D01*
X120085000Y-128270395D01*
G36*
X121877000Y-123823000D02*
X121897000Y-123823000D01*
X121897000Y-124077000D01*
X121877000Y-124077000D01*
X121877000Y-124097000D01*
X121623000Y-124097000D01*
X121623000Y-124077000D01*
X121603000Y-124077000D01*
X121603000Y-123823000D01*
X121623000Y-123823000D01*
X121623000Y-123803000D01*
X121877000Y-123803000D01*
X121877000Y-123823000D01*
X121877000Y-123823000D01*
G37*
X121877000Y-123823000D02*
X121897000Y-123823000D01*
X121897000Y-124077000D01*
X121877000Y-124077000D01*
X121877000Y-124097000D01*
X121623000Y-124097000D01*
X121623000Y-124077000D01*
X121603000Y-124077000D01*
X121603000Y-123823000D01*
X121623000Y-123823000D01*
X121623000Y-123803000D01*
X121877000Y-123803000D01*
X121877000Y-123823000D01*
G36*
X122977000Y-122423000D02*
X123573750Y-122423000D01*
X123673750Y-122523000D01*
X124275000Y-122523000D01*
X124275000Y-122503000D01*
X124525000Y-122503000D01*
X124525000Y-122523000D01*
X124547000Y-122523000D01*
X124547000Y-122777000D01*
X124525000Y-122777000D01*
X124525000Y-122797000D01*
X124275000Y-122797000D01*
X124275000Y-122777000D01*
X123826250Y-122777000D01*
X123726250Y-122677000D01*
X122977000Y-122677000D01*
X122977000Y-122697000D01*
X122723000Y-122697000D01*
X122723000Y-122677000D01*
X122703000Y-122677000D01*
X122703000Y-122423000D01*
X122723000Y-122423000D01*
X122723000Y-122403000D01*
X122977000Y-122403000D01*
X122977000Y-122423000D01*
X122977000Y-122423000D01*
G37*
X122977000Y-122423000D02*
X123573750Y-122423000D01*
X123673750Y-122523000D01*
X124275000Y-122523000D01*
X124275000Y-122503000D01*
X124525000Y-122503000D01*
X124525000Y-122523000D01*
X124547000Y-122523000D01*
X124547000Y-122777000D01*
X124525000Y-122777000D01*
X124525000Y-122797000D01*
X124275000Y-122797000D01*
X124275000Y-122777000D01*
X123826250Y-122777000D01*
X123726250Y-122677000D01*
X122977000Y-122677000D01*
X122977000Y-122697000D01*
X122723000Y-122697000D01*
X122723000Y-122677000D01*
X122703000Y-122677000D01*
X122703000Y-122423000D01*
X122723000Y-122423000D01*
X122723000Y-122403000D01*
X122977000Y-122403000D01*
X122977000Y-122423000D01*
M02*
