%TF.GenerationSoftware,KiCad,Pcbnew,4.0.7*%
%TF.CreationDate,2019-04-11T13:09:23-05:00*%
%TF.ProjectId,GolfGloveMainBoardV1.0.0,476F6C66476C6F76654D61696E426F61,rev?*%
%TF.FileFunction,Legend,Top*%
%FSLAX46Y46*%
G04 Gerber Fmt 4.6, Leading zero omitted, Abs format (unit mm)*
G04 Created by KiCad (PCBNEW 4.0.7) date 04/11/19 13:09:23*
%MOMM*%
%LPD*%
G01*
G04 APERTURE LIST*
%ADD10C,0.100000*%
%ADD11C,0.200000*%
%ADD12C,0.150000*%
%ADD13C,0.300000*%
%ADD14C,0.120000*%
%ADD15C,0.127000*%
%ADD16C,0.152400*%
%ADD17C,0.050000*%
G04 APERTURE END LIST*
D10*
D11*
X111150000Y-125850000D02*
X111150000Y-136650000D01*
D12*
X148925000Y-151345000D02*
X148925000Y-151355000D01*
X112365000Y-151345000D02*
X148925000Y-151345000D01*
X112365000Y-136675000D02*
X112365000Y-151345000D01*
X99805000Y-136675000D02*
X112365000Y-136675000D01*
X99805000Y-139585000D02*
X99805000Y-136675000D01*
X93605000Y-139585000D02*
X99805000Y-139585000D01*
X93605000Y-122935000D02*
X93605000Y-139585000D01*
X99805000Y-122935000D02*
X93605000Y-122935000D01*
X99805000Y-125835000D02*
X99805000Y-122935000D01*
X112375000Y-125835000D02*
X99805000Y-125835000D01*
X112375000Y-111355000D02*
X112375000Y-125835000D01*
X148925000Y-111355000D02*
X112375000Y-111355000D01*
X148925000Y-151345000D02*
X148925000Y-111355000D01*
D13*
X96622858Y-143488571D02*
X95765715Y-143488571D01*
X96194287Y-143488571D02*
X96194287Y-141988571D01*
X96051430Y-142202857D01*
X95908572Y-142345714D01*
X95765715Y-142417143D01*
X97908572Y-141988571D02*
X97622858Y-141988571D01*
X97480001Y-142060000D01*
X97408572Y-142131429D01*
X97265715Y-142345714D01*
X97194286Y-142631429D01*
X97194286Y-143202857D01*
X97265715Y-143345714D01*
X97337143Y-143417143D01*
X97480001Y-143488571D01*
X97765715Y-143488571D01*
X97908572Y-143417143D01*
X97980001Y-143345714D01*
X98051429Y-143202857D01*
X98051429Y-142845714D01*
X97980001Y-142702857D01*
X97908572Y-142631429D01*
X97765715Y-142560000D01*
X97480001Y-142560000D01*
X97337143Y-142631429D01*
X97265715Y-142702857D01*
X97194286Y-142845714D01*
X98694286Y-143345714D02*
X98765714Y-143417143D01*
X98694286Y-143488571D01*
X98622857Y-143417143D01*
X98694286Y-143345714D01*
X98694286Y-143488571D01*
X99694286Y-141988571D02*
X99837143Y-141988571D01*
X99980000Y-142060000D01*
X100051429Y-142131429D01*
X100122858Y-142274286D01*
X100194286Y-142560000D01*
X100194286Y-142917143D01*
X100122858Y-143202857D01*
X100051429Y-143345714D01*
X99980000Y-143417143D01*
X99837143Y-143488571D01*
X99694286Y-143488571D01*
X99551429Y-143417143D01*
X99480000Y-143345714D01*
X99408572Y-143202857D01*
X99337143Y-142917143D01*
X99337143Y-142560000D01*
X99408572Y-142274286D01*
X99480000Y-142131429D01*
X99551429Y-142060000D01*
X99694286Y-141988571D01*
X101122857Y-141988571D02*
X101265714Y-141988571D01*
X101408571Y-142060000D01*
X101480000Y-142131429D01*
X101551429Y-142274286D01*
X101622857Y-142560000D01*
X101622857Y-142917143D01*
X101551429Y-143202857D01*
X101480000Y-143345714D01*
X101408571Y-143417143D01*
X101265714Y-143488571D01*
X101122857Y-143488571D01*
X100980000Y-143417143D01*
X100908571Y-143345714D01*
X100837143Y-143202857D01*
X100765714Y-142917143D01*
X100765714Y-142560000D01*
X100837143Y-142274286D01*
X100908571Y-142131429D01*
X100980000Y-142060000D01*
X101122857Y-141988571D01*
X102551428Y-141988571D02*
X102694285Y-141988571D01*
X102837142Y-142060000D01*
X102908571Y-142131429D01*
X102980000Y-142274286D01*
X103051428Y-142560000D01*
X103051428Y-142917143D01*
X102980000Y-143202857D01*
X102908571Y-143345714D01*
X102837142Y-143417143D01*
X102694285Y-143488571D01*
X102551428Y-143488571D01*
X102408571Y-143417143D01*
X102337142Y-143345714D01*
X102265714Y-143202857D01*
X102194285Y-142917143D01*
X102194285Y-142560000D01*
X102265714Y-142274286D01*
X102337142Y-142131429D01*
X102408571Y-142060000D01*
X102551428Y-141988571D01*
X104837142Y-143488571D02*
X104837142Y-142488571D01*
X104837142Y-142631429D02*
X104908570Y-142560000D01*
X105051428Y-142488571D01*
X105265713Y-142488571D01*
X105408570Y-142560000D01*
X105479999Y-142702857D01*
X105479999Y-143488571D01*
X105479999Y-142702857D02*
X105551428Y-142560000D01*
X105694285Y-142488571D01*
X105908570Y-142488571D01*
X106051428Y-142560000D01*
X106122856Y-142702857D01*
X106122856Y-143488571D01*
X106837142Y-143488571D02*
X106837142Y-142488571D01*
X106837142Y-142631429D02*
X106908570Y-142560000D01*
X107051428Y-142488571D01*
X107265713Y-142488571D01*
X107408570Y-142560000D01*
X107479999Y-142702857D01*
X107479999Y-143488571D01*
X107479999Y-142702857D02*
X107551428Y-142560000D01*
X107694285Y-142488571D01*
X107908570Y-142488571D01*
X108051428Y-142560000D01*
X108122856Y-142702857D01*
X108122856Y-143488571D01*
X109980000Y-141460000D02*
X93980000Y-141460000D01*
X109980000Y-136760000D02*
X109980000Y-144160000D01*
X93980000Y-136760000D02*
X93980000Y-144160000D01*
X93980000Y-141460000D02*
X95106504Y-140873579D01*
X93980000Y-141460000D02*
X95106504Y-142046421D01*
X109980000Y-141460000D02*
X108853496Y-140873579D01*
X109980000Y-141460000D02*
X108853496Y-142046421D01*
X90408571Y-136617142D02*
X90408571Y-137474285D01*
X90408571Y-137045713D02*
X88908571Y-137045713D01*
X89122857Y-137188570D01*
X89265714Y-137331428D01*
X89337143Y-137474285D01*
X88908571Y-135331428D02*
X88908571Y-135617142D01*
X88980000Y-135759999D01*
X89051429Y-135831428D01*
X89265714Y-135974285D01*
X89551429Y-136045714D01*
X90122857Y-136045714D01*
X90265714Y-135974285D01*
X90337143Y-135902857D01*
X90408571Y-135759999D01*
X90408571Y-135474285D01*
X90337143Y-135331428D01*
X90265714Y-135259999D01*
X90122857Y-135188571D01*
X89765714Y-135188571D01*
X89622857Y-135259999D01*
X89551429Y-135331428D01*
X89480000Y-135474285D01*
X89480000Y-135759999D01*
X89551429Y-135902857D01*
X89622857Y-135974285D01*
X89765714Y-136045714D01*
X90265714Y-134545714D02*
X90337143Y-134474286D01*
X90408571Y-134545714D01*
X90337143Y-134617143D01*
X90265714Y-134545714D01*
X90408571Y-134545714D01*
X88908571Y-133545714D02*
X88908571Y-133402857D01*
X88980000Y-133260000D01*
X89051429Y-133188571D01*
X89194286Y-133117142D01*
X89480000Y-133045714D01*
X89837143Y-133045714D01*
X90122857Y-133117142D01*
X90265714Y-133188571D01*
X90337143Y-133260000D01*
X90408571Y-133402857D01*
X90408571Y-133545714D01*
X90337143Y-133688571D01*
X90265714Y-133760000D01*
X90122857Y-133831428D01*
X89837143Y-133902857D01*
X89480000Y-133902857D01*
X89194286Y-133831428D01*
X89051429Y-133760000D01*
X88980000Y-133688571D01*
X88908571Y-133545714D01*
X88908571Y-132117143D02*
X88908571Y-131974286D01*
X88980000Y-131831429D01*
X89051429Y-131760000D01*
X89194286Y-131688571D01*
X89480000Y-131617143D01*
X89837143Y-131617143D01*
X90122857Y-131688571D01*
X90265714Y-131760000D01*
X90337143Y-131831429D01*
X90408571Y-131974286D01*
X90408571Y-132117143D01*
X90337143Y-132260000D01*
X90265714Y-132331429D01*
X90122857Y-132402857D01*
X89837143Y-132474286D01*
X89480000Y-132474286D01*
X89194286Y-132402857D01*
X89051429Y-132331429D01*
X88980000Y-132260000D01*
X88908571Y-132117143D01*
X88908571Y-130688572D02*
X88908571Y-130545715D01*
X88980000Y-130402858D01*
X89051429Y-130331429D01*
X89194286Y-130260000D01*
X89480000Y-130188572D01*
X89837143Y-130188572D01*
X90122857Y-130260000D01*
X90265714Y-130331429D01*
X90337143Y-130402858D01*
X90408571Y-130545715D01*
X90408571Y-130688572D01*
X90337143Y-130831429D01*
X90265714Y-130902858D01*
X90122857Y-130974286D01*
X89837143Y-131045715D01*
X89480000Y-131045715D01*
X89194286Y-130974286D01*
X89051429Y-130902858D01*
X88980000Y-130831429D01*
X88908571Y-130688572D01*
X90408571Y-128402858D02*
X89408571Y-128402858D01*
X89551429Y-128402858D02*
X89480000Y-128331430D01*
X89408571Y-128188572D01*
X89408571Y-127974287D01*
X89480000Y-127831430D01*
X89622857Y-127760001D01*
X90408571Y-127760001D01*
X89622857Y-127760001D02*
X89480000Y-127688572D01*
X89408571Y-127545715D01*
X89408571Y-127331430D01*
X89480000Y-127188572D01*
X89622857Y-127117144D01*
X90408571Y-127117144D01*
X90408571Y-126402858D02*
X89408571Y-126402858D01*
X89551429Y-126402858D02*
X89480000Y-126331430D01*
X89408571Y-126188572D01*
X89408571Y-125974287D01*
X89480000Y-125831430D01*
X89622857Y-125760001D01*
X90408571Y-125760001D01*
X89622857Y-125760001D02*
X89480000Y-125688572D01*
X89408571Y-125545715D01*
X89408571Y-125331430D01*
X89480000Y-125188572D01*
X89622857Y-125117144D01*
X90408571Y-125117144D01*
X91080000Y-139260000D02*
X91080000Y-123260000D01*
X93980000Y-139260000D02*
X88380000Y-139260000D01*
X93980000Y-123260000D02*
X88380000Y-123260000D01*
X91080000Y-123260000D02*
X91666421Y-124386504D01*
X91080000Y-123260000D02*
X90493579Y-124386504D01*
X91080000Y-139260000D02*
X91666421Y-138133496D01*
X91080000Y-139260000D02*
X90493579Y-138133496D01*
D11*
X148337500Y-111887500D02*
X148337500Y-116337500D01*
X144337500Y-111887500D02*
X144337500Y-116487500D01*
X146187500Y-111887500D02*
X144337500Y-111887500D01*
X146087500Y-111887500D02*
X148337500Y-111887500D01*
X148337500Y-120087500D02*
X145362500Y-120087500D01*
X148337500Y-116312500D02*
X148337500Y-120087500D01*
X144337500Y-116412500D02*
X144337500Y-120087500D01*
X145362500Y-120087500D02*
X144337500Y-120087500D01*
D14*
X100610000Y-128010000D02*
X100610000Y-126510000D01*
X100610000Y-126510000D02*
X107870000Y-126510000D01*
X100610000Y-136010000D02*
X107870000Y-136010000D01*
X100610000Y-136010000D02*
X100610000Y-134510000D01*
D11*
X129425000Y-132215000D02*
G75*
G03X129425000Y-132215000I-100000J0D01*
G01*
D15*
X128785000Y-132595000D02*
X128785000Y-131955000D01*
X125065000Y-132595000D02*
X125065000Y-131955000D01*
X128785000Y-129435000D02*
X128785000Y-130075000D01*
X125065000Y-129435000D02*
X125065000Y-130075000D01*
D11*
X99230000Y-132460000D02*
G75*
G03X99230000Y-132460000I-100000J0D01*
G01*
D15*
X98590000Y-132840000D02*
X98590000Y-132200000D01*
X94870000Y-132840000D02*
X94870000Y-132200000D01*
X98590000Y-129680000D02*
X98590000Y-130320000D01*
X94870000Y-129680000D02*
X94870000Y-130320000D01*
D11*
X138030000Y-134845000D02*
G75*
G03X138030000Y-134845000I-100000J0D01*
G01*
D15*
X142450000Y-129075000D02*
X142450000Y-129425000D01*
X137450000Y-129075000D02*
X137450000Y-129425000D01*
X142450000Y-134075000D02*
X142450000Y-133725000D01*
X137450000Y-134075000D02*
X137450000Y-133725000D01*
X142450000Y-129075000D02*
X142100000Y-129075000D01*
X137450000Y-129075000D02*
X137800000Y-129075000D01*
X142450000Y-134075000D02*
X142100000Y-134075000D01*
X137450000Y-134075000D02*
X137800000Y-134075000D01*
D14*
X94110000Y-123430000D02*
X94110000Y-126090000D01*
X96710000Y-123430000D02*
X94110000Y-123430000D01*
X96710000Y-126090000D02*
X94110000Y-126090000D01*
X96710000Y-123430000D02*
X96710000Y-126090000D01*
X97980000Y-123430000D02*
X99310000Y-123430000D01*
X99310000Y-123430000D02*
X99310000Y-124760000D01*
X121745000Y-134500000D02*
X121745000Y-136000000D01*
X121745000Y-136000000D02*
X114485000Y-136000000D01*
X121745000Y-126500000D02*
X114485000Y-126500000D01*
X121745000Y-126500000D02*
X121745000Y-128000000D01*
D10*
G36*
X146137500Y-117790580D02*
X146137500Y-116687500D01*
X146537842Y-116687500D01*
X146537842Y-117790580D01*
X146137500Y-117790580D01*
G37*
D14*
X129267500Y-137697500D02*
X129767500Y-137697500D01*
X129767500Y-136757500D02*
X129267500Y-136757500D01*
X133817500Y-136982500D02*
X133317500Y-136982500D01*
X133317500Y-137922500D02*
X133817500Y-137922500D01*
X126275000Y-133845000D02*
X125775000Y-133845000D01*
X125775000Y-134785000D02*
X126275000Y-134785000D01*
X125675000Y-128985000D02*
X126175000Y-128985000D01*
X126175000Y-128045000D02*
X125675000Y-128045000D01*
X127855000Y-133665000D02*
X127855000Y-134165000D01*
X128795000Y-134165000D02*
X128795000Y-133665000D01*
X131950000Y-125420000D02*
X132450000Y-125420000D01*
X132450000Y-124480000D02*
X131950000Y-124480000D01*
X132450000Y-127080000D02*
X131950000Y-127080000D01*
X131950000Y-128020000D02*
X132450000Y-128020000D01*
X126275000Y-132745000D02*
X125775000Y-132745000D01*
X125775000Y-133685000D02*
X126275000Y-133685000D01*
X129895000Y-134165000D02*
X129895000Y-133665000D01*
X128955000Y-133665000D02*
X128955000Y-134165000D01*
X99010000Y-127510000D02*
X99010000Y-128010000D01*
X99950000Y-128010000D02*
X99950000Y-127510000D01*
X143740000Y-134620000D02*
X143240000Y-134620000D01*
X143240000Y-135560000D02*
X143740000Y-135560000D01*
X134835000Y-130735000D02*
X134835000Y-130235000D01*
X133895000Y-130235000D02*
X133895000Y-130735000D01*
X99950000Y-135010000D02*
X99950000Y-134510000D01*
X99010000Y-134510000D02*
X99010000Y-135010000D01*
X98010000Y-127510000D02*
X98010000Y-128010000D01*
X98950000Y-128010000D02*
X98950000Y-127510000D01*
X95950000Y-128010000D02*
X95950000Y-127510000D01*
X95010000Y-127510000D02*
X95010000Y-128010000D01*
X98950000Y-135010000D02*
X98950000Y-134510000D01*
X98010000Y-134510000D02*
X98010000Y-135010000D01*
X120770000Y-123450000D02*
X120770000Y-122950000D01*
X119830000Y-122950000D02*
X119830000Y-123450000D01*
X123930000Y-122950000D02*
X123930000Y-123450000D01*
X124870000Y-123450000D02*
X124870000Y-122950000D01*
X129692500Y-138952500D02*
X129692500Y-139652500D01*
X128492500Y-139652500D02*
X128492500Y-138952500D01*
X140480000Y-114130000D02*
X140480000Y-111470000D01*
X127720000Y-114130000D02*
X140480000Y-114130000D01*
X127720000Y-111470000D02*
X140480000Y-111470000D01*
X127720000Y-114130000D02*
X127720000Y-111470000D01*
X126450000Y-114130000D02*
X125120000Y-114130000D01*
X125120000Y-114130000D02*
X125120000Y-112800000D01*
X118285000Y-125135000D02*
X118285000Y-122475000D01*
X115685000Y-125135000D02*
X118285000Y-125135000D01*
X115685000Y-122475000D02*
X118285000Y-122475000D01*
X115685000Y-125135000D02*
X115685000Y-122475000D01*
X114415000Y-125135000D02*
X113085000Y-125135000D01*
X113085000Y-125135000D02*
X113085000Y-123805000D01*
X118425000Y-150765000D02*
X118425000Y-148105000D01*
X115825000Y-150765000D02*
X118425000Y-150765000D01*
X115825000Y-148105000D02*
X118425000Y-148105000D01*
X115825000Y-150765000D02*
X115825000Y-148105000D01*
X114555000Y-150765000D02*
X113225000Y-150765000D01*
X113225000Y-150765000D02*
X113225000Y-149435000D01*
X118305000Y-121395000D02*
X118305000Y-118735000D01*
X115705000Y-121395000D02*
X118305000Y-121395000D01*
X115705000Y-118735000D02*
X118305000Y-118735000D01*
X115705000Y-121395000D02*
X115705000Y-118735000D01*
X114435000Y-121395000D02*
X113105000Y-121395000D01*
X113105000Y-121395000D02*
X113105000Y-120065000D01*
X118325000Y-114575000D02*
X118325000Y-111915000D01*
X115725000Y-114575000D02*
X118325000Y-114575000D01*
X115725000Y-111915000D02*
X118325000Y-111915000D01*
X115725000Y-114575000D02*
X115725000Y-111915000D01*
X114455000Y-114575000D02*
X113125000Y-114575000D01*
X113125000Y-114575000D02*
X113125000Y-113245000D01*
X94110000Y-136430000D02*
X94110000Y-139090000D01*
X96710000Y-136430000D02*
X94110000Y-136430000D01*
X96710000Y-139090000D02*
X94110000Y-139090000D01*
X96710000Y-136430000D02*
X96710000Y-139090000D01*
X97980000Y-136430000D02*
X99310000Y-136430000D01*
X99310000Y-136430000D02*
X99310000Y-137760000D01*
X123830000Y-111530000D02*
X121170000Y-111530000D01*
X123830000Y-114130000D02*
X123830000Y-111530000D01*
X121170000Y-114130000D02*
X121170000Y-111530000D01*
X123830000Y-114130000D02*
X121170000Y-114130000D01*
X123830000Y-115400000D02*
X123830000Y-116730000D01*
X123830000Y-116730000D02*
X122500000Y-116730000D01*
X141745000Y-126825000D02*
X141745000Y-125825000D01*
X143105000Y-125825000D02*
X143105000Y-126825000D01*
X141595000Y-122550000D02*
X141595000Y-121550000D01*
X142955000Y-121550000D02*
X142955000Y-122550000D01*
X130117500Y-141832500D02*
X130617500Y-141832500D01*
X130617500Y-140772500D02*
X130117500Y-140772500D01*
X131167500Y-137732500D02*
X131667500Y-137732500D01*
X131667500Y-136672500D02*
X131167500Y-136672500D01*
X125730000Y-139550000D02*
X125730000Y-139050000D01*
X124670000Y-139050000D02*
X124670000Y-139550000D01*
X133280000Y-126500000D02*
X133280000Y-126000000D01*
X132220000Y-126000000D02*
X132220000Y-126500000D01*
X130675000Y-131385000D02*
X130175000Y-131385000D01*
X130175000Y-132445000D02*
X130675000Y-132445000D01*
X130675000Y-130035000D02*
X130175000Y-130035000D01*
X130175000Y-131095000D02*
X130675000Y-131095000D01*
X98010000Y-135910000D02*
X98010000Y-135410000D01*
X96950000Y-135410000D02*
X96950000Y-135910000D01*
X96850000Y-127610000D02*
X96850000Y-128110000D01*
X97910000Y-128110000D02*
X97910000Y-127610000D01*
X146105000Y-138725000D02*
X146105000Y-138525000D01*
X150245000Y-141525000D02*
X150455000Y-141325000D01*
X150245000Y-140225000D02*
X150455000Y-140425000D01*
X148955000Y-141525000D02*
X150245000Y-141525000D01*
X150455000Y-141325000D02*
X150455000Y-140425000D01*
X150245000Y-140225000D02*
X148955000Y-140225000D01*
X148955000Y-142975000D02*
X148955000Y-137275000D01*
X146105000Y-141725000D02*
X146105000Y-140025000D01*
X147155000Y-143575000D02*
X147945000Y-143575000D01*
X147945000Y-136675000D02*
X147155000Y-136675000D01*
D16*
X131482900Y-140876900D02*
X131787700Y-140876900D01*
X131787700Y-140876900D02*
X132397300Y-140876900D01*
X132397300Y-140876900D02*
X132702100Y-140876900D01*
D10*
X131787700Y-140876900D02*
G75*
G02X132397300Y-140876900I304800J0D01*
G01*
D14*
X146680000Y-120950000D02*
X146680000Y-121450000D01*
X147620000Y-121450000D02*
X147620000Y-120950000D01*
X146700000Y-122480000D02*
X146200000Y-122480000D01*
X146200000Y-123420000D02*
X146700000Y-123420000D01*
X123450000Y-121900000D02*
X121150000Y-121900000D01*
X121150000Y-121900000D02*
X121150000Y-124600000D01*
X135425000Y-126925000D02*
X135425000Y-125575000D01*
X133675000Y-126925000D02*
X133675000Y-125575000D01*
X128550000Y-122000000D02*
X133050000Y-122000000D01*
X127300000Y-118000000D02*
X127300000Y-119500000D01*
X133050000Y-115500000D02*
X128550000Y-115500000D01*
X134300000Y-119500000D02*
X134300000Y-118000000D01*
X144270000Y-150870000D02*
X146930000Y-150870000D01*
X144270000Y-148270000D02*
X144270000Y-150870000D01*
X146930000Y-148270000D02*
X146930000Y-150870000D01*
X144270000Y-148270000D02*
X146930000Y-148270000D01*
X144270000Y-147000000D02*
X144270000Y-145670000D01*
X144270000Y-145670000D02*
X145600000Y-145670000D01*
X138020000Y-150670000D02*
X140680000Y-150670000D01*
X138020000Y-148070000D02*
X138020000Y-150670000D01*
X140680000Y-148070000D02*
X140680000Y-150670000D01*
X138020000Y-148070000D02*
X140680000Y-148070000D01*
X138020000Y-146800000D02*
X138020000Y-145470000D01*
X138020000Y-145470000D02*
X139350000Y-145470000D01*
X131570000Y-150870000D02*
X134230000Y-150870000D01*
X131570000Y-148270000D02*
X131570000Y-150870000D01*
X134230000Y-148270000D02*
X134230000Y-150870000D01*
X131570000Y-148270000D02*
X134230000Y-148270000D01*
X131570000Y-147000000D02*
X131570000Y-145670000D01*
X131570000Y-145670000D02*
X132900000Y-145670000D01*
X114750000Y-146350000D02*
X119250000Y-146350000D01*
X113500000Y-142350000D02*
X113500000Y-143850000D01*
X119250000Y-139850000D02*
X114750000Y-139850000D01*
X120500000Y-143850000D02*
X120500000Y-142350000D01*
X126950000Y-150180000D02*
X125950000Y-150180000D01*
X125950000Y-148820000D02*
X126950000Y-148820000D01*
X126600000Y-144150000D02*
X127300000Y-144150000D01*
X127300000Y-145350000D02*
X126600000Y-145350000D01*
X124150000Y-145280000D02*
X124650000Y-145280000D01*
X124650000Y-144220000D02*
X124150000Y-144220000D01*
D12*
X99072381Y-131593333D02*
X99786667Y-131593333D01*
X99929524Y-131640953D01*
X100024762Y-131736191D01*
X100072381Y-131879048D01*
X100072381Y-131974286D01*
X99072381Y-131212381D02*
X99072381Y-130593333D01*
X99453333Y-130926667D01*
X99453333Y-130783809D01*
X99500952Y-130688571D01*
X99548571Y-130640952D01*
X99643810Y-130593333D01*
X99881905Y-130593333D01*
X99977143Y-130640952D01*
X100024762Y-130688571D01*
X100072381Y-130783809D01*
X100072381Y-131069524D01*
X100024762Y-131164762D01*
X99977143Y-131212381D01*
D17*
X126780797Y-130849479D02*
X126780797Y-131108945D01*
X126796060Y-131139470D01*
X126811323Y-131154733D01*
X126841848Y-131169995D01*
X126902899Y-131169995D01*
X126933424Y-131154733D01*
X126948687Y-131139470D01*
X126963949Y-131108945D01*
X126963949Y-130849479D01*
X127086051Y-130849479D02*
X127284466Y-130849479D01*
X127177627Y-130971581D01*
X127223415Y-130971581D01*
X127253940Y-130986843D01*
X127269203Y-131002106D01*
X127284466Y-131032631D01*
X127284466Y-131108945D01*
X127269203Y-131139470D01*
X127253940Y-131154733D01*
X127223415Y-131169995D01*
X127131839Y-131169995D01*
X127101314Y-131154733D01*
X127086051Y-131139470D01*
X126773640Y-129161478D02*
X126621137Y-129161478D01*
X126621137Y-128841222D01*
X126865142Y-129146227D02*
X126910893Y-129161478D01*
X126987144Y-129161478D01*
X127017645Y-129146227D01*
X127032895Y-129130977D01*
X127048146Y-129100477D01*
X127048146Y-129069976D01*
X127032895Y-129039475D01*
X127017645Y-129024225D01*
X126987144Y-129008975D01*
X126926143Y-128993725D01*
X126895643Y-128978474D01*
X126880392Y-128963224D01*
X126865142Y-128932723D01*
X126865142Y-128902223D01*
X126880392Y-128871722D01*
X126895643Y-128856472D01*
X126926143Y-128841222D01*
X127002395Y-128841222D01*
X127048146Y-128856472D01*
X127185398Y-129161478D02*
X127185398Y-128841222D01*
X127292150Y-129069976D01*
X127398902Y-128841222D01*
X127398902Y-129161478D01*
X127566656Y-129161478D02*
X127627657Y-129161478D01*
X127658157Y-129146227D01*
X127673408Y-129130977D01*
X127703908Y-129085226D01*
X127719159Y-129024225D01*
X127719159Y-128902223D01*
X127703908Y-128871722D01*
X127688658Y-128856472D01*
X127658157Y-128841222D01*
X127597156Y-128841222D01*
X127566656Y-128856472D01*
X127551405Y-128871722D01*
X127536155Y-128902223D01*
X127536155Y-128978474D01*
X127551405Y-129008975D01*
X127566656Y-129024225D01*
X127597156Y-129039475D01*
X127658157Y-129039475D01*
X127688658Y-129024225D01*
X127703908Y-129008975D01*
X127719159Y-128978474D01*
X127856411Y-129161478D02*
X127856411Y-128841222D01*
X127932663Y-128841222D01*
X127978414Y-128856472D01*
X128008914Y-128886973D01*
X128024165Y-128917473D01*
X128039415Y-128978474D01*
X128039415Y-129024225D01*
X128024165Y-129085226D01*
X128008914Y-129115727D01*
X127978414Y-129146227D01*
X127932663Y-129161478D01*
X127856411Y-129161478D01*
X128161417Y-129146227D02*
X128207168Y-129161478D01*
X128283419Y-129161478D01*
X128313920Y-129146227D01*
X128329170Y-129130977D01*
X128344421Y-129100477D01*
X128344421Y-129069976D01*
X128329170Y-129039475D01*
X128313920Y-129024225D01*
X128283419Y-129008975D01*
X128222418Y-128993725D01*
X128191918Y-128978474D01*
X128176667Y-128963224D01*
X128161417Y-128932723D01*
X128161417Y-128902223D01*
X128176667Y-128871722D01*
X128191918Y-128856472D01*
X128222418Y-128841222D01*
X128298670Y-128841222D01*
X128344421Y-128856472D01*
X128649427Y-129161478D02*
X128466423Y-129161478D01*
X128557925Y-129161478D02*
X128557925Y-128841222D01*
X128527424Y-128886973D01*
X128496924Y-128917473D01*
X128466423Y-128932723D01*
X128740929Y-128841222D02*
X128923932Y-128841222D01*
X128832430Y-129161478D02*
X128832430Y-128841222D01*
X129213688Y-129161478D02*
X129106936Y-129008975D01*
X129030684Y-129161478D02*
X129030684Y-128841222D01*
X129152687Y-128841222D01*
X129183187Y-128856472D01*
X129198438Y-128871722D01*
X129213688Y-128902223D01*
X129213688Y-128947974D01*
X129198438Y-128978474D01*
X129183187Y-128993725D01*
X129152687Y-129008975D01*
X129030684Y-129008975D01*
X97674907Y-133191069D02*
X97674907Y-133450535D01*
X97690170Y-133481060D01*
X97705433Y-133496323D01*
X97735958Y-133511585D01*
X97797009Y-133511585D01*
X97827534Y-133496323D01*
X97842797Y-133481060D01*
X97858059Y-133450535D01*
X97858059Y-133191069D01*
X98163313Y-133191069D02*
X98010686Y-133191069D01*
X97995424Y-133343696D01*
X98010686Y-133328433D01*
X98041212Y-133313171D01*
X98117525Y-133313171D01*
X98148050Y-133328433D01*
X98163313Y-133343696D01*
X98178576Y-133374221D01*
X98178576Y-133450535D01*
X98163313Y-133481060D01*
X98148050Y-133496323D01*
X98117525Y-133511585D01*
X98041212Y-133511585D01*
X98010686Y-133496323D01*
X97995424Y-133481060D01*
X96578640Y-129406478D02*
X96426137Y-129406478D01*
X96426137Y-129086222D01*
X96670142Y-129391227D02*
X96715893Y-129406478D01*
X96792144Y-129406478D01*
X96822645Y-129391227D01*
X96837895Y-129375977D01*
X96853146Y-129345477D01*
X96853146Y-129314976D01*
X96837895Y-129284475D01*
X96822645Y-129269225D01*
X96792144Y-129253975D01*
X96731143Y-129238725D01*
X96700643Y-129223474D01*
X96685392Y-129208224D01*
X96670142Y-129177723D01*
X96670142Y-129147223D01*
X96685392Y-129116722D01*
X96700643Y-129101472D01*
X96731143Y-129086222D01*
X96807395Y-129086222D01*
X96853146Y-129101472D01*
X96990398Y-129406478D02*
X96990398Y-129086222D01*
X97097150Y-129314976D01*
X97203902Y-129086222D01*
X97203902Y-129406478D01*
X97371656Y-129406478D02*
X97432657Y-129406478D01*
X97463157Y-129391227D01*
X97478408Y-129375977D01*
X97508908Y-129330226D01*
X97524159Y-129269225D01*
X97524159Y-129147223D01*
X97508908Y-129116722D01*
X97493658Y-129101472D01*
X97463157Y-129086222D01*
X97402156Y-129086222D01*
X97371656Y-129101472D01*
X97356405Y-129116722D01*
X97341155Y-129147223D01*
X97341155Y-129223474D01*
X97356405Y-129253975D01*
X97371656Y-129269225D01*
X97402156Y-129284475D01*
X97463157Y-129284475D01*
X97493658Y-129269225D01*
X97508908Y-129253975D01*
X97524159Y-129223474D01*
X97661411Y-129406478D02*
X97661411Y-129086222D01*
X97737663Y-129086222D01*
X97783414Y-129101472D01*
X97813914Y-129131973D01*
X97829165Y-129162473D01*
X97844415Y-129223474D01*
X97844415Y-129269225D01*
X97829165Y-129330226D01*
X97813914Y-129360727D01*
X97783414Y-129391227D01*
X97737663Y-129406478D01*
X97661411Y-129406478D01*
X97966417Y-129391227D02*
X98012168Y-129406478D01*
X98088419Y-129406478D01*
X98118920Y-129391227D01*
X98134170Y-129375977D01*
X98149421Y-129345477D01*
X98149421Y-129314976D01*
X98134170Y-129284475D01*
X98118920Y-129269225D01*
X98088419Y-129253975D01*
X98027418Y-129238725D01*
X97996918Y-129223474D01*
X97981667Y-129208224D01*
X97966417Y-129177723D01*
X97966417Y-129147223D01*
X97981667Y-129116722D01*
X97996918Y-129101472D01*
X98027418Y-129086222D01*
X98103670Y-129086222D01*
X98149421Y-129101472D01*
X98454427Y-129406478D02*
X98271423Y-129406478D01*
X98362925Y-129406478D02*
X98362925Y-129086222D01*
X98332424Y-129131973D01*
X98301924Y-129162473D01*
X98271423Y-129177723D01*
X98545929Y-129086222D02*
X98728932Y-129086222D01*
X98637430Y-129406478D02*
X98637430Y-129086222D01*
X99018688Y-129406478D02*
X98911936Y-129253975D01*
X98835684Y-129406478D02*
X98835684Y-129086222D01*
X98957687Y-129086222D01*
X98988187Y-129101472D01*
X99003438Y-129116722D01*
X99018688Y-129147223D01*
X99018688Y-129192974D01*
X99003438Y-129223474D01*
X98988187Y-129238725D01*
X98957687Y-129253975D01*
X98835684Y-129253975D01*
X135826910Y-134237560D02*
X136637130Y-134237560D01*
X136732450Y-134189900D01*
X136780110Y-134142240D01*
X136827770Y-134046920D01*
X136827770Y-133856280D01*
X136780110Y-133760960D01*
X136732450Y-133713300D01*
X136637130Y-133665640D01*
X135826910Y-133665640D01*
X136160530Y-132760100D02*
X136827770Y-132760100D01*
X135779250Y-132998400D02*
X136494150Y-133236700D01*
X136494150Y-132617120D01*
X149232336Y-175476154D02*
X149279980Y-175523799D01*
X149327625Y-175666733D01*
X149327625Y-175762023D01*
X149279980Y-175904957D01*
X149184691Y-176000246D01*
X149089401Y-176047891D01*
X148898822Y-176095536D01*
X148755888Y-176095536D01*
X148565309Y-176047891D01*
X148470020Y-176000246D01*
X148374730Y-175904957D01*
X148327085Y-175762023D01*
X148327085Y-175666733D01*
X148374730Y-175523799D01*
X148422375Y-175476154D01*
X148851178Y-174856772D02*
X149327625Y-174856772D01*
X148327085Y-175190285D02*
X148851178Y-174856772D01*
X148327085Y-174523259D01*
X148327085Y-174285035D02*
X149327625Y-174046811D01*
X148612954Y-173856232D01*
X149327625Y-173665653D01*
X148327085Y-173427429D01*
X148422375Y-173093916D02*
X148374730Y-173046271D01*
X148327085Y-172950982D01*
X148327085Y-172712758D01*
X148374730Y-172617468D01*
X148422375Y-172569824D01*
X148517664Y-172522179D01*
X148612954Y-172522179D01*
X148755888Y-172569824D01*
X149327625Y-173141561D01*
X149327625Y-172522179D01*
X148327085Y-171902797D02*
X148327085Y-171807508D01*
X148374730Y-171712218D01*
X148422375Y-171664573D01*
X148517664Y-171616929D01*
X148708243Y-171569284D01*
X148946467Y-171569284D01*
X149137046Y-171616929D01*
X149232336Y-171664573D01*
X149279980Y-171712218D01*
X149327625Y-171807508D01*
X149327625Y-171902797D01*
X149279980Y-171998087D01*
X149232336Y-172045731D01*
X149137046Y-172093376D01*
X148946467Y-172141021D01*
X148708243Y-172141021D01*
X148517664Y-172093376D01*
X148422375Y-172045731D01*
X148374730Y-171998087D01*
X148327085Y-171902797D01*
X148327085Y-171235771D02*
X148327085Y-170568744D01*
X149327625Y-170997547D01*
X149327625Y-169663494D02*
X149327625Y-170235231D01*
X149327625Y-169949362D02*
X148327085Y-169949362D01*
X148470020Y-170044652D01*
X148565309Y-170139941D01*
X148612954Y-170235231D01*
X149327625Y-169187046D02*
X149327625Y-168996467D01*
X149279980Y-168901178D01*
X149232336Y-168853533D01*
X149089401Y-168758244D01*
X148898822Y-168710599D01*
X148517664Y-168710599D01*
X148422375Y-168758244D01*
X148374730Y-168805888D01*
X148327085Y-168901178D01*
X148327085Y-169091757D01*
X148374730Y-169187046D01*
X148422375Y-169234691D01*
X148517664Y-169282336D01*
X148755888Y-169282336D01*
X148851178Y-169234691D01*
X148898822Y-169187046D01*
X148946467Y-169091757D01*
X148946467Y-168901178D01*
X148898822Y-168805888D01*
X148851178Y-168758244D01*
X148755888Y-168710599D01*
X148803533Y-167948283D02*
X148851178Y-167805349D01*
X148898822Y-167757704D01*
X148994112Y-167710059D01*
X149137046Y-167710059D01*
X149232336Y-167757704D01*
X149279980Y-167805349D01*
X149327625Y-167900638D01*
X149327625Y-168281796D01*
X148327085Y-168281796D01*
X148327085Y-167948283D01*
X148374730Y-167852993D01*
X148422375Y-167805349D01*
X148517664Y-167757704D01*
X148612954Y-167757704D01*
X148708243Y-167805349D01*
X148755888Y-167852993D01*
X148803533Y-167948283D01*
X148803533Y-168281796D01*
X149327625Y-166757164D02*
X149327625Y-167328901D01*
X149327625Y-167043032D02*
X148327085Y-167043032D01*
X148470020Y-167138322D01*
X148565309Y-167233611D01*
X148612954Y-167328901D01*
X149327625Y-166328361D02*
X148327085Y-166328361D01*
X149327625Y-165756624D02*
X148755888Y-166185427D01*
X148327085Y-165756624D02*
X148898822Y-166328361D01*
X148327085Y-165327821D02*
X149137046Y-165327821D01*
X149232336Y-165280176D01*
X149279980Y-165232532D01*
X149327625Y-165137242D01*
X149327625Y-164946663D01*
X149279980Y-164851374D01*
X149232336Y-164803729D01*
X149137046Y-164756084D01*
X148327085Y-164756084D01*
X149327625Y-164279636D02*
X148327085Y-164279636D01*
X149041757Y-163946123D01*
X148327085Y-163612610D01*
X149327625Y-163612610D01*
X149327625Y-162659715D02*
X149327625Y-163136162D01*
X148327085Y-163136162D01*
X148374730Y-161802109D02*
X148327085Y-161897398D01*
X148327085Y-162040333D01*
X148374730Y-162183267D01*
X148470020Y-162278556D01*
X148565309Y-162326201D01*
X148755888Y-162373846D01*
X148898822Y-162373846D01*
X149089401Y-162326201D01*
X149184691Y-162278556D01*
X149279980Y-162183267D01*
X149327625Y-162040333D01*
X149327625Y-161945043D01*
X149279980Y-161802109D01*
X149232336Y-161754464D01*
X148898822Y-161754464D01*
X148898822Y-161945043D01*
D12*
X99762381Y-125569523D02*
X100476667Y-125569523D01*
X100619524Y-125617143D01*
X100714762Y-125712381D01*
X100762381Y-125855238D01*
X100762381Y-125950476D01*
X100762381Y-124569523D02*
X100762381Y-125140952D01*
X100762381Y-124855238D02*
X99762381Y-124855238D01*
X99905238Y-124950476D01*
X100000476Y-125045714D01*
X100048095Y-125140952D01*
X99762381Y-123712380D02*
X99762381Y-123902857D01*
X99810000Y-123998095D01*
X99857619Y-124045714D01*
X100000476Y-124140952D01*
X100190952Y-124188571D01*
X100571905Y-124188571D01*
X100667143Y-124140952D01*
X100714762Y-124093333D01*
X100762381Y-123998095D01*
X100762381Y-123807618D01*
X100714762Y-123712380D01*
X100667143Y-123664761D01*
X100571905Y-123617142D01*
X100333810Y-123617142D01*
X100238571Y-123664761D01*
X100190952Y-123712380D01*
X100143333Y-123807618D01*
X100143333Y-123998095D01*
X100190952Y-124093333D01*
X100238571Y-124140952D01*
X100333810Y-124188571D01*
X122187381Y-131583333D02*
X122901667Y-131583333D01*
X123044524Y-131630953D01*
X123139762Y-131726191D01*
X123187381Y-131869048D01*
X123187381Y-131964286D01*
X123187381Y-130583333D02*
X123187381Y-131154762D01*
X123187381Y-130869048D02*
X122187381Y-130869048D01*
X122330238Y-130964286D01*
X122425476Y-131059524D01*
X122473095Y-131154762D01*
D17*
X156904303Y-124555124D02*
X156904303Y-124078543D01*
X157190252Y-124650440D02*
X156189432Y-124316833D01*
X157190252Y-123983226D01*
X156666013Y-123649620D02*
X156666013Y-123316013D01*
X157190252Y-123173039D02*
X157190252Y-123649620D01*
X156189432Y-123649620D01*
X156189432Y-123173039D01*
X157190252Y-122219876D02*
X157190252Y-122791774D01*
X157190252Y-122505825D02*
X156189432Y-122505825D01*
X156332406Y-122601141D01*
X156427722Y-122696457D01*
X156475380Y-122791774D01*
X155985119Y-117058929D02*
X155937500Y-117016072D01*
X155889881Y-116930358D01*
X155889881Y-116716072D01*
X155937500Y-116630358D01*
X155985119Y-116587501D01*
X156080357Y-116544644D01*
X156175595Y-116544644D01*
X156318452Y-116587501D01*
X156889881Y-117101787D01*
X156889881Y-116544644D01*
X156223214Y-115773215D02*
X156889881Y-115773215D01*
X155842262Y-115987501D02*
X156556548Y-116201786D01*
X156556548Y-115644644D01*
X155889881Y-114873215D02*
X155889881Y-115301786D01*
X156366071Y-115344643D01*
X156318452Y-115301786D01*
X156270833Y-115216072D01*
X156270833Y-115001786D01*
X156318452Y-114916072D01*
X156366071Y-114873215D01*
X156461310Y-114830358D01*
X156699405Y-114830358D01*
X156794643Y-114873215D01*
X156842262Y-114916072D01*
X156889881Y-115001786D01*
X156889881Y-115216072D01*
X156842262Y-115301786D01*
X156794643Y-115344643D01*
X155889881Y-114273215D02*
X155889881Y-114187500D01*
X155937500Y-114101786D01*
X155985119Y-114058929D01*
X156080357Y-114016072D01*
X156270833Y-113973215D01*
X156508929Y-113973215D01*
X156699405Y-114016072D01*
X156794643Y-114058929D01*
X156842262Y-114101786D01*
X156889881Y-114187500D01*
X156889881Y-114273215D01*
X156842262Y-114358929D01*
X156794643Y-114401786D01*
X156699405Y-114444643D01*
X156508929Y-114487500D01*
X156270833Y-114487500D01*
X156080357Y-114444643D01*
X155985119Y-114401786D01*
X155937500Y-114358929D01*
X155889881Y-114273215D01*
X156604167Y-113630357D02*
X156604167Y-113201786D01*
X156889881Y-113716072D02*
X155889881Y-113416072D01*
X156889881Y-113116072D01*
X155889881Y-112944643D02*
X155889881Y-112430357D01*
X156889881Y-112687500D02*
X155889881Y-112687500D01*
X156223214Y-111744643D02*
X156889881Y-111744643D01*
X155842262Y-111958929D02*
X156556548Y-112173214D01*
X156556548Y-111616072D01*
X155985119Y-111316071D02*
X155937500Y-111273214D01*
X155889881Y-111187500D01*
X155889881Y-110973214D01*
X155937500Y-110887500D01*
X155985119Y-110844643D01*
X156080357Y-110801786D01*
X156175595Y-110801786D01*
X156318452Y-110844643D01*
X156889881Y-111358929D01*
X156889881Y-110801786D01*
X156366071Y-110116071D02*
X156413690Y-109987500D01*
X156461310Y-109944643D01*
X156556548Y-109901786D01*
X156699405Y-109901786D01*
X156794643Y-109944643D01*
X156842262Y-109987500D01*
X156889881Y-110073214D01*
X156889881Y-110416071D01*
X155889881Y-110416071D01*
X155889881Y-110116071D01*
X155937500Y-110030357D01*
X155985119Y-109987500D01*
X156080357Y-109944643D01*
X156175595Y-109944643D01*
X156270833Y-109987500D01*
X156318452Y-110030357D01*
X156366071Y-110116071D01*
X156366071Y-110416071D01*
X156889881Y-109044643D02*
X156889881Y-109558928D01*
X156889881Y-109301786D02*
X155889881Y-109301786D01*
X156032738Y-109387500D01*
X156127976Y-109473214D01*
X156175595Y-109558928D01*
X155889881Y-108487500D02*
X155889881Y-108401785D01*
X155937500Y-108316071D01*
X155985119Y-108273214D01*
X156080357Y-108230357D01*
X156270833Y-108187500D01*
X156508929Y-108187500D01*
X156699405Y-108230357D01*
X156794643Y-108273214D01*
X156842262Y-108316071D01*
X156889881Y-108401785D01*
X156889881Y-108487500D01*
X156842262Y-108573214D01*
X156794643Y-108616071D01*
X156699405Y-108658928D01*
X156508929Y-108701785D01*
X156270833Y-108701785D01*
X156080357Y-108658928D01*
X155985119Y-108616071D01*
X155937500Y-108573214D01*
X155889881Y-108487500D01*
X155889881Y-107630357D02*
X155889881Y-107544642D01*
X155937500Y-107458928D01*
X155985119Y-107416071D01*
X156080357Y-107373214D01*
X156270833Y-107330357D01*
X156508929Y-107330357D01*
X156699405Y-107373214D01*
X156794643Y-107416071D01*
X156842262Y-107458928D01*
X156889881Y-107544642D01*
X156889881Y-107630357D01*
X156842262Y-107716071D01*
X156794643Y-107758928D01*
X156699405Y-107801785D01*
X156508929Y-107844642D01*
X156270833Y-107844642D01*
X156080357Y-107801785D01*
X155985119Y-107758928D01*
X155937500Y-107716071D01*
X155889881Y-107630357D01*
X156366071Y-106944642D02*
X156366071Y-106644642D01*
X156889881Y-106516071D02*
X156889881Y-106944642D01*
X155889881Y-106944642D01*
X155889881Y-106516071D01*
D12*
X129350834Y-138854643D02*
X129303215Y-138902262D01*
X129160358Y-138949881D01*
X129065120Y-138949881D01*
X128922262Y-138902262D01*
X128827024Y-138807024D01*
X128779405Y-138711786D01*
X128731786Y-138521310D01*
X128731786Y-138378452D01*
X128779405Y-138187976D01*
X128827024Y-138092738D01*
X128922262Y-137997500D01*
X129065120Y-137949881D01*
X129160358Y-137949881D01*
X129303215Y-137997500D01*
X129350834Y-138045119D01*
X130303215Y-138949881D02*
X129731786Y-138949881D01*
X130017500Y-138949881D02*
X130017500Y-137949881D01*
X129922262Y-138092738D01*
X129827024Y-138187976D01*
X129731786Y-138235595D01*
X133400834Y-136539643D02*
X133353215Y-136587262D01*
X133210358Y-136634881D01*
X133115120Y-136634881D01*
X132972262Y-136587262D01*
X132877024Y-136492024D01*
X132829405Y-136396786D01*
X132781786Y-136206310D01*
X132781786Y-136063452D01*
X132829405Y-135872976D01*
X132877024Y-135777738D01*
X132972262Y-135682500D01*
X133115120Y-135634881D01*
X133210358Y-135634881D01*
X133353215Y-135682500D01*
X133400834Y-135730119D01*
X133781786Y-135730119D02*
X133829405Y-135682500D01*
X133924643Y-135634881D01*
X134162739Y-135634881D01*
X134257977Y-135682500D01*
X134305596Y-135730119D01*
X134353215Y-135825357D01*
X134353215Y-135920595D01*
X134305596Y-136063452D01*
X133734167Y-136634881D01*
X134353215Y-136634881D01*
X125858334Y-137332143D02*
X125810715Y-137379762D01*
X125667858Y-137427381D01*
X125572620Y-137427381D01*
X125429762Y-137379762D01*
X125334524Y-137284524D01*
X125286905Y-137189286D01*
X125239286Y-136998810D01*
X125239286Y-136855952D01*
X125286905Y-136665476D01*
X125334524Y-136570238D01*
X125429762Y-136475000D01*
X125572620Y-136427381D01*
X125667858Y-136427381D01*
X125810715Y-136475000D01*
X125858334Y-136522619D01*
X126763096Y-136427381D02*
X126286905Y-136427381D01*
X126239286Y-136903571D01*
X126286905Y-136855952D01*
X126382143Y-136808333D01*
X126620239Y-136808333D01*
X126715477Y-136855952D01*
X126763096Y-136903571D01*
X126810715Y-136998810D01*
X126810715Y-137236905D01*
X126763096Y-137332143D01*
X126715477Y-137379762D01*
X126620239Y-137427381D01*
X126382143Y-137427381D01*
X126286905Y-137379762D01*
X126239286Y-137332143D01*
X125758334Y-127582143D02*
X125710715Y-127629762D01*
X125567858Y-127677381D01*
X125472620Y-127677381D01*
X125329762Y-127629762D01*
X125234524Y-127534524D01*
X125186905Y-127439286D01*
X125139286Y-127248810D01*
X125139286Y-127105952D01*
X125186905Y-126915476D01*
X125234524Y-126820238D01*
X125329762Y-126725000D01*
X125472620Y-126677381D01*
X125567858Y-126677381D01*
X125710715Y-126725000D01*
X125758334Y-126772619D01*
X126615477Y-126677381D02*
X126425000Y-126677381D01*
X126329762Y-126725000D01*
X126282143Y-126772619D01*
X126186905Y-126915476D01*
X126139286Y-127105952D01*
X126139286Y-127486905D01*
X126186905Y-127582143D01*
X126234524Y-127629762D01*
X126329762Y-127677381D01*
X126520239Y-127677381D01*
X126615477Y-127629762D01*
X126663096Y-127582143D01*
X126710715Y-127486905D01*
X126710715Y-127248810D01*
X126663096Y-127153571D01*
X126615477Y-127105952D01*
X126520239Y-127058333D01*
X126329762Y-127058333D01*
X126234524Y-127105952D01*
X126186905Y-127153571D01*
X126139286Y-127248810D01*
X128382143Y-135941666D02*
X128429762Y-135989285D01*
X128477381Y-136132142D01*
X128477381Y-136227380D01*
X128429762Y-136370238D01*
X128334524Y-136465476D01*
X128239286Y-136513095D01*
X128048810Y-136560714D01*
X127905952Y-136560714D01*
X127715476Y-136513095D01*
X127620238Y-136465476D01*
X127525000Y-136370238D01*
X127477381Y-136227380D01*
X127477381Y-136132142D01*
X127525000Y-135989285D01*
X127572619Y-135941666D01*
X127477381Y-135608333D02*
X127477381Y-134941666D01*
X128477381Y-135370238D01*
X129983334Y-125057143D02*
X129935715Y-125104762D01*
X129792858Y-125152381D01*
X129697620Y-125152381D01*
X129554762Y-125104762D01*
X129459524Y-125009524D01*
X129411905Y-124914286D01*
X129364286Y-124723810D01*
X129364286Y-124580952D01*
X129411905Y-124390476D01*
X129459524Y-124295238D01*
X129554762Y-124200000D01*
X129697620Y-124152381D01*
X129792858Y-124152381D01*
X129935715Y-124200000D01*
X129983334Y-124247619D01*
X130554762Y-124580952D02*
X130459524Y-124533333D01*
X130411905Y-124485714D01*
X130364286Y-124390476D01*
X130364286Y-124342857D01*
X130411905Y-124247619D01*
X130459524Y-124200000D01*
X130554762Y-124152381D01*
X130745239Y-124152381D01*
X130840477Y-124200000D01*
X130888096Y-124247619D01*
X130935715Y-124342857D01*
X130935715Y-124390476D01*
X130888096Y-124485714D01*
X130840477Y-124533333D01*
X130745239Y-124580952D01*
X130554762Y-124580952D01*
X130459524Y-124628571D01*
X130411905Y-124676190D01*
X130364286Y-124771429D01*
X130364286Y-124961905D01*
X130411905Y-125057143D01*
X130459524Y-125104762D01*
X130554762Y-125152381D01*
X130745239Y-125152381D01*
X130840477Y-125104762D01*
X130888096Y-125057143D01*
X130935715Y-124961905D01*
X130935715Y-124771429D01*
X130888096Y-124676190D01*
X130840477Y-124628571D01*
X130745239Y-124580952D01*
X129933334Y-128107143D02*
X129885715Y-128154762D01*
X129742858Y-128202381D01*
X129647620Y-128202381D01*
X129504762Y-128154762D01*
X129409524Y-128059524D01*
X129361905Y-127964286D01*
X129314286Y-127773810D01*
X129314286Y-127630952D01*
X129361905Y-127440476D01*
X129409524Y-127345238D01*
X129504762Y-127250000D01*
X129647620Y-127202381D01*
X129742858Y-127202381D01*
X129885715Y-127250000D01*
X129933334Y-127297619D01*
X130409524Y-128202381D02*
X130600000Y-128202381D01*
X130695239Y-128154762D01*
X130742858Y-128107143D01*
X130838096Y-127964286D01*
X130885715Y-127773810D01*
X130885715Y-127392857D01*
X130838096Y-127297619D01*
X130790477Y-127250000D01*
X130695239Y-127202381D01*
X130504762Y-127202381D01*
X130409524Y-127250000D01*
X130361905Y-127297619D01*
X130314286Y-127392857D01*
X130314286Y-127630952D01*
X130361905Y-127726190D01*
X130409524Y-127773810D01*
X130504762Y-127821429D01*
X130695239Y-127821429D01*
X130790477Y-127773810D01*
X130838096Y-127726190D01*
X130885715Y-127630952D01*
X125332143Y-135882143D02*
X125284524Y-135929762D01*
X125141667Y-135977381D01*
X125046429Y-135977381D01*
X124903571Y-135929762D01*
X124808333Y-135834524D01*
X124760714Y-135739286D01*
X124713095Y-135548810D01*
X124713095Y-135405952D01*
X124760714Y-135215476D01*
X124808333Y-135120238D01*
X124903571Y-135025000D01*
X125046429Y-134977381D01*
X125141667Y-134977381D01*
X125284524Y-135025000D01*
X125332143Y-135072619D01*
X126284524Y-135977381D02*
X125713095Y-135977381D01*
X125998809Y-135977381D02*
X125998809Y-134977381D01*
X125903571Y-135120238D01*
X125808333Y-135215476D01*
X125713095Y-135263095D01*
X126903571Y-134977381D02*
X126998810Y-134977381D01*
X127094048Y-135025000D01*
X127141667Y-135072619D01*
X127189286Y-135167857D01*
X127236905Y-135358333D01*
X127236905Y-135596429D01*
X127189286Y-135786905D01*
X127141667Y-135882143D01*
X127094048Y-135929762D01*
X126998810Y-135977381D01*
X126903571Y-135977381D01*
X126808333Y-135929762D01*
X126760714Y-135882143D01*
X126713095Y-135786905D01*
X126665476Y-135596429D01*
X126665476Y-135358333D01*
X126713095Y-135167857D01*
X126760714Y-135072619D01*
X126808333Y-135025000D01*
X126903571Y-134977381D01*
X131032143Y-134567857D02*
X131079762Y-134615476D01*
X131127381Y-134758333D01*
X131127381Y-134853571D01*
X131079762Y-134996429D01*
X130984524Y-135091667D01*
X130889286Y-135139286D01*
X130698810Y-135186905D01*
X130555952Y-135186905D01*
X130365476Y-135139286D01*
X130270238Y-135091667D01*
X130175000Y-134996429D01*
X130127381Y-134853571D01*
X130127381Y-134758333D01*
X130175000Y-134615476D01*
X130222619Y-134567857D01*
X131127381Y-133615476D02*
X131127381Y-134186905D01*
X131127381Y-133901191D02*
X130127381Y-133901191D01*
X130270238Y-133996429D01*
X130365476Y-134091667D01*
X130413095Y-134186905D01*
X131127381Y-132663095D02*
X131127381Y-133234524D01*
X131127381Y-132948810D02*
X130127381Y-132948810D01*
X130270238Y-133044048D01*
X130365476Y-133139286D01*
X130413095Y-133234524D01*
X98567143Y-128402857D02*
X98614762Y-128450476D01*
X98662381Y-128593333D01*
X98662381Y-128688571D01*
X98614762Y-128831429D01*
X98519524Y-128926667D01*
X98424286Y-128974286D01*
X98233810Y-129021905D01*
X98090952Y-129021905D01*
X97900476Y-128974286D01*
X97805238Y-128926667D01*
X97710000Y-128831429D01*
X97662381Y-128688571D01*
X97662381Y-128593333D01*
X97710000Y-128450476D01*
X97757619Y-128402857D01*
X98662381Y-127450476D02*
X98662381Y-128021905D01*
X98662381Y-127736191D02*
X97662381Y-127736191D01*
X97805238Y-127831429D01*
X97900476Y-127926667D01*
X97948095Y-128021905D01*
X97757619Y-127069524D02*
X97710000Y-127021905D01*
X97662381Y-126926667D01*
X97662381Y-126688571D01*
X97710000Y-126593333D01*
X97757619Y-126545714D01*
X97852857Y-126498095D01*
X97948095Y-126498095D01*
X98090952Y-126545714D01*
X98662381Y-127117143D01*
X98662381Y-126498095D01*
X142332143Y-136432143D02*
X142284524Y-136479762D01*
X142141667Y-136527381D01*
X142046429Y-136527381D01*
X141903571Y-136479762D01*
X141808333Y-136384524D01*
X141760714Y-136289286D01*
X141713095Y-136098810D01*
X141713095Y-135955952D01*
X141760714Y-135765476D01*
X141808333Y-135670238D01*
X141903571Y-135575000D01*
X142046429Y-135527381D01*
X142141667Y-135527381D01*
X142284524Y-135575000D01*
X142332143Y-135622619D01*
X143284524Y-136527381D02*
X142713095Y-136527381D01*
X142998809Y-136527381D02*
X142998809Y-135527381D01*
X142903571Y-135670238D01*
X142808333Y-135765476D01*
X142713095Y-135813095D01*
X143617857Y-135527381D02*
X144236905Y-135527381D01*
X143903571Y-135908333D01*
X144046429Y-135908333D01*
X144141667Y-135955952D01*
X144189286Y-136003571D01*
X144236905Y-136098810D01*
X144236905Y-136336905D01*
X144189286Y-136432143D01*
X144141667Y-136479762D01*
X144046429Y-136527381D01*
X143760714Y-136527381D01*
X143665476Y-136479762D01*
X143617857Y-136432143D01*
X135992143Y-131127857D02*
X136039762Y-131175476D01*
X136087381Y-131318333D01*
X136087381Y-131413571D01*
X136039762Y-131556429D01*
X135944524Y-131651667D01*
X135849286Y-131699286D01*
X135658810Y-131746905D01*
X135515952Y-131746905D01*
X135325476Y-131699286D01*
X135230238Y-131651667D01*
X135135000Y-131556429D01*
X135087381Y-131413571D01*
X135087381Y-131318333D01*
X135135000Y-131175476D01*
X135182619Y-131127857D01*
X136087381Y-130175476D02*
X136087381Y-130746905D01*
X136087381Y-130461191D02*
X135087381Y-130461191D01*
X135230238Y-130556429D01*
X135325476Y-130651667D01*
X135373095Y-130746905D01*
X135420714Y-129318333D02*
X136087381Y-129318333D01*
X135039762Y-129556429D02*
X135754048Y-129794524D01*
X135754048Y-129175476D01*
X101107143Y-135402857D02*
X101154762Y-135450476D01*
X101202381Y-135593333D01*
X101202381Y-135688571D01*
X101154762Y-135831429D01*
X101059524Y-135926667D01*
X100964286Y-135974286D01*
X100773810Y-136021905D01*
X100630952Y-136021905D01*
X100440476Y-135974286D01*
X100345238Y-135926667D01*
X100250000Y-135831429D01*
X100202381Y-135688571D01*
X100202381Y-135593333D01*
X100250000Y-135450476D01*
X100297619Y-135402857D01*
X101202381Y-134450476D02*
X101202381Y-135021905D01*
X101202381Y-134736191D02*
X100202381Y-134736191D01*
X100345238Y-134831429D01*
X100440476Y-134926667D01*
X100488095Y-135021905D01*
X100202381Y-133545714D02*
X100202381Y-134021905D01*
X100678571Y-134069524D01*
X100630952Y-134021905D01*
X100583333Y-133926667D01*
X100583333Y-133688571D01*
X100630952Y-133593333D01*
X100678571Y-133545714D01*
X100773810Y-133498095D01*
X101011905Y-133498095D01*
X101107143Y-133545714D01*
X101154762Y-133593333D01*
X101202381Y-133688571D01*
X101202381Y-133926667D01*
X101154762Y-134021905D01*
X101107143Y-134069524D01*
X97567143Y-128402857D02*
X97614762Y-128450476D01*
X97662381Y-128593333D01*
X97662381Y-128688571D01*
X97614762Y-128831429D01*
X97519524Y-128926667D01*
X97424286Y-128974286D01*
X97233810Y-129021905D01*
X97090952Y-129021905D01*
X96900476Y-128974286D01*
X96805238Y-128926667D01*
X96710000Y-128831429D01*
X96662381Y-128688571D01*
X96662381Y-128593333D01*
X96710000Y-128450476D01*
X96757619Y-128402857D01*
X97662381Y-127450476D02*
X97662381Y-128021905D01*
X97662381Y-127736191D02*
X96662381Y-127736191D01*
X96805238Y-127831429D01*
X96900476Y-127926667D01*
X96948095Y-128021905D01*
X96662381Y-126593333D02*
X96662381Y-126783810D01*
X96710000Y-126879048D01*
X96757619Y-126926667D01*
X96900476Y-127021905D01*
X97090952Y-127069524D01*
X97471905Y-127069524D01*
X97567143Y-127021905D01*
X97614762Y-126974286D01*
X97662381Y-126879048D01*
X97662381Y-126688571D01*
X97614762Y-126593333D01*
X97567143Y-126545714D01*
X97471905Y-126498095D01*
X97233810Y-126498095D01*
X97138571Y-126545714D01*
X97090952Y-126593333D01*
X97043333Y-126688571D01*
X97043333Y-126879048D01*
X97090952Y-126974286D01*
X97138571Y-127021905D01*
X97233810Y-127069524D01*
X97107143Y-128402857D02*
X97154762Y-128450476D01*
X97202381Y-128593333D01*
X97202381Y-128688571D01*
X97154762Y-128831429D01*
X97059524Y-128926667D01*
X96964286Y-128974286D01*
X96773810Y-129021905D01*
X96630952Y-129021905D01*
X96440476Y-128974286D01*
X96345238Y-128926667D01*
X96250000Y-128831429D01*
X96202381Y-128688571D01*
X96202381Y-128593333D01*
X96250000Y-128450476D01*
X96297619Y-128402857D01*
X97202381Y-127450476D02*
X97202381Y-128021905D01*
X97202381Y-127736191D02*
X96202381Y-127736191D01*
X96345238Y-127831429D01*
X96440476Y-127926667D01*
X96488095Y-128021905D01*
X96202381Y-127117143D02*
X96202381Y-126450476D01*
X97202381Y-126879048D01*
X100107143Y-135402857D02*
X100154762Y-135450476D01*
X100202381Y-135593333D01*
X100202381Y-135688571D01*
X100154762Y-135831429D01*
X100059524Y-135926667D01*
X99964286Y-135974286D01*
X99773810Y-136021905D01*
X99630952Y-136021905D01*
X99440476Y-135974286D01*
X99345238Y-135926667D01*
X99250000Y-135831429D01*
X99202381Y-135688571D01*
X99202381Y-135593333D01*
X99250000Y-135450476D01*
X99297619Y-135402857D01*
X100202381Y-134450476D02*
X100202381Y-135021905D01*
X100202381Y-134736191D02*
X99202381Y-134736191D01*
X99345238Y-134831429D01*
X99440476Y-134926667D01*
X99488095Y-135021905D01*
X99630952Y-133879048D02*
X99583333Y-133974286D01*
X99535714Y-134021905D01*
X99440476Y-134069524D01*
X99392857Y-134069524D01*
X99297619Y-134021905D01*
X99250000Y-133974286D01*
X99202381Y-133879048D01*
X99202381Y-133688571D01*
X99250000Y-133593333D01*
X99297619Y-133545714D01*
X99392857Y-133498095D01*
X99440476Y-133498095D01*
X99535714Y-133545714D01*
X99583333Y-133593333D01*
X99630952Y-133688571D01*
X99630952Y-133879048D01*
X99678571Y-133974286D01*
X99726190Y-134021905D01*
X99821429Y-134069524D01*
X100011905Y-134069524D01*
X100107143Y-134021905D01*
X100154762Y-133974286D01*
X100202381Y-133879048D01*
X100202381Y-133688571D01*
X100154762Y-133593333D01*
X100107143Y-133545714D01*
X100011905Y-133498095D01*
X99821429Y-133498095D01*
X99726190Y-133545714D01*
X99678571Y-133593333D01*
X99630952Y-133688571D01*
X120727143Y-126222857D02*
X120774762Y-126270476D01*
X120822381Y-126413333D01*
X120822381Y-126508571D01*
X120774762Y-126651429D01*
X120679524Y-126746667D01*
X120584286Y-126794286D01*
X120393810Y-126841905D01*
X120250952Y-126841905D01*
X120060476Y-126794286D01*
X119965238Y-126746667D01*
X119870000Y-126651429D01*
X119822381Y-126508571D01*
X119822381Y-126413333D01*
X119870000Y-126270476D01*
X119917619Y-126222857D01*
X119917619Y-125841905D02*
X119870000Y-125794286D01*
X119822381Y-125699048D01*
X119822381Y-125460952D01*
X119870000Y-125365714D01*
X119917619Y-125318095D01*
X120012857Y-125270476D01*
X120108095Y-125270476D01*
X120250952Y-125318095D01*
X120822381Y-125889524D01*
X120822381Y-125270476D01*
X119822381Y-124937143D02*
X119822381Y-124318095D01*
X120203333Y-124651429D01*
X120203333Y-124508571D01*
X120250952Y-124413333D01*
X120298571Y-124365714D01*
X120393810Y-124318095D01*
X120631905Y-124318095D01*
X120727143Y-124365714D01*
X120774762Y-124413333D01*
X120822381Y-124508571D01*
X120822381Y-124794286D01*
X120774762Y-124889524D01*
X120727143Y-124937143D01*
X126107143Y-123752857D02*
X126154762Y-123800476D01*
X126202381Y-123943333D01*
X126202381Y-124038571D01*
X126154762Y-124181429D01*
X126059524Y-124276667D01*
X125964286Y-124324286D01*
X125773810Y-124371905D01*
X125630952Y-124371905D01*
X125440476Y-124324286D01*
X125345238Y-124276667D01*
X125250000Y-124181429D01*
X125202381Y-124038571D01*
X125202381Y-123943333D01*
X125250000Y-123800476D01*
X125297619Y-123752857D01*
X125297619Y-123371905D02*
X125250000Y-123324286D01*
X125202381Y-123229048D01*
X125202381Y-122990952D01*
X125250000Y-122895714D01*
X125297619Y-122848095D01*
X125392857Y-122800476D01*
X125488095Y-122800476D01*
X125630952Y-122848095D01*
X126202381Y-123419524D01*
X126202381Y-122800476D01*
X125202381Y-121895714D02*
X125202381Y-122371905D01*
X125678571Y-122419524D01*
X125630952Y-122371905D01*
X125583333Y-122276667D01*
X125583333Y-122038571D01*
X125630952Y-121943333D01*
X125678571Y-121895714D01*
X125773810Y-121848095D01*
X126011905Y-121848095D01*
X126107143Y-121895714D01*
X126154762Y-121943333D01*
X126202381Y-122038571D01*
X126202381Y-122276667D01*
X126154762Y-122371905D01*
X126107143Y-122419524D01*
X128327381Y-140063095D02*
X127327381Y-140063095D01*
X127327381Y-139825000D01*
X127375000Y-139682142D01*
X127470238Y-139586904D01*
X127565476Y-139539285D01*
X127755952Y-139491666D01*
X127898810Y-139491666D01*
X128089286Y-139539285D01*
X128184524Y-139586904D01*
X128279762Y-139682142D01*
X128327381Y-139825000D01*
X128327381Y-140063095D01*
X128327381Y-138539285D02*
X128327381Y-139110714D01*
X128327381Y-138825000D02*
X127327381Y-138825000D01*
X127470238Y-138920238D01*
X127565476Y-139015476D01*
X127613095Y-139110714D01*
X123572381Y-113133333D02*
X124286667Y-113133333D01*
X124429524Y-113180953D01*
X124524762Y-113276191D01*
X124572381Y-113419048D01*
X124572381Y-113514286D01*
X123667619Y-112704762D02*
X123620000Y-112657143D01*
X123572381Y-112561905D01*
X123572381Y-112323809D01*
X123620000Y-112228571D01*
X123667619Y-112180952D01*
X123762857Y-112133333D01*
X123858095Y-112133333D01*
X124000952Y-112180952D01*
X124572381Y-112752381D01*
X124572381Y-112133333D01*
X118427381Y-124208333D02*
X119141667Y-124208333D01*
X119284524Y-124255953D01*
X119379762Y-124351191D01*
X119427381Y-124494048D01*
X119427381Y-124589286D01*
X118427381Y-123827381D02*
X118427381Y-123160714D01*
X119427381Y-123589286D01*
X118677381Y-149958333D02*
X119391667Y-149958333D01*
X119534524Y-150005953D01*
X119629762Y-150101191D01*
X119677381Y-150244048D01*
X119677381Y-150339286D01*
X119105952Y-149339286D02*
X119058333Y-149434524D01*
X119010714Y-149482143D01*
X118915476Y-149529762D01*
X118867857Y-149529762D01*
X118772619Y-149482143D01*
X118725000Y-149434524D01*
X118677381Y-149339286D01*
X118677381Y-149148809D01*
X118725000Y-149053571D01*
X118772619Y-149005952D01*
X118867857Y-148958333D01*
X118915476Y-148958333D01*
X119010714Y-149005952D01*
X119058333Y-149053571D01*
X119105952Y-149148809D01*
X119105952Y-149339286D01*
X119153571Y-149434524D01*
X119201190Y-149482143D01*
X119296429Y-149529762D01*
X119486905Y-149529762D01*
X119582143Y-149482143D01*
X119629762Y-149434524D01*
X119677381Y-149339286D01*
X119677381Y-149148809D01*
X119629762Y-149053571D01*
X119582143Y-149005952D01*
X119486905Y-148958333D01*
X119296429Y-148958333D01*
X119201190Y-149005952D01*
X119153571Y-149053571D01*
X119105952Y-149148809D01*
X118377381Y-120358333D02*
X119091667Y-120358333D01*
X119234524Y-120405953D01*
X119329762Y-120501191D01*
X119377381Y-120644048D01*
X119377381Y-120739286D01*
X119377381Y-119834524D02*
X119377381Y-119644048D01*
X119329762Y-119548809D01*
X119282143Y-119501190D01*
X119139286Y-119405952D01*
X118948810Y-119358333D01*
X118567857Y-119358333D01*
X118472619Y-119405952D01*
X118425000Y-119453571D01*
X118377381Y-119548809D01*
X118377381Y-119739286D01*
X118425000Y-119834524D01*
X118472619Y-119882143D01*
X118567857Y-119929762D01*
X118805952Y-119929762D01*
X118901190Y-119882143D01*
X118948810Y-119834524D01*
X118996429Y-119739286D01*
X118996429Y-119548809D01*
X118948810Y-119453571D01*
X118901190Y-119405952D01*
X118805952Y-119358333D01*
X118377381Y-114034523D02*
X119091667Y-114034523D01*
X119234524Y-114082143D01*
X119329762Y-114177381D01*
X119377381Y-114320238D01*
X119377381Y-114415476D01*
X119377381Y-113034523D02*
X119377381Y-113605952D01*
X119377381Y-113320238D02*
X118377381Y-113320238D01*
X118520238Y-113415476D01*
X118615476Y-113510714D01*
X118663095Y-113605952D01*
X118710714Y-112177380D02*
X119377381Y-112177380D01*
X118329762Y-112415476D02*
X119044048Y-112653571D01*
X119044048Y-112034523D01*
X99762381Y-138569523D02*
X100476667Y-138569523D01*
X100619524Y-138617143D01*
X100714762Y-138712381D01*
X100762381Y-138855238D01*
X100762381Y-138950476D01*
X100762381Y-137569523D02*
X100762381Y-138140952D01*
X100762381Y-137855238D02*
X99762381Y-137855238D01*
X99905238Y-137950476D01*
X100000476Y-138045714D01*
X100048095Y-138140952D01*
X99762381Y-136664761D02*
X99762381Y-137140952D01*
X100238571Y-137188571D01*
X100190952Y-137140952D01*
X100143333Y-137045714D01*
X100143333Y-136807618D01*
X100190952Y-136712380D01*
X100238571Y-136664761D01*
X100333810Y-136617142D01*
X100571905Y-136617142D01*
X100667143Y-136664761D01*
X100714762Y-136712380D01*
X100762381Y-136807618D01*
X100762381Y-137045714D01*
X100714762Y-137140952D01*
X100667143Y-137188571D01*
X121670477Y-109922381D02*
X121670477Y-110636667D01*
X121622857Y-110779524D01*
X121527619Y-110874762D01*
X121384762Y-110922381D01*
X121289524Y-110922381D01*
X122670477Y-110922381D02*
X122099048Y-110922381D01*
X122384762Y-110922381D02*
X122384762Y-109922381D01*
X122289524Y-110065238D01*
X122194286Y-110160476D01*
X122099048Y-110208095D01*
X123003810Y-109922381D02*
X123670477Y-109922381D01*
X123241905Y-110922381D01*
X141627381Y-126241666D02*
X141627381Y-126717857D01*
X140627381Y-126717857D01*
X140627381Y-126003571D02*
X140627381Y-125384523D01*
X141008333Y-125717857D01*
X141008333Y-125574999D01*
X141055952Y-125479761D01*
X141103571Y-125432142D01*
X141198810Y-125384523D01*
X141436905Y-125384523D01*
X141532143Y-125432142D01*
X141579762Y-125479761D01*
X141627381Y-125574999D01*
X141627381Y-125860714D01*
X141579762Y-125955952D01*
X141532143Y-126003571D01*
X141277381Y-123691666D02*
X141277381Y-124167857D01*
X140277381Y-124167857D01*
X140610714Y-122929761D02*
X141277381Y-122929761D01*
X140229762Y-123167857D02*
X140944048Y-123405952D01*
X140944048Y-122786904D01*
X130200834Y-143104881D02*
X129867500Y-142628690D01*
X129629405Y-143104881D02*
X129629405Y-142104881D01*
X130010358Y-142104881D01*
X130105596Y-142152500D01*
X130153215Y-142200119D01*
X130200834Y-142295357D01*
X130200834Y-142438214D01*
X130153215Y-142533452D01*
X130105596Y-142581071D01*
X130010358Y-142628690D01*
X129629405Y-142628690D01*
X131153215Y-143104881D02*
X130581786Y-143104881D01*
X130867500Y-143104881D02*
X130867500Y-142104881D01*
X130772262Y-142247738D01*
X130677024Y-142342976D01*
X130581786Y-142390595D01*
X131308334Y-136527381D02*
X130975000Y-136051190D01*
X130736905Y-136527381D02*
X130736905Y-135527381D01*
X131117858Y-135527381D01*
X131213096Y-135575000D01*
X131260715Y-135622619D01*
X131308334Y-135717857D01*
X131308334Y-135860714D01*
X131260715Y-135955952D01*
X131213096Y-136003571D01*
X131117858Y-136051190D01*
X130736905Y-136051190D01*
X131689286Y-135622619D02*
X131736905Y-135575000D01*
X131832143Y-135527381D01*
X132070239Y-135527381D01*
X132165477Y-135575000D01*
X132213096Y-135622619D01*
X132260715Y-135717857D01*
X132260715Y-135813095D01*
X132213096Y-135955952D01*
X131641667Y-136527381D01*
X132260715Y-136527381D01*
X124322381Y-139556666D02*
X123846190Y-139890000D01*
X124322381Y-140128095D02*
X123322381Y-140128095D01*
X123322381Y-139747142D01*
X123370000Y-139651904D01*
X123417619Y-139604285D01*
X123512857Y-139556666D01*
X123655714Y-139556666D01*
X123750952Y-139604285D01*
X123798571Y-139651904D01*
X123846190Y-139747142D01*
X123846190Y-140128095D01*
X123322381Y-139223333D02*
X123322381Y-138604285D01*
X123703333Y-138937619D01*
X123703333Y-138794761D01*
X123750952Y-138699523D01*
X123798571Y-138651904D01*
X123893810Y-138604285D01*
X124131905Y-138604285D01*
X124227143Y-138651904D01*
X124274762Y-138699523D01*
X124322381Y-138794761D01*
X124322381Y-139080476D01*
X124274762Y-139175714D01*
X124227143Y-139223333D01*
X131302381Y-126366666D02*
X130826190Y-126700000D01*
X131302381Y-126938095D02*
X130302381Y-126938095D01*
X130302381Y-126557142D01*
X130350000Y-126461904D01*
X130397619Y-126414285D01*
X130492857Y-126366666D01*
X130635714Y-126366666D01*
X130730952Y-126414285D01*
X130778571Y-126461904D01*
X130826190Y-126557142D01*
X130826190Y-126938095D01*
X130635714Y-125509523D02*
X131302381Y-125509523D01*
X130254762Y-125747619D02*
X130969048Y-125985714D01*
X130969048Y-125366666D01*
X131958334Y-131627381D02*
X131625000Y-131151190D01*
X131386905Y-131627381D02*
X131386905Y-130627381D01*
X131767858Y-130627381D01*
X131863096Y-130675000D01*
X131910715Y-130722619D01*
X131958334Y-130817857D01*
X131958334Y-130960714D01*
X131910715Y-131055952D01*
X131863096Y-131103571D01*
X131767858Y-131151190D01*
X131386905Y-131151190D01*
X132863096Y-130627381D02*
X132386905Y-130627381D01*
X132339286Y-131103571D01*
X132386905Y-131055952D01*
X132482143Y-131008333D01*
X132720239Y-131008333D01*
X132815477Y-131055952D01*
X132863096Y-131103571D01*
X132910715Y-131198810D01*
X132910715Y-131436905D01*
X132863096Y-131532143D01*
X132815477Y-131579762D01*
X132720239Y-131627381D01*
X132482143Y-131627381D01*
X132386905Y-131579762D01*
X132339286Y-131532143D01*
X130208334Y-129777381D02*
X129875000Y-129301190D01*
X129636905Y-129777381D02*
X129636905Y-128777381D01*
X130017858Y-128777381D01*
X130113096Y-128825000D01*
X130160715Y-128872619D01*
X130208334Y-128967857D01*
X130208334Y-129110714D01*
X130160715Y-129205952D01*
X130113096Y-129253571D01*
X130017858Y-129301190D01*
X129636905Y-129301190D01*
X131065477Y-128777381D02*
X130875000Y-128777381D01*
X130779762Y-128825000D01*
X130732143Y-128872619D01*
X130636905Y-129015476D01*
X130589286Y-129205952D01*
X130589286Y-129586905D01*
X130636905Y-129682143D01*
X130684524Y-129729762D01*
X130779762Y-129777381D01*
X130970239Y-129777381D01*
X131065477Y-129729762D01*
X131113096Y-129682143D01*
X131160715Y-129586905D01*
X131160715Y-129348810D01*
X131113096Y-129253571D01*
X131065477Y-129205952D01*
X130970239Y-129158333D01*
X130779762Y-129158333D01*
X130684524Y-129205952D01*
X130636905Y-129253571D01*
X130589286Y-129348810D01*
X94702381Y-136692857D02*
X94226190Y-137026191D01*
X94702381Y-137264286D02*
X93702381Y-137264286D01*
X93702381Y-136883333D01*
X93750000Y-136788095D01*
X93797619Y-136740476D01*
X93892857Y-136692857D01*
X94035714Y-136692857D01*
X94130952Y-136740476D01*
X94178571Y-136788095D01*
X94226190Y-136883333D01*
X94226190Y-137264286D01*
X94702381Y-135740476D02*
X94702381Y-136311905D01*
X94702381Y-136026191D02*
X93702381Y-136026191D01*
X93845238Y-136121429D01*
X93940476Y-136216667D01*
X93988095Y-136311905D01*
X93797619Y-135359524D02*
X93750000Y-135311905D01*
X93702381Y-135216667D01*
X93702381Y-134978571D01*
X93750000Y-134883333D01*
X93797619Y-134835714D01*
X93892857Y-134788095D01*
X93988095Y-134788095D01*
X94130952Y-134835714D01*
X94702381Y-135407143D01*
X94702381Y-134788095D01*
X96482381Y-128502857D02*
X96006190Y-128836191D01*
X96482381Y-129074286D02*
X95482381Y-129074286D01*
X95482381Y-128693333D01*
X95530000Y-128598095D01*
X95577619Y-128550476D01*
X95672857Y-128502857D01*
X95815714Y-128502857D01*
X95910952Y-128550476D01*
X95958571Y-128598095D01*
X96006190Y-128693333D01*
X96006190Y-129074286D01*
X96482381Y-127550476D02*
X96482381Y-128121905D01*
X96482381Y-127836191D02*
X95482381Y-127836191D01*
X95625238Y-127931429D01*
X95720476Y-128026667D01*
X95768095Y-128121905D01*
X95482381Y-127217143D02*
X95482381Y-126598095D01*
X95863333Y-126931429D01*
X95863333Y-126788571D01*
X95910952Y-126693333D01*
X95958571Y-126645714D01*
X96053810Y-126598095D01*
X96291905Y-126598095D01*
X96387143Y-126645714D01*
X96434762Y-126693333D01*
X96482381Y-126788571D01*
X96482381Y-127074286D01*
X96434762Y-127169524D01*
X96387143Y-127217143D01*
X144429762Y-141458333D02*
X144477381Y-141315476D01*
X144477381Y-141077380D01*
X144429762Y-140982142D01*
X144382143Y-140934523D01*
X144286905Y-140886904D01*
X144191667Y-140886904D01*
X144096429Y-140934523D01*
X144048810Y-140982142D01*
X144001190Y-141077380D01*
X143953571Y-141267857D01*
X143905952Y-141363095D01*
X143858333Y-141410714D01*
X143763095Y-141458333D01*
X143667857Y-141458333D01*
X143572619Y-141410714D01*
X143525000Y-141363095D01*
X143477381Y-141267857D01*
X143477381Y-141029761D01*
X143525000Y-140886904D01*
X143477381Y-140553571D02*
X144477381Y-140315476D01*
X143763095Y-140124999D01*
X144477381Y-139934523D01*
X143477381Y-139696428D01*
X144477381Y-138791666D02*
X144477381Y-139363095D01*
X144477381Y-139077381D02*
X143477381Y-139077381D01*
X143620238Y-139172619D01*
X143715476Y-139267857D01*
X143763095Y-139363095D01*
D17*
X134874813Y-154076428D02*
X134874813Y-155404752D01*
X134952950Y-155561025D01*
X135031087Y-155639162D01*
X135187360Y-155717298D01*
X135499907Y-155717298D01*
X135656180Y-155639162D01*
X135734317Y-155561025D01*
X135812453Y-155404752D01*
X135812453Y-154076428D01*
X137453324Y-155717298D02*
X136515684Y-155717298D01*
X136984504Y-155717298D02*
X136984504Y-154076428D01*
X136828230Y-154310838D01*
X136671957Y-154467112D01*
X136515684Y-154545248D01*
X128038833Y-168017927D02*
X128038833Y-166375667D01*
X128586253Y-167548710D01*
X129133673Y-166375667D01*
X129133673Y-168017927D01*
X130854137Y-167861521D02*
X130775934Y-167939724D01*
X130541325Y-168017927D01*
X130384919Y-168017927D01*
X130150311Y-167939724D01*
X129993905Y-167783319D01*
X129915702Y-167626913D01*
X129837499Y-167314101D01*
X129837499Y-167079493D01*
X129915702Y-166766681D01*
X129993905Y-166610276D01*
X130150311Y-166453870D01*
X130384919Y-166375667D01*
X130541325Y-166375667D01*
X130775934Y-166453870D01*
X130854137Y-166532073D01*
X131557962Y-168017927D02*
X131557962Y-166375667D01*
X132183585Y-166375667D01*
X132339991Y-166453870D01*
X132418194Y-166532073D01*
X132496397Y-166688479D01*
X132496397Y-166923087D01*
X132418194Y-167079493D01*
X132339991Y-167157696D01*
X132183585Y-167235899D01*
X131557962Y-167235899D01*
X133043817Y-166375667D02*
X134138657Y-166375667D01*
X133434831Y-168017927D01*
X134607874Y-166375667D02*
X135624511Y-166375667D01*
X135077091Y-167001290D01*
X135311699Y-167001290D01*
X135468105Y-167079493D01*
X135546308Y-167157696D01*
X135624511Y-167314101D01*
X135624511Y-167705116D01*
X135546308Y-167861521D01*
X135468105Y-167939724D01*
X135311699Y-168017927D01*
X134842482Y-168017927D01*
X134686076Y-167939724D01*
X134607874Y-167861521D01*
X136562945Y-167079493D02*
X136406539Y-167001290D01*
X136328336Y-166923087D01*
X136250133Y-166766681D01*
X136250133Y-166688479D01*
X136328336Y-166532073D01*
X136406539Y-166453870D01*
X136562945Y-166375667D01*
X136875756Y-166375667D01*
X137032162Y-166453870D01*
X137110365Y-166532073D01*
X137188568Y-166688479D01*
X137188568Y-166766681D01*
X137110365Y-166923087D01*
X137032162Y-167001290D01*
X136875756Y-167079493D01*
X136562945Y-167079493D01*
X136406539Y-167157696D01*
X136328336Y-167235899D01*
X136250133Y-167392304D01*
X136250133Y-167705116D01*
X136328336Y-167861521D01*
X136406539Y-167939724D01*
X136562945Y-168017927D01*
X136875756Y-168017927D01*
X137032162Y-167939724D01*
X137110365Y-167861521D01*
X137188568Y-167705116D01*
X137188568Y-167392304D01*
X137110365Y-167235899D01*
X137032162Y-167157696D01*
X136875756Y-167079493D01*
X137735988Y-166375667D02*
X138752625Y-166375667D01*
X138205205Y-167001290D01*
X138439813Y-167001290D01*
X138596219Y-167079493D01*
X138674422Y-167157696D01*
X138752625Y-167314101D01*
X138752625Y-167705116D01*
X138674422Y-167861521D01*
X138596219Y-167939724D01*
X138439813Y-168017927D01*
X137970596Y-168017927D01*
X137814190Y-167939724D01*
X137735988Y-167861521D01*
X140316682Y-168017927D02*
X139378247Y-168017927D01*
X139847465Y-168017927D02*
X139847465Y-166375667D01*
X139691059Y-166610276D01*
X139534653Y-166766681D01*
X139378247Y-166844884D01*
X140785899Y-166375667D02*
X141724333Y-166375667D01*
X141255116Y-168017927D02*
X141255116Y-166375667D01*
X142271753Y-167392304D02*
X143522999Y-167392304D01*
X144226824Y-166532073D02*
X144305027Y-166453870D01*
X144461433Y-166375667D01*
X144852447Y-166375667D01*
X145008853Y-166453870D01*
X145087056Y-166532073D01*
X145165259Y-166688479D01*
X145165259Y-166844884D01*
X145087056Y-167079493D01*
X144148622Y-168017927D01*
X145165259Y-168017927D01*
X145790881Y-167548710D02*
X146572910Y-167548710D01*
X145634476Y-168017927D02*
X146181896Y-166375667D01*
X146729316Y-168017927D01*
X148215170Y-167861521D02*
X148136967Y-167939724D01*
X147902358Y-168017927D01*
X147745952Y-168017927D01*
X147511344Y-167939724D01*
X147354938Y-167783319D01*
X147276735Y-167626913D01*
X147198532Y-167314101D01*
X147198532Y-167079493D01*
X147276735Y-166766681D01*
X147354938Y-166610276D01*
X147511344Y-166453870D01*
X147745952Y-166375667D01*
X147902358Y-166375667D01*
X148136967Y-166453870D01*
X148215170Y-166532073D01*
X148918995Y-168017927D02*
X148918995Y-166375667D01*
X150874067Y-166297464D02*
X149466416Y-168408941D01*
X151734299Y-166375667D02*
X152047110Y-166375667D01*
X152203516Y-166453870D01*
X152359922Y-166610276D01*
X152438124Y-166923087D01*
X152438124Y-167470507D01*
X152359922Y-167783319D01*
X152203516Y-167939724D01*
X152047110Y-168017927D01*
X151734299Y-168017927D01*
X151577893Y-167939724D01*
X151421487Y-167783319D01*
X151343284Y-167470507D01*
X151343284Y-166923087D01*
X151421487Y-166610276D01*
X151577893Y-166453870D01*
X151734299Y-166375667D01*
X152907342Y-166375667D02*
X153845776Y-166375667D01*
X153376559Y-168017927D02*
X153376559Y-166375667D01*
D12*
X146237143Y-121842857D02*
X146284762Y-121890476D01*
X146332381Y-122033333D01*
X146332381Y-122128571D01*
X146284762Y-122271429D01*
X146189524Y-122366667D01*
X146094286Y-122414286D01*
X145903810Y-122461905D01*
X145760952Y-122461905D01*
X145570476Y-122414286D01*
X145475238Y-122366667D01*
X145380000Y-122271429D01*
X145332381Y-122128571D01*
X145332381Y-122033333D01*
X145380000Y-121890476D01*
X145427619Y-121842857D01*
X146332381Y-120890476D02*
X146332381Y-121461905D01*
X146332381Y-121176191D02*
X145332381Y-121176191D01*
X145475238Y-121271429D01*
X145570476Y-121366667D01*
X145618095Y-121461905D01*
X146332381Y-120414286D02*
X146332381Y-120223810D01*
X146284762Y-120128571D01*
X146237143Y-120080952D01*
X146094286Y-119985714D01*
X145903810Y-119938095D01*
X145522857Y-119938095D01*
X145427619Y-119985714D01*
X145380000Y-120033333D01*
X145332381Y-120128571D01*
X145332381Y-120319048D01*
X145380000Y-120414286D01*
X145427619Y-120461905D01*
X145522857Y-120509524D01*
X145760952Y-120509524D01*
X145856190Y-120461905D01*
X145903810Y-120414286D01*
X145951429Y-120319048D01*
X145951429Y-120128571D01*
X145903810Y-120033333D01*
X145856190Y-119985714D01*
X145760952Y-119938095D01*
X145807143Y-122037143D02*
X145759524Y-122084762D01*
X145616667Y-122132381D01*
X145521429Y-122132381D01*
X145378571Y-122084762D01*
X145283333Y-121989524D01*
X145235714Y-121894286D01*
X145188095Y-121703810D01*
X145188095Y-121560952D01*
X145235714Y-121370476D01*
X145283333Y-121275238D01*
X145378571Y-121180000D01*
X145521429Y-121132381D01*
X145616667Y-121132381D01*
X145759524Y-121180000D01*
X145807143Y-121227619D01*
X146188095Y-121227619D02*
X146235714Y-121180000D01*
X146330952Y-121132381D01*
X146569048Y-121132381D01*
X146664286Y-121180000D01*
X146711905Y-121227619D01*
X146759524Y-121322857D01*
X146759524Y-121418095D01*
X146711905Y-121560952D01*
X146140476Y-122132381D01*
X146759524Y-122132381D01*
X147378571Y-121132381D02*
X147473810Y-121132381D01*
X147569048Y-121180000D01*
X147616667Y-121227619D01*
X147664286Y-121322857D01*
X147711905Y-121513333D01*
X147711905Y-121751429D01*
X147664286Y-121941905D01*
X147616667Y-122037143D01*
X147569048Y-122084762D01*
X147473810Y-122132381D01*
X147378571Y-122132381D01*
X147283333Y-122084762D01*
X147235714Y-122037143D01*
X147188095Y-121941905D01*
X147140476Y-121751429D01*
X147140476Y-121513333D01*
X147188095Y-121322857D01*
X147235714Y-121227619D01*
X147283333Y-121180000D01*
X147378571Y-121132381D01*
X124276190Y-123726191D02*
X124752381Y-123726191D01*
X123752381Y-124059524D02*
X124276190Y-123726191D01*
X123752381Y-123392857D01*
X123752381Y-123154762D02*
X123752381Y-122535714D01*
X124133333Y-122869048D01*
X124133333Y-122726190D01*
X124180952Y-122630952D01*
X124228571Y-122583333D01*
X124323810Y-122535714D01*
X124561905Y-122535714D01*
X124657143Y-122583333D01*
X124704762Y-122630952D01*
X124752381Y-122726190D01*
X124752381Y-123011905D01*
X124704762Y-123107143D01*
X124657143Y-123154762D01*
X136576190Y-126676191D02*
X137052381Y-126676191D01*
X136052381Y-127009524D02*
X136576190Y-126676191D01*
X136052381Y-126342857D01*
X137052381Y-125485714D02*
X137052381Y-126057143D01*
X137052381Y-125771429D02*
X136052381Y-125771429D01*
X136195238Y-125866667D01*
X136290476Y-125961905D01*
X136338095Y-126057143D01*
X129466667Y-114904762D02*
X129609524Y-114952381D01*
X129847620Y-114952381D01*
X129942858Y-114904762D01*
X129990477Y-114857143D01*
X130038096Y-114761905D01*
X130038096Y-114666667D01*
X129990477Y-114571429D01*
X129942858Y-114523810D01*
X129847620Y-114476190D01*
X129657143Y-114428571D01*
X129561905Y-114380952D01*
X129514286Y-114333333D01*
X129466667Y-114238095D01*
X129466667Y-114142857D01*
X129514286Y-114047619D01*
X129561905Y-114000000D01*
X129657143Y-113952381D01*
X129895239Y-113952381D01*
X130038096Y-114000000D01*
X130371429Y-113952381D02*
X130609524Y-114952381D01*
X130800001Y-114238095D01*
X130990477Y-114952381D01*
X131228572Y-113952381D01*
X131514286Y-113952381D02*
X132133334Y-113952381D01*
X131800000Y-114333333D01*
X131942858Y-114333333D01*
X132038096Y-114380952D01*
X132085715Y-114428571D01*
X132133334Y-114523810D01*
X132133334Y-114761905D01*
X132085715Y-114857143D01*
X132038096Y-114904762D01*
X131942858Y-114952381D01*
X131657143Y-114952381D01*
X131561905Y-114904762D01*
X131514286Y-114857143D01*
X145266667Y-144122381D02*
X145266667Y-144836667D01*
X145219047Y-144979524D01*
X145123809Y-145074762D01*
X144980952Y-145122381D01*
X144885714Y-145122381D01*
X146171429Y-144455714D02*
X146171429Y-145122381D01*
X145933333Y-144074762D02*
X145695238Y-144789048D01*
X146314286Y-144789048D01*
X139016667Y-143922381D02*
X139016667Y-144636667D01*
X138969047Y-144779524D01*
X138873809Y-144874762D01*
X138730952Y-144922381D01*
X138635714Y-144922381D01*
X139969048Y-143922381D02*
X139492857Y-143922381D01*
X139445238Y-144398571D01*
X139492857Y-144350952D01*
X139588095Y-144303333D01*
X139826191Y-144303333D01*
X139921429Y-144350952D01*
X139969048Y-144398571D01*
X140016667Y-144493810D01*
X140016667Y-144731905D01*
X139969048Y-144827143D01*
X139921429Y-144874762D01*
X139826191Y-144922381D01*
X139588095Y-144922381D01*
X139492857Y-144874762D01*
X139445238Y-144827143D01*
X132566667Y-144122381D02*
X132566667Y-144836667D01*
X132519047Y-144979524D01*
X132423809Y-145074762D01*
X132280952Y-145122381D01*
X132185714Y-145122381D01*
X133471429Y-144122381D02*
X133280952Y-144122381D01*
X133185714Y-144170000D01*
X133138095Y-144217619D01*
X133042857Y-144360476D01*
X132995238Y-144550952D01*
X132995238Y-144931905D01*
X133042857Y-145027143D01*
X133090476Y-145074762D01*
X133185714Y-145122381D01*
X133376191Y-145122381D01*
X133471429Y-145074762D01*
X133519048Y-145027143D01*
X133566667Y-144931905D01*
X133566667Y-144693810D01*
X133519048Y-144598571D01*
X133471429Y-144550952D01*
X133376191Y-144503333D01*
X133185714Y-144503333D01*
X133090476Y-144550952D01*
X133042857Y-144598571D01*
X132995238Y-144693810D01*
X115666667Y-139254762D02*
X115809524Y-139302381D01*
X116047620Y-139302381D01*
X116142858Y-139254762D01*
X116190477Y-139207143D01*
X116238096Y-139111905D01*
X116238096Y-139016667D01*
X116190477Y-138921429D01*
X116142858Y-138873810D01*
X116047620Y-138826190D01*
X115857143Y-138778571D01*
X115761905Y-138730952D01*
X115714286Y-138683333D01*
X115666667Y-138588095D01*
X115666667Y-138492857D01*
X115714286Y-138397619D01*
X115761905Y-138350000D01*
X115857143Y-138302381D01*
X116095239Y-138302381D01*
X116238096Y-138350000D01*
X116571429Y-138302381D02*
X116809524Y-139302381D01*
X117000001Y-138588095D01*
X117190477Y-139302381D01*
X117428572Y-138302381D01*
X117761905Y-138397619D02*
X117809524Y-138350000D01*
X117904762Y-138302381D01*
X118142858Y-138302381D01*
X118238096Y-138350000D01*
X118285715Y-138397619D01*
X118333334Y-138492857D01*
X118333334Y-138588095D01*
X118285715Y-138730952D01*
X117714286Y-139302381D01*
X118333334Y-139302381D01*
X126116667Y-147978571D02*
X125783333Y-147978571D01*
X125783333Y-148502381D02*
X125783333Y-147502381D01*
X126259524Y-147502381D01*
X127164286Y-148502381D02*
X126592857Y-148502381D01*
X126878571Y-148502381D02*
X126878571Y-147502381D01*
X126783333Y-147645238D01*
X126688095Y-147740476D01*
X126592857Y-147788095D01*
X126211905Y-146702381D02*
X126211905Y-145702381D01*
X126450000Y-145702381D01*
X126592858Y-145750000D01*
X126688096Y-145845238D01*
X126735715Y-145940476D01*
X126783334Y-146130952D01*
X126783334Y-146273810D01*
X126735715Y-146464286D01*
X126688096Y-146559524D01*
X126592858Y-146654762D01*
X126450000Y-146702381D01*
X126211905Y-146702381D01*
X127164286Y-145797619D02*
X127211905Y-145750000D01*
X127307143Y-145702381D01*
X127545239Y-145702381D01*
X127640477Y-145750000D01*
X127688096Y-145797619D01*
X127735715Y-145892857D01*
X127735715Y-145988095D01*
X127688096Y-146130952D01*
X127116667Y-146702381D01*
X127735715Y-146702381D01*
X123757143Y-146552381D02*
X123423809Y-146076190D01*
X123185714Y-146552381D02*
X123185714Y-145552381D01*
X123566667Y-145552381D01*
X123661905Y-145600000D01*
X123709524Y-145647619D01*
X123757143Y-145742857D01*
X123757143Y-145885714D01*
X123709524Y-145980952D01*
X123661905Y-146028571D01*
X123566667Y-146076190D01*
X123185714Y-146076190D01*
X124709524Y-146552381D02*
X124138095Y-146552381D01*
X124423809Y-146552381D02*
X124423809Y-145552381D01*
X124328571Y-145695238D01*
X124233333Y-145790476D01*
X124138095Y-145838095D01*
X125042857Y-145552381D02*
X125709524Y-145552381D01*
X125280952Y-146552381D01*
M02*
