M48
;DRILL file {KiCad 4.0.7} date 04/11/19 13:09:27
;FORMAT={-:-/ absolute / inch / decimal}
FMAT,2
INCH,TZ
T1C0.008
T2C0.012
T3C0.016
T4C0.020
T5C0.039
T6C0.043
T7C0.026
T8C0.035
%
G90
G05
M72
T1
X3.7126Y-5.2815
X3.7598Y-5.2677
X3.7933Y-5.065
X3.7992Y-5.2913
X3.8425Y-5.2717
X3.8858Y-4.9724
X3.8957Y-5.2421
X3.9055Y-5.1102
X3.9173Y-4.9232
X3.9232Y-5.1693
X3.9409Y-5.2421
X3.9429Y-5.1496
X3.9547Y-5.0079
X4.0039Y-5.25
X4.124Y-5.311
X4.5787Y-5.1811
X4.622Y-5.1772
X4.6831Y-5.3642
X4.7303Y-5.378
X4.7598Y-4.9803
X4.8189Y-5.1398
X4.8209Y-5.5709
X4.8228Y-5.1811
X4.8287Y-5.0846
X4.8504Y-4.748
X4.8583Y-5.124
X4.8583Y-5.4724
X4.9291Y-5.4272
X4.9488Y-4.9685
X4.9803Y-5.7717
X5.0768Y-5.7008
X5.0787Y-5.6417
X5.1457Y-5.6496
X5.2323Y-5.2087
X5.2539Y-5.1909
X5.2835Y-4.8406
X5.2953Y-4.9724
X5.315Y-5.0709
X5.3287Y-5.2638
X5.3386Y-4.8563
X5.3504Y-5.3169
X5.3642Y-5.2598
X5.4075Y-4.4921
X5.4154Y-4.8287
X5.4154Y-4.8563
X5.435Y-4.5945
X5.4606Y-4.5453
X5.4606Y-5.3484
X5.502Y-5.3209
X5.5039Y-4.5276
X5.5315Y-5.3268
X5.5748Y-5.311
X5.5768Y-5.6319
T2
X4.4577Y-5.1545
X5.56Y-4.4262
X5.56Y-4.4656
X5.56Y-4.5049
X5.56Y-4.5443
X5.5994Y-4.4065
X5.5994Y-4.4459
X5.5994Y-4.4852
X5.5994Y-4.5246
X5.5994Y-4.564
X5.5994Y-4.6033
X5.5994Y-4.6427
X5.5994Y-4.6821
X5.6388Y-4.4262
X5.6388Y-4.4656
X5.6388Y-4.5049
X5.6388Y-4.5443
X5.6388Y-4.5837
X5.6388Y-4.623
X5.6388Y-4.6624
X5.6388Y-4.7018
X5.6388Y-4.7411
X5.6407Y-4.7805
X5.6585Y-4.8396
X5.6781Y-4.7608
X5.6781Y-4.8002
X5.6781Y-4.8789
X5.688Y-5.0659
X5.6978Y-4.8396
X5.7175Y-4.7608
X5.7175Y-4.8002
X5.7175Y-4.8789
X5.7234Y-5.127
X5.7372Y-5.0128
X5.749Y-5.1014
X5.7569Y-4.7608
X5.7569Y-4.8002
X5.7608Y-4.8848
X5.7608Y-4.9203
X5.7608Y-4.9557
X5.7608Y-4.9911
X5.8002Y-5.0502
X5.8061Y-5.0856
X5.8159Y-5.7844
X5.8238Y-5.0207
X5.8278Y-4.8337
X5.8278Y-4.8711
X5.8278Y-4.9085
X5.8278Y-4.9459
X5.8278Y-4.9813
X5.8297Y-5.1152
X5.8337Y-5.0581
X5.8356Y-4.7943
X5.8376Y-4.7589
T3
X4.0264Y-5.0575
X4.0264Y-5.1205
X4.0264Y-5.152
X4.0264Y-5.1835
X4.0264Y-5.215
X4.0264Y-5.278
X4.0539Y-5.0732
X4.0539Y-5.1047
X4.0539Y-5.1362
X4.0539Y-5.1992
X4.0539Y-5.2307
X4.0539Y-5.2622
X4.5679Y-4.5943
X4.6896Y-4.61
X4.7002Y-5.0728
X4.7002Y-5.1043
X4.7002Y-5.1358
X4.7002Y-5.1988
X4.7002Y-5.2303
X4.7002Y-5.2618
X4.7278Y-5.0571
X4.7278Y-5.1201
X4.7278Y-5.1516
X4.7278Y-5.1831
X4.7278Y-5.2146
X4.7278Y-5.2776
X4.9281Y-5.2656
X5.0089Y-5.0596
X5.0167Y-5.288
X5.0533Y-5.4033
X5.0746Y-5.3494
X5.0888Y-5.562
X5.0906Y-5.1161
X5.1144Y-5.3219
X5.1175Y-5.2207
X5.1368Y-5.2447
X5.1715Y-5.3246
X5.1896Y-5.2069
X5.2191Y-5.3081
X5.2203Y-5.2612
X5.2715Y-5.1593
X5.29Y-5.0967
X5.2939Y-5.4628
X5.3281Y-5.4911
X5.3341Y-5.1541
X5.3876Y-5.5132
X5.4921Y-5.3465
X5.4959Y-5.5142
X5.5197Y-4.7264
X5.5295Y-4.9744
X5.5557Y-5.0348
X5.5683Y-5.3817
X5.586Y-5.0404
X5.5896Y-4.876
X5.5915Y-4.7372
X5.5963Y-5.5002
X5.6142Y-5.0915
X5.6211Y-4.8947
X5.624Y-5.6594
X5.626Y-5.2874
X5.6368Y-5.0376
X5.6486Y-4.9508
X5.6537Y-5.3506
X5.6565Y-5.1969
X5.6604Y-5.2697
X5.6683Y-5.0354
X5.7333Y-5.187
X5.7624Y-5.1585
X5.7667Y-5.2431
X5.8301Y-5.2986
T5
X3.7575Y-4.9118
X3.7575Y-5.4236
X3.8575Y-4.9118
X3.8575Y-5.4236
X4.5045Y-4.8742
X4.5053Y-4.727
X4.5061Y-4.4585
X4.51Y-5.8833
X4.6045Y-4.8742
X4.6053Y-4.727
X4.6061Y-4.4585
X4.61Y-5.8833
X4.8228Y-4.4433
X4.8228Y-4.5433
X4.9783Y-4.4409
X5.0783Y-4.4409
X5.1783Y-4.4409
X5.2323Y-5.7874
X5.2323Y-5.8874
X5.2783Y-4.4409
X5.3783Y-4.4409
X5.4783Y-4.4409
X5.4862Y-5.7795
X5.4862Y-5.8795
X5.7323Y-5.7874
X5.7323Y-5.8874
T6
X4.4783Y-5.5453
X4.4783Y-5.7224
X4.7343Y-5.5453
X4.7343Y-5.7224
X5.0217Y-4.5866
X5.0217Y-4.7638
X5.2776Y-4.5866
X5.2776Y-4.7638
T7
X4.0008Y-5.3094
X4.7533Y-5.0256
T8
X5.8093Y-5.4577
X5.8093Y-5.5758
T4
X4.0382Y-5.0051G85X4.0618Y-5.0051
G05
X4.0382Y-5.3303G85X4.0618Y-5.3303
G05
X4.2724Y-4.9909G85X4.2961Y-4.9909
G05
X4.2724Y-5.3445G85X4.2961Y-5.3445
G05
X4.4817Y-4.9906G85X4.4581Y-4.9906
G05
X4.4817Y-5.3441G85X4.4581Y-5.3441
G05
X4.7159Y-5.0047G85X4.6923Y-5.0047
G05
X4.7159Y-5.3299G85X4.6923Y-5.3299
G05
T7
X4.0008Y-5.0319G85X4.0008Y-5.0201
G05
X4.7533Y-5.3031G85X4.7533Y-5.315
G05
T0
M30
