%TF.GenerationSoftware,KiCad,Pcbnew,4.0.7*%
%TF.CreationDate,2019-04-11T13:09:23-05:00*%
%TF.ProjectId,GolfGloveMainBoardV1.0.0,476F6C66476C6F76654D61696E426F61,rev?*%
%TF.FileFunction,Paste,Top*%
%FSLAX46Y46*%
G04 Gerber Fmt 4.6, Leading zero omitted, Abs format (unit mm)*
G04 Created by KiCad (PCBNEW 4.0.7) date 04/11/19 13:09:23*
%MOMM*%
%LPD*%
G01*
G04 APERTURE LIST*
%ADD10C,0.100000*%
%ADD11C,0.150000*%
%ADD12R,0.700000X0.300000*%
%ADD13R,0.280000X0.750000*%
%ADD14R,0.750000X0.280000*%
%ADD15R,0.280000X1.060000*%
%ADD16R,1.060000X0.280000*%
%ADD17R,0.810000X0.220000*%
%ADD18R,0.220000X0.810000*%
%ADD19R,3.700000X3.700000*%
%ADD20R,2.000000X1.000000*%
%ADD21R,0.700000X2.800000*%
%ADD22R,0.600000X0.500000*%
%ADD23R,0.500000X0.600000*%
%ADD24R,0.750000X0.800000*%
%ADD25R,0.900000X0.500000*%
%ADD26R,0.400000X0.600000*%
%ADD27R,0.600000X0.400000*%
%ADD28R,1.500000X0.700000*%
%ADD29R,0.800000X1.000000*%
%ADD30R,1.270000X0.558800*%
%ADD31R,0.800000X0.900000*%
%ADD32R,1.800000X1.000000*%
%ADD33R,1.200000X0.900000*%
%ADD34R,0.800000X0.750000*%
G04 APERTURE END LIST*
D10*
D11*
X148925000Y-151345000D02*
X148925000Y-151355000D01*
X112365000Y-151345000D02*
X148925000Y-151345000D01*
X112365000Y-136675000D02*
X112365000Y-151345000D01*
X99805000Y-136675000D02*
X112365000Y-136675000D01*
X99805000Y-139585000D02*
X99805000Y-136675000D01*
X93605000Y-139585000D02*
X99805000Y-139585000D01*
X93605000Y-122935000D02*
X93605000Y-139585000D01*
X99805000Y-122935000D02*
X93605000Y-122935000D01*
X99805000Y-125835000D02*
X99805000Y-122935000D01*
X112375000Y-125835000D02*
X99805000Y-125835000D01*
X112375000Y-111355000D02*
X112375000Y-125835000D01*
X148925000Y-111355000D02*
X112375000Y-111355000D01*
X148925000Y-151345000D02*
X148925000Y-111355000D01*
D10*
G36*
X138460000Y-131394962D02*
X138460000Y-130085000D01*
X139769962Y-130085000D01*
X139769962Y-131394962D01*
X138460000Y-131394962D01*
G37*
G36*
X138460000Y-133065790D02*
X138460000Y-131755000D01*
X139769905Y-131755000D01*
X139769905Y-133065790D01*
X138460000Y-133065790D01*
G37*
G36*
X140130000Y-133065050D02*
X140130000Y-131755000D01*
X141440050Y-131755000D01*
X141440050Y-133065050D01*
X140130000Y-133065050D01*
G37*
G36*
X140130000Y-131394770D02*
X140130000Y-130085000D01*
X141441910Y-130085000D01*
X141441910Y-131394770D01*
X140130000Y-131394770D01*
G37*
D12*
X100960000Y-134010000D03*
X100960000Y-133510000D03*
X100960000Y-133010000D03*
X100960000Y-132510000D03*
X100960000Y-132010000D03*
X100960000Y-131510000D03*
X100960000Y-131010000D03*
X100960000Y-128510000D03*
X100960000Y-129510000D03*
X100960000Y-130010000D03*
X100960000Y-130510000D03*
X100960000Y-129010000D03*
D13*
X128430000Y-132360000D03*
D14*
X128520000Y-131660000D03*
X128520000Y-131230000D03*
X128520000Y-130800000D03*
X128520000Y-130370000D03*
D13*
X128430000Y-129670000D03*
X128000000Y-129670000D03*
X127570000Y-129670000D03*
X127140000Y-129670000D03*
X126710000Y-129670000D03*
X126280000Y-129670000D03*
X125850000Y-129670000D03*
X125420000Y-129670000D03*
D14*
X125330000Y-130370000D03*
X125330000Y-130800000D03*
X125330000Y-131230000D03*
X125330000Y-131660000D03*
D13*
X125420000Y-132360000D03*
X125850000Y-132360000D03*
X126280000Y-132360000D03*
X126710000Y-132360000D03*
X127140000Y-132360000D03*
X127570000Y-132360000D03*
X128000000Y-132360000D03*
D15*
X98235000Y-132745000D03*
D16*
X98465000Y-131905000D03*
X98465000Y-131475000D03*
X98465000Y-131045000D03*
X98465000Y-130615000D03*
D15*
X98235000Y-129775000D03*
X97805000Y-129775000D03*
X97375000Y-129775000D03*
X96945000Y-129775000D03*
X96515000Y-129775000D03*
X96085000Y-129775000D03*
X95655000Y-129775000D03*
X95225000Y-129775000D03*
D16*
X94995000Y-130615000D03*
X94995000Y-131045000D03*
X94995000Y-131475000D03*
X94995000Y-131905000D03*
D15*
X95225000Y-132745000D03*
X95655000Y-132745000D03*
X96085000Y-132745000D03*
X96515000Y-132745000D03*
X96945000Y-132745000D03*
X97375000Y-132745000D03*
X97805000Y-132745000D03*
D17*
X142405000Y-133375000D03*
X142405000Y-132975000D03*
X142405000Y-132575000D03*
X142405000Y-132175000D03*
X142405000Y-131775000D03*
X142405000Y-131375000D03*
X142405000Y-130975000D03*
X142405000Y-130575000D03*
X142405000Y-130175000D03*
X142405000Y-129775000D03*
X137495000Y-129775000D03*
X137495000Y-130175000D03*
X137495000Y-130575000D03*
X137495000Y-130975000D03*
X137495000Y-131375000D03*
X137495000Y-131775000D03*
X137495000Y-132175000D03*
X137495000Y-132575000D03*
X137495000Y-132975000D03*
X137495000Y-133375000D03*
D18*
X138150000Y-134030000D03*
X138550000Y-134030000D03*
X138950000Y-134030000D03*
X139350000Y-134030000D03*
X139750000Y-134030000D03*
X140150000Y-134030000D03*
X140550000Y-134030000D03*
X140950000Y-134030000D03*
X141350000Y-134030000D03*
X141750000Y-134030000D03*
X141750000Y-129120000D03*
X141350000Y-129120000D03*
X140950000Y-129120000D03*
X140550000Y-129120000D03*
X140150000Y-129120000D03*
X139750000Y-129120000D03*
X139350000Y-129120000D03*
X138950000Y-129120000D03*
X138550000Y-129120000D03*
X138150000Y-129120000D03*
D19*
X139950000Y-131575000D03*
D12*
X121395000Y-128500000D03*
X121395000Y-129000000D03*
X121395000Y-129500000D03*
X121395000Y-130000000D03*
X121395000Y-130500000D03*
X121395000Y-131000000D03*
X121395000Y-131500000D03*
X121395000Y-134000000D03*
X121395000Y-133000000D03*
X121395000Y-132500000D03*
X121395000Y-132000000D03*
X121395000Y-133500000D03*
D20*
X146337500Y-118587500D03*
X146337500Y-113387500D03*
D21*
X145487500Y-115987500D03*
X147187500Y-115987500D03*
D22*
X130067500Y-137227500D03*
X128967500Y-137227500D03*
X133017500Y-137452500D03*
X134117500Y-137452500D03*
X125475000Y-134315000D03*
X126575000Y-134315000D03*
X126475000Y-128515000D03*
X125375000Y-128515000D03*
D23*
X128325000Y-134465000D03*
X128325000Y-133365000D03*
D22*
X132750000Y-124950000D03*
X131650000Y-124950000D03*
X131650000Y-127550000D03*
X132750000Y-127550000D03*
X125475000Y-133215000D03*
X126575000Y-133215000D03*
D23*
X129425000Y-133365000D03*
X129425000Y-134465000D03*
X99480000Y-128310000D03*
X99480000Y-127210000D03*
D22*
X142940000Y-135090000D03*
X144040000Y-135090000D03*
D23*
X134365000Y-129935000D03*
X134365000Y-131035000D03*
X99480000Y-134210000D03*
X99480000Y-135310000D03*
X98480000Y-128310000D03*
X98480000Y-127210000D03*
X95480000Y-127210000D03*
X95480000Y-128310000D03*
X98480000Y-134210000D03*
X98480000Y-135310000D03*
X120300000Y-122650000D03*
X120300000Y-123750000D03*
X124400000Y-123750000D03*
X124400000Y-122650000D03*
D24*
X129092500Y-138552500D03*
X129092500Y-140052500D03*
D25*
X142425000Y-125575000D03*
X142425000Y-127075000D03*
X142275000Y-121300000D03*
X142275000Y-122800000D03*
D26*
X130817500Y-141302500D03*
X129917500Y-141302500D03*
X131867500Y-137202500D03*
X130967500Y-137202500D03*
D27*
X125200000Y-138850000D03*
X125200000Y-139750000D03*
X132750000Y-125800000D03*
X132750000Y-126700000D03*
D26*
X129975000Y-131915000D03*
X130875000Y-131915000D03*
X129975000Y-130565000D03*
X130875000Y-130565000D03*
D27*
X97480000Y-135210000D03*
X97480000Y-136110000D03*
X97380000Y-128310000D03*
X97380000Y-127410000D03*
D28*
X145795000Y-142375000D03*
X145795000Y-139375000D03*
X145795000Y-137875000D03*
D29*
X148655000Y-143775000D03*
X148655000Y-136475000D03*
X146445000Y-136475000D03*
X146445000Y-143775000D03*
D30*
X133387900Y-140267300D03*
X133387900Y-139327500D03*
X133387900Y-138387700D03*
X130797100Y-138387700D03*
X130797100Y-140267300D03*
D23*
X147150000Y-121750000D03*
X147150000Y-120650000D03*
D22*
X145900000Y-122950000D03*
X147000000Y-122950000D03*
D31*
X121750000Y-122550000D03*
X121750000Y-123950000D03*
X122850000Y-123950000D03*
X122850000Y-122550000D03*
D32*
X134550000Y-125000000D03*
X134550000Y-127500000D03*
D33*
X125350000Y-149500000D03*
X127550000Y-149500000D03*
D34*
X126200000Y-144750000D03*
X127700000Y-144750000D03*
D26*
X124850000Y-144750000D03*
X123950000Y-144750000D03*
M02*
