%TF.GenerationSoftware,KiCad,Pcbnew,4.0.7*%
%TF.CreationDate,2019-02-19T19:06:54-06:00*%
%TF.ProjectId,GolfGloveMainBoardV1.0.0,476F6C66476C6F76654D61696E426F61,rev?*%
%TF.FileFunction,Copper,L1,Top,Signal*%
%FSLAX46Y46*%
G04 Gerber Fmt 4.6, Leading zero omitted, Abs format (unit mm)*
G04 Created by KiCad (PCBNEW 4.0.7) date 02/19/19 19:06:54*
%MOMM*%
%LPD*%
G01*
G04 APERTURE LIST*
%ADD10C,0.100000*%
%ADD11C,0.150000*%
%ADD12C,0.600000*%
%ADD13R,0.220000X0.810000*%
%ADD14R,0.810000X0.220000*%
%ADD15R,3.700000X3.700000*%
%ADD16O,0.800000X1.400000*%
%ADD17R,0.300000X0.700000*%
%ADD18C,0.650000*%
%ADD19R,1.700000X1.700000*%
%ADD20O,1.700000X1.700000*%
%ADD21R,2.700000X2.100000*%
%ADD22R,0.530000X0.280000*%
%ADD23R,0.280000X0.530000*%
%ADD24R,1.000000X2.000000*%
%ADD25R,2.800000X0.700000*%
%ADD26R,0.500000X0.600000*%
%ADD27R,0.600000X0.500000*%
%ADD28R,0.800000X0.750000*%
%ADD29R,0.400000X0.600000*%
%ADD30R,0.500000X0.900000*%
%ADD31R,0.600000X0.400000*%
%ADD32R,0.700000X1.500000*%
%ADD33R,1.000000X0.800000*%
%ADD34R,1.120000X2.440000*%
%ADD35R,0.558800X1.270000*%
%ADD36C,0.293370*%
%ADD37C,0.250000*%
%ADD38C,0.200000*%
%ADD39C,0.254000*%
G04 APERTURE END LIST*
D10*
D11*
X118120000Y-123130000D02*
X118120000Y-125640000D01*
X127220000Y-123130000D02*
X118120000Y-123130000D01*
X127220000Y-125640000D02*
X127220000Y-123130000D01*
X118130000Y-125640000D02*
X127220000Y-125640000D01*
X102580000Y-162200000D02*
X102570000Y-162200000D01*
X102580000Y-125640000D02*
X102580000Y-162200000D01*
X117250000Y-125640000D02*
X102580000Y-125640000D01*
X117250000Y-113080000D02*
X117250000Y-125640000D01*
X114340000Y-113080000D02*
X117250000Y-113080000D01*
X114340000Y-106880000D02*
X114340000Y-113080000D01*
X130990000Y-106880000D02*
X114340000Y-106880000D01*
X130990000Y-113080000D02*
X130990000Y-106880000D01*
X128090000Y-113080000D02*
X130990000Y-113080000D01*
X128090000Y-125650000D02*
X128090000Y-113080000D01*
X142570000Y-125650000D02*
X128090000Y-125650000D01*
X142570000Y-162200000D02*
X142570000Y-125650000D01*
X102580000Y-162200000D02*
X142570000Y-162200000D01*
D12*
X133050000Y-161550000D03*
X125650000Y-160600000D03*
X123900000Y-160200000D03*
D13*
X120550000Y-155680000D03*
X120950000Y-155680000D03*
X121350000Y-155680000D03*
X121750000Y-155680000D03*
X122150000Y-155680000D03*
X122550000Y-155680000D03*
X122950000Y-155680000D03*
X123350000Y-155680000D03*
X123750000Y-155680000D03*
X124150000Y-155680000D03*
X124150000Y-150770000D03*
X123750000Y-150770000D03*
X123350000Y-150770000D03*
X122950000Y-150770000D03*
X122550000Y-150770000D03*
X122150000Y-150770000D03*
X121750000Y-150770000D03*
X121350000Y-150770000D03*
X120950000Y-150770000D03*
X120550000Y-150770000D03*
D14*
X119895000Y-151425000D03*
X119895000Y-151825000D03*
X119895000Y-152225000D03*
X119895000Y-152625000D03*
X119895000Y-153025000D03*
X119895000Y-153425000D03*
X119895000Y-153825000D03*
X119895000Y-154225000D03*
X119895000Y-154625000D03*
X119895000Y-155025000D03*
X124805000Y-155025000D03*
X124805000Y-154625000D03*
X124805000Y-154225000D03*
X124805000Y-153825000D03*
X124805000Y-153425000D03*
X124805000Y-153025000D03*
X124805000Y-152625000D03*
X124805000Y-152225000D03*
X124805000Y-151825000D03*
X124805000Y-151425000D03*
D15*
X122350000Y-153225000D03*
D12*
X132500000Y-156550000D03*
X129850000Y-159600000D03*
X125250000Y-157750000D03*
X123000000Y-126500000D03*
X107000000Y-161000000D03*
X136000000Y-144000000D03*
X124000000Y-161350000D03*
X124350000Y-159300000D03*
X123700000Y-158650000D03*
X125000000Y-159950000D03*
X140500000Y-154500000D03*
X138500000Y-154500000D03*
X141500000Y-154500000D03*
X125900000Y-158400000D03*
X126600000Y-159000000D03*
X125450000Y-161450000D03*
X131000000Y-158000000D03*
X127150000Y-159600000D03*
X131000000Y-157000000D03*
X130000000Y-158500000D03*
X139500000Y-154500000D03*
X130000000Y-157500000D03*
X128050000Y-159600000D03*
X130200000Y-161300000D03*
X131150000Y-161300000D03*
X132000000Y-158500000D03*
X133000000Y-158500000D03*
X133000000Y-157500000D03*
X124750000Y-160750000D03*
X132150000Y-161500000D03*
X132000000Y-159500000D03*
X132000000Y-157500000D03*
X133500000Y-156500000D03*
X127400000Y-161300000D03*
X129250000Y-161300000D03*
X133000000Y-159500000D03*
X140000000Y-155500000D03*
X136000000Y-155500000D03*
X126400000Y-161200000D03*
X128300000Y-161300000D03*
X135000000Y-155500000D03*
X134500000Y-156500000D03*
X138000000Y-155500000D03*
X128950000Y-159600000D03*
X137000000Y-155500000D03*
X142000000Y-155500000D03*
X141000000Y-155500000D03*
X141500000Y-156500000D03*
X140500000Y-156500000D03*
X139500000Y-156500000D03*
X138500000Y-156500000D03*
X137500000Y-156500000D03*
X136500000Y-156500000D03*
X135500000Y-156500000D03*
X139000000Y-155500000D03*
D16*
X118535000Y-116145000D03*
D17*
X119915000Y-114235000D03*
X120415000Y-114235000D03*
X120915000Y-114235000D03*
X121415000Y-114235000D03*
X121915000Y-114235000D03*
X122415000Y-114235000D03*
X122915000Y-114235000D03*
X125415000Y-114235000D03*
X124415000Y-114235000D03*
X123915000Y-114235000D03*
X123415000Y-114235000D03*
X124915000Y-114235000D03*
D16*
X126795000Y-116145000D03*
X127155000Y-122095000D03*
X118175000Y-122095000D03*
D18*
X125465000Y-115545000D03*
X123865000Y-115545000D03*
X123065000Y-115545000D03*
X122265000Y-115545000D03*
X121465000Y-115545000D03*
X119865000Y-115545000D03*
X125065000Y-116245000D03*
X124265000Y-116245000D03*
X123465000Y-116245000D03*
X121865000Y-116245000D03*
X121065000Y-116245000D03*
X120265000Y-116245000D03*
D19*
X129165000Y-111255000D03*
D20*
X129165000Y-108715000D03*
D21*
X131260000Y-137350000D03*
X136560000Y-137350000D03*
X136560000Y-134250000D03*
X131260000Y-134250000D03*
D16*
X126805000Y-132760000D03*
D17*
X125425000Y-134670000D03*
X124925000Y-134670000D03*
X124425000Y-134670000D03*
X123925000Y-134670000D03*
X123425000Y-134670000D03*
X122925000Y-134670000D03*
X122425000Y-134670000D03*
X119925000Y-134670000D03*
X120925000Y-134670000D03*
X121425000Y-134670000D03*
X121925000Y-134670000D03*
X120425000Y-134670000D03*
D16*
X118545000Y-132760000D03*
X118185000Y-126810000D03*
X127165000Y-126810000D03*
D18*
X119875000Y-133360000D03*
X121475000Y-133360000D03*
X122275000Y-133360000D03*
X123075000Y-133360000D03*
X123875000Y-133360000D03*
X125475000Y-133360000D03*
X120275000Y-132660000D03*
X121075000Y-132660000D03*
X121875000Y-132660000D03*
X123475000Y-132660000D03*
X124275000Y-132660000D03*
X125075000Y-132660000D03*
D22*
X121445000Y-111510000D03*
D23*
X122020000Y-111475000D03*
X122450000Y-111475000D03*
X122880000Y-111475000D03*
X123310000Y-111475000D03*
D22*
X123885000Y-111510000D03*
X123885000Y-111080000D03*
X123885000Y-110650000D03*
X123885000Y-110220000D03*
X123885000Y-109790000D03*
X123885000Y-109360000D03*
X123885000Y-108930000D03*
X123885000Y-108500000D03*
D23*
X123310000Y-108535000D03*
X122880000Y-108535000D03*
X122450000Y-108535000D03*
X122020000Y-108535000D03*
D22*
X121445000Y-108500000D03*
X121445000Y-108930000D03*
X121445000Y-109360000D03*
X121445000Y-109790000D03*
X121445000Y-110220000D03*
X121445000Y-110650000D03*
X121445000Y-111080000D03*
D24*
X135337500Y-159612500D03*
X140537500Y-159612500D03*
D25*
X137937500Y-158762500D03*
X137937500Y-160462500D03*
D26*
X116697500Y-143342500D03*
X116697500Y-142242500D03*
X116472500Y-146292500D03*
X116472500Y-147392500D03*
X119610000Y-138750000D03*
X119610000Y-139850000D03*
X125410000Y-139750000D03*
X125410000Y-138650000D03*
D27*
X119460000Y-141600000D03*
X120560000Y-141600000D03*
D26*
X120710000Y-138750000D03*
X120710000Y-139850000D03*
D27*
X120560000Y-142700000D03*
X119460000Y-142700000D03*
X125615000Y-112755000D03*
X126715000Y-112755000D03*
D26*
X118835000Y-156215000D03*
X118835000Y-157315000D03*
D27*
X123990000Y-147640000D03*
X122890000Y-147640000D03*
X119715000Y-112755000D03*
X118615000Y-112755000D03*
X125615000Y-111755000D03*
X126715000Y-111755000D03*
X126715000Y-108755000D03*
X125615000Y-108755000D03*
X119715000Y-111755000D03*
X118615000Y-111755000D03*
D26*
X128830000Y-134170000D03*
X128830000Y-135270000D03*
X131150000Y-139410000D03*
X131150000Y-140510000D03*
D28*
X115372500Y-142367500D03*
X113872500Y-142367500D03*
D19*
X141140000Y-136490000D03*
D20*
X141140000Y-139030000D03*
X141140000Y-141570000D03*
X141140000Y-144110000D03*
X141140000Y-146650000D03*
X141140000Y-149190000D03*
D19*
X108940000Y-130410000D03*
D20*
X108940000Y-127870000D03*
D19*
X130120000Y-127690000D03*
D20*
X130120000Y-130230000D03*
D19*
X104490000Y-127830000D03*
D20*
X104490000Y-130370000D03*
D19*
X133860000Y-127710000D03*
D20*
X133860000Y-130250000D03*
D19*
X104390000Y-141080000D03*
D20*
X106930000Y-141080000D03*
X104390000Y-143620000D03*
X106930000Y-143620000D03*
X104390000Y-146160000D03*
X106930000Y-146160000D03*
X104390000Y-148700000D03*
X106930000Y-148700000D03*
X104390000Y-151240000D03*
X106930000Y-151240000D03*
X104390000Y-153780000D03*
X106930000Y-153780000D03*
X104390000Y-156320000D03*
X106930000Y-156320000D03*
X104390000Y-158860000D03*
X106930000Y-158860000D03*
D19*
X140600000Y-152120000D03*
X137850000Y-150890000D03*
X140680000Y-127730000D03*
D20*
X140680000Y-130270000D03*
D19*
X116165000Y-111255000D03*
D20*
X116165000Y-108715000D03*
D19*
X133420000Y-140570000D03*
D20*
X135960000Y-140570000D03*
D29*
X132350000Y-160450000D03*
X133250000Y-160450000D03*
D30*
X128350000Y-155700000D03*
X126850000Y-155700000D03*
X132625000Y-155550000D03*
X131125000Y-155550000D03*
D31*
X130950000Y-159350000D03*
X130950000Y-160250000D03*
X112622500Y-144092500D03*
X112622500Y-143192500D03*
X116722500Y-145142500D03*
X116722500Y-144242500D03*
X122010000Y-143250000D03*
X122010000Y-144150000D03*
X123360000Y-143250000D03*
X123360000Y-144150000D03*
D29*
X118715000Y-110755000D03*
X117815000Y-110755000D03*
X125615000Y-110655000D03*
X126515000Y-110655000D03*
D32*
X111550000Y-159070000D03*
X114550000Y-159070000D03*
X116050000Y-159070000D03*
D33*
X110150000Y-161930000D03*
X117450000Y-161930000D03*
X117450000Y-159720000D03*
X110150000Y-159720000D03*
D34*
X113730000Y-127755000D03*
X113730000Y-136365000D03*
D35*
X113657700Y-146662900D03*
X114597500Y-146662900D03*
X115537300Y-146662900D03*
X115537300Y-144072100D03*
X113657700Y-144072100D03*
D22*
X121690000Y-141705000D03*
D23*
X122265000Y-141670000D03*
X122695000Y-141670000D03*
X123125000Y-141670000D03*
X123555000Y-141670000D03*
D22*
X124130000Y-141705000D03*
X124130000Y-141275000D03*
X124130000Y-140845000D03*
X124130000Y-140415000D03*
X124130000Y-139985000D03*
X124130000Y-139555000D03*
X124130000Y-139125000D03*
X124130000Y-138695000D03*
D23*
X123555000Y-138730000D03*
X123125000Y-138730000D03*
X122695000Y-138730000D03*
X122265000Y-138730000D03*
D22*
X121690000Y-138695000D03*
X121690000Y-139125000D03*
X121690000Y-139555000D03*
X121690000Y-139985000D03*
X121690000Y-140415000D03*
X121690000Y-140845000D03*
X121690000Y-141275000D03*
D12*
X119340000Y-161360000D03*
X126025000Y-157250000D03*
X133875000Y-153475000D03*
X118050000Y-155800000D03*
X120180000Y-138450000D03*
X109060000Y-135020000D03*
X106880000Y-130340000D03*
X114220000Y-155420000D03*
X113865000Y-152870000D03*
X115170000Y-147740000D03*
X116680000Y-141630000D03*
X112650000Y-142530000D03*
X137230000Y-129300000D03*
X124470000Y-147640000D03*
X110760000Y-156750000D03*
X114450000Y-148610000D03*
X113710000Y-136380000D03*
X119610000Y-140700000D03*
X120710000Y-143750000D03*
X127570000Y-153720000D03*
X118020000Y-156880000D03*
X122880000Y-147170000D03*
X113070000Y-138400000D03*
X120670000Y-132070000D03*
X111530000Y-154890000D03*
X117230000Y-154710000D03*
X125410000Y-140500000D03*
X124720000Y-133960000D03*
X123750000Y-149440000D03*
X128180000Y-143970000D03*
X127565000Y-111755000D03*
X120365000Y-110755000D03*
X120750000Y-159750000D03*
X133380000Y-133850000D03*
X126040000Y-154390000D03*
X125900000Y-155160000D03*
X133230000Y-146870000D03*
X122900000Y-159640000D03*
X121925000Y-156950000D03*
X128175000Y-156750000D03*
X133600000Y-155300000D03*
X125970000Y-156450000D03*
X122175000Y-158900000D03*
X130075000Y-155250000D03*
X124600000Y-155875000D03*
X129600000Y-156050000D03*
X121670000Y-145090000D03*
X113890000Y-150120000D03*
X118750000Y-143180000D03*
X122930000Y-135450000D03*
X121320000Y-143260000D03*
X120290000Y-145870000D03*
X119100000Y-145840000D03*
X118680000Y-144630000D03*
X123520000Y-136380000D03*
X123840000Y-142540000D03*
X135900000Y-150170000D03*
X139210000Y-144560000D03*
X137380000Y-147390000D03*
X130520000Y-151010000D03*
X127500000Y-152240000D03*
X130850000Y-150240000D03*
X126530000Y-152030000D03*
X124565000Y-112455000D03*
X108340000Y-145560000D03*
X109260000Y-144690000D03*
X117800000Y-137020000D03*
X125350000Y-141710000D03*
X120920000Y-137630000D03*
X120670000Y-133800000D03*
X122100000Y-146700000D03*
X120075000Y-157050000D03*
X118050000Y-142170000D03*
X123465000Y-112655000D03*
X122665000Y-109855000D03*
X127165000Y-113655000D03*
X124665000Y-115255000D03*
X124765000Y-113255000D03*
X118900000Y-153580000D03*
X113890000Y-129940000D03*
X118800000Y-136640000D03*
X120420000Y-135860000D03*
X121700000Y-137180000D03*
X124430000Y-137660000D03*
X109060000Y-142550000D03*
X116340000Y-149690000D03*
X118150000Y-151950000D03*
X104390000Y-141080000D03*
X109360000Y-141390000D03*
X111220000Y-145290000D03*
X109880000Y-147290000D03*
X110250000Y-151060000D03*
X118490000Y-152910000D03*
X118440000Y-149940000D03*
X115470000Y-149880000D03*
X127740000Y-129140000D03*
X136830000Y-132390000D03*
X123010000Y-148760000D03*
X118665000Y-109755000D03*
X120665000Y-109255000D03*
D36*
X135337500Y-159612500D02*
X135337500Y-159912500D01*
X135337500Y-159912500D02*
X135250000Y-160450000D01*
X133250000Y-160450000D02*
X135250000Y-160450000D01*
D11*
X121425000Y-134670000D02*
X121425000Y-135625000D01*
X121425000Y-135625000D02*
X118250000Y-138800000D01*
X117280000Y-143840000D02*
X116697500Y-143840000D01*
X117380000Y-143740000D02*
X117280000Y-143840000D01*
X117380000Y-141960000D02*
X117380000Y-143740000D01*
X118250000Y-141090000D02*
X117380000Y-141960000D01*
X118250000Y-138800000D02*
X118250000Y-141090000D01*
X123925000Y-134670000D02*
X123925000Y-135795000D01*
X121425000Y-135285000D02*
X121425000Y-134670000D01*
X121610000Y-135470000D02*
X121425000Y-135285000D01*
X121610000Y-135490000D02*
X121610000Y-135470000D01*
X123040000Y-136920000D02*
X121610000Y-135490000D01*
X123770000Y-136920000D02*
X123040000Y-136920000D01*
X124090000Y-136600000D02*
X123770000Y-136920000D01*
X124090000Y-135960000D02*
X124090000Y-136600000D01*
X123925000Y-135795000D02*
X124090000Y-135960000D01*
X121475000Y-133360000D02*
X121475000Y-134620000D01*
X121475000Y-134620000D02*
X121425000Y-134670000D01*
X123925000Y-134670000D02*
X123925000Y-133410000D01*
X123925000Y-133410000D02*
X123875000Y-133360000D01*
D37*
X116697500Y-143342500D02*
X116697500Y-143840000D01*
X116697500Y-143840000D02*
X116697500Y-144217500D01*
X116697500Y-144217500D02*
X116722500Y-144242500D01*
X116722500Y-144242500D02*
X115707700Y-144242500D01*
X115707700Y-144242500D02*
X115537300Y-144072100D01*
D11*
X118835000Y-156215000D02*
X118465000Y-156215000D01*
X118465000Y-156215000D02*
X118050000Y-155800000D01*
X118835000Y-156215000D02*
X118835000Y-155925000D01*
X118835000Y-155925000D02*
X119230000Y-155530000D01*
X119230000Y-155530000D02*
X120400000Y-155530000D01*
X120400000Y-155530000D02*
X120550000Y-155680000D01*
X120550000Y-155680000D02*
X120550000Y-155025000D01*
X120550000Y-155025000D02*
X122350000Y-153225000D01*
X119610000Y-138750000D02*
X118990000Y-138750000D01*
X118960000Y-141100000D02*
X119460000Y-141600000D01*
X118960000Y-138780000D02*
X118960000Y-141100000D01*
X118990000Y-138750000D02*
X118960000Y-138780000D01*
X119460000Y-142700000D02*
X119460000Y-141600000D01*
X119875000Y-133360000D02*
X119875000Y-134620000D01*
X119875000Y-134620000D02*
X119925000Y-134670000D01*
X119610000Y-138750000D02*
X119880000Y-138750000D01*
X119880000Y-138750000D02*
X120180000Y-138450000D01*
X121690000Y-139555000D02*
X121690000Y-139125000D01*
X119610000Y-138750000D02*
X120710000Y-138750000D01*
X120710000Y-138750000D02*
X121085000Y-139125000D01*
X121085000Y-139125000D02*
X121260000Y-139125000D01*
X121260000Y-139125000D02*
X121690000Y-139125000D01*
X118185000Y-126810000D02*
X114675000Y-126810000D01*
X114675000Y-126810000D02*
X113730000Y-127755000D01*
X106950000Y-130410000D02*
X108940000Y-130410000D01*
X106880000Y-130340000D02*
X106950000Y-130410000D01*
X116472500Y-147392500D02*
X116472500Y-147407500D01*
X116472500Y-147407500D02*
X116140000Y-147740000D01*
X116140000Y-147740000D02*
X115170000Y-147740000D01*
X115170000Y-147740000D02*
X114920000Y-147740000D01*
X114920000Y-147740000D02*
X114597500Y-147417500D01*
X114597500Y-147417500D02*
X114597500Y-146662900D01*
X116697500Y-142242500D02*
X116697500Y-141647500D01*
X116697500Y-141647500D02*
X116680000Y-141630000D01*
X112622500Y-143192500D02*
X112622500Y-142692500D01*
X112650000Y-142665000D02*
X112650000Y-142530000D01*
X112622500Y-142692500D02*
X112650000Y-142665000D01*
X136560000Y-134250000D02*
X138900000Y-134250000D01*
X138900000Y-134250000D02*
X141140000Y-136490000D01*
X136560000Y-134250000D02*
X136560000Y-137350000D01*
X136560000Y-137350000D02*
X137420000Y-136490000D01*
X137420000Y-136490000D02*
X141140000Y-136490000D01*
X123990000Y-147640000D02*
X124470000Y-147640000D01*
X128830000Y-135270000D02*
X126025000Y-135270000D01*
X126025000Y-135270000D02*
X125425000Y-134670000D01*
X128830000Y-135270000D02*
X128830000Y-138190000D01*
X130450000Y-140510000D02*
X131150000Y-140510000D01*
X130420000Y-140480000D02*
X130450000Y-140510000D01*
X130420000Y-139780000D02*
X130420000Y-140480000D01*
X128830000Y-138190000D02*
X130420000Y-139780000D01*
X126805000Y-132760000D02*
X126075000Y-132760000D01*
X126075000Y-132760000D02*
X125475000Y-133360000D01*
X125425000Y-134670000D02*
X125425000Y-138635000D01*
X125425000Y-138635000D02*
X125410000Y-138650000D01*
X125425000Y-134670000D02*
X125425000Y-133410000D01*
X125425000Y-133410000D02*
X125475000Y-133360000D01*
D38*
X111200000Y-158720000D02*
X111200000Y-157190000D01*
X110760000Y-156750000D02*
X111200000Y-157190000D01*
X116670000Y-148610000D02*
X114450000Y-148610000D01*
X117370000Y-147910000D02*
X116670000Y-148610000D01*
X117370000Y-146030000D02*
X117370000Y-147910000D01*
X117020000Y-145680000D02*
X117370000Y-146030000D01*
X115650000Y-145680000D02*
X117020000Y-145680000D01*
X115537300Y-145792700D02*
X115650000Y-145680000D01*
X115537300Y-145792700D02*
X115537300Y-146662900D01*
X111200000Y-158720000D02*
X111550000Y-159070000D01*
D37*
X116472500Y-146292500D02*
X115907700Y-146292500D01*
X115907700Y-146292500D02*
X115537300Y-146662900D01*
D11*
X111850000Y-159770000D02*
X113060000Y-159770000D01*
X113710000Y-136380000D02*
X113725000Y-136365000D01*
X113725000Y-136365000D02*
X113730000Y-136365000D01*
X124805000Y-153425000D02*
X127275000Y-153425000D01*
X127275000Y-153425000D02*
X127570000Y-153720000D01*
X118835000Y-157315000D02*
X118455000Y-157315000D01*
X118455000Y-157315000D02*
X118020000Y-156880000D01*
X122890000Y-147640000D02*
X122890000Y-147180000D01*
X122890000Y-147180000D02*
X122880000Y-147170000D01*
X120950000Y-150770000D02*
X120950000Y-144310000D01*
X120950000Y-144310000D02*
X121110000Y-144150000D01*
X121075000Y-132660000D02*
X121075000Y-132475000D01*
X121075000Y-132475000D02*
X120670000Y-132070000D01*
X120275000Y-132660000D02*
X121075000Y-132660000D01*
D37*
X120710000Y-143750000D02*
X121110000Y-144150000D01*
X121110000Y-144150000D02*
X122010000Y-144150000D01*
X120560000Y-142700000D02*
X120560000Y-143600000D01*
X120560000Y-143600000D02*
X120710000Y-143750000D01*
X121690000Y-141705000D02*
X121690000Y-142020000D01*
X121010000Y-142700000D02*
X120560000Y-142700000D01*
X121690000Y-142020000D02*
X121010000Y-142700000D01*
X122695000Y-143465000D02*
X122695000Y-143485000D01*
X122695000Y-143485000D02*
X123360000Y-144150000D01*
X122695000Y-141670000D02*
X122695000Y-143465000D01*
X122695000Y-143465000D02*
X122010000Y-144150000D01*
X121690000Y-140600000D02*
X119710000Y-140600000D01*
X119710000Y-140600000D02*
X119610000Y-140700000D01*
X119610000Y-140700000D02*
X119610000Y-139850000D01*
X121690000Y-140415000D02*
X121690000Y-140600000D01*
X121690000Y-140600000D02*
X121690000Y-140845000D01*
X125410000Y-140500000D02*
X125410000Y-139750000D01*
D11*
X124650000Y-134030000D02*
X124720000Y-133960000D01*
X124650000Y-134030000D02*
X124650000Y-134670000D01*
X124425000Y-134670000D02*
X124650000Y-134670000D01*
X124650000Y-134670000D02*
X124680000Y-134670000D01*
X124680000Y-134670000D02*
X124925000Y-134670000D01*
D37*
X121690000Y-141275000D02*
X120885000Y-141275000D01*
X120885000Y-141275000D02*
X120560000Y-141600000D01*
D11*
X123750000Y-149440000D02*
X123750000Y-150770000D01*
X126710000Y-145440000D02*
X128180000Y-143970000D01*
X126710000Y-147790000D02*
X126710000Y-145440000D01*
X124150000Y-150770000D02*
X124150000Y-150350000D01*
X124150000Y-150350000D02*
X126710000Y-147790000D01*
D37*
X121690000Y-139985000D02*
X120845000Y-139985000D01*
X120845000Y-139985000D02*
X120710000Y-139850000D01*
X121445000Y-111080000D02*
X120690000Y-111080000D01*
X127565000Y-111755000D02*
X126715000Y-111755000D01*
X120690000Y-111080000D02*
X120365000Y-110755000D01*
X121445000Y-109790000D02*
X120930000Y-109790000D01*
X124615000Y-107755000D02*
X125615000Y-108755000D01*
X120365000Y-107755000D02*
X124615000Y-107755000D01*
X119965000Y-108155000D02*
X120365000Y-107755000D01*
X119965000Y-109555000D02*
X119965000Y-108155000D01*
X120265000Y-109855000D02*
X119965000Y-109555000D01*
X120865000Y-109855000D02*
X120265000Y-109855000D01*
X120930000Y-109790000D02*
X120865000Y-109855000D01*
D11*
X120750000Y-159750000D02*
X121350000Y-159150000D01*
X121350000Y-155680000D02*
X121350000Y-159150000D01*
X132500000Y-134250000D02*
X132900000Y-133850000D01*
X132900000Y-133850000D02*
X133380000Y-133850000D01*
X124805000Y-154225000D02*
X125875000Y-154225000D01*
X125875000Y-154225000D02*
X126040000Y-154390000D01*
X131260000Y-134250000D02*
X132500000Y-134250000D01*
X131260000Y-134250000D02*
X128910000Y-134250000D01*
X128910000Y-134250000D02*
X128830000Y-134170000D01*
X124805000Y-154625000D02*
X125355000Y-154625000D01*
X125890000Y-155160000D02*
X125900000Y-155160000D01*
X125355000Y-154625000D02*
X125890000Y-155160000D01*
X131260000Y-137350000D02*
X133370000Y-137350000D01*
X133230000Y-146510000D02*
X133230000Y-146870000D01*
X134690000Y-145050000D02*
X133230000Y-146510000D01*
X134690000Y-138670000D02*
X134690000Y-145050000D01*
X133370000Y-137350000D02*
X134690000Y-138670000D01*
X131260000Y-137350000D02*
X131260000Y-139300000D01*
X131260000Y-139300000D02*
X131150000Y-139410000D01*
X122928313Y-156091687D02*
X122928313Y-155680000D01*
X122900000Y-156120000D02*
X122928313Y-156091687D01*
X122900000Y-156830000D02*
X122900000Y-156120000D01*
X122900000Y-159640000D02*
X122900000Y-156830000D01*
X122928313Y-155680000D02*
X122950000Y-155680000D01*
X122928313Y-155680000D02*
X122950000Y-155680000D01*
X122928313Y-155701687D02*
X122950000Y-155680000D01*
X122928313Y-155680000D02*
X122950000Y-155680000D01*
X132625000Y-155550000D02*
X132450000Y-155550000D01*
X132450000Y-155550000D02*
X131600000Y-156400000D01*
X128325000Y-156600000D02*
X128175000Y-156750000D01*
X130000000Y-156600000D02*
X128325000Y-156600000D01*
X130200000Y-156400000D02*
X130000000Y-156600000D01*
X131600000Y-156400000D02*
X130200000Y-156400000D01*
X121750000Y-155680000D02*
X121750000Y-156775000D01*
X121750000Y-156775000D02*
X121925000Y-156950000D01*
X128350000Y-155700000D02*
X128350000Y-156575000D01*
X128350000Y-156575000D02*
X128175000Y-156750000D01*
X132625000Y-155550000D02*
X133400000Y-155500000D01*
X133400000Y-155500000D02*
X133600000Y-155300000D01*
X128200000Y-155700000D02*
X127450000Y-156450000D01*
X127450000Y-156450000D02*
X125970000Y-156450000D01*
X128350000Y-155700000D02*
X128200000Y-155700000D01*
X122500000Y-158575000D02*
X122500000Y-155730000D01*
X122175000Y-158900000D02*
X122500000Y-158575000D01*
X122500000Y-155730000D02*
X122550000Y-155680000D01*
X122150000Y-155680000D02*
X122550000Y-155680000D01*
X126850000Y-155700000D02*
X126850000Y-155575000D01*
X126850000Y-155575000D02*
X127444998Y-154980002D01*
X127444998Y-154980002D02*
X129805002Y-154980002D01*
X129805002Y-154980002D02*
X130075000Y-155250000D01*
X126830000Y-155550000D02*
X126360000Y-155550000D01*
X126210000Y-155700000D02*
X126360000Y-155550000D01*
X126210000Y-155700000D02*
X125230000Y-155700000D01*
X126830000Y-155550000D02*
X126840000Y-155540000D01*
X124805000Y-155025000D02*
X124805000Y-155235000D01*
X124805000Y-155235000D02*
X125230000Y-155660000D01*
X125230000Y-155660000D02*
X125230000Y-155700000D01*
X123771687Y-156251687D02*
X123771687Y-155680000D01*
X125230000Y-155700000D02*
X125230000Y-156520000D01*
X125230000Y-156520000D02*
X124970000Y-156780000D01*
X124970000Y-156780000D02*
X124150000Y-156780000D01*
X124150000Y-156780000D02*
X123830000Y-156460000D01*
X123830000Y-156460000D02*
X123830000Y-156310000D01*
X123830000Y-156310000D02*
X123771687Y-156251687D01*
X123771687Y-155680000D02*
X123750000Y-155680000D01*
X124405000Y-155680000D02*
X124150000Y-155680000D01*
X124600000Y-155875000D02*
X124405000Y-155680000D01*
X131125000Y-155550000D02*
X130625000Y-155550000D01*
X130125000Y-156050000D02*
X129600000Y-156050000D01*
X130625000Y-155550000D02*
X130125000Y-156050000D01*
D38*
X116100000Y-157125000D02*
X116100000Y-159020000D01*
X116100000Y-159020000D02*
X116050000Y-159070000D01*
X133420000Y-140570000D02*
X132490000Y-140570000D01*
X121850000Y-144910000D02*
X121670000Y-145090000D01*
X123620000Y-144910000D02*
X121850000Y-144910000D01*
X124340000Y-144190000D02*
X123620000Y-144910000D01*
X124340000Y-143690000D02*
X124340000Y-144190000D01*
X126400000Y-141630000D02*
X124340000Y-143690000D01*
X131430000Y-141630000D02*
X126400000Y-141630000D01*
X132490000Y-140570000D02*
X131430000Y-141630000D01*
X116100000Y-157190000D02*
X116100000Y-157125000D01*
X116100000Y-157125000D02*
X116100000Y-155900000D01*
X114460000Y-150690000D02*
X113890000Y-150120000D01*
X114460000Y-154260000D02*
X114460000Y-150690000D01*
X116100000Y-155900000D02*
X114460000Y-154260000D01*
D37*
X115372500Y-142367500D02*
X115372500Y-142517500D01*
X115372500Y-142517500D02*
X114722500Y-143167500D01*
X114722500Y-143167500D02*
X114722500Y-144892500D01*
X114722500Y-144892500D02*
X114972500Y-145142500D01*
X114972500Y-145142500D02*
X116722500Y-145142500D01*
X113657700Y-146662900D02*
X113657700Y-145957300D01*
X114322498Y-142817498D02*
X113872500Y-142367500D01*
X114322498Y-145292502D02*
X114322498Y-142817498D01*
X113657700Y-145957300D02*
X114322498Y-145292502D01*
D11*
X119895000Y-154225000D02*
X118575000Y-154225000D01*
X119740000Y-144380000D02*
X118750000Y-143180000D01*
X119740000Y-147180000D02*
X119740000Y-144380000D01*
X117580000Y-149340000D02*
X119740000Y-147180000D01*
X117580000Y-153230000D02*
X117580000Y-149340000D01*
X118575000Y-154225000D02*
X117580000Y-153230000D01*
X122925000Y-135445000D02*
X122925000Y-134670000D01*
X122930000Y-135450000D02*
X122925000Y-135445000D01*
X122010000Y-143250000D02*
X121330000Y-143250000D01*
X121330000Y-143250000D02*
X121320000Y-143260000D01*
D37*
X122265000Y-141670000D02*
X122265000Y-142995000D01*
X122265000Y-142995000D02*
X122010000Y-143250000D01*
D11*
X118795000Y-151825000D02*
X119895000Y-151825000D01*
X117900000Y-150930000D02*
X118795000Y-151825000D01*
X117900000Y-149444266D02*
X117900000Y-150930000D01*
X120200000Y-147144266D02*
X117900000Y-149444266D01*
X120200000Y-145960000D02*
X120200000Y-147144266D01*
X120290000Y-145870000D02*
X120200000Y-145960000D01*
X119100000Y-145050000D02*
X119100000Y-145840000D01*
X118680000Y-144630000D02*
X119100000Y-145050000D01*
X122425000Y-134670000D02*
X122425000Y-134335000D01*
X122425000Y-134335000D02*
X123075000Y-133685000D01*
X123075000Y-133685000D02*
X123075000Y-133360000D01*
X122425000Y-134670000D02*
X122425000Y-135275000D01*
X123040000Y-136380000D02*
X123520000Y-136380000D01*
X122290000Y-135630000D02*
X123040000Y-136380000D01*
X122290000Y-135410000D02*
X122290000Y-135630000D01*
X122425000Y-135275000D02*
X122290000Y-135410000D01*
X123360000Y-143020000D02*
X123360000Y-143250000D01*
X123840000Y-142540000D02*
X123360000Y-143020000D01*
D37*
X123125000Y-141670000D02*
X123125000Y-143065000D01*
X123125000Y-143065000D02*
X123310000Y-143250000D01*
D11*
X124805000Y-151825000D02*
X125745000Y-151825000D01*
X125745000Y-151825000D02*
X126090000Y-151480000D01*
X129150000Y-151480000D02*
X129580000Y-151910000D01*
X126090000Y-151480000D02*
X129150000Y-151480000D01*
X135900000Y-151040000D02*
X135900000Y-150170000D01*
X135030000Y-151910000D02*
X135900000Y-151040000D01*
X129580000Y-151910000D02*
X135030000Y-151910000D01*
X141140000Y-141570000D02*
X136960000Y-141570000D01*
X136960000Y-141570000D02*
X135960000Y-140570000D01*
X124805000Y-152625000D02*
X127115000Y-152625000D01*
X139660000Y-144110000D02*
X141140000Y-144110000D01*
X139210000Y-144560000D02*
X139660000Y-144110000D01*
X136340000Y-147390000D02*
X137380000Y-147390000D01*
X132850000Y-150880000D02*
X136340000Y-147390000D01*
X130650000Y-150880000D02*
X132850000Y-150880000D01*
X130520000Y-151010000D02*
X130650000Y-150880000D01*
X127115000Y-152625000D02*
X127500000Y-152240000D01*
X141140000Y-144110000D02*
X141140000Y-144220000D01*
X124805000Y-152225000D02*
X126335000Y-152225000D01*
X134440000Y-146650000D02*
X141140000Y-146650000D01*
X130850000Y-150240000D02*
X134440000Y-146650000D01*
X126335000Y-152225000D02*
X126530000Y-152030000D01*
X125078247Y-151159376D02*
X124880000Y-151350000D01*
X124880000Y-151350000D02*
X124805000Y-151425000D01*
X141140000Y-149190000D02*
X135790000Y-149190000D01*
X129398974Y-151138974D02*
X125078247Y-151159376D01*
X125078247Y-151159376D02*
X125053247Y-151159376D01*
X129810000Y-151550000D02*
X129398974Y-151138974D01*
X134630000Y-151550000D02*
X129810000Y-151550000D01*
X135260000Y-150920000D02*
X134630000Y-151550000D01*
X135260000Y-149720000D02*
X135260000Y-150920000D01*
X135790000Y-149190000D02*
X135260000Y-149720000D01*
D37*
X124415000Y-114235000D02*
X124415000Y-113805000D01*
X124065000Y-112955000D02*
X124565000Y-112455000D01*
X124065000Y-113455000D02*
X124065000Y-112955000D01*
X124415000Y-113805000D02*
X124065000Y-113455000D01*
X117815000Y-110755000D02*
X117815000Y-114905000D01*
X121065000Y-116755000D02*
X121065000Y-116245000D01*
X120465000Y-117355000D02*
X121065000Y-116755000D01*
X118065000Y-117355000D02*
X120465000Y-117355000D01*
X117665000Y-116955000D02*
X118065000Y-117355000D01*
X117665000Y-115055000D02*
X117665000Y-116955000D01*
X117815000Y-114905000D02*
X117665000Y-115055000D01*
X117815000Y-110755000D02*
X116665000Y-110755000D01*
X116665000Y-110755000D02*
X116165000Y-111255000D01*
D11*
X108350000Y-152360000D02*
X106930000Y-153780000D01*
X108350000Y-145570000D02*
X108350000Y-152360000D01*
X108340000Y-145560000D02*
X108350000Y-145570000D01*
X108330000Y-143760000D02*
X109260000Y-144690000D01*
X108330000Y-142440000D02*
X108330000Y-143760000D01*
X108820002Y-141949998D02*
X108330000Y-142440000D01*
X108820002Y-138329998D02*
X108820002Y-141949998D01*
X112760000Y-134390000D02*
X108820002Y-138329998D01*
X115170000Y-134390000D02*
X112760000Y-134390000D01*
X117800000Y-137020000D02*
X115170000Y-134390000D01*
X120925000Y-134670000D02*
X120925000Y-134055000D01*
X124830000Y-141190000D02*
X125350000Y-141710000D01*
X124830000Y-138380000D02*
X124830000Y-141190000D01*
X124680000Y-138230000D02*
X124830000Y-138380000D01*
X124170000Y-138230000D02*
X124680000Y-138230000D01*
X123920000Y-137980000D02*
X124170000Y-138230000D01*
X121270000Y-137980000D02*
X123920000Y-137980000D01*
X120920000Y-137630000D02*
X121270000Y-137980000D01*
X120925000Y-134055000D02*
X120670000Y-133800000D01*
X121350000Y-147450000D02*
X121350000Y-150770000D01*
X122100000Y-146700000D02*
X121350000Y-147450000D01*
X114550000Y-159070000D02*
X114550000Y-160350000D01*
X108870000Y-160800000D02*
X106930000Y-158860000D01*
X110825000Y-160800000D02*
X108870000Y-160800000D01*
X111700000Y-161675000D02*
X110825000Y-160800000D01*
X113225000Y-161675000D02*
X111700000Y-161675000D01*
X114550000Y-160350000D02*
X113225000Y-161675000D01*
X106930000Y-158860000D02*
X107660000Y-158860000D01*
X113060000Y-159770000D02*
X114480000Y-158350000D01*
X124805000Y-153825000D02*
X126455000Y-153825000D01*
X139140000Y-152120000D02*
X140600000Y-152120000D01*
X136580000Y-154680000D02*
X139140000Y-152120000D01*
X127310000Y-154680000D02*
X136580000Y-154680000D01*
X126455000Y-153825000D02*
X127310000Y-154680000D01*
X124805000Y-153025000D02*
X125675000Y-153025000D01*
X125675000Y-153025000D02*
X125750000Y-153100000D01*
X136260000Y-152480000D02*
X137850000Y-150890000D01*
X129160000Y-152480000D02*
X136260000Y-152480000D01*
X128540000Y-153100000D02*
X129160000Y-152480000D01*
X125750000Y-153100000D02*
X128540000Y-153100000D01*
D36*
X130950000Y-160250000D02*
X130950000Y-160437500D01*
X129987500Y-160437500D02*
X131837500Y-160437500D01*
X127637500Y-160437500D02*
X129987500Y-160437500D01*
X131850000Y-160450000D02*
X132350000Y-160450000D01*
X131837500Y-160437500D02*
X131850000Y-160450000D01*
X123350000Y-155680000D02*
X123350000Y-157025000D01*
X123350000Y-157025000D02*
X126762500Y-160437500D01*
X126762500Y-160437500D02*
X127637500Y-160437500D01*
D11*
X120950000Y-155680000D02*
X120950000Y-156900000D01*
X120800000Y-157050000D02*
X120075000Y-157050000D01*
X120950000Y-156900000D02*
X120800000Y-157050000D01*
D37*
X113657700Y-144072100D02*
X112642900Y-144072100D01*
X112642900Y-144072100D02*
X112622500Y-144092500D01*
X113637300Y-144092500D02*
X113657700Y-144072100D01*
D11*
X119895000Y-155025000D02*
X118865000Y-155025000D01*
X117740000Y-142480000D02*
X118050000Y-142170000D01*
X117740000Y-148290000D02*
X117740000Y-142480000D01*
X117170000Y-148860000D02*
X117740000Y-148290000D01*
X117170000Y-153330000D02*
X117170000Y-148860000D01*
X118865000Y-155025000D02*
X117170000Y-153330000D01*
D37*
X122415000Y-114235000D02*
X122415000Y-114705000D01*
X122415000Y-114705000D02*
X123065000Y-115355000D01*
X123065000Y-115355000D02*
X123065000Y-115545000D01*
X122415000Y-114235000D02*
X122415000Y-113505000D01*
X122020000Y-113110000D02*
X122020000Y-111475000D01*
X122415000Y-113505000D02*
X122020000Y-113110000D01*
X122880000Y-112655000D02*
X123465000Y-112655000D01*
X122880000Y-111475000D02*
X122880000Y-112655000D01*
X122880000Y-112655000D02*
X122880000Y-114200000D01*
X122880000Y-114200000D02*
X122915000Y-114235000D01*
X119715000Y-111755000D02*
X119715000Y-110305000D01*
X118925000Y-108715000D02*
X116165000Y-108715000D01*
X119365000Y-109155000D02*
X118925000Y-108715000D01*
X119365000Y-109955000D02*
X119365000Y-109155000D01*
X119715000Y-110305000D02*
X119365000Y-109955000D01*
X122450000Y-110440000D02*
X122450000Y-110070000D01*
X122450000Y-110070000D02*
X122665000Y-109855000D01*
X122450000Y-111475000D02*
X122450000Y-110440000D01*
X122230000Y-110220000D02*
X121445000Y-110220000D01*
X122450000Y-110440000D02*
X122230000Y-110220000D01*
X125065000Y-116245000D02*
X125065000Y-116555000D01*
X125065000Y-116555000D02*
X125765000Y-117255000D01*
X126715000Y-113205000D02*
X127165000Y-113655000D01*
X126715000Y-112755000D02*
X126715000Y-113205000D01*
X127765000Y-114255000D02*
X127165000Y-113655000D01*
X127765000Y-116655000D02*
X127765000Y-114255000D01*
X127165000Y-117255000D02*
X127765000Y-116655000D01*
X125765000Y-117255000D02*
X127165000Y-117255000D01*
X125065000Y-116245000D02*
X124265000Y-116245000D01*
X121445000Y-111510000D02*
X120415000Y-111510000D01*
X120415000Y-111510000D02*
X119960000Y-111510000D01*
X119960000Y-111510000D02*
X119715000Y-111755000D01*
X121445000Y-110650000D02*
X121445000Y-110220000D01*
X120415000Y-114235000D02*
X120915000Y-114235000D01*
X120415000Y-114235000D02*
X120415000Y-113455000D01*
X120415000Y-113455000D02*
X119715000Y-112755000D01*
X119715000Y-111755000D02*
X119715000Y-112755000D01*
X124915000Y-114235000D02*
X124915000Y-115005000D01*
X124915000Y-115005000D02*
X124665000Y-115255000D01*
X124915000Y-114235000D02*
X124915000Y-113505000D01*
X124915000Y-113505000D02*
X124765000Y-113255000D01*
X129165000Y-111255000D02*
X128665000Y-111255000D01*
X128665000Y-111255000D02*
X128065000Y-110655000D01*
X128065000Y-110655000D02*
X126515000Y-110655000D01*
D11*
X119895000Y-153425000D02*
X119055000Y-153425000D01*
X119055000Y-153425000D02*
X118900000Y-153580000D01*
X104390000Y-153780000D02*
X104390000Y-153690000D01*
X104390000Y-153690000D02*
X105670000Y-152410000D01*
X105670000Y-152410000D02*
X105670000Y-145630000D01*
X105670000Y-145630000D02*
X105010000Y-144970000D01*
X105010000Y-144970000D02*
X103860000Y-144970000D01*
X103860000Y-144970000D02*
X102900000Y-144010000D01*
X102900000Y-144010000D02*
X102900000Y-136090000D01*
X102900000Y-136090000D02*
X106490000Y-132500000D01*
X106490000Y-132500000D02*
X109420000Y-132500000D01*
X109420000Y-132500000D02*
X111980000Y-129940000D01*
X111980000Y-129940000D02*
X113890000Y-129940000D01*
X118800000Y-136640000D02*
X119580000Y-135860000D01*
X119580000Y-135860000D02*
X120420000Y-135860000D01*
X120425000Y-135855000D02*
X120425000Y-134670000D01*
X120420000Y-135860000D02*
X120425000Y-135855000D01*
X122090000Y-137570000D02*
X121700000Y-137180000D01*
X124340000Y-137570000D02*
X122090000Y-137570000D01*
X124430000Y-137660000D02*
X124340000Y-137570000D01*
X119895000Y-152225000D02*
X118425000Y-152225000D01*
X110350000Y-143840000D02*
X109060000Y-142550000D01*
X110350000Y-145760000D02*
X110350000Y-143840000D01*
X113810000Y-149220000D02*
X110350000Y-145760000D01*
X115870000Y-149220000D02*
X113810000Y-149220000D01*
X116340000Y-149690000D02*
X115870000Y-149220000D01*
X118425000Y-152225000D02*
X118150000Y-151950000D01*
X130120000Y-127690000D02*
X128550000Y-127690000D01*
X104390000Y-136090000D02*
X104390000Y-141080000D01*
X107300000Y-133180000D02*
X104390000Y-136090000D01*
X109520000Y-133180000D02*
X107300000Y-133180000D01*
X112090000Y-130610000D02*
X109520000Y-133180000D01*
X114750000Y-130610000D02*
X112090000Y-130610000D01*
X117040000Y-128320000D02*
X114750000Y-130610000D01*
X127920000Y-128320000D02*
X117040000Y-128320000D01*
X128550000Y-127690000D02*
X127920000Y-128320000D01*
X119895000Y-152625000D02*
X118775000Y-152625000D01*
X111470000Y-143500000D02*
X109360000Y-141390000D01*
X111470000Y-145040000D02*
X111470000Y-143500000D01*
X111220000Y-145290000D02*
X111470000Y-145040000D01*
X109000000Y-148170000D02*
X109880000Y-147290000D01*
X109000000Y-149810000D02*
X109000000Y-148170000D01*
X110250000Y-151060000D02*
X109000000Y-149810000D01*
X118775000Y-152625000D02*
X118490000Y-152910000D01*
X119895000Y-151425000D02*
X119635000Y-151425000D01*
X119635000Y-151425000D02*
X118440000Y-150230000D01*
X118440000Y-150230000D02*
X118440000Y-149940000D01*
X115470000Y-149880000D02*
X115170000Y-149580000D01*
X115170000Y-149580000D02*
X113280000Y-149580000D01*
X113280000Y-149580000D02*
X108640000Y-144940000D01*
X108640000Y-144940000D02*
X105710000Y-144940000D01*
X105710000Y-144940000D02*
X104390000Y-143620000D01*
X105600000Y-142410000D02*
X104390000Y-143620000D01*
X105600000Y-136080000D02*
X105600000Y-142410000D01*
X107910000Y-133770000D02*
X105600000Y-136080000D01*
X109560000Y-133770000D02*
X107910000Y-133770000D01*
X111880000Y-131450000D02*
X109560000Y-133770000D01*
X114920000Y-131450000D02*
X111880000Y-131450000D01*
X117410000Y-128960000D02*
X114920000Y-131450000D01*
X127560000Y-128960000D02*
X117410000Y-128960000D01*
X127740000Y-129140000D02*
X127560000Y-128960000D01*
X123350000Y-150770000D02*
X123350000Y-150030000D01*
X137555000Y-131665000D02*
X137555000Y-130725000D01*
X136830000Y-132390000D02*
X137555000Y-131665000D01*
X123010000Y-149690000D02*
X123010000Y-148760000D01*
X123350000Y-150030000D02*
X123010000Y-149690000D01*
X106930000Y-143620000D02*
X106930000Y-143370000D01*
X106930000Y-143370000D02*
X108520000Y-141780000D01*
X108520000Y-141780000D02*
X108520000Y-136920000D01*
X108520000Y-136920000D02*
X113250000Y-132190000D01*
X113250000Y-132190000D02*
X115870000Y-132190000D01*
X115870000Y-132190000D02*
X118030000Y-130030000D01*
X118030000Y-130030000D02*
X126200000Y-130030000D01*
X126200000Y-130030000D02*
X128470000Y-132300000D01*
X128470000Y-132300000D02*
X135980000Y-132300000D01*
X135980000Y-132300000D02*
X137555000Y-130725000D01*
X137555000Y-130725000D02*
X140550000Y-127730000D01*
X140550000Y-127730000D02*
X140680000Y-127730000D01*
D37*
X126795000Y-116145000D02*
X126065000Y-116145000D01*
X126065000Y-116145000D02*
X125465000Y-115545000D01*
X118535000Y-116145000D02*
X119265000Y-116145000D01*
X119265000Y-116145000D02*
X119865000Y-115545000D01*
X125615000Y-111755000D02*
X125615000Y-110655000D01*
X125615000Y-111755000D02*
X125615000Y-110055000D01*
X125865000Y-109805000D02*
X126665000Y-109805000D01*
X125615000Y-110055000D02*
X125865000Y-109805000D01*
X125415000Y-114235000D02*
X125415000Y-112955000D01*
X125415000Y-112955000D02*
X125615000Y-112755000D01*
X125465000Y-115545000D02*
X125465000Y-114285000D01*
X125465000Y-114285000D02*
X125415000Y-114235000D01*
X119865000Y-115545000D02*
X119865000Y-114285000D01*
X119865000Y-114285000D02*
X119915000Y-114235000D01*
X118615000Y-112755000D02*
X118665000Y-112755000D01*
X118665000Y-112755000D02*
X119915000Y-114005000D01*
X119915000Y-114005000D02*
X119915000Y-114235000D01*
X118715000Y-110505000D02*
X118715000Y-109805000D01*
X118715000Y-109805000D02*
X118665000Y-109755000D01*
X118615000Y-112755000D02*
X118615000Y-111755000D01*
X118615000Y-111755000D02*
X118715000Y-111655000D01*
X118715000Y-111655000D02*
X118715000Y-110505000D01*
X121445000Y-109360000D02*
X120770000Y-109360000D01*
X120770000Y-109360000D02*
X120665000Y-109255000D01*
X121445000Y-109360000D02*
X121445000Y-108930000D01*
X125615000Y-111755000D02*
X125615000Y-112755000D01*
X126715000Y-108755000D02*
X126715000Y-109755000D01*
X126715000Y-109755000D02*
X126665000Y-109805000D01*
D39*
G36*
X104517000Y-158733000D02*
X104537000Y-158733000D01*
X104537000Y-158987000D01*
X104517000Y-158987000D01*
X104517000Y-160180819D01*
X104746892Y-160301486D01*
X105271358Y-160055183D01*
X105661645Y-159626924D01*
X105780048Y-159341056D01*
X106038342Y-159727620D01*
X106436409Y-159993600D01*
X106905962Y-160087000D01*
X106954038Y-160087000D01*
X107423591Y-159993600D01*
X107424062Y-159993286D01*
X108550388Y-161119612D01*
X108697027Y-161217594D01*
X108870000Y-161252000D01*
X109385818Y-161252000D01*
X109381980Y-161254470D01*
X109295899Y-161380453D01*
X109265615Y-161530000D01*
X109265615Y-161748000D01*
X103032000Y-161748000D01*
X103032000Y-159418432D01*
X103118355Y-159626924D01*
X103508642Y-160055183D01*
X104033108Y-160301486D01*
X104263000Y-160180819D01*
X104263000Y-158987000D01*
X104243000Y-158987000D01*
X104243000Y-158733000D01*
X104263000Y-158733000D01*
X104263000Y-158713000D01*
X104517000Y-158713000D01*
X104517000Y-158733000D01*
X104517000Y-158733000D01*
G37*
X104517000Y-158733000D02*
X104537000Y-158733000D01*
X104537000Y-158987000D01*
X104517000Y-158987000D01*
X104517000Y-160180819D01*
X104746892Y-160301486D01*
X105271358Y-160055183D01*
X105661645Y-159626924D01*
X105780048Y-159341056D01*
X106038342Y-159727620D01*
X106436409Y-159993600D01*
X106905962Y-160087000D01*
X106954038Y-160087000D01*
X107423591Y-159993600D01*
X107424062Y-159993286D01*
X108550388Y-161119612D01*
X108697027Y-161217594D01*
X108870000Y-161252000D01*
X109385818Y-161252000D01*
X109381980Y-161254470D01*
X109295899Y-161380453D01*
X109265615Y-161530000D01*
X109265615Y-161748000D01*
X103032000Y-161748000D01*
X103032000Y-159418432D01*
X103118355Y-159626924D01*
X103508642Y-160055183D01*
X104033108Y-160301486D01*
X104263000Y-160180819D01*
X104263000Y-158987000D01*
X104243000Y-158987000D01*
X104243000Y-158733000D01*
X104263000Y-158733000D01*
X104263000Y-158713000D01*
X104517000Y-158713000D01*
X104517000Y-158733000D01*
G36*
X114895733Y-150262989D02*
X115086010Y-150453598D01*
X115334746Y-150556882D01*
X115604073Y-150557117D01*
X115852989Y-150454267D01*
X116018145Y-150289399D01*
X116204746Y-150366882D01*
X116474073Y-150367117D01*
X116718000Y-150266328D01*
X116718000Y-153330000D01*
X116752406Y-153502973D01*
X116850388Y-153649612D01*
X117233779Y-154033003D01*
X117095927Y-154032883D01*
X116847011Y-154135733D01*
X116656402Y-154326010D01*
X116553118Y-154574746D01*
X116552883Y-154844073D01*
X116655733Y-155092989D01*
X116846010Y-155283598D01*
X117094746Y-155386882D01*
X117364073Y-155387117D01*
X117612989Y-155284267D01*
X117803598Y-155093990D01*
X117906882Y-154845254D01*
X117907003Y-154706227D01*
X118480776Y-155280000D01*
X118458690Y-155280000D01*
X118225301Y-155376673D01*
X118046673Y-155555302D01*
X117950000Y-155788691D01*
X117950000Y-155929250D01*
X118108748Y-156087998D01*
X117950000Y-156087998D01*
X117950000Y-156202939D01*
X117885927Y-156202883D01*
X117637011Y-156305733D01*
X117446402Y-156496010D01*
X117343118Y-156744746D01*
X117342883Y-157014073D01*
X117445733Y-157262989D01*
X117636010Y-157453598D01*
X117884746Y-157556882D01*
X118057809Y-157557033D01*
X118135388Y-157634612D01*
X118214216Y-157687284D01*
X118226903Y-157754708D01*
X118309470Y-157883020D01*
X118435453Y-157969101D01*
X118585000Y-157999385D01*
X119085000Y-157999385D01*
X119224708Y-157973097D01*
X119353020Y-157890530D01*
X119439101Y-157764547D01*
X119469385Y-157615000D01*
X119469385Y-157357121D01*
X119500733Y-157432989D01*
X119691010Y-157623598D01*
X119939746Y-157726882D01*
X120209073Y-157727117D01*
X120457989Y-157624267D01*
X120580469Y-157502000D01*
X120800000Y-157502000D01*
X120898000Y-157482507D01*
X120898000Y-158962776D01*
X120787743Y-159073033D01*
X120615927Y-159072883D01*
X120367011Y-159175733D01*
X120176402Y-159366010D01*
X120073118Y-159614746D01*
X120072883Y-159884073D01*
X120175733Y-160132989D01*
X120366010Y-160323598D01*
X120614746Y-160426882D01*
X120884073Y-160427117D01*
X121132989Y-160324267D01*
X121323598Y-160133990D01*
X121426882Y-159885254D01*
X121427033Y-159712191D01*
X121669612Y-159469612D01*
X121716693Y-159399151D01*
X121791010Y-159473598D01*
X122039746Y-159576882D01*
X122223055Y-159577042D01*
X122222883Y-159774073D01*
X122325733Y-160022989D01*
X122516010Y-160213598D01*
X122764746Y-160316882D01*
X123034073Y-160317117D01*
X123282989Y-160214267D01*
X123473598Y-160023990D01*
X123576882Y-159775254D01*
X123577117Y-159505927D01*
X123474267Y-159257011D01*
X123352000Y-159134531D01*
X123352000Y-157767602D01*
X126392199Y-160807801D01*
X126562094Y-160921322D01*
X126762500Y-160961185D01*
X131787158Y-160961185D01*
X131845345Y-160972759D01*
X131874470Y-161018020D01*
X132000453Y-161104101D01*
X132150000Y-161134385D01*
X132550000Y-161134385D01*
X132689708Y-161108097D01*
X132801252Y-161036320D01*
X132900453Y-161104101D01*
X133050000Y-161134385D01*
X133450000Y-161134385D01*
X133460500Y-161132409D01*
X133460500Y-161748000D01*
X118334385Y-161748000D01*
X118334385Y-161530000D01*
X118308097Y-161390292D01*
X118225530Y-161261980D01*
X118099547Y-161175899D01*
X117950000Y-161145615D01*
X116950000Y-161145615D01*
X116810292Y-161171903D01*
X116681980Y-161254470D01*
X116595899Y-161380453D01*
X116565615Y-161530000D01*
X116565615Y-161748000D01*
X113791224Y-161748000D01*
X114494080Y-161045144D01*
X114598495Y-161297846D01*
X114830930Y-161530688D01*
X115134778Y-161656856D01*
X115463779Y-161657143D01*
X115767846Y-161531505D01*
X116000688Y-161299070D01*
X116126856Y-160995222D01*
X116127143Y-160666221D01*
X116001505Y-160362154D01*
X115844012Y-160204385D01*
X116400000Y-160204385D01*
X116539708Y-160178097D01*
X116572568Y-160156952D01*
X116591903Y-160259708D01*
X116674470Y-160388020D01*
X116800453Y-160474101D01*
X116950000Y-160504385D01*
X117950000Y-160504385D01*
X118089708Y-160478097D01*
X118218020Y-160395530D01*
X118304101Y-160269547D01*
X118334385Y-160120000D01*
X118334385Y-159320000D01*
X118308097Y-159180292D01*
X118225530Y-159051980D01*
X118099547Y-158965899D01*
X117950000Y-158935615D01*
X116950000Y-158935615D01*
X116810292Y-158961903D01*
X116784385Y-158978574D01*
X116784385Y-158320000D01*
X116758097Y-158180292D01*
X116675530Y-158051980D01*
X116577000Y-157984657D01*
X116577000Y-155900000D01*
X116540691Y-155717460D01*
X116437290Y-155562710D01*
X114937000Y-154062420D01*
X114937000Y-150690000D01*
X114900691Y-150507460D01*
X114797290Y-150352710D01*
X114566998Y-150122418D01*
X114567077Y-150032000D01*
X114800290Y-150032000D01*
X114895733Y-150262989D01*
X114895733Y-150262989D01*
G37*
X114895733Y-150262989D02*
X115086010Y-150453598D01*
X115334746Y-150556882D01*
X115604073Y-150557117D01*
X115852989Y-150454267D01*
X116018145Y-150289399D01*
X116204746Y-150366882D01*
X116474073Y-150367117D01*
X116718000Y-150266328D01*
X116718000Y-153330000D01*
X116752406Y-153502973D01*
X116850388Y-153649612D01*
X117233779Y-154033003D01*
X117095927Y-154032883D01*
X116847011Y-154135733D01*
X116656402Y-154326010D01*
X116553118Y-154574746D01*
X116552883Y-154844073D01*
X116655733Y-155092989D01*
X116846010Y-155283598D01*
X117094746Y-155386882D01*
X117364073Y-155387117D01*
X117612989Y-155284267D01*
X117803598Y-155093990D01*
X117906882Y-154845254D01*
X117907003Y-154706227D01*
X118480776Y-155280000D01*
X118458690Y-155280000D01*
X118225301Y-155376673D01*
X118046673Y-155555302D01*
X117950000Y-155788691D01*
X117950000Y-155929250D01*
X118108748Y-156087998D01*
X117950000Y-156087998D01*
X117950000Y-156202939D01*
X117885927Y-156202883D01*
X117637011Y-156305733D01*
X117446402Y-156496010D01*
X117343118Y-156744746D01*
X117342883Y-157014073D01*
X117445733Y-157262989D01*
X117636010Y-157453598D01*
X117884746Y-157556882D01*
X118057809Y-157557033D01*
X118135388Y-157634612D01*
X118214216Y-157687284D01*
X118226903Y-157754708D01*
X118309470Y-157883020D01*
X118435453Y-157969101D01*
X118585000Y-157999385D01*
X119085000Y-157999385D01*
X119224708Y-157973097D01*
X119353020Y-157890530D01*
X119439101Y-157764547D01*
X119469385Y-157615000D01*
X119469385Y-157357121D01*
X119500733Y-157432989D01*
X119691010Y-157623598D01*
X119939746Y-157726882D01*
X120209073Y-157727117D01*
X120457989Y-157624267D01*
X120580469Y-157502000D01*
X120800000Y-157502000D01*
X120898000Y-157482507D01*
X120898000Y-158962776D01*
X120787743Y-159073033D01*
X120615927Y-159072883D01*
X120367011Y-159175733D01*
X120176402Y-159366010D01*
X120073118Y-159614746D01*
X120072883Y-159884073D01*
X120175733Y-160132989D01*
X120366010Y-160323598D01*
X120614746Y-160426882D01*
X120884073Y-160427117D01*
X121132989Y-160324267D01*
X121323598Y-160133990D01*
X121426882Y-159885254D01*
X121427033Y-159712191D01*
X121669612Y-159469612D01*
X121716693Y-159399151D01*
X121791010Y-159473598D01*
X122039746Y-159576882D01*
X122223055Y-159577042D01*
X122222883Y-159774073D01*
X122325733Y-160022989D01*
X122516010Y-160213598D01*
X122764746Y-160316882D01*
X123034073Y-160317117D01*
X123282989Y-160214267D01*
X123473598Y-160023990D01*
X123576882Y-159775254D01*
X123577117Y-159505927D01*
X123474267Y-159257011D01*
X123352000Y-159134531D01*
X123352000Y-157767602D01*
X126392199Y-160807801D01*
X126562094Y-160921322D01*
X126762500Y-160961185D01*
X131787158Y-160961185D01*
X131845345Y-160972759D01*
X131874470Y-161018020D01*
X132000453Y-161104101D01*
X132150000Y-161134385D01*
X132550000Y-161134385D01*
X132689708Y-161108097D01*
X132801252Y-161036320D01*
X132900453Y-161104101D01*
X133050000Y-161134385D01*
X133450000Y-161134385D01*
X133460500Y-161132409D01*
X133460500Y-161748000D01*
X118334385Y-161748000D01*
X118334385Y-161530000D01*
X118308097Y-161390292D01*
X118225530Y-161261980D01*
X118099547Y-161175899D01*
X117950000Y-161145615D01*
X116950000Y-161145615D01*
X116810292Y-161171903D01*
X116681980Y-161254470D01*
X116595899Y-161380453D01*
X116565615Y-161530000D01*
X116565615Y-161748000D01*
X113791224Y-161748000D01*
X114494080Y-161045144D01*
X114598495Y-161297846D01*
X114830930Y-161530688D01*
X115134778Y-161656856D01*
X115463779Y-161657143D01*
X115767846Y-161531505D01*
X116000688Y-161299070D01*
X116126856Y-160995222D01*
X116127143Y-160666221D01*
X116001505Y-160362154D01*
X115844012Y-160204385D01*
X116400000Y-160204385D01*
X116539708Y-160178097D01*
X116572568Y-160156952D01*
X116591903Y-160259708D01*
X116674470Y-160388020D01*
X116800453Y-160474101D01*
X116950000Y-160504385D01*
X117950000Y-160504385D01*
X118089708Y-160478097D01*
X118218020Y-160395530D01*
X118304101Y-160269547D01*
X118334385Y-160120000D01*
X118334385Y-159320000D01*
X118308097Y-159180292D01*
X118225530Y-159051980D01*
X118099547Y-158965899D01*
X117950000Y-158935615D01*
X116950000Y-158935615D01*
X116810292Y-158961903D01*
X116784385Y-158978574D01*
X116784385Y-158320000D01*
X116758097Y-158180292D01*
X116675530Y-158051980D01*
X116577000Y-157984657D01*
X116577000Y-155900000D01*
X116540691Y-155717460D01*
X116437290Y-155562710D01*
X114937000Y-154062420D01*
X114937000Y-150690000D01*
X114900691Y-150507460D01*
X114797290Y-150352710D01*
X114566998Y-150122418D01*
X114567077Y-150032000D01*
X114800290Y-150032000D01*
X114895733Y-150262989D01*
G36*
X103525206Y-145274430D02*
X103498342Y-145292380D01*
X103232362Y-145690447D01*
X103138962Y-146160000D01*
X103232362Y-146629553D01*
X103498342Y-147027620D01*
X103896409Y-147293600D01*
X104365962Y-147387000D01*
X104414038Y-147387000D01*
X104883591Y-147293600D01*
X105218000Y-147070155D01*
X105218000Y-147789845D01*
X104883591Y-147566400D01*
X104414038Y-147473000D01*
X104365962Y-147473000D01*
X103896409Y-147566400D01*
X103498342Y-147832380D01*
X103232362Y-148230447D01*
X103138962Y-148700000D01*
X103232362Y-149169553D01*
X103498342Y-149567620D01*
X103896409Y-149833600D01*
X104365962Y-149927000D01*
X104414038Y-149927000D01*
X104883591Y-149833600D01*
X105218000Y-149610155D01*
X105218000Y-150329845D01*
X104883591Y-150106400D01*
X104414038Y-150013000D01*
X104365962Y-150013000D01*
X103896409Y-150106400D01*
X103498342Y-150372380D01*
X103232362Y-150770447D01*
X103138962Y-151240000D01*
X103232362Y-151709553D01*
X103498342Y-152107620D01*
X103896409Y-152373600D01*
X104365962Y-152467000D01*
X104414038Y-152467000D01*
X104883591Y-152373600D01*
X105218000Y-152150155D01*
X105218000Y-152222775D01*
X104809177Y-152631598D01*
X104414038Y-152553000D01*
X104365962Y-152553000D01*
X103896409Y-152646400D01*
X103498342Y-152912380D01*
X103232362Y-153310447D01*
X103138962Y-153780000D01*
X103232362Y-154249553D01*
X103498342Y-154647620D01*
X103896409Y-154913600D01*
X104365962Y-155007000D01*
X104414038Y-155007000D01*
X104883591Y-154913600D01*
X105281658Y-154647620D01*
X105547638Y-154249553D01*
X105641038Y-153780000D01*
X105547638Y-153310447D01*
X105492018Y-153227206D01*
X105989612Y-152729613D01*
X106087594Y-152582973D01*
X106092241Y-152559612D01*
X106122000Y-152410000D01*
X106122000Y-152163519D01*
X106436409Y-152373600D01*
X106905962Y-152467000D01*
X106954038Y-152467000D01*
X107423591Y-152373600D01*
X107821658Y-152107620D01*
X107898000Y-151993366D01*
X107898000Y-152172776D01*
X107424062Y-152646714D01*
X107423591Y-152646400D01*
X106954038Y-152553000D01*
X106905962Y-152553000D01*
X106436409Y-152646400D01*
X106038342Y-152912380D01*
X105772362Y-153310447D01*
X105678962Y-153780000D01*
X105772362Y-154249553D01*
X106038342Y-154647620D01*
X106436409Y-154913600D01*
X106905962Y-155007000D01*
X106954038Y-155007000D01*
X107423591Y-154913600D01*
X107821658Y-154647620D01*
X108087638Y-154249553D01*
X108181038Y-153780000D01*
X108087638Y-153310447D01*
X108068067Y-153281157D01*
X108669612Y-152679612D01*
X108767594Y-152532973D01*
X108779183Y-152474708D01*
X108802000Y-152360000D01*
X108802000Y-150251224D01*
X109573033Y-151022257D01*
X109572883Y-151194073D01*
X109675733Y-151442989D01*
X109866010Y-151633598D01*
X110114746Y-151736882D01*
X110384073Y-151737117D01*
X110632989Y-151634267D01*
X110823598Y-151443990D01*
X110926882Y-151195254D01*
X110927117Y-150925927D01*
X110824267Y-150677011D01*
X110633990Y-150486402D01*
X110385254Y-150383118D01*
X110212191Y-150382967D01*
X109452000Y-149622776D01*
X109452000Y-148357224D01*
X109842257Y-147966967D01*
X110014073Y-147967117D01*
X110262989Y-147864267D01*
X110453598Y-147673990D01*
X110536094Y-147475318D01*
X112960388Y-149899612D01*
X113107027Y-149997594D01*
X113213088Y-150018691D01*
X113212883Y-150254073D01*
X113315733Y-150502989D01*
X113506010Y-150693598D01*
X113754746Y-150796882D01*
X113892422Y-150797002D01*
X113983000Y-150887580D01*
X113983000Y-154260000D01*
X114019309Y-154442540D01*
X114122710Y-154597290D01*
X115623000Y-156097580D01*
X115623000Y-157950104D01*
X115560292Y-157961903D01*
X115431980Y-158044470D01*
X115345899Y-158170453D01*
X115315615Y-158320000D01*
X115315615Y-159820000D01*
X115341903Y-159959708D01*
X115369800Y-160003061D01*
X115231284Y-160002940D01*
X115254101Y-159969547D01*
X115284385Y-159820000D01*
X115284385Y-158320000D01*
X115258097Y-158180292D01*
X115175530Y-158051980D01*
X115049547Y-157965899D01*
X114900000Y-157935615D01*
X114657776Y-157935615D01*
X114652973Y-157932406D01*
X114480000Y-157898001D01*
X114307027Y-157932406D01*
X114302224Y-157935615D01*
X114200000Y-157935615D01*
X114060292Y-157961903D01*
X113931980Y-158044470D01*
X113845899Y-158170453D01*
X113815615Y-158320000D01*
X113815615Y-158375161D01*
X112872776Y-159318000D01*
X112284385Y-159318000D01*
X112284385Y-158320000D01*
X112258097Y-158180292D01*
X112175530Y-158051980D01*
X112049547Y-157965899D01*
X111900000Y-157935615D01*
X111677000Y-157935615D01*
X111677000Y-157190000D01*
X111640691Y-157007460D01*
X111537290Y-156852710D01*
X111436998Y-156752418D01*
X111437117Y-156615927D01*
X111334267Y-156367011D01*
X111143990Y-156176402D01*
X110895254Y-156073118D01*
X110625927Y-156072883D01*
X110377011Y-156175733D01*
X110186402Y-156366010D01*
X110083118Y-156614746D01*
X110082883Y-156884073D01*
X110185733Y-157132989D01*
X110376010Y-157323598D01*
X110624746Y-157426882D01*
X110723000Y-157426968D01*
X110723000Y-158720000D01*
X110759309Y-158902540D01*
X110803406Y-158968536D01*
X110799547Y-158965899D01*
X110650000Y-158935615D01*
X109650000Y-158935615D01*
X109510292Y-158961903D01*
X109381980Y-159044470D01*
X109295899Y-159170453D01*
X109265615Y-159320000D01*
X109265615Y-160120000D01*
X109291903Y-160259708D01*
X109348718Y-160348000D01*
X109057224Y-160348000D01*
X108068067Y-159358843D01*
X108087638Y-159329553D01*
X108181038Y-158860000D01*
X108087638Y-158390447D01*
X107821658Y-157992380D01*
X107423591Y-157726400D01*
X106954038Y-157633000D01*
X106905962Y-157633000D01*
X106436409Y-157726400D01*
X106038342Y-157992380D01*
X105780048Y-158378944D01*
X105661645Y-158093076D01*
X105271358Y-157664817D01*
X104840046Y-157462262D01*
X104883591Y-157453600D01*
X105281658Y-157187620D01*
X105547638Y-156789553D01*
X105641038Y-156320000D01*
X105678962Y-156320000D01*
X105772362Y-156789553D01*
X106038342Y-157187620D01*
X106436409Y-157453600D01*
X106905962Y-157547000D01*
X106954038Y-157547000D01*
X107423591Y-157453600D01*
X107821658Y-157187620D01*
X108087638Y-156789553D01*
X108181038Y-156320000D01*
X108087638Y-155850447D01*
X107821658Y-155452380D01*
X107423591Y-155186400D01*
X106954038Y-155093000D01*
X106905962Y-155093000D01*
X106436409Y-155186400D01*
X106038342Y-155452380D01*
X105772362Y-155850447D01*
X105678962Y-156320000D01*
X105641038Y-156320000D01*
X105547638Y-155850447D01*
X105281658Y-155452380D01*
X104883591Y-155186400D01*
X104414038Y-155093000D01*
X104365962Y-155093000D01*
X103896409Y-155186400D01*
X103498342Y-155452380D01*
X103232362Y-155850447D01*
X103138962Y-156320000D01*
X103232362Y-156789553D01*
X103498342Y-157187620D01*
X103896409Y-157453600D01*
X103939954Y-157462262D01*
X103508642Y-157664817D01*
X103118355Y-158093076D01*
X103032000Y-158301568D01*
X103032000Y-155024073D01*
X110852883Y-155024073D01*
X110955733Y-155272989D01*
X111146010Y-155463598D01*
X111394746Y-155566882D01*
X111664073Y-155567117D01*
X111912989Y-155464267D01*
X112103598Y-155273990D01*
X112206882Y-155025254D01*
X112207117Y-154755927D01*
X112104267Y-154507011D01*
X111913990Y-154316402D01*
X111665254Y-154213118D01*
X111395927Y-154212883D01*
X111147011Y-154315733D01*
X110956402Y-154506010D01*
X110853118Y-154754746D01*
X110852883Y-155024073D01*
X103032000Y-155024073D01*
X103032000Y-144781224D01*
X103525206Y-145274430D01*
X103525206Y-145274430D01*
G37*
X103525206Y-145274430D02*
X103498342Y-145292380D01*
X103232362Y-145690447D01*
X103138962Y-146160000D01*
X103232362Y-146629553D01*
X103498342Y-147027620D01*
X103896409Y-147293600D01*
X104365962Y-147387000D01*
X104414038Y-147387000D01*
X104883591Y-147293600D01*
X105218000Y-147070155D01*
X105218000Y-147789845D01*
X104883591Y-147566400D01*
X104414038Y-147473000D01*
X104365962Y-147473000D01*
X103896409Y-147566400D01*
X103498342Y-147832380D01*
X103232362Y-148230447D01*
X103138962Y-148700000D01*
X103232362Y-149169553D01*
X103498342Y-149567620D01*
X103896409Y-149833600D01*
X104365962Y-149927000D01*
X104414038Y-149927000D01*
X104883591Y-149833600D01*
X105218000Y-149610155D01*
X105218000Y-150329845D01*
X104883591Y-150106400D01*
X104414038Y-150013000D01*
X104365962Y-150013000D01*
X103896409Y-150106400D01*
X103498342Y-150372380D01*
X103232362Y-150770447D01*
X103138962Y-151240000D01*
X103232362Y-151709553D01*
X103498342Y-152107620D01*
X103896409Y-152373600D01*
X104365962Y-152467000D01*
X104414038Y-152467000D01*
X104883591Y-152373600D01*
X105218000Y-152150155D01*
X105218000Y-152222775D01*
X104809177Y-152631598D01*
X104414038Y-152553000D01*
X104365962Y-152553000D01*
X103896409Y-152646400D01*
X103498342Y-152912380D01*
X103232362Y-153310447D01*
X103138962Y-153780000D01*
X103232362Y-154249553D01*
X103498342Y-154647620D01*
X103896409Y-154913600D01*
X104365962Y-155007000D01*
X104414038Y-155007000D01*
X104883591Y-154913600D01*
X105281658Y-154647620D01*
X105547638Y-154249553D01*
X105641038Y-153780000D01*
X105547638Y-153310447D01*
X105492018Y-153227206D01*
X105989612Y-152729613D01*
X106087594Y-152582973D01*
X106092241Y-152559612D01*
X106122000Y-152410000D01*
X106122000Y-152163519D01*
X106436409Y-152373600D01*
X106905962Y-152467000D01*
X106954038Y-152467000D01*
X107423591Y-152373600D01*
X107821658Y-152107620D01*
X107898000Y-151993366D01*
X107898000Y-152172776D01*
X107424062Y-152646714D01*
X107423591Y-152646400D01*
X106954038Y-152553000D01*
X106905962Y-152553000D01*
X106436409Y-152646400D01*
X106038342Y-152912380D01*
X105772362Y-153310447D01*
X105678962Y-153780000D01*
X105772362Y-154249553D01*
X106038342Y-154647620D01*
X106436409Y-154913600D01*
X106905962Y-155007000D01*
X106954038Y-155007000D01*
X107423591Y-154913600D01*
X107821658Y-154647620D01*
X108087638Y-154249553D01*
X108181038Y-153780000D01*
X108087638Y-153310447D01*
X108068067Y-153281157D01*
X108669612Y-152679612D01*
X108767594Y-152532973D01*
X108779183Y-152474708D01*
X108802000Y-152360000D01*
X108802000Y-150251224D01*
X109573033Y-151022257D01*
X109572883Y-151194073D01*
X109675733Y-151442989D01*
X109866010Y-151633598D01*
X110114746Y-151736882D01*
X110384073Y-151737117D01*
X110632989Y-151634267D01*
X110823598Y-151443990D01*
X110926882Y-151195254D01*
X110927117Y-150925927D01*
X110824267Y-150677011D01*
X110633990Y-150486402D01*
X110385254Y-150383118D01*
X110212191Y-150382967D01*
X109452000Y-149622776D01*
X109452000Y-148357224D01*
X109842257Y-147966967D01*
X110014073Y-147967117D01*
X110262989Y-147864267D01*
X110453598Y-147673990D01*
X110536094Y-147475318D01*
X112960388Y-149899612D01*
X113107027Y-149997594D01*
X113213088Y-150018691D01*
X113212883Y-150254073D01*
X113315733Y-150502989D01*
X113506010Y-150693598D01*
X113754746Y-150796882D01*
X113892422Y-150797002D01*
X113983000Y-150887580D01*
X113983000Y-154260000D01*
X114019309Y-154442540D01*
X114122710Y-154597290D01*
X115623000Y-156097580D01*
X115623000Y-157950104D01*
X115560292Y-157961903D01*
X115431980Y-158044470D01*
X115345899Y-158170453D01*
X115315615Y-158320000D01*
X115315615Y-159820000D01*
X115341903Y-159959708D01*
X115369800Y-160003061D01*
X115231284Y-160002940D01*
X115254101Y-159969547D01*
X115284385Y-159820000D01*
X115284385Y-158320000D01*
X115258097Y-158180292D01*
X115175530Y-158051980D01*
X115049547Y-157965899D01*
X114900000Y-157935615D01*
X114657776Y-157935615D01*
X114652973Y-157932406D01*
X114480000Y-157898001D01*
X114307027Y-157932406D01*
X114302224Y-157935615D01*
X114200000Y-157935615D01*
X114060292Y-157961903D01*
X113931980Y-158044470D01*
X113845899Y-158170453D01*
X113815615Y-158320000D01*
X113815615Y-158375161D01*
X112872776Y-159318000D01*
X112284385Y-159318000D01*
X112284385Y-158320000D01*
X112258097Y-158180292D01*
X112175530Y-158051980D01*
X112049547Y-157965899D01*
X111900000Y-157935615D01*
X111677000Y-157935615D01*
X111677000Y-157190000D01*
X111640691Y-157007460D01*
X111537290Y-156852710D01*
X111436998Y-156752418D01*
X111437117Y-156615927D01*
X111334267Y-156367011D01*
X111143990Y-156176402D01*
X110895254Y-156073118D01*
X110625927Y-156072883D01*
X110377011Y-156175733D01*
X110186402Y-156366010D01*
X110083118Y-156614746D01*
X110082883Y-156884073D01*
X110185733Y-157132989D01*
X110376010Y-157323598D01*
X110624746Y-157426882D01*
X110723000Y-157426968D01*
X110723000Y-158720000D01*
X110759309Y-158902540D01*
X110803406Y-158968536D01*
X110799547Y-158965899D01*
X110650000Y-158935615D01*
X109650000Y-158935615D01*
X109510292Y-158961903D01*
X109381980Y-159044470D01*
X109295899Y-159170453D01*
X109265615Y-159320000D01*
X109265615Y-160120000D01*
X109291903Y-160259708D01*
X109348718Y-160348000D01*
X109057224Y-160348000D01*
X108068067Y-159358843D01*
X108087638Y-159329553D01*
X108181038Y-158860000D01*
X108087638Y-158390447D01*
X107821658Y-157992380D01*
X107423591Y-157726400D01*
X106954038Y-157633000D01*
X106905962Y-157633000D01*
X106436409Y-157726400D01*
X106038342Y-157992380D01*
X105780048Y-158378944D01*
X105661645Y-158093076D01*
X105271358Y-157664817D01*
X104840046Y-157462262D01*
X104883591Y-157453600D01*
X105281658Y-157187620D01*
X105547638Y-156789553D01*
X105641038Y-156320000D01*
X105678962Y-156320000D01*
X105772362Y-156789553D01*
X106038342Y-157187620D01*
X106436409Y-157453600D01*
X106905962Y-157547000D01*
X106954038Y-157547000D01*
X107423591Y-157453600D01*
X107821658Y-157187620D01*
X108087638Y-156789553D01*
X108181038Y-156320000D01*
X108087638Y-155850447D01*
X107821658Y-155452380D01*
X107423591Y-155186400D01*
X106954038Y-155093000D01*
X106905962Y-155093000D01*
X106436409Y-155186400D01*
X106038342Y-155452380D01*
X105772362Y-155850447D01*
X105678962Y-156320000D01*
X105641038Y-156320000D01*
X105547638Y-155850447D01*
X105281658Y-155452380D01*
X104883591Y-155186400D01*
X104414038Y-155093000D01*
X104365962Y-155093000D01*
X103896409Y-155186400D01*
X103498342Y-155452380D01*
X103232362Y-155850447D01*
X103138962Y-156320000D01*
X103232362Y-156789553D01*
X103498342Y-157187620D01*
X103896409Y-157453600D01*
X103939954Y-157462262D01*
X103508642Y-157664817D01*
X103118355Y-158093076D01*
X103032000Y-158301568D01*
X103032000Y-155024073D01*
X110852883Y-155024073D01*
X110955733Y-155272989D01*
X111146010Y-155463598D01*
X111394746Y-155566882D01*
X111664073Y-155567117D01*
X111912989Y-155464267D01*
X112103598Y-155273990D01*
X112206882Y-155025254D01*
X112207117Y-154755927D01*
X112104267Y-154507011D01*
X111913990Y-154316402D01*
X111665254Y-154213118D01*
X111395927Y-154212883D01*
X111147011Y-154315733D01*
X110956402Y-154506010D01*
X110853118Y-154754746D01*
X110852883Y-155024073D01*
X103032000Y-155024073D01*
X103032000Y-144781224D01*
X103525206Y-145274430D01*
G36*
X139982362Y-149659553D02*
X140248342Y-150057620D01*
X140646409Y-150323600D01*
X141115962Y-150417000D01*
X141164038Y-150417000D01*
X141633591Y-150323600D01*
X142031658Y-150057620D01*
X142118000Y-149928400D01*
X142118000Y-157235500D01*
X133587500Y-157235500D01*
X133541341Y-157244185D01*
X133498947Y-157271465D01*
X133470506Y-157313090D01*
X133460500Y-157362500D01*
X133460500Y-159767741D01*
X133450000Y-159765615D01*
X133050000Y-159765615D01*
X132910292Y-159791903D01*
X132798748Y-159863680D01*
X132699547Y-159795899D01*
X132550000Y-159765615D01*
X132150000Y-159765615D01*
X132010292Y-159791903D01*
X131881980Y-159874470D01*
X131852991Y-159916896D01*
X131837500Y-159913815D01*
X131784210Y-159913815D01*
X131788327Y-159909698D01*
X131885000Y-159676309D01*
X131885000Y-159608750D01*
X131726250Y-159450000D01*
X131077000Y-159450000D01*
X131077000Y-159497000D01*
X130823000Y-159497000D01*
X130823000Y-159450000D01*
X130173750Y-159450000D01*
X130015000Y-159608750D01*
X130015000Y-159676309D01*
X130111673Y-159909698D01*
X130115790Y-159913815D01*
X126979417Y-159913815D01*
X126089293Y-159023691D01*
X130015000Y-159023691D01*
X130015000Y-159091250D01*
X130173750Y-159250000D01*
X130823000Y-159250000D01*
X130823000Y-158673750D01*
X131077000Y-158673750D01*
X131077000Y-159250000D01*
X131726250Y-159250000D01*
X131885000Y-159091250D01*
X131885000Y-159023691D01*
X131788327Y-158790302D01*
X131609699Y-158611673D01*
X131376310Y-158515000D01*
X131235750Y-158515000D01*
X131077000Y-158673750D01*
X130823000Y-158673750D01*
X130664250Y-158515000D01*
X130523690Y-158515000D01*
X130290301Y-158611673D01*
X130111673Y-158790302D01*
X130015000Y-159023691D01*
X126089293Y-159023691D01*
X124297602Y-157232000D01*
X124970000Y-157232000D01*
X125142973Y-157197594D01*
X125289612Y-157099612D01*
X125475914Y-156913310D01*
X125586010Y-157023598D01*
X125834746Y-157126882D01*
X126104073Y-157127117D01*
X126352989Y-157024267D01*
X126475469Y-156902000D01*
X127450000Y-156902000D01*
X127501091Y-156891837D01*
X127600733Y-157132989D01*
X127791010Y-157323598D01*
X128039746Y-157426882D01*
X128309073Y-157427117D01*
X128557989Y-157324267D01*
X128748598Y-157133990D01*
X128782643Y-157052000D01*
X130000000Y-157052000D01*
X130172973Y-157017594D01*
X130319612Y-156919612D01*
X130387224Y-156852000D01*
X131600000Y-156852000D01*
X131772973Y-156817594D01*
X131919612Y-156719612D01*
X132275075Y-156364150D01*
X132375000Y-156384385D01*
X132875000Y-156384385D01*
X133014708Y-156358097D01*
X133143020Y-156275530D01*
X133229101Y-156149547D01*
X133259385Y-156000000D01*
X133259385Y-155962011D01*
X133406133Y-155952544D01*
X133464746Y-155976882D01*
X133734073Y-155977117D01*
X133982989Y-155874267D01*
X134173598Y-155683990D01*
X134276882Y-155435254D01*
X134277117Y-155165927D01*
X134263099Y-155132000D01*
X136580000Y-155132000D01*
X136752973Y-155097594D01*
X136899612Y-154999612D01*
X139327224Y-152572000D01*
X139365615Y-152572000D01*
X139365615Y-152970000D01*
X139391903Y-153109708D01*
X139474470Y-153238020D01*
X139600453Y-153324101D01*
X139750000Y-153354385D01*
X141450000Y-153354385D01*
X141589708Y-153328097D01*
X141718020Y-153245530D01*
X141804101Y-153119547D01*
X141834385Y-152970000D01*
X141834385Y-151270000D01*
X141808097Y-151130292D01*
X141725530Y-151001980D01*
X141599547Y-150915899D01*
X141450000Y-150885615D01*
X139750000Y-150885615D01*
X139610292Y-150911903D01*
X139481980Y-150994470D01*
X139395899Y-151120453D01*
X139365615Y-151270000D01*
X139365615Y-151668000D01*
X139140000Y-151668000D01*
X139084385Y-151679062D01*
X139084385Y-150040000D01*
X139058097Y-149900292D01*
X138975530Y-149771980D01*
X138849547Y-149685899D01*
X138700000Y-149655615D01*
X137000000Y-149655615D01*
X136860292Y-149681903D01*
X136731980Y-149764470D01*
X136645899Y-149890453D01*
X136615615Y-150040000D01*
X136615615Y-151485161D01*
X136072776Y-152028000D01*
X135551224Y-152028000D01*
X136219612Y-151359612D01*
X136317594Y-151212973D01*
X136352000Y-151040000D01*
X136352000Y-150675376D01*
X136473598Y-150553990D01*
X136576882Y-150305254D01*
X136577117Y-150035927D01*
X136474267Y-149787011D01*
X136329509Y-149642000D01*
X139978870Y-149642000D01*
X139982362Y-149659553D01*
X139982362Y-149659553D01*
G37*
X139982362Y-149659553D02*
X140248342Y-150057620D01*
X140646409Y-150323600D01*
X141115962Y-150417000D01*
X141164038Y-150417000D01*
X141633591Y-150323600D01*
X142031658Y-150057620D01*
X142118000Y-149928400D01*
X142118000Y-157235500D01*
X133587500Y-157235500D01*
X133541341Y-157244185D01*
X133498947Y-157271465D01*
X133470506Y-157313090D01*
X133460500Y-157362500D01*
X133460500Y-159767741D01*
X133450000Y-159765615D01*
X133050000Y-159765615D01*
X132910292Y-159791903D01*
X132798748Y-159863680D01*
X132699547Y-159795899D01*
X132550000Y-159765615D01*
X132150000Y-159765615D01*
X132010292Y-159791903D01*
X131881980Y-159874470D01*
X131852991Y-159916896D01*
X131837500Y-159913815D01*
X131784210Y-159913815D01*
X131788327Y-159909698D01*
X131885000Y-159676309D01*
X131885000Y-159608750D01*
X131726250Y-159450000D01*
X131077000Y-159450000D01*
X131077000Y-159497000D01*
X130823000Y-159497000D01*
X130823000Y-159450000D01*
X130173750Y-159450000D01*
X130015000Y-159608750D01*
X130015000Y-159676309D01*
X130111673Y-159909698D01*
X130115790Y-159913815D01*
X126979417Y-159913815D01*
X126089293Y-159023691D01*
X130015000Y-159023691D01*
X130015000Y-159091250D01*
X130173750Y-159250000D01*
X130823000Y-159250000D01*
X130823000Y-158673750D01*
X131077000Y-158673750D01*
X131077000Y-159250000D01*
X131726250Y-159250000D01*
X131885000Y-159091250D01*
X131885000Y-159023691D01*
X131788327Y-158790302D01*
X131609699Y-158611673D01*
X131376310Y-158515000D01*
X131235750Y-158515000D01*
X131077000Y-158673750D01*
X130823000Y-158673750D01*
X130664250Y-158515000D01*
X130523690Y-158515000D01*
X130290301Y-158611673D01*
X130111673Y-158790302D01*
X130015000Y-159023691D01*
X126089293Y-159023691D01*
X124297602Y-157232000D01*
X124970000Y-157232000D01*
X125142973Y-157197594D01*
X125289612Y-157099612D01*
X125475914Y-156913310D01*
X125586010Y-157023598D01*
X125834746Y-157126882D01*
X126104073Y-157127117D01*
X126352989Y-157024267D01*
X126475469Y-156902000D01*
X127450000Y-156902000D01*
X127501091Y-156891837D01*
X127600733Y-157132989D01*
X127791010Y-157323598D01*
X128039746Y-157426882D01*
X128309073Y-157427117D01*
X128557989Y-157324267D01*
X128748598Y-157133990D01*
X128782643Y-157052000D01*
X130000000Y-157052000D01*
X130172973Y-157017594D01*
X130319612Y-156919612D01*
X130387224Y-156852000D01*
X131600000Y-156852000D01*
X131772973Y-156817594D01*
X131919612Y-156719612D01*
X132275075Y-156364150D01*
X132375000Y-156384385D01*
X132875000Y-156384385D01*
X133014708Y-156358097D01*
X133143020Y-156275530D01*
X133229101Y-156149547D01*
X133259385Y-156000000D01*
X133259385Y-155962011D01*
X133406133Y-155952544D01*
X133464746Y-155976882D01*
X133734073Y-155977117D01*
X133982989Y-155874267D01*
X134173598Y-155683990D01*
X134276882Y-155435254D01*
X134277117Y-155165927D01*
X134263099Y-155132000D01*
X136580000Y-155132000D01*
X136752973Y-155097594D01*
X136899612Y-154999612D01*
X139327224Y-152572000D01*
X139365615Y-152572000D01*
X139365615Y-152970000D01*
X139391903Y-153109708D01*
X139474470Y-153238020D01*
X139600453Y-153324101D01*
X139750000Y-153354385D01*
X141450000Y-153354385D01*
X141589708Y-153328097D01*
X141718020Y-153245530D01*
X141804101Y-153119547D01*
X141834385Y-152970000D01*
X141834385Y-151270000D01*
X141808097Y-151130292D01*
X141725530Y-151001980D01*
X141599547Y-150915899D01*
X141450000Y-150885615D01*
X139750000Y-150885615D01*
X139610292Y-150911903D01*
X139481980Y-150994470D01*
X139395899Y-151120453D01*
X139365615Y-151270000D01*
X139365615Y-151668000D01*
X139140000Y-151668000D01*
X139084385Y-151679062D01*
X139084385Y-150040000D01*
X139058097Y-149900292D01*
X138975530Y-149771980D01*
X138849547Y-149685899D01*
X138700000Y-149655615D01*
X137000000Y-149655615D01*
X136860292Y-149681903D01*
X136731980Y-149764470D01*
X136645899Y-149890453D01*
X136615615Y-150040000D01*
X136615615Y-151485161D01*
X136072776Y-152028000D01*
X135551224Y-152028000D01*
X136219612Y-151359612D01*
X136317594Y-151212973D01*
X136352000Y-151040000D01*
X136352000Y-150675376D01*
X136473598Y-150553990D01*
X136576882Y-150305254D01*
X136577117Y-150035927D01*
X136474267Y-149787011D01*
X136329509Y-149642000D01*
X139978870Y-149642000D01*
X139982362Y-149659553D01*
G36*
X119963750Y-155553000D02*
X120079975Y-155553000D01*
X120140302Y-155613327D01*
X120373691Y-155710000D01*
X120455615Y-155710000D01*
X120455615Y-155807000D01*
X119963750Y-155807000D01*
X119805000Y-155965750D01*
X119805000Y-156211309D01*
X119882010Y-156397227D01*
X119694114Y-156474864D01*
X119561250Y-156342000D01*
X118960000Y-156342000D01*
X118960000Y-156362000D01*
X118710000Y-156362000D01*
X118710000Y-156342000D01*
X118688000Y-156342000D01*
X118688000Y-156088000D01*
X118710000Y-156088000D01*
X118710000Y-156068000D01*
X118960000Y-156068000D01*
X118960000Y-156088000D01*
X119561250Y-156088000D01*
X119720000Y-155929250D01*
X119720000Y-155788691D01*
X119623327Y-155555302D01*
X119587410Y-155519385D01*
X119930135Y-155519385D01*
X119963750Y-155553000D01*
X119963750Y-155553000D01*
G37*
X119963750Y-155553000D02*
X120079975Y-155553000D01*
X120140302Y-155613327D01*
X120373691Y-155710000D01*
X120455615Y-155710000D01*
X120455615Y-155807000D01*
X119963750Y-155807000D01*
X119805000Y-155965750D01*
X119805000Y-156211309D01*
X119882010Y-156397227D01*
X119694114Y-156474864D01*
X119561250Y-156342000D01*
X118960000Y-156342000D01*
X118960000Y-156362000D01*
X118710000Y-156362000D01*
X118710000Y-156342000D01*
X118688000Y-156342000D01*
X118688000Y-156088000D01*
X118710000Y-156088000D01*
X118710000Y-156068000D01*
X118960000Y-156068000D01*
X118960000Y-156088000D01*
X119561250Y-156088000D01*
X119720000Y-155929250D01*
X119720000Y-155788691D01*
X119623327Y-155555302D01*
X119587410Y-155519385D01*
X119930135Y-155519385D01*
X119963750Y-155553000D01*
G36*
X136392776Y-154228000D02*
X128019372Y-154228000D01*
X128143598Y-154103990D01*
X128246882Y-153855254D01*
X128247117Y-153585927D01*
X128233099Y-153552000D01*
X128540000Y-153552000D01*
X128712973Y-153517594D01*
X128859612Y-153419612D01*
X129347225Y-152932000D01*
X136260000Y-152932000D01*
X136432973Y-152897594D01*
X136579612Y-152799612D01*
X137254839Y-152124385D01*
X138496391Y-152124385D01*
X136392776Y-154228000D01*
X136392776Y-154228000D01*
G37*
X136392776Y-154228000D02*
X128019372Y-154228000D01*
X128143598Y-154103990D01*
X128246882Y-153855254D01*
X128247117Y-153585927D01*
X128233099Y-153552000D01*
X128540000Y-153552000D01*
X128712973Y-153517594D01*
X128859612Y-153419612D01*
X129347225Y-152932000D01*
X136260000Y-152932000D01*
X136432973Y-152897594D01*
X136579612Y-152799612D01*
X137254839Y-152124385D01*
X138496391Y-152124385D01*
X136392776Y-154228000D01*
G36*
X122477000Y-153098000D02*
X122497000Y-153098000D01*
X122497000Y-153352000D01*
X122477000Y-153352000D01*
X122477000Y-153372000D01*
X122223000Y-153372000D01*
X122223000Y-153352000D01*
X122203000Y-153352000D01*
X122203000Y-153098000D01*
X122223000Y-153098000D01*
X122223000Y-153078000D01*
X122477000Y-153078000D01*
X122477000Y-153098000D01*
X122477000Y-153098000D01*
G37*
X122477000Y-153098000D02*
X122497000Y-153098000D01*
X122497000Y-153352000D01*
X122477000Y-153352000D01*
X122477000Y-153372000D01*
X122223000Y-153372000D01*
X122223000Y-153352000D01*
X122203000Y-153352000D01*
X122203000Y-153098000D01*
X122223000Y-153098000D01*
X122223000Y-153078000D01*
X122477000Y-153078000D01*
X122477000Y-153098000D01*
G36*
X132211903Y-141559708D02*
X132294470Y-141688020D01*
X132420453Y-141774101D01*
X132570000Y-141804385D01*
X134238000Y-141804385D01*
X134238000Y-144862776D01*
X132910388Y-146190388D01*
X132825950Y-146316758D01*
X132656402Y-146486010D01*
X132553118Y-146734746D01*
X132552883Y-147004073D01*
X132655733Y-147252989D01*
X132846010Y-147443598D01*
X132959891Y-147490885D01*
X130887743Y-149563033D01*
X130715927Y-149562883D01*
X130467011Y-149665733D01*
X130276402Y-149856010D01*
X130173118Y-150104746D01*
X130172883Y-150374073D01*
X130189414Y-150414081D01*
X130137011Y-150435733D01*
X129946402Y-150626010D01*
X129843118Y-150874746D01*
X129843058Y-150943833D01*
X129718586Y-150819362D01*
X129717682Y-150818758D01*
X129717073Y-150817856D01*
X129644401Y-150769793D01*
X129571947Y-150721380D01*
X129570880Y-150721168D01*
X129569973Y-150720568D01*
X129484439Y-150703974D01*
X129398974Y-150686974D01*
X129397908Y-150687186D01*
X129396840Y-150686979D01*
X125077172Y-150707376D01*
X125053247Y-150707376D01*
X124880274Y-150741782D01*
X124733635Y-150839764D01*
X124688933Y-150906665D01*
X124664025Y-150930615D01*
X124653641Y-150930615D01*
X124644385Y-150921360D01*
X124644385Y-150494839D01*
X127029612Y-148109612D01*
X127127594Y-147962973D01*
X127162000Y-147790000D01*
X127162000Y-145627224D01*
X128142257Y-144646967D01*
X128314073Y-144647117D01*
X128562989Y-144544267D01*
X128753598Y-144353990D01*
X128856882Y-144105254D01*
X128857117Y-143835927D01*
X128754267Y-143587011D01*
X128563990Y-143396402D01*
X128315254Y-143293118D01*
X128045927Y-143292883D01*
X127797011Y-143395733D01*
X127606402Y-143586010D01*
X127503118Y-143834746D01*
X127502967Y-144007809D01*
X126390388Y-145120388D01*
X126292406Y-145267027D01*
X126258000Y-145440000D01*
X126258000Y-147602776D01*
X124427005Y-149433771D01*
X124427117Y-149305927D01*
X124324267Y-149057011D01*
X124133990Y-148866402D01*
X123885254Y-148763118D01*
X123686997Y-148762945D01*
X123687117Y-148625927D01*
X123645415Y-148525000D01*
X123704250Y-148525000D01*
X123863000Y-148366250D01*
X123863000Y-147765000D01*
X124117000Y-147765000D01*
X124117000Y-148366250D01*
X124275750Y-148525000D01*
X124416309Y-148525000D01*
X124649698Y-148428327D01*
X124828327Y-148249699D01*
X124925000Y-148016310D01*
X124925000Y-147923750D01*
X124766250Y-147765000D01*
X124117000Y-147765000D01*
X123863000Y-147765000D01*
X123843000Y-147765000D01*
X123843000Y-147515000D01*
X123863000Y-147515000D01*
X123863000Y-146913750D01*
X124117000Y-146913750D01*
X124117000Y-147515000D01*
X124766250Y-147515000D01*
X124925000Y-147356250D01*
X124925000Y-147263690D01*
X124828327Y-147030301D01*
X124649698Y-146851673D01*
X124416309Y-146755000D01*
X124275750Y-146755000D01*
X124117000Y-146913750D01*
X123863000Y-146913750D01*
X123704250Y-146755000D01*
X123563691Y-146755000D01*
X123458964Y-146798379D01*
X123454267Y-146787011D01*
X123263990Y-146596402D01*
X123015254Y-146493118D01*
X122746936Y-146492884D01*
X122674267Y-146317011D01*
X122483990Y-146126402D01*
X122235254Y-146023118D01*
X121965927Y-146022883D01*
X121717011Y-146125733D01*
X121526402Y-146316010D01*
X121423118Y-146564746D01*
X121422967Y-146737809D01*
X121402000Y-146758776D01*
X121402000Y-145711761D01*
X121534746Y-145766882D01*
X121804073Y-145767117D01*
X122052989Y-145664267D01*
X122243598Y-145473990D01*
X122279719Y-145387000D01*
X123620000Y-145387000D01*
X123802540Y-145350691D01*
X123957290Y-145247290D01*
X124677290Y-144527290D01*
X124780691Y-144372540D01*
X124817000Y-144190000D01*
X124817000Y-143887580D01*
X126597580Y-142107000D01*
X131430000Y-142107000D01*
X131612540Y-142070691D01*
X131767290Y-141967290D01*
X132206039Y-141528541D01*
X132211903Y-141559708D01*
X132211903Y-141559708D01*
G37*
X132211903Y-141559708D02*
X132294470Y-141688020D01*
X132420453Y-141774101D01*
X132570000Y-141804385D01*
X134238000Y-141804385D01*
X134238000Y-144862776D01*
X132910388Y-146190388D01*
X132825950Y-146316758D01*
X132656402Y-146486010D01*
X132553118Y-146734746D01*
X132552883Y-147004073D01*
X132655733Y-147252989D01*
X132846010Y-147443598D01*
X132959891Y-147490885D01*
X130887743Y-149563033D01*
X130715927Y-149562883D01*
X130467011Y-149665733D01*
X130276402Y-149856010D01*
X130173118Y-150104746D01*
X130172883Y-150374073D01*
X130189414Y-150414081D01*
X130137011Y-150435733D01*
X129946402Y-150626010D01*
X129843118Y-150874746D01*
X129843058Y-150943833D01*
X129718586Y-150819362D01*
X129717682Y-150818758D01*
X129717073Y-150817856D01*
X129644401Y-150769793D01*
X129571947Y-150721380D01*
X129570880Y-150721168D01*
X129569973Y-150720568D01*
X129484439Y-150703974D01*
X129398974Y-150686974D01*
X129397908Y-150687186D01*
X129396840Y-150686979D01*
X125077172Y-150707376D01*
X125053247Y-150707376D01*
X124880274Y-150741782D01*
X124733635Y-150839764D01*
X124688933Y-150906665D01*
X124664025Y-150930615D01*
X124653641Y-150930615D01*
X124644385Y-150921360D01*
X124644385Y-150494839D01*
X127029612Y-148109612D01*
X127127594Y-147962973D01*
X127162000Y-147790000D01*
X127162000Y-145627224D01*
X128142257Y-144646967D01*
X128314073Y-144647117D01*
X128562989Y-144544267D01*
X128753598Y-144353990D01*
X128856882Y-144105254D01*
X128857117Y-143835927D01*
X128754267Y-143587011D01*
X128563990Y-143396402D01*
X128315254Y-143293118D01*
X128045927Y-143292883D01*
X127797011Y-143395733D01*
X127606402Y-143586010D01*
X127503118Y-143834746D01*
X127502967Y-144007809D01*
X126390388Y-145120388D01*
X126292406Y-145267027D01*
X126258000Y-145440000D01*
X126258000Y-147602776D01*
X124427005Y-149433771D01*
X124427117Y-149305927D01*
X124324267Y-149057011D01*
X124133990Y-148866402D01*
X123885254Y-148763118D01*
X123686997Y-148762945D01*
X123687117Y-148625927D01*
X123645415Y-148525000D01*
X123704250Y-148525000D01*
X123863000Y-148366250D01*
X123863000Y-147765000D01*
X124117000Y-147765000D01*
X124117000Y-148366250D01*
X124275750Y-148525000D01*
X124416309Y-148525000D01*
X124649698Y-148428327D01*
X124828327Y-148249699D01*
X124925000Y-148016310D01*
X124925000Y-147923750D01*
X124766250Y-147765000D01*
X124117000Y-147765000D01*
X123863000Y-147765000D01*
X123843000Y-147765000D01*
X123843000Y-147515000D01*
X123863000Y-147515000D01*
X123863000Y-146913750D01*
X124117000Y-146913750D01*
X124117000Y-147515000D01*
X124766250Y-147515000D01*
X124925000Y-147356250D01*
X124925000Y-147263690D01*
X124828327Y-147030301D01*
X124649698Y-146851673D01*
X124416309Y-146755000D01*
X124275750Y-146755000D01*
X124117000Y-146913750D01*
X123863000Y-146913750D01*
X123704250Y-146755000D01*
X123563691Y-146755000D01*
X123458964Y-146798379D01*
X123454267Y-146787011D01*
X123263990Y-146596402D01*
X123015254Y-146493118D01*
X122746936Y-146492884D01*
X122674267Y-146317011D01*
X122483990Y-146126402D01*
X122235254Y-146023118D01*
X121965927Y-146022883D01*
X121717011Y-146125733D01*
X121526402Y-146316010D01*
X121423118Y-146564746D01*
X121422967Y-146737809D01*
X121402000Y-146758776D01*
X121402000Y-145711761D01*
X121534746Y-145766882D01*
X121804073Y-145767117D01*
X122052989Y-145664267D01*
X122243598Y-145473990D01*
X122279719Y-145387000D01*
X123620000Y-145387000D01*
X123802540Y-145350691D01*
X123957290Y-145247290D01*
X124677290Y-144527290D01*
X124780691Y-144372540D01*
X124817000Y-144190000D01*
X124817000Y-143887580D01*
X126597580Y-142107000D01*
X131430000Y-142107000D01*
X131612540Y-142070691D01*
X131767290Y-141967290D01*
X132206039Y-141528541D01*
X132211903Y-141559708D01*
G36*
X111938115Y-143906141D02*
X111938115Y-144292500D01*
X111964403Y-144432208D01*
X112046970Y-144560520D01*
X112172953Y-144646601D01*
X112322500Y-144676885D01*
X112922500Y-144676885D01*
X112993915Y-144663447D01*
X112993915Y-144707100D01*
X113020203Y-144846808D01*
X113102770Y-144975120D01*
X113228753Y-145061201D01*
X113378300Y-145091485D01*
X113813580Y-145091485D01*
X113302732Y-145602332D01*
X113260390Y-145665701D01*
X113238592Y-145669803D01*
X113110280Y-145752370D01*
X113024199Y-145878353D01*
X112993915Y-146027900D01*
X112993915Y-147297900D01*
X113020203Y-147437608D01*
X113102770Y-147565920D01*
X113228753Y-147652001D01*
X113378300Y-147682285D01*
X113804460Y-147682285D01*
X113958401Y-147836227D01*
X114191790Y-147932900D01*
X114311750Y-147932900D01*
X114470500Y-147774150D01*
X114470500Y-146789900D01*
X114450500Y-146789900D01*
X114450500Y-146535900D01*
X114470500Y-146535900D01*
X114470500Y-146515900D01*
X114724500Y-146515900D01*
X114724500Y-146535900D01*
X114744500Y-146535900D01*
X114744500Y-146789900D01*
X114724500Y-146789900D01*
X114724500Y-147774150D01*
X114883250Y-147932900D01*
X115003210Y-147932900D01*
X115236599Y-147836227D01*
X115390540Y-147682285D01*
X115587500Y-147682285D01*
X115587500Y-147818809D01*
X115684173Y-148052198D01*
X115764975Y-148133000D01*
X114930420Y-148133000D01*
X114833990Y-148036402D01*
X114585254Y-147933118D01*
X114315927Y-147932883D01*
X114067011Y-148035733D01*
X113876402Y-148226010D01*
X113773118Y-148474746D01*
X113773058Y-148543834D01*
X111196203Y-145966979D01*
X111354073Y-145967117D01*
X111602989Y-145864267D01*
X111793598Y-145673990D01*
X111896882Y-145425254D01*
X111897109Y-145165137D01*
X111922000Y-145040000D01*
X111922000Y-143890026D01*
X111938115Y-143906141D01*
X111938115Y-143906141D01*
G37*
X111938115Y-143906141D02*
X111938115Y-144292500D01*
X111964403Y-144432208D01*
X112046970Y-144560520D01*
X112172953Y-144646601D01*
X112322500Y-144676885D01*
X112922500Y-144676885D01*
X112993915Y-144663447D01*
X112993915Y-144707100D01*
X113020203Y-144846808D01*
X113102770Y-144975120D01*
X113228753Y-145061201D01*
X113378300Y-145091485D01*
X113813580Y-145091485D01*
X113302732Y-145602332D01*
X113260390Y-145665701D01*
X113238592Y-145669803D01*
X113110280Y-145752370D01*
X113024199Y-145878353D01*
X112993915Y-146027900D01*
X112993915Y-147297900D01*
X113020203Y-147437608D01*
X113102770Y-147565920D01*
X113228753Y-147652001D01*
X113378300Y-147682285D01*
X113804460Y-147682285D01*
X113958401Y-147836227D01*
X114191790Y-147932900D01*
X114311750Y-147932900D01*
X114470500Y-147774150D01*
X114470500Y-146789900D01*
X114450500Y-146789900D01*
X114450500Y-146535900D01*
X114470500Y-146535900D01*
X114470500Y-146515900D01*
X114724500Y-146515900D01*
X114724500Y-146535900D01*
X114744500Y-146535900D01*
X114744500Y-146789900D01*
X114724500Y-146789900D01*
X114724500Y-147774150D01*
X114883250Y-147932900D01*
X115003210Y-147932900D01*
X115236599Y-147836227D01*
X115390540Y-147682285D01*
X115587500Y-147682285D01*
X115587500Y-147818809D01*
X115684173Y-148052198D01*
X115764975Y-148133000D01*
X114930420Y-148133000D01*
X114833990Y-148036402D01*
X114585254Y-147933118D01*
X114315927Y-147932883D01*
X114067011Y-148035733D01*
X113876402Y-148226010D01*
X113773118Y-148474746D01*
X113773058Y-148543834D01*
X111196203Y-145966979D01*
X111354073Y-145967117D01*
X111602989Y-145864267D01*
X111793598Y-145673990D01*
X111896882Y-145425254D01*
X111897109Y-145165137D01*
X111922000Y-145040000D01*
X111922000Y-143890026D01*
X111938115Y-143906141D01*
G36*
X116597500Y-147265500D02*
X116619500Y-147265500D01*
X116619500Y-147519500D01*
X116597500Y-147519500D01*
X116597500Y-147539500D01*
X116347500Y-147539500D01*
X116347500Y-147519500D01*
X116325500Y-147519500D01*
X116325500Y-147265500D01*
X116347500Y-147265500D01*
X116347500Y-147245500D01*
X116597500Y-147245500D01*
X116597500Y-147265500D01*
X116597500Y-147265500D01*
G37*
X116597500Y-147265500D02*
X116619500Y-147265500D01*
X116619500Y-147519500D01*
X116597500Y-147519500D01*
X116597500Y-147539500D01*
X116347500Y-147539500D01*
X116347500Y-147519500D01*
X116325500Y-147519500D01*
X116325500Y-147265500D01*
X116347500Y-147265500D01*
X116347500Y-147245500D01*
X116597500Y-147245500D01*
X116597500Y-147265500D01*
G36*
X135490447Y-141727638D02*
X135960000Y-141821038D01*
X136429553Y-141727638D01*
X136458843Y-141708067D01*
X136640388Y-141889613D01*
X136787027Y-141987594D01*
X136960000Y-142022000D01*
X139978870Y-142022000D01*
X139982362Y-142039553D01*
X140248342Y-142437620D01*
X140646409Y-142703600D01*
X141115962Y-142797000D01*
X141164038Y-142797000D01*
X141633591Y-142703600D01*
X142031658Y-142437620D01*
X142118000Y-142308400D01*
X142118000Y-143371600D01*
X142031658Y-143242380D01*
X141633591Y-142976400D01*
X141164038Y-142883000D01*
X141115962Y-142883000D01*
X140646409Y-142976400D01*
X140248342Y-143242380D01*
X139982362Y-143640447D01*
X139978870Y-143658000D01*
X139660000Y-143658000D01*
X139487027Y-143692406D01*
X139340388Y-143790388D01*
X139247743Y-143883033D01*
X139075927Y-143882883D01*
X138827011Y-143985733D01*
X138636402Y-144176010D01*
X138533118Y-144424746D01*
X138532883Y-144694073D01*
X138635733Y-144942989D01*
X138826010Y-145133598D01*
X139074746Y-145236882D01*
X139344073Y-145237117D01*
X139592989Y-145134267D01*
X139783598Y-144943990D01*
X139886882Y-144695254D01*
X139886998Y-144562000D01*
X139978870Y-144562000D01*
X139982362Y-144579553D01*
X140248342Y-144977620D01*
X140646409Y-145243600D01*
X141115962Y-145337000D01*
X141164038Y-145337000D01*
X141633591Y-145243600D01*
X142031658Y-144977620D01*
X142118000Y-144848400D01*
X142118000Y-145911600D01*
X142031658Y-145782380D01*
X141633591Y-145516400D01*
X141164038Y-145423000D01*
X141115962Y-145423000D01*
X140646409Y-145516400D01*
X140248342Y-145782380D01*
X139982362Y-146180447D01*
X139978870Y-146198000D01*
X134440000Y-146198000D01*
X134267027Y-146232406D01*
X134120388Y-146330388D01*
X133850901Y-146599875D01*
X133829981Y-146549243D01*
X135009612Y-145369612D01*
X135107594Y-145222973D01*
X135142000Y-145050000D01*
X135142000Y-141494813D01*
X135490447Y-141727638D01*
X135490447Y-141727638D01*
G37*
X135490447Y-141727638D02*
X135960000Y-141821038D01*
X136429553Y-141727638D01*
X136458843Y-141708067D01*
X136640388Y-141889613D01*
X136787027Y-141987594D01*
X136960000Y-142022000D01*
X139978870Y-142022000D01*
X139982362Y-142039553D01*
X140248342Y-142437620D01*
X140646409Y-142703600D01*
X141115962Y-142797000D01*
X141164038Y-142797000D01*
X141633591Y-142703600D01*
X142031658Y-142437620D01*
X142118000Y-142308400D01*
X142118000Y-143371600D01*
X142031658Y-143242380D01*
X141633591Y-142976400D01*
X141164038Y-142883000D01*
X141115962Y-142883000D01*
X140646409Y-142976400D01*
X140248342Y-143242380D01*
X139982362Y-143640447D01*
X139978870Y-143658000D01*
X139660000Y-143658000D01*
X139487027Y-143692406D01*
X139340388Y-143790388D01*
X139247743Y-143883033D01*
X139075927Y-143882883D01*
X138827011Y-143985733D01*
X138636402Y-144176010D01*
X138533118Y-144424746D01*
X138532883Y-144694073D01*
X138635733Y-144942989D01*
X138826010Y-145133598D01*
X139074746Y-145236882D01*
X139344073Y-145237117D01*
X139592989Y-145134267D01*
X139783598Y-144943990D01*
X139886882Y-144695254D01*
X139886998Y-144562000D01*
X139978870Y-144562000D01*
X139982362Y-144579553D01*
X140248342Y-144977620D01*
X140646409Y-145243600D01*
X141115962Y-145337000D01*
X141164038Y-145337000D01*
X141633591Y-145243600D01*
X142031658Y-144977620D01*
X142118000Y-144848400D01*
X142118000Y-145911600D01*
X142031658Y-145782380D01*
X141633591Y-145516400D01*
X141164038Y-145423000D01*
X141115962Y-145423000D01*
X140646409Y-145516400D01*
X140248342Y-145782380D01*
X139982362Y-146180447D01*
X139978870Y-146198000D01*
X134440000Y-146198000D01*
X134267027Y-146232406D01*
X134120388Y-146330388D01*
X133850901Y-146599875D01*
X133829981Y-146549243D01*
X135009612Y-145369612D01*
X135107594Y-145222973D01*
X135142000Y-145050000D01*
X135142000Y-141494813D01*
X135490447Y-141727638D01*
G36*
X117123033Y-136982257D02*
X117122883Y-137154073D01*
X117225733Y-137402989D01*
X117416010Y-137593598D01*
X117664746Y-137696882D01*
X117934073Y-137697117D01*
X118182989Y-137594267D01*
X118373598Y-137403990D01*
X118447266Y-137226577D01*
X118664746Y-137316882D01*
X118934073Y-137317117D01*
X119182989Y-137214267D01*
X119373598Y-137023990D01*
X119476882Y-136775254D01*
X119477033Y-136602191D01*
X119767225Y-136312000D01*
X119914624Y-136312000D01*
X120006620Y-136404156D01*
X117930388Y-138480388D01*
X117832406Y-138627027D01*
X117798000Y-138800000D01*
X117798000Y-140902776D01*
X117299706Y-141401070D01*
X117073810Y-141307500D01*
X116981250Y-141307500D01*
X116822500Y-141466250D01*
X116822500Y-142115500D01*
X116844500Y-142115500D01*
X116844500Y-142369500D01*
X116822500Y-142369500D01*
X116822500Y-142389500D01*
X116572500Y-142389500D01*
X116572500Y-142369500D01*
X116550500Y-142369500D01*
X116550500Y-142115500D01*
X116572500Y-142115500D01*
X116572500Y-141466250D01*
X116413750Y-141307500D01*
X116321190Y-141307500D01*
X116087801Y-141404173D01*
X115909173Y-141582802D01*
X115888922Y-141631691D01*
X115772500Y-141608115D01*
X114972500Y-141608115D01*
X114832792Y-141634403D01*
X114704480Y-141716970D01*
X114621420Y-141838531D01*
X114548030Y-141724480D01*
X114422047Y-141638399D01*
X114272500Y-141608115D01*
X113472500Y-141608115D01*
X113332792Y-141634403D01*
X113204480Y-141716970D01*
X113118399Y-141842953D01*
X113088115Y-141992500D01*
X113088115Y-142373781D01*
X113048810Y-142357500D01*
X112908250Y-142357500D01*
X112749500Y-142516250D01*
X112749500Y-143092500D01*
X112769500Y-143092500D01*
X112769500Y-143292500D01*
X112749500Y-143292500D01*
X112749500Y-143339500D01*
X112495500Y-143339500D01*
X112495500Y-143292500D01*
X112475500Y-143292500D01*
X112475500Y-143092500D01*
X112495500Y-143092500D01*
X112495500Y-142516250D01*
X112336750Y-142357500D01*
X112196190Y-142357500D01*
X111962801Y-142454173D01*
X111784173Y-142632802D01*
X111687500Y-142866191D01*
X111687500Y-142933750D01*
X111819248Y-143065498D01*
X111687500Y-143065498D01*
X111687500Y-143078275D01*
X110036967Y-141427743D01*
X110037117Y-141255927D01*
X109934267Y-141007011D01*
X109743990Y-140816402D01*
X109495254Y-140713118D01*
X109272002Y-140712923D01*
X109272002Y-138517222D01*
X112863634Y-134925591D01*
X112815899Y-134995453D01*
X112785615Y-135145000D01*
X112785615Y-137585000D01*
X112811903Y-137724708D01*
X112837025Y-137763748D01*
X112687011Y-137825733D01*
X112496402Y-138016010D01*
X112393118Y-138264746D01*
X112392883Y-138534073D01*
X112495733Y-138782989D01*
X112686010Y-138973598D01*
X112934746Y-139076882D01*
X113204073Y-139077117D01*
X113452989Y-138974267D01*
X113643598Y-138783990D01*
X113746882Y-138535254D01*
X113747117Y-138265927D01*
X113644267Y-138017011D01*
X113596724Y-137969385D01*
X114290000Y-137969385D01*
X114429708Y-137943097D01*
X114558020Y-137860530D01*
X114644101Y-137734547D01*
X114674385Y-137585000D01*
X114674385Y-135145000D01*
X114648097Y-135005292D01*
X114565530Y-134876980D01*
X114514335Y-134842000D01*
X114982776Y-134842000D01*
X117123033Y-136982257D01*
X117123033Y-136982257D01*
G37*
X117123033Y-136982257D02*
X117122883Y-137154073D01*
X117225733Y-137402989D01*
X117416010Y-137593598D01*
X117664746Y-137696882D01*
X117934073Y-137697117D01*
X118182989Y-137594267D01*
X118373598Y-137403990D01*
X118447266Y-137226577D01*
X118664746Y-137316882D01*
X118934073Y-137317117D01*
X119182989Y-137214267D01*
X119373598Y-137023990D01*
X119476882Y-136775254D01*
X119477033Y-136602191D01*
X119767225Y-136312000D01*
X119914624Y-136312000D01*
X120006620Y-136404156D01*
X117930388Y-138480388D01*
X117832406Y-138627027D01*
X117798000Y-138800000D01*
X117798000Y-140902776D01*
X117299706Y-141401070D01*
X117073810Y-141307500D01*
X116981250Y-141307500D01*
X116822500Y-141466250D01*
X116822500Y-142115500D01*
X116844500Y-142115500D01*
X116844500Y-142369500D01*
X116822500Y-142369500D01*
X116822500Y-142389500D01*
X116572500Y-142389500D01*
X116572500Y-142369500D01*
X116550500Y-142369500D01*
X116550500Y-142115500D01*
X116572500Y-142115500D01*
X116572500Y-141466250D01*
X116413750Y-141307500D01*
X116321190Y-141307500D01*
X116087801Y-141404173D01*
X115909173Y-141582802D01*
X115888922Y-141631691D01*
X115772500Y-141608115D01*
X114972500Y-141608115D01*
X114832792Y-141634403D01*
X114704480Y-141716970D01*
X114621420Y-141838531D01*
X114548030Y-141724480D01*
X114422047Y-141638399D01*
X114272500Y-141608115D01*
X113472500Y-141608115D01*
X113332792Y-141634403D01*
X113204480Y-141716970D01*
X113118399Y-141842953D01*
X113088115Y-141992500D01*
X113088115Y-142373781D01*
X113048810Y-142357500D01*
X112908250Y-142357500D01*
X112749500Y-142516250D01*
X112749500Y-143092500D01*
X112769500Y-143092500D01*
X112769500Y-143292500D01*
X112749500Y-143292500D01*
X112749500Y-143339500D01*
X112495500Y-143339500D01*
X112495500Y-143292500D01*
X112475500Y-143292500D01*
X112475500Y-143092500D01*
X112495500Y-143092500D01*
X112495500Y-142516250D01*
X112336750Y-142357500D01*
X112196190Y-142357500D01*
X111962801Y-142454173D01*
X111784173Y-142632802D01*
X111687500Y-142866191D01*
X111687500Y-142933750D01*
X111819248Y-143065498D01*
X111687500Y-143065498D01*
X111687500Y-143078275D01*
X110036967Y-141427743D01*
X110037117Y-141255927D01*
X109934267Y-141007011D01*
X109743990Y-140816402D01*
X109495254Y-140713118D01*
X109272002Y-140712923D01*
X109272002Y-138517222D01*
X112863634Y-134925591D01*
X112815899Y-134995453D01*
X112785615Y-135145000D01*
X112785615Y-137585000D01*
X112811903Y-137724708D01*
X112837025Y-137763748D01*
X112687011Y-137825733D01*
X112496402Y-138016010D01*
X112393118Y-138264746D01*
X112392883Y-138534073D01*
X112495733Y-138782989D01*
X112686010Y-138973598D01*
X112934746Y-139076882D01*
X113204073Y-139077117D01*
X113452989Y-138974267D01*
X113643598Y-138783990D01*
X113746882Y-138535254D01*
X113747117Y-138265927D01*
X113644267Y-138017011D01*
X113596724Y-137969385D01*
X114290000Y-137969385D01*
X114429708Y-137943097D01*
X114558020Y-137860530D01*
X114644101Y-137734547D01*
X114674385Y-137585000D01*
X114674385Y-135145000D01*
X114648097Y-135005292D01*
X114565530Y-134876980D01*
X114514335Y-134842000D01*
X114982776Y-134842000D01*
X117123033Y-136982257D01*
G36*
X118683750Y-141475000D02*
X119333000Y-141475000D01*
X119333000Y-141453000D01*
X119587000Y-141453000D01*
X119587000Y-141475000D01*
X119607000Y-141475000D01*
X119607000Y-141725000D01*
X119587000Y-141725000D01*
X119587000Y-142575000D01*
X119607000Y-142575000D01*
X119607000Y-142825000D01*
X119587000Y-142825000D01*
X119587000Y-142847000D01*
X119344922Y-142847000D01*
X119324267Y-142797011D01*
X119313000Y-142785724D01*
X119313000Y-142575000D01*
X119333000Y-142575000D01*
X119333000Y-141725000D01*
X118683750Y-141725000D01*
X118623004Y-141785746D01*
X118433990Y-141596402D01*
X118397835Y-141581389D01*
X118569612Y-141409612D01*
X118589139Y-141380389D01*
X118683750Y-141475000D01*
X118683750Y-141475000D01*
G37*
X118683750Y-141475000D02*
X119333000Y-141475000D01*
X119333000Y-141453000D01*
X119587000Y-141453000D01*
X119587000Y-141475000D01*
X119607000Y-141475000D01*
X119607000Y-141725000D01*
X119587000Y-141725000D01*
X119587000Y-142575000D01*
X119607000Y-142575000D01*
X119607000Y-142825000D01*
X119587000Y-142825000D01*
X119587000Y-142847000D01*
X119344922Y-142847000D01*
X119324267Y-142797011D01*
X119313000Y-142785724D01*
X119313000Y-142575000D01*
X119333000Y-142575000D01*
X119333000Y-141725000D01*
X118683750Y-141725000D01*
X118623004Y-141785746D01*
X118433990Y-141596402D01*
X118397835Y-141581389D01*
X118569612Y-141409612D01*
X118589139Y-141380389D01*
X118683750Y-141475000D01*
G36*
X112631673Y-126175302D02*
X112535000Y-126408691D01*
X112535000Y-127469250D01*
X112693750Y-127628000D01*
X113603000Y-127628000D01*
X113603000Y-127608000D01*
X113857000Y-127608000D01*
X113857000Y-127628000D01*
X114766250Y-127628000D01*
X114925000Y-127469250D01*
X114925000Y-126408691D01*
X114828327Y-126175302D01*
X114745025Y-126092000D01*
X117245932Y-126092000D01*
X117150000Y-126383000D01*
X117150000Y-126683000D01*
X118058000Y-126683000D01*
X118058000Y-126663000D01*
X118312000Y-126663000D01*
X118312000Y-126683000D01*
X119220000Y-126683000D01*
X119220000Y-126383000D01*
X119124068Y-126092000D01*
X126225932Y-126092000D01*
X126130000Y-126383000D01*
X126130000Y-126683000D01*
X127038000Y-126683000D01*
X127038000Y-126663000D01*
X127292000Y-126663000D01*
X127292000Y-126683000D01*
X128200000Y-126683000D01*
X128200000Y-126383000D01*
X128107365Y-126102000D01*
X142118000Y-126102000D01*
X142118000Y-135005700D01*
X142116309Y-135005000D01*
X141425750Y-135005000D01*
X141267000Y-135163750D01*
X141267000Y-136363000D01*
X141287000Y-136363000D01*
X141287000Y-136617000D01*
X141267000Y-136617000D01*
X141267000Y-136637000D01*
X141013000Y-136637000D01*
X141013000Y-136617000D01*
X139813750Y-136617000D01*
X139655000Y-136775750D01*
X139655000Y-137466310D01*
X139751673Y-137699699D01*
X139930302Y-137878327D01*
X140163691Y-137975000D01*
X140528776Y-137975000D01*
X140248342Y-138162380D01*
X139982362Y-138560447D01*
X139888962Y-139030000D01*
X139982362Y-139499553D01*
X140248342Y-139897620D01*
X140646409Y-140163600D01*
X141115962Y-140257000D01*
X141164038Y-140257000D01*
X141633591Y-140163600D01*
X142031658Y-139897620D01*
X142118000Y-139768400D01*
X142118000Y-140831600D01*
X142031658Y-140702380D01*
X141633591Y-140436400D01*
X141164038Y-140343000D01*
X141115962Y-140343000D01*
X140646409Y-140436400D01*
X140248342Y-140702380D01*
X139982362Y-141100447D01*
X139978870Y-141118000D01*
X137147225Y-141118000D01*
X137093286Y-141064061D01*
X137093600Y-141063591D01*
X137187000Y-140594038D01*
X137187000Y-140545962D01*
X137093600Y-140076409D01*
X136827620Y-139678342D01*
X136429553Y-139412362D01*
X135960000Y-139318962D01*
X135490447Y-139412362D01*
X135142000Y-139645187D01*
X135142000Y-139035000D01*
X136274250Y-139035000D01*
X136433000Y-138876250D01*
X136433000Y-137477000D01*
X136687000Y-137477000D01*
X136687000Y-138876250D01*
X136845750Y-139035000D01*
X138036309Y-139035000D01*
X138269698Y-138938327D01*
X138448327Y-138759699D01*
X138545000Y-138526310D01*
X138545000Y-137635750D01*
X138386250Y-137477000D01*
X136687000Y-137477000D01*
X136433000Y-137477000D01*
X134733750Y-137477000D01*
X134575000Y-137635750D01*
X134575000Y-137915776D01*
X133689612Y-137030388D01*
X133542973Y-136932406D01*
X133370000Y-136898000D01*
X132994385Y-136898000D01*
X132994385Y-136300000D01*
X132968097Y-136160292D01*
X132885530Y-136031980D01*
X132759547Y-135945899D01*
X132610000Y-135915615D01*
X129910000Y-135915615D01*
X129770292Y-135941903D01*
X129641980Y-136024470D01*
X129555899Y-136150453D01*
X129525615Y-136300000D01*
X129525615Y-138400000D01*
X129551903Y-138539708D01*
X129634470Y-138668020D01*
X129760453Y-138754101D01*
X129910000Y-138784385D01*
X130709814Y-138784385D01*
X130631980Y-138834470D01*
X130545899Y-138960453D01*
X130515615Y-139110000D01*
X130515615Y-139696359D01*
X130361673Y-139850302D01*
X130265000Y-140083691D01*
X130265000Y-140224250D01*
X130423750Y-140383000D01*
X131025000Y-140383000D01*
X131025000Y-140363000D01*
X131275000Y-140363000D01*
X131275000Y-140383000D01*
X131297000Y-140383000D01*
X131297000Y-140637000D01*
X131275000Y-140637000D01*
X131275000Y-140657000D01*
X131025000Y-140657000D01*
X131025000Y-140637000D01*
X130423750Y-140637000D01*
X130265000Y-140795750D01*
X130265000Y-140936309D01*
X130354756Y-141153000D01*
X126400000Y-141153000D01*
X126217460Y-141189309D01*
X126062710Y-141292710D01*
X125954716Y-141400704D01*
X125924267Y-141327011D01*
X125733990Y-141136402D01*
X125688413Y-141117477D01*
X125792989Y-141074267D01*
X125983598Y-140883990D01*
X126086882Y-140635254D01*
X126087117Y-140365927D01*
X126015505Y-140192613D01*
X126044385Y-140050000D01*
X126044385Y-139463641D01*
X126198327Y-139309698D01*
X126295000Y-139076309D01*
X126295000Y-138935750D01*
X126136250Y-138777000D01*
X125535000Y-138777000D01*
X125535000Y-138797000D01*
X125285000Y-138797000D01*
X125285000Y-138777000D01*
X125282000Y-138777000D01*
X125282000Y-138523000D01*
X125285000Y-138523000D01*
X125285000Y-137873750D01*
X125535000Y-137873750D01*
X125535000Y-138523000D01*
X126136250Y-138523000D01*
X126295000Y-138364250D01*
X126295000Y-138223691D01*
X126198327Y-137990302D01*
X126019699Y-137811673D01*
X125786310Y-137715000D01*
X125693750Y-137715000D01*
X125535000Y-137873750D01*
X125285000Y-137873750D01*
X125126250Y-137715000D01*
X125106952Y-137715000D01*
X125107117Y-137525927D01*
X125004267Y-137277011D01*
X124813990Y-137086402D01*
X124565254Y-136983118D01*
X124346298Y-136982927D01*
X124409612Y-136919613D01*
X124507594Y-136772973D01*
X124512755Y-136747027D01*
X124542000Y-136600000D01*
X124542000Y-135960000D01*
X124507594Y-135787027D01*
X124409612Y-135640388D01*
X124377000Y-135607776D01*
X124377000Y-135404385D01*
X124575000Y-135404385D01*
X124678671Y-135384878D01*
X124757895Y-135400921D01*
X124915302Y-135558327D01*
X125148691Y-135655000D01*
X125191250Y-135655000D01*
X125350000Y-135496250D01*
X125350000Y-135285314D01*
X125429101Y-135169547D01*
X125459385Y-135020000D01*
X125459385Y-134523000D01*
X125500000Y-134523000D01*
X125500000Y-134543000D01*
X125572000Y-134543000D01*
X125572000Y-134797000D01*
X125500000Y-134797000D01*
X125500000Y-135496250D01*
X125658750Y-135655000D01*
X125701309Y-135655000D01*
X125934698Y-135558327D01*
X125937275Y-135555750D01*
X127945000Y-135555750D01*
X127945000Y-135696309D01*
X128041673Y-135929698D01*
X128220301Y-136108327D01*
X128453690Y-136205000D01*
X128546250Y-136205000D01*
X128705000Y-136046250D01*
X128705000Y-135397000D01*
X128103750Y-135397000D01*
X127945000Y-135555750D01*
X125937275Y-135555750D01*
X126113327Y-135379699D01*
X126210000Y-135146310D01*
X126210000Y-134955750D01*
X126097941Y-134843691D01*
X127945000Y-134843691D01*
X127945000Y-134984250D01*
X128103750Y-135143000D01*
X128705000Y-135143000D01*
X128705000Y-135123000D01*
X128955000Y-135123000D01*
X128955000Y-135143000D01*
X128977000Y-135143000D01*
X128977000Y-135397000D01*
X128955000Y-135397000D01*
X128955000Y-136046250D01*
X129113750Y-136205000D01*
X129206310Y-136205000D01*
X129439699Y-136108327D01*
X129618327Y-135929698D01*
X129715000Y-135696309D01*
X129715000Y-135623044D01*
X129760453Y-135654101D01*
X129910000Y-135684385D01*
X132610000Y-135684385D01*
X132749708Y-135658097D01*
X132878020Y-135575530D01*
X132964101Y-135449547D01*
X132994385Y-135300000D01*
X132994385Y-134535750D01*
X134575000Y-134535750D01*
X134575000Y-135426310D01*
X134671673Y-135659699D01*
X134811975Y-135800000D01*
X134671673Y-135940301D01*
X134575000Y-136173690D01*
X134575000Y-137064250D01*
X134733750Y-137223000D01*
X136433000Y-137223000D01*
X136433000Y-135823750D01*
X136409250Y-135800000D01*
X136433000Y-135776250D01*
X136433000Y-134377000D01*
X136687000Y-134377000D01*
X136687000Y-135776250D01*
X136710750Y-135800000D01*
X136687000Y-135823750D01*
X136687000Y-137223000D01*
X138386250Y-137223000D01*
X138545000Y-137064250D01*
X138545000Y-136173690D01*
X138448327Y-135940301D01*
X138308025Y-135800000D01*
X138448327Y-135659699D01*
X138508805Y-135513690D01*
X139655000Y-135513690D01*
X139655000Y-136204250D01*
X139813750Y-136363000D01*
X141013000Y-136363000D01*
X141013000Y-135163750D01*
X140854250Y-135005000D01*
X140163691Y-135005000D01*
X139930302Y-135101673D01*
X139751673Y-135280301D01*
X139655000Y-135513690D01*
X138508805Y-135513690D01*
X138545000Y-135426310D01*
X138545000Y-134535750D01*
X138386250Y-134377000D01*
X136687000Y-134377000D01*
X136433000Y-134377000D01*
X134733750Y-134377000D01*
X134575000Y-134535750D01*
X132994385Y-134535750D01*
X132994385Y-134421970D01*
X132996010Y-134423598D01*
X133244746Y-134526882D01*
X133514073Y-134527117D01*
X133762989Y-134424267D01*
X133953598Y-134233990D01*
X134056882Y-133985254D01*
X134057117Y-133715927D01*
X133954267Y-133467011D01*
X133763990Y-133276402D01*
X133515254Y-133173118D01*
X133245927Y-133172883D01*
X132997011Y-133275733D01*
X132994385Y-133278354D01*
X132994385Y-133200000D01*
X132968097Y-133060292D01*
X132885530Y-132931980D01*
X132759547Y-132845899D01*
X132610000Y-132815615D01*
X129910000Y-132815615D01*
X129770292Y-132841903D01*
X129641980Y-132924470D01*
X129555899Y-133050453D01*
X129525615Y-133200000D01*
X129525615Y-133798000D01*
X129450837Y-133798000D01*
X129438097Y-133730292D01*
X129355530Y-133601980D01*
X129229547Y-133515899D01*
X129080000Y-133485615D01*
X128580000Y-133485615D01*
X128440292Y-133511903D01*
X128311980Y-133594470D01*
X128225899Y-133720453D01*
X128195615Y-133870000D01*
X128195615Y-134456359D01*
X128041673Y-134610302D01*
X127945000Y-134843691D01*
X126097941Y-134843691D01*
X126051252Y-134797002D01*
X126210000Y-134797002D01*
X126210000Y-134711944D01*
X126414024Y-134712122D01*
X126672132Y-134605474D01*
X126869780Y-134408170D01*
X126976878Y-134150249D01*
X126977041Y-133963136D01*
X127091123Y-134054666D01*
X127447053Y-133881658D01*
X127712615Y-133573410D01*
X127840000Y-133187000D01*
X127840000Y-132887000D01*
X126932000Y-132887000D01*
X126932000Y-132907000D01*
X126678000Y-132907000D01*
X126678000Y-132887000D01*
X126658000Y-132887000D01*
X126658000Y-132633000D01*
X126678000Y-132633000D01*
X126678000Y-131593002D01*
X126518877Y-131465334D01*
X126162947Y-131638342D01*
X125897385Y-131946590D01*
X125770000Y-132333000D01*
X125770000Y-132446393D01*
X125742806Y-132437926D01*
X125670474Y-132262868D01*
X125473170Y-132065220D01*
X125215249Y-131958122D01*
X124935976Y-131957878D01*
X124677868Y-132064526D01*
X124675168Y-132067221D01*
X124673170Y-132065220D01*
X124415249Y-131958122D01*
X124135976Y-131957878D01*
X123877868Y-132064526D01*
X123875168Y-132067221D01*
X123873170Y-132065220D01*
X123615249Y-131958122D01*
X123335976Y-131957878D01*
X123077868Y-132064526D01*
X122880220Y-132261830D01*
X122773122Y-132519751D01*
X122772942Y-132725242D01*
X122677868Y-132764526D01*
X122675168Y-132767221D01*
X122673170Y-132765220D01*
X122576944Y-132725263D01*
X122577122Y-132520976D01*
X122470474Y-132262868D01*
X122273170Y-132065220D01*
X122015249Y-131958122D01*
X121735976Y-131957878D01*
X121477868Y-132064526D01*
X121475168Y-132067221D01*
X121473170Y-132065220D01*
X121347050Y-132012850D01*
X121347117Y-131935927D01*
X121244267Y-131687011D01*
X121053990Y-131496402D01*
X120805254Y-131393118D01*
X120535927Y-131392883D01*
X120287011Y-131495733D01*
X120096402Y-131686010D01*
X119993118Y-131934746D01*
X119993046Y-132016935D01*
X119877868Y-132064526D01*
X119680220Y-132261830D01*
X119614649Y-132419742D01*
X119597738Y-132421283D01*
X119580000Y-132428630D01*
X119580000Y-132333000D01*
X119452615Y-131946590D01*
X119187053Y-131638342D01*
X118831123Y-131465334D01*
X118672000Y-131593002D01*
X118672000Y-132633000D01*
X118692000Y-132633000D01*
X118692000Y-132887000D01*
X118672000Y-132887000D01*
X118672000Y-132907000D01*
X118418000Y-132907000D01*
X118418000Y-132887000D01*
X117510000Y-132887000D01*
X117510000Y-133187000D01*
X117637385Y-133573410D01*
X117902947Y-133881658D01*
X118210517Y-134031159D01*
X118259745Y-134278644D01*
X118411919Y-134506389D01*
X118639664Y-134658563D01*
X118908308Y-134712000D01*
X119140000Y-134712000D01*
X119140000Y-134797002D01*
X119298748Y-134797002D01*
X119140000Y-134955750D01*
X119140000Y-135146310D01*
X119236673Y-135379699D01*
X119342498Y-135485523D01*
X119260388Y-135540387D01*
X118837743Y-135963033D01*
X118665927Y-135962883D01*
X118417011Y-136065733D01*
X118226402Y-136256010D01*
X118152734Y-136433423D01*
X117935254Y-136343118D01*
X117762191Y-136342967D01*
X115489612Y-134070388D01*
X115342973Y-133972406D01*
X115170000Y-133938000D01*
X112760000Y-133938000D01*
X112587027Y-133972406D01*
X112440388Y-134070387D01*
X108972000Y-137538776D01*
X108972000Y-137107224D01*
X113437224Y-132642000D01*
X115870000Y-132642000D01*
X116042973Y-132607594D01*
X116189612Y-132509612D01*
X116366224Y-132333000D01*
X117510000Y-132333000D01*
X117510000Y-132633000D01*
X118418000Y-132633000D01*
X118418000Y-131593002D01*
X118258877Y-131465334D01*
X117902947Y-131638342D01*
X117637385Y-131946590D01*
X117510000Y-132333000D01*
X116366224Y-132333000D01*
X118217224Y-130482000D01*
X126012776Y-130482000D01*
X127038406Y-131507630D01*
X126932000Y-131593002D01*
X126932000Y-132633000D01*
X127840000Y-132633000D01*
X127840000Y-132333000D01*
X127828307Y-132297531D01*
X128150388Y-132619612D01*
X128297027Y-132717594D01*
X128470000Y-132752000D01*
X134759974Y-132752000D01*
X134671673Y-132840301D01*
X134575000Y-133073690D01*
X134575000Y-133964250D01*
X134733750Y-134123000D01*
X136433000Y-134123000D01*
X136433000Y-134103000D01*
X136687000Y-134103000D01*
X136687000Y-134123000D01*
X138386250Y-134123000D01*
X138545000Y-133964250D01*
X138545000Y-133073690D01*
X138448327Y-132840301D01*
X138269698Y-132661673D01*
X138036309Y-132565000D01*
X137490378Y-132565000D01*
X137506882Y-132525254D01*
X137507033Y-132352191D01*
X137874612Y-131984612D01*
X137972594Y-131837973D01*
X138007000Y-131665000D01*
X138007000Y-130912224D01*
X138649224Y-130270000D01*
X139428962Y-130270000D01*
X139522362Y-130739553D01*
X139788342Y-131137620D01*
X140186409Y-131403600D01*
X140655962Y-131497000D01*
X140704038Y-131497000D01*
X141173591Y-131403600D01*
X141571658Y-131137620D01*
X141837638Y-130739553D01*
X141931038Y-130270000D01*
X141837638Y-129800447D01*
X141571658Y-129402380D01*
X141173591Y-129136400D01*
X140704038Y-129043000D01*
X140655962Y-129043000D01*
X140186409Y-129136400D01*
X139788342Y-129402380D01*
X139522362Y-129800447D01*
X139428962Y-130270000D01*
X138649224Y-130270000D01*
X139954840Y-128964385D01*
X141530000Y-128964385D01*
X141669708Y-128938097D01*
X141798020Y-128855530D01*
X141884101Y-128729547D01*
X141914385Y-128580000D01*
X141914385Y-126880000D01*
X141888097Y-126740292D01*
X141805530Y-126611980D01*
X141679547Y-126525899D01*
X141530000Y-126495615D01*
X139830000Y-126495615D01*
X139690292Y-126521903D01*
X139561980Y-126604470D01*
X139475899Y-126730453D01*
X139445615Y-126880000D01*
X139445615Y-128195160D01*
X137235390Y-130405386D01*
X137235387Y-130405388D01*
X135792776Y-131848000D01*
X128657224Y-131848000D01*
X127039224Y-130230000D01*
X128868962Y-130230000D01*
X128962362Y-130699553D01*
X129228342Y-131097620D01*
X129626409Y-131363600D01*
X130095962Y-131457000D01*
X130144038Y-131457000D01*
X130613591Y-131363600D01*
X131011658Y-131097620D01*
X131277638Y-130699553D01*
X131367059Y-130250000D01*
X132608962Y-130250000D01*
X132702362Y-130719553D01*
X132968342Y-131117620D01*
X133366409Y-131383600D01*
X133835962Y-131477000D01*
X133884038Y-131477000D01*
X134353591Y-131383600D01*
X134751658Y-131117620D01*
X135017638Y-130719553D01*
X135111038Y-130250000D01*
X135017638Y-129780447D01*
X134751658Y-129382380D01*
X134353591Y-129116400D01*
X133884038Y-129023000D01*
X133835962Y-129023000D01*
X133366409Y-129116400D01*
X132968342Y-129382380D01*
X132702362Y-129780447D01*
X132608962Y-130250000D01*
X131367059Y-130250000D01*
X131371038Y-130230000D01*
X131277638Y-129760447D01*
X131011658Y-129362380D01*
X130613591Y-129096400D01*
X130144038Y-129003000D01*
X130095962Y-129003000D01*
X129626409Y-129096400D01*
X129228342Y-129362380D01*
X128962362Y-129760447D01*
X128868962Y-130230000D01*
X127039224Y-130230000D01*
X126519612Y-129710388D01*
X126372973Y-129612406D01*
X126200000Y-129578000D01*
X118030000Y-129578000D01*
X117869123Y-129610000D01*
X117857027Y-129612406D01*
X117710388Y-129710388D01*
X115682776Y-131738000D01*
X115271224Y-131738000D01*
X117597224Y-129412000D01*
X127119873Y-129412000D01*
X127165733Y-129522989D01*
X127356010Y-129713598D01*
X127604746Y-129816882D01*
X127874073Y-129817117D01*
X128122989Y-129714267D01*
X128313598Y-129523990D01*
X128416882Y-129275254D01*
X128417117Y-129005927D01*
X128314267Y-128757011D01*
X128214094Y-128656663D01*
X128239612Y-128639612D01*
X128737225Y-128142000D01*
X128885615Y-128142000D01*
X128885615Y-128540000D01*
X128911903Y-128679708D01*
X128994470Y-128808020D01*
X129120453Y-128894101D01*
X129270000Y-128924385D01*
X130970000Y-128924385D01*
X131109708Y-128898097D01*
X131238020Y-128815530D01*
X131324101Y-128689547D01*
X131354385Y-128540000D01*
X131354385Y-126860000D01*
X132625615Y-126860000D01*
X132625615Y-128560000D01*
X132651903Y-128699708D01*
X132734470Y-128828020D01*
X132860453Y-128914101D01*
X133010000Y-128944385D01*
X134710000Y-128944385D01*
X134849708Y-128918097D01*
X134978020Y-128835530D01*
X135064101Y-128709547D01*
X135094385Y-128560000D01*
X135094385Y-126860000D01*
X135068097Y-126720292D01*
X134985530Y-126591980D01*
X134859547Y-126505899D01*
X134710000Y-126475615D01*
X133010000Y-126475615D01*
X132870292Y-126501903D01*
X132741980Y-126584470D01*
X132655899Y-126710453D01*
X132625615Y-126860000D01*
X131354385Y-126860000D01*
X131354385Y-126840000D01*
X131328097Y-126700292D01*
X131245530Y-126571980D01*
X131119547Y-126485899D01*
X130970000Y-126455615D01*
X129270000Y-126455615D01*
X129130292Y-126481903D01*
X129001980Y-126564470D01*
X128915899Y-126690453D01*
X128885615Y-126840000D01*
X128885615Y-127238000D01*
X128550000Y-127238000D01*
X128377027Y-127272406D01*
X128230388Y-127370387D01*
X128119458Y-127481318D01*
X128200000Y-127237000D01*
X128200000Y-126937000D01*
X127292000Y-126937000D01*
X127292000Y-126957000D01*
X127038000Y-126957000D01*
X127038000Y-126937000D01*
X126130000Y-126937000D01*
X126130000Y-127237000D01*
X126257385Y-127623410D01*
X126468104Y-127868000D01*
X118881896Y-127868000D01*
X119092615Y-127623410D01*
X119220000Y-127237000D01*
X119220000Y-126937000D01*
X118312000Y-126937000D01*
X118312000Y-126957000D01*
X118058000Y-126957000D01*
X118058000Y-126937000D01*
X117150000Y-126937000D01*
X117150000Y-127237000D01*
X117277385Y-127623410D01*
X117488104Y-127868000D01*
X117040000Y-127868000D01*
X116867027Y-127902406D01*
X116720388Y-128000388D01*
X114562776Y-130158000D01*
X114532523Y-130158000D01*
X114566882Y-130075254D01*
X114567117Y-129805927D01*
X114475954Y-129585295D01*
X114649699Y-129513327D01*
X114828327Y-129334698D01*
X114925000Y-129101309D01*
X114925000Y-128040750D01*
X114766250Y-127882000D01*
X113857000Y-127882000D01*
X113857000Y-127902000D01*
X113603000Y-127902000D01*
X113603000Y-127882000D01*
X112693750Y-127882000D01*
X112535000Y-128040750D01*
X112535000Y-129101309D01*
X112631673Y-129334698D01*
X112784974Y-129488000D01*
X111980000Y-129488000D01*
X111807027Y-129522406D01*
X111660388Y-129620388D01*
X110425000Y-130855776D01*
X110425000Y-130695750D01*
X110266250Y-130537000D01*
X109067000Y-130537000D01*
X109067000Y-131736250D01*
X109225750Y-131895000D01*
X109385776Y-131895000D01*
X109232776Y-132048000D01*
X106490000Y-132048000D01*
X106317027Y-132082406D01*
X106170388Y-132180388D01*
X103032000Y-135318776D01*
X103032000Y-130370000D01*
X103238962Y-130370000D01*
X103332362Y-130839553D01*
X103598342Y-131237620D01*
X103996409Y-131503600D01*
X104465962Y-131597000D01*
X104514038Y-131597000D01*
X104983591Y-131503600D01*
X105381658Y-131237620D01*
X105647638Y-130839553D01*
X105676242Y-130695750D01*
X107455000Y-130695750D01*
X107455000Y-131386310D01*
X107551673Y-131619699D01*
X107730302Y-131798327D01*
X107963691Y-131895000D01*
X108654250Y-131895000D01*
X108813000Y-131736250D01*
X108813000Y-130537000D01*
X107613750Y-130537000D01*
X107455000Y-130695750D01*
X105676242Y-130695750D01*
X105741038Y-130370000D01*
X105647638Y-129900447D01*
X105381658Y-129502380D01*
X105278857Y-129433690D01*
X107455000Y-129433690D01*
X107455000Y-130124250D01*
X107613750Y-130283000D01*
X108813000Y-130283000D01*
X108813000Y-130263000D01*
X109067000Y-130263000D01*
X109067000Y-130283000D01*
X110266250Y-130283000D01*
X110425000Y-130124250D01*
X110425000Y-129433690D01*
X110328327Y-129200301D01*
X110149698Y-129021673D01*
X109916309Y-128925000D01*
X109551224Y-128925000D01*
X109831658Y-128737620D01*
X110097638Y-128339553D01*
X110191038Y-127870000D01*
X110097638Y-127400447D01*
X109831658Y-127002380D01*
X109433591Y-126736400D01*
X108964038Y-126643000D01*
X108915962Y-126643000D01*
X108446409Y-126736400D01*
X108048342Y-127002380D01*
X107782362Y-127400447D01*
X107688962Y-127870000D01*
X107782362Y-128339553D01*
X108048342Y-128737620D01*
X108328776Y-128925000D01*
X107963691Y-128925000D01*
X107730302Y-129021673D01*
X107551673Y-129200301D01*
X107455000Y-129433690D01*
X105278857Y-129433690D01*
X104983591Y-129236400D01*
X104514038Y-129143000D01*
X104465962Y-129143000D01*
X103996409Y-129236400D01*
X103598342Y-129502380D01*
X103332362Y-129900447D01*
X103238962Y-130370000D01*
X103032000Y-130370000D01*
X103032000Y-126980000D01*
X103255615Y-126980000D01*
X103255615Y-128680000D01*
X103281903Y-128819708D01*
X103364470Y-128948020D01*
X103490453Y-129034101D01*
X103640000Y-129064385D01*
X105340000Y-129064385D01*
X105479708Y-129038097D01*
X105608020Y-128955530D01*
X105694101Y-128829547D01*
X105724385Y-128680000D01*
X105724385Y-126980000D01*
X105698097Y-126840292D01*
X105615530Y-126711980D01*
X105489547Y-126625899D01*
X105340000Y-126595615D01*
X103640000Y-126595615D01*
X103500292Y-126621903D01*
X103371980Y-126704470D01*
X103285899Y-126830453D01*
X103255615Y-126980000D01*
X103032000Y-126980000D01*
X103032000Y-126092000D01*
X112714975Y-126092000D01*
X112631673Y-126175302D01*
X112631673Y-126175302D01*
G37*
X112631673Y-126175302D02*
X112535000Y-126408691D01*
X112535000Y-127469250D01*
X112693750Y-127628000D01*
X113603000Y-127628000D01*
X113603000Y-127608000D01*
X113857000Y-127608000D01*
X113857000Y-127628000D01*
X114766250Y-127628000D01*
X114925000Y-127469250D01*
X114925000Y-126408691D01*
X114828327Y-126175302D01*
X114745025Y-126092000D01*
X117245932Y-126092000D01*
X117150000Y-126383000D01*
X117150000Y-126683000D01*
X118058000Y-126683000D01*
X118058000Y-126663000D01*
X118312000Y-126663000D01*
X118312000Y-126683000D01*
X119220000Y-126683000D01*
X119220000Y-126383000D01*
X119124068Y-126092000D01*
X126225932Y-126092000D01*
X126130000Y-126383000D01*
X126130000Y-126683000D01*
X127038000Y-126683000D01*
X127038000Y-126663000D01*
X127292000Y-126663000D01*
X127292000Y-126683000D01*
X128200000Y-126683000D01*
X128200000Y-126383000D01*
X128107365Y-126102000D01*
X142118000Y-126102000D01*
X142118000Y-135005700D01*
X142116309Y-135005000D01*
X141425750Y-135005000D01*
X141267000Y-135163750D01*
X141267000Y-136363000D01*
X141287000Y-136363000D01*
X141287000Y-136617000D01*
X141267000Y-136617000D01*
X141267000Y-136637000D01*
X141013000Y-136637000D01*
X141013000Y-136617000D01*
X139813750Y-136617000D01*
X139655000Y-136775750D01*
X139655000Y-137466310D01*
X139751673Y-137699699D01*
X139930302Y-137878327D01*
X140163691Y-137975000D01*
X140528776Y-137975000D01*
X140248342Y-138162380D01*
X139982362Y-138560447D01*
X139888962Y-139030000D01*
X139982362Y-139499553D01*
X140248342Y-139897620D01*
X140646409Y-140163600D01*
X141115962Y-140257000D01*
X141164038Y-140257000D01*
X141633591Y-140163600D01*
X142031658Y-139897620D01*
X142118000Y-139768400D01*
X142118000Y-140831600D01*
X142031658Y-140702380D01*
X141633591Y-140436400D01*
X141164038Y-140343000D01*
X141115962Y-140343000D01*
X140646409Y-140436400D01*
X140248342Y-140702380D01*
X139982362Y-141100447D01*
X139978870Y-141118000D01*
X137147225Y-141118000D01*
X137093286Y-141064061D01*
X137093600Y-141063591D01*
X137187000Y-140594038D01*
X137187000Y-140545962D01*
X137093600Y-140076409D01*
X136827620Y-139678342D01*
X136429553Y-139412362D01*
X135960000Y-139318962D01*
X135490447Y-139412362D01*
X135142000Y-139645187D01*
X135142000Y-139035000D01*
X136274250Y-139035000D01*
X136433000Y-138876250D01*
X136433000Y-137477000D01*
X136687000Y-137477000D01*
X136687000Y-138876250D01*
X136845750Y-139035000D01*
X138036309Y-139035000D01*
X138269698Y-138938327D01*
X138448327Y-138759699D01*
X138545000Y-138526310D01*
X138545000Y-137635750D01*
X138386250Y-137477000D01*
X136687000Y-137477000D01*
X136433000Y-137477000D01*
X134733750Y-137477000D01*
X134575000Y-137635750D01*
X134575000Y-137915776D01*
X133689612Y-137030388D01*
X133542973Y-136932406D01*
X133370000Y-136898000D01*
X132994385Y-136898000D01*
X132994385Y-136300000D01*
X132968097Y-136160292D01*
X132885530Y-136031980D01*
X132759547Y-135945899D01*
X132610000Y-135915615D01*
X129910000Y-135915615D01*
X129770292Y-135941903D01*
X129641980Y-136024470D01*
X129555899Y-136150453D01*
X129525615Y-136300000D01*
X129525615Y-138400000D01*
X129551903Y-138539708D01*
X129634470Y-138668020D01*
X129760453Y-138754101D01*
X129910000Y-138784385D01*
X130709814Y-138784385D01*
X130631980Y-138834470D01*
X130545899Y-138960453D01*
X130515615Y-139110000D01*
X130515615Y-139696359D01*
X130361673Y-139850302D01*
X130265000Y-140083691D01*
X130265000Y-140224250D01*
X130423750Y-140383000D01*
X131025000Y-140383000D01*
X131025000Y-140363000D01*
X131275000Y-140363000D01*
X131275000Y-140383000D01*
X131297000Y-140383000D01*
X131297000Y-140637000D01*
X131275000Y-140637000D01*
X131275000Y-140657000D01*
X131025000Y-140657000D01*
X131025000Y-140637000D01*
X130423750Y-140637000D01*
X130265000Y-140795750D01*
X130265000Y-140936309D01*
X130354756Y-141153000D01*
X126400000Y-141153000D01*
X126217460Y-141189309D01*
X126062710Y-141292710D01*
X125954716Y-141400704D01*
X125924267Y-141327011D01*
X125733990Y-141136402D01*
X125688413Y-141117477D01*
X125792989Y-141074267D01*
X125983598Y-140883990D01*
X126086882Y-140635254D01*
X126087117Y-140365927D01*
X126015505Y-140192613D01*
X126044385Y-140050000D01*
X126044385Y-139463641D01*
X126198327Y-139309698D01*
X126295000Y-139076309D01*
X126295000Y-138935750D01*
X126136250Y-138777000D01*
X125535000Y-138777000D01*
X125535000Y-138797000D01*
X125285000Y-138797000D01*
X125285000Y-138777000D01*
X125282000Y-138777000D01*
X125282000Y-138523000D01*
X125285000Y-138523000D01*
X125285000Y-137873750D01*
X125535000Y-137873750D01*
X125535000Y-138523000D01*
X126136250Y-138523000D01*
X126295000Y-138364250D01*
X126295000Y-138223691D01*
X126198327Y-137990302D01*
X126019699Y-137811673D01*
X125786310Y-137715000D01*
X125693750Y-137715000D01*
X125535000Y-137873750D01*
X125285000Y-137873750D01*
X125126250Y-137715000D01*
X125106952Y-137715000D01*
X125107117Y-137525927D01*
X125004267Y-137277011D01*
X124813990Y-137086402D01*
X124565254Y-136983118D01*
X124346298Y-136982927D01*
X124409612Y-136919613D01*
X124507594Y-136772973D01*
X124512755Y-136747027D01*
X124542000Y-136600000D01*
X124542000Y-135960000D01*
X124507594Y-135787027D01*
X124409612Y-135640388D01*
X124377000Y-135607776D01*
X124377000Y-135404385D01*
X124575000Y-135404385D01*
X124678671Y-135384878D01*
X124757895Y-135400921D01*
X124915302Y-135558327D01*
X125148691Y-135655000D01*
X125191250Y-135655000D01*
X125350000Y-135496250D01*
X125350000Y-135285314D01*
X125429101Y-135169547D01*
X125459385Y-135020000D01*
X125459385Y-134523000D01*
X125500000Y-134523000D01*
X125500000Y-134543000D01*
X125572000Y-134543000D01*
X125572000Y-134797000D01*
X125500000Y-134797000D01*
X125500000Y-135496250D01*
X125658750Y-135655000D01*
X125701309Y-135655000D01*
X125934698Y-135558327D01*
X125937275Y-135555750D01*
X127945000Y-135555750D01*
X127945000Y-135696309D01*
X128041673Y-135929698D01*
X128220301Y-136108327D01*
X128453690Y-136205000D01*
X128546250Y-136205000D01*
X128705000Y-136046250D01*
X128705000Y-135397000D01*
X128103750Y-135397000D01*
X127945000Y-135555750D01*
X125937275Y-135555750D01*
X126113327Y-135379699D01*
X126210000Y-135146310D01*
X126210000Y-134955750D01*
X126097941Y-134843691D01*
X127945000Y-134843691D01*
X127945000Y-134984250D01*
X128103750Y-135143000D01*
X128705000Y-135143000D01*
X128705000Y-135123000D01*
X128955000Y-135123000D01*
X128955000Y-135143000D01*
X128977000Y-135143000D01*
X128977000Y-135397000D01*
X128955000Y-135397000D01*
X128955000Y-136046250D01*
X129113750Y-136205000D01*
X129206310Y-136205000D01*
X129439699Y-136108327D01*
X129618327Y-135929698D01*
X129715000Y-135696309D01*
X129715000Y-135623044D01*
X129760453Y-135654101D01*
X129910000Y-135684385D01*
X132610000Y-135684385D01*
X132749708Y-135658097D01*
X132878020Y-135575530D01*
X132964101Y-135449547D01*
X132994385Y-135300000D01*
X132994385Y-134535750D01*
X134575000Y-134535750D01*
X134575000Y-135426310D01*
X134671673Y-135659699D01*
X134811975Y-135800000D01*
X134671673Y-135940301D01*
X134575000Y-136173690D01*
X134575000Y-137064250D01*
X134733750Y-137223000D01*
X136433000Y-137223000D01*
X136433000Y-135823750D01*
X136409250Y-135800000D01*
X136433000Y-135776250D01*
X136433000Y-134377000D01*
X136687000Y-134377000D01*
X136687000Y-135776250D01*
X136710750Y-135800000D01*
X136687000Y-135823750D01*
X136687000Y-137223000D01*
X138386250Y-137223000D01*
X138545000Y-137064250D01*
X138545000Y-136173690D01*
X138448327Y-135940301D01*
X138308025Y-135800000D01*
X138448327Y-135659699D01*
X138508805Y-135513690D01*
X139655000Y-135513690D01*
X139655000Y-136204250D01*
X139813750Y-136363000D01*
X141013000Y-136363000D01*
X141013000Y-135163750D01*
X140854250Y-135005000D01*
X140163691Y-135005000D01*
X139930302Y-135101673D01*
X139751673Y-135280301D01*
X139655000Y-135513690D01*
X138508805Y-135513690D01*
X138545000Y-135426310D01*
X138545000Y-134535750D01*
X138386250Y-134377000D01*
X136687000Y-134377000D01*
X136433000Y-134377000D01*
X134733750Y-134377000D01*
X134575000Y-134535750D01*
X132994385Y-134535750D01*
X132994385Y-134421970D01*
X132996010Y-134423598D01*
X133244746Y-134526882D01*
X133514073Y-134527117D01*
X133762989Y-134424267D01*
X133953598Y-134233990D01*
X134056882Y-133985254D01*
X134057117Y-133715927D01*
X133954267Y-133467011D01*
X133763990Y-133276402D01*
X133515254Y-133173118D01*
X133245927Y-133172883D01*
X132997011Y-133275733D01*
X132994385Y-133278354D01*
X132994385Y-133200000D01*
X132968097Y-133060292D01*
X132885530Y-132931980D01*
X132759547Y-132845899D01*
X132610000Y-132815615D01*
X129910000Y-132815615D01*
X129770292Y-132841903D01*
X129641980Y-132924470D01*
X129555899Y-133050453D01*
X129525615Y-133200000D01*
X129525615Y-133798000D01*
X129450837Y-133798000D01*
X129438097Y-133730292D01*
X129355530Y-133601980D01*
X129229547Y-133515899D01*
X129080000Y-133485615D01*
X128580000Y-133485615D01*
X128440292Y-133511903D01*
X128311980Y-133594470D01*
X128225899Y-133720453D01*
X128195615Y-133870000D01*
X128195615Y-134456359D01*
X128041673Y-134610302D01*
X127945000Y-134843691D01*
X126097941Y-134843691D01*
X126051252Y-134797002D01*
X126210000Y-134797002D01*
X126210000Y-134711944D01*
X126414024Y-134712122D01*
X126672132Y-134605474D01*
X126869780Y-134408170D01*
X126976878Y-134150249D01*
X126977041Y-133963136D01*
X127091123Y-134054666D01*
X127447053Y-133881658D01*
X127712615Y-133573410D01*
X127840000Y-133187000D01*
X127840000Y-132887000D01*
X126932000Y-132887000D01*
X126932000Y-132907000D01*
X126678000Y-132907000D01*
X126678000Y-132887000D01*
X126658000Y-132887000D01*
X126658000Y-132633000D01*
X126678000Y-132633000D01*
X126678000Y-131593002D01*
X126518877Y-131465334D01*
X126162947Y-131638342D01*
X125897385Y-131946590D01*
X125770000Y-132333000D01*
X125770000Y-132446393D01*
X125742806Y-132437926D01*
X125670474Y-132262868D01*
X125473170Y-132065220D01*
X125215249Y-131958122D01*
X124935976Y-131957878D01*
X124677868Y-132064526D01*
X124675168Y-132067221D01*
X124673170Y-132065220D01*
X124415249Y-131958122D01*
X124135976Y-131957878D01*
X123877868Y-132064526D01*
X123875168Y-132067221D01*
X123873170Y-132065220D01*
X123615249Y-131958122D01*
X123335976Y-131957878D01*
X123077868Y-132064526D01*
X122880220Y-132261830D01*
X122773122Y-132519751D01*
X122772942Y-132725242D01*
X122677868Y-132764526D01*
X122675168Y-132767221D01*
X122673170Y-132765220D01*
X122576944Y-132725263D01*
X122577122Y-132520976D01*
X122470474Y-132262868D01*
X122273170Y-132065220D01*
X122015249Y-131958122D01*
X121735976Y-131957878D01*
X121477868Y-132064526D01*
X121475168Y-132067221D01*
X121473170Y-132065220D01*
X121347050Y-132012850D01*
X121347117Y-131935927D01*
X121244267Y-131687011D01*
X121053990Y-131496402D01*
X120805254Y-131393118D01*
X120535927Y-131392883D01*
X120287011Y-131495733D01*
X120096402Y-131686010D01*
X119993118Y-131934746D01*
X119993046Y-132016935D01*
X119877868Y-132064526D01*
X119680220Y-132261830D01*
X119614649Y-132419742D01*
X119597738Y-132421283D01*
X119580000Y-132428630D01*
X119580000Y-132333000D01*
X119452615Y-131946590D01*
X119187053Y-131638342D01*
X118831123Y-131465334D01*
X118672000Y-131593002D01*
X118672000Y-132633000D01*
X118692000Y-132633000D01*
X118692000Y-132887000D01*
X118672000Y-132887000D01*
X118672000Y-132907000D01*
X118418000Y-132907000D01*
X118418000Y-132887000D01*
X117510000Y-132887000D01*
X117510000Y-133187000D01*
X117637385Y-133573410D01*
X117902947Y-133881658D01*
X118210517Y-134031159D01*
X118259745Y-134278644D01*
X118411919Y-134506389D01*
X118639664Y-134658563D01*
X118908308Y-134712000D01*
X119140000Y-134712000D01*
X119140000Y-134797002D01*
X119298748Y-134797002D01*
X119140000Y-134955750D01*
X119140000Y-135146310D01*
X119236673Y-135379699D01*
X119342498Y-135485523D01*
X119260388Y-135540387D01*
X118837743Y-135963033D01*
X118665927Y-135962883D01*
X118417011Y-136065733D01*
X118226402Y-136256010D01*
X118152734Y-136433423D01*
X117935254Y-136343118D01*
X117762191Y-136342967D01*
X115489612Y-134070388D01*
X115342973Y-133972406D01*
X115170000Y-133938000D01*
X112760000Y-133938000D01*
X112587027Y-133972406D01*
X112440388Y-134070387D01*
X108972000Y-137538776D01*
X108972000Y-137107224D01*
X113437224Y-132642000D01*
X115870000Y-132642000D01*
X116042973Y-132607594D01*
X116189612Y-132509612D01*
X116366224Y-132333000D01*
X117510000Y-132333000D01*
X117510000Y-132633000D01*
X118418000Y-132633000D01*
X118418000Y-131593002D01*
X118258877Y-131465334D01*
X117902947Y-131638342D01*
X117637385Y-131946590D01*
X117510000Y-132333000D01*
X116366224Y-132333000D01*
X118217224Y-130482000D01*
X126012776Y-130482000D01*
X127038406Y-131507630D01*
X126932000Y-131593002D01*
X126932000Y-132633000D01*
X127840000Y-132633000D01*
X127840000Y-132333000D01*
X127828307Y-132297531D01*
X128150388Y-132619612D01*
X128297027Y-132717594D01*
X128470000Y-132752000D01*
X134759974Y-132752000D01*
X134671673Y-132840301D01*
X134575000Y-133073690D01*
X134575000Y-133964250D01*
X134733750Y-134123000D01*
X136433000Y-134123000D01*
X136433000Y-134103000D01*
X136687000Y-134103000D01*
X136687000Y-134123000D01*
X138386250Y-134123000D01*
X138545000Y-133964250D01*
X138545000Y-133073690D01*
X138448327Y-132840301D01*
X138269698Y-132661673D01*
X138036309Y-132565000D01*
X137490378Y-132565000D01*
X137506882Y-132525254D01*
X137507033Y-132352191D01*
X137874612Y-131984612D01*
X137972594Y-131837973D01*
X138007000Y-131665000D01*
X138007000Y-130912224D01*
X138649224Y-130270000D01*
X139428962Y-130270000D01*
X139522362Y-130739553D01*
X139788342Y-131137620D01*
X140186409Y-131403600D01*
X140655962Y-131497000D01*
X140704038Y-131497000D01*
X141173591Y-131403600D01*
X141571658Y-131137620D01*
X141837638Y-130739553D01*
X141931038Y-130270000D01*
X141837638Y-129800447D01*
X141571658Y-129402380D01*
X141173591Y-129136400D01*
X140704038Y-129043000D01*
X140655962Y-129043000D01*
X140186409Y-129136400D01*
X139788342Y-129402380D01*
X139522362Y-129800447D01*
X139428962Y-130270000D01*
X138649224Y-130270000D01*
X139954840Y-128964385D01*
X141530000Y-128964385D01*
X141669708Y-128938097D01*
X141798020Y-128855530D01*
X141884101Y-128729547D01*
X141914385Y-128580000D01*
X141914385Y-126880000D01*
X141888097Y-126740292D01*
X141805530Y-126611980D01*
X141679547Y-126525899D01*
X141530000Y-126495615D01*
X139830000Y-126495615D01*
X139690292Y-126521903D01*
X139561980Y-126604470D01*
X139475899Y-126730453D01*
X139445615Y-126880000D01*
X139445615Y-128195160D01*
X137235390Y-130405386D01*
X137235387Y-130405388D01*
X135792776Y-131848000D01*
X128657224Y-131848000D01*
X127039224Y-130230000D01*
X128868962Y-130230000D01*
X128962362Y-130699553D01*
X129228342Y-131097620D01*
X129626409Y-131363600D01*
X130095962Y-131457000D01*
X130144038Y-131457000D01*
X130613591Y-131363600D01*
X131011658Y-131097620D01*
X131277638Y-130699553D01*
X131367059Y-130250000D01*
X132608962Y-130250000D01*
X132702362Y-130719553D01*
X132968342Y-131117620D01*
X133366409Y-131383600D01*
X133835962Y-131477000D01*
X133884038Y-131477000D01*
X134353591Y-131383600D01*
X134751658Y-131117620D01*
X135017638Y-130719553D01*
X135111038Y-130250000D01*
X135017638Y-129780447D01*
X134751658Y-129382380D01*
X134353591Y-129116400D01*
X133884038Y-129023000D01*
X133835962Y-129023000D01*
X133366409Y-129116400D01*
X132968342Y-129382380D01*
X132702362Y-129780447D01*
X132608962Y-130250000D01*
X131367059Y-130250000D01*
X131371038Y-130230000D01*
X131277638Y-129760447D01*
X131011658Y-129362380D01*
X130613591Y-129096400D01*
X130144038Y-129003000D01*
X130095962Y-129003000D01*
X129626409Y-129096400D01*
X129228342Y-129362380D01*
X128962362Y-129760447D01*
X128868962Y-130230000D01*
X127039224Y-130230000D01*
X126519612Y-129710388D01*
X126372973Y-129612406D01*
X126200000Y-129578000D01*
X118030000Y-129578000D01*
X117869123Y-129610000D01*
X117857027Y-129612406D01*
X117710388Y-129710388D01*
X115682776Y-131738000D01*
X115271224Y-131738000D01*
X117597224Y-129412000D01*
X127119873Y-129412000D01*
X127165733Y-129522989D01*
X127356010Y-129713598D01*
X127604746Y-129816882D01*
X127874073Y-129817117D01*
X128122989Y-129714267D01*
X128313598Y-129523990D01*
X128416882Y-129275254D01*
X128417117Y-129005927D01*
X128314267Y-128757011D01*
X128214094Y-128656663D01*
X128239612Y-128639612D01*
X128737225Y-128142000D01*
X128885615Y-128142000D01*
X128885615Y-128540000D01*
X128911903Y-128679708D01*
X128994470Y-128808020D01*
X129120453Y-128894101D01*
X129270000Y-128924385D01*
X130970000Y-128924385D01*
X131109708Y-128898097D01*
X131238020Y-128815530D01*
X131324101Y-128689547D01*
X131354385Y-128540000D01*
X131354385Y-126860000D01*
X132625615Y-126860000D01*
X132625615Y-128560000D01*
X132651903Y-128699708D01*
X132734470Y-128828020D01*
X132860453Y-128914101D01*
X133010000Y-128944385D01*
X134710000Y-128944385D01*
X134849708Y-128918097D01*
X134978020Y-128835530D01*
X135064101Y-128709547D01*
X135094385Y-128560000D01*
X135094385Y-126860000D01*
X135068097Y-126720292D01*
X134985530Y-126591980D01*
X134859547Y-126505899D01*
X134710000Y-126475615D01*
X133010000Y-126475615D01*
X132870292Y-126501903D01*
X132741980Y-126584470D01*
X132655899Y-126710453D01*
X132625615Y-126860000D01*
X131354385Y-126860000D01*
X131354385Y-126840000D01*
X131328097Y-126700292D01*
X131245530Y-126571980D01*
X131119547Y-126485899D01*
X130970000Y-126455615D01*
X129270000Y-126455615D01*
X129130292Y-126481903D01*
X129001980Y-126564470D01*
X128915899Y-126690453D01*
X128885615Y-126840000D01*
X128885615Y-127238000D01*
X128550000Y-127238000D01*
X128377027Y-127272406D01*
X128230388Y-127370387D01*
X128119458Y-127481318D01*
X128200000Y-127237000D01*
X128200000Y-126937000D01*
X127292000Y-126937000D01*
X127292000Y-126957000D01*
X127038000Y-126957000D01*
X127038000Y-126937000D01*
X126130000Y-126937000D01*
X126130000Y-127237000D01*
X126257385Y-127623410D01*
X126468104Y-127868000D01*
X118881896Y-127868000D01*
X119092615Y-127623410D01*
X119220000Y-127237000D01*
X119220000Y-126937000D01*
X118312000Y-126937000D01*
X118312000Y-126957000D01*
X118058000Y-126957000D01*
X118058000Y-126937000D01*
X117150000Y-126937000D01*
X117150000Y-127237000D01*
X117277385Y-127623410D01*
X117488104Y-127868000D01*
X117040000Y-127868000D01*
X116867027Y-127902406D01*
X116720388Y-128000388D01*
X114562776Y-130158000D01*
X114532523Y-130158000D01*
X114566882Y-130075254D01*
X114567117Y-129805927D01*
X114475954Y-129585295D01*
X114649699Y-129513327D01*
X114828327Y-129334698D01*
X114925000Y-129101309D01*
X114925000Y-128040750D01*
X114766250Y-127882000D01*
X113857000Y-127882000D01*
X113857000Y-127902000D01*
X113603000Y-127902000D01*
X113603000Y-127882000D01*
X112693750Y-127882000D01*
X112535000Y-128040750D01*
X112535000Y-129101309D01*
X112631673Y-129334698D01*
X112784974Y-129488000D01*
X111980000Y-129488000D01*
X111807027Y-129522406D01*
X111660388Y-129620388D01*
X110425000Y-130855776D01*
X110425000Y-130695750D01*
X110266250Y-130537000D01*
X109067000Y-130537000D01*
X109067000Y-131736250D01*
X109225750Y-131895000D01*
X109385776Y-131895000D01*
X109232776Y-132048000D01*
X106490000Y-132048000D01*
X106317027Y-132082406D01*
X106170388Y-132180388D01*
X103032000Y-135318776D01*
X103032000Y-130370000D01*
X103238962Y-130370000D01*
X103332362Y-130839553D01*
X103598342Y-131237620D01*
X103996409Y-131503600D01*
X104465962Y-131597000D01*
X104514038Y-131597000D01*
X104983591Y-131503600D01*
X105381658Y-131237620D01*
X105647638Y-130839553D01*
X105676242Y-130695750D01*
X107455000Y-130695750D01*
X107455000Y-131386310D01*
X107551673Y-131619699D01*
X107730302Y-131798327D01*
X107963691Y-131895000D01*
X108654250Y-131895000D01*
X108813000Y-131736250D01*
X108813000Y-130537000D01*
X107613750Y-130537000D01*
X107455000Y-130695750D01*
X105676242Y-130695750D01*
X105741038Y-130370000D01*
X105647638Y-129900447D01*
X105381658Y-129502380D01*
X105278857Y-129433690D01*
X107455000Y-129433690D01*
X107455000Y-130124250D01*
X107613750Y-130283000D01*
X108813000Y-130283000D01*
X108813000Y-130263000D01*
X109067000Y-130263000D01*
X109067000Y-130283000D01*
X110266250Y-130283000D01*
X110425000Y-130124250D01*
X110425000Y-129433690D01*
X110328327Y-129200301D01*
X110149698Y-129021673D01*
X109916309Y-128925000D01*
X109551224Y-128925000D01*
X109831658Y-128737620D01*
X110097638Y-128339553D01*
X110191038Y-127870000D01*
X110097638Y-127400447D01*
X109831658Y-127002380D01*
X109433591Y-126736400D01*
X108964038Y-126643000D01*
X108915962Y-126643000D01*
X108446409Y-126736400D01*
X108048342Y-127002380D01*
X107782362Y-127400447D01*
X107688962Y-127870000D01*
X107782362Y-128339553D01*
X108048342Y-128737620D01*
X108328776Y-128925000D01*
X107963691Y-128925000D01*
X107730302Y-129021673D01*
X107551673Y-129200301D01*
X107455000Y-129433690D01*
X105278857Y-129433690D01*
X104983591Y-129236400D01*
X104514038Y-129143000D01*
X104465962Y-129143000D01*
X103996409Y-129236400D01*
X103598342Y-129502380D01*
X103332362Y-129900447D01*
X103238962Y-130370000D01*
X103032000Y-130370000D01*
X103032000Y-126980000D01*
X103255615Y-126980000D01*
X103255615Y-128680000D01*
X103281903Y-128819708D01*
X103364470Y-128948020D01*
X103490453Y-129034101D01*
X103640000Y-129064385D01*
X105340000Y-129064385D01*
X105479708Y-129038097D01*
X105608020Y-128955530D01*
X105694101Y-128829547D01*
X105724385Y-128680000D01*
X105724385Y-126980000D01*
X105698097Y-126840292D01*
X105615530Y-126711980D01*
X105489547Y-126625899D01*
X105340000Y-126595615D01*
X103640000Y-126595615D01*
X103500292Y-126621903D01*
X103371980Y-126704470D01*
X103285899Y-126830453D01*
X103255615Y-126980000D01*
X103032000Y-126980000D01*
X103032000Y-126092000D01*
X112714975Y-126092000D01*
X112631673Y-126175302D01*
G36*
X108200388Y-136600388D02*
X108102406Y-136747027D01*
X108068000Y-136920000D01*
X108068000Y-140581057D01*
X107821658Y-140212380D01*
X107423591Y-139946400D01*
X106954038Y-139853000D01*
X106905962Y-139853000D01*
X106436409Y-139946400D01*
X106052000Y-140203254D01*
X106052000Y-136267224D01*
X108097224Y-134222000D01*
X109560000Y-134222000D01*
X109732973Y-134187594D01*
X109879612Y-134089612D01*
X112067225Y-131902000D01*
X112898776Y-131902000D01*
X108200388Y-136600388D01*
X108200388Y-136600388D01*
G37*
X108200388Y-136600388D02*
X108102406Y-136747027D01*
X108068000Y-136920000D01*
X108068000Y-140581057D01*
X107821658Y-140212380D01*
X107423591Y-139946400D01*
X106954038Y-139853000D01*
X106905962Y-139853000D01*
X106436409Y-139946400D01*
X106052000Y-140203254D01*
X106052000Y-136267224D01*
X108097224Y-134222000D01*
X109560000Y-134222000D01*
X109732973Y-134187594D01*
X109879612Y-134089612D01*
X112067225Y-131902000D01*
X112898776Y-131902000D01*
X108200388Y-136600388D01*
G36*
X119735000Y-138623000D02*
X120585000Y-138623000D01*
X120585000Y-138603000D01*
X120835000Y-138603000D01*
X120835000Y-138623000D01*
X120857000Y-138623000D01*
X120857000Y-138696938D01*
X120790000Y-138858690D01*
X120790000Y-138896250D01*
X120790750Y-138897000D01*
X120585000Y-138897000D01*
X120585000Y-138877000D01*
X119735000Y-138877000D01*
X119735000Y-138897000D01*
X119485000Y-138897000D01*
X119485000Y-138877000D01*
X119463000Y-138877000D01*
X119463000Y-138623000D01*
X119485000Y-138623000D01*
X119485000Y-138603000D01*
X119735000Y-138603000D01*
X119735000Y-138623000D01*
X119735000Y-138623000D01*
G37*
X119735000Y-138623000D02*
X120585000Y-138623000D01*
X120585000Y-138603000D01*
X120835000Y-138603000D01*
X120835000Y-138623000D01*
X120857000Y-138623000D01*
X120857000Y-138696938D01*
X120790000Y-138858690D01*
X120790000Y-138896250D01*
X120790750Y-138897000D01*
X120585000Y-138897000D01*
X120585000Y-138877000D01*
X119735000Y-138877000D01*
X119735000Y-138897000D01*
X119485000Y-138897000D01*
X119485000Y-138877000D01*
X119463000Y-138877000D01*
X119463000Y-138623000D01*
X119485000Y-138623000D01*
X119485000Y-138603000D01*
X119735000Y-138603000D01*
X119735000Y-138623000D01*
G36*
X119890615Y-134817000D02*
X119850000Y-134817000D01*
X119850000Y-134797000D01*
X119778000Y-134797000D01*
X119778000Y-134543000D01*
X119850000Y-134543000D01*
X119850000Y-134523000D01*
X119890615Y-134523000D01*
X119890615Y-134817000D01*
X119890615Y-134817000D01*
G37*
X119890615Y-134817000D02*
X119850000Y-134817000D01*
X119850000Y-134797000D01*
X119778000Y-134797000D01*
X119778000Y-134543000D01*
X119850000Y-134543000D01*
X119850000Y-134523000D01*
X119890615Y-134523000D01*
X119890615Y-134817000D01*
G36*
X119628680Y-132934075D02*
X119679526Y-133057132D01*
X119876830Y-133254780D01*
X120049276Y-133326386D01*
X120068748Y-133345858D01*
X120054605Y-133360000D01*
X120068748Y-133374143D01*
X119889143Y-133553748D01*
X119875000Y-133539605D01*
X119860858Y-133553748D01*
X119681253Y-133374143D01*
X119695395Y-133360000D01*
X119565718Y-133230323D01*
X119580000Y-133187000D01*
X119580000Y-132885395D01*
X119628680Y-132934075D01*
X119628680Y-132934075D01*
G37*
X119628680Y-132934075D02*
X119679526Y-133057132D01*
X119876830Y-133254780D01*
X120049276Y-133326386D01*
X120068748Y-133345858D01*
X120054605Y-133360000D01*
X120068748Y-133374143D01*
X119889143Y-133553748D01*
X119875000Y-133539605D01*
X119860858Y-133553748D01*
X119681253Y-133374143D01*
X119695395Y-133360000D01*
X119565718Y-133230323D01*
X119580000Y-133187000D01*
X119580000Y-132885395D01*
X119628680Y-132934075D01*
G36*
X125770000Y-133187000D02*
X125784282Y-133230323D01*
X125654605Y-133360000D01*
X125668748Y-133374143D01*
X125489143Y-133553748D01*
X125475000Y-133539605D01*
X125460858Y-133553748D01*
X125281253Y-133374143D01*
X125295395Y-133360000D01*
X125281253Y-133345858D01*
X125300874Y-133326236D01*
X125472132Y-133255474D01*
X125669780Y-133058170D01*
X125721301Y-132934094D01*
X125770000Y-132885395D01*
X125770000Y-133187000D01*
X125770000Y-133187000D01*
G37*
X125770000Y-133187000D02*
X125784282Y-133230323D01*
X125654605Y-133360000D01*
X125668748Y-133374143D01*
X125489143Y-133553748D01*
X125475000Y-133539605D01*
X125460858Y-133553748D01*
X125281253Y-133374143D01*
X125295395Y-133360000D01*
X125281253Y-133345858D01*
X125300874Y-133326236D01*
X125472132Y-133255474D01*
X125669780Y-133058170D01*
X125721301Y-132934094D01*
X125770000Y-132885395D01*
X125770000Y-133187000D01*
M02*
