%TF.GenerationSoftware,KiCad,Pcbnew,4.0.7*%
%TF.CreationDate,2019-02-19T19:06:54-06:00*%
%TF.ProjectId,GolfGloveMainBoardV1.0.0,476F6C66476C6F76654D61696E426F61,rev?*%
%TF.FileFunction,Copper,L4,Bot,Signal*%
%FSLAX46Y46*%
G04 Gerber Fmt 4.6, Leading zero omitted, Abs format (unit mm)*
G04 Created by KiCad (PCBNEW 4.0.7) date 02/19/19 19:06:54*
%MOMM*%
%LPD*%
G01*
G04 APERTURE LIST*
%ADD10C,0.100000*%
%ADD11C,0.150000*%
%ADD12C,0.600000*%
%ADD13O,0.800000X1.400000*%
%ADD14C,0.650000*%
%ADD15R,1.700000X1.700000*%
%ADD16O,1.700000X1.700000*%
%ADD17R,0.600000X0.500000*%
%ADD18R,0.500000X0.600000*%
%ADD19R,0.600000X0.400000*%
%ADD20R,0.900000X0.500000*%
%ADD21R,0.400000X0.600000*%
%ADD22R,2.200000X1.400000*%
%ADD23R,2.400000X1.400000*%
%ADD24R,0.812800X0.304800*%
%ADD25R,1.651000X2.387600*%
%ADD26R,2.500000X3.325000*%
%ADD27C,0.200000*%
%ADD28C,0.250000*%
%ADD29C,0.254000*%
G04 APERTURE END LIST*
D10*
D11*
X118120000Y-123130000D02*
X118120000Y-125640000D01*
X127220000Y-123130000D02*
X118120000Y-123130000D01*
X127220000Y-125640000D02*
X127220000Y-123130000D01*
X118130000Y-125640000D02*
X127220000Y-125640000D01*
X102580000Y-162200000D02*
X102570000Y-162200000D01*
X102580000Y-125640000D02*
X102580000Y-162200000D01*
X117250000Y-125640000D02*
X102580000Y-125640000D01*
X117250000Y-113080000D02*
X117250000Y-125640000D01*
X114340000Y-113080000D02*
X117250000Y-113080000D01*
X114340000Y-106880000D02*
X114340000Y-113080000D01*
X130990000Y-106880000D02*
X114340000Y-106880000D01*
X130990000Y-113080000D02*
X130990000Y-106880000D01*
X128090000Y-113080000D02*
X130990000Y-113080000D01*
X128090000Y-125650000D02*
X128090000Y-113080000D01*
X142570000Y-125650000D02*
X128090000Y-125650000D01*
X142570000Y-162200000D02*
X142570000Y-125650000D01*
X102580000Y-162200000D02*
X142570000Y-162200000D01*
D10*
X105180000Y-135160000D02*
X105180000Y-135100000D01*
D12*
X133050000Y-161550000D03*
X125650000Y-160600000D03*
X123900000Y-160200000D03*
X132500000Y-156550000D03*
X129850000Y-159600000D03*
X125250000Y-157750000D03*
X123000000Y-126500000D03*
X107000000Y-161000000D03*
X136000000Y-144000000D03*
X124000000Y-161350000D03*
X124350000Y-159300000D03*
X123700000Y-158650000D03*
X125000000Y-159950000D03*
X140500000Y-154500000D03*
X138500000Y-154500000D03*
X141500000Y-154500000D03*
X125900000Y-158400000D03*
X126600000Y-159000000D03*
X125450000Y-161450000D03*
X131000000Y-158000000D03*
X127150000Y-159600000D03*
X131000000Y-157000000D03*
X130000000Y-158500000D03*
X139500000Y-154500000D03*
X130000000Y-157500000D03*
X128050000Y-159600000D03*
X130200000Y-161300000D03*
X131150000Y-161300000D03*
X132000000Y-158500000D03*
X133000000Y-158500000D03*
X133000000Y-157500000D03*
X124750000Y-160750000D03*
X132150000Y-161500000D03*
X132000000Y-159500000D03*
X132000000Y-157500000D03*
X133500000Y-156500000D03*
X127400000Y-161300000D03*
X129250000Y-161300000D03*
X133000000Y-159500000D03*
X140000000Y-155500000D03*
X136000000Y-155500000D03*
X126400000Y-161200000D03*
X128300000Y-161300000D03*
X135000000Y-155500000D03*
X134500000Y-156500000D03*
X138000000Y-155500000D03*
X128950000Y-159600000D03*
X137000000Y-155500000D03*
X142000000Y-155500000D03*
X141000000Y-155500000D03*
X141500000Y-156500000D03*
X140500000Y-156500000D03*
X139500000Y-156500000D03*
X138500000Y-156500000D03*
X137500000Y-156500000D03*
X136500000Y-156500000D03*
X135500000Y-156500000D03*
X139000000Y-155500000D03*
D13*
X118535000Y-116145000D03*
X126795000Y-116145000D03*
X127155000Y-122095000D03*
X118175000Y-122095000D03*
D14*
X125465000Y-115545000D03*
X123865000Y-115545000D03*
X123065000Y-115545000D03*
X122265000Y-115545000D03*
X121465000Y-115545000D03*
X119865000Y-115545000D03*
X125065000Y-116245000D03*
X124265000Y-116245000D03*
X123465000Y-116245000D03*
X121865000Y-116245000D03*
X121065000Y-116245000D03*
X120265000Y-116245000D03*
D15*
X129165000Y-111255000D03*
D16*
X129165000Y-108715000D03*
D13*
X126805000Y-132760000D03*
X118545000Y-132760000D03*
X118185000Y-126810000D03*
X127165000Y-126810000D03*
D14*
X119875000Y-133360000D03*
X121475000Y-133360000D03*
X122275000Y-133360000D03*
X123075000Y-133360000D03*
X123875000Y-133360000D03*
X125475000Y-133360000D03*
X120275000Y-132660000D03*
X121075000Y-132660000D03*
X121875000Y-132660000D03*
X123475000Y-132660000D03*
X124275000Y-132660000D03*
X125075000Y-132660000D03*
D17*
X113180000Y-132570000D03*
X112080000Y-132570000D03*
D18*
X107820000Y-134720000D03*
X107820000Y-135820000D03*
D17*
X130890000Y-145980000D03*
X131990000Y-145980000D03*
X131990000Y-143130000D03*
X130890000Y-143130000D03*
D18*
X120200000Y-160525000D03*
X120200000Y-161625000D03*
X122900000Y-161650000D03*
X122900000Y-160550000D03*
X134725000Y-154700000D03*
X134725000Y-153600000D03*
X121170000Y-161640000D03*
X121170000Y-160540000D03*
X122030000Y-161650000D03*
X122030000Y-160550000D03*
D17*
X133160000Y-153000000D03*
X132060000Y-153000000D03*
X133140000Y-153930000D03*
X132040000Y-153930000D03*
D18*
X125125000Y-157125000D03*
X125125000Y-156025000D03*
D17*
X112315000Y-150820000D03*
X113415000Y-150820000D03*
D18*
X116565000Y-151270000D03*
X116565000Y-152370000D03*
D17*
X112390000Y-155020000D03*
X113490000Y-155020000D03*
D18*
X116565000Y-154695000D03*
X116565000Y-153595000D03*
D15*
X141140000Y-136490000D03*
D16*
X141140000Y-139030000D03*
X141140000Y-141570000D03*
X141140000Y-144110000D03*
X141140000Y-146650000D03*
X141140000Y-149190000D03*
D15*
X108940000Y-130410000D03*
D16*
X108940000Y-127870000D03*
D15*
X130120000Y-127690000D03*
D16*
X130120000Y-130230000D03*
D15*
X104490000Y-127830000D03*
D16*
X104490000Y-130370000D03*
D15*
X133860000Y-127710000D03*
D16*
X133860000Y-130250000D03*
D15*
X104390000Y-141080000D03*
D16*
X106930000Y-141080000D03*
X104390000Y-143620000D03*
X106930000Y-143620000D03*
X104390000Y-146160000D03*
X106930000Y-146160000D03*
X104390000Y-148700000D03*
X106930000Y-148700000D03*
X104390000Y-151240000D03*
X106930000Y-151240000D03*
X104390000Y-153780000D03*
X106930000Y-153780000D03*
X104390000Y-156320000D03*
X106930000Y-156320000D03*
X104390000Y-158860000D03*
X106930000Y-158860000D03*
D15*
X140600000Y-152120000D03*
X137850000Y-150890000D03*
X140680000Y-127730000D03*
D16*
X140680000Y-130270000D03*
D15*
X116165000Y-111255000D03*
D16*
X116165000Y-108715000D03*
D15*
X133420000Y-140570000D03*
D16*
X135960000Y-140570000D03*
D19*
X119875000Y-158775000D03*
X119875000Y-157875000D03*
D20*
X110640000Y-152120000D03*
X110640000Y-153620000D03*
D21*
X112490000Y-138370000D03*
X111590000Y-138370000D03*
D19*
X130890000Y-144980000D03*
X130890000Y-144080000D03*
X137250000Y-128610000D03*
X137250000Y-127710000D03*
X106710000Y-128730000D03*
X106710000Y-127830000D03*
X136190000Y-128610000D03*
X136190000Y-127710000D03*
X138300000Y-128610000D03*
X138300000Y-127710000D03*
X127175000Y-157000000D03*
X127175000Y-157900000D03*
D21*
X114390000Y-150795000D03*
X115290000Y-150795000D03*
D22*
X115980000Y-133900000D03*
X109680000Y-133900000D03*
X115980000Y-136450000D03*
D23*
X109780000Y-136450000D03*
D24*
X112391800Y-153860600D03*
X112391800Y-153378000D03*
X112391800Y-152870000D03*
X112391800Y-152362000D03*
X112391800Y-151879400D03*
X115338200Y-151879400D03*
X115338200Y-152362000D03*
X115338200Y-152870000D03*
X115338200Y-153378000D03*
X115338200Y-153860600D03*
D25*
X113865000Y-152870000D03*
D26*
X128190000Y-147442500D03*
X128190000Y-141617500D03*
D12*
X119340000Y-161360000D03*
X126025000Y-157250000D03*
X133875000Y-153475000D03*
X118050000Y-155800000D03*
X120180000Y-138450000D03*
X109060000Y-135020000D03*
X106880000Y-130340000D03*
X114220000Y-155420000D03*
X113865000Y-152870000D03*
X115170000Y-147740000D03*
X116680000Y-141630000D03*
X112650000Y-142530000D03*
X137230000Y-129300000D03*
X124470000Y-147640000D03*
X110760000Y-156750000D03*
X114450000Y-148610000D03*
X113710000Y-136380000D03*
X119610000Y-140700000D03*
X120710000Y-143750000D03*
X127570000Y-153720000D03*
X118020000Y-156880000D03*
X122880000Y-147170000D03*
X113070000Y-138400000D03*
X120670000Y-132070000D03*
X111530000Y-154890000D03*
X117230000Y-154710000D03*
X125410000Y-140500000D03*
X124720000Y-133960000D03*
X123750000Y-149440000D03*
X128180000Y-143970000D03*
X127565000Y-111755000D03*
X120365000Y-110755000D03*
X120750000Y-159750000D03*
X133380000Y-133850000D03*
X126040000Y-154390000D03*
X125900000Y-155160000D03*
X133230000Y-146870000D03*
X122900000Y-159640000D03*
X121925000Y-156950000D03*
X128175000Y-156750000D03*
X133600000Y-155300000D03*
X125970000Y-156450000D03*
X122175000Y-158900000D03*
X130075000Y-155250000D03*
X124600000Y-155875000D03*
X129600000Y-156050000D03*
X121670000Y-145090000D03*
X113890000Y-150120000D03*
X118750000Y-143180000D03*
X122930000Y-135450000D03*
X121320000Y-143260000D03*
X120290000Y-145870000D03*
X119100000Y-145840000D03*
X118680000Y-144630000D03*
X123520000Y-136380000D03*
X123840000Y-142540000D03*
X135900000Y-150170000D03*
X139210000Y-144560000D03*
X137380000Y-147390000D03*
X130520000Y-151010000D03*
X127500000Y-152240000D03*
X130850000Y-150240000D03*
X126530000Y-152030000D03*
X124565000Y-112455000D03*
X108340000Y-145560000D03*
X109260000Y-144690000D03*
X117800000Y-137020000D03*
X125350000Y-141710000D03*
X120920000Y-137630000D03*
X120670000Y-133800000D03*
X122100000Y-146700000D03*
X120075000Y-157050000D03*
X118050000Y-142170000D03*
X123465000Y-112655000D03*
X122665000Y-109855000D03*
X127165000Y-113655000D03*
X124665000Y-115255000D03*
X124765000Y-113255000D03*
X118900000Y-153580000D03*
X113890000Y-129940000D03*
X118800000Y-136640000D03*
X120420000Y-135860000D03*
X121700000Y-137180000D03*
X124430000Y-137660000D03*
X109060000Y-142550000D03*
X116340000Y-149690000D03*
X118150000Y-151950000D03*
X104390000Y-141080000D03*
X109360000Y-141390000D03*
X111220000Y-145290000D03*
X109880000Y-147290000D03*
X110250000Y-151060000D03*
X118490000Y-152910000D03*
X118440000Y-149940000D03*
X115470000Y-149880000D03*
X127740000Y-129140000D03*
X136830000Y-132390000D03*
X123010000Y-148760000D03*
X118665000Y-109755000D03*
X120665000Y-109255000D03*
D11*
X120200000Y-161625000D02*
X119605000Y-161625000D01*
X119605000Y-161625000D02*
X119340000Y-161360000D01*
X120200000Y-161625000D02*
X121155000Y-161625000D01*
X121155000Y-161625000D02*
X121170000Y-161640000D01*
X125125000Y-157125000D02*
X125875000Y-157125000D01*
X126000000Y-157250000D02*
X126025000Y-157250000D01*
X125875000Y-157125000D02*
X126000000Y-157250000D01*
X133160000Y-153475000D02*
X133875000Y-153475000D01*
X133160000Y-153000000D02*
X133160000Y-153475000D01*
X133160000Y-153475000D02*
X133160000Y-153910000D01*
X133160000Y-153910000D02*
X133140000Y-153930000D01*
X109680000Y-133900000D02*
X109680000Y-134400000D01*
X109680000Y-134400000D02*
X109060000Y-135020000D01*
X109680000Y-133900000D02*
X110440000Y-133900000D01*
X110440000Y-133900000D02*
X111770000Y-132570000D01*
X111770000Y-132570000D02*
X112080000Y-132570000D01*
X109680000Y-133900000D02*
X108640000Y-133900000D01*
X108640000Y-133900000D02*
X107820000Y-134720000D01*
X106710000Y-128730000D02*
X106710000Y-130170000D01*
X106710000Y-130170000D02*
X106880000Y-130340000D01*
X113490000Y-155020000D02*
X113820000Y-155020000D01*
X113820000Y-155020000D02*
X114220000Y-155420000D01*
X115338200Y-153378000D02*
X114373000Y-153378000D01*
X114373000Y-153378000D02*
X113865000Y-152870000D01*
X115338200Y-153378000D02*
X116348000Y-153378000D01*
X116348000Y-153378000D02*
X116565000Y-153595000D01*
X116565000Y-152370000D02*
X116565000Y-153595000D01*
X113865000Y-152870000D02*
X113865000Y-151270000D01*
X113865000Y-151270000D02*
X113415000Y-150820000D01*
X113490000Y-155020000D02*
X113490000Y-153245000D01*
X113490000Y-153245000D02*
X113865000Y-152870000D01*
X113865000Y-152870000D02*
X112391800Y-152870000D01*
X121170000Y-161640000D02*
X122020000Y-161640000D01*
X122020000Y-161640000D02*
X122030000Y-161650000D01*
X122030000Y-161650000D02*
X122900000Y-161650000D01*
X122900000Y-161650000D02*
X121180000Y-161650000D01*
X121180000Y-161650000D02*
X121175000Y-161655000D01*
X136190000Y-128610000D02*
X136190000Y-130950000D01*
X136190000Y-130950000D02*
X141140000Y-135900000D01*
X141140000Y-135900000D02*
X141140000Y-136490000D01*
X137250000Y-128610000D02*
X136190000Y-128610000D01*
X136190000Y-128610000D02*
X138300000Y-128610000D01*
X138300000Y-128610000D02*
X137250000Y-128610000D01*
X137250000Y-128610000D02*
X137230000Y-128630000D01*
X137230000Y-128630000D02*
X137230000Y-129300000D01*
D27*
X110760000Y-156620000D02*
X110760000Y-156750000D01*
X109290000Y-155150000D02*
X110760000Y-156620000D01*
X109290000Y-151120000D02*
X109290000Y-155150000D01*
X111770000Y-148640000D02*
X109290000Y-151120000D01*
X114410000Y-148640000D02*
X111770000Y-148640000D01*
X114440000Y-148610000D02*
X114410000Y-148640000D01*
X114450000Y-148610000D02*
X114440000Y-148610000D01*
D11*
X113180000Y-132570000D02*
X114650000Y-132570000D01*
X114650000Y-132570000D02*
X115980000Y-133900000D01*
X109780000Y-136450000D02*
X109780000Y-136560000D01*
X109780000Y-136560000D02*
X111590000Y-138370000D01*
X112280000Y-136240000D02*
X113570000Y-136240000D01*
X113570000Y-136240000D02*
X113710000Y-136380000D01*
X108940000Y-127870000D02*
X108890000Y-127870000D01*
X108890000Y-127870000D02*
X107520000Y-129240000D01*
X107520000Y-129240000D02*
X107520000Y-133730000D01*
X107520000Y-133730000D02*
X107270000Y-133980000D01*
X107270000Y-133980000D02*
X107270000Y-135270000D01*
X107270000Y-135270000D02*
X107820000Y-135820000D01*
X107820000Y-135820000D02*
X109150000Y-135820000D01*
X109150000Y-135820000D02*
X109780000Y-136450000D01*
X112280000Y-136240000D02*
X109990000Y-136240000D01*
X109990000Y-136240000D02*
X109780000Y-136450000D01*
X112490000Y-138370000D02*
X113040000Y-138370000D01*
X113040000Y-138370000D02*
X113070000Y-138400000D01*
X112390000Y-155020000D02*
X111660000Y-155020000D01*
X111660000Y-155020000D02*
X111530000Y-154890000D01*
X116565000Y-154695000D02*
X117215000Y-154695000D01*
X117215000Y-154695000D02*
X117230000Y-154710000D01*
D28*
X116565000Y-154695000D02*
X116172600Y-154695000D01*
X116172600Y-154695000D02*
X115338200Y-153860600D01*
X112391800Y-153860600D02*
X112391800Y-155018200D01*
X112391800Y-155018200D02*
X112390000Y-155020000D01*
D11*
X124860000Y-135510000D02*
X124720000Y-135370000D01*
X124720000Y-135370000D02*
X124720000Y-133960000D01*
X121075000Y-132660000D02*
X121075000Y-132165000D01*
X121075000Y-132165000D02*
X121410000Y-131830000D01*
X121410000Y-131830000D02*
X127160000Y-131830000D01*
X127160000Y-131830000D02*
X127950000Y-132620000D01*
X127950000Y-132620000D02*
X127950000Y-132930000D01*
X127950000Y-132930000D02*
X126910000Y-133970000D01*
X126910000Y-133970000D02*
X126910000Y-134460000D01*
X126910000Y-134460000D02*
X125860000Y-135510000D01*
X125860000Y-135510000D02*
X124860000Y-135510000D01*
X128190000Y-147442500D02*
X125747500Y-147442500D01*
X125747500Y-147442500D02*
X123750000Y-149440000D01*
D28*
X128190000Y-147442500D02*
X129427500Y-147442500D01*
X129427500Y-147442500D02*
X130890000Y-145980000D01*
X130890000Y-145980000D02*
X130890000Y-144980000D01*
D11*
X128190000Y-143960000D02*
X128190000Y-141617500D01*
X128180000Y-143970000D02*
X128190000Y-143960000D01*
D28*
X128190000Y-141617500D02*
X129377500Y-141617500D01*
X129377500Y-141617500D02*
X130890000Y-143130000D01*
X130890000Y-144080000D02*
X130890000Y-143130000D01*
X126365000Y-110555000D02*
X127565000Y-111755000D01*
X120565000Y-110555000D02*
X126365000Y-110555000D01*
X120365000Y-110755000D02*
X120565000Y-110555000D01*
D11*
X120750000Y-159750000D02*
X120750000Y-160000000D01*
X120700000Y-160050000D02*
X120675000Y-160050000D01*
X120750000Y-160000000D02*
X120700000Y-160050000D01*
X120675000Y-160050000D02*
X120200000Y-160525000D01*
X133380000Y-133850000D02*
X133050000Y-134180000D01*
X133050000Y-134180000D02*
X133050000Y-134550000D01*
X126040000Y-154390000D02*
X126040000Y-154390000D01*
X126040000Y-154390000D02*
X128160613Y-154359266D01*
X128160613Y-154359266D02*
X131750000Y-150848531D01*
X131750000Y-150848531D02*
X131750000Y-149340000D01*
X131750000Y-149340000D02*
X132640000Y-147030000D01*
X132640000Y-147030000D02*
X132640000Y-142320000D01*
X132640000Y-142320000D02*
X132430000Y-142110000D01*
X132430000Y-142110000D02*
X131880000Y-142110000D01*
X131880000Y-142110000D02*
X129920000Y-140150000D01*
X129920000Y-140150000D02*
X129920000Y-137680000D01*
X129920000Y-137680000D02*
X133050000Y-134550000D01*
X126050000Y-155310000D02*
X128520000Y-155310000D01*
X125900000Y-155160000D02*
X126050000Y-155310000D01*
X128520000Y-155310000D02*
X128530000Y-155300000D01*
X133030000Y-150800000D02*
X128520000Y-155310000D01*
X133030000Y-147070000D02*
X133030000Y-150800000D01*
X133230000Y-146870000D02*
X133030000Y-147070000D01*
X123975000Y-160550000D02*
X126625000Y-157900000D01*
X122900000Y-160550000D02*
X122900000Y-159640000D01*
X122900000Y-160550000D02*
X123975000Y-160550000D01*
X126625000Y-157900000D02*
X127175000Y-157900000D01*
X125845000Y-156575000D02*
X125970000Y-156450000D01*
X122300000Y-156575000D02*
X125845000Y-156575000D01*
X121925000Y-156950000D02*
X122300000Y-156575000D01*
X127925000Y-157000000D02*
X127175000Y-157000000D01*
X128175000Y-156750000D02*
X127925000Y-157000000D01*
X134375000Y-154700000D02*
X134725000Y-154700000D01*
X133600000Y-155300000D02*
X134375000Y-154700000D01*
X125970000Y-156450000D02*
X125910000Y-156510000D01*
X122030000Y-160550000D02*
X122030000Y-159045000D01*
X122030000Y-159045000D02*
X122175000Y-158900000D01*
X119875000Y-158775000D02*
X121150000Y-158775000D01*
X121575000Y-159975000D02*
X121575000Y-160540000D01*
X121575000Y-159200000D02*
X121575000Y-159975000D01*
X121150000Y-158775000D02*
X121575000Y-159200000D01*
X121170000Y-160540000D02*
X121575000Y-160540000D01*
X121575000Y-160540000D02*
X122020000Y-160540000D01*
X122020000Y-160540000D02*
X122030000Y-160550000D01*
X130075000Y-155250000D02*
X131150000Y-154175000D01*
X131150000Y-154175000D02*
X131795000Y-154175000D01*
X131795000Y-154175000D02*
X132060000Y-153910000D01*
X132060000Y-153910000D02*
X132060000Y-153000000D01*
X125125000Y-156025000D02*
X124750000Y-156025000D01*
X124750000Y-156025000D02*
X124600000Y-155875000D01*
X129450000Y-155900000D02*
X125250000Y-155900000D01*
X129600000Y-156050000D02*
X129450000Y-155900000D01*
X125250000Y-155900000D02*
X125125000Y-156025000D01*
D27*
X114380000Y-150120000D02*
X113890000Y-150120000D01*
X116080000Y-148420000D02*
X114380000Y-150120000D01*
X116080000Y-147500000D02*
X116080000Y-148420000D01*
X118330000Y-145250000D02*
X116080000Y-147500000D01*
X121830000Y-145250000D02*
X118330000Y-145250000D01*
X121670000Y-145090000D02*
X121830000Y-145250000D01*
X113890000Y-150120000D02*
X114065000Y-150120000D01*
X114065000Y-150120000D02*
X114190000Y-150245000D01*
X113890000Y-150120000D02*
X113630000Y-150120000D01*
X113630000Y-150120000D02*
X113505000Y-150245000D01*
X113900000Y-150130000D02*
X113900000Y-150245000D01*
X113890000Y-150120000D02*
X113900000Y-150130000D01*
D28*
X112391800Y-151879400D02*
X112391800Y-150896800D01*
X112391800Y-150896800D02*
X112315000Y-150820000D01*
X114390000Y-150795000D02*
X114390000Y-150445000D01*
X114390000Y-150445000D02*
X114190000Y-150245000D01*
X112640000Y-150245000D02*
X112315000Y-150570000D01*
X113505000Y-150245000D02*
X112640000Y-150245000D01*
X114190000Y-150245000D02*
X113900000Y-150245000D01*
X113900000Y-150245000D02*
X113505000Y-150245000D01*
X112315000Y-150570000D02*
X112315000Y-150820000D01*
X116565000Y-151270000D02*
X115765000Y-151270000D01*
X115765000Y-151270000D02*
X115290000Y-150795000D01*
X115338200Y-152870000D02*
X115338200Y-151879400D01*
X115338200Y-151879400D02*
X115290000Y-151831200D01*
X115290000Y-151831200D02*
X115290000Y-150795000D01*
D11*
X118750000Y-143180000D02*
X119130000Y-143170000D01*
X119130000Y-143170000D02*
X119130000Y-143200000D01*
X119130000Y-143200000D02*
X119130000Y-143170000D01*
X122275000Y-133360000D02*
X122275000Y-133985000D01*
X122930000Y-134640000D02*
X122930000Y-135450000D01*
X122275000Y-133985000D02*
X122930000Y-134640000D01*
X120040000Y-143170000D02*
X120040000Y-141560000D01*
X122930000Y-138670000D02*
X122930000Y-135450000D01*
X120040000Y-141560000D02*
X122930000Y-138670000D01*
X105640000Y-144910000D02*
X104390000Y-146160000D01*
X107370000Y-144910000D02*
X105640000Y-144910000D01*
X109110000Y-143170000D02*
X107370000Y-144910000D01*
X121230000Y-143170000D02*
X120040000Y-143170000D01*
X120040000Y-143170000D02*
X119130000Y-143170000D01*
X119130000Y-143170000D02*
X109110000Y-143170000D01*
X121320000Y-143260000D02*
X121230000Y-143170000D01*
X118440000Y-144440000D02*
X118490000Y-144440000D01*
X119130000Y-145870000D02*
X120290000Y-145870000D01*
X119100000Y-145840000D02*
X119130000Y-145870000D01*
X118490000Y-144440000D02*
X118680000Y-144630000D01*
X123860000Y-142520000D02*
X123840000Y-142540000D01*
X123860000Y-136720000D02*
X123860000Y-142520000D01*
X123520000Y-136380000D02*
X123860000Y-136720000D01*
X106930000Y-146160000D02*
X109480000Y-146160000D01*
X124180000Y-142880000D02*
X123840000Y-142540000D01*
X124180000Y-143500000D02*
X124180000Y-142880000D01*
X123240000Y-144440000D02*
X124180000Y-143500000D01*
X111200000Y-144440000D02*
X118440000Y-144440000D01*
X118440000Y-144440000D02*
X123240000Y-144440000D01*
X109480000Y-146160000D02*
X111200000Y-144440000D01*
X141110000Y-139030000D02*
X141140000Y-139030000D01*
X139850000Y-140290000D02*
X141110000Y-139030000D01*
X139850000Y-145970000D02*
X139850000Y-140290000D01*
X135970000Y-149850000D02*
X139850000Y-145970000D01*
X135970000Y-150100000D02*
X135970000Y-149850000D01*
X135900000Y-150170000D02*
X135970000Y-150100000D01*
X139370000Y-144720000D02*
X139210000Y-144560000D01*
X139370000Y-145400000D02*
X139370000Y-144720000D01*
X137380000Y-147390000D02*
X139370000Y-145400000D01*
X128730000Y-151010000D02*
X130520000Y-151010000D01*
X127500000Y-152240000D02*
X128730000Y-151010000D01*
X128320000Y-150240000D02*
X130850000Y-150240000D01*
X126530000Y-152030000D02*
X128320000Y-150240000D01*
D28*
X123565000Y-111455000D02*
X116365000Y-111455000D01*
X124565000Y-112455000D02*
X123565000Y-111455000D01*
X116365000Y-111455000D02*
X116165000Y-111255000D01*
D11*
X120920000Y-137630000D02*
X118410000Y-137630000D01*
X108390000Y-145560000D02*
X108340000Y-145560000D01*
X109260000Y-144690000D02*
X108390000Y-145560000D01*
X118410000Y-137630000D02*
X117800000Y-137020000D01*
X125480000Y-141840000D02*
X125480000Y-144530000D01*
X125350000Y-141710000D02*
X125480000Y-141840000D01*
X120920000Y-137500000D02*
X120920000Y-137630000D01*
X119720000Y-136300000D02*
X120920000Y-137500000D01*
X119720000Y-134750000D02*
X119720000Y-136300000D01*
X120670000Y-133800000D02*
X119720000Y-134750000D01*
X122190000Y-146610000D02*
X122100000Y-146700000D01*
X123400000Y-146610000D02*
X122190000Y-146610000D01*
X125480000Y-144530000D02*
X123400000Y-146610000D01*
X119875000Y-157250000D02*
X119875000Y-157875000D01*
X120075000Y-157050000D02*
X119875000Y-157250000D01*
D28*
X112391800Y-152362000D02*
X110882000Y-152362000D01*
X110882000Y-152362000D02*
X110640000Y-152120000D01*
X112391800Y-153378000D02*
X110882000Y-153378000D01*
X110882000Y-153378000D02*
X110640000Y-153620000D01*
D11*
X117680000Y-138150000D02*
X115980000Y-136450000D01*
X117680000Y-141800000D02*
X117680000Y-138150000D01*
X118050000Y-142170000D02*
X117680000Y-141800000D01*
D28*
X122265000Y-114255000D02*
X122265000Y-115545000D01*
X122765000Y-113755000D02*
X122265000Y-114255000D01*
X122765000Y-113355000D02*
X122765000Y-113755000D01*
X123465000Y-112655000D02*
X122765000Y-113355000D01*
X120265000Y-116655000D02*
X120265000Y-116245000D01*
X120765000Y-117155000D02*
X120265000Y-116655000D01*
X127365000Y-117155000D02*
X120765000Y-117155000D01*
X127665000Y-116855000D02*
X127365000Y-117155000D01*
X127665000Y-115155000D02*
X127665000Y-116855000D01*
X126565000Y-114055000D02*
X127665000Y-115155000D01*
X125665000Y-114055000D02*
X126565000Y-114055000D01*
X124965000Y-114755000D02*
X125665000Y-114055000D01*
X124965000Y-114955000D02*
X124965000Y-114755000D01*
X124665000Y-115255000D02*
X124965000Y-114955000D01*
X127665000Y-112755000D02*
X129165000Y-111255000D01*
X125165000Y-112755000D02*
X127665000Y-112755000D01*
X124765000Y-113255000D02*
X125165000Y-112755000D01*
D11*
X122990000Y-146000000D02*
X124700000Y-144290000D01*
X121450000Y-146000000D02*
X122990000Y-146000000D01*
X119050000Y-148400000D02*
X121450000Y-146000000D01*
X119050000Y-153430000D02*
X119050000Y-148400000D01*
X118900000Y-153580000D02*
X119050000Y-153430000D01*
X113890000Y-129940000D02*
X116000000Y-132050000D01*
X116000000Y-132050000D02*
X116740000Y-132050000D01*
X116740000Y-132050000D02*
X117710000Y-133020000D01*
X117710000Y-133020000D02*
X117710000Y-135850000D01*
X117710000Y-135850000D02*
X118500000Y-136640000D01*
X118500000Y-136640000D02*
X118800000Y-136640000D01*
X120420000Y-135900000D02*
X120420000Y-135860000D01*
X121700000Y-137180000D02*
X120420000Y-135900000D01*
X124700000Y-137930000D02*
X124430000Y-137660000D01*
X124700000Y-144290000D02*
X124700000Y-137930000D01*
X105670000Y-142360000D02*
X104390000Y-141080000D01*
X108870000Y-142360000D02*
X105670000Y-142360000D01*
X109060000Y-142550000D02*
X108870000Y-142360000D01*
X116560000Y-149690000D02*
X116340000Y-149690000D01*
X117390000Y-150520000D02*
X116560000Y-149690000D01*
X117390000Y-151190000D02*
X117390000Y-150520000D01*
X118150000Y-151950000D02*
X117390000Y-151190000D01*
X130120000Y-127690000D02*
X130360000Y-127690000D01*
X130360000Y-127690000D02*
X131820000Y-126230000D01*
X131820000Y-126230000D02*
X135780000Y-126230000D01*
X135780000Y-126230000D02*
X137250000Y-127700000D01*
X137250000Y-127700000D02*
X137250000Y-127710000D01*
X109050000Y-141080000D02*
X106930000Y-141080000D01*
X109360000Y-141390000D02*
X109050000Y-141080000D01*
X111250000Y-145260000D02*
X111220000Y-145290000D01*
X111250000Y-145920000D02*
X111250000Y-145260000D01*
X109880000Y-147290000D02*
X111250000Y-145920000D01*
X110250000Y-151070000D02*
X110250000Y-151060000D01*
X109700000Y-151620000D02*
X110250000Y-151070000D01*
X109700000Y-154340000D02*
X109700000Y-151620000D01*
X111330000Y-155970000D02*
X109700000Y-154340000D01*
X116860000Y-155970000D02*
X111330000Y-155970000D01*
X117945000Y-154885000D02*
X116860000Y-155970000D01*
X117945000Y-153455000D02*
X117945000Y-154885000D01*
X118490000Y-152910000D02*
X117945000Y-153455000D01*
X106930000Y-141080000D02*
X106930000Y-137020000D01*
X105990000Y-136080000D02*
X105990000Y-127830000D01*
X106930000Y-137020000D02*
X105990000Y-136080000D01*
X104490000Y-127830000D02*
X105990000Y-127830000D01*
X105990000Y-127830000D02*
X106710000Y-127830000D01*
X133860000Y-127710000D02*
X132910000Y-127710000D01*
X132910000Y-127710000D02*
X131870000Y-128750000D01*
X136190000Y-127710000D02*
X133860000Y-127710000D01*
X118440000Y-149940000D02*
X117490000Y-148990000D01*
X117490000Y-148990000D02*
X116240000Y-148990000D01*
X116240000Y-148990000D02*
X115470000Y-149760000D01*
X115470000Y-149760000D02*
X115470000Y-149880000D01*
X127830000Y-129230000D02*
X127740000Y-129140000D01*
X127830000Y-131410000D02*
X127830000Y-129230000D01*
X128680000Y-132260000D02*
X127830000Y-131410000D01*
X131530000Y-132260000D02*
X128680000Y-132260000D01*
X131870000Y-131920000D02*
X131530000Y-132260000D01*
X131870000Y-128750000D02*
X131870000Y-131920000D01*
X136750000Y-132470000D02*
X136830000Y-132390000D01*
X132960000Y-132470000D02*
X136750000Y-132470000D01*
X126190000Y-139240000D02*
X132960000Y-132470000D01*
X126190000Y-144800000D02*
X126190000Y-139240000D01*
X123610000Y-147380000D02*
X126190000Y-144800000D01*
X123610000Y-148160000D02*
X123610000Y-147380000D01*
X123010000Y-148760000D02*
X123610000Y-148160000D01*
X138300000Y-127710000D02*
X140660000Y-127710000D01*
X140660000Y-127710000D02*
X140680000Y-127730000D01*
D29*
G36*
X117150000Y-126383000D02*
X117150000Y-126683000D01*
X118058000Y-126683000D01*
X118058000Y-126663000D01*
X118312000Y-126663000D01*
X118312000Y-126683000D01*
X119220000Y-126683000D01*
X119220000Y-126383000D01*
X119124068Y-126092000D01*
X126225932Y-126092000D01*
X126130000Y-126383000D01*
X126130000Y-126683000D01*
X127038000Y-126683000D01*
X127038000Y-126663000D01*
X127292000Y-126663000D01*
X127292000Y-126683000D01*
X128200000Y-126683000D01*
X128200000Y-126383000D01*
X128107365Y-126102000D01*
X131308776Y-126102000D01*
X130955161Y-126455615D01*
X129270000Y-126455615D01*
X129130292Y-126481903D01*
X129001980Y-126564470D01*
X128915899Y-126690453D01*
X128885615Y-126840000D01*
X128885615Y-128540000D01*
X128911903Y-128679708D01*
X128994470Y-128808020D01*
X129120453Y-128894101D01*
X129270000Y-128924385D01*
X130970000Y-128924385D01*
X131109708Y-128898097D01*
X131238020Y-128815530D01*
X131324101Y-128689547D01*
X131354385Y-128540000D01*
X131354385Y-127334839D01*
X132007224Y-126682000D01*
X132675340Y-126682000D01*
X132655899Y-126710453D01*
X132625615Y-126860000D01*
X132625615Y-127366850D01*
X132590388Y-127390388D01*
X131550388Y-128430388D01*
X131452406Y-128577027D01*
X131418000Y-128750000D01*
X131418000Y-131732775D01*
X131342776Y-131808000D01*
X128867225Y-131808000D01*
X128282000Y-131222776D01*
X128282000Y-130230000D01*
X128868962Y-130230000D01*
X128962362Y-130699553D01*
X129228342Y-131097620D01*
X129626409Y-131363600D01*
X130095962Y-131457000D01*
X130144038Y-131457000D01*
X130613591Y-131363600D01*
X131011658Y-131097620D01*
X131277638Y-130699553D01*
X131371038Y-130230000D01*
X131277638Y-129760447D01*
X131011658Y-129362380D01*
X130613591Y-129096400D01*
X130144038Y-129003000D01*
X130095962Y-129003000D01*
X129626409Y-129096400D01*
X129228342Y-129362380D01*
X128962362Y-129760447D01*
X128868962Y-130230000D01*
X128282000Y-130230000D01*
X128282000Y-129555533D01*
X128313598Y-129523990D01*
X128416882Y-129275254D01*
X128417117Y-129005927D01*
X128314267Y-128757011D01*
X128123990Y-128566402D01*
X127875254Y-128463118D01*
X127605927Y-128462883D01*
X127357011Y-128565733D01*
X127166402Y-128756010D01*
X127063118Y-129004746D01*
X127062883Y-129274073D01*
X127165733Y-129522989D01*
X127356010Y-129713598D01*
X127378000Y-129722729D01*
X127378000Y-131410000D01*
X127385454Y-131447473D01*
X127332973Y-131412406D01*
X127160000Y-131378000D01*
X121410000Y-131378000D01*
X121237027Y-131412406D01*
X121090388Y-131510387D01*
X121079160Y-131521615D01*
X121053990Y-131496402D01*
X120805254Y-131393118D01*
X120535927Y-131392883D01*
X120287011Y-131495733D01*
X120096402Y-131686010D01*
X119993118Y-131934746D01*
X119993046Y-132016935D01*
X119877868Y-132064526D01*
X119680220Y-132261830D01*
X119614649Y-132419742D01*
X119597738Y-132421283D01*
X119580000Y-132428630D01*
X119580000Y-132333000D01*
X119452615Y-131946590D01*
X119187053Y-131638342D01*
X118831123Y-131465334D01*
X118672000Y-131593002D01*
X118672000Y-132633000D01*
X118692000Y-132633000D01*
X118692000Y-132887000D01*
X118672000Y-132887000D01*
X118672000Y-132907000D01*
X118418000Y-132907000D01*
X118418000Y-132887000D01*
X118398000Y-132887000D01*
X118398000Y-132633000D01*
X118418000Y-132633000D01*
X118418000Y-131593002D01*
X118258877Y-131465334D01*
X117902947Y-131638342D01*
X117637385Y-131946590D01*
X117547741Y-132218517D01*
X117059612Y-131730388D01*
X116912973Y-131632406D01*
X116740000Y-131598000D01*
X116187225Y-131598000D01*
X114566967Y-129977743D01*
X114567117Y-129805927D01*
X114464267Y-129557011D01*
X114273990Y-129366402D01*
X114025254Y-129263118D01*
X113755927Y-129262883D01*
X113507011Y-129365733D01*
X113316402Y-129556010D01*
X113213118Y-129804746D01*
X113212883Y-130074073D01*
X113315733Y-130322989D01*
X113506010Y-130513598D01*
X113754746Y-130616882D01*
X113927809Y-130617033D01*
X115680388Y-132369613D01*
X115805169Y-132452989D01*
X115827027Y-132467594D01*
X116000000Y-132502000D01*
X116552776Y-132502000D01*
X116866391Y-132815615D01*
X115534839Y-132815615D01*
X114969612Y-132250388D01*
X114822973Y-132152406D01*
X114650000Y-132118000D01*
X113798013Y-132118000D01*
X113755530Y-132051980D01*
X113629547Y-131965899D01*
X113480000Y-131935615D01*
X112893641Y-131935615D01*
X112739698Y-131781673D01*
X112506309Y-131685000D01*
X112365750Y-131685000D01*
X112207000Y-131843750D01*
X112207000Y-132445000D01*
X112227000Y-132445000D01*
X112227000Y-132695000D01*
X112207000Y-132695000D01*
X112207000Y-133296250D01*
X112365750Y-133455000D01*
X112506309Y-133455000D01*
X112739698Y-133358327D01*
X112893641Y-133204385D01*
X113480000Y-133204385D01*
X113619708Y-133178097D01*
X113748020Y-133095530D01*
X113798261Y-133022000D01*
X114462776Y-133022000D01*
X114520060Y-133079284D01*
X114495615Y-133200000D01*
X114495615Y-134600000D01*
X114521903Y-134739708D01*
X114604470Y-134868020D01*
X114730453Y-134954101D01*
X114880000Y-134984385D01*
X117080000Y-134984385D01*
X117219708Y-134958097D01*
X117258000Y-134933457D01*
X117258000Y-135415340D01*
X117229547Y-135395899D01*
X117080000Y-135365615D01*
X114880000Y-135365615D01*
X114740292Y-135391903D01*
X114611980Y-135474470D01*
X114525899Y-135600453D01*
X114495615Y-135750000D01*
X114495615Y-137150000D01*
X114521903Y-137289708D01*
X114604470Y-137418020D01*
X114730453Y-137504101D01*
X114880000Y-137534385D01*
X116425161Y-137534385D01*
X117228000Y-138337224D01*
X117228000Y-141800000D01*
X117262406Y-141972973D01*
X117360388Y-142119612D01*
X117373033Y-142132257D01*
X117372883Y-142304073D01*
X117475733Y-142552989D01*
X117640457Y-142718000D01*
X109723285Y-142718000D01*
X109736882Y-142685254D01*
X109737117Y-142415927D01*
X109634267Y-142167011D01*
X109522728Y-142055277D01*
X109742989Y-141964267D01*
X109933598Y-141773990D01*
X110036882Y-141525254D01*
X110037117Y-141255927D01*
X109934267Y-141007011D01*
X109743990Y-140816402D01*
X109495254Y-140713118D01*
X109298611Y-140712946D01*
X109222973Y-140662406D01*
X109050000Y-140628000D01*
X108091130Y-140628000D01*
X108087638Y-140610447D01*
X107821658Y-140212380D01*
X107423591Y-139946400D01*
X107382000Y-139938127D01*
X107382000Y-137020000D01*
X107347594Y-136847027D01*
X107249612Y-136700388D01*
X106442000Y-135892776D01*
X106442000Y-129547250D01*
X106583000Y-129406250D01*
X106583000Y-128830000D01*
X106563000Y-128830000D01*
X106563000Y-128630000D01*
X106583000Y-128630000D01*
X106583000Y-128583000D01*
X106837000Y-128583000D01*
X106837000Y-128630000D01*
X106857000Y-128630000D01*
X106857000Y-128830000D01*
X106837000Y-128830000D01*
X106837000Y-129406250D01*
X106995750Y-129565000D01*
X107068000Y-129565000D01*
X107068000Y-133542776D01*
X106950388Y-133660388D01*
X106852406Y-133807027D01*
X106818000Y-133980000D01*
X106818000Y-135270000D01*
X106852406Y-135442973D01*
X106950388Y-135589612D01*
X107185615Y-135824839D01*
X107185615Y-136120000D01*
X107211903Y-136259708D01*
X107294470Y-136388020D01*
X107420453Y-136474101D01*
X107570000Y-136504385D01*
X108070000Y-136504385D01*
X108195615Y-136480749D01*
X108195615Y-137150000D01*
X108221903Y-137289708D01*
X108304470Y-137418020D01*
X108430453Y-137504101D01*
X108580000Y-137534385D01*
X110115161Y-137534385D01*
X111005615Y-138424840D01*
X111005615Y-138670000D01*
X111031903Y-138809708D01*
X111114470Y-138938020D01*
X111240453Y-139024101D01*
X111390000Y-139054385D01*
X111790000Y-139054385D01*
X111929708Y-139028097D01*
X112041252Y-138956320D01*
X112140453Y-139024101D01*
X112290000Y-139054385D01*
X112690000Y-139054385D01*
X112821141Y-139029709D01*
X112934746Y-139076882D01*
X113204073Y-139077117D01*
X113452989Y-138974267D01*
X113643598Y-138783990D01*
X113746882Y-138535254D01*
X113747117Y-138265927D01*
X113644267Y-138017011D01*
X113453990Y-137826402D01*
X113205254Y-137723118D01*
X112935927Y-137722883D01*
X112882236Y-137745068D01*
X112839547Y-137715899D01*
X112690000Y-137685615D01*
X112290000Y-137685615D01*
X112150292Y-137711903D01*
X112038748Y-137783680D01*
X111939547Y-137715899D01*
X111790000Y-137685615D01*
X111544840Y-137685615D01*
X111262931Y-137403707D01*
X111334101Y-137299547D01*
X111364385Y-137150000D01*
X111364385Y-136692000D01*
X113106401Y-136692000D01*
X113135733Y-136762989D01*
X113326010Y-136953598D01*
X113574746Y-137056882D01*
X113844073Y-137057117D01*
X114092989Y-136954267D01*
X114283598Y-136763990D01*
X114386882Y-136515254D01*
X114387117Y-136245927D01*
X114284267Y-135997011D01*
X114093990Y-135806402D01*
X113845254Y-135703118D01*
X113575927Y-135702883D01*
X113369928Y-135788000D01*
X111364385Y-135788000D01*
X111364385Y-135750000D01*
X111338097Y-135610292D01*
X111255530Y-135481980D01*
X111129547Y-135395899D01*
X110980000Y-135365615D01*
X108614160Y-135365615D01*
X108668263Y-135235000D01*
X109394250Y-135235000D01*
X109553000Y-135076250D01*
X109553000Y-134027000D01*
X109807000Y-134027000D01*
X109807000Y-135076250D01*
X109965750Y-135235000D01*
X110906309Y-135235000D01*
X111139698Y-135138327D01*
X111318327Y-134959699D01*
X111415000Y-134726310D01*
X111415000Y-134185750D01*
X111256250Y-134027000D01*
X109807000Y-134027000D01*
X109553000Y-134027000D01*
X108575025Y-134027000D01*
X108429699Y-133881673D01*
X108196310Y-133785000D01*
X108103750Y-133785000D01*
X107947002Y-133941748D01*
X107947002Y-133855676D01*
X107972000Y-133730000D01*
X107972000Y-133641250D01*
X108103750Y-133773000D01*
X109553000Y-133773000D01*
X109553000Y-132723750D01*
X109807000Y-132723750D01*
X109807000Y-133773000D01*
X111256250Y-133773000D01*
X111415000Y-133614250D01*
X111415000Y-133353025D01*
X111420302Y-133358327D01*
X111653691Y-133455000D01*
X111794250Y-133455000D01*
X111953000Y-133296250D01*
X111953000Y-132695000D01*
X111303750Y-132695000D01*
X111238388Y-132760362D01*
X111139698Y-132661673D01*
X110906309Y-132565000D01*
X109965750Y-132565000D01*
X109807000Y-132723750D01*
X109553000Y-132723750D01*
X109394250Y-132565000D01*
X108453691Y-132565000D01*
X108220302Y-132661673D01*
X108041673Y-132840301D01*
X107972000Y-133008506D01*
X107972000Y-132193690D01*
X111145000Y-132193690D01*
X111145000Y-132286250D01*
X111303750Y-132445000D01*
X111953000Y-132445000D01*
X111953000Y-131843750D01*
X111794250Y-131685000D01*
X111653691Y-131685000D01*
X111420302Y-131781673D01*
X111241673Y-131960301D01*
X111145000Y-132193690D01*
X107972000Y-132193690D01*
X107972000Y-131895000D01*
X108654250Y-131895000D01*
X108813000Y-131736250D01*
X108813000Y-130537000D01*
X109067000Y-130537000D01*
X109067000Y-131736250D01*
X109225750Y-131895000D01*
X109916309Y-131895000D01*
X110149698Y-131798327D01*
X110328327Y-131619699D01*
X110425000Y-131386310D01*
X110425000Y-130695750D01*
X110266250Y-130537000D01*
X109067000Y-130537000D01*
X108813000Y-130537000D01*
X108793000Y-130537000D01*
X108793000Y-130283000D01*
X108813000Y-130283000D01*
X108813000Y-130263000D01*
X109067000Y-130263000D01*
X109067000Y-130283000D01*
X110266250Y-130283000D01*
X110425000Y-130124250D01*
X110425000Y-129433690D01*
X110328327Y-129200301D01*
X110149698Y-129021673D01*
X109916309Y-128925000D01*
X109551224Y-128925000D01*
X109831658Y-128737620D01*
X110097638Y-128339553D01*
X110191038Y-127870000D01*
X110097638Y-127400447D01*
X109831658Y-127002380D01*
X109733810Y-126937000D01*
X117150000Y-126937000D01*
X117150000Y-127237000D01*
X117277385Y-127623410D01*
X117542947Y-127931658D01*
X117898877Y-128104666D01*
X118058000Y-127976998D01*
X118058000Y-126937000D01*
X118312000Y-126937000D01*
X118312000Y-127976998D01*
X118471123Y-128104666D01*
X118827053Y-127931658D01*
X119092615Y-127623410D01*
X119220000Y-127237000D01*
X119220000Y-126937000D01*
X126130000Y-126937000D01*
X126130000Y-127237000D01*
X126257385Y-127623410D01*
X126522947Y-127931658D01*
X126878877Y-128104666D01*
X127038000Y-127976998D01*
X127038000Y-126937000D01*
X127292000Y-126937000D01*
X127292000Y-127976998D01*
X127451123Y-128104666D01*
X127807053Y-127931658D01*
X128072615Y-127623410D01*
X128200000Y-127237000D01*
X128200000Y-126937000D01*
X127292000Y-126937000D01*
X127038000Y-126937000D01*
X126130000Y-126937000D01*
X119220000Y-126937000D01*
X118312000Y-126937000D01*
X118058000Y-126937000D01*
X117150000Y-126937000D01*
X109733810Y-126937000D01*
X109433591Y-126736400D01*
X108964038Y-126643000D01*
X108915962Y-126643000D01*
X108446409Y-126736400D01*
X108048342Y-127002380D01*
X107782362Y-127400447D01*
X107688962Y-127870000D01*
X107782173Y-128338603D01*
X107517778Y-128602998D01*
X107513252Y-128602998D01*
X107645000Y-128471250D01*
X107645000Y-128403691D01*
X107548327Y-128170302D01*
X107394385Y-128016359D01*
X107394385Y-127630000D01*
X107368097Y-127490292D01*
X107285530Y-127361980D01*
X107159547Y-127275899D01*
X107010000Y-127245615D01*
X106410000Y-127245615D01*
X106270292Y-127271903D01*
X106141980Y-127354470D01*
X106125903Y-127378000D01*
X105724385Y-127378000D01*
X105724385Y-126980000D01*
X105698097Y-126840292D01*
X105615530Y-126711980D01*
X105489547Y-126625899D01*
X105340000Y-126595615D01*
X103640000Y-126595615D01*
X103500292Y-126621903D01*
X103371980Y-126704470D01*
X103285899Y-126830453D01*
X103255615Y-126980000D01*
X103255615Y-128680000D01*
X103281903Y-128819708D01*
X103364470Y-128948020D01*
X103490453Y-129034101D01*
X103640000Y-129064385D01*
X105340000Y-129064385D01*
X105479708Y-129038097D01*
X105538000Y-129000587D01*
X105538000Y-129736362D01*
X105381658Y-129502380D01*
X104983591Y-129236400D01*
X104514038Y-129143000D01*
X104465962Y-129143000D01*
X103996409Y-129236400D01*
X103598342Y-129502380D01*
X103332362Y-129900447D01*
X103238962Y-130370000D01*
X103332362Y-130839553D01*
X103598342Y-131237620D01*
X103996409Y-131503600D01*
X104465962Y-131597000D01*
X104514038Y-131597000D01*
X104983591Y-131503600D01*
X105381658Y-131237620D01*
X105538000Y-131003638D01*
X105538000Y-134881972D01*
X105481935Y-134798065D01*
X105343406Y-134705503D01*
X105180000Y-134673000D01*
X105016594Y-134705503D01*
X104878065Y-134798065D01*
X104785503Y-134936594D01*
X104753000Y-135100000D01*
X104753000Y-135160000D01*
X104785503Y-135323406D01*
X104878065Y-135461935D01*
X105016594Y-135554497D01*
X105180000Y-135587000D01*
X105343406Y-135554497D01*
X105481935Y-135461935D01*
X105538000Y-135378028D01*
X105538000Y-136080000D01*
X105572406Y-136252973D01*
X105670388Y-136399612D01*
X106478000Y-137207224D01*
X106478000Y-139938127D01*
X106436409Y-139946400D01*
X106038342Y-140212380D01*
X105772362Y-140610447D01*
X105678962Y-141080000D01*
X105772362Y-141549553D01*
X106011869Y-141908000D01*
X105857225Y-141908000D01*
X105624385Y-141675160D01*
X105624385Y-140230000D01*
X105598097Y-140090292D01*
X105515530Y-139961980D01*
X105389547Y-139875899D01*
X105240000Y-139845615D01*
X103540000Y-139845615D01*
X103400292Y-139871903D01*
X103271980Y-139954470D01*
X103185899Y-140080453D01*
X103155615Y-140230000D01*
X103155615Y-141930000D01*
X103181903Y-142069708D01*
X103264470Y-142198020D01*
X103390453Y-142284101D01*
X103540000Y-142314385D01*
X104985160Y-142314385D01*
X105350387Y-142679612D01*
X105426476Y-142730453D01*
X105497027Y-142777594D01*
X105670000Y-142812000D01*
X105998505Y-142812000D01*
X105772362Y-143150447D01*
X105678962Y-143620000D01*
X105772362Y-144089553D01*
X106018551Y-144458000D01*
X105640000Y-144458000D01*
X105467027Y-144492406D01*
X105320388Y-144590388D01*
X104884062Y-145026714D01*
X104883591Y-145026400D01*
X104414038Y-144933000D01*
X104365962Y-144933000D01*
X103896409Y-145026400D01*
X103498342Y-145292380D01*
X103232362Y-145690447D01*
X103138962Y-146160000D01*
X103232362Y-146629553D01*
X103498342Y-147027620D01*
X103896409Y-147293600D01*
X104365962Y-147387000D01*
X104414038Y-147387000D01*
X104883591Y-147293600D01*
X105281658Y-147027620D01*
X105547638Y-146629553D01*
X105641038Y-146160000D01*
X105547638Y-145690447D01*
X105528067Y-145661157D01*
X105827224Y-145362000D01*
X105991823Y-145362000D01*
X105772362Y-145690447D01*
X105678962Y-146160000D01*
X105772362Y-146629553D01*
X106038342Y-147027620D01*
X106436409Y-147293600D01*
X106905962Y-147387000D01*
X106954038Y-147387000D01*
X107423591Y-147293600D01*
X107821658Y-147027620D01*
X108087638Y-146629553D01*
X108091130Y-146612000D01*
X109480000Y-146612000D01*
X109652973Y-146577594D01*
X109799612Y-146479612D01*
X110634185Y-145645039D01*
X110645733Y-145672989D01*
X110751667Y-145779108D01*
X109917743Y-146613033D01*
X109745927Y-146612883D01*
X109497011Y-146715733D01*
X109306402Y-146906010D01*
X109203118Y-147154746D01*
X109202883Y-147424073D01*
X109305733Y-147672989D01*
X109496010Y-147863598D01*
X109744746Y-147966882D01*
X110014073Y-147967117D01*
X110262989Y-147864267D01*
X110453598Y-147673990D01*
X110556882Y-147425254D01*
X110557033Y-147252191D01*
X111569613Y-146239612D01*
X111667594Y-146092973D01*
X111702000Y-145920000D01*
X111702000Y-145765428D01*
X111793598Y-145673990D01*
X111896882Y-145425254D01*
X111897117Y-145155927D01*
X111794267Y-144907011D01*
X111779282Y-144892000D01*
X118023705Y-144892000D01*
X117992710Y-144912710D01*
X115742710Y-147162710D01*
X115639309Y-147317460D01*
X115603000Y-147500000D01*
X115603000Y-148222420D01*
X115126923Y-148698497D01*
X115127117Y-148475927D01*
X115024267Y-148227011D01*
X114833990Y-148036402D01*
X114585254Y-147933118D01*
X114315927Y-147932883D01*
X114067011Y-148035733D01*
X113939522Y-148163000D01*
X111770000Y-148163000D01*
X111587460Y-148199309D01*
X111432710Y-148302710D01*
X108952710Y-150782710D01*
X108849309Y-150937460D01*
X108813000Y-151120000D01*
X108813000Y-155150000D01*
X108849309Y-155332540D01*
X108952710Y-155487290D01*
X110083115Y-156617695D01*
X110082883Y-156884073D01*
X110185733Y-157132989D01*
X110376010Y-157323598D01*
X110624746Y-157426882D01*
X110894073Y-157427117D01*
X111142989Y-157324267D01*
X111333598Y-157133990D01*
X111383391Y-157014073D01*
X117342883Y-157014073D01*
X117445733Y-157262989D01*
X117636010Y-157453598D01*
X117884746Y-157556882D01*
X118154073Y-157557117D01*
X118402989Y-157454267D01*
X118593598Y-157263990D01*
X118696882Y-157015254D01*
X118697117Y-156745927D01*
X118594267Y-156497011D01*
X118403990Y-156306402D01*
X118155254Y-156203118D01*
X117885927Y-156202883D01*
X117637011Y-156305733D01*
X117446402Y-156496010D01*
X117343118Y-156744746D01*
X117342883Y-157014073D01*
X111383391Y-157014073D01*
X111436882Y-156885254D01*
X111437117Y-156615927D01*
X111356988Y-156422000D01*
X116860000Y-156422000D01*
X117032973Y-156387594D01*
X117179612Y-156289612D01*
X118264612Y-155204612D01*
X118362594Y-155057973D01*
X118397000Y-154885000D01*
X118397000Y-154034380D01*
X118516010Y-154153598D01*
X118764746Y-154256882D01*
X119034073Y-154257117D01*
X119282989Y-154154267D01*
X119473598Y-153963990D01*
X119576882Y-153715254D01*
X119577117Y-153445927D01*
X119502000Y-153264130D01*
X119502000Y-148587224D01*
X121423029Y-146666195D01*
X121422883Y-146834073D01*
X121525733Y-147082989D01*
X121716010Y-147273598D01*
X121964746Y-147376882D01*
X122233064Y-147377116D01*
X122305733Y-147552989D01*
X122496010Y-147743598D01*
X122744746Y-147846882D01*
X123014073Y-147847117D01*
X123158000Y-147787648D01*
X123158000Y-147972776D01*
X123047743Y-148083033D01*
X122875927Y-148082883D01*
X122627011Y-148185733D01*
X122436402Y-148376010D01*
X122333118Y-148624746D01*
X122332883Y-148894073D01*
X122435733Y-149142989D01*
X122626010Y-149333598D01*
X122874746Y-149436882D01*
X123073003Y-149437055D01*
X123072883Y-149574073D01*
X123175733Y-149822989D01*
X123366010Y-150013598D01*
X123614746Y-150116882D01*
X123884073Y-150117117D01*
X124132989Y-150014267D01*
X124323598Y-149823990D01*
X124426882Y-149575254D01*
X124427033Y-149402191D01*
X125934725Y-147894500D01*
X126555615Y-147894500D01*
X126555615Y-149105000D01*
X126581903Y-149244708D01*
X126664470Y-149373020D01*
X126790453Y-149459101D01*
X126940000Y-149489385D01*
X129440000Y-149489385D01*
X129579708Y-149463097D01*
X129708020Y-149380530D01*
X129794101Y-149254547D01*
X129824385Y-149105000D01*
X129824385Y-147755551D01*
X130965550Y-146614385D01*
X131176359Y-146614385D01*
X131330302Y-146768327D01*
X131563691Y-146865000D01*
X131704250Y-146865000D01*
X131863000Y-146706250D01*
X131863000Y-146105000D01*
X131843000Y-146105000D01*
X131843000Y-145855000D01*
X131863000Y-145855000D01*
X131863000Y-145253750D01*
X131704250Y-145095000D01*
X131574385Y-145095000D01*
X131574385Y-144780000D01*
X131548097Y-144640292D01*
X131476320Y-144528748D01*
X131544101Y-144429547D01*
X131574385Y-144280000D01*
X131574385Y-144015000D01*
X131704250Y-144015000D01*
X131863000Y-143856250D01*
X131863000Y-143255000D01*
X131843000Y-143255000D01*
X131843000Y-143005000D01*
X131863000Y-143005000D01*
X131863000Y-142983000D01*
X132117000Y-142983000D01*
X132117000Y-143005000D01*
X132137000Y-143005000D01*
X132137000Y-143255000D01*
X132117000Y-143255000D01*
X132117000Y-143856250D01*
X132188000Y-143927250D01*
X132188000Y-145182750D01*
X132117000Y-145253750D01*
X132117000Y-145855000D01*
X132137000Y-145855000D01*
X132137000Y-146105000D01*
X132117000Y-146105000D01*
X132117000Y-146706250D01*
X132188000Y-146777250D01*
X132188000Y-146945938D01*
X131328222Y-149177497D01*
X131314124Y-149258939D01*
X131298000Y-149340000D01*
X131298000Y-149730524D01*
X131233990Y-149666402D01*
X130985254Y-149563118D01*
X130715927Y-149562883D01*
X130467011Y-149665733D01*
X130344531Y-149788000D01*
X128320000Y-149788000D01*
X128147027Y-149822406D01*
X128000388Y-149920388D01*
X126567743Y-151353033D01*
X126395927Y-151352883D01*
X126147011Y-151455733D01*
X125956402Y-151646010D01*
X125853118Y-151894746D01*
X125852883Y-152164073D01*
X125955733Y-152412989D01*
X126146010Y-152603598D01*
X126394746Y-152706882D01*
X126664073Y-152707117D01*
X126912989Y-152604267D01*
X126916535Y-152600727D01*
X126925733Y-152622989D01*
X127116010Y-152813598D01*
X127364746Y-152916882D01*
X127634073Y-152917117D01*
X127882989Y-152814267D01*
X128073598Y-152623990D01*
X128176882Y-152375254D01*
X128177033Y-152202191D01*
X128917224Y-151462000D01*
X130014624Y-151462000D01*
X130136010Y-151583598D01*
X130287659Y-151646568D01*
X128247068Y-153642446D01*
X128247117Y-153585927D01*
X128144267Y-153337011D01*
X127953990Y-153146402D01*
X127705254Y-153043118D01*
X127435927Y-153042883D01*
X127187011Y-153145733D01*
X126996402Y-153336010D01*
X126893118Y-153584746D01*
X126892883Y-153854073D01*
X126922258Y-153925166D01*
X126538122Y-153930733D01*
X126423990Y-153816402D01*
X126175254Y-153713118D01*
X125905927Y-153712883D01*
X125657011Y-153815733D01*
X125466402Y-154006010D01*
X125363118Y-154254746D01*
X125362883Y-154524073D01*
X125425929Y-154676656D01*
X125326402Y-154776010D01*
X125223118Y-155024746D01*
X125222883Y-155294073D01*
X125242114Y-155340615D01*
X125023135Y-155340615D01*
X124983990Y-155301402D01*
X124735254Y-155198118D01*
X124465927Y-155197883D01*
X124217011Y-155300733D01*
X124026402Y-155491010D01*
X123923118Y-155739746D01*
X123922883Y-156009073D01*
X123969957Y-156123000D01*
X122300000Y-156123000D01*
X122127027Y-156157406D01*
X121980388Y-156255388D01*
X121962743Y-156273033D01*
X121790927Y-156272883D01*
X121542011Y-156375733D01*
X121351402Y-156566010D01*
X121248118Y-156814746D01*
X121247883Y-157084073D01*
X121350733Y-157332989D01*
X121541010Y-157523598D01*
X121789746Y-157626882D01*
X122059073Y-157627117D01*
X122307989Y-157524267D01*
X122421704Y-157410750D01*
X124240000Y-157410750D01*
X124240000Y-157551309D01*
X124336673Y-157784698D01*
X124515301Y-157963327D01*
X124748690Y-158060000D01*
X124841250Y-158060000D01*
X125000000Y-157901250D01*
X125000000Y-157252000D01*
X124398750Y-157252000D01*
X124240000Y-157410750D01*
X122421704Y-157410750D01*
X122498598Y-157333990D01*
X122601882Y-157085254D01*
X122601933Y-157027000D01*
X125272000Y-157027000D01*
X125272000Y-157252000D01*
X125250000Y-157252000D01*
X125250000Y-157901250D01*
X125408750Y-158060000D01*
X125501310Y-158060000D01*
X125734699Y-157963327D01*
X125913327Y-157784698D01*
X126010000Y-157551309D01*
X126010000Y-157410750D01*
X125851252Y-157252002D01*
X126010000Y-157252002D01*
X126010000Y-157127035D01*
X126104073Y-157127117D01*
X126352989Y-157024267D01*
X126490615Y-156886881D01*
X126490615Y-157200000D01*
X126516903Y-157339708D01*
X126588680Y-157451252D01*
X126585539Y-157455849D01*
X126452027Y-157482406D01*
X126305388Y-157580388D01*
X123787776Y-160098000D01*
X123500187Y-160098000D01*
X123460790Y-160036776D01*
X123473598Y-160023990D01*
X123576882Y-159775254D01*
X123577117Y-159505927D01*
X123474267Y-159257011D01*
X123283990Y-159066402D01*
X123035254Y-158963118D01*
X122851945Y-158962958D01*
X122852117Y-158765927D01*
X122749267Y-158517011D01*
X122558990Y-158326402D01*
X122310254Y-158223118D01*
X122040927Y-158222883D01*
X121792011Y-158325733D01*
X121601402Y-158516010D01*
X121580521Y-158566297D01*
X121469612Y-158455388D01*
X121322973Y-158357406D01*
X121150000Y-158323000D01*
X120461831Y-158323000D01*
X120529101Y-158224547D01*
X120559385Y-158075000D01*
X120559385Y-157675000D01*
X120535314Y-157547076D01*
X120648598Y-157433990D01*
X120751882Y-157185254D01*
X120752117Y-156915927D01*
X120649267Y-156667011D01*
X120458990Y-156476402D01*
X120210254Y-156373118D01*
X119940927Y-156372883D01*
X119692011Y-156475733D01*
X119501402Y-156666010D01*
X119398118Y-156914746D01*
X119397883Y-157184073D01*
X119423690Y-157246531D01*
X119423000Y-157250000D01*
X119423000Y-157324813D01*
X119306980Y-157399470D01*
X119220899Y-157525453D01*
X119190615Y-157675000D01*
X119190615Y-158075000D01*
X119216903Y-158214708D01*
X119288680Y-158326252D01*
X119220899Y-158425453D01*
X119190615Y-158575000D01*
X119190615Y-158975000D01*
X119216903Y-159114708D01*
X119299470Y-159243020D01*
X119425453Y-159329101D01*
X119575000Y-159359385D01*
X120175000Y-159359385D01*
X120184906Y-159357521D01*
X120176402Y-159366010D01*
X120073118Y-159614746D01*
X120072921Y-159840615D01*
X119950000Y-159840615D01*
X119810292Y-159866903D01*
X119681980Y-159949470D01*
X119595899Y-160075453D01*
X119565615Y-160225000D01*
X119565615Y-160811359D01*
X119411673Y-160965302D01*
X119315000Y-161198691D01*
X119315000Y-161339250D01*
X119473750Y-161498000D01*
X120075000Y-161498000D01*
X120075000Y-161478000D01*
X120325000Y-161478000D01*
X120325000Y-161498000D01*
X120428750Y-161498000D01*
X120443750Y-161513000D01*
X121045000Y-161513000D01*
X121045000Y-161493000D01*
X121273750Y-161493000D01*
X121303750Y-161523000D01*
X121905000Y-161523000D01*
X121905000Y-161504250D01*
X121906250Y-161503000D01*
X122153750Y-161503000D01*
X122155000Y-161504250D01*
X122155000Y-161523000D01*
X122775000Y-161523000D01*
X122775000Y-161504250D01*
X122776250Y-161503000D01*
X123025000Y-161503000D01*
X123025000Y-161523000D01*
X123626250Y-161523000D01*
X123785000Y-161364250D01*
X123785000Y-161223691D01*
X123693172Y-161002000D01*
X123975000Y-161002000D01*
X124147973Y-160967594D01*
X124294612Y-160869612D01*
X126716346Y-158447878D01*
X126725453Y-158454101D01*
X126875000Y-158484385D01*
X127475000Y-158484385D01*
X127614708Y-158458097D01*
X127743020Y-158375530D01*
X127829101Y-158249547D01*
X127859385Y-158100000D01*
X127859385Y-157700000D01*
X127833097Y-157560292D01*
X127763413Y-157452000D01*
X127925000Y-157452000D01*
X128051228Y-157426892D01*
X128309073Y-157427117D01*
X128557989Y-157324267D01*
X128748598Y-157133990D01*
X128851882Y-156885254D01*
X128852117Y-156615927D01*
X128749267Y-156367011D01*
X128734282Y-156352000D01*
X128992269Y-156352000D01*
X129025733Y-156432989D01*
X129216010Y-156623598D01*
X129464746Y-156726882D01*
X129734073Y-156727117D01*
X129982989Y-156624267D01*
X130173598Y-156433990D01*
X130276882Y-156185254D01*
X130277117Y-155915927D01*
X130271143Y-155901470D01*
X130457989Y-155824267D01*
X130648598Y-155633990D01*
X130751882Y-155385254D01*
X130752033Y-155212191D01*
X131337225Y-154627000D01*
X131795000Y-154627000D01*
X131967973Y-154592594D01*
X132010190Y-154564385D01*
X132326359Y-154564385D01*
X132480302Y-154718327D01*
X132713691Y-154815000D01*
X132854250Y-154815000D01*
X133012998Y-154656252D01*
X133012998Y-154815000D01*
X133127588Y-154815000D01*
X133026402Y-154916010D01*
X132923118Y-155164746D01*
X132922883Y-155434073D01*
X133025733Y-155682989D01*
X133216010Y-155873598D01*
X133464746Y-155976882D01*
X133734073Y-155977117D01*
X133982989Y-155874267D01*
X134173598Y-155683990D01*
X134276882Y-155435254D01*
X134276959Y-155347531D01*
X134295185Y-155333420D01*
X134325453Y-155354101D01*
X134475000Y-155384385D01*
X134975000Y-155384385D01*
X135114708Y-155358097D01*
X135243020Y-155275530D01*
X135329101Y-155149547D01*
X135359385Y-155000000D01*
X135359385Y-154413641D01*
X135513327Y-154259698D01*
X135610000Y-154026309D01*
X135610000Y-153885750D01*
X135451250Y-153727000D01*
X134850000Y-153727000D01*
X134850000Y-153747000D01*
X134600000Y-153747000D01*
X134600000Y-153727000D01*
X134578000Y-153727000D01*
X134578000Y-153473000D01*
X134600000Y-153473000D01*
X134600000Y-152823750D01*
X134850000Y-152823750D01*
X134850000Y-153473000D01*
X135451250Y-153473000D01*
X135610000Y-153314250D01*
X135610000Y-153173691D01*
X135513327Y-152940302D01*
X135334699Y-152761673D01*
X135101310Y-152665000D01*
X135008750Y-152665000D01*
X134850000Y-152823750D01*
X134600000Y-152823750D01*
X134441250Y-152665000D01*
X134348690Y-152665000D01*
X134115301Y-152761673D01*
X134003977Y-152872998D01*
X133938252Y-152872998D01*
X134095000Y-152716250D01*
X134095000Y-152623690D01*
X133998327Y-152390301D01*
X133819698Y-152211673D01*
X133586309Y-152115000D01*
X133445750Y-152115000D01*
X133287000Y-152273750D01*
X133287000Y-152875000D01*
X133307000Y-152875000D01*
X133307000Y-153125000D01*
X133287000Y-153125000D01*
X133287000Y-153183750D01*
X133267000Y-153203750D01*
X133267000Y-153805000D01*
X133287000Y-153805000D01*
X133287000Y-154055000D01*
X133267000Y-154055000D01*
X133267000Y-154077000D01*
X133013000Y-154077000D01*
X133013000Y-154055000D01*
X132993000Y-154055000D01*
X132993000Y-153805000D01*
X133013000Y-153805000D01*
X133013000Y-153746250D01*
X133033000Y-153726250D01*
X133033000Y-153125000D01*
X133013000Y-153125000D01*
X133013000Y-152875000D01*
X133033000Y-152875000D01*
X133033000Y-152273750D01*
X132874250Y-152115000D01*
X132733691Y-152115000D01*
X132500302Y-152211673D01*
X132346359Y-152365615D01*
X132103609Y-152365615D01*
X133349612Y-151119612D01*
X133447594Y-150972973D01*
X133482000Y-150800000D01*
X133482000Y-147498391D01*
X133612989Y-147444267D01*
X133803598Y-147253990D01*
X133906882Y-147005254D01*
X133907117Y-146735927D01*
X133804267Y-146487011D01*
X133613990Y-146296402D01*
X133365254Y-146193118D01*
X133095927Y-146192883D01*
X133092000Y-146194506D01*
X133092000Y-142320000D01*
X133057594Y-142147027D01*
X132959612Y-142000388D01*
X132763609Y-141804385D01*
X134270000Y-141804385D01*
X134409708Y-141778097D01*
X134538020Y-141695530D01*
X134624101Y-141569547D01*
X134654385Y-141420000D01*
X134654385Y-140545962D01*
X134733000Y-140545962D01*
X134733000Y-140594038D01*
X134826400Y-141063591D01*
X135092380Y-141461658D01*
X135490447Y-141727638D01*
X135960000Y-141821038D01*
X136429553Y-141727638D01*
X136827620Y-141461658D01*
X137093600Y-141063591D01*
X137187000Y-140594038D01*
X137187000Y-140545962D01*
X137093600Y-140076409D01*
X136827620Y-139678342D01*
X136429553Y-139412362D01*
X135960000Y-139318962D01*
X135490447Y-139412362D01*
X135092380Y-139678342D01*
X134826400Y-140076409D01*
X134733000Y-140545962D01*
X134654385Y-140545962D01*
X134654385Y-139720000D01*
X134628097Y-139580292D01*
X134545530Y-139451980D01*
X134419547Y-139365899D01*
X134270000Y-139335615D01*
X132570000Y-139335615D01*
X132430292Y-139361903D01*
X132301980Y-139444470D01*
X132215899Y-139570453D01*
X132185615Y-139720000D01*
X132185615Y-141420000D01*
X132211903Y-141559708D01*
X132275153Y-141658000D01*
X132067225Y-141658000D01*
X130372000Y-139962776D01*
X130372000Y-137867224D01*
X132725534Y-135513690D01*
X139655000Y-135513690D01*
X139655000Y-136204250D01*
X139813750Y-136363000D01*
X141013000Y-136363000D01*
X141013000Y-135163750D01*
X140854250Y-135005000D01*
X140163691Y-135005000D01*
X139930302Y-135101673D01*
X139751673Y-135280301D01*
X139655000Y-135513690D01*
X132725534Y-135513690D01*
X133369612Y-134869613D01*
X133467594Y-134722973D01*
X133477534Y-134673000D01*
X133502000Y-134550000D01*
X133502000Y-134527106D01*
X133514073Y-134527117D01*
X133762989Y-134424267D01*
X133953598Y-134233990D01*
X134056882Y-133985254D01*
X134057117Y-133715927D01*
X133954267Y-133467011D01*
X133763990Y-133276402D01*
X133515254Y-133173118D01*
X133245927Y-133172883D01*
X132997011Y-133275733D01*
X132806402Y-133466010D01*
X132703118Y-133714746D01*
X132702955Y-133901444D01*
X132632406Y-134007027D01*
X132598000Y-134180000D01*
X132598000Y-134362775D01*
X129600388Y-137360388D01*
X129502406Y-137507027D01*
X129468000Y-137680000D01*
X129468000Y-139576285D01*
X129440000Y-139570615D01*
X126940000Y-139570615D01*
X126800292Y-139596903D01*
X126671980Y-139679470D01*
X126642000Y-139723347D01*
X126642000Y-139427224D01*
X133147224Y-132922000D01*
X136404484Y-132922000D01*
X136446010Y-132963598D01*
X136694746Y-133066882D01*
X136964073Y-133067117D01*
X137212989Y-132964267D01*
X137403598Y-132773990D01*
X137506882Y-132525254D01*
X137507117Y-132255927D01*
X137404267Y-132007011D01*
X137213990Y-131816402D01*
X136965254Y-131713118D01*
X136695927Y-131712883D01*
X136447011Y-131815733D01*
X136256402Y-132006010D01*
X136251423Y-132018000D01*
X132960000Y-132018000D01*
X132787027Y-132052406D01*
X132640388Y-132150388D01*
X125870388Y-138920388D01*
X125772406Y-139067027D01*
X125738000Y-139240000D01*
X125738000Y-139903153D01*
X125545254Y-139823118D01*
X125275927Y-139822883D01*
X125152000Y-139874089D01*
X125152000Y-137930000D01*
X125117594Y-137757027D01*
X125106929Y-137741066D01*
X125107117Y-137525927D01*
X125004267Y-137277011D01*
X124813990Y-137086402D01*
X124565254Y-136983118D01*
X124312000Y-136982897D01*
X124312000Y-136720000D01*
X124277594Y-136547027D01*
X124250132Y-136505927D01*
X124196960Y-136426349D01*
X124197117Y-136245927D01*
X124094267Y-135997011D01*
X123903990Y-135806402D01*
X123655254Y-135703118D01*
X123557976Y-135703033D01*
X123606882Y-135585254D01*
X123607117Y-135315927D01*
X123504267Y-135067011D01*
X123382000Y-134944531D01*
X123382000Y-134640000D01*
X123347594Y-134467027D01*
X123249612Y-134320388D01*
X122991151Y-134061927D01*
X123214024Y-134062122D01*
X123472132Y-133955474D01*
X123474832Y-133952779D01*
X123476830Y-133954780D01*
X123734751Y-134061878D01*
X124014024Y-134062122D01*
X124042921Y-134050182D01*
X124042883Y-134094073D01*
X124145733Y-134342989D01*
X124268000Y-134465469D01*
X124268000Y-135370000D01*
X124302406Y-135542973D01*
X124400388Y-135689612D01*
X124540388Y-135829612D01*
X124687027Y-135927594D01*
X124860000Y-135962000D01*
X125860000Y-135962000D01*
X126032973Y-135927594D01*
X126179612Y-135829612D01*
X127229612Y-134779612D01*
X127327594Y-134632973D01*
X127333202Y-134604780D01*
X127362000Y-134460000D01*
X127362000Y-134157224D01*
X128269612Y-133249612D01*
X128367594Y-133102973D01*
X128402000Y-132930000D01*
X128402000Y-132620000D01*
X128399114Y-132605489D01*
X128507027Y-132677594D01*
X128680000Y-132712000D01*
X131530000Y-132712000D01*
X131702973Y-132677594D01*
X131849612Y-132579612D01*
X132189613Y-132239612D01*
X132287594Y-132092973D01*
X132322000Y-131920000D01*
X132322000Y-130250000D01*
X132608962Y-130250000D01*
X132702362Y-130719553D01*
X132968342Y-131117620D01*
X133366409Y-131383600D01*
X133835962Y-131477000D01*
X133884038Y-131477000D01*
X134353591Y-131383600D01*
X134751658Y-131117620D01*
X135017638Y-130719553D01*
X135107059Y-130270000D01*
X139428962Y-130270000D01*
X139522362Y-130739553D01*
X139788342Y-131137620D01*
X140186409Y-131403600D01*
X140655962Y-131497000D01*
X140704038Y-131497000D01*
X141173591Y-131403600D01*
X141571658Y-131137620D01*
X141837638Y-130739553D01*
X141931038Y-130270000D01*
X141837638Y-129800447D01*
X141571658Y-129402380D01*
X141173591Y-129136400D01*
X140704038Y-129043000D01*
X140655962Y-129043000D01*
X140186409Y-129136400D01*
X139788342Y-129402380D01*
X139522362Y-129800447D01*
X139428962Y-130270000D01*
X135107059Y-130270000D01*
X135111038Y-130250000D01*
X135017638Y-129780447D01*
X134751658Y-129382380D01*
X134353591Y-129116400D01*
X133884038Y-129023000D01*
X133835962Y-129023000D01*
X133366409Y-129116400D01*
X132968342Y-129382380D01*
X132702362Y-129780447D01*
X132608962Y-130250000D01*
X132322000Y-130250000D01*
X132322000Y-128937224D01*
X132637272Y-128621952D01*
X132651903Y-128699708D01*
X132734470Y-128828020D01*
X132860453Y-128914101D01*
X133010000Y-128944385D01*
X134710000Y-128944385D01*
X134849708Y-128918097D01*
X134926394Y-128868750D01*
X135255000Y-128868750D01*
X135255000Y-128936309D01*
X135351673Y-129169698D01*
X135530301Y-129348327D01*
X135763690Y-129445000D01*
X135904250Y-129445000D01*
X136063000Y-129286250D01*
X136063000Y-128868750D01*
X136315000Y-128868750D01*
X136315000Y-128936309D01*
X136317000Y-128941137D01*
X136317000Y-129286250D01*
X136475750Y-129445000D01*
X136616310Y-129445000D01*
X136720000Y-129402050D01*
X136823690Y-129445000D01*
X136964250Y-129445000D01*
X137123000Y-129286250D01*
X137123000Y-128941137D01*
X137125000Y-128936309D01*
X137125000Y-128868750D01*
X137365000Y-128868750D01*
X137365000Y-128936309D01*
X137377000Y-128965280D01*
X137377000Y-129286250D01*
X137535750Y-129445000D01*
X137676310Y-129445000D01*
X137775000Y-129404121D01*
X137873690Y-129445000D01*
X138014250Y-129445000D01*
X138173000Y-129286250D01*
X138173000Y-128965280D01*
X138185000Y-128936309D01*
X138185000Y-128868750D01*
X138173000Y-128856750D01*
X138173000Y-128710000D01*
X138427000Y-128710000D01*
X138427000Y-129286250D01*
X138585750Y-129445000D01*
X138726310Y-129445000D01*
X138959699Y-129348327D01*
X139138327Y-129169698D01*
X139235000Y-128936309D01*
X139235000Y-128868750D01*
X139076250Y-128710000D01*
X138427000Y-128710000D01*
X138173000Y-128710000D01*
X137377000Y-128710000D01*
X137377000Y-128856750D01*
X137365000Y-128868750D01*
X137125000Y-128868750D01*
X137123000Y-128866750D01*
X137123000Y-128710000D01*
X136317000Y-128710000D01*
X136317000Y-128866750D01*
X136315000Y-128868750D01*
X136063000Y-128868750D01*
X136063000Y-128710000D01*
X135413750Y-128710000D01*
X135255000Y-128868750D01*
X134926394Y-128868750D01*
X134978020Y-128835530D01*
X135064101Y-128709547D01*
X135094385Y-128560000D01*
X135094385Y-128162000D01*
X135305406Y-128162000D01*
X135255000Y-128283691D01*
X135255000Y-128351250D01*
X135413750Y-128510000D01*
X136063000Y-128510000D01*
X136063000Y-128463000D01*
X136317000Y-128463000D01*
X136317000Y-128510000D01*
X137123000Y-128510000D01*
X137123000Y-128463000D01*
X137377000Y-128463000D01*
X137377000Y-128510000D01*
X138173000Y-128510000D01*
X138173000Y-128463000D01*
X138427000Y-128463000D01*
X138427000Y-128510000D01*
X139076250Y-128510000D01*
X139235000Y-128351250D01*
X139235000Y-128283691D01*
X139184594Y-128162000D01*
X139445615Y-128162000D01*
X139445615Y-128580000D01*
X139471903Y-128719708D01*
X139554470Y-128848020D01*
X139680453Y-128934101D01*
X139830000Y-128964385D01*
X141530000Y-128964385D01*
X141669708Y-128938097D01*
X141798020Y-128855530D01*
X141884101Y-128729547D01*
X141914385Y-128580000D01*
X141914385Y-126880000D01*
X141888097Y-126740292D01*
X141805530Y-126611980D01*
X141679547Y-126525899D01*
X141530000Y-126495615D01*
X139830000Y-126495615D01*
X139690292Y-126521903D01*
X139561980Y-126604470D01*
X139475899Y-126730453D01*
X139445615Y-126880000D01*
X139445615Y-127258000D01*
X138885839Y-127258000D01*
X138875530Y-127241980D01*
X138749547Y-127155899D01*
X138600000Y-127125615D01*
X138000000Y-127125615D01*
X137860292Y-127151903D01*
X137774497Y-127207111D01*
X137699547Y-127155899D01*
X137550000Y-127125615D01*
X137314839Y-127125615D01*
X136291224Y-126102000D01*
X142118000Y-126102000D01*
X142118000Y-135005700D01*
X142116309Y-135005000D01*
X141425750Y-135005000D01*
X141267000Y-135163750D01*
X141267000Y-136363000D01*
X141287000Y-136363000D01*
X141287000Y-136617000D01*
X141267000Y-136617000D01*
X141267000Y-136637000D01*
X141013000Y-136637000D01*
X141013000Y-136617000D01*
X139813750Y-136617000D01*
X139655000Y-136775750D01*
X139655000Y-137466310D01*
X139751673Y-137699699D01*
X139930302Y-137878327D01*
X140163691Y-137975000D01*
X140528776Y-137975000D01*
X140248342Y-138162380D01*
X139982362Y-138560447D01*
X139888962Y-139030000D01*
X139982362Y-139499553D01*
X139989917Y-139510859D01*
X139530388Y-139970388D01*
X139432406Y-140117027D01*
X139398000Y-140290000D01*
X139398000Y-143905020D01*
X139345254Y-143883118D01*
X139075927Y-143882883D01*
X138827011Y-143985733D01*
X138636402Y-144176010D01*
X138533118Y-144424746D01*
X138532883Y-144694073D01*
X138635733Y-144942989D01*
X138826010Y-145133598D01*
X138918000Y-145171796D01*
X138918000Y-145212776D01*
X137417743Y-146713033D01*
X137245927Y-146712883D01*
X136997011Y-146815733D01*
X136806402Y-147006010D01*
X136703118Y-147254746D01*
X136702883Y-147524073D01*
X136805733Y-147772989D01*
X136996010Y-147963598D01*
X137152286Y-148028489D01*
X135650388Y-149530388D01*
X135640941Y-149544526D01*
X135517011Y-149595733D01*
X135326402Y-149786010D01*
X135223118Y-150034746D01*
X135222883Y-150304073D01*
X135325733Y-150552989D01*
X135516010Y-150743598D01*
X135764746Y-150846882D01*
X136034073Y-150847117D01*
X136282989Y-150744267D01*
X136473598Y-150553990D01*
X136576882Y-150305254D01*
X136577113Y-150040000D01*
X136615615Y-150040000D01*
X136615615Y-151740000D01*
X136641903Y-151879708D01*
X136724470Y-152008020D01*
X136850453Y-152094101D01*
X137000000Y-152124385D01*
X138700000Y-152124385D01*
X138839708Y-152098097D01*
X138968020Y-152015530D01*
X139054101Y-151889547D01*
X139084385Y-151740000D01*
X139084385Y-151270000D01*
X139365615Y-151270000D01*
X139365615Y-152970000D01*
X139391903Y-153109708D01*
X139474470Y-153238020D01*
X139600453Y-153324101D01*
X139750000Y-153354385D01*
X141450000Y-153354385D01*
X141589708Y-153328097D01*
X141718020Y-153245530D01*
X141804101Y-153119547D01*
X141834385Y-152970000D01*
X141834385Y-151270000D01*
X141808097Y-151130292D01*
X141725530Y-151001980D01*
X141599547Y-150915899D01*
X141450000Y-150885615D01*
X139750000Y-150885615D01*
X139610292Y-150911903D01*
X139481980Y-150994470D01*
X139395899Y-151120453D01*
X139365615Y-151270000D01*
X139084385Y-151270000D01*
X139084385Y-150040000D01*
X139058097Y-149900292D01*
X138975530Y-149771980D01*
X138849547Y-149685899D01*
X138700000Y-149655615D01*
X137000000Y-149655615D01*
X136860292Y-149681903D01*
X136731980Y-149764470D01*
X136645899Y-149890453D01*
X136615615Y-150040000D01*
X136577113Y-150040000D01*
X136577117Y-150035927D01*
X136532143Y-149927081D01*
X139908761Y-146550464D01*
X139888962Y-146650000D01*
X139982362Y-147119553D01*
X140248342Y-147517620D01*
X140646409Y-147783600D01*
X141115962Y-147877000D01*
X141164038Y-147877000D01*
X141633591Y-147783600D01*
X142031658Y-147517620D01*
X142118000Y-147388400D01*
X142118000Y-148451600D01*
X142031658Y-148322380D01*
X141633591Y-148056400D01*
X141164038Y-147963000D01*
X141115962Y-147963000D01*
X140646409Y-148056400D01*
X140248342Y-148322380D01*
X139982362Y-148720447D01*
X139888962Y-149190000D01*
X139982362Y-149659553D01*
X140248342Y-150057620D01*
X140646409Y-150323600D01*
X141115962Y-150417000D01*
X141164038Y-150417000D01*
X141633591Y-150323600D01*
X142031658Y-150057620D01*
X142118000Y-149928400D01*
X142118000Y-157223198D01*
X133589854Y-157233000D01*
X133543841Y-157241685D01*
X133501447Y-157268965D01*
X133473006Y-157310590D01*
X133463000Y-157360000D01*
X133463000Y-161748000D01*
X103032000Y-161748000D01*
X103032000Y-160993779D01*
X111472857Y-160993779D01*
X111598495Y-161297846D01*
X111830930Y-161530688D01*
X112134778Y-161656856D01*
X112463779Y-161657143D01*
X112767846Y-161531505D01*
X113000688Y-161299070D01*
X113126856Y-160995222D01*
X113126857Y-160993779D01*
X114472857Y-160993779D01*
X114598495Y-161297846D01*
X114830930Y-161530688D01*
X115134778Y-161656856D01*
X115463779Y-161657143D01*
X115767846Y-161531505D01*
X116000688Y-161299070D01*
X116126856Y-160995222D01*
X116127143Y-160666221D01*
X116001505Y-160362154D01*
X115769070Y-160129312D01*
X115465222Y-160003144D01*
X115136221Y-160002857D01*
X114832154Y-160128495D01*
X114599312Y-160360930D01*
X114473144Y-160664778D01*
X114472857Y-160993779D01*
X113126857Y-160993779D01*
X113127143Y-160666221D01*
X113001505Y-160362154D01*
X112769070Y-160129312D01*
X112465222Y-160003144D01*
X112136221Y-160002857D01*
X111832154Y-160128495D01*
X111599312Y-160360930D01*
X111473144Y-160664778D01*
X111472857Y-160993779D01*
X103032000Y-160993779D01*
X103032000Y-159418432D01*
X103118355Y-159626924D01*
X103508642Y-160055183D01*
X104033108Y-160301486D01*
X104263000Y-160180819D01*
X104263000Y-158987000D01*
X104243000Y-158987000D01*
X104243000Y-158733000D01*
X104263000Y-158733000D01*
X104263000Y-158713000D01*
X104517000Y-158713000D01*
X104517000Y-158733000D01*
X104537000Y-158733000D01*
X104537000Y-158987000D01*
X104517000Y-158987000D01*
X104517000Y-160180819D01*
X104746892Y-160301486D01*
X105271358Y-160055183D01*
X105661645Y-159626924D01*
X105780048Y-159341056D01*
X106038342Y-159727620D01*
X106436409Y-159993600D01*
X106905962Y-160087000D01*
X106954038Y-160087000D01*
X107423591Y-159993600D01*
X107821658Y-159727620D01*
X108087638Y-159329553D01*
X108181038Y-158860000D01*
X108087638Y-158390447D01*
X107821658Y-157992380D01*
X107423591Y-157726400D01*
X106954038Y-157633000D01*
X106905962Y-157633000D01*
X106436409Y-157726400D01*
X106038342Y-157992380D01*
X105780048Y-158378944D01*
X105661645Y-158093076D01*
X105271358Y-157664817D01*
X104840046Y-157462262D01*
X104883591Y-157453600D01*
X105281658Y-157187620D01*
X105547638Y-156789553D01*
X105641038Y-156320000D01*
X105678962Y-156320000D01*
X105772362Y-156789553D01*
X106038342Y-157187620D01*
X106436409Y-157453600D01*
X106905962Y-157547000D01*
X106954038Y-157547000D01*
X107423591Y-157453600D01*
X107821658Y-157187620D01*
X108087638Y-156789553D01*
X108181038Y-156320000D01*
X108087638Y-155850447D01*
X107821658Y-155452380D01*
X107423591Y-155186400D01*
X106954038Y-155093000D01*
X106905962Y-155093000D01*
X106436409Y-155186400D01*
X106038342Y-155452380D01*
X105772362Y-155850447D01*
X105678962Y-156320000D01*
X105641038Y-156320000D01*
X105547638Y-155850447D01*
X105281658Y-155452380D01*
X104883591Y-155186400D01*
X104414038Y-155093000D01*
X104365962Y-155093000D01*
X103896409Y-155186400D01*
X103498342Y-155452380D01*
X103232362Y-155850447D01*
X103138962Y-156320000D01*
X103232362Y-156789553D01*
X103498342Y-157187620D01*
X103896409Y-157453600D01*
X103939954Y-157462262D01*
X103508642Y-157664817D01*
X103118355Y-158093076D01*
X103032000Y-158301568D01*
X103032000Y-153780000D01*
X103138962Y-153780000D01*
X103232362Y-154249553D01*
X103498342Y-154647620D01*
X103896409Y-154913600D01*
X104365962Y-155007000D01*
X104414038Y-155007000D01*
X104883591Y-154913600D01*
X105281658Y-154647620D01*
X105547638Y-154249553D01*
X105641038Y-153780000D01*
X105678962Y-153780000D01*
X105772362Y-154249553D01*
X106038342Y-154647620D01*
X106436409Y-154913600D01*
X106905962Y-155007000D01*
X106954038Y-155007000D01*
X107423591Y-154913600D01*
X107821658Y-154647620D01*
X108087638Y-154249553D01*
X108181038Y-153780000D01*
X108087638Y-153310447D01*
X107821658Y-152912380D01*
X107423591Y-152646400D01*
X106954038Y-152553000D01*
X106905962Y-152553000D01*
X106436409Y-152646400D01*
X106038342Y-152912380D01*
X105772362Y-153310447D01*
X105678962Y-153780000D01*
X105641038Y-153780000D01*
X105547638Y-153310447D01*
X105281658Y-152912380D01*
X104883591Y-152646400D01*
X104414038Y-152553000D01*
X104365962Y-152553000D01*
X103896409Y-152646400D01*
X103498342Y-152912380D01*
X103232362Y-153310447D01*
X103138962Y-153780000D01*
X103032000Y-153780000D01*
X103032000Y-151240000D01*
X103138962Y-151240000D01*
X103232362Y-151709553D01*
X103498342Y-152107620D01*
X103896409Y-152373600D01*
X104365962Y-152467000D01*
X104414038Y-152467000D01*
X104883591Y-152373600D01*
X105281658Y-152107620D01*
X105547638Y-151709553D01*
X105641038Y-151240000D01*
X105678962Y-151240000D01*
X105772362Y-151709553D01*
X106038342Y-152107620D01*
X106436409Y-152373600D01*
X106905962Y-152467000D01*
X106954038Y-152467000D01*
X107423591Y-152373600D01*
X107821658Y-152107620D01*
X108087638Y-151709553D01*
X108181038Y-151240000D01*
X108087638Y-150770447D01*
X107821658Y-150372380D01*
X107423591Y-150106400D01*
X106954038Y-150013000D01*
X106905962Y-150013000D01*
X106436409Y-150106400D01*
X106038342Y-150372380D01*
X105772362Y-150770447D01*
X105678962Y-151240000D01*
X105641038Y-151240000D01*
X105547638Y-150770447D01*
X105281658Y-150372380D01*
X104883591Y-150106400D01*
X104414038Y-150013000D01*
X104365962Y-150013000D01*
X103896409Y-150106400D01*
X103498342Y-150372380D01*
X103232362Y-150770447D01*
X103138962Y-151240000D01*
X103032000Y-151240000D01*
X103032000Y-148700000D01*
X103138962Y-148700000D01*
X103232362Y-149169553D01*
X103498342Y-149567620D01*
X103896409Y-149833600D01*
X104365962Y-149927000D01*
X104414038Y-149927000D01*
X104883591Y-149833600D01*
X105281658Y-149567620D01*
X105547638Y-149169553D01*
X105641038Y-148700000D01*
X105678962Y-148700000D01*
X105772362Y-149169553D01*
X106038342Y-149567620D01*
X106436409Y-149833600D01*
X106905962Y-149927000D01*
X106954038Y-149927000D01*
X107423591Y-149833600D01*
X107821658Y-149567620D01*
X108087638Y-149169553D01*
X108181038Y-148700000D01*
X108087638Y-148230447D01*
X107821658Y-147832380D01*
X107423591Y-147566400D01*
X106954038Y-147473000D01*
X106905962Y-147473000D01*
X106436409Y-147566400D01*
X106038342Y-147832380D01*
X105772362Y-148230447D01*
X105678962Y-148700000D01*
X105641038Y-148700000D01*
X105547638Y-148230447D01*
X105281658Y-147832380D01*
X104883591Y-147566400D01*
X104414038Y-147473000D01*
X104365962Y-147473000D01*
X103896409Y-147566400D01*
X103498342Y-147832380D01*
X103232362Y-148230447D01*
X103138962Y-148700000D01*
X103032000Y-148700000D01*
X103032000Y-143620000D01*
X103138962Y-143620000D01*
X103232362Y-144089553D01*
X103498342Y-144487620D01*
X103896409Y-144753600D01*
X104365962Y-144847000D01*
X104414038Y-144847000D01*
X104883591Y-144753600D01*
X105281658Y-144487620D01*
X105547638Y-144089553D01*
X105641038Y-143620000D01*
X105547638Y-143150447D01*
X105281658Y-142752380D01*
X104883591Y-142486400D01*
X104414038Y-142393000D01*
X104365962Y-142393000D01*
X103896409Y-142486400D01*
X103498342Y-142752380D01*
X103232362Y-143150447D01*
X103138962Y-143620000D01*
X103032000Y-143620000D01*
X103032000Y-126092000D01*
X117245932Y-126092000D01*
X117150000Y-126383000D01*
X117150000Y-126383000D01*
G37*
X117150000Y-126383000D02*
X117150000Y-126683000D01*
X118058000Y-126683000D01*
X118058000Y-126663000D01*
X118312000Y-126663000D01*
X118312000Y-126683000D01*
X119220000Y-126683000D01*
X119220000Y-126383000D01*
X119124068Y-126092000D01*
X126225932Y-126092000D01*
X126130000Y-126383000D01*
X126130000Y-126683000D01*
X127038000Y-126683000D01*
X127038000Y-126663000D01*
X127292000Y-126663000D01*
X127292000Y-126683000D01*
X128200000Y-126683000D01*
X128200000Y-126383000D01*
X128107365Y-126102000D01*
X131308776Y-126102000D01*
X130955161Y-126455615D01*
X129270000Y-126455615D01*
X129130292Y-126481903D01*
X129001980Y-126564470D01*
X128915899Y-126690453D01*
X128885615Y-126840000D01*
X128885615Y-128540000D01*
X128911903Y-128679708D01*
X128994470Y-128808020D01*
X129120453Y-128894101D01*
X129270000Y-128924385D01*
X130970000Y-128924385D01*
X131109708Y-128898097D01*
X131238020Y-128815530D01*
X131324101Y-128689547D01*
X131354385Y-128540000D01*
X131354385Y-127334839D01*
X132007224Y-126682000D01*
X132675340Y-126682000D01*
X132655899Y-126710453D01*
X132625615Y-126860000D01*
X132625615Y-127366850D01*
X132590388Y-127390388D01*
X131550388Y-128430388D01*
X131452406Y-128577027D01*
X131418000Y-128750000D01*
X131418000Y-131732775D01*
X131342776Y-131808000D01*
X128867225Y-131808000D01*
X128282000Y-131222776D01*
X128282000Y-130230000D01*
X128868962Y-130230000D01*
X128962362Y-130699553D01*
X129228342Y-131097620D01*
X129626409Y-131363600D01*
X130095962Y-131457000D01*
X130144038Y-131457000D01*
X130613591Y-131363600D01*
X131011658Y-131097620D01*
X131277638Y-130699553D01*
X131371038Y-130230000D01*
X131277638Y-129760447D01*
X131011658Y-129362380D01*
X130613591Y-129096400D01*
X130144038Y-129003000D01*
X130095962Y-129003000D01*
X129626409Y-129096400D01*
X129228342Y-129362380D01*
X128962362Y-129760447D01*
X128868962Y-130230000D01*
X128282000Y-130230000D01*
X128282000Y-129555533D01*
X128313598Y-129523990D01*
X128416882Y-129275254D01*
X128417117Y-129005927D01*
X128314267Y-128757011D01*
X128123990Y-128566402D01*
X127875254Y-128463118D01*
X127605927Y-128462883D01*
X127357011Y-128565733D01*
X127166402Y-128756010D01*
X127063118Y-129004746D01*
X127062883Y-129274073D01*
X127165733Y-129522989D01*
X127356010Y-129713598D01*
X127378000Y-129722729D01*
X127378000Y-131410000D01*
X127385454Y-131447473D01*
X127332973Y-131412406D01*
X127160000Y-131378000D01*
X121410000Y-131378000D01*
X121237027Y-131412406D01*
X121090388Y-131510387D01*
X121079160Y-131521615D01*
X121053990Y-131496402D01*
X120805254Y-131393118D01*
X120535927Y-131392883D01*
X120287011Y-131495733D01*
X120096402Y-131686010D01*
X119993118Y-131934746D01*
X119993046Y-132016935D01*
X119877868Y-132064526D01*
X119680220Y-132261830D01*
X119614649Y-132419742D01*
X119597738Y-132421283D01*
X119580000Y-132428630D01*
X119580000Y-132333000D01*
X119452615Y-131946590D01*
X119187053Y-131638342D01*
X118831123Y-131465334D01*
X118672000Y-131593002D01*
X118672000Y-132633000D01*
X118692000Y-132633000D01*
X118692000Y-132887000D01*
X118672000Y-132887000D01*
X118672000Y-132907000D01*
X118418000Y-132907000D01*
X118418000Y-132887000D01*
X118398000Y-132887000D01*
X118398000Y-132633000D01*
X118418000Y-132633000D01*
X118418000Y-131593002D01*
X118258877Y-131465334D01*
X117902947Y-131638342D01*
X117637385Y-131946590D01*
X117547741Y-132218517D01*
X117059612Y-131730388D01*
X116912973Y-131632406D01*
X116740000Y-131598000D01*
X116187225Y-131598000D01*
X114566967Y-129977743D01*
X114567117Y-129805927D01*
X114464267Y-129557011D01*
X114273990Y-129366402D01*
X114025254Y-129263118D01*
X113755927Y-129262883D01*
X113507011Y-129365733D01*
X113316402Y-129556010D01*
X113213118Y-129804746D01*
X113212883Y-130074073D01*
X113315733Y-130322989D01*
X113506010Y-130513598D01*
X113754746Y-130616882D01*
X113927809Y-130617033D01*
X115680388Y-132369613D01*
X115805169Y-132452989D01*
X115827027Y-132467594D01*
X116000000Y-132502000D01*
X116552776Y-132502000D01*
X116866391Y-132815615D01*
X115534839Y-132815615D01*
X114969612Y-132250388D01*
X114822973Y-132152406D01*
X114650000Y-132118000D01*
X113798013Y-132118000D01*
X113755530Y-132051980D01*
X113629547Y-131965899D01*
X113480000Y-131935615D01*
X112893641Y-131935615D01*
X112739698Y-131781673D01*
X112506309Y-131685000D01*
X112365750Y-131685000D01*
X112207000Y-131843750D01*
X112207000Y-132445000D01*
X112227000Y-132445000D01*
X112227000Y-132695000D01*
X112207000Y-132695000D01*
X112207000Y-133296250D01*
X112365750Y-133455000D01*
X112506309Y-133455000D01*
X112739698Y-133358327D01*
X112893641Y-133204385D01*
X113480000Y-133204385D01*
X113619708Y-133178097D01*
X113748020Y-133095530D01*
X113798261Y-133022000D01*
X114462776Y-133022000D01*
X114520060Y-133079284D01*
X114495615Y-133200000D01*
X114495615Y-134600000D01*
X114521903Y-134739708D01*
X114604470Y-134868020D01*
X114730453Y-134954101D01*
X114880000Y-134984385D01*
X117080000Y-134984385D01*
X117219708Y-134958097D01*
X117258000Y-134933457D01*
X117258000Y-135415340D01*
X117229547Y-135395899D01*
X117080000Y-135365615D01*
X114880000Y-135365615D01*
X114740292Y-135391903D01*
X114611980Y-135474470D01*
X114525899Y-135600453D01*
X114495615Y-135750000D01*
X114495615Y-137150000D01*
X114521903Y-137289708D01*
X114604470Y-137418020D01*
X114730453Y-137504101D01*
X114880000Y-137534385D01*
X116425161Y-137534385D01*
X117228000Y-138337224D01*
X117228000Y-141800000D01*
X117262406Y-141972973D01*
X117360388Y-142119612D01*
X117373033Y-142132257D01*
X117372883Y-142304073D01*
X117475733Y-142552989D01*
X117640457Y-142718000D01*
X109723285Y-142718000D01*
X109736882Y-142685254D01*
X109737117Y-142415927D01*
X109634267Y-142167011D01*
X109522728Y-142055277D01*
X109742989Y-141964267D01*
X109933598Y-141773990D01*
X110036882Y-141525254D01*
X110037117Y-141255927D01*
X109934267Y-141007011D01*
X109743990Y-140816402D01*
X109495254Y-140713118D01*
X109298611Y-140712946D01*
X109222973Y-140662406D01*
X109050000Y-140628000D01*
X108091130Y-140628000D01*
X108087638Y-140610447D01*
X107821658Y-140212380D01*
X107423591Y-139946400D01*
X107382000Y-139938127D01*
X107382000Y-137020000D01*
X107347594Y-136847027D01*
X107249612Y-136700388D01*
X106442000Y-135892776D01*
X106442000Y-129547250D01*
X106583000Y-129406250D01*
X106583000Y-128830000D01*
X106563000Y-128830000D01*
X106563000Y-128630000D01*
X106583000Y-128630000D01*
X106583000Y-128583000D01*
X106837000Y-128583000D01*
X106837000Y-128630000D01*
X106857000Y-128630000D01*
X106857000Y-128830000D01*
X106837000Y-128830000D01*
X106837000Y-129406250D01*
X106995750Y-129565000D01*
X107068000Y-129565000D01*
X107068000Y-133542776D01*
X106950388Y-133660388D01*
X106852406Y-133807027D01*
X106818000Y-133980000D01*
X106818000Y-135270000D01*
X106852406Y-135442973D01*
X106950388Y-135589612D01*
X107185615Y-135824839D01*
X107185615Y-136120000D01*
X107211903Y-136259708D01*
X107294470Y-136388020D01*
X107420453Y-136474101D01*
X107570000Y-136504385D01*
X108070000Y-136504385D01*
X108195615Y-136480749D01*
X108195615Y-137150000D01*
X108221903Y-137289708D01*
X108304470Y-137418020D01*
X108430453Y-137504101D01*
X108580000Y-137534385D01*
X110115161Y-137534385D01*
X111005615Y-138424840D01*
X111005615Y-138670000D01*
X111031903Y-138809708D01*
X111114470Y-138938020D01*
X111240453Y-139024101D01*
X111390000Y-139054385D01*
X111790000Y-139054385D01*
X111929708Y-139028097D01*
X112041252Y-138956320D01*
X112140453Y-139024101D01*
X112290000Y-139054385D01*
X112690000Y-139054385D01*
X112821141Y-139029709D01*
X112934746Y-139076882D01*
X113204073Y-139077117D01*
X113452989Y-138974267D01*
X113643598Y-138783990D01*
X113746882Y-138535254D01*
X113747117Y-138265927D01*
X113644267Y-138017011D01*
X113453990Y-137826402D01*
X113205254Y-137723118D01*
X112935927Y-137722883D01*
X112882236Y-137745068D01*
X112839547Y-137715899D01*
X112690000Y-137685615D01*
X112290000Y-137685615D01*
X112150292Y-137711903D01*
X112038748Y-137783680D01*
X111939547Y-137715899D01*
X111790000Y-137685615D01*
X111544840Y-137685615D01*
X111262931Y-137403707D01*
X111334101Y-137299547D01*
X111364385Y-137150000D01*
X111364385Y-136692000D01*
X113106401Y-136692000D01*
X113135733Y-136762989D01*
X113326010Y-136953598D01*
X113574746Y-137056882D01*
X113844073Y-137057117D01*
X114092989Y-136954267D01*
X114283598Y-136763990D01*
X114386882Y-136515254D01*
X114387117Y-136245927D01*
X114284267Y-135997011D01*
X114093990Y-135806402D01*
X113845254Y-135703118D01*
X113575927Y-135702883D01*
X113369928Y-135788000D01*
X111364385Y-135788000D01*
X111364385Y-135750000D01*
X111338097Y-135610292D01*
X111255530Y-135481980D01*
X111129547Y-135395899D01*
X110980000Y-135365615D01*
X108614160Y-135365615D01*
X108668263Y-135235000D01*
X109394250Y-135235000D01*
X109553000Y-135076250D01*
X109553000Y-134027000D01*
X109807000Y-134027000D01*
X109807000Y-135076250D01*
X109965750Y-135235000D01*
X110906309Y-135235000D01*
X111139698Y-135138327D01*
X111318327Y-134959699D01*
X111415000Y-134726310D01*
X111415000Y-134185750D01*
X111256250Y-134027000D01*
X109807000Y-134027000D01*
X109553000Y-134027000D01*
X108575025Y-134027000D01*
X108429699Y-133881673D01*
X108196310Y-133785000D01*
X108103750Y-133785000D01*
X107947002Y-133941748D01*
X107947002Y-133855676D01*
X107972000Y-133730000D01*
X107972000Y-133641250D01*
X108103750Y-133773000D01*
X109553000Y-133773000D01*
X109553000Y-132723750D01*
X109807000Y-132723750D01*
X109807000Y-133773000D01*
X111256250Y-133773000D01*
X111415000Y-133614250D01*
X111415000Y-133353025D01*
X111420302Y-133358327D01*
X111653691Y-133455000D01*
X111794250Y-133455000D01*
X111953000Y-133296250D01*
X111953000Y-132695000D01*
X111303750Y-132695000D01*
X111238388Y-132760362D01*
X111139698Y-132661673D01*
X110906309Y-132565000D01*
X109965750Y-132565000D01*
X109807000Y-132723750D01*
X109553000Y-132723750D01*
X109394250Y-132565000D01*
X108453691Y-132565000D01*
X108220302Y-132661673D01*
X108041673Y-132840301D01*
X107972000Y-133008506D01*
X107972000Y-132193690D01*
X111145000Y-132193690D01*
X111145000Y-132286250D01*
X111303750Y-132445000D01*
X111953000Y-132445000D01*
X111953000Y-131843750D01*
X111794250Y-131685000D01*
X111653691Y-131685000D01*
X111420302Y-131781673D01*
X111241673Y-131960301D01*
X111145000Y-132193690D01*
X107972000Y-132193690D01*
X107972000Y-131895000D01*
X108654250Y-131895000D01*
X108813000Y-131736250D01*
X108813000Y-130537000D01*
X109067000Y-130537000D01*
X109067000Y-131736250D01*
X109225750Y-131895000D01*
X109916309Y-131895000D01*
X110149698Y-131798327D01*
X110328327Y-131619699D01*
X110425000Y-131386310D01*
X110425000Y-130695750D01*
X110266250Y-130537000D01*
X109067000Y-130537000D01*
X108813000Y-130537000D01*
X108793000Y-130537000D01*
X108793000Y-130283000D01*
X108813000Y-130283000D01*
X108813000Y-130263000D01*
X109067000Y-130263000D01*
X109067000Y-130283000D01*
X110266250Y-130283000D01*
X110425000Y-130124250D01*
X110425000Y-129433690D01*
X110328327Y-129200301D01*
X110149698Y-129021673D01*
X109916309Y-128925000D01*
X109551224Y-128925000D01*
X109831658Y-128737620D01*
X110097638Y-128339553D01*
X110191038Y-127870000D01*
X110097638Y-127400447D01*
X109831658Y-127002380D01*
X109733810Y-126937000D01*
X117150000Y-126937000D01*
X117150000Y-127237000D01*
X117277385Y-127623410D01*
X117542947Y-127931658D01*
X117898877Y-128104666D01*
X118058000Y-127976998D01*
X118058000Y-126937000D01*
X118312000Y-126937000D01*
X118312000Y-127976998D01*
X118471123Y-128104666D01*
X118827053Y-127931658D01*
X119092615Y-127623410D01*
X119220000Y-127237000D01*
X119220000Y-126937000D01*
X126130000Y-126937000D01*
X126130000Y-127237000D01*
X126257385Y-127623410D01*
X126522947Y-127931658D01*
X126878877Y-128104666D01*
X127038000Y-127976998D01*
X127038000Y-126937000D01*
X127292000Y-126937000D01*
X127292000Y-127976998D01*
X127451123Y-128104666D01*
X127807053Y-127931658D01*
X128072615Y-127623410D01*
X128200000Y-127237000D01*
X128200000Y-126937000D01*
X127292000Y-126937000D01*
X127038000Y-126937000D01*
X126130000Y-126937000D01*
X119220000Y-126937000D01*
X118312000Y-126937000D01*
X118058000Y-126937000D01*
X117150000Y-126937000D01*
X109733810Y-126937000D01*
X109433591Y-126736400D01*
X108964038Y-126643000D01*
X108915962Y-126643000D01*
X108446409Y-126736400D01*
X108048342Y-127002380D01*
X107782362Y-127400447D01*
X107688962Y-127870000D01*
X107782173Y-128338603D01*
X107517778Y-128602998D01*
X107513252Y-128602998D01*
X107645000Y-128471250D01*
X107645000Y-128403691D01*
X107548327Y-128170302D01*
X107394385Y-128016359D01*
X107394385Y-127630000D01*
X107368097Y-127490292D01*
X107285530Y-127361980D01*
X107159547Y-127275899D01*
X107010000Y-127245615D01*
X106410000Y-127245615D01*
X106270292Y-127271903D01*
X106141980Y-127354470D01*
X106125903Y-127378000D01*
X105724385Y-127378000D01*
X105724385Y-126980000D01*
X105698097Y-126840292D01*
X105615530Y-126711980D01*
X105489547Y-126625899D01*
X105340000Y-126595615D01*
X103640000Y-126595615D01*
X103500292Y-126621903D01*
X103371980Y-126704470D01*
X103285899Y-126830453D01*
X103255615Y-126980000D01*
X103255615Y-128680000D01*
X103281903Y-128819708D01*
X103364470Y-128948020D01*
X103490453Y-129034101D01*
X103640000Y-129064385D01*
X105340000Y-129064385D01*
X105479708Y-129038097D01*
X105538000Y-129000587D01*
X105538000Y-129736362D01*
X105381658Y-129502380D01*
X104983591Y-129236400D01*
X104514038Y-129143000D01*
X104465962Y-129143000D01*
X103996409Y-129236400D01*
X103598342Y-129502380D01*
X103332362Y-129900447D01*
X103238962Y-130370000D01*
X103332362Y-130839553D01*
X103598342Y-131237620D01*
X103996409Y-131503600D01*
X104465962Y-131597000D01*
X104514038Y-131597000D01*
X104983591Y-131503600D01*
X105381658Y-131237620D01*
X105538000Y-131003638D01*
X105538000Y-134881972D01*
X105481935Y-134798065D01*
X105343406Y-134705503D01*
X105180000Y-134673000D01*
X105016594Y-134705503D01*
X104878065Y-134798065D01*
X104785503Y-134936594D01*
X104753000Y-135100000D01*
X104753000Y-135160000D01*
X104785503Y-135323406D01*
X104878065Y-135461935D01*
X105016594Y-135554497D01*
X105180000Y-135587000D01*
X105343406Y-135554497D01*
X105481935Y-135461935D01*
X105538000Y-135378028D01*
X105538000Y-136080000D01*
X105572406Y-136252973D01*
X105670388Y-136399612D01*
X106478000Y-137207224D01*
X106478000Y-139938127D01*
X106436409Y-139946400D01*
X106038342Y-140212380D01*
X105772362Y-140610447D01*
X105678962Y-141080000D01*
X105772362Y-141549553D01*
X106011869Y-141908000D01*
X105857225Y-141908000D01*
X105624385Y-141675160D01*
X105624385Y-140230000D01*
X105598097Y-140090292D01*
X105515530Y-139961980D01*
X105389547Y-139875899D01*
X105240000Y-139845615D01*
X103540000Y-139845615D01*
X103400292Y-139871903D01*
X103271980Y-139954470D01*
X103185899Y-140080453D01*
X103155615Y-140230000D01*
X103155615Y-141930000D01*
X103181903Y-142069708D01*
X103264470Y-142198020D01*
X103390453Y-142284101D01*
X103540000Y-142314385D01*
X104985160Y-142314385D01*
X105350387Y-142679612D01*
X105426476Y-142730453D01*
X105497027Y-142777594D01*
X105670000Y-142812000D01*
X105998505Y-142812000D01*
X105772362Y-143150447D01*
X105678962Y-143620000D01*
X105772362Y-144089553D01*
X106018551Y-144458000D01*
X105640000Y-144458000D01*
X105467027Y-144492406D01*
X105320388Y-144590388D01*
X104884062Y-145026714D01*
X104883591Y-145026400D01*
X104414038Y-144933000D01*
X104365962Y-144933000D01*
X103896409Y-145026400D01*
X103498342Y-145292380D01*
X103232362Y-145690447D01*
X103138962Y-146160000D01*
X103232362Y-146629553D01*
X103498342Y-147027620D01*
X103896409Y-147293600D01*
X104365962Y-147387000D01*
X104414038Y-147387000D01*
X104883591Y-147293600D01*
X105281658Y-147027620D01*
X105547638Y-146629553D01*
X105641038Y-146160000D01*
X105547638Y-145690447D01*
X105528067Y-145661157D01*
X105827224Y-145362000D01*
X105991823Y-145362000D01*
X105772362Y-145690447D01*
X105678962Y-146160000D01*
X105772362Y-146629553D01*
X106038342Y-147027620D01*
X106436409Y-147293600D01*
X106905962Y-147387000D01*
X106954038Y-147387000D01*
X107423591Y-147293600D01*
X107821658Y-147027620D01*
X108087638Y-146629553D01*
X108091130Y-146612000D01*
X109480000Y-146612000D01*
X109652973Y-146577594D01*
X109799612Y-146479612D01*
X110634185Y-145645039D01*
X110645733Y-145672989D01*
X110751667Y-145779108D01*
X109917743Y-146613033D01*
X109745927Y-146612883D01*
X109497011Y-146715733D01*
X109306402Y-146906010D01*
X109203118Y-147154746D01*
X109202883Y-147424073D01*
X109305733Y-147672989D01*
X109496010Y-147863598D01*
X109744746Y-147966882D01*
X110014073Y-147967117D01*
X110262989Y-147864267D01*
X110453598Y-147673990D01*
X110556882Y-147425254D01*
X110557033Y-147252191D01*
X111569613Y-146239612D01*
X111667594Y-146092973D01*
X111702000Y-145920000D01*
X111702000Y-145765428D01*
X111793598Y-145673990D01*
X111896882Y-145425254D01*
X111897117Y-145155927D01*
X111794267Y-144907011D01*
X111779282Y-144892000D01*
X118023705Y-144892000D01*
X117992710Y-144912710D01*
X115742710Y-147162710D01*
X115639309Y-147317460D01*
X115603000Y-147500000D01*
X115603000Y-148222420D01*
X115126923Y-148698497D01*
X115127117Y-148475927D01*
X115024267Y-148227011D01*
X114833990Y-148036402D01*
X114585254Y-147933118D01*
X114315927Y-147932883D01*
X114067011Y-148035733D01*
X113939522Y-148163000D01*
X111770000Y-148163000D01*
X111587460Y-148199309D01*
X111432710Y-148302710D01*
X108952710Y-150782710D01*
X108849309Y-150937460D01*
X108813000Y-151120000D01*
X108813000Y-155150000D01*
X108849309Y-155332540D01*
X108952710Y-155487290D01*
X110083115Y-156617695D01*
X110082883Y-156884073D01*
X110185733Y-157132989D01*
X110376010Y-157323598D01*
X110624746Y-157426882D01*
X110894073Y-157427117D01*
X111142989Y-157324267D01*
X111333598Y-157133990D01*
X111383391Y-157014073D01*
X117342883Y-157014073D01*
X117445733Y-157262989D01*
X117636010Y-157453598D01*
X117884746Y-157556882D01*
X118154073Y-157557117D01*
X118402989Y-157454267D01*
X118593598Y-157263990D01*
X118696882Y-157015254D01*
X118697117Y-156745927D01*
X118594267Y-156497011D01*
X118403990Y-156306402D01*
X118155254Y-156203118D01*
X117885927Y-156202883D01*
X117637011Y-156305733D01*
X117446402Y-156496010D01*
X117343118Y-156744746D01*
X117342883Y-157014073D01*
X111383391Y-157014073D01*
X111436882Y-156885254D01*
X111437117Y-156615927D01*
X111356988Y-156422000D01*
X116860000Y-156422000D01*
X117032973Y-156387594D01*
X117179612Y-156289612D01*
X118264612Y-155204612D01*
X118362594Y-155057973D01*
X118397000Y-154885000D01*
X118397000Y-154034380D01*
X118516010Y-154153598D01*
X118764746Y-154256882D01*
X119034073Y-154257117D01*
X119282989Y-154154267D01*
X119473598Y-153963990D01*
X119576882Y-153715254D01*
X119577117Y-153445927D01*
X119502000Y-153264130D01*
X119502000Y-148587224D01*
X121423029Y-146666195D01*
X121422883Y-146834073D01*
X121525733Y-147082989D01*
X121716010Y-147273598D01*
X121964746Y-147376882D01*
X122233064Y-147377116D01*
X122305733Y-147552989D01*
X122496010Y-147743598D01*
X122744746Y-147846882D01*
X123014073Y-147847117D01*
X123158000Y-147787648D01*
X123158000Y-147972776D01*
X123047743Y-148083033D01*
X122875927Y-148082883D01*
X122627011Y-148185733D01*
X122436402Y-148376010D01*
X122333118Y-148624746D01*
X122332883Y-148894073D01*
X122435733Y-149142989D01*
X122626010Y-149333598D01*
X122874746Y-149436882D01*
X123073003Y-149437055D01*
X123072883Y-149574073D01*
X123175733Y-149822989D01*
X123366010Y-150013598D01*
X123614746Y-150116882D01*
X123884073Y-150117117D01*
X124132989Y-150014267D01*
X124323598Y-149823990D01*
X124426882Y-149575254D01*
X124427033Y-149402191D01*
X125934725Y-147894500D01*
X126555615Y-147894500D01*
X126555615Y-149105000D01*
X126581903Y-149244708D01*
X126664470Y-149373020D01*
X126790453Y-149459101D01*
X126940000Y-149489385D01*
X129440000Y-149489385D01*
X129579708Y-149463097D01*
X129708020Y-149380530D01*
X129794101Y-149254547D01*
X129824385Y-149105000D01*
X129824385Y-147755551D01*
X130965550Y-146614385D01*
X131176359Y-146614385D01*
X131330302Y-146768327D01*
X131563691Y-146865000D01*
X131704250Y-146865000D01*
X131863000Y-146706250D01*
X131863000Y-146105000D01*
X131843000Y-146105000D01*
X131843000Y-145855000D01*
X131863000Y-145855000D01*
X131863000Y-145253750D01*
X131704250Y-145095000D01*
X131574385Y-145095000D01*
X131574385Y-144780000D01*
X131548097Y-144640292D01*
X131476320Y-144528748D01*
X131544101Y-144429547D01*
X131574385Y-144280000D01*
X131574385Y-144015000D01*
X131704250Y-144015000D01*
X131863000Y-143856250D01*
X131863000Y-143255000D01*
X131843000Y-143255000D01*
X131843000Y-143005000D01*
X131863000Y-143005000D01*
X131863000Y-142983000D01*
X132117000Y-142983000D01*
X132117000Y-143005000D01*
X132137000Y-143005000D01*
X132137000Y-143255000D01*
X132117000Y-143255000D01*
X132117000Y-143856250D01*
X132188000Y-143927250D01*
X132188000Y-145182750D01*
X132117000Y-145253750D01*
X132117000Y-145855000D01*
X132137000Y-145855000D01*
X132137000Y-146105000D01*
X132117000Y-146105000D01*
X132117000Y-146706250D01*
X132188000Y-146777250D01*
X132188000Y-146945938D01*
X131328222Y-149177497D01*
X131314124Y-149258939D01*
X131298000Y-149340000D01*
X131298000Y-149730524D01*
X131233990Y-149666402D01*
X130985254Y-149563118D01*
X130715927Y-149562883D01*
X130467011Y-149665733D01*
X130344531Y-149788000D01*
X128320000Y-149788000D01*
X128147027Y-149822406D01*
X128000388Y-149920388D01*
X126567743Y-151353033D01*
X126395927Y-151352883D01*
X126147011Y-151455733D01*
X125956402Y-151646010D01*
X125853118Y-151894746D01*
X125852883Y-152164073D01*
X125955733Y-152412989D01*
X126146010Y-152603598D01*
X126394746Y-152706882D01*
X126664073Y-152707117D01*
X126912989Y-152604267D01*
X126916535Y-152600727D01*
X126925733Y-152622989D01*
X127116010Y-152813598D01*
X127364746Y-152916882D01*
X127634073Y-152917117D01*
X127882989Y-152814267D01*
X128073598Y-152623990D01*
X128176882Y-152375254D01*
X128177033Y-152202191D01*
X128917224Y-151462000D01*
X130014624Y-151462000D01*
X130136010Y-151583598D01*
X130287659Y-151646568D01*
X128247068Y-153642446D01*
X128247117Y-153585927D01*
X128144267Y-153337011D01*
X127953990Y-153146402D01*
X127705254Y-153043118D01*
X127435927Y-153042883D01*
X127187011Y-153145733D01*
X126996402Y-153336010D01*
X126893118Y-153584746D01*
X126892883Y-153854073D01*
X126922258Y-153925166D01*
X126538122Y-153930733D01*
X126423990Y-153816402D01*
X126175254Y-153713118D01*
X125905927Y-153712883D01*
X125657011Y-153815733D01*
X125466402Y-154006010D01*
X125363118Y-154254746D01*
X125362883Y-154524073D01*
X125425929Y-154676656D01*
X125326402Y-154776010D01*
X125223118Y-155024746D01*
X125222883Y-155294073D01*
X125242114Y-155340615D01*
X125023135Y-155340615D01*
X124983990Y-155301402D01*
X124735254Y-155198118D01*
X124465927Y-155197883D01*
X124217011Y-155300733D01*
X124026402Y-155491010D01*
X123923118Y-155739746D01*
X123922883Y-156009073D01*
X123969957Y-156123000D01*
X122300000Y-156123000D01*
X122127027Y-156157406D01*
X121980388Y-156255388D01*
X121962743Y-156273033D01*
X121790927Y-156272883D01*
X121542011Y-156375733D01*
X121351402Y-156566010D01*
X121248118Y-156814746D01*
X121247883Y-157084073D01*
X121350733Y-157332989D01*
X121541010Y-157523598D01*
X121789746Y-157626882D01*
X122059073Y-157627117D01*
X122307989Y-157524267D01*
X122421704Y-157410750D01*
X124240000Y-157410750D01*
X124240000Y-157551309D01*
X124336673Y-157784698D01*
X124515301Y-157963327D01*
X124748690Y-158060000D01*
X124841250Y-158060000D01*
X125000000Y-157901250D01*
X125000000Y-157252000D01*
X124398750Y-157252000D01*
X124240000Y-157410750D01*
X122421704Y-157410750D01*
X122498598Y-157333990D01*
X122601882Y-157085254D01*
X122601933Y-157027000D01*
X125272000Y-157027000D01*
X125272000Y-157252000D01*
X125250000Y-157252000D01*
X125250000Y-157901250D01*
X125408750Y-158060000D01*
X125501310Y-158060000D01*
X125734699Y-157963327D01*
X125913327Y-157784698D01*
X126010000Y-157551309D01*
X126010000Y-157410750D01*
X125851252Y-157252002D01*
X126010000Y-157252002D01*
X126010000Y-157127035D01*
X126104073Y-157127117D01*
X126352989Y-157024267D01*
X126490615Y-156886881D01*
X126490615Y-157200000D01*
X126516903Y-157339708D01*
X126588680Y-157451252D01*
X126585539Y-157455849D01*
X126452027Y-157482406D01*
X126305388Y-157580388D01*
X123787776Y-160098000D01*
X123500187Y-160098000D01*
X123460790Y-160036776D01*
X123473598Y-160023990D01*
X123576882Y-159775254D01*
X123577117Y-159505927D01*
X123474267Y-159257011D01*
X123283990Y-159066402D01*
X123035254Y-158963118D01*
X122851945Y-158962958D01*
X122852117Y-158765927D01*
X122749267Y-158517011D01*
X122558990Y-158326402D01*
X122310254Y-158223118D01*
X122040927Y-158222883D01*
X121792011Y-158325733D01*
X121601402Y-158516010D01*
X121580521Y-158566297D01*
X121469612Y-158455388D01*
X121322973Y-158357406D01*
X121150000Y-158323000D01*
X120461831Y-158323000D01*
X120529101Y-158224547D01*
X120559385Y-158075000D01*
X120559385Y-157675000D01*
X120535314Y-157547076D01*
X120648598Y-157433990D01*
X120751882Y-157185254D01*
X120752117Y-156915927D01*
X120649267Y-156667011D01*
X120458990Y-156476402D01*
X120210254Y-156373118D01*
X119940927Y-156372883D01*
X119692011Y-156475733D01*
X119501402Y-156666010D01*
X119398118Y-156914746D01*
X119397883Y-157184073D01*
X119423690Y-157246531D01*
X119423000Y-157250000D01*
X119423000Y-157324813D01*
X119306980Y-157399470D01*
X119220899Y-157525453D01*
X119190615Y-157675000D01*
X119190615Y-158075000D01*
X119216903Y-158214708D01*
X119288680Y-158326252D01*
X119220899Y-158425453D01*
X119190615Y-158575000D01*
X119190615Y-158975000D01*
X119216903Y-159114708D01*
X119299470Y-159243020D01*
X119425453Y-159329101D01*
X119575000Y-159359385D01*
X120175000Y-159359385D01*
X120184906Y-159357521D01*
X120176402Y-159366010D01*
X120073118Y-159614746D01*
X120072921Y-159840615D01*
X119950000Y-159840615D01*
X119810292Y-159866903D01*
X119681980Y-159949470D01*
X119595899Y-160075453D01*
X119565615Y-160225000D01*
X119565615Y-160811359D01*
X119411673Y-160965302D01*
X119315000Y-161198691D01*
X119315000Y-161339250D01*
X119473750Y-161498000D01*
X120075000Y-161498000D01*
X120075000Y-161478000D01*
X120325000Y-161478000D01*
X120325000Y-161498000D01*
X120428750Y-161498000D01*
X120443750Y-161513000D01*
X121045000Y-161513000D01*
X121045000Y-161493000D01*
X121273750Y-161493000D01*
X121303750Y-161523000D01*
X121905000Y-161523000D01*
X121905000Y-161504250D01*
X121906250Y-161503000D01*
X122153750Y-161503000D01*
X122155000Y-161504250D01*
X122155000Y-161523000D01*
X122775000Y-161523000D01*
X122775000Y-161504250D01*
X122776250Y-161503000D01*
X123025000Y-161503000D01*
X123025000Y-161523000D01*
X123626250Y-161523000D01*
X123785000Y-161364250D01*
X123785000Y-161223691D01*
X123693172Y-161002000D01*
X123975000Y-161002000D01*
X124147973Y-160967594D01*
X124294612Y-160869612D01*
X126716346Y-158447878D01*
X126725453Y-158454101D01*
X126875000Y-158484385D01*
X127475000Y-158484385D01*
X127614708Y-158458097D01*
X127743020Y-158375530D01*
X127829101Y-158249547D01*
X127859385Y-158100000D01*
X127859385Y-157700000D01*
X127833097Y-157560292D01*
X127763413Y-157452000D01*
X127925000Y-157452000D01*
X128051228Y-157426892D01*
X128309073Y-157427117D01*
X128557989Y-157324267D01*
X128748598Y-157133990D01*
X128851882Y-156885254D01*
X128852117Y-156615927D01*
X128749267Y-156367011D01*
X128734282Y-156352000D01*
X128992269Y-156352000D01*
X129025733Y-156432989D01*
X129216010Y-156623598D01*
X129464746Y-156726882D01*
X129734073Y-156727117D01*
X129982989Y-156624267D01*
X130173598Y-156433990D01*
X130276882Y-156185254D01*
X130277117Y-155915927D01*
X130271143Y-155901470D01*
X130457989Y-155824267D01*
X130648598Y-155633990D01*
X130751882Y-155385254D01*
X130752033Y-155212191D01*
X131337225Y-154627000D01*
X131795000Y-154627000D01*
X131967973Y-154592594D01*
X132010190Y-154564385D01*
X132326359Y-154564385D01*
X132480302Y-154718327D01*
X132713691Y-154815000D01*
X132854250Y-154815000D01*
X133012998Y-154656252D01*
X133012998Y-154815000D01*
X133127588Y-154815000D01*
X133026402Y-154916010D01*
X132923118Y-155164746D01*
X132922883Y-155434073D01*
X133025733Y-155682989D01*
X133216010Y-155873598D01*
X133464746Y-155976882D01*
X133734073Y-155977117D01*
X133982989Y-155874267D01*
X134173598Y-155683990D01*
X134276882Y-155435254D01*
X134276959Y-155347531D01*
X134295185Y-155333420D01*
X134325453Y-155354101D01*
X134475000Y-155384385D01*
X134975000Y-155384385D01*
X135114708Y-155358097D01*
X135243020Y-155275530D01*
X135329101Y-155149547D01*
X135359385Y-155000000D01*
X135359385Y-154413641D01*
X135513327Y-154259698D01*
X135610000Y-154026309D01*
X135610000Y-153885750D01*
X135451250Y-153727000D01*
X134850000Y-153727000D01*
X134850000Y-153747000D01*
X134600000Y-153747000D01*
X134600000Y-153727000D01*
X134578000Y-153727000D01*
X134578000Y-153473000D01*
X134600000Y-153473000D01*
X134600000Y-152823750D01*
X134850000Y-152823750D01*
X134850000Y-153473000D01*
X135451250Y-153473000D01*
X135610000Y-153314250D01*
X135610000Y-153173691D01*
X135513327Y-152940302D01*
X135334699Y-152761673D01*
X135101310Y-152665000D01*
X135008750Y-152665000D01*
X134850000Y-152823750D01*
X134600000Y-152823750D01*
X134441250Y-152665000D01*
X134348690Y-152665000D01*
X134115301Y-152761673D01*
X134003977Y-152872998D01*
X133938252Y-152872998D01*
X134095000Y-152716250D01*
X134095000Y-152623690D01*
X133998327Y-152390301D01*
X133819698Y-152211673D01*
X133586309Y-152115000D01*
X133445750Y-152115000D01*
X133287000Y-152273750D01*
X133287000Y-152875000D01*
X133307000Y-152875000D01*
X133307000Y-153125000D01*
X133287000Y-153125000D01*
X133287000Y-153183750D01*
X133267000Y-153203750D01*
X133267000Y-153805000D01*
X133287000Y-153805000D01*
X133287000Y-154055000D01*
X133267000Y-154055000D01*
X133267000Y-154077000D01*
X133013000Y-154077000D01*
X133013000Y-154055000D01*
X132993000Y-154055000D01*
X132993000Y-153805000D01*
X133013000Y-153805000D01*
X133013000Y-153746250D01*
X133033000Y-153726250D01*
X133033000Y-153125000D01*
X133013000Y-153125000D01*
X133013000Y-152875000D01*
X133033000Y-152875000D01*
X133033000Y-152273750D01*
X132874250Y-152115000D01*
X132733691Y-152115000D01*
X132500302Y-152211673D01*
X132346359Y-152365615D01*
X132103609Y-152365615D01*
X133349612Y-151119612D01*
X133447594Y-150972973D01*
X133482000Y-150800000D01*
X133482000Y-147498391D01*
X133612989Y-147444267D01*
X133803598Y-147253990D01*
X133906882Y-147005254D01*
X133907117Y-146735927D01*
X133804267Y-146487011D01*
X133613990Y-146296402D01*
X133365254Y-146193118D01*
X133095927Y-146192883D01*
X133092000Y-146194506D01*
X133092000Y-142320000D01*
X133057594Y-142147027D01*
X132959612Y-142000388D01*
X132763609Y-141804385D01*
X134270000Y-141804385D01*
X134409708Y-141778097D01*
X134538020Y-141695530D01*
X134624101Y-141569547D01*
X134654385Y-141420000D01*
X134654385Y-140545962D01*
X134733000Y-140545962D01*
X134733000Y-140594038D01*
X134826400Y-141063591D01*
X135092380Y-141461658D01*
X135490447Y-141727638D01*
X135960000Y-141821038D01*
X136429553Y-141727638D01*
X136827620Y-141461658D01*
X137093600Y-141063591D01*
X137187000Y-140594038D01*
X137187000Y-140545962D01*
X137093600Y-140076409D01*
X136827620Y-139678342D01*
X136429553Y-139412362D01*
X135960000Y-139318962D01*
X135490447Y-139412362D01*
X135092380Y-139678342D01*
X134826400Y-140076409D01*
X134733000Y-140545962D01*
X134654385Y-140545962D01*
X134654385Y-139720000D01*
X134628097Y-139580292D01*
X134545530Y-139451980D01*
X134419547Y-139365899D01*
X134270000Y-139335615D01*
X132570000Y-139335615D01*
X132430292Y-139361903D01*
X132301980Y-139444470D01*
X132215899Y-139570453D01*
X132185615Y-139720000D01*
X132185615Y-141420000D01*
X132211903Y-141559708D01*
X132275153Y-141658000D01*
X132067225Y-141658000D01*
X130372000Y-139962776D01*
X130372000Y-137867224D01*
X132725534Y-135513690D01*
X139655000Y-135513690D01*
X139655000Y-136204250D01*
X139813750Y-136363000D01*
X141013000Y-136363000D01*
X141013000Y-135163750D01*
X140854250Y-135005000D01*
X140163691Y-135005000D01*
X139930302Y-135101673D01*
X139751673Y-135280301D01*
X139655000Y-135513690D01*
X132725534Y-135513690D01*
X133369612Y-134869613D01*
X133467594Y-134722973D01*
X133477534Y-134673000D01*
X133502000Y-134550000D01*
X133502000Y-134527106D01*
X133514073Y-134527117D01*
X133762989Y-134424267D01*
X133953598Y-134233990D01*
X134056882Y-133985254D01*
X134057117Y-133715927D01*
X133954267Y-133467011D01*
X133763990Y-133276402D01*
X133515254Y-133173118D01*
X133245927Y-133172883D01*
X132997011Y-133275733D01*
X132806402Y-133466010D01*
X132703118Y-133714746D01*
X132702955Y-133901444D01*
X132632406Y-134007027D01*
X132598000Y-134180000D01*
X132598000Y-134362775D01*
X129600388Y-137360388D01*
X129502406Y-137507027D01*
X129468000Y-137680000D01*
X129468000Y-139576285D01*
X129440000Y-139570615D01*
X126940000Y-139570615D01*
X126800292Y-139596903D01*
X126671980Y-139679470D01*
X126642000Y-139723347D01*
X126642000Y-139427224D01*
X133147224Y-132922000D01*
X136404484Y-132922000D01*
X136446010Y-132963598D01*
X136694746Y-133066882D01*
X136964073Y-133067117D01*
X137212989Y-132964267D01*
X137403598Y-132773990D01*
X137506882Y-132525254D01*
X137507117Y-132255927D01*
X137404267Y-132007011D01*
X137213990Y-131816402D01*
X136965254Y-131713118D01*
X136695927Y-131712883D01*
X136447011Y-131815733D01*
X136256402Y-132006010D01*
X136251423Y-132018000D01*
X132960000Y-132018000D01*
X132787027Y-132052406D01*
X132640388Y-132150388D01*
X125870388Y-138920388D01*
X125772406Y-139067027D01*
X125738000Y-139240000D01*
X125738000Y-139903153D01*
X125545254Y-139823118D01*
X125275927Y-139822883D01*
X125152000Y-139874089D01*
X125152000Y-137930000D01*
X125117594Y-137757027D01*
X125106929Y-137741066D01*
X125107117Y-137525927D01*
X125004267Y-137277011D01*
X124813990Y-137086402D01*
X124565254Y-136983118D01*
X124312000Y-136982897D01*
X124312000Y-136720000D01*
X124277594Y-136547027D01*
X124250132Y-136505927D01*
X124196960Y-136426349D01*
X124197117Y-136245927D01*
X124094267Y-135997011D01*
X123903990Y-135806402D01*
X123655254Y-135703118D01*
X123557976Y-135703033D01*
X123606882Y-135585254D01*
X123607117Y-135315927D01*
X123504267Y-135067011D01*
X123382000Y-134944531D01*
X123382000Y-134640000D01*
X123347594Y-134467027D01*
X123249612Y-134320388D01*
X122991151Y-134061927D01*
X123214024Y-134062122D01*
X123472132Y-133955474D01*
X123474832Y-133952779D01*
X123476830Y-133954780D01*
X123734751Y-134061878D01*
X124014024Y-134062122D01*
X124042921Y-134050182D01*
X124042883Y-134094073D01*
X124145733Y-134342989D01*
X124268000Y-134465469D01*
X124268000Y-135370000D01*
X124302406Y-135542973D01*
X124400388Y-135689612D01*
X124540388Y-135829612D01*
X124687027Y-135927594D01*
X124860000Y-135962000D01*
X125860000Y-135962000D01*
X126032973Y-135927594D01*
X126179612Y-135829612D01*
X127229612Y-134779612D01*
X127327594Y-134632973D01*
X127333202Y-134604780D01*
X127362000Y-134460000D01*
X127362000Y-134157224D01*
X128269612Y-133249612D01*
X128367594Y-133102973D01*
X128402000Y-132930000D01*
X128402000Y-132620000D01*
X128399114Y-132605489D01*
X128507027Y-132677594D01*
X128680000Y-132712000D01*
X131530000Y-132712000D01*
X131702973Y-132677594D01*
X131849612Y-132579612D01*
X132189613Y-132239612D01*
X132287594Y-132092973D01*
X132322000Y-131920000D01*
X132322000Y-130250000D01*
X132608962Y-130250000D01*
X132702362Y-130719553D01*
X132968342Y-131117620D01*
X133366409Y-131383600D01*
X133835962Y-131477000D01*
X133884038Y-131477000D01*
X134353591Y-131383600D01*
X134751658Y-131117620D01*
X135017638Y-130719553D01*
X135107059Y-130270000D01*
X139428962Y-130270000D01*
X139522362Y-130739553D01*
X139788342Y-131137620D01*
X140186409Y-131403600D01*
X140655962Y-131497000D01*
X140704038Y-131497000D01*
X141173591Y-131403600D01*
X141571658Y-131137620D01*
X141837638Y-130739553D01*
X141931038Y-130270000D01*
X141837638Y-129800447D01*
X141571658Y-129402380D01*
X141173591Y-129136400D01*
X140704038Y-129043000D01*
X140655962Y-129043000D01*
X140186409Y-129136400D01*
X139788342Y-129402380D01*
X139522362Y-129800447D01*
X139428962Y-130270000D01*
X135107059Y-130270000D01*
X135111038Y-130250000D01*
X135017638Y-129780447D01*
X134751658Y-129382380D01*
X134353591Y-129116400D01*
X133884038Y-129023000D01*
X133835962Y-129023000D01*
X133366409Y-129116400D01*
X132968342Y-129382380D01*
X132702362Y-129780447D01*
X132608962Y-130250000D01*
X132322000Y-130250000D01*
X132322000Y-128937224D01*
X132637272Y-128621952D01*
X132651903Y-128699708D01*
X132734470Y-128828020D01*
X132860453Y-128914101D01*
X133010000Y-128944385D01*
X134710000Y-128944385D01*
X134849708Y-128918097D01*
X134926394Y-128868750D01*
X135255000Y-128868750D01*
X135255000Y-128936309D01*
X135351673Y-129169698D01*
X135530301Y-129348327D01*
X135763690Y-129445000D01*
X135904250Y-129445000D01*
X136063000Y-129286250D01*
X136063000Y-128868750D01*
X136315000Y-128868750D01*
X136315000Y-128936309D01*
X136317000Y-128941137D01*
X136317000Y-129286250D01*
X136475750Y-129445000D01*
X136616310Y-129445000D01*
X136720000Y-129402050D01*
X136823690Y-129445000D01*
X136964250Y-129445000D01*
X137123000Y-129286250D01*
X137123000Y-128941137D01*
X137125000Y-128936309D01*
X137125000Y-128868750D01*
X137365000Y-128868750D01*
X137365000Y-128936309D01*
X137377000Y-128965280D01*
X137377000Y-129286250D01*
X137535750Y-129445000D01*
X137676310Y-129445000D01*
X137775000Y-129404121D01*
X137873690Y-129445000D01*
X138014250Y-129445000D01*
X138173000Y-129286250D01*
X138173000Y-128965280D01*
X138185000Y-128936309D01*
X138185000Y-128868750D01*
X138173000Y-128856750D01*
X138173000Y-128710000D01*
X138427000Y-128710000D01*
X138427000Y-129286250D01*
X138585750Y-129445000D01*
X138726310Y-129445000D01*
X138959699Y-129348327D01*
X139138327Y-129169698D01*
X139235000Y-128936309D01*
X139235000Y-128868750D01*
X139076250Y-128710000D01*
X138427000Y-128710000D01*
X138173000Y-128710000D01*
X137377000Y-128710000D01*
X137377000Y-128856750D01*
X137365000Y-128868750D01*
X137125000Y-128868750D01*
X137123000Y-128866750D01*
X137123000Y-128710000D01*
X136317000Y-128710000D01*
X136317000Y-128866750D01*
X136315000Y-128868750D01*
X136063000Y-128868750D01*
X136063000Y-128710000D01*
X135413750Y-128710000D01*
X135255000Y-128868750D01*
X134926394Y-128868750D01*
X134978020Y-128835530D01*
X135064101Y-128709547D01*
X135094385Y-128560000D01*
X135094385Y-128162000D01*
X135305406Y-128162000D01*
X135255000Y-128283691D01*
X135255000Y-128351250D01*
X135413750Y-128510000D01*
X136063000Y-128510000D01*
X136063000Y-128463000D01*
X136317000Y-128463000D01*
X136317000Y-128510000D01*
X137123000Y-128510000D01*
X137123000Y-128463000D01*
X137377000Y-128463000D01*
X137377000Y-128510000D01*
X138173000Y-128510000D01*
X138173000Y-128463000D01*
X138427000Y-128463000D01*
X138427000Y-128510000D01*
X139076250Y-128510000D01*
X139235000Y-128351250D01*
X139235000Y-128283691D01*
X139184594Y-128162000D01*
X139445615Y-128162000D01*
X139445615Y-128580000D01*
X139471903Y-128719708D01*
X139554470Y-128848020D01*
X139680453Y-128934101D01*
X139830000Y-128964385D01*
X141530000Y-128964385D01*
X141669708Y-128938097D01*
X141798020Y-128855530D01*
X141884101Y-128729547D01*
X141914385Y-128580000D01*
X141914385Y-126880000D01*
X141888097Y-126740292D01*
X141805530Y-126611980D01*
X141679547Y-126525899D01*
X141530000Y-126495615D01*
X139830000Y-126495615D01*
X139690292Y-126521903D01*
X139561980Y-126604470D01*
X139475899Y-126730453D01*
X139445615Y-126880000D01*
X139445615Y-127258000D01*
X138885839Y-127258000D01*
X138875530Y-127241980D01*
X138749547Y-127155899D01*
X138600000Y-127125615D01*
X138000000Y-127125615D01*
X137860292Y-127151903D01*
X137774497Y-127207111D01*
X137699547Y-127155899D01*
X137550000Y-127125615D01*
X137314839Y-127125615D01*
X136291224Y-126102000D01*
X142118000Y-126102000D01*
X142118000Y-135005700D01*
X142116309Y-135005000D01*
X141425750Y-135005000D01*
X141267000Y-135163750D01*
X141267000Y-136363000D01*
X141287000Y-136363000D01*
X141287000Y-136617000D01*
X141267000Y-136617000D01*
X141267000Y-136637000D01*
X141013000Y-136637000D01*
X141013000Y-136617000D01*
X139813750Y-136617000D01*
X139655000Y-136775750D01*
X139655000Y-137466310D01*
X139751673Y-137699699D01*
X139930302Y-137878327D01*
X140163691Y-137975000D01*
X140528776Y-137975000D01*
X140248342Y-138162380D01*
X139982362Y-138560447D01*
X139888962Y-139030000D01*
X139982362Y-139499553D01*
X139989917Y-139510859D01*
X139530388Y-139970388D01*
X139432406Y-140117027D01*
X139398000Y-140290000D01*
X139398000Y-143905020D01*
X139345254Y-143883118D01*
X139075927Y-143882883D01*
X138827011Y-143985733D01*
X138636402Y-144176010D01*
X138533118Y-144424746D01*
X138532883Y-144694073D01*
X138635733Y-144942989D01*
X138826010Y-145133598D01*
X138918000Y-145171796D01*
X138918000Y-145212776D01*
X137417743Y-146713033D01*
X137245927Y-146712883D01*
X136997011Y-146815733D01*
X136806402Y-147006010D01*
X136703118Y-147254746D01*
X136702883Y-147524073D01*
X136805733Y-147772989D01*
X136996010Y-147963598D01*
X137152286Y-148028489D01*
X135650388Y-149530388D01*
X135640941Y-149544526D01*
X135517011Y-149595733D01*
X135326402Y-149786010D01*
X135223118Y-150034746D01*
X135222883Y-150304073D01*
X135325733Y-150552989D01*
X135516010Y-150743598D01*
X135764746Y-150846882D01*
X136034073Y-150847117D01*
X136282989Y-150744267D01*
X136473598Y-150553990D01*
X136576882Y-150305254D01*
X136577113Y-150040000D01*
X136615615Y-150040000D01*
X136615615Y-151740000D01*
X136641903Y-151879708D01*
X136724470Y-152008020D01*
X136850453Y-152094101D01*
X137000000Y-152124385D01*
X138700000Y-152124385D01*
X138839708Y-152098097D01*
X138968020Y-152015530D01*
X139054101Y-151889547D01*
X139084385Y-151740000D01*
X139084385Y-151270000D01*
X139365615Y-151270000D01*
X139365615Y-152970000D01*
X139391903Y-153109708D01*
X139474470Y-153238020D01*
X139600453Y-153324101D01*
X139750000Y-153354385D01*
X141450000Y-153354385D01*
X141589708Y-153328097D01*
X141718020Y-153245530D01*
X141804101Y-153119547D01*
X141834385Y-152970000D01*
X141834385Y-151270000D01*
X141808097Y-151130292D01*
X141725530Y-151001980D01*
X141599547Y-150915899D01*
X141450000Y-150885615D01*
X139750000Y-150885615D01*
X139610292Y-150911903D01*
X139481980Y-150994470D01*
X139395899Y-151120453D01*
X139365615Y-151270000D01*
X139084385Y-151270000D01*
X139084385Y-150040000D01*
X139058097Y-149900292D01*
X138975530Y-149771980D01*
X138849547Y-149685899D01*
X138700000Y-149655615D01*
X137000000Y-149655615D01*
X136860292Y-149681903D01*
X136731980Y-149764470D01*
X136645899Y-149890453D01*
X136615615Y-150040000D01*
X136577113Y-150040000D01*
X136577117Y-150035927D01*
X136532143Y-149927081D01*
X139908761Y-146550464D01*
X139888962Y-146650000D01*
X139982362Y-147119553D01*
X140248342Y-147517620D01*
X140646409Y-147783600D01*
X141115962Y-147877000D01*
X141164038Y-147877000D01*
X141633591Y-147783600D01*
X142031658Y-147517620D01*
X142118000Y-147388400D01*
X142118000Y-148451600D01*
X142031658Y-148322380D01*
X141633591Y-148056400D01*
X141164038Y-147963000D01*
X141115962Y-147963000D01*
X140646409Y-148056400D01*
X140248342Y-148322380D01*
X139982362Y-148720447D01*
X139888962Y-149190000D01*
X139982362Y-149659553D01*
X140248342Y-150057620D01*
X140646409Y-150323600D01*
X141115962Y-150417000D01*
X141164038Y-150417000D01*
X141633591Y-150323600D01*
X142031658Y-150057620D01*
X142118000Y-149928400D01*
X142118000Y-157223198D01*
X133589854Y-157233000D01*
X133543841Y-157241685D01*
X133501447Y-157268965D01*
X133473006Y-157310590D01*
X133463000Y-157360000D01*
X133463000Y-161748000D01*
X103032000Y-161748000D01*
X103032000Y-160993779D01*
X111472857Y-160993779D01*
X111598495Y-161297846D01*
X111830930Y-161530688D01*
X112134778Y-161656856D01*
X112463779Y-161657143D01*
X112767846Y-161531505D01*
X113000688Y-161299070D01*
X113126856Y-160995222D01*
X113126857Y-160993779D01*
X114472857Y-160993779D01*
X114598495Y-161297846D01*
X114830930Y-161530688D01*
X115134778Y-161656856D01*
X115463779Y-161657143D01*
X115767846Y-161531505D01*
X116000688Y-161299070D01*
X116126856Y-160995222D01*
X116127143Y-160666221D01*
X116001505Y-160362154D01*
X115769070Y-160129312D01*
X115465222Y-160003144D01*
X115136221Y-160002857D01*
X114832154Y-160128495D01*
X114599312Y-160360930D01*
X114473144Y-160664778D01*
X114472857Y-160993779D01*
X113126857Y-160993779D01*
X113127143Y-160666221D01*
X113001505Y-160362154D01*
X112769070Y-160129312D01*
X112465222Y-160003144D01*
X112136221Y-160002857D01*
X111832154Y-160128495D01*
X111599312Y-160360930D01*
X111473144Y-160664778D01*
X111472857Y-160993779D01*
X103032000Y-160993779D01*
X103032000Y-159418432D01*
X103118355Y-159626924D01*
X103508642Y-160055183D01*
X104033108Y-160301486D01*
X104263000Y-160180819D01*
X104263000Y-158987000D01*
X104243000Y-158987000D01*
X104243000Y-158733000D01*
X104263000Y-158733000D01*
X104263000Y-158713000D01*
X104517000Y-158713000D01*
X104517000Y-158733000D01*
X104537000Y-158733000D01*
X104537000Y-158987000D01*
X104517000Y-158987000D01*
X104517000Y-160180819D01*
X104746892Y-160301486D01*
X105271358Y-160055183D01*
X105661645Y-159626924D01*
X105780048Y-159341056D01*
X106038342Y-159727620D01*
X106436409Y-159993600D01*
X106905962Y-160087000D01*
X106954038Y-160087000D01*
X107423591Y-159993600D01*
X107821658Y-159727620D01*
X108087638Y-159329553D01*
X108181038Y-158860000D01*
X108087638Y-158390447D01*
X107821658Y-157992380D01*
X107423591Y-157726400D01*
X106954038Y-157633000D01*
X106905962Y-157633000D01*
X106436409Y-157726400D01*
X106038342Y-157992380D01*
X105780048Y-158378944D01*
X105661645Y-158093076D01*
X105271358Y-157664817D01*
X104840046Y-157462262D01*
X104883591Y-157453600D01*
X105281658Y-157187620D01*
X105547638Y-156789553D01*
X105641038Y-156320000D01*
X105678962Y-156320000D01*
X105772362Y-156789553D01*
X106038342Y-157187620D01*
X106436409Y-157453600D01*
X106905962Y-157547000D01*
X106954038Y-157547000D01*
X107423591Y-157453600D01*
X107821658Y-157187620D01*
X108087638Y-156789553D01*
X108181038Y-156320000D01*
X108087638Y-155850447D01*
X107821658Y-155452380D01*
X107423591Y-155186400D01*
X106954038Y-155093000D01*
X106905962Y-155093000D01*
X106436409Y-155186400D01*
X106038342Y-155452380D01*
X105772362Y-155850447D01*
X105678962Y-156320000D01*
X105641038Y-156320000D01*
X105547638Y-155850447D01*
X105281658Y-155452380D01*
X104883591Y-155186400D01*
X104414038Y-155093000D01*
X104365962Y-155093000D01*
X103896409Y-155186400D01*
X103498342Y-155452380D01*
X103232362Y-155850447D01*
X103138962Y-156320000D01*
X103232362Y-156789553D01*
X103498342Y-157187620D01*
X103896409Y-157453600D01*
X103939954Y-157462262D01*
X103508642Y-157664817D01*
X103118355Y-158093076D01*
X103032000Y-158301568D01*
X103032000Y-153780000D01*
X103138962Y-153780000D01*
X103232362Y-154249553D01*
X103498342Y-154647620D01*
X103896409Y-154913600D01*
X104365962Y-155007000D01*
X104414038Y-155007000D01*
X104883591Y-154913600D01*
X105281658Y-154647620D01*
X105547638Y-154249553D01*
X105641038Y-153780000D01*
X105678962Y-153780000D01*
X105772362Y-154249553D01*
X106038342Y-154647620D01*
X106436409Y-154913600D01*
X106905962Y-155007000D01*
X106954038Y-155007000D01*
X107423591Y-154913600D01*
X107821658Y-154647620D01*
X108087638Y-154249553D01*
X108181038Y-153780000D01*
X108087638Y-153310447D01*
X107821658Y-152912380D01*
X107423591Y-152646400D01*
X106954038Y-152553000D01*
X106905962Y-152553000D01*
X106436409Y-152646400D01*
X106038342Y-152912380D01*
X105772362Y-153310447D01*
X105678962Y-153780000D01*
X105641038Y-153780000D01*
X105547638Y-153310447D01*
X105281658Y-152912380D01*
X104883591Y-152646400D01*
X104414038Y-152553000D01*
X104365962Y-152553000D01*
X103896409Y-152646400D01*
X103498342Y-152912380D01*
X103232362Y-153310447D01*
X103138962Y-153780000D01*
X103032000Y-153780000D01*
X103032000Y-151240000D01*
X103138962Y-151240000D01*
X103232362Y-151709553D01*
X103498342Y-152107620D01*
X103896409Y-152373600D01*
X104365962Y-152467000D01*
X104414038Y-152467000D01*
X104883591Y-152373600D01*
X105281658Y-152107620D01*
X105547638Y-151709553D01*
X105641038Y-151240000D01*
X105678962Y-151240000D01*
X105772362Y-151709553D01*
X106038342Y-152107620D01*
X106436409Y-152373600D01*
X106905962Y-152467000D01*
X106954038Y-152467000D01*
X107423591Y-152373600D01*
X107821658Y-152107620D01*
X108087638Y-151709553D01*
X108181038Y-151240000D01*
X108087638Y-150770447D01*
X107821658Y-150372380D01*
X107423591Y-150106400D01*
X106954038Y-150013000D01*
X106905962Y-150013000D01*
X106436409Y-150106400D01*
X106038342Y-150372380D01*
X105772362Y-150770447D01*
X105678962Y-151240000D01*
X105641038Y-151240000D01*
X105547638Y-150770447D01*
X105281658Y-150372380D01*
X104883591Y-150106400D01*
X104414038Y-150013000D01*
X104365962Y-150013000D01*
X103896409Y-150106400D01*
X103498342Y-150372380D01*
X103232362Y-150770447D01*
X103138962Y-151240000D01*
X103032000Y-151240000D01*
X103032000Y-148700000D01*
X103138962Y-148700000D01*
X103232362Y-149169553D01*
X103498342Y-149567620D01*
X103896409Y-149833600D01*
X104365962Y-149927000D01*
X104414038Y-149927000D01*
X104883591Y-149833600D01*
X105281658Y-149567620D01*
X105547638Y-149169553D01*
X105641038Y-148700000D01*
X105678962Y-148700000D01*
X105772362Y-149169553D01*
X106038342Y-149567620D01*
X106436409Y-149833600D01*
X106905962Y-149927000D01*
X106954038Y-149927000D01*
X107423591Y-149833600D01*
X107821658Y-149567620D01*
X108087638Y-149169553D01*
X108181038Y-148700000D01*
X108087638Y-148230447D01*
X107821658Y-147832380D01*
X107423591Y-147566400D01*
X106954038Y-147473000D01*
X106905962Y-147473000D01*
X106436409Y-147566400D01*
X106038342Y-147832380D01*
X105772362Y-148230447D01*
X105678962Y-148700000D01*
X105641038Y-148700000D01*
X105547638Y-148230447D01*
X105281658Y-147832380D01*
X104883591Y-147566400D01*
X104414038Y-147473000D01*
X104365962Y-147473000D01*
X103896409Y-147566400D01*
X103498342Y-147832380D01*
X103232362Y-148230447D01*
X103138962Y-148700000D01*
X103032000Y-148700000D01*
X103032000Y-143620000D01*
X103138962Y-143620000D01*
X103232362Y-144089553D01*
X103498342Y-144487620D01*
X103896409Y-144753600D01*
X104365962Y-144847000D01*
X104414038Y-144847000D01*
X104883591Y-144753600D01*
X105281658Y-144487620D01*
X105547638Y-144089553D01*
X105641038Y-143620000D01*
X105547638Y-143150447D01*
X105281658Y-142752380D01*
X104883591Y-142486400D01*
X104414038Y-142393000D01*
X104365962Y-142393000D01*
X103896409Y-142486400D01*
X103498342Y-142752380D01*
X103232362Y-143150447D01*
X103138962Y-143620000D01*
X103032000Y-143620000D01*
X103032000Y-126092000D01*
X117245932Y-126092000D01*
X117150000Y-126383000D01*
G36*
X115817630Y-155049965D02*
X115817632Y-155049968D01*
X115916347Y-155115927D01*
X115966292Y-155149299D01*
X116039470Y-155263020D01*
X116165453Y-155349101D01*
X116315000Y-155379385D01*
X116811391Y-155379385D01*
X116672776Y-155518000D01*
X114374594Y-155518000D01*
X114425000Y-155396310D01*
X114425000Y-155303750D01*
X114266250Y-155145000D01*
X113617000Y-155145000D01*
X113617000Y-155167000D01*
X113363000Y-155167000D01*
X113363000Y-155145000D01*
X113343000Y-155145000D01*
X113343000Y-154895000D01*
X113363000Y-154895000D01*
X113363000Y-154873000D01*
X113617000Y-154873000D01*
X113617000Y-154895000D01*
X114266250Y-154895000D01*
X114425000Y-154736250D01*
X114425000Y-154698800D01*
X114816809Y-154698800D01*
X115050198Y-154602127D01*
X115209995Y-154442331D01*
X115817630Y-155049965D01*
X115817630Y-155049965D01*
G37*
X115817630Y-155049965D02*
X115817632Y-155049968D01*
X115916347Y-155115927D01*
X115966292Y-155149299D01*
X116039470Y-155263020D01*
X116165453Y-155349101D01*
X116315000Y-155379385D01*
X116811391Y-155379385D01*
X116672776Y-155518000D01*
X114374594Y-155518000D01*
X114425000Y-155396310D01*
X114425000Y-155303750D01*
X114266250Y-155145000D01*
X113617000Y-155145000D01*
X113617000Y-155167000D01*
X113363000Y-155167000D01*
X113363000Y-155145000D01*
X113343000Y-155145000D01*
X113343000Y-154895000D01*
X113363000Y-154895000D01*
X113363000Y-154873000D01*
X113617000Y-154873000D01*
X113617000Y-154895000D01*
X114266250Y-154895000D01*
X114425000Y-154736250D01*
X114425000Y-154698800D01*
X114816809Y-154698800D01*
X115050198Y-154602127D01*
X115209995Y-154442331D01*
X115817630Y-155049965D01*
G36*
X117473033Y-151912257D02*
X117472883Y-152084073D01*
X117575733Y-152332989D01*
X117766010Y-152523598D01*
X117895139Y-152577217D01*
X117813118Y-152774746D01*
X117812967Y-152947809D01*
X117625388Y-153135388D01*
X117527406Y-153282027D01*
X117493000Y-153455000D01*
X117493000Y-154086163D01*
X117433389Y-154061410D01*
X117450000Y-154021309D01*
X117450000Y-153880750D01*
X117291250Y-153722000D01*
X116690000Y-153722000D01*
X116690000Y-153742000D01*
X116440000Y-153742000D01*
X116440000Y-153722000D01*
X116418000Y-153722000D01*
X116418000Y-153468000D01*
X116440000Y-153468000D01*
X116440000Y-152497000D01*
X116690000Y-152497000D01*
X116690000Y-153468000D01*
X117291250Y-153468000D01*
X117450000Y-153309250D01*
X117450000Y-153168691D01*
X117372877Y-152982500D01*
X117450000Y-152796309D01*
X117450000Y-152655750D01*
X117291250Y-152497000D01*
X116690000Y-152497000D01*
X116440000Y-152497000D01*
X116418000Y-152497000D01*
X116418000Y-152243000D01*
X116440000Y-152243000D01*
X116440000Y-152223000D01*
X116690000Y-152223000D01*
X116690000Y-152243000D01*
X117291250Y-152243000D01*
X117450000Y-152084250D01*
X117450000Y-151943691D01*
X117411486Y-151850710D01*
X117473033Y-151912257D01*
X117473033Y-151912257D01*
G37*
X117473033Y-151912257D02*
X117472883Y-152084073D01*
X117575733Y-152332989D01*
X117766010Y-152523598D01*
X117895139Y-152577217D01*
X117813118Y-152774746D01*
X117812967Y-152947809D01*
X117625388Y-153135388D01*
X117527406Y-153282027D01*
X117493000Y-153455000D01*
X117493000Y-154086163D01*
X117433389Y-154061410D01*
X117450000Y-154021309D01*
X117450000Y-153880750D01*
X117291250Y-153722000D01*
X116690000Y-153722000D01*
X116690000Y-153742000D01*
X116440000Y-153742000D01*
X116440000Y-153722000D01*
X116418000Y-153722000D01*
X116418000Y-153468000D01*
X116440000Y-153468000D01*
X116440000Y-152497000D01*
X116690000Y-152497000D01*
X116690000Y-153468000D01*
X117291250Y-153468000D01*
X117450000Y-153309250D01*
X117450000Y-153168691D01*
X117372877Y-152982500D01*
X117450000Y-152796309D01*
X117450000Y-152655750D01*
X117291250Y-152497000D01*
X116690000Y-152497000D01*
X116440000Y-152497000D01*
X116418000Y-152497000D01*
X116418000Y-152243000D01*
X116440000Y-152243000D01*
X116440000Y-152223000D01*
X116690000Y-152223000D01*
X116690000Y-152243000D01*
X117291250Y-152243000D01*
X117450000Y-152084250D01*
X117450000Y-151943691D01*
X117411486Y-151850710D01*
X117473033Y-151912257D01*
G36*
X113992000Y-152743000D02*
X114012000Y-152743000D01*
X114012000Y-152997000D01*
X113992000Y-152997000D01*
X113992000Y-153017000D01*
X113738000Y-153017000D01*
X113738000Y-152997000D01*
X113718000Y-152997000D01*
X113718000Y-152743000D01*
X113738000Y-152743000D01*
X113738000Y-152723000D01*
X113992000Y-152723000D01*
X113992000Y-152743000D01*
X113992000Y-152743000D01*
G37*
X113992000Y-152743000D02*
X114012000Y-152743000D01*
X114012000Y-152997000D01*
X113992000Y-152997000D01*
X113992000Y-153017000D01*
X113738000Y-153017000D01*
X113738000Y-152997000D01*
X113718000Y-152997000D01*
X113718000Y-152743000D01*
X113738000Y-152743000D01*
X113738000Y-152723000D01*
X113992000Y-152723000D01*
X113992000Y-152743000D01*
G36*
X113562000Y-150945000D02*
X113542000Y-150945000D01*
X113542000Y-150967000D01*
X113288000Y-150967000D01*
X113288000Y-150945000D01*
X113268000Y-150945000D01*
X113268000Y-150747000D01*
X113562000Y-150747000D01*
X113562000Y-150945000D01*
X113562000Y-150945000D01*
G37*
X113562000Y-150945000D02*
X113542000Y-150945000D01*
X113542000Y-150967000D01*
X113288000Y-150967000D01*
X113288000Y-150945000D01*
X113268000Y-150945000D01*
X113268000Y-150747000D01*
X113562000Y-150747000D01*
X113562000Y-150945000D01*
G36*
X130205615Y-143155551D02*
X130205615Y-143380000D01*
X130231903Y-143519708D01*
X130303680Y-143631252D01*
X130235899Y-143730453D01*
X130205615Y-143880000D01*
X130205615Y-144280000D01*
X130231903Y-144419708D01*
X130303680Y-144531252D01*
X130235899Y-144630453D01*
X130205615Y-144780000D01*
X130205615Y-145180000D01*
X130231903Y-145319708D01*
X130314470Y-145448020D01*
X130322974Y-145453830D01*
X130321980Y-145454470D01*
X130235899Y-145580453D01*
X130205615Y-145730000D01*
X130205615Y-145954450D01*
X129824385Y-146335680D01*
X129824385Y-145780000D01*
X129798097Y-145640292D01*
X129715530Y-145511980D01*
X129589547Y-145425899D01*
X129440000Y-145395615D01*
X126940000Y-145395615D01*
X126800292Y-145421903D01*
X126671980Y-145504470D01*
X126585899Y-145630453D01*
X126555615Y-145780000D01*
X126555615Y-146990500D01*
X125747500Y-146990500D01*
X125574527Y-147024906D01*
X125427888Y-147122887D01*
X123787743Y-148763033D01*
X123686997Y-148762945D01*
X123687033Y-148722191D01*
X123929612Y-148479612D01*
X124027594Y-148332973D01*
X124062000Y-148160000D01*
X124062000Y-147567224D01*
X126509612Y-145119612D01*
X126607594Y-144972973D01*
X126642000Y-144800000D01*
X126642000Y-143513101D01*
X126664470Y-143548020D01*
X126790453Y-143634101D01*
X126940000Y-143664385D01*
X127573858Y-143664385D01*
X127503118Y-143834746D01*
X127502883Y-144104073D01*
X127605733Y-144352989D01*
X127796010Y-144543598D01*
X128044746Y-144646882D01*
X128314073Y-144647117D01*
X128562989Y-144544267D01*
X128753598Y-144353990D01*
X128856882Y-144105254D01*
X128857117Y-143835927D01*
X128786237Y-143664385D01*
X129440000Y-143664385D01*
X129579708Y-143638097D01*
X129708020Y-143555530D01*
X129794101Y-143429547D01*
X129824385Y-143280000D01*
X129824385Y-142774321D01*
X130205615Y-143155551D01*
X130205615Y-143155551D01*
G37*
X130205615Y-143155551D02*
X130205615Y-143380000D01*
X130231903Y-143519708D01*
X130303680Y-143631252D01*
X130235899Y-143730453D01*
X130205615Y-143880000D01*
X130205615Y-144280000D01*
X130231903Y-144419708D01*
X130303680Y-144531252D01*
X130235899Y-144630453D01*
X130205615Y-144780000D01*
X130205615Y-145180000D01*
X130231903Y-145319708D01*
X130314470Y-145448020D01*
X130322974Y-145453830D01*
X130321980Y-145454470D01*
X130235899Y-145580453D01*
X130205615Y-145730000D01*
X130205615Y-145954450D01*
X129824385Y-146335680D01*
X129824385Y-145780000D01*
X129798097Y-145640292D01*
X129715530Y-145511980D01*
X129589547Y-145425899D01*
X129440000Y-145395615D01*
X126940000Y-145395615D01*
X126800292Y-145421903D01*
X126671980Y-145504470D01*
X126585899Y-145630453D01*
X126555615Y-145780000D01*
X126555615Y-146990500D01*
X125747500Y-146990500D01*
X125574527Y-147024906D01*
X125427888Y-147122887D01*
X123787743Y-148763033D01*
X123686997Y-148762945D01*
X123687033Y-148722191D01*
X123929612Y-148479612D01*
X124027594Y-148332973D01*
X124062000Y-148160000D01*
X124062000Y-147567224D01*
X126509612Y-145119612D01*
X126607594Y-144972973D01*
X126642000Y-144800000D01*
X126642000Y-143513101D01*
X126664470Y-143548020D01*
X126790453Y-143634101D01*
X126940000Y-143664385D01*
X127573858Y-143664385D01*
X127503118Y-143834746D01*
X127502883Y-144104073D01*
X127605733Y-144352989D01*
X127796010Y-144543598D01*
X128044746Y-144646882D01*
X128314073Y-144647117D01*
X128562989Y-144544267D01*
X128753598Y-144353990D01*
X128856882Y-144105254D01*
X128857117Y-143835927D01*
X128786237Y-143664385D01*
X129440000Y-143664385D01*
X129579708Y-143638097D01*
X129708020Y-143555530D01*
X129794101Y-143429547D01*
X129824385Y-143280000D01*
X129824385Y-142774321D01*
X130205615Y-143155551D01*
G36*
X121823000Y-133985000D02*
X121857406Y-134157973D01*
X121955388Y-134304612D01*
X122478000Y-134827224D01*
X122478000Y-134944624D01*
X122356402Y-135066010D01*
X122253118Y-135314746D01*
X122252883Y-135584073D01*
X122355733Y-135832989D01*
X122478000Y-135955469D01*
X122478000Y-138482776D01*
X120287023Y-140673753D01*
X120287117Y-140565927D01*
X120184267Y-140317011D01*
X119993990Y-140126402D01*
X119745254Y-140023118D01*
X119475927Y-140022883D01*
X119227011Y-140125733D01*
X119036402Y-140316010D01*
X118933118Y-140564746D01*
X118932883Y-140834073D01*
X119035733Y-141082989D01*
X119226010Y-141273598D01*
X119474746Y-141376882D01*
X119629095Y-141377017D01*
X119622406Y-141387027D01*
X119588000Y-141560000D01*
X119588000Y-142718000D01*
X119245394Y-142718000D01*
X119133990Y-142606402D01*
X118885254Y-142503118D01*
X118644809Y-142502908D01*
X118726882Y-142305254D01*
X118727117Y-142035927D01*
X118624267Y-141787011D01*
X118433990Y-141596402D01*
X118185254Y-141493118D01*
X118132000Y-141493072D01*
X118132000Y-138150000D01*
X118097594Y-137977027D01*
X118056899Y-137916123D01*
X118090388Y-137949612D01*
X118237027Y-138047594D01*
X118410000Y-138082000D01*
X120414624Y-138082000D01*
X120536010Y-138203598D01*
X120784746Y-138306882D01*
X121054073Y-138307117D01*
X121302989Y-138204267D01*
X121493598Y-138013990D01*
X121559704Y-137854788D01*
X121564746Y-137856882D01*
X121834073Y-137857117D01*
X122082989Y-137754267D01*
X122273598Y-137563990D01*
X122376882Y-137315254D01*
X122377117Y-137045927D01*
X122274267Y-136797011D01*
X122083990Y-136606402D01*
X121835254Y-136503118D01*
X121662192Y-136502967D01*
X121096932Y-135937708D01*
X121097117Y-135725927D01*
X120994267Y-135477011D01*
X120803990Y-135286402D01*
X120555254Y-135183118D01*
X120285927Y-135182883D01*
X120172000Y-135229957D01*
X120172000Y-134937224D01*
X120632257Y-134476967D01*
X120804073Y-134477117D01*
X121052989Y-134374267D01*
X121243598Y-134183990D01*
X121300252Y-134047553D01*
X121334751Y-134061878D01*
X121614024Y-134062122D01*
X121823000Y-133975775D01*
X121823000Y-133985000D01*
X121823000Y-133985000D01*
G37*
X121823000Y-133985000D02*
X121857406Y-134157973D01*
X121955388Y-134304612D01*
X122478000Y-134827224D01*
X122478000Y-134944624D01*
X122356402Y-135066010D01*
X122253118Y-135314746D01*
X122252883Y-135584073D01*
X122355733Y-135832989D01*
X122478000Y-135955469D01*
X122478000Y-138482776D01*
X120287023Y-140673753D01*
X120287117Y-140565927D01*
X120184267Y-140317011D01*
X119993990Y-140126402D01*
X119745254Y-140023118D01*
X119475927Y-140022883D01*
X119227011Y-140125733D01*
X119036402Y-140316010D01*
X118933118Y-140564746D01*
X118932883Y-140834073D01*
X119035733Y-141082989D01*
X119226010Y-141273598D01*
X119474746Y-141376882D01*
X119629095Y-141377017D01*
X119622406Y-141387027D01*
X119588000Y-141560000D01*
X119588000Y-142718000D01*
X119245394Y-142718000D01*
X119133990Y-142606402D01*
X118885254Y-142503118D01*
X118644809Y-142502908D01*
X118726882Y-142305254D01*
X118727117Y-142035927D01*
X118624267Y-141787011D01*
X118433990Y-141596402D01*
X118185254Y-141493118D01*
X118132000Y-141493072D01*
X118132000Y-138150000D01*
X118097594Y-137977027D01*
X118056899Y-137916123D01*
X118090388Y-137949612D01*
X118237027Y-138047594D01*
X118410000Y-138082000D01*
X120414624Y-138082000D01*
X120536010Y-138203598D01*
X120784746Y-138306882D01*
X121054073Y-138307117D01*
X121302989Y-138204267D01*
X121493598Y-138013990D01*
X121559704Y-137854788D01*
X121564746Y-137856882D01*
X121834073Y-137857117D01*
X122082989Y-137754267D01*
X122273598Y-137563990D01*
X122376882Y-137315254D01*
X122377117Y-137045927D01*
X122274267Y-136797011D01*
X122083990Y-136606402D01*
X121835254Y-136503118D01*
X121662192Y-136502967D01*
X121096932Y-135937708D01*
X121097117Y-135725927D01*
X120994267Y-135477011D01*
X120803990Y-135286402D01*
X120555254Y-135183118D01*
X120285927Y-135182883D01*
X120172000Y-135229957D01*
X120172000Y-134937224D01*
X120632257Y-134476967D01*
X120804073Y-134477117D01*
X121052989Y-134374267D01*
X121243598Y-134183990D01*
X121300252Y-134047553D01*
X121334751Y-134061878D01*
X121614024Y-134062122D01*
X121823000Y-133975775D01*
X121823000Y-133985000D01*
G36*
X107945000Y-134726310D02*
X107967000Y-134779423D01*
X107967000Y-134847000D01*
X107945000Y-134847000D01*
X107945000Y-134867000D01*
X107722000Y-134867000D01*
X107722000Y-134573000D01*
X107945000Y-134573000D01*
X107945000Y-134726310D01*
X107945000Y-134726310D01*
G37*
X107945000Y-134726310D02*
X107967000Y-134779423D01*
X107967000Y-134847000D01*
X107945000Y-134847000D01*
X107945000Y-134867000D01*
X107722000Y-134867000D01*
X107722000Y-134573000D01*
X107945000Y-134573000D01*
X107945000Y-134726310D01*
G36*
X125770000Y-133187000D02*
X125784282Y-133230323D01*
X125654605Y-133360000D01*
X125668748Y-133374143D01*
X125489143Y-133553748D01*
X125475000Y-133539605D01*
X125460858Y-133553748D01*
X125281253Y-133374143D01*
X125295395Y-133360000D01*
X125281253Y-133345858D01*
X125300874Y-133326236D01*
X125472132Y-133255474D01*
X125669780Y-133058170D01*
X125721301Y-132934094D01*
X125770000Y-132885395D01*
X125770000Y-133187000D01*
X125770000Y-133187000D01*
G37*
X125770000Y-133187000D02*
X125784282Y-133230323D01*
X125654605Y-133360000D01*
X125668748Y-133374143D01*
X125489143Y-133553748D01*
X125475000Y-133539605D01*
X125460858Y-133553748D01*
X125281253Y-133374143D01*
X125295395Y-133360000D01*
X125281253Y-133345858D01*
X125300874Y-133326236D01*
X125472132Y-133255474D01*
X125669780Y-133058170D01*
X125721301Y-132934094D01*
X125770000Y-132885395D01*
X125770000Y-133187000D01*
G36*
X119628680Y-132934075D02*
X119679526Y-133057132D01*
X119876830Y-133254780D01*
X120049276Y-133326386D01*
X120068748Y-133345858D01*
X120054605Y-133360000D01*
X120068748Y-133374143D01*
X119889143Y-133553748D01*
X119875000Y-133539605D01*
X119860858Y-133553748D01*
X119681253Y-133374143D01*
X119695395Y-133360000D01*
X119565718Y-133230323D01*
X119580000Y-133187000D01*
X119580000Y-132885395D01*
X119628680Y-132934075D01*
X119628680Y-132934075D01*
G37*
X119628680Y-132934075D02*
X119679526Y-133057132D01*
X119876830Y-133254780D01*
X120049276Y-133326386D01*
X120068748Y-133345858D01*
X120054605Y-133360000D01*
X120068748Y-133374143D01*
X119889143Y-133553748D01*
X119875000Y-133539605D01*
X119860858Y-133553748D01*
X119681253Y-133374143D01*
X119695395Y-133360000D01*
X119565718Y-133230323D01*
X119580000Y-133187000D01*
X119580000Y-132885395D01*
X119628680Y-132934075D01*
G36*
X126932000Y-132633000D02*
X126952000Y-132633000D01*
X126952000Y-132887000D01*
X126932000Y-132887000D01*
X126932000Y-132907000D01*
X126678000Y-132907000D01*
X126678000Y-132887000D01*
X126658000Y-132887000D01*
X126658000Y-132633000D01*
X126678000Y-132633000D01*
X126678000Y-132613000D01*
X126932000Y-132613000D01*
X126932000Y-132633000D01*
X126932000Y-132633000D01*
G37*
X126932000Y-132633000D02*
X126952000Y-132633000D01*
X126952000Y-132887000D01*
X126932000Y-132887000D01*
X126932000Y-132907000D01*
X126678000Y-132907000D01*
X126678000Y-132887000D01*
X126658000Y-132887000D01*
X126658000Y-132633000D01*
X126678000Y-132633000D01*
X126678000Y-132613000D01*
X126932000Y-132613000D01*
X126932000Y-132633000D01*
M02*
