%TF.GenerationSoftware,KiCad,Pcbnew,4.0.7*%
%TF.CreationDate,2019-02-19T19:06:54-06:00*%
%TF.ProjectId,GolfGloveMainBoardV1.0.0,476F6C66476C6F76654D61696E426F61,rev?*%
%TF.FileFunction,Legend,Top*%
%FSLAX46Y46*%
G04 Gerber Fmt 4.6, Leading zero omitted, Abs format (unit mm)*
G04 Created by KiCad (PCBNEW 4.0.7) date 02/19/19 19:06:54*
%MOMM*%
%LPD*%
G01*
G04 APERTURE LIST*
%ADD10C,0.100000*%
%ADD11C,0.150000*%
%ADD12C,0.300000*%
%ADD13C,0.200000*%
%ADD14C,0.127000*%
%ADD15C,0.120000*%
%ADD16C,0.152400*%
%ADD17C,0.050000*%
G04 APERTURE END LIST*
D10*
D11*
X118120000Y-123130000D02*
X118120000Y-125640000D01*
X127220000Y-123130000D02*
X118120000Y-123130000D01*
X127220000Y-125640000D02*
X127220000Y-123130000D01*
X118130000Y-125640000D02*
X127220000Y-125640000D01*
X102580000Y-162200000D02*
X102570000Y-162200000D01*
X102580000Y-125640000D02*
X102580000Y-162200000D01*
X117250000Y-125640000D02*
X102580000Y-125640000D01*
X117250000Y-113080000D02*
X117250000Y-125640000D01*
X114340000Y-113080000D02*
X117250000Y-113080000D01*
X114340000Y-106880000D02*
X114340000Y-113080000D01*
X130990000Y-106880000D02*
X114340000Y-106880000D01*
X130990000Y-113080000D02*
X130990000Y-106880000D01*
X128090000Y-113080000D02*
X130990000Y-113080000D01*
X128090000Y-125650000D02*
X128090000Y-113080000D01*
X142570000Y-125650000D02*
X128090000Y-125650000D01*
X142570000Y-162200000D02*
X142570000Y-125650000D01*
X102580000Y-162200000D02*
X142570000Y-162200000D01*
D12*
X111793571Y-120612142D02*
X111793571Y-121469285D01*
X111793571Y-121040713D02*
X110293571Y-121040713D01*
X110507857Y-121183570D01*
X110650714Y-121326428D01*
X110722143Y-121469285D01*
X110293571Y-119326428D02*
X110293571Y-119612142D01*
X110365000Y-119754999D01*
X110436429Y-119826428D01*
X110650714Y-119969285D01*
X110936429Y-120040714D01*
X111507857Y-120040714D01*
X111650714Y-119969285D01*
X111722143Y-119897857D01*
X111793571Y-119754999D01*
X111793571Y-119469285D01*
X111722143Y-119326428D01*
X111650714Y-119254999D01*
X111507857Y-119183571D01*
X111150714Y-119183571D01*
X111007857Y-119254999D01*
X110936429Y-119326428D01*
X110865000Y-119469285D01*
X110865000Y-119754999D01*
X110936429Y-119897857D01*
X111007857Y-119969285D01*
X111150714Y-120040714D01*
X111650714Y-118540714D02*
X111722143Y-118469286D01*
X111793571Y-118540714D01*
X111722143Y-118612143D01*
X111650714Y-118540714D01*
X111793571Y-118540714D01*
X110293571Y-117540714D02*
X110293571Y-117397857D01*
X110365000Y-117255000D01*
X110436429Y-117183571D01*
X110579286Y-117112142D01*
X110865000Y-117040714D01*
X111222143Y-117040714D01*
X111507857Y-117112142D01*
X111650714Y-117183571D01*
X111722143Y-117255000D01*
X111793571Y-117397857D01*
X111793571Y-117540714D01*
X111722143Y-117683571D01*
X111650714Y-117755000D01*
X111507857Y-117826428D01*
X111222143Y-117897857D01*
X110865000Y-117897857D01*
X110579286Y-117826428D01*
X110436429Y-117755000D01*
X110365000Y-117683571D01*
X110293571Y-117540714D01*
X110293571Y-116112143D02*
X110293571Y-115969286D01*
X110365000Y-115826429D01*
X110436429Y-115755000D01*
X110579286Y-115683571D01*
X110865000Y-115612143D01*
X111222143Y-115612143D01*
X111507857Y-115683571D01*
X111650714Y-115755000D01*
X111722143Y-115826429D01*
X111793571Y-115969286D01*
X111793571Y-116112143D01*
X111722143Y-116255000D01*
X111650714Y-116326429D01*
X111507857Y-116397857D01*
X111222143Y-116469286D01*
X110865000Y-116469286D01*
X110579286Y-116397857D01*
X110436429Y-116326429D01*
X110365000Y-116255000D01*
X110293571Y-116112143D01*
X110293571Y-114683572D02*
X110293571Y-114540715D01*
X110365000Y-114397858D01*
X110436429Y-114326429D01*
X110579286Y-114255000D01*
X110865000Y-114183572D01*
X111222143Y-114183572D01*
X111507857Y-114255000D01*
X111650714Y-114326429D01*
X111722143Y-114397858D01*
X111793571Y-114540715D01*
X111793571Y-114683572D01*
X111722143Y-114826429D01*
X111650714Y-114897858D01*
X111507857Y-114969286D01*
X111222143Y-115040715D01*
X110865000Y-115040715D01*
X110579286Y-114969286D01*
X110436429Y-114897858D01*
X110365000Y-114826429D01*
X110293571Y-114683572D01*
X111793571Y-112397858D02*
X110793571Y-112397858D01*
X110936429Y-112397858D02*
X110865000Y-112326430D01*
X110793571Y-112183572D01*
X110793571Y-111969287D01*
X110865000Y-111826430D01*
X111007857Y-111755001D01*
X111793571Y-111755001D01*
X111007857Y-111755001D02*
X110865000Y-111683572D01*
X110793571Y-111540715D01*
X110793571Y-111326430D01*
X110865000Y-111183572D01*
X111007857Y-111112144D01*
X111793571Y-111112144D01*
X111793571Y-110397858D02*
X110793571Y-110397858D01*
X110936429Y-110397858D02*
X110865000Y-110326430D01*
X110793571Y-110183572D01*
X110793571Y-109969287D01*
X110865000Y-109826430D01*
X111007857Y-109755001D01*
X111793571Y-109755001D01*
X111007857Y-109755001D02*
X110865000Y-109683572D01*
X110793571Y-109540715D01*
X110793571Y-109326430D01*
X110865000Y-109183572D01*
X111007857Y-109112144D01*
X111793571Y-109112144D01*
X112465000Y-123255000D02*
X112465000Y-107255000D01*
X117165000Y-123255000D02*
X109765000Y-123255000D01*
X117165000Y-107255000D02*
X109765000Y-107255000D01*
X112465000Y-107255000D02*
X113051421Y-108381504D01*
X112465000Y-107255000D02*
X111878579Y-108381504D01*
X112465000Y-123255000D02*
X113051421Y-122128496D01*
X112465000Y-123255000D02*
X111878579Y-122128496D01*
X117307858Y-103683571D02*
X116450715Y-103683571D01*
X116879287Y-103683571D02*
X116879287Y-102183571D01*
X116736430Y-102397857D01*
X116593572Y-102540714D01*
X116450715Y-102612143D01*
X118593572Y-102183571D02*
X118307858Y-102183571D01*
X118165001Y-102255000D01*
X118093572Y-102326429D01*
X117950715Y-102540714D01*
X117879286Y-102826429D01*
X117879286Y-103397857D01*
X117950715Y-103540714D01*
X118022143Y-103612143D01*
X118165001Y-103683571D01*
X118450715Y-103683571D01*
X118593572Y-103612143D01*
X118665001Y-103540714D01*
X118736429Y-103397857D01*
X118736429Y-103040714D01*
X118665001Y-102897857D01*
X118593572Y-102826429D01*
X118450715Y-102755000D01*
X118165001Y-102755000D01*
X118022143Y-102826429D01*
X117950715Y-102897857D01*
X117879286Y-103040714D01*
X119379286Y-103540714D02*
X119450714Y-103612143D01*
X119379286Y-103683571D01*
X119307857Y-103612143D01*
X119379286Y-103540714D01*
X119379286Y-103683571D01*
X120379286Y-102183571D02*
X120522143Y-102183571D01*
X120665000Y-102255000D01*
X120736429Y-102326429D01*
X120807858Y-102469286D01*
X120879286Y-102755000D01*
X120879286Y-103112143D01*
X120807858Y-103397857D01*
X120736429Y-103540714D01*
X120665000Y-103612143D01*
X120522143Y-103683571D01*
X120379286Y-103683571D01*
X120236429Y-103612143D01*
X120165000Y-103540714D01*
X120093572Y-103397857D01*
X120022143Y-103112143D01*
X120022143Y-102755000D01*
X120093572Y-102469286D01*
X120165000Y-102326429D01*
X120236429Y-102255000D01*
X120379286Y-102183571D01*
X121807857Y-102183571D02*
X121950714Y-102183571D01*
X122093571Y-102255000D01*
X122165000Y-102326429D01*
X122236429Y-102469286D01*
X122307857Y-102755000D01*
X122307857Y-103112143D01*
X122236429Y-103397857D01*
X122165000Y-103540714D01*
X122093571Y-103612143D01*
X121950714Y-103683571D01*
X121807857Y-103683571D01*
X121665000Y-103612143D01*
X121593571Y-103540714D01*
X121522143Y-103397857D01*
X121450714Y-103112143D01*
X121450714Y-102755000D01*
X121522143Y-102469286D01*
X121593571Y-102326429D01*
X121665000Y-102255000D01*
X121807857Y-102183571D01*
X123236428Y-102183571D02*
X123379285Y-102183571D01*
X123522142Y-102255000D01*
X123593571Y-102326429D01*
X123665000Y-102469286D01*
X123736428Y-102755000D01*
X123736428Y-103112143D01*
X123665000Y-103397857D01*
X123593571Y-103540714D01*
X123522142Y-103612143D01*
X123379285Y-103683571D01*
X123236428Y-103683571D01*
X123093571Y-103612143D01*
X123022142Y-103540714D01*
X122950714Y-103397857D01*
X122879285Y-103112143D01*
X122879285Y-102755000D01*
X122950714Y-102469286D01*
X123022142Y-102326429D01*
X123093571Y-102255000D01*
X123236428Y-102183571D01*
X125522142Y-103683571D02*
X125522142Y-102683571D01*
X125522142Y-102826429D02*
X125593570Y-102755000D01*
X125736428Y-102683571D01*
X125950713Y-102683571D01*
X126093570Y-102755000D01*
X126164999Y-102897857D01*
X126164999Y-103683571D01*
X126164999Y-102897857D02*
X126236428Y-102755000D01*
X126379285Y-102683571D01*
X126593570Y-102683571D01*
X126736428Y-102755000D01*
X126807856Y-102897857D01*
X126807856Y-103683571D01*
X127522142Y-103683571D02*
X127522142Y-102683571D01*
X127522142Y-102826429D02*
X127593570Y-102755000D01*
X127736428Y-102683571D01*
X127950713Y-102683571D01*
X128093570Y-102755000D01*
X128164999Y-102897857D01*
X128164999Y-103683571D01*
X128164999Y-102897857D02*
X128236428Y-102755000D01*
X128379285Y-102683571D01*
X128593570Y-102683571D01*
X128736428Y-102755000D01*
X128807856Y-102897857D01*
X128807856Y-103683571D01*
X114665000Y-104355000D02*
X130665000Y-104355000D01*
X114665000Y-107255000D02*
X114665000Y-101655000D01*
X130665000Y-107255000D02*
X130665000Y-101655000D01*
X130665000Y-104355000D02*
X129538496Y-104941421D01*
X130665000Y-104355000D02*
X129538496Y-103768579D01*
X114665000Y-104355000D02*
X115791504Y-104941421D01*
X114665000Y-104355000D02*
X115791504Y-103768579D01*
D13*
X142037500Y-161612500D02*
X137587500Y-161612500D01*
X142037500Y-157612500D02*
X137437500Y-157612500D01*
X142037500Y-159462500D02*
X142037500Y-157612500D01*
X142037500Y-159362500D02*
X142037500Y-161612500D01*
X133837500Y-161612500D02*
X133837500Y-158637500D01*
X137612500Y-161612500D02*
X133837500Y-161612500D01*
X137512500Y-157612500D02*
X133837500Y-157612500D01*
X133837500Y-158637500D02*
X133837500Y-157612500D01*
X119180000Y-151205000D02*
G75*
G03X119180000Y-151205000I-100000J0D01*
G01*
D14*
X124850000Y-155725000D02*
X124500000Y-155725000D01*
X124850000Y-150725000D02*
X124500000Y-150725000D01*
X119850000Y-155725000D02*
X120200000Y-155725000D01*
X119850000Y-150725000D02*
X120200000Y-150725000D01*
X124850000Y-155725000D02*
X124850000Y-155375000D01*
X124850000Y-150725000D02*
X124850000Y-151075000D01*
X119850000Y-155725000D02*
X119850000Y-155375000D01*
X119850000Y-150725000D02*
X119850000Y-151075000D01*
D15*
X125915000Y-113885000D02*
X127415000Y-113885000D01*
X127415000Y-113885000D02*
X127415000Y-121145000D01*
X117915000Y-113885000D02*
X117915000Y-121145000D01*
X117915000Y-113885000D02*
X119415000Y-113885000D01*
X130495000Y-107385000D02*
X127835000Y-107385000D01*
X130495000Y-109985000D02*
X130495000Y-107385000D01*
X127835000Y-109985000D02*
X127835000Y-107385000D01*
X130495000Y-109985000D02*
X127835000Y-109985000D01*
X130495000Y-111255000D02*
X130495000Y-112585000D01*
X130495000Y-112585000D02*
X129165000Y-112585000D01*
X129710000Y-136100000D02*
X130710000Y-136100000D01*
X130710000Y-136100000D02*
X130710000Y-135500000D01*
X137110000Y-135500000D02*
X137110000Y-136100000D01*
X132810000Y-133850000D02*
X135010000Y-133850000D01*
X135010000Y-137750000D02*
X132810000Y-137750000D01*
X132810000Y-137750000D02*
X132810000Y-138600000D01*
X119425000Y-135020000D02*
X117925000Y-135020000D01*
X117925000Y-135020000D02*
X117925000Y-127760000D01*
X127425000Y-135020000D02*
X127425000Y-127760000D01*
X127425000Y-135020000D02*
X125925000Y-135020000D01*
D13*
X121565000Y-112405000D02*
G75*
G03X121565000Y-112405000I-100000J0D01*
G01*
D14*
X121085000Y-111865000D02*
X121725000Y-111865000D01*
X121085000Y-108145000D02*
X121725000Y-108145000D01*
X124245000Y-111865000D02*
X123605000Y-111865000D01*
X124245000Y-108145000D02*
X123605000Y-108145000D01*
D10*
G36*
X136134420Y-159412500D02*
X137237500Y-159412500D01*
X137237500Y-159812842D01*
X136134420Y-159812842D01*
X136134420Y-159412500D01*
G37*
D15*
X116227500Y-142542500D02*
X116227500Y-143042500D01*
X117167500Y-143042500D02*
X117167500Y-142542500D01*
X116942500Y-147092500D02*
X116942500Y-146592500D01*
X116002500Y-146592500D02*
X116002500Y-147092500D01*
X120080000Y-139550000D02*
X120080000Y-139050000D01*
X119140000Y-139050000D02*
X119140000Y-139550000D01*
X124940000Y-138950000D02*
X124940000Y-139450000D01*
X125880000Y-139450000D02*
X125880000Y-138950000D01*
X120260000Y-141130000D02*
X119760000Y-141130000D01*
X119760000Y-142070000D02*
X120260000Y-142070000D01*
X121180000Y-139550000D02*
X121180000Y-139050000D01*
X120240000Y-139050000D02*
X120240000Y-139550000D01*
X119760000Y-143170000D02*
X120260000Y-143170000D01*
X120260000Y-142230000D02*
X119760000Y-142230000D01*
X126415000Y-112285000D02*
X125915000Y-112285000D01*
X125915000Y-113225000D02*
X126415000Y-113225000D01*
X119305000Y-157015000D02*
X119305000Y-156515000D01*
X118365000Y-156515000D02*
X118365000Y-157015000D01*
X123190000Y-148110000D02*
X123690000Y-148110000D01*
X123690000Y-147170000D02*
X123190000Y-147170000D01*
X118915000Y-113225000D02*
X119415000Y-113225000D01*
X119415000Y-112285000D02*
X118915000Y-112285000D01*
X126415000Y-111285000D02*
X125915000Y-111285000D01*
X125915000Y-112225000D02*
X126415000Y-112225000D01*
X125915000Y-109225000D02*
X126415000Y-109225000D01*
X126415000Y-108285000D02*
X125915000Y-108285000D01*
X118915000Y-112225000D02*
X119415000Y-112225000D01*
X119415000Y-111285000D02*
X118915000Y-111285000D01*
X129300000Y-134970000D02*
X129300000Y-134470000D01*
X128360000Y-134470000D02*
X128360000Y-134970000D01*
X131620000Y-140210000D02*
X131620000Y-139710000D01*
X130680000Y-139710000D02*
X130680000Y-140210000D01*
X114972500Y-142967500D02*
X114272500Y-142967500D01*
X114272500Y-141767500D02*
X114972500Y-141767500D01*
X139810000Y-150520000D02*
X142470000Y-150520000D01*
X139810000Y-137760000D02*
X139810000Y-150520000D01*
X142470000Y-137760000D02*
X142470000Y-150520000D01*
X139810000Y-137760000D02*
X142470000Y-137760000D01*
X139810000Y-136490000D02*
X139810000Y-135160000D01*
X139810000Y-135160000D02*
X141140000Y-135160000D01*
X110270000Y-126540000D02*
X107610000Y-126540000D01*
X110270000Y-129140000D02*
X110270000Y-126540000D01*
X107610000Y-129140000D02*
X107610000Y-126540000D01*
X110270000Y-129140000D02*
X107610000Y-129140000D01*
X110270000Y-130410000D02*
X110270000Y-131740000D01*
X110270000Y-131740000D02*
X108940000Y-131740000D01*
X128790000Y-131560000D02*
X131450000Y-131560000D01*
X128790000Y-128960000D02*
X128790000Y-131560000D01*
X131450000Y-128960000D02*
X131450000Y-131560000D01*
X128790000Y-128960000D02*
X131450000Y-128960000D01*
X128790000Y-127690000D02*
X128790000Y-126360000D01*
X128790000Y-126360000D02*
X130120000Y-126360000D01*
X103160000Y-131700000D02*
X105820000Y-131700000D01*
X103160000Y-129100000D02*
X103160000Y-131700000D01*
X105820000Y-129100000D02*
X105820000Y-131700000D01*
X103160000Y-129100000D02*
X105820000Y-129100000D01*
X103160000Y-127830000D02*
X103160000Y-126500000D01*
X103160000Y-126500000D02*
X104490000Y-126500000D01*
X132530000Y-131580000D02*
X135190000Y-131580000D01*
X132530000Y-128980000D02*
X132530000Y-131580000D01*
X135190000Y-128980000D02*
X135190000Y-131580000D01*
X132530000Y-128980000D02*
X135190000Y-128980000D01*
X132530000Y-127710000D02*
X132530000Y-126380000D01*
X132530000Y-126380000D02*
X133860000Y-126380000D01*
X103060000Y-160190000D02*
X108260000Y-160190000D01*
X103060000Y-142350000D02*
X103060000Y-160190000D01*
X108260000Y-139750000D02*
X108260000Y-160190000D01*
X103060000Y-142350000D02*
X105660000Y-142350000D01*
X105660000Y-142350000D02*
X105660000Y-139750000D01*
X105660000Y-139750000D02*
X108260000Y-139750000D01*
X103060000Y-141080000D02*
X103060000Y-139750000D01*
X103060000Y-139750000D02*
X104390000Y-139750000D01*
X139270000Y-153450000D02*
X141930000Y-153450000D01*
X139270000Y-153390000D02*
X139270000Y-153450000D01*
X141930000Y-153390000D02*
X141930000Y-153450000D01*
X139270000Y-153390000D02*
X141930000Y-153390000D01*
X139270000Y-152120000D02*
X139270000Y-150790000D01*
X139270000Y-150790000D02*
X140600000Y-150790000D01*
X136520000Y-152220000D02*
X139180000Y-152220000D01*
X136520000Y-152160000D02*
X136520000Y-152220000D01*
X139180000Y-152160000D02*
X139180000Y-152220000D01*
X136520000Y-152160000D02*
X139180000Y-152160000D01*
X136520000Y-150890000D02*
X136520000Y-149560000D01*
X136520000Y-149560000D02*
X137850000Y-149560000D01*
X139350000Y-131600000D02*
X142010000Y-131600000D01*
X139350000Y-129000000D02*
X139350000Y-131600000D01*
X142010000Y-129000000D02*
X142010000Y-131600000D01*
X139350000Y-129000000D02*
X142010000Y-129000000D01*
X139350000Y-127730000D02*
X139350000Y-126400000D01*
X139350000Y-126400000D02*
X140680000Y-126400000D01*
X117495000Y-107385000D02*
X114835000Y-107385000D01*
X117495000Y-109985000D02*
X117495000Y-107385000D01*
X114835000Y-109985000D02*
X114835000Y-107385000D01*
X117495000Y-109985000D02*
X114835000Y-109985000D01*
X117495000Y-111255000D02*
X117495000Y-112585000D01*
X117495000Y-112585000D02*
X116165000Y-112585000D01*
X137290000Y-141900000D02*
X137290000Y-139240000D01*
X134690000Y-141900000D02*
X137290000Y-141900000D01*
X134690000Y-139240000D02*
X137290000Y-139240000D01*
X134690000Y-141900000D02*
X134690000Y-139240000D01*
X133420000Y-141900000D02*
X132090000Y-141900000D01*
X132090000Y-141900000D02*
X132090000Y-140570000D01*
X133050000Y-159920000D02*
X132550000Y-159920000D01*
X132550000Y-160980000D02*
X133050000Y-160980000D01*
X127100000Y-155020000D02*
X128100000Y-155020000D01*
X128100000Y-156380000D02*
X127100000Y-156380000D01*
X131375000Y-154870000D02*
X132375000Y-154870000D01*
X132375000Y-156230000D02*
X131375000Y-156230000D01*
X131480000Y-160050000D02*
X131480000Y-159550000D01*
X130420000Y-159550000D02*
X130420000Y-160050000D01*
X112092500Y-143392500D02*
X112092500Y-143892500D01*
X113152500Y-143892500D02*
X113152500Y-143392500D01*
X116192500Y-144442500D02*
X116192500Y-144942500D01*
X117252500Y-144942500D02*
X117252500Y-144442500D01*
X122540000Y-143950000D02*
X122540000Y-143450000D01*
X121480000Y-143450000D02*
X121480000Y-143950000D01*
X123890000Y-143950000D02*
X123890000Y-143450000D01*
X122830000Y-143450000D02*
X122830000Y-143950000D01*
X118015000Y-111285000D02*
X118515000Y-111285000D01*
X118515000Y-110225000D02*
X118015000Y-110225000D01*
X126315000Y-110125000D02*
X125815000Y-110125000D01*
X125815000Y-111185000D02*
X126315000Y-111185000D01*
X115200000Y-159380000D02*
X115400000Y-159380000D01*
X112400000Y-163520000D02*
X112600000Y-163730000D01*
X113700000Y-163520000D02*
X113500000Y-163730000D01*
X112400000Y-162230000D02*
X112400000Y-163520000D01*
X112600000Y-163730000D02*
X113500000Y-163730000D01*
X113700000Y-163520000D02*
X113700000Y-162230000D01*
X110950000Y-162230000D02*
X116650000Y-162230000D01*
X112200000Y-159380000D02*
X113900000Y-159380000D01*
X110350000Y-160430000D02*
X110350000Y-161220000D01*
X117250000Y-161220000D02*
X117250000Y-160430000D01*
X115840000Y-129095000D02*
X115840000Y-135025000D01*
X115840000Y-135025000D02*
X111620000Y-135025000D01*
X111620000Y-135025000D02*
X111620000Y-129095000D01*
X111620000Y-129095000D02*
X112460000Y-129095000D01*
X114365000Y-130250000D02*
X113095000Y-130250000D01*
X113095000Y-130250000D02*
X113095000Y-133870000D01*
X113095000Y-133870000D02*
X114365000Y-133870000D01*
X114365000Y-133870000D02*
X114365000Y-130250000D01*
X114365000Y-132060000D02*
X113095000Y-132060000D01*
D16*
X113048100Y-144757900D02*
X113048100Y-145062700D01*
X113048100Y-145062700D02*
X113048100Y-145672300D01*
X113048100Y-145672300D02*
X113048100Y-145977100D01*
D10*
X113048100Y-145062700D02*
G75*
G02X113048100Y-145672300I0J-304800D01*
G01*
D13*
X121810000Y-142600000D02*
G75*
G03X121810000Y-142600000I-100000J0D01*
G01*
D14*
X121330000Y-142060000D02*
X121970000Y-142060000D01*
X121330000Y-138340000D02*
X121970000Y-138340000D01*
X124490000Y-142060000D02*
X123850000Y-142060000D01*
X124490000Y-138340000D02*
X123850000Y-138340000D01*
D17*
X119687440Y-149101910D02*
X119687440Y-149912130D01*
X119735100Y-150007450D01*
X119782760Y-150055110D01*
X119878080Y-150102770D01*
X120068720Y-150102770D01*
X120164040Y-150055110D01*
X120211700Y-150007450D01*
X120259360Y-149912130D01*
X120259360Y-149101910D01*
X121164900Y-149435530D02*
X121164900Y-150102770D01*
X120926600Y-149054250D02*
X120688300Y-149769150D01*
X121307880Y-149769150D01*
X78448846Y-162507336D02*
X78401201Y-162554980D01*
X78258267Y-162602625D01*
X78162977Y-162602625D01*
X78020043Y-162554980D01*
X77924754Y-162459691D01*
X77877109Y-162364401D01*
X77829464Y-162173822D01*
X77829464Y-162030888D01*
X77877109Y-161840309D01*
X77924754Y-161745020D01*
X78020043Y-161649730D01*
X78162977Y-161602085D01*
X78258267Y-161602085D01*
X78401201Y-161649730D01*
X78448846Y-161697375D01*
X79068228Y-162126178D02*
X79068228Y-162602625D01*
X78734715Y-161602085D02*
X79068228Y-162126178D01*
X79401741Y-161602085D01*
X79639965Y-161602085D02*
X79878189Y-162602625D01*
X80068768Y-161887954D01*
X80259347Y-162602625D01*
X80497571Y-161602085D01*
X80831084Y-161697375D02*
X80878729Y-161649730D01*
X80974018Y-161602085D01*
X81212242Y-161602085D01*
X81307532Y-161649730D01*
X81355176Y-161697375D01*
X81402821Y-161792664D01*
X81402821Y-161887954D01*
X81355176Y-162030888D01*
X80783439Y-162602625D01*
X81402821Y-162602625D01*
X82022203Y-161602085D02*
X82117492Y-161602085D01*
X82212782Y-161649730D01*
X82260427Y-161697375D01*
X82308071Y-161792664D01*
X82355716Y-161983243D01*
X82355716Y-162221467D01*
X82308071Y-162412046D01*
X82260427Y-162507336D01*
X82212782Y-162554980D01*
X82117492Y-162602625D01*
X82022203Y-162602625D01*
X81926913Y-162554980D01*
X81879269Y-162507336D01*
X81831624Y-162412046D01*
X81783979Y-162221467D01*
X81783979Y-161983243D01*
X81831624Y-161792664D01*
X81879269Y-161697375D01*
X81926913Y-161649730D01*
X82022203Y-161602085D01*
X82689229Y-161602085D02*
X83356256Y-161602085D01*
X82927453Y-162602625D01*
X84261506Y-162602625D02*
X83689769Y-162602625D01*
X83975638Y-162602625D02*
X83975638Y-161602085D01*
X83880348Y-161745020D01*
X83785059Y-161840309D01*
X83689769Y-161887954D01*
X84737954Y-162602625D02*
X84928533Y-162602625D01*
X85023822Y-162554980D01*
X85071467Y-162507336D01*
X85166756Y-162364401D01*
X85214401Y-162173822D01*
X85214401Y-161792664D01*
X85166756Y-161697375D01*
X85119112Y-161649730D01*
X85023822Y-161602085D01*
X84833243Y-161602085D01*
X84737954Y-161649730D01*
X84690309Y-161697375D01*
X84642664Y-161792664D01*
X84642664Y-162030888D01*
X84690309Y-162126178D01*
X84737954Y-162173822D01*
X84833243Y-162221467D01*
X85023822Y-162221467D01*
X85119112Y-162173822D01*
X85166756Y-162126178D01*
X85214401Y-162030888D01*
X85976717Y-162078533D02*
X86119651Y-162126178D01*
X86167296Y-162173822D01*
X86214941Y-162269112D01*
X86214941Y-162412046D01*
X86167296Y-162507336D01*
X86119651Y-162554980D01*
X86024362Y-162602625D01*
X85643204Y-162602625D01*
X85643204Y-161602085D01*
X85976717Y-161602085D01*
X86072007Y-161649730D01*
X86119651Y-161697375D01*
X86167296Y-161792664D01*
X86167296Y-161887954D01*
X86119651Y-161983243D01*
X86072007Y-162030888D01*
X85976717Y-162078533D01*
X85643204Y-162078533D01*
X87167836Y-162602625D02*
X86596099Y-162602625D01*
X86881968Y-162602625D02*
X86881968Y-161602085D01*
X86786678Y-161745020D01*
X86691389Y-161840309D01*
X86596099Y-161887954D01*
X87596639Y-162602625D02*
X87596639Y-161602085D01*
X88168376Y-162602625D02*
X87739573Y-162030888D01*
X88168376Y-161602085D02*
X87596639Y-162173822D01*
X88597179Y-161602085D02*
X88597179Y-162412046D01*
X88644824Y-162507336D01*
X88692468Y-162554980D01*
X88787758Y-162602625D01*
X88978337Y-162602625D01*
X89073626Y-162554980D01*
X89121271Y-162507336D01*
X89168916Y-162412046D01*
X89168916Y-161602085D01*
X89645364Y-162602625D02*
X89645364Y-161602085D01*
X89978877Y-162316757D01*
X90312390Y-161602085D01*
X90312390Y-162602625D01*
X91265285Y-162602625D02*
X90788838Y-162602625D01*
X90788838Y-161602085D01*
X92122891Y-161649730D02*
X92027602Y-161602085D01*
X91884667Y-161602085D01*
X91741733Y-161649730D01*
X91646444Y-161745020D01*
X91598799Y-161840309D01*
X91551154Y-162030888D01*
X91551154Y-162173822D01*
X91598799Y-162364401D01*
X91646444Y-162459691D01*
X91741733Y-162554980D01*
X91884667Y-162602625D01*
X91979957Y-162602625D01*
X92122891Y-162554980D01*
X92170536Y-162507336D01*
X92170536Y-162173822D01*
X91979957Y-162173822D01*
D11*
X122331667Y-112347381D02*
X122331667Y-113061667D01*
X122284047Y-113204524D01*
X122188809Y-113299762D01*
X122045952Y-113347381D01*
X121950714Y-113347381D01*
X122712619Y-112347381D02*
X123331667Y-112347381D01*
X122998333Y-112728333D01*
X123141191Y-112728333D01*
X123236429Y-112775952D01*
X123284048Y-112823571D01*
X123331667Y-112918810D01*
X123331667Y-113156905D01*
X123284048Y-113252143D01*
X123236429Y-113299762D01*
X123141191Y-113347381D01*
X122855476Y-113347381D01*
X122760238Y-113299762D01*
X122712619Y-113252143D01*
X128355477Y-113037381D02*
X128355477Y-113751667D01*
X128307857Y-113894524D01*
X128212619Y-113989762D01*
X128069762Y-114037381D01*
X127974524Y-114037381D01*
X129355477Y-114037381D02*
X128784048Y-114037381D01*
X129069762Y-114037381D02*
X129069762Y-113037381D01*
X128974524Y-113180238D01*
X128879286Y-113275476D01*
X128784048Y-113323095D01*
X130212620Y-113037381D02*
X130022143Y-113037381D01*
X129926905Y-113085000D01*
X129879286Y-113132619D01*
X129784048Y-113275476D01*
X129736429Y-113465952D01*
X129736429Y-113846905D01*
X129784048Y-113942143D01*
X129831667Y-113989762D01*
X129926905Y-114037381D01*
X130117382Y-114037381D01*
X130212620Y-113989762D01*
X130260239Y-113942143D01*
X130307858Y-113846905D01*
X130307858Y-113608810D01*
X130260239Y-113513571D01*
X130212620Y-113465952D01*
X130117382Y-113418333D01*
X129926905Y-113418333D01*
X129831667Y-113465952D01*
X129784048Y-113513571D01*
X129736429Y-113608810D01*
X133423809Y-135776190D02*
X133423809Y-136252381D01*
X133090476Y-135252381D02*
X133423809Y-135776190D01*
X133757143Y-135252381D01*
X134042857Y-135347619D02*
X134090476Y-135300000D01*
X134185714Y-135252381D01*
X134423810Y-135252381D01*
X134519048Y-135300000D01*
X134566667Y-135347619D01*
X134614286Y-135442857D01*
X134614286Y-135538095D01*
X134566667Y-135680952D01*
X133995238Y-136252381D01*
X134614286Y-136252381D01*
X122341667Y-135462381D02*
X122341667Y-136176667D01*
X122294047Y-136319524D01*
X122198809Y-136414762D01*
X122055952Y-136462381D01*
X121960714Y-136462381D01*
X123341667Y-136462381D02*
X122770238Y-136462381D01*
X123055952Y-136462381D02*
X123055952Y-135462381D01*
X122960714Y-135605238D01*
X122865476Y-135700476D01*
X122770238Y-135748095D01*
D17*
X120382889Y-111438313D02*
X120642355Y-111438313D01*
X120672880Y-111423050D01*
X120688143Y-111407787D01*
X120703405Y-111377262D01*
X120703405Y-111316211D01*
X120688143Y-111285686D01*
X120672880Y-111270423D01*
X120642355Y-111255161D01*
X120382889Y-111255161D01*
X120382889Y-110949907D02*
X120382889Y-111102534D01*
X120535516Y-111117796D01*
X120520253Y-111102534D01*
X120504991Y-111072008D01*
X120504991Y-110995695D01*
X120520253Y-110965170D01*
X120535516Y-110949907D01*
X120566041Y-110934644D01*
X120642355Y-110934644D01*
X120672880Y-110949907D01*
X120688143Y-110965170D01*
X120703405Y-110995695D01*
X120703405Y-111072008D01*
X120688143Y-111102534D01*
X120672880Y-111117796D01*
X124808278Y-112125934D02*
X124808278Y-112278437D01*
X124488022Y-112278437D01*
X124793027Y-112034432D02*
X124808278Y-111988681D01*
X124808278Y-111912430D01*
X124793027Y-111881929D01*
X124777777Y-111866679D01*
X124747277Y-111851428D01*
X124716776Y-111851428D01*
X124686275Y-111866679D01*
X124671025Y-111881929D01*
X124655775Y-111912430D01*
X124640525Y-111973431D01*
X124625274Y-112003931D01*
X124610024Y-112019182D01*
X124579523Y-112034432D01*
X124549023Y-112034432D01*
X124518522Y-112019182D01*
X124503272Y-112003931D01*
X124488022Y-111973431D01*
X124488022Y-111897179D01*
X124503272Y-111851428D01*
X124808278Y-111714176D02*
X124488022Y-111714176D01*
X124716776Y-111607424D01*
X124488022Y-111500672D01*
X124808278Y-111500672D01*
X124808278Y-111332918D02*
X124808278Y-111271917D01*
X124793027Y-111241417D01*
X124777777Y-111226166D01*
X124732026Y-111195666D01*
X124671025Y-111180415D01*
X124549023Y-111180415D01*
X124518522Y-111195666D01*
X124503272Y-111210916D01*
X124488022Y-111241417D01*
X124488022Y-111302418D01*
X124503272Y-111332918D01*
X124518522Y-111348169D01*
X124549023Y-111363419D01*
X124625274Y-111363419D01*
X124655775Y-111348169D01*
X124671025Y-111332918D01*
X124686275Y-111302418D01*
X124686275Y-111241417D01*
X124671025Y-111210916D01*
X124655775Y-111195666D01*
X124625274Y-111180415D01*
X124808278Y-111043163D02*
X124488022Y-111043163D01*
X124488022Y-110966911D01*
X124503272Y-110921160D01*
X124533773Y-110890660D01*
X124564273Y-110875409D01*
X124625274Y-110860159D01*
X124671025Y-110860159D01*
X124732026Y-110875409D01*
X124762527Y-110890660D01*
X124793027Y-110921160D01*
X124808278Y-110966911D01*
X124808278Y-111043163D01*
X124793027Y-110738157D02*
X124808278Y-110692406D01*
X124808278Y-110616155D01*
X124793027Y-110585654D01*
X124777777Y-110570404D01*
X124747277Y-110555153D01*
X124716776Y-110555153D01*
X124686275Y-110570404D01*
X124671025Y-110585654D01*
X124655775Y-110616155D01*
X124640525Y-110677156D01*
X124625274Y-110707656D01*
X124610024Y-110722907D01*
X124579523Y-110738157D01*
X124549023Y-110738157D01*
X124518522Y-110722907D01*
X124503272Y-110707656D01*
X124488022Y-110677156D01*
X124488022Y-110600904D01*
X124503272Y-110555153D01*
X124808278Y-110250147D02*
X124808278Y-110433151D01*
X124808278Y-110341649D02*
X124488022Y-110341649D01*
X124533773Y-110372150D01*
X124564273Y-110402650D01*
X124579523Y-110433151D01*
X124488022Y-110158645D02*
X124488022Y-109975642D01*
X124808278Y-110067144D02*
X124488022Y-110067144D01*
X124808278Y-109685886D02*
X124655775Y-109792638D01*
X124808278Y-109868890D02*
X124488022Y-109868890D01*
X124488022Y-109746887D01*
X124503272Y-109716387D01*
X124518522Y-109701136D01*
X124549023Y-109685886D01*
X124594774Y-109685886D01*
X124625274Y-109701136D01*
X124640525Y-109716387D01*
X124655775Y-109746887D01*
X124655775Y-109868890D01*
X129369876Y-170179303D02*
X129846457Y-170179303D01*
X129274560Y-170465252D02*
X129608167Y-169464432D01*
X129941774Y-170465252D01*
X130275380Y-169941013D02*
X130608987Y-169941013D01*
X130751961Y-170465252D02*
X130275380Y-170465252D01*
X130275380Y-169464432D01*
X130751961Y-169464432D01*
X131705124Y-170465252D02*
X131133226Y-170465252D01*
X131419175Y-170465252D02*
X131419175Y-169464432D01*
X131323859Y-169607406D01*
X131228543Y-169702722D01*
X131133226Y-169750380D01*
X136866071Y-169260119D02*
X136908928Y-169212500D01*
X136994642Y-169164881D01*
X137208928Y-169164881D01*
X137294642Y-169212500D01*
X137337499Y-169260119D01*
X137380356Y-169355357D01*
X137380356Y-169450595D01*
X137337499Y-169593452D01*
X136823213Y-170164881D01*
X137380356Y-170164881D01*
X138151785Y-169498214D02*
X138151785Y-170164881D01*
X137937499Y-169117262D02*
X137723214Y-169831548D01*
X138280356Y-169831548D01*
X139051785Y-169164881D02*
X138623214Y-169164881D01*
X138580357Y-169641071D01*
X138623214Y-169593452D01*
X138708928Y-169545833D01*
X138923214Y-169545833D01*
X139008928Y-169593452D01*
X139051785Y-169641071D01*
X139094642Y-169736310D01*
X139094642Y-169974405D01*
X139051785Y-170069643D01*
X139008928Y-170117262D01*
X138923214Y-170164881D01*
X138708928Y-170164881D01*
X138623214Y-170117262D01*
X138580357Y-170069643D01*
X139651785Y-169164881D02*
X139737500Y-169164881D01*
X139823214Y-169212500D01*
X139866071Y-169260119D01*
X139908928Y-169355357D01*
X139951785Y-169545833D01*
X139951785Y-169783929D01*
X139908928Y-169974405D01*
X139866071Y-170069643D01*
X139823214Y-170117262D01*
X139737500Y-170164881D01*
X139651785Y-170164881D01*
X139566071Y-170117262D01*
X139523214Y-170069643D01*
X139480357Y-169974405D01*
X139437500Y-169783929D01*
X139437500Y-169545833D01*
X139480357Y-169355357D01*
X139523214Y-169260119D01*
X139566071Y-169212500D01*
X139651785Y-169164881D01*
X140294643Y-169879167D02*
X140723214Y-169879167D01*
X140208928Y-170164881D02*
X140508928Y-169164881D01*
X140808928Y-170164881D01*
X140980357Y-169164881D02*
X141494643Y-169164881D01*
X141237500Y-170164881D02*
X141237500Y-169164881D01*
X142180357Y-169498214D02*
X142180357Y-170164881D01*
X141966071Y-169117262D02*
X141751786Y-169831548D01*
X142308928Y-169831548D01*
X142608929Y-169260119D02*
X142651786Y-169212500D01*
X142737500Y-169164881D01*
X142951786Y-169164881D01*
X143037500Y-169212500D01*
X143080357Y-169260119D01*
X143123214Y-169355357D01*
X143123214Y-169450595D01*
X143080357Y-169593452D01*
X142566071Y-170164881D01*
X143123214Y-170164881D01*
X143808929Y-169641071D02*
X143937500Y-169688690D01*
X143980357Y-169736310D01*
X144023214Y-169831548D01*
X144023214Y-169974405D01*
X143980357Y-170069643D01*
X143937500Y-170117262D01*
X143851786Y-170164881D01*
X143508929Y-170164881D01*
X143508929Y-169164881D01*
X143808929Y-169164881D01*
X143894643Y-169212500D01*
X143937500Y-169260119D01*
X143980357Y-169355357D01*
X143980357Y-169450595D01*
X143937500Y-169545833D01*
X143894643Y-169593452D01*
X143808929Y-169641071D01*
X143508929Y-169641071D01*
X144880357Y-170164881D02*
X144366072Y-170164881D01*
X144623214Y-170164881D02*
X144623214Y-169164881D01*
X144537500Y-169307738D01*
X144451786Y-169402976D01*
X144366072Y-169450595D01*
X145437500Y-169164881D02*
X145523215Y-169164881D01*
X145608929Y-169212500D01*
X145651786Y-169260119D01*
X145694643Y-169355357D01*
X145737500Y-169545833D01*
X145737500Y-169783929D01*
X145694643Y-169974405D01*
X145651786Y-170069643D01*
X145608929Y-170117262D01*
X145523215Y-170164881D01*
X145437500Y-170164881D01*
X145351786Y-170117262D01*
X145308929Y-170069643D01*
X145266072Y-169974405D01*
X145223215Y-169783929D01*
X145223215Y-169545833D01*
X145266072Y-169355357D01*
X145308929Y-169260119D01*
X145351786Y-169212500D01*
X145437500Y-169164881D01*
X146294643Y-169164881D02*
X146380358Y-169164881D01*
X146466072Y-169212500D01*
X146508929Y-169260119D01*
X146551786Y-169355357D01*
X146594643Y-169545833D01*
X146594643Y-169783929D01*
X146551786Y-169974405D01*
X146508929Y-170069643D01*
X146466072Y-170117262D01*
X146380358Y-170164881D01*
X146294643Y-170164881D01*
X146208929Y-170117262D01*
X146166072Y-170069643D01*
X146123215Y-169974405D01*
X146080358Y-169783929D01*
X146080358Y-169545833D01*
X146123215Y-169355357D01*
X146166072Y-169260119D01*
X146208929Y-169212500D01*
X146294643Y-169164881D01*
X146980358Y-169641071D02*
X147280358Y-169641071D01*
X147408929Y-170164881D02*
X146980358Y-170164881D01*
X146980358Y-169164881D01*
X147408929Y-169164881D01*
D11*
X115784643Y-142959166D02*
X115832262Y-143006785D01*
X115879881Y-143149642D01*
X115879881Y-143244880D01*
X115832262Y-143387738D01*
X115737024Y-143482976D01*
X115641786Y-143530595D01*
X115451310Y-143578214D01*
X115308452Y-143578214D01*
X115117976Y-143530595D01*
X115022738Y-143482976D01*
X114927500Y-143387738D01*
X114879881Y-143244880D01*
X114879881Y-143149642D01*
X114927500Y-143006785D01*
X114975119Y-142959166D01*
X115879881Y-142006785D02*
X115879881Y-142578214D01*
X115879881Y-142292500D02*
X114879881Y-142292500D01*
X115022738Y-142387738D01*
X115117976Y-142482976D01*
X115165595Y-142578214D01*
X118099643Y-147009166D02*
X118147262Y-147056785D01*
X118194881Y-147199642D01*
X118194881Y-147294880D01*
X118147262Y-147437738D01*
X118052024Y-147532976D01*
X117956786Y-147580595D01*
X117766310Y-147628214D01*
X117623452Y-147628214D01*
X117432976Y-147580595D01*
X117337738Y-147532976D01*
X117242500Y-147437738D01*
X117194881Y-147294880D01*
X117194881Y-147199642D01*
X117242500Y-147056785D01*
X117290119Y-147009166D01*
X117290119Y-146628214D02*
X117242500Y-146580595D01*
X117194881Y-146485357D01*
X117194881Y-146247261D01*
X117242500Y-146152023D01*
X117290119Y-146104404D01*
X117385357Y-146056785D01*
X117480595Y-146056785D01*
X117623452Y-146104404D01*
X118194881Y-146675833D01*
X118194881Y-146056785D01*
X117307143Y-139466666D02*
X117354762Y-139514285D01*
X117402381Y-139657142D01*
X117402381Y-139752380D01*
X117354762Y-139895238D01*
X117259524Y-139990476D01*
X117164286Y-140038095D01*
X116973810Y-140085714D01*
X116830952Y-140085714D01*
X116640476Y-140038095D01*
X116545238Y-139990476D01*
X116450000Y-139895238D01*
X116402381Y-139752380D01*
X116402381Y-139657142D01*
X116450000Y-139514285D01*
X116497619Y-139466666D01*
X116402381Y-138561904D02*
X116402381Y-139038095D01*
X116878571Y-139085714D01*
X116830952Y-139038095D01*
X116783333Y-138942857D01*
X116783333Y-138704761D01*
X116830952Y-138609523D01*
X116878571Y-138561904D01*
X116973810Y-138514285D01*
X117211905Y-138514285D01*
X117307143Y-138561904D01*
X117354762Y-138609523D01*
X117402381Y-138704761D01*
X117402381Y-138942857D01*
X117354762Y-139038095D01*
X117307143Y-139085714D01*
X127057143Y-139366666D02*
X127104762Y-139414285D01*
X127152381Y-139557142D01*
X127152381Y-139652380D01*
X127104762Y-139795238D01*
X127009524Y-139890476D01*
X126914286Y-139938095D01*
X126723810Y-139985714D01*
X126580952Y-139985714D01*
X126390476Y-139938095D01*
X126295238Y-139890476D01*
X126200000Y-139795238D01*
X126152381Y-139652380D01*
X126152381Y-139557142D01*
X126200000Y-139414285D01*
X126247619Y-139366666D01*
X126152381Y-138509523D02*
X126152381Y-138700000D01*
X126200000Y-138795238D01*
X126247619Y-138842857D01*
X126390476Y-138938095D01*
X126580952Y-138985714D01*
X126961905Y-138985714D01*
X127057143Y-138938095D01*
X127104762Y-138890476D01*
X127152381Y-138795238D01*
X127152381Y-138604761D01*
X127104762Y-138509523D01*
X127057143Y-138461904D01*
X126961905Y-138414285D01*
X126723810Y-138414285D01*
X126628571Y-138461904D01*
X126580952Y-138509523D01*
X126533333Y-138604761D01*
X126533333Y-138795238D01*
X126580952Y-138890476D01*
X126628571Y-138938095D01*
X126723810Y-138985714D01*
X117983334Y-141657143D02*
X117935715Y-141704762D01*
X117792858Y-141752381D01*
X117697620Y-141752381D01*
X117554762Y-141704762D01*
X117459524Y-141609524D01*
X117411905Y-141514286D01*
X117364286Y-141323810D01*
X117364286Y-141180952D01*
X117411905Y-140990476D01*
X117459524Y-140895238D01*
X117554762Y-140800000D01*
X117697620Y-140752381D01*
X117792858Y-140752381D01*
X117935715Y-140800000D01*
X117983334Y-140847619D01*
X118316667Y-140752381D02*
X118983334Y-140752381D01*
X118554762Y-141752381D01*
X118757143Y-139892857D02*
X118804762Y-139940476D01*
X118852381Y-140083333D01*
X118852381Y-140178571D01*
X118804762Y-140321429D01*
X118709524Y-140416667D01*
X118614286Y-140464286D01*
X118423810Y-140511905D01*
X118280952Y-140511905D01*
X118090476Y-140464286D01*
X117995238Y-140416667D01*
X117900000Y-140321429D01*
X117852381Y-140178571D01*
X117852381Y-140083333D01*
X117900000Y-139940476D01*
X117947619Y-139892857D01*
X118852381Y-138940476D02*
X118852381Y-139511905D01*
X118852381Y-139226191D02*
X117852381Y-139226191D01*
X117995238Y-139321429D01*
X118090476Y-139416667D01*
X118138095Y-139511905D01*
X117852381Y-138321429D02*
X117852381Y-138226190D01*
X117900000Y-138130952D01*
X117947619Y-138083333D01*
X118042857Y-138035714D01*
X118233333Y-137988095D01*
X118471429Y-137988095D01*
X118661905Y-138035714D01*
X118757143Y-138083333D01*
X118804762Y-138130952D01*
X118852381Y-138226190D01*
X118852381Y-138321429D01*
X118804762Y-138416667D01*
X118757143Y-138464286D01*
X118661905Y-138511905D01*
X118471429Y-138559524D01*
X118233333Y-138559524D01*
X118042857Y-138511905D01*
X117947619Y-138464286D01*
X117900000Y-138416667D01*
X117852381Y-138321429D01*
X119357143Y-144307143D02*
X119309524Y-144354762D01*
X119166667Y-144402381D01*
X119071429Y-144402381D01*
X118928571Y-144354762D01*
X118833333Y-144259524D01*
X118785714Y-144164286D01*
X118738095Y-143973810D01*
X118738095Y-143830952D01*
X118785714Y-143640476D01*
X118833333Y-143545238D01*
X118928571Y-143450000D01*
X119071429Y-143402381D01*
X119166667Y-143402381D01*
X119309524Y-143450000D01*
X119357143Y-143497619D01*
X120309524Y-144402381D02*
X119738095Y-144402381D01*
X120023809Y-144402381D02*
X120023809Y-143402381D01*
X119928571Y-143545238D01*
X119833333Y-143640476D01*
X119738095Y-143688095D01*
X121261905Y-144402381D02*
X120690476Y-144402381D01*
X120976190Y-144402381D02*
X120976190Y-143402381D01*
X120880952Y-143545238D01*
X120785714Y-143640476D01*
X120690476Y-143688095D01*
X125522143Y-111842143D02*
X125474524Y-111889762D01*
X125331667Y-111937381D01*
X125236429Y-111937381D01*
X125093571Y-111889762D01*
X124998333Y-111794524D01*
X124950714Y-111699286D01*
X124903095Y-111508810D01*
X124903095Y-111365952D01*
X124950714Y-111175476D01*
X124998333Y-111080238D01*
X125093571Y-110985000D01*
X125236429Y-110937381D01*
X125331667Y-110937381D01*
X125474524Y-110985000D01*
X125522143Y-111032619D01*
X126474524Y-111937381D02*
X125903095Y-111937381D01*
X126188809Y-111937381D02*
X126188809Y-110937381D01*
X126093571Y-111080238D01*
X125998333Y-111175476D01*
X125903095Y-111223095D01*
X126855476Y-111032619D02*
X126903095Y-110985000D01*
X126998333Y-110937381D01*
X127236429Y-110937381D01*
X127331667Y-110985000D01*
X127379286Y-111032619D01*
X127426905Y-111127857D01*
X127426905Y-111223095D01*
X127379286Y-111365952D01*
X126807857Y-111937381D01*
X127426905Y-111937381D01*
X118207143Y-156892857D02*
X118254762Y-156940476D01*
X118302381Y-157083333D01*
X118302381Y-157178571D01*
X118254762Y-157321429D01*
X118159524Y-157416667D01*
X118064286Y-157464286D01*
X117873810Y-157511905D01*
X117730952Y-157511905D01*
X117540476Y-157464286D01*
X117445238Y-157416667D01*
X117350000Y-157321429D01*
X117302381Y-157178571D01*
X117302381Y-157083333D01*
X117350000Y-156940476D01*
X117397619Y-156892857D01*
X118302381Y-155940476D02*
X118302381Y-156511905D01*
X118302381Y-156226191D02*
X117302381Y-156226191D01*
X117445238Y-156321429D01*
X117540476Y-156416667D01*
X117588095Y-156511905D01*
X117302381Y-155607143D02*
X117302381Y-154988095D01*
X117683333Y-155321429D01*
X117683333Y-155178571D01*
X117730952Y-155083333D01*
X117778571Y-155035714D01*
X117873810Y-154988095D01*
X118111905Y-154988095D01*
X118207143Y-155035714D01*
X118254762Y-155083333D01*
X118302381Y-155178571D01*
X118302381Y-155464286D01*
X118254762Y-155559524D01*
X118207143Y-155607143D01*
X122797143Y-149267143D02*
X122749524Y-149314762D01*
X122606667Y-149362381D01*
X122511429Y-149362381D01*
X122368571Y-149314762D01*
X122273333Y-149219524D01*
X122225714Y-149124286D01*
X122178095Y-148933810D01*
X122178095Y-148790952D01*
X122225714Y-148600476D01*
X122273333Y-148505238D01*
X122368571Y-148410000D01*
X122511429Y-148362381D01*
X122606667Y-148362381D01*
X122749524Y-148410000D01*
X122797143Y-148457619D01*
X123749524Y-149362381D02*
X123178095Y-149362381D01*
X123463809Y-149362381D02*
X123463809Y-148362381D01*
X123368571Y-148505238D01*
X123273333Y-148600476D01*
X123178095Y-148648095D01*
X124606667Y-148695714D02*
X124606667Y-149362381D01*
X124368571Y-148314762D02*
X124130476Y-149029048D01*
X124749524Y-149029048D01*
X118522143Y-114382143D02*
X118474524Y-114429762D01*
X118331667Y-114477381D01*
X118236429Y-114477381D01*
X118093571Y-114429762D01*
X117998333Y-114334524D01*
X117950714Y-114239286D01*
X117903095Y-114048810D01*
X117903095Y-113905952D01*
X117950714Y-113715476D01*
X117998333Y-113620238D01*
X118093571Y-113525000D01*
X118236429Y-113477381D01*
X118331667Y-113477381D01*
X118474524Y-113525000D01*
X118522143Y-113572619D01*
X119474524Y-114477381D02*
X118903095Y-114477381D01*
X119188809Y-114477381D02*
X119188809Y-113477381D01*
X119093571Y-113620238D01*
X118998333Y-113715476D01*
X118903095Y-113763095D01*
X120379286Y-113477381D02*
X119903095Y-113477381D01*
X119855476Y-113953571D01*
X119903095Y-113905952D01*
X119998333Y-113858333D01*
X120236429Y-113858333D01*
X120331667Y-113905952D01*
X120379286Y-113953571D01*
X120426905Y-114048810D01*
X120426905Y-114286905D01*
X120379286Y-114382143D01*
X120331667Y-114429762D01*
X120236429Y-114477381D01*
X119998333Y-114477381D01*
X119903095Y-114429762D01*
X119855476Y-114382143D01*
X125522143Y-110842143D02*
X125474524Y-110889762D01*
X125331667Y-110937381D01*
X125236429Y-110937381D01*
X125093571Y-110889762D01*
X124998333Y-110794524D01*
X124950714Y-110699286D01*
X124903095Y-110508810D01*
X124903095Y-110365952D01*
X124950714Y-110175476D01*
X124998333Y-110080238D01*
X125093571Y-109985000D01*
X125236429Y-109937381D01*
X125331667Y-109937381D01*
X125474524Y-109985000D01*
X125522143Y-110032619D01*
X126474524Y-110937381D02*
X125903095Y-110937381D01*
X126188809Y-110937381D02*
X126188809Y-109937381D01*
X126093571Y-110080238D01*
X125998333Y-110175476D01*
X125903095Y-110223095D01*
X127331667Y-109937381D02*
X127141190Y-109937381D01*
X127045952Y-109985000D01*
X126998333Y-110032619D01*
X126903095Y-110175476D01*
X126855476Y-110365952D01*
X126855476Y-110746905D01*
X126903095Y-110842143D01*
X126950714Y-110889762D01*
X127045952Y-110937381D01*
X127236429Y-110937381D01*
X127331667Y-110889762D01*
X127379286Y-110842143D01*
X127426905Y-110746905D01*
X127426905Y-110508810D01*
X127379286Y-110413571D01*
X127331667Y-110365952D01*
X127236429Y-110318333D01*
X127045952Y-110318333D01*
X126950714Y-110365952D01*
X126903095Y-110413571D01*
X126855476Y-110508810D01*
X125522143Y-110382143D02*
X125474524Y-110429762D01*
X125331667Y-110477381D01*
X125236429Y-110477381D01*
X125093571Y-110429762D01*
X124998333Y-110334524D01*
X124950714Y-110239286D01*
X124903095Y-110048810D01*
X124903095Y-109905952D01*
X124950714Y-109715476D01*
X124998333Y-109620238D01*
X125093571Y-109525000D01*
X125236429Y-109477381D01*
X125331667Y-109477381D01*
X125474524Y-109525000D01*
X125522143Y-109572619D01*
X126474524Y-110477381D02*
X125903095Y-110477381D01*
X126188809Y-110477381D02*
X126188809Y-109477381D01*
X126093571Y-109620238D01*
X125998333Y-109715476D01*
X125903095Y-109763095D01*
X126807857Y-109477381D02*
X127474524Y-109477381D01*
X127045952Y-110477381D01*
X118522143Y-113382143D02*
X118474524Y-113429762D01*
X118331667Y-113477381D01*
X118236429Y-113477381D01*
X118093571Y-113429762D01*
X117998333Y-113334524D01*
X117950714Y-113239286D01*
X117903095Y-113048810D01*
X117903095Y-112905952D01*
X117950714Y-112715476D01*
X117998333Y-112620238D01*
X118093571Y-112525000D01*
X118236429Y-112477381D01*
X118331667Y-112477381D01*
X118474524Y-112525000D01*
X118522143Y-112572619D01*
X119474524Y-113477381D02*
X118903095Y-113477381D01*
X119188809Y-113477381D02*
X119188809Y-112477381D01*
X119093571Y-112620238D01*
X118998333Y-112715476D01*
X118903095Y-112763095D01*
X120045952Y-112905952D02*
X119950714Y-112858333D01*
X119903095Y-112810714D01*
X119855476Y-112715476D01*
X119855476Y-112667857D01*
X119903095Y-112572619D01*
X119950714Y-112525000D01*
X120045952Y-112477381D01*
X120236429Y-112477381D01*
X120331667Y-112525000D01*
X120379286Y-112572619D01*
X120426905Y-112667857D01*
X120426905Y-112715476D01*
X120379286Y-112810714D01*
X120331667Y-112858333D01*
X120236429Y-112905952D01*
X120045952Y-112905952D01*
X119950714Y-112953571D01*
X119903095Y-113001190D01*
X119855476Y-113096429D01*
X119855476Y-113286905D01*
X119903095Y-113382143D01*
X119950714Y-113429762D01*
X120045952Y-113477381D01*
X120236429Y-113477381D01*
X120331667Y-113429762D01*
X120379286Y-113382143D01*
X120426905Y-113286905D01*
X120426905Y-113096429D01*
X120379286Y-113001190D01*
X120331667Y-112953571D01*
X120236429Y-112905952D01*
X129257143Y-137742857D02*
X129304762Y-137790476D01*
X129352381Y-137933333D01*
X129352381Y-138028571D01*
X129304762Y-138171429D01*
X129209524Y-138266667D01*
X129114286Y-138314286D01*
X128923810Y-138361905D01*
X128780952Y-138361905D01*
X128590476Y-138314286D01*
X128495238Y-138266667D01*
X128400000Y-138171429D01*
X128352381Y-138028571D01*
X128352381Y-137933333D01*
X128400000Y-137790476D01*
X128447619Y-137742857D01*
X128447619Y-137361905D02*
X128400000Y-137314286D01*
X128352381Y-137219048D01*
X128352381Y-136980952D01*
X128400000Y-136885714D01*
X128447619Y-136838095D01*
X128542857Y-136790476D01*
X128638095Y-136790476D01*
X128780952Y-136838095D01*
X129352381Y-137409524D01*
X129352381Y-136790476D01*
X128352381Y-136457143D02*
X128352381Y-135838095D01*
X128733333Y-136171429D01*
X128733333Y-136028571D01*
X128780952Y-135933333D01*
X128828571Y-135885714D01*
X128923810Y-135838095D01*
X129161905Y-135838095D01*
X129257143Y-135885714D01*
X129304762Y-135933333D01*
X129352381Y-136028571D01*
X129352381Y-136314286D01*
X129304762Y-136409524D01*
X129257143Y-136457143D01*
X130157143Y-140692857D02*
X130204762Y-140740476D01*
X130252381Y-140883333D01*
X130252381Y-140978571D01*
X130204762Y-141121429D01*
X130109524Y-141216667D01*
X130014286Y-141264286D01*
X129823810Y-141311905D01*
X129680952Y-141311905D01*
X129490476Y-141264286D01*
X129395238Y-141216667D01*
X129300000Y-141121429D01*
X129252381Y-140978571D01*
X129252381Y-140883333D01*
X129300000Y-140740476D01*
X129347619Y-140692857D01*
X129347619Y-140311905D02*
X129300000Y-140264286D01*
X129252381Y-140169048D01*
X129252381Y-139930952D01*
X129300000Y-139835714D01*
X129347619Y-139788095D01*
X129442857Y-139740476D01*
X129538095Y-139740476D01*
X129680952Y-139788095D01*
X130252381Y-140359524D01*
X130252381Y-139740476D01*
X129252381Y-138835714D02*
X129252381Y-139311905D01*
X129728571Y-139359524D01*
X129680952Y-139311905D01*
X129633333Y-139216667D01*
X129633333Y-138978571D01*
X129680952Y-138883333D01*
X129728571Y-138835714D01*
X129823810Y-138788095D01*
X130061905Y-138788095D01*
X130157143Y-138835714D01*
X130204762Y-138883333D01*
X130252381Y-138978571D01*
X130252381Y-139216667D01*
X130204762Y-139311905D01*
X130157143Y-139359524D01*
X113861905Y-141602381D02*
X113861905Y-140602381D01*
X114100000Y-140602381D01*
X114242858Y-140650000D01*
X114338096Y-140745238D01*
X114385715Y-140840476D01*
X114433334Y-141030952D01*
X114433334Y-141173810D01*
X114385715Y-141364286D01*
X114338096Y-141459524D01*
X114242858Y-141554762D01*
X114100000Y-141602381D01*
X113861905Y-141602381D01*
X115385715Y-141602381D02*
X114814286Y-141602381D01*
X115100000Y-141602381D02*
X115100000Y-140602381D01*
X115004762Y-140745238D01*
X114909524Y-140840476D01*
X114814286Y-140888095D01*
X140806667Y-133612381D02*
X140806667Y-134326667D01*
X140759047Y-134469524D01*
X140663809Y-134564762D01*
X140520952Y-134612381D01*
X140425714Y-134612381D01*
X141235238Y-133707619D02*
X141282857Y-133660000D01*
X141378095Y-133612381D01*
X141616191Y-133612381D01*
X141711429Y-133660000D01*
X141759048Y-133707619D01*
X141806667Y-133802857D01*
X141806667Y-133898095D01*
X141759048Y-134040952D01*
X141187619Y-134612381D01*
X141806667Y-134612381D01*
X110766667Y-127002381D02*
X110766667Y-127716667D01*
X110719047Y-127859524D01*
X110623809Y-127954762D01*
X110480952Y-128002381D01*
X110385714Y-128002381D01*
X111671429Y-127002381D02*
X111480952Y-127002381D01*
X111385714Y-127050000D01*
X111338095Y-127097619D01*
X111242857Y-127240476D01*
X111195238Y-127430952D01*
X111195238Y-127811905D01*
X111242857Y-127907143D01*
X111290476Y-127954762D01*
X111385714Y-128002381D01*
X111576191Y-128002381D01*
X111671429Y-127954762D01*
X111719048Y-127907143D01*
X111766667Y-127811905D01*
X111766667Y-127573810D01*
X111719048Y-127478571D01*
X111671429Y-127430952D01*
X111576191Y-127383333D01*
X111385714Y-127383333D01*
X111290476Y-127430952D01*
X111242857Y-127478571D01*
X111195238Y-127573810D01*
X129716667Y-131702381D02*
X129716667Y-132416667D01*
X129669047Y-132559524D01*
X129573809Y-132654762D01*
X129430952Y-132702381D01*
X129335714Y-132702381D01*
X130097619Y-131702381D02*
X130764286Y-131702381D01*
X130335714Y-132702381D01*
X103966667Y-131952381D02*
X103966667Y-132666667D01*
X103919047Y-132809524D01*
X103823809Y-132904762D01*
X103680952Y-132952381D01*
X103585714Y-132952381D01*
X104585714Y-132380952D02*
X104490476Y-132333333D01*
X104442857Y-132285714D01*
X104395238Y-132190476D01*
X104395238Y-132142857D01*
X104442857Y-132047619D01*
X104490476Y-132000000D01*
X104585714Y-131952381D01*
X104776191Y-131952381D01*
X104871429Y-132000000D01*
X104919048Y-132047619D01*
X104966667Y-132142857D01*
X104966667Y-132190476D01*
X104919048Y-132285714D01*
X104871429Y-132333333D01*
X104776191Y-132380952D01*
X104585714Y-132380952D01*
X104490476Y-132428571D01*
X104442857Y-132476190D01*
X104395238Y-132571429D01*
X104395238Y-132761905D01*
X104442857Y-132857143D01*
X104490476Y-132904762D01*
X104585714Y-132952381D01*
X104776191Y-132952381D01*
X104871429Y-132904762D01*
X104919048Y-132857143D01*
X104966667Y-132761905D01*
X104966667Y-132571429D01*
X104919048Y-132476190D01*
X104871429Y-132428571D01*
X104776191Y-132380952D01*
X133566667Y-131652381D02*
X133566667Y-132366667D01*
X133519047Y-132509524D01*
X133423809Y-132604762D01*
X133280952Y-132652381D01*
X133185714Y-132652381D01*
X134090476Y-132652381D02*
X134280952Y-132652381D01*
X134376191Y-132604762D01*
X134423810Y-132557143D01*
X134519048Y-132414286D01*
X134566667Y-132223810D01*
X134566667Y-131842857D01*
X134519048Y-131747619D01*
X134471429Y-131700000D01*
X134376191Y-131652381D01*
X134185714Y-131652381D01*
X134090476Y-131700000D01*
X134042857Y-131747619D01*
X133995238Y-131842857D01*
X133995238Y-132080952D01*
X134042857Y-132176190D01*
X134090476Y-132223810D01*
X134185714Y-132271429D01*
X134376191Y-132271429D01*
X134471429Y-132223810D01*
X134519048Y-132176190D01*
X134566667Y-132080952D01*
X104850477Y-138202381D02*
X104850477Y-138916667D01*
X104802857Y-139059524D01*
X104707619Y-139154762D01*
X104564762Y-139202381D01*
X104469524Y-139202381D01*
X105850477Y-139202381D02*
X105279048Y-139202381D01*
X105564762Y-139202381D02*
X105564762Y-138202381D01*
X105469524Y-138345238D01*
X105374286Y-138440476D01*
X105279048Y-138488095D01*
X106802858Y-139202381D02*
X106231429Y-139202381D01*
X106517143Y-139202381D02*
X106517143Y-138202381D01*
X106421905Y-138345238D01*
X106326667Y-138440476D01*
X106231429Y-138488095D01*
X139740477Y-153202381D02*
X139740477Y-153916667D01*
X139692857Y-154059524D01*
X139597619Y-154154762D01*
X139454762Y-154202381D01*
X139359524Y-154202381D01*
X140740477Y-154202381D02*
X140169048Y-154202381D01*
X140454762Y-154202381D02*
X140454762Y-153202381D01*
X140359524Y-153345238D01*
X140264286Y-153440476D01*
X140169048Y-153488095D01*
X141121429Y-153297619D02*
X141169048Y-153250000D01*
X141264286Y-153202381D01*
X141502382Y-153202381D01*
X141597620Y-153250000D01*
X141645239Y-153297619D01*
X141692858Y-153392857D01*
X141692858Y-153488095D01*
X141645239Y-153630952D01*
X141073810Y-154202381D01*
X141692858Y-154202381D01*
X137190477Y-152402381D02*
X137190477Y-153116667D01*
X137142857Y-153259524D01*
X137047619Y-153354762D01*
X136904762Y-153402381D01*
X136809524Y-153402381D01*
X138190477Y-153402381D02*
X137619048Y-153402381D01*
X137904762Y-153402381D02*
X137904762Y-152402381D01*
X137809524Y-152545238D01*
X137714286Y-152640476D01*
X137619048Y-152688095D01*
X138523810Y-152402381D02*
X139142858Y-152402381D01*
X138809524Y-152783333D01*
X138952382Y-152783333D01*
X139047620Y-152830952D01*
X139095239Y-152878571D01*
X139142858Y-152973810D01*
X139142858Y-153211905D01*
X139095239Y-153307143D01*
X139047620Y-153354762D01*
X138952382Y-153402381D01*
X138666667Y-153402381D01*
X138571429Y-153354762D01*
X138523810Y-153307143D01*
X139890477Y-131652381D02*
X139890477Y-132366667D01*
X139842857Y-132509524D01*
X139747619Y-132604762D01*
X139604762Y-132652381D01*
X139509524Y-132652381D01*
X140890477Y-132652381D02*
X140319048Y-132652381D01*
X140604762Y-132652381D02*
X140604762Y-131652381D01*
X140509524Y-131795238D01*
X140414286Y-131890476D01*
X140319048Y-131938095D01*
X141747620Y-131985714D02*
X141747620Y-132652381D01*
X141509524Y-131604762D02*
X141271429Y-132319048D01*
X141890477Y-132319048D01*
X115355477Y-113037381D02*
X115355477Y-113751667D01*
X115307857Y-113894524D01*
X115212619Y-113989762D01*
X115069762Y-114037381D01*
X114974524Y-114037381D01*
X116355477Y-114037381D02*
X115784048Y-114037381D01*
X116069762Y-114037381D02*
X116069762Y-113037381D01*
X115974524Y-113180238D01*
X115879286Y-113275476D01*
X115784048Y-113323095D01*
X117260239Y-113037381D02*
X116784048Y-113037381D01*
X116736429Y-113513571D01*
X116784048Y-113465952D01*
X116879286Y-113418333D01*
X117117382Y-113418333D01*
X117212620Y-113465952D01*
X117260239Y-113513571D01*
X117307858Y-113608810D01*
X117307858Y-113846905D01*
X117260239Y-113942143D01*
X117212620Y-113989762D01*
X117117382Y-114037381D01*
X116879286Y-114037381D01*
X116784048Y-113989762D01*
X116736429Y-113942143D01*
X137802381Y-141359523D02*
X138516667Y-141359523D01*
X138659524Y-141407143D01*
X138754762Y-141502381D01*
X138802381Y-141645238D01*
X138802381Y-141740476D01*
X138802381Y-140359523D02*
X138802381Y-140930952D01*
X138802381Y-140645238D02*
X137802381Y-140645238D01*
X137945238Y-140740476D01*
X138040476Y-140835714D01*
X138088095Y-140930952D01*
X137802381Y-140026190D02*
X137802381Y-139359523D01*
X138802381Y-139788095D01*
X132533334Y-154852381D02*
X132057143Y-154852381D01*
X132057143Y-153852381D01*
X133390477Y-154852381D02*
X132819048Y-154852381D01*
X133104762Y-154852381D02*
X133104762Y-153852381D01*
X133009524Y-153995238D01*
X132914286Y-154090476D01*
X132819048Y-154138095D01*
X127683334Y-154902381D02*
X127207143Y-154902381D01*
X127207143Y-153902381D01*
X127921429Y-153902381D02*
X128540477Y-153902381D01*
X128207143Y-154283333D01*
X128350001Y-154283333D01*
X128445239Y-154330952D01*
X128492858Y-154378571D01*
X128540477Y-154473810D01*
X128540477Y-154711905D01*
X128492858Y-154807143D01*
X128445239Y-154854762D01*
X128350001Y-154902381D01*
X128064286Y-154902381D01*
X127969048Y-154854762D01*
X127921429Y-154807143D01*
X130233334Y-154552381D02*
X129757143Y-154552381D01*
X129757143Y-153552381D01*
X130995239Y-153885714D02*
X130995239Y-154552381D01*
X130757143Y-153504762D02*
X130519048Y-154219048D01*
X131138096Y-154219048D01*
X134302381Y-154816666D02*
X134302381Y-155292857D01*
X133302381Y-155292857D01*
X133302381Y-154054761D02*
X133302381Y-154245238D01*
X133350000Y-154340476D01*
X133397619Y-154388095D01*
X133540476Y-154483333D01*
X133730952Y-154530952D01*
X134111905Y-154530952D01*
X134207143Y-154483333D01*
X134254762Y-154435714D01*
X134302381Y-154340476D01*
X134302381Y-154149999D01*
X134254762Y-154054761D01*
X134207143Y-154007142D01*
X134111905Y-153959523D01*
X133873810Y-153959523D01*
X133778571Y-154007142D01*
X133730952Y-154054761D01*
X133683333Y-154149999D01*
X133683333Y-154340476D01*
X133730952Y-154435714D01*
X133778571Y-154483333D01*
X133873810Y-154530952D01*
X111724881Y-143809166D02*
X111248690Y-144142500D01*
X111724881Y-144380595D02*
X110724881Y-144380595D01*
X110724881Y-143999642D01*
X110772500Y-143904404D01*
X110820119Y-143856785D01*
X110915357Y-143809166D01*
X111058214Y-143809166D01*
X111153452Y-143856785D01*
X111201071Y-143904404D01*
X111248690Y-143999642D01*
X111248690Y-144380595D01*
X111724881Y-142856785D02*
X111724881Y-143428214D01*
X111724881Y-143142500D02*
X110724881Y-143142500D01*
X110867738Y-143237738D01*
X110962976Y-143332976D01*
X111010595Y-143428214D01*
X118302381Y-144916666D02*
X117826190Y-145250000D01*
X118302381Y-145488095D02*
X117302381Y-145488095D01*
X117302381Y-145107142D01*
X117350000Y-145011904D01*
X117397619Y-144964285D01*
X117492857Y-144916666D01*
X117635714Y-144916666D01*
X117730952Y-144964285D01*
X117778571Y-145011904D01*
X117826190Y-145107142D01*
X117826190Y-145488095D01*
X117397619Y-144535714D02*
X117350000Y-144488095D01*
X117302381Y-144392857D01*
X117302381Y-144154761D01*
X117350000Y-144059523D01*
X117397619Y-144011904D01*
X117492857Y-143964285D01*
X117588095Y-143964285D01*
X117730952Y-144011904D01*
X118302381Y-144583333D01*
X118302381Y-143964285D01*
X123202381Y-145566666D02*
X122726190Y-145900000D01*
X123202381Y-146138095D02*
X122202381Y-146138095D01*
X122202381Y-145757142D01*
X122250000Y-145661904D01*
X122297619Y-145614285D01*
X122392857Y-145566666D01*
X122535714Y-145566666D01*
X122630952Y-145614285D01*
X122678571Y-145661904D01*
X122726190Y-145757142D01*
X122726190Y-146138095D01*
X122202381Y-144661904D02*
X122202381Y-145138095D01*
X122678571Y-145185714D01*
X122630952Y-145138095D01*
X122583333Y-145042857D01*
X122583333Y-144804761D01*
X122630952Y-144709523D01*
X122678571Y-144661904D01*
X122773810Y-144614285D01*
X123011905Y-144614285D01*
X123107143Y-144661904D01*
X123154762Y-144709523D01*
X123202381Y-144804761D01*
X123202381Y-145042857D01*
X123154762Y-145138095D01*
X123107143Y-145185714D01*
X125052381Y-143816666D02*
X124576190Y-144150000D01*
X125052381Y-144388095D02*
X124052381Y-144388095D01*
X124052381Y-144007142D01*
X124100000Y-143911904D01*
X124147619Y-143864285D01*
X124242857Y-143816666D01*
X124385714Y-143816666D01*
X124480952Y-143864285D01*
X124528571Y-143911904D01*
X124576190Y-144007142D01*
X124576190Y-144388095D01*
X124052381Y-142959523D02*
X124052381Y-143150000D01*
X124100000Y-143245238D01*
X124147619Y-143292857D01*
X124290476Y-143388095D01*
X124480952Y-143435714D01*
X124861905Y-143435714D01*
X124957143Y-143388095D01*
X125004762Y-143340476D01*
X125052381Y-143245238D01*
X125052381Y-143054761D01*
X125004762Y-142959523D01*
X124957143Y-142911904D01*
X124861905Y-142864285D01*
X124623810Y-142864285D01*
X124528571Y-142911904D01*
X124480952Y-142959523D01*
X124433333Y-143054761D01*
X124433333Y-143245238D01*
X124480952Y-143340476D01*
X124528571Y-143388095D01*
X124623810Y-143435714D01*
X117622143Y-112557381D02*
X117288809Y-112081190D01*
X117050714Y-112557381D02*
X117050714Y-111557381D01*
X117431667Y-111557381D01*
X117526905Y-111605000D01*
X117574524Y-111652619D01*
X117622143Y-111747857D01*
X117622143Y-111890714D01*
X117574524Y-111985952D01*
X117526905Y-112033571D01*
X117431667Y-112081190D01*
X117050714Y-112081190D01*
X118574524Y-112557381D02*
X118003095Y-112557381D01*
X118288809Y-112557381D02*
X118288809Y-111557381D01*
X118193571Y-111700238D01*
X118098333Y-111795476D01*
X118003095Y-111843095D01*
X118955476Y-111652619D02*
X119003095Y-111605000D01*
X119098333Y-111557381D01*
X119336429Y-111557381D01*
X119431667Y-111605000D01*
X119479286Y-111652619D01*
X119526905Y-111747857D01*
X119526905Y-111843095D01*
X119479286Y-111985952D01*
X118907857Y-112557381D01*
X119526905Y-112557381D01*
X125422143Y-109757381D02*
X125088809Y-109281190D01*
X124850714Y-109757381D02*
X124850714Y-108757381D01*
X125231667Y-108757381D01*
X125326905Y-108805000D01*
X125374524Y-108852619D01*
X125422143Y-108947857D01*
X125422143Y-109090714D01*
X125374524Y-109185952D01*
X125326905Y-109233571D01*
X125231667Y-109281190D01*
X124850714Y-109281190D01*
X126374524Y-109757381D02*
X125803095Y-109757381D01*
X126088809Y-109757381D02*
X126088809Y-108757381D01*
X125993571Y-108900238D01*
X125898333Y-108995476D01*
X125803095Y-109043095D01*
X126707857Y-108757381D02*
X127326905Y-108757381D01*
X126993571Y-109138333D01*
X127136429Y-109138333D01*
X127231667Y-109185952D01*
X127279286Y-109233571D01*
X127326905Y-109328810D01*
X127326905Y-109566905D01*
X127279286Y-109662143D01*
X127231667Y-109709762D01*
X127136429Y-109757381D01*
X126850714Y-109757381D01*
X126755476Y-109709762D01*
X126707857Y-109662143D01*
X112466667Y-157704762D02*
X112609524Y-157752381D01*
X112847620Y-157752381D01*
X112942858Y-157704762D01*
X112990477Y-157657143D01*
X113038096Y-157561905D01*
X113038096Y-157466667D01*
X112990477Y-157371429D01*
X112942858Y-157323810D01*
X112847620Y-157276190D01*
X112657143Y-157228571D01*
X112561905Y-157180952D01*
X112514286Y-157133333D01*
X112466667Y-157038095D01*
X112466667Y-156942857D01*
X112514286Y-156847619D01*
X112561905Y-156800000D01*
X112657143Y-156752381D01*
X112895239Y-156752381D01*
X113038096Y-156800000D01*
X113371429Y-156752381D02*
X113609524Y-157752381D01*
X113800001Y-157038095D01*
X113990477Y-157752381D01*
X114228572Y-156752381D01*
X115133334Y-157752381D02*
X114561905Y-157752381D01*
X114847619Y-157752381D02*
X114847619Y-156752381D01*
X114752381Y-156895238D01*
X114657143Y-156990476D01*
X114561905Y-157038095D01*
X115954762Y-128833333D02*
X116002381Y-128690476D01*
X116002381Y-128452380D01*
X115954762Y-128357142D01*
X115907143Y-128309523D01*
X115811905Y-128261904D01*
X115716667Y-128261904D01*
X115621429Y-128309523D01*
X115573810Y-128357142D01*
X115526190Y-128452380D01*
X115478571Y-128642857D01*
X115430952Y-128738095D01*
X115383333Y-128785714D01*
X115288095Y-128833333D01*
X115192857Y-128833333D01*
X115097619Y-128785714D01*
X115050000Y-128738095D01*
X115002381Y-128642857D01*
X115002381Y-128404761D01*
X115050000Y-128261904D01*
X115002381Y-127928571D02*
X116002381Y-127690476D01*
X115288095Y-127499999D01*
X116002381Y-127309523D01*
X115002381Y-127071428D01*
X115097619Y-126738095D02*
X115050000Y-126690476D01*
X115002381Y-126595238D01*
X115002381Y-126357142D01*
X115050000Y-126261904D01*
X115097619Y-126214285D01*
X115192857Y-126166666D01*
X115288095Y-126166666D01*
X115430952Y-126214285D01*
X116002381Y-126785714D01*
X116002381Y-126166666D01*
D17*
X98051428Y-150650187D02*
X99379752Y-150650187D01*
X99536025Y-150572050D01*
X99614162Y-150493913D01*
X99692298Y-150337640D01*
X99692298Y-150025093D01*
X99614162Y-149868820D01*
X99536025Y-149790683D01*
X99379752Y-149712547D01*
X98051428Y-149712547D01*
X99692298Y-148071676D02*
X99692298Y-149009316D01*
X99692298Y-148540496D02*
X98051428Y-148540496D01*
X98285838Y-148696770D01*
X98442112Y-148853043D01*
X98520248Y-149009316D01*
X87392927Y-166886167D02*
X85750667Y-166886167D01*
X86923710Y-166338747D01*
X85750667Y-165791327D01*
X87392927Y-165791327D01*
X87236521Y-164070863D02*
X87314724Y-164149066D01*
X87392927Y-164383675D01*
X87392927Y-164540081D01*
X87314724Y-164774689D01*
X87158319Y-164931095D01*
X87001913Y-165009298D01*
X86689101Y-165087501D01*
X86454493Y-165087501D01*
X86141681Y-165009298D01*
X85985276Y-164931095D01*
X85828870Y-164774689D01*
X85750667Y-164540081D01*
X85750667Y-164383675D01*
X85828870Y-164149066D01*
X85907073Y-164070863D01*
X87392927Y-163367038D02*
X85750667Y-163367038D01*
X85750667Y-162741415D01*
X85828870Y-162585009D01*
X85907073Y-162506806D01*
X86063479Y-162428603D01*
X86298087Y-162428603D01*
X86454493Y-162506806D01*
X86532696Y-162585009D01*
X86610899Y-162741415D01*
X86610899Y-163367038D01*
X85750667Y-161881183D02*
X85750667Y-160786343D01*
X87392927Y-161490169D01*
X85750667Y-160317126D02*
X85750667Y-159300489D01*
X86376290Y-159847909D01*
X86376290Y-159613301D01*
X86454493Y-159456895D01*
X86532696Y-159378692D01*
X86689101Y-159300489D01*
X87080116Y-159300489D01*
X87236521Y-159378692D01*
X87314724Y-159456895D01*
X87392927Y-159613301D01*
X87392927Y-160082518D01*
X87314724Y-160238924D01*
X87236521Y-160317126D01*
X86454493Y-158362055D02*
X86376290Y-158518461D01*
X86298087Y-158596664D01*
X86141681Y-158674867D01*
X86063479Y-158674867D01*
X85907073Y-158596664D01*
X85828870Y-158518461D01*
X85750667Y-158362055D01*
X85750667Y-158049244D01*
X85828870Y-157892838D01*
X85907073Y-157814635D01*
X86063479Y-157736432D01*
X86141681Y-157736432D01*
X86298087Y-157814635D01*
X86376290Y-157892838D01*
X86454493Y-158049244D01*
X86454493Y-158362055D01*
X86532696Y-158518461D01*
X86610899Y-158596664D01*
X86767304Y-158674867D01*
X87080116Y-158674867D01*
X87236521Y-158596664D01*
X87314724Y-158518461D01*
X87392927Y-158362055D01*
X87392927Y-158049244D01*
X87314724Y-157892838D01*
X87236521Y-157814635D01*
X87080116Y-157736432D01*
X86767304Y-157736432D01*
X86610899Y-157814635D01*
X86532696Y-157892838D01*
X86454493Y-158049244D01*
X85750667Y-157189012D02*
X85750667Y-156172375D01*
X86376290Y-156719795D01*
X86376290Y-156485187D01*
X86454493Y-156328781D01*
X86532696Y-156250578D01*
X86689101Y-156172375D01*
X87080116Y-156172375D01*
X87236521Y-156250578D01*
X87314724Y-156328781D01*
X87392927Y-156485187D01*
X87392927Y-156954404D01*
X87314724Y-157110810D01*
X87236521Y-157189012D01*
X87392927Y-154608318D02*
X87392927Y-155546753D01*
X87392927Y-155077535D02*
X85750667Y-155077535D01*
X85985276Y-155233941D01*
X86141681Y-155390347D01*
X86219884Y-155546753D01*
X85750667Y-154139101D02*
X85750667Y-153200667D01*
X87392927Y-153669884D02*
X85750667Y-153669884D01*
X86767304Y-152653247D02*
X86767304Y-151402001D01*
X85907073Y-150698176D02*
X85828870Y-150619973D01*
X85750667Y-150463567D01*
X85750667Y-150072553D01*
X85828870Y-149916147D01*
X85907073Y-149837944D01*
X86063479Y-149759741D01*
X86219884Y-149759741D01*
X86454493Y-149837944D01*
X87392927Y-150776378D01*
X87392927Y-149759741D01*
X86923710Y-149134119D02*
X86923710Y-148352090D01*
X87392927Y-149290524D02*
X85750667Y-148743104D01*
X87392927Y-148195684D01*
X87236521Y-146709830D02*
X87314724Y-146788033D01*
X87392927Y-147022642D01*
X87392927Y-147179048D01*
X87314724Y-147413656D01*
X87158319Y-147570062D01*
X87001913Y-147648265D01*
X86689101Y-147726468D01*
X86454493Y-147726468D01*
X86141681Y-147648265D01*
X85985276Y-147570062D01*
X85828870Y-147413656D01*
X85750667Y-147179048D01*
X85750667Y-147022642D01*
X85828870Y-146788033D01*
X85907073Y-146709830D01*
X87392927Y-146006005D02*
X85750667Y-146006005D01*
X85672464Y-144050933D02*
X87783941Y-145458584D01*
X85750667Y-143190701D02*
X85750667Y-142877890D01*
X85828870Y-142721484D01*
X85985276Y-142565078D01*
X86298087Y-142486876D01*
X86845507Y-142486876D01*
X87158319Y-142565078D01*
X87314724Y-142721484D01*
X87392927Y-142877890D01*
X87392927Y-143190701D01*
X87314724Y-143347107D01*
X87158319Y-143503513D01*
X86845507Y-143581716D01*
X86298087Y-143581716D01*
X85985276Y-143503513D01*
X85828870Y-143347107D01*
X85750667Y-143190701D01*
X85750667Y-142017658D02*
X85750667Y-141079224D01*
X87392927Y-141548441D02*
X85750667Y-141548441D01*
X122724479Y-140544203D02*
X122983945Y-140544203D01*
X123014470Y-140528940D01*
X123029733Y-140513677D01*
X123044995Y-140483152D01*
X123044995Y-140422101D01*
X123029733Y-140391576D01*
X123014470Y-140376313D01*
X122983945Y-140361051D01*
X122724479Y-140361051D01*
X122724479Y-140238949D02*
X122724479Y-140040534D01*
X122846581Y-140147373D01*
X122846581Y-140101585D01*
X122861843Y-140071060D01*
X122877106Y-140055797D01*
X122907631Y-140040534D01*
X122983945Y-140040534D01*
X123014470Y-140055797D01*
X123029733Y-140071060D01*
X123044995Y-140101585D01*
X123044995Y-140193161D01*
X123029733Y-140223686D01*
X123014470Y-140238949D01*
X125053278Y-142320934D02*
X125053278Y-142473437D01*
X124733022Y-142473437D01*
X125038027Y-142229432D02*
X125053278Y-142183681D01*
X125053278Y-142107430D01*
X125038027Y-142076929D01*
X125022777Y-142061679D01*
X124992277Y-142046428D01*
X124961776Y-142046428D01*
X124931275Y-142061679D01*
X124916025Y-142076929D01*
X124900775Y-142107430D01*
X124885525Y-142168431D01*
X124870274Y-142198931D01*
X124855024Y-142214182D01*
X124824523Y-142229432D01*
X124794023Y-142229432D01*
X124763522Y-142214182D01*
X124748272Y-142198931D01*
X124733022Y-142168431D01*
X124733022Y-142092179D01*
X124748272Y-142046428D01*
X125053278Y-141909176D02*
X124733022Y-141909176D01*
X124961776Y-141802424D01*
X124733022Y-141695672D01*
X125053278Y-141695672D01*
X125053278Y-141527918D02*
X125053278Y-141466917D01*
X125038027Y-141436417D01*
X125022777Y-141421166D01*
X124977026Y-141390666D01*
X124916025Y-141375415D01*
X124794023Y-141375415D01*
X124763522Y-141390666D01*
X124748272Y-141405916D01*
X124733022Y-141436417D01*
X124733022Y-141497418D01*
X124748272Y-141527918D01*
X124763522Y-141543169D01*
X124794023Y-141558419D01*
X124870274Y-141558419D01*
X124900775Y-141543169D01*
X124916025Y-141527918D01*
X124931275Y-141497418D01*
X124931275Y-141436417D01*
X124916025Y-141405916D01*
X124900775Y-141390666D01*
X124870274Y-141375415D01*
X125053278Y-141238163D02*
X124733022Y-141238163D01*
X124733022Y-141161911D01*
X124748272Y-141116160D01*
X124778773Y-141085660D01*
X124809273Y-141070409D01*
X124870274Y-141055159D01*
X124916025Y-141055159D01*
X124977026Y-141070409D01*
X125007527Y-141085660D01*
X125038027Y-141116160D01*
X125053278Y-141161911D01*
X125053278Y-141238163D01*
X125038027Y-140933157D02*
X125053278Y-140887406D01*
X125053278Y-140811155D01*
X125038027Y-140780654D01*
X125022777Y-140765404D01*
X124992277Y-140750153D01*
X124961776Y-140750153D01*
X124931275Y-140765404D01*
X124916025Y-140780654D01*
X124900775Y-140811155D01*
X124885525Y-140872156D01*
X124870274Y-140902656D01*
X124855024Y-140917907D01*
X124824523Y-140933157D01*
X124794023Y-140933157D01*
X124763522Y-140917907D01*
X124748272Y-140902656D01*
X124733022Y-140872156D01*
X124733022Y-140795904D01*
X124748272Y-140750153D01*
X125053278Y-140445147D02*
X125053278Y-140628151D01*
X125053278Y-140536649D02*
X124733022Y-140536649D01*
X124778773Y-140567150D01*
X124809273Y-140597650D01*
X124824523Y-140628151D01*
X124733022Y-140353645D02*
X124733022Y-140170642D01*
X125053278Y-140262144D02*
X124733022Y-140262144D01*
X125053278Y-139880886D02*
X124900775Y-139987638D01*
X125053278Y-140063890D02*
X124733022Y-140063890D01*
X124733022Y-139941887D01*
X124748272Y-139911387D01*
X124763522Y-139896136D01*
X124794023Y-139880886D01*
X124839774Y-139880886D01*
X124870274Y-139896136D01*
X124885525Y-139911387D01*
X124900775Y-139941887D01*
X124900775Y-140063890D01*
M02*
