%TF.GenerationSoftware,KiCad,Pcbnew,4.0.7*%
%TF.CreationDate,2019-02-19T19:06:54-06:00*%
%TF.ProjectId,GolfGloveMainBoardV1.0.0,476F6C66476C6F76654D61696E426F61,rev?*%
%TF.FileFunction,Copper,L3,Inr,Signal*%
%FSLAX46Y46*%
G04 Gerber Fmt 4.6, Leading zero omitted, Abs format (unit mm)*
G04 Created by KiCad (PCBNEW 4.0.7) date 02/19/19 19:06:54*
%MOMM*%
%LPD*%
G01*
G04 APERTURE LIST*
%ADD10C,0.100000*%
%ADD11C,0.150000*%
%ADD12C,0.600000*%
%ADD13O,0.800000X1.400000*%
%ADD14C,0.650000*%
%ADD15R,1.700000X1.700000*%
%ADD16O,1.700000X1.700000*%
%ADD17C,0.250000*%
%ADD18C,0.300000*%
%ADD19C,0.254000*%
G04 APERTURE END LIST*
D10*
D11*
X118120000Y-123130000D02*
X118120000Y-125640000D01*
X127220000Y-123130000D02*
X118120000Y-123130000D01*
X127220000Y-125640000D02*
X127220000Y-123130000D01*
X118130000Y-125640000D02*
X127220000Y-125640000D01*
X102580000Y-162200000D02*
X102570000Y-162200000D01*
X102580000Y-125640000D02*
X102580000Y-162200000D01*
X117250000Y-125640000D02*
X102580000Y-125640000D01*
X117250000Y-113080000D02*
X117250000Y-125640000D01*
X114340000Y-113080000D02*
X117250000Y-113080000D01*
X114340000Y-106880000D02*
X114340000Y-113080000D01*
X130990000Y-106880000D02*
X114340000Y-106880000D01*
X130990000Y-113080000D02*
X130990000Y-106880000D01*
X128090000Y-113080000D02*
X130990000Y-113080000D01*
X128090000Y-125650000D02*
X128090000Y-113080000D01*
X142570000Y-125650000D02*
X128090000Y-125650000D01*
X142570000Y-162200000D02*
X142570000Y-125650000D01*
X102580000Y-162200000D02*
X142570000Y-162200000D01*
D12*
X133050000Y-161550000D03*
X125650000Y-160600000D03*
X123900000Y-160200000D03*
X132500000Y-156550000D03*
X129850000Y-159600000D03*
X125250000Y-157750000D03*
X123000000Y-126500000D03*
X107000000Y-161000000D03*
X136000000Y-144000000D03*
X124000000Y-161350000D03*
X124350000Y-159300000D03*
X123700000Y-158650000D03*
X125000000Y-159950000D03*
X140500000Y-154500000D03*
X138500000Y-154500000D03*
X141500000Y-154500000D03*
X125900000Y-158400000D03*
X126600000Y-159000000D03*
X125450000Y-161450000D03*
X131000000Y-158000000D03*
X127150000Y-159600000D03*
X131000000Y-157000000D03*
X130000000Y-158500000D03*
X139500000Y-154500000D03*
X130000000Y-157500000D03*
X128050000Y-159600000D03*
X130200000Y-161300000D03*
X131150000Y-161300000D03*
X132000000Y-158500000D03*
X133000000Y-158500000D03*
X133000000Y-157500000D03*
X124750000Y-160750000D03*
X132150000Y-161500000D03*
X132000000Y-159500000D03*
X132000000Y-157500000D03*
X133500000Y-156500000D03*
X127400000Y-161300000D03*
X129250000Y-161300000D03*
X133000000Y-159500000D03*
X140000000Y-155500000D03*
X136000000Y-155500000D03*
X126400000Y-161200000D03*
X128300000Y-161300000D03*
X135000000Y-155500000D03*
X134500000Y-156500000D03*
X138000000Y-155500000D03*
X128950000Y-159600000D03*
X137000000Y-155500000D03*
X142000000Y-155500000D03*
X141000000Y-155500000D03*
X141500000Y-156500000D03*
X140500000Y-156500000D03*
X139500000Y-156500000D03*
X138500000Y-156500000D03*
X137500000Y-156500000D03*
X136500000Y-156500000D03*
X135500000Y-156500000D03*
X139000000Y-155500000D03*
D13*
X118535000Y-116145000D03*
X126795000Y-116145000D03*
X127155000Y-122095000D03*
X118175000Y-122095000D03*
D14*
X125465000Y-115545000D03*
X123865000Y-115545000D03*
X123065000Y-115545000D03*
X122265000Y-115545000D03*
X121465000Y-115545000D03*
X119865000Y-115545000D03*
X125065000Y-116245000D03*
X124265000Y-116245000D03*
X123465000Y-116245000D03*
X121865000Y-116245000D03*
X121065000Y-116245000D03*
X120265000Y-116245000D03*
D15*
X129165000Y-111255000D03*
D16*
X129165000Y-108715000D03*
D13*
X126805000Y-132760000D03*
X118545000Y-132760000D03*
X118185000Y-126810000D03*
X127165000Y-126810000D03*
D14*
X119875000Y-133360000D03*
X121475000Y-133360000D03*
X122275000Y-133360000D03*
X123075000Y-133360000D03*
X123875000Y-133360000D03*
X125475000Y-133360000D03*
X120275000Y-132660000D03*
X121075000Y-132660000D03*
X121875000Y-132660000D03*
X123475000Y-132660000D03*
X124275000Y-132660000D03*
X125075000Y-132660000D03*
D15*
X141140000Y-136490000D03*
D16*
X141140000Y-139030000D03*
X141140000Y-141570000D03*
X141140000Y-144110000D03*
X141140000Y-146650000D03*
X141140000Y-149190000D03*
D15*
X108940000Y-130410000D03*
D16*
X108940000Y-127870000D03*
D15*
X130120000Y-127690000D03*
D16*
X130120000Y-130230000D03*
D15*
X104490000Y-127830000D03*
D16*
X104490000Y-130370000D03*
D15*
X133860000Y-127710000D03*
D16*
X133860000Y-130250000D03*
D15*
X104390000Y-141080000D03*
D16*
X106930000Y-141080000D03*
X104390000Y-143620000D03*
X106930000Y-143620000D03*
X104390000Y-146160000D03*
X106930000Y-146160000D03*
X104390000Y-148700000D03*
X106930000Y-148700000D03*
X104390000Y-151240000D03*
X106930000Y-151240000D03*
X104390000Y-153780000D03*
X106930000Y-153780000D03*
X104390000Y-156320000D03*
X106930000Y-156320000D03*
X104390000Y-158860000D03*
X106930000Y-158860000D03*
D15*
X140600000Y-152120000D03*
X137850000Y-150890000D03*
X140680000Y-127730000D03*
D16*
X140680000Y-130270000D03*
D15*
X116165000Y-111255000D03*
D16*
X116165000Y-108715000D03*
D15*
X133420000Y-140570000D03*
D16*
X135960000Y-140570000D03*
D12*
X119340000Y-161360000D03*
X126025000Y-157250000D03*
X133875000Y-153475000D03*
X118050000Y-155800000D03*
X120180000Y-138450000D03*
X109060000Y-135020000D03*
X106880000Y-130340000D03*
X114220000Y-155420000D03*
X113865000Y-152870000D03*
X115170000Y-147740000D03*
X116680000Y-141630000D03*
X112650000Y-142530000D03*
X137230000Y-129300000D03*
X124470000Y-147640000D03*
X110760000Y-156750000D03*
X114450000Y-148610000D03*
X113710000Y-136380000D03*
X119610000Y-140700000D03*
X120710000Y-143750000D03*
X127570000Y-153720000D03*
X118020000Y-156880000D03*
X122880000Y-147170000D03*
X113070000Y-138400000D03*
X120670000Y-132070000D03*
X111530000Y-154890000D03*
X117230000Y-154710000D03*
X125410000Y-140500000D03*
X124720000Y-133960000D03*
X123750000Y-149440000D03*
X128180000Y-143970000D03*
X127565000Y-111755000D03*
X120365000Y-110755000D03*
X120750000Y-159750000D03*
X133380000Y-133850000D03*
X126040000Y-154390000D03*
X125900000Y-155160000D03*
X133230000Y-146870000D03*
X122900000Y-159640000D03*
X121925000Y-156950000D03*
X128175000Y-156750000D03*
X133600000Y-155300000D03*
X125970000Y-156450000D03*
X122175000Y-158900000D03*
X130075000Y-155250000D03*
X124600000Y-155875000D03*
X129600000Y-156050000D03*
X121670000Y-145090000D03*
X113890000Y-150120000D03*
X118750000Y-143180000D03*
X122930000Y-135450000D03*
X121320000Y-143260000D03*
X120290000Y-145870000D03*
X119100000Y-145840000D03*
X118680000Y-144630000D03*
X123520000Y-136380000D03*
X123840000Y-142540000D03*
X135900000Y-150170000D03*
X139210000Y-144560000D03*
X137380000Y-147390000D03*
X130520000Y-151010000D03*
X127500000Y-152240000D03*
X130850000Y-150240000D03*
X126530000Y-152030000D03*
X124565000Y-112455000D03*
X108340000Y-145560000D03*
X109260000Y-144690000D03*
X117800000Y-137020000D03*
X125350000Y-141710000D03*
X120920000Y-137630000D03*
X120670000Y-133800000D03*
X122100000Y-146700000D03*
X120075000Y-157050000D03*
X118050000Y-142170000D03*
X123465000Y-112655000D03*
X122665000Y-109855000D03*
X127165000Y-113655000D03*
X124665000Y-115255000D03*
X124765000Y-113255000D03*
X118900000Y-153580000D03*
X113890000Y-129940000D03*
X118800000Y-136640000D03*
X120420000Y-135860000D03*
X121700000Y-137180000D03*
X124430000Y-137660000D03*
X109060000Y-142550000D03*
X116340000Y-149690000D03*
X118150000Y-151950000D03*
X104390000Y-141080000D03*
X109360000Y-141390000D03*
X111220000Y-145290000D03*
X109880000Y-147290000D03*
X110250000Y-151060000D03*
X118490000Y-152910000D03*
X118440000Y-149940000D03*
X115470000Y-149880000D03*
X127740000Y-129140000D03*
X136830000Y-132390000D03*
X123010000Y-148760000D03*
X118665000Y-109755000D03*
X120665000Y-109255000D03*
D17*
X29050000Y-55850000D02*
X29050000Y-55875000D01*
X123500000Y-93650000D02*
X123450000Y-93650000D01*
D11*
X124680000Y-135430000D02*
X124690000Y-135420000D01*
X133580000Y-134560000D02*
X134300000Y-134560000D01*
X133570000Y-134550000D02*
X133580000Y-134560000D01*
X119320000Y-161340000D02*
X119310000Y-161340000D01*
X119340000Y-161360000D02*
X119320000Y-161340000D01*
D18*
X127570000Y-153720000D02*
X127195000Y-153720000D01*
X127195000Y-153720000D02*
X126650000Y-153175000D01*
X117230000Y-154710000D02*
X120390000Y-154710000D01*
X120390000Y-154710000D02*
X121925000Y-153175000D01*
X117230000Y-154710000D02*
X117230000Y-149645000D01*
X117230000Y-149645000D02*
X117487500Y-149387500D01*
X117230000Y-154710000D02*
X117230000Y-156090000D01*
X117230000Y-156090000D02*
X118020000Y-156880000D01*
X117487500Y-149437500D02*
X117487500Y-149387500D01*
X117487500Y-149387500D02*
X117487500Y-149187500D01*
X117487500Y-149187500D02*
X117300000Y-149000000D01*
X117300000Y-149000000D02*
X115300000Y-149000000D01*
X115300000Y-149000000D02*
X114700000Y-149600000D01*
X114700000Y-149600000D02*
X114700000Y-150625000D01*
X114700000Y-150625000D02*
X114375000Y-150950000D01*
X113600000Y-150950000D02*
X111530000Y-153020000D01*
X114375000Y-150950000D02*
X113600000Y-150950000D01*
X111530000Y-153020000D02*
X111530000Y-154730000D01*
X111530000Y-154730000D02*
X112800000Y-156000000D01*
X112800000Y-156000000D02*
X115940000Y-156000000D01*
X115940000Y-156000000D02*
X117230000Y-154710000D01*
X140680000Y-130270000D02*
X140680000Y-132220000D01*
X140680000Y-132220000D02*
X138650000Y-134250000D01*
X138650000Y-134250000D02*
X138650000Y-143425000D01*
X138650000Y-143425000D02*
X132175000Y-149900000D01*
X132175000Y-149900000D02*
X132175000Y-151300000D01*
X126342500Y-135582500D02*
X127667500Y-135582500D01*
X127667500Y-135582500D02*
X130120000Y-133130000D01*
X130120000Y-133130000D02*
X130120000Y-130230000D01*
X130120000Y-130230000D02*
X130160000Y-130270000D01*
X130160000Y-130270000D02*
X140680000Y-130270000D01*
X126450000Y-143600000D02*
X126450000Y-141540000D01*
X126450000Y-141540000D02*
X125410000Y-140500000D01*
X125410000Y-140500000D02*
X126342500Y-139567500D01*
X126342500Y-139567500D02*
X126342500Y-135582500D01*
X126342500Y-135582500D02*
X124720000Y-133960000D01*
X117437500Y-149437500D02*
X117487500Y-149437500D01*
X122550000Y-147500000D02*
X122880000Y-147170000D01*
X119425000Y-147500000D02*
X122550000Y-147500000D01*
X117487500Y-149437500D02*
X119425000Y-147500000D01*
X122880000Y-147170000D02*
X122880000Y-144980000D01*
X122880000Y-144980000D02*
X122100000Y-144200000D01*
X122100000Y-144200000D02*
X121160000Y-144200000D01*
X121160000Y-144200000D02*
X120710000Y-143750000D01*
X120710000Y-143750000D02*
X118550000Y-143750000D01*
X118550000Y-143750000D02*
X117437500Y-142637500D01*
X117437500Y-140062500D02*
X117437500Y-142637500D01*
X117437500Y-142637500D02*
X117437500Y-149437500D01*
X117437500Y-149437500D02*
X117475000Y-149475000D01*
X113050000Y-139250000D02*
X116625000Y-139250000D01*
X116625000Y-139250000D02*
X117437500Y-140062500D01*
X117437500Y-140062500D02*
X118075000Y-140700000D01*
X118075000Y-140700000D02*
X119610000Y-140700000D01*
X104490000Y-130370000D02*
X104490000Y-135465000D01*
X104490000Y-135465000D02*
X107650000Y-138625000D01*
X107650000Y-138625000D02*
X108950000Y-138625000D01*
X108950000Y-138625000D02*
X110400000Y-140075000D01*
X110400000Y-140075000D02*
X112225000Y-140075000D01*
X112225000Y-140075000D02*
X113050000Y-139250000D01*
X113050000Y-139250000D02*
X113070000Y-139230000D01*
X113070000Y-139230000D02*
X113070000Y-138400000D01*
D11*
X111530000Y-154890000D02*
X111690000Y-154890000D01*
X115840000Y-156100000D02*
X117230000Y-154710000D01*
X112900000Y-156100000D02*
X115840000Y-156100000D01*
X111690000Y-154890000D02*
X112900000Y-156100000D01*
X111530000Y-154890000D02*
X111530000Y-153020000D01*
X117000000Y-149000000D02*
X117475000Y-149475000D01*
X114700000Y-150625000D02*
X114700000Y-149750000D01*
X114700000Y-149750000D02*
X115450000Y-149000000D01*
X115450000Y-149000000D02*
X117000000Y-149000000D01*
X114425000Y-150900000D02*
X114700000Y-150625000D01*
X111530000Y-153020000D02*
X113650000Y-150900000D01*
X113650000Y-150900000D02*
X114425000Y-150900000D01*
D18*
X129755000Y-153720000D02*
X127570000Y-153720000D01*
X132175000Y-151300000D02*
X129755000Y-153720000D01*
D11*
X132175000Y-149900000D02*
X132175000Y-151300000D01*
X138650000Y-143425000D02*
X132175000Y-149900000D01*
X138650000Y-134250000D02*
X138650000Y-143425000D01*
X140680000Y-132220000D02*
X138650000Y-134250000D01*
X133860000Y-130250000D02*
X134475000Y-130250000D01*
X134475000Y-130250000D02*
X135450000Y-131225000D01*
X139725000Y-131225000D02*
X140680000Y-130270000D01*
X135450000Y-131225000D02*
X139725000Y-131225000D01*
X130120000Y-130230000D02*
X130380000Y-130230000D01*
X130380000Y-130230000D02*
X131550000Y-131400000D01*
X132710000Y-131400000D02*
X133860000Y-130250000D01*
X131550000Y-131400000D02*
X132710000Y-131400000D01*
X117475000Y-143025000D02*
X117475000Y-149475000D01*
X117475000Y-149475000D02*
X117230000Y-149720000D01*
X120710000Y-143750000D02*
X118200000Y-143750000D01*
X117175000Y-140100000D02*
X117175000Y-139800000D01*
X117475000Y-140400000D02*
X117175000Y-140100000D01*
X117475000Y-143025000D02*
X117475000Y-140400000D01*
X118200000Y-143750000D02*
X117475000Y-143025000D01*
X112975000Y-139325000D02*
X116700000Y-139325000D01*
X116700000Y-139325000D02*
X117175000Y-139800000D01*
X117175000Y-139800000D02*
X118075000Y-140700000D01*
X118075000Y-140700000D02*
X119610000Y-140700000D01*
X113070000Y-139230000D02*
X113070000Y-138400000D01*
X112225000Y-140075000D02*
X112975000Y-139325000D01*
X112975000Y-139325000D02*
X113070000Y-139230000D01*
X110400000Y-140075000D02*
X112225000Y-140075000D01*
X108950000Y-138625000D02*
X110400000Y-140075000D01*
X107650000Y-138625000D02*
X108950000Y-138625000D01*
X104490000Y-135465000D02*
X107650000Y-138625000D01*
D18*
X127195000Y-153720000D02*
X126650000Y-153175000D01*
X126650000Y-153175000D02*
X121925000Y-153175000D01*
D11*
X121925000Y-153175000D02*
X120390000Y-154710000D01*
X126450000Y-143600000D02*
X126450000Y-143625000D01*
D18*
X126450000Y-143625000D02*
X122905000Y-147170000D01*
D11*
X122905000Y-147170000D02*
X122880000Y-147170000D01*
X126342500Y-135582500D02*
X126342500Y-139567500D01*
X126342500Y-139567500D02*
X125410000Y-140500000D01*
X130120000Y-130230000D02*
X130120000Y-133130000D01*
X126342500Y-135582500D02*
X124720000Y-133960000D01*
X140680000Y-130270000D02*
X130160000Y-130270000D01*
X130160000Y-130270000D02*
X130120000Y-130230000D01*
X130120000Y-130230000D02*
X133840000Y-130230000D01*
X133840000Y-130230000D02*
X133880000Y-130270000D01*
X133880000Y-130270000D02*
X140680000Y-130270000D01*
X117230000Y-154710000D02*
X117230000Y-149720000D01*
X117230000Y-149720000D02*
X117230000Y-149695000D01*
X122400000Y-147650000D02*
X122880000Y-147170000D01*
X119275000Y-147650000D02*
X122400000Y-147650000D01*
X117230000Y-149695000D02*
X119275000Y-147650000D01*
D18*
X122880000Y-147170000D02*
X122880000Y-144980000D01*
D11*
X121160000Y-144200000D02*
X120710000Y-143750000D01*
X122100000Y-144200000D02*
X121160000Y-144200000D01*
X122880000Y-144980000D02*
X122100000Y-144200000D01*
X127570000Y-153720000D02*
X127550000Y-153740000D01*
X118000000Y-156900000D02*
X117990000Y-156900000D01*
X118020000Y-156880000D02*
X118000000Y-156900000D01*
X122880000Y-147170000D02*
X122860000Y-147150000D01*
X113080000Y-138390000D02*
X113100000Y-138390000D01*
X113070000Y-138400000D02*
X113080000Y-138390000D01*
X111530000Y-154890000D02*
X111530000Y-154880000D01*
X117230000Y-154710000D02*
X117230000Y-154720000D01*
D19*
G36*
X117150000Y-126383000D02*
X117150000Y-126683000D01*
X118058000Y-126683000D01*
X118058000Y-126663000D01*
X118312000Y-126663000D01*
X118312000Y-126683000D01*
X119220000Y-126683000D01*
X119220000Y-126383000D01*
X119124068Y-126092000D01*
X126225932Y-126092000D01*
X126130000Y-126383000D01*
X126130000Y-126683000D01*
X127038000Y-126683000D01*
X127038000Y-126663000D01*
X127292000Y-126663000D01*
X127292000Y-126683000D01*
X128200000Y-126683000D01*
X128200000Y-126383000D01*
X128107365Y-126102000D01*
X142118000Y-126102000D01*
X142118000Y-135005700D01*
X142116309Y-135005000D01*
X141425750Y-135005000D01*
X141267000Y-135163750D01*
X141267000Y-136363000D01*
X141287000Y-136363000D01*
X141287000Y-136617000D01*
X141267000Y-136617000D01*
X141267000Y-136637000D01*
X141013000Y-136637000D01*
X141013000Y-136617000D01*
X139813750Y-136617000D01*
X139655000Y-136775750D01*
X139655000Y-137466310D01*
X139751673Y-137699699D01*
X139930302Y-137878327D01*
X140163691Y-137975000D01*
X140528776Y-137975000D01*
X140248342Y-138162380D01*
X139982362Y-138560447D01*
X139888962Y-139030000D01*
X139982362Y-139499553D01*
X140248342Y-139897620D01*
X140646409Y-140163600D01*
X141115962Y-140257000D01*
X141164038Y-140257000D01*
X141633591Y-140163600D01*
X142031658Y-139897620D01*
X142118000Y-139768400D01*
X142118000Y-140831600D01*
X142031658Y-140702380D01*
X141633591Y-140436400D01*
X141164038Y-140343000D01*
X141115962Y-140343000D01*
X140646409Y-140436400D01*
X140248342Y-140702380D01*
X139982362Y-141100447D01*
X139888962Y-141570000D01*
X139982362Y-142039553D01*
X140248342Y-142437620D01*
X140646409Y-142703600D01*
X141115962Y-142797000D01*
X141164038Y-142797000D01*
X141633591Y-142703600D01*
X142031658Y-142437620D01*
X142118000Y-142308400D01*
X142118000Y-143371600D01*
X142031658Y-143242380D01*
X141633591Y-142976400D01*
X141164038Y-142883000D01*
X141115962Y-142883000D01*
X140646409Y-142976400D01*
X140248342Y-143242380D01*
X139982362Y-143640447D01*
X139888962Y-144110000D01*
X139982362Y-144579553D01*
X140248342Y-144977620D01*
X140646409Y-145243600D01*
X141115962Y-145337000D01*
X141164038Y-145337000D01*
X141633591Y-145243600D01*
X142031658Y-144977620D01*
X142118000Y-144848400D01*
X142118000Y-145911600D01*
X142031658Y-145782380D01*
X141633591Y-145516400D01*
X141164038Y-145423000D01*
X141115962Y-145423000D01*
X140646409Y-145516400D01*
X140248342Y-145782380D01*
X139982362Y-146180447D01*
X139888962Y-146650000D01*
X139982362Y-147119553D01*
X140248342Y-147517620D01*
X140646409Y-147783600D01*
X141115962Y-147877000D01*
X141164038Y-147877000D01*
X141633591Y-147783600D01*
X142031658Y-147517620D01*
X142118000Y-147388400D01*
X142118000Y-148451600D01*
X142031658Y-148322380D01*
X141633591Y-148056400D01*
X141164038Y-147963000D01*
X141115962Y-147963000D01*
X140646409Y-148056400D01*
X140248342Y-148322380D01*
X139982362Y-148720447D01*
X139888962Y-149190000D01*
X139982362Y-149659553D01*
X140248342Y-150057620D01*
X140646409Y-150323600D01*
X141115962Y-150417000D01*
X141164038Y-150417000D01*
X141633591Y-150323600D01*
X142031658Y-150057620D01*
X142118000Y-149928400D01*
X142118000Y-157223439D01*
X133589858Y-157233000D01*
X133543841Y-157241685D01*
X133501447Y-157268965D01*
X133473006Y-157310590D01*
X133463000Y-157360000D01*
X133463000Y-161748000D01*
X103032000Y-161748000D01*
X103032000Y-160993779D01*
X111472857Y-160993779D01*
X111598495Y-161297846D01*
X111830930Y-161530688D01*
X112134778Y-161656856D01*
X112463779Y-161657143D01*
X112767846Y-161531505D01*
X113000688Y-161299070D01*
X113126856Y-160995222D01*
X113126857Y-160993779D01*
X114472857Y-160993779D01*
X114598495Y-161297846D01*
X114830930Y-161530688D01*
X115134778Y-161656856D01*
X115463779Y-161657143D01*
X115767846Y-161531505D01*
X116000688Y-161299070D01*
X116126856Y-160995222D01*
X116127143Y-160666221D01*
X116001505Y-160362154D01*
X115769070Y-160129312D01*
X115465222Y-160003144D01*
X115136221Y-160002857D01*
X114832154Y-160128495D01*
X114599312Y-160360930D01*
X114473144Y-160664778D01*
X114472857Y-160993779D01*
X113126857Y-160993779D01*
X113127143Y-160666221D01*
X113001505Y-160362154D01*
X112769070Y-160129312D01*
X112465222Y-160003144D01*
X112136221Y-160002857D01*
X111832154Y-160128495D01*
X111599312Y-160360930D01*
X111473144Y-160664778D01*
X111472857Y-160993779D01*
X103032000Y-160993779D01*
X103032000Y-159418432D01*
X103118355Y-159626924D01*
X103508642Y-160055183D01*
X104033108Y-160301486D01*
X104263000Y-160180819D01*
X104263000Y-158987000D01*
X104243000Y-158987000D01*
X104243000Y-158733000D01*
X104263000Y-158733000D01*
X104263000Y-158713000D01*
X104517000Y-158713000D01*
X104517000Y-158733000D01*
X104537000Y-158733000D01*
X104537000Y-158987000D01*
X104517000Y-158987000D01*
X104517000Y-160180819D01*
X104746892Y-160301486D01*
X105271358Y-160055183D01*
X105661645Y-159626924D01*
X105780048Y-159341056D01*
X106038342Y-159727620D01*
X106436409Y-159993600D01*
X106905962Y-160087000D01*
X106954038Y-160087000D01*
X107423591Y-159993600D01*
X107587509Y-159884073D01*
X120072883Y-159884073D01*
X120175733Y-160132989D01*
X120366010Y-160323598D01*
X120614746Y-160426882D01*
X120884073Y-160427117D01*
X121132989Y-160324267D01*
X121323598Y-160133990D01*
X121426882Y-159885254D01*
X121427117Y-159615927D01*
X121324267Y-159367011D01*
X121133990Y-159176402D01*
X120885254Y-159073118D01*
X120615927Y-159072883D01*
X120367011Y-159175733D01*
X120176402Y-159366010D01*
X120073118Y-159614746D01*
X120072883Y-159884073D01*
X107587509Y-159884073D01*
X107821658Y-159727620D01*
X108087638Y-159329553D01*
X108146412Y-159034073D01*
X121497883Y-159034073D01*
X121600733Y-159282989D01*
X121791010Y-159473598D01*
X122039746Y-159576882D01*
X122223055Y-159577042D01*
X122222883Y-159774073D01*
X122325733Y-160022989D01*
X122516010Y-160213598D01*
X122764746Y-160316882D01*
X123034073Y-160317117D01*
X123282989Y-160214267D01*
X123473598Y-160023990D01*
X123576882Y-159775254D01*
X123577117Y-159505927D01*
X123474267Y-159257011D01*
X123283990Y-159066402D01*
X123035254Y-158963118D01*
X122851945Y-158962958D01*
X122852117Y-158765927D01*
X122749267Y-158517011D01*
X122558990Y-158326402D01*
X122310254Y-158223118D01*
X122040927Y-158222883D01*
X121792011Y-158325733D01*
X121601402Y-158516010D01*
X121498118Y-158764746D01*
X121497883Y-159034073D01*
X108146412Y-159034073D01*
X108181038Y-158860000D01*
X108087638Y-158390447D01*
X107821658Y-157992380D01*
X107423591Y-157726400D01*
X106954038Y-157633000D01*
X106905962Y-157633000D01*
X106436409Y-157726400D01*
X106038342Y-157992380D01*
X105780048Y-158378944D01*
X105661645Y-158093076D01*
X105271358Y-157664817D01*
X104840046Y-157462262D01*
X104883591Y-157453600D01*
X105281658Y-157187620D01*
X105547638Y-156789553D01*
X105641038Y-156320000D01*
X105678962Y-156320000D01*
X105772362Y-156789553D01*
X106038342Y-157187620D01*
X106436409Y-157453600D01*
X106905962Y-157547000D01*
X106954038Y-157547000D01*
X107423591Y-157453600D01*
X107821658Y-157187620D01*
X108024481Y-156884073D01*
X110082883Y-156884073D01*
X110185733Y-157132989D01*
X110376010Y-157323598D01*
X110624746Y-157426882D01*
X110894073Y-157427117D01*
X111142989Y-157324267D01*
X111333598Y-157133990D01*
X111436882Y-156885254D01*
X111437117Y-156615927D01*
X111334267Y-156367011D01*
X111143990Y-156176402D01*
X110895254Y-156073118D01*
X110625927Y-156072883D01*
X110377011Y-156175733D01*
X110186402Y-156366010D01*
X110083118Y-156614746D01*
X110082883Y-156884073D01*
X108024481Y-156884073D01*
X108087638Y-156789553D01*
X108181038Y-156320000D01*
X108087638Y-155850447D01*
X107821658Y-155452380D01*
X107423591Y-155186400D01*
X106954038Y-155093000D01*
X106905962Y-155093000D01*
X106436409Y-155186400D01*
X106038342Y-155452380D01*
X105772362Y-155850447D01*
X105678962Y-156320000D01*
X105641038Y-156320000D01*
X105547638Y-155850447D01*
X105281658Y-155452380D01*
X104883591Y-155186400D01*
X104414038Y-155093000D01*
X104365962Y-155093000D01*
X103896409Y-155186400D01*
X103498342Y-155452380D01*
X103232362Y-155850447D01*
X103138962Y-156320000D01*
X103232362Y-156789553D01*
X103498342Y-157187620D01*
X103896409Y-157453600D01*
X103939954Y-157462262D01*
X103508642Y-157664817D01*
X103118355Y-158093076D01*
X103032000Y-158301568D01*
X103032000Y-153780000D01*
X103138962Y-153780000D01*
X103232362Y-154249553D01*
X103498342Y-154647620D01*
X103896409Y-154913600D01*
X104365962Y-155007000D01*
X104414038Y-155007000D01*
X104883591Y-154913600D01*
X105281658Y-154647620D01*
X105547638Y-154249553D01*
X105641038Y-153780000D01*
X105678962Y-153780000D01*
X105772362Y-154249553D01*
X106038342Y-154647620D01*
X106436409Y-154913600D01*
X106905962Y-155007000D01*
X106954038Y-155007000D01*
X107423591Y-154913600D01*
X107821658Y-154647620D01*
X108087638Y-154249553D01*
X108181038Y-153780000D01*
X108087638Y-153310447D01*
X107821658Y-152912380D01*
X107423591Y-152646400D01*
X106954038Y-152553000D01*
X106905962Y-152553000D01*
X106436409Y-152646400D01*
X106038342Y-152912380D01*
X105772362Y-153310447D01*
X105678962Y-153780000D01*
X105641038Y-153780000D01*
X105547638Y-153310447D01*
X105281658Y-152912380D01*
X104883591Y-152646400D01*
X104414038Y-152553000D01*
X104365962Y-152553000D01*
X103896409Y-152646400D01*
X103498342Y-152912380D01*
X103232362Y-153310447D01*
X103138962Y-153780000D01*
X103032000Y-153780000D01*
X103032000Y-151240000D01*
X103138962Y-151240000D01*
X103232362Y-151709553D01*
X103498342Y-152107620D01*
X103896409Y-152373600D01*
X104365962Y-152467000D01*
X104414038Y-152467000D01*
X104883591Y-152373600D01*
X105281658Y-152107620D01*
X105547638Y-151709553D01*
X105641038Y-151240000D01*
X105678962Y-151240000D01*
X105772362Y-151709553D01*
X106038342Y-152107620D01*
X106436409Y-152373600D01*
X106905962Y-152467000D01*
X106954038Y-152467000D01*
X107423591Y-152373600D01*
X107821658Y-152107620D01*
X108087638Y-151709553D01*
X108181038Y-151240000D01*
X108171903Y-151194073D01*
X109572883Y-151194073D01*
X109675733Y-151442989D01*
X109866010Y-151633598D01*
X110114746Y-151736882D01*
X110384073Y-151737117D01*
X110632989Y-151634267D01*
X110823598Y-151443990D01*
X110926882Y-151195254D01*
X110927117Y-150925927D01*
X110824267Y-150677011D01*
X110633990Y-150486402D01*
X110385254Y-150383118D01*
X110115927Y-150382883D01*
X109867011Y-150485733D01*
X109676402Y-150676010D01*
X109573118Y-150924746D01*
X109572883Y-151194073D01*
X108171903Y-151194073D01*
X108087638Y-150770447D01*
X107821658Y-150372380D01*
X107423591Y-150106400D01*
X106954038Y-150013000D01*
X106905962Y-150013000D01*
X106436409Y-150106400D01*
X106038342Y-150372380D01*
X105772362Y-150770447D01*
X105678962Y-151240000D01*
X105641038Y-151240000D01*
X105547638Y-150770447D01*
X105281658Y-150372380D01*
X104883591Y-150106400D01*
X104414038Y-150013000D01*
X104365962Y-150013000D01*
X103896409Y-150106400D01*
X103498342Y-150372380D01*
X103232362Y-150770447D01*
X103138962Y-151240000D01*
X103032000Y-151240000D01*
X103032000Y-148700000D01*
X103138962Y-148700000D01*
X103232362Y-149169553D01*
X103498342Y-149567620D01*
X103896409Y-149833600D01*
X104365962Y-149927000D01*
X104414038Y-149927000D01*
X104883591Y-149833600D01*
X105281658Y-149567620D01*
X105547638Y-149169553D01*
X105641038Y-148700000D01*
X105678962Y-148700000D01*
X105772362Y-149169553D01*
X106038342Y-149567620D01*
X106436409Y-149833600D01*
X106905962Y-149927000D01*
X106954038Y-149927000D01*
X107423591Y-149833600D01*
X107821658Y-149567620D01*
X108087638Y-149169553D01*
X108181038Y-148700000D01*
X108087638Y-148230447D01*
X107821658Y-147832380D01*
X107423591Y-147566400D01*
X106954038Y-147473000D01*
X106905962Y-147473000D01*
X106436409Y-147566400D01*
X106038342Y-147832380D01*
X105772362Y-148230447D01*
X105678962Y-148700000D01*
X105641038Y-148700000D01*
X105547638Y-148230447D01*
X105281658Y-147832380D01*
X104883591Y-147566400D01*
X104414038Y-147473000D01*
X104365962Y-147473000D01*
X103896409Y-147566400D01*
X103498342Y-147832380D01*
X103232362Y-148230447D01*
X103138962Y-148700000D01*
X103032000Y-148700000D01*
X103032000Y-147424073D01*
X109202883Y-147424073D01*
X109305733Y-147672989D01*
X109496010Y-147863598D01*
X109744746Y-147966882D01*
X110014073Y-147967117D01*
X110262989Y-147864267D01*
X110453598Y-147673990D01*
X110556882Y-147425254D01*
X110557117Y-147155927D01*
X110454267Y-146907011D01*
X110263990Y-146716402D01*
X110015254Y-146613118D01*
X109745927Y-146612883D01*
X109497011Y-146715733D01*
X109306402Y-146906010D01*
X109203118Y-147154746D01*
X109202883Y-147424073D01*
X103032000Y-147424073D01*
X103032000Y-146160000D01*
X103138962Y-146160000D01*
X103232362Y-146629553D01*
X103498342Y-147027620D01*
X103896409Y-147293600D01*
X104365962Y-147387000D01*
X104414038Y-147387000D01*
X104883591Y-147293600D01*
X105281658Y-147027620D01*
X105547638Y-146629553D01*
X105641038Y-146160000D01*
X105678962Y-146160000D01*
X105772362Y-146629553D01*
X106038342Y-147027620D01*
X106436409Y-147293600D01*
X106905962Y-147387000D01*
X106954038Y-147387000D01*
X107423591Y-147293600D01*
X107821658Y-147027620D01*
X108087638Y-146629553D01*
X108168721Y-146221923D01*
X108204746Y-146236882D01*
X108474073Y-146237117D01*
X108722989Y-146134267D01*
X108913598Y-145943990D01*
X109016882Y-145695254D01*
X109017117Y-145425927D01*
X109016351Y-145424073D01*
X110542883Y-145424073D01*
X110645733Y-145672989D01*
X110836010Y-145863598D01*
X111084746Y-145966882D01*
X111354073Y-145967117D01*
X111602989Y-145864267D01*
X111793598Y-145673990D01*
X111896882Y-145425254D01*
X111897117Y-145155927D01*
X111794267Y-144907011D01*
X111603990Y-144716402D01*
X111355254Y-144613118D01*
X111085927Y-144612883D01*
X110837011Y-144715733D01*
X110646402Y-144906010D01*
X110543118Y-145154746D01*
X110542883Y-145424073D01*
X109016351Y-145424073D01*
X108965377Y-145300706D01*
X109124746Y-145366882D01*
X109394073Y-145367117D01*
X109642989Y-145264267D01*
X109833598Y-145073990D01*
X109936882Y-144825254D01*
X109937117Y-144555927D01*
X109834267Y-144307011D01*
X109643990Y-144116402D01*
X109395254Y-144013118D01*
X109125927Y-144012883D01*
X108877011Y-144115733D01*
X108686402Y-144306010D01*
X108583118Y-144554746D01*
X108582883Y-144824073D01*
X108634623Y-144949294D01*
X108475254Y-144883118D01*
X108205927Y-144882883D01*
X107957011Y-144985733D01*
X107766402Y-145176010D01*
X107740577Y-145238203D01*
X107423591Y-145026400D01*
X106954038Y-144933000D01*
X106905962Y-144933000D01*
X106436409Y-145026400D01*
X106038342Y-145292380D01*
X105772362Y-145690447D01*
X105678962Y-146160000D01*
X105641038Y-146160000D01*
X105547638Y-145690447D01*
X105281658Y-145292380D01*
X104883591Y-145026400D01*
X104414038Y-144933000D01*
X104365962Y-144933000D01*
X103896409Y-145026400D01*
X103498342Y-145292380D01*
X103232362Y-145690447D01*
X103138962Y-146160000D01*
X103032000Y-146160000D01*
X103032000Y-143620000D01*
X103138962Y-143620000D01*
X103232362Y-144089553D01*
X103498342Y-144487620D01*
X103896409Y-144753600D01*
X104365962Y-144847000D01*
X104414038Y-144847000D01*
X104883591Y-144753600D01*
X105281658Y-144487620D01*
X105547638Y-144089553D01*
X105641038Y-143620000D01*
X105678962Y-143620000D01*
X105772362Y-144089553D01*
X106038342Y-144487620D01*
X106436409Y-144753600D01*
X106905962Y-144847000D01*
X106954038Y-144847000D01*
X107423591Y-144753600D01*
X107821658Y-144487620D01*
X108087638Y-144089553D01*
X108181038Y-143620000D01*
X108087638Y-143150447D01*
X107821658Y-142752380D01*
X107719430Y-142684073D01*
X108382883Y-142684073D01*
X108485733Y-142932989D01*
X108676010Y-143123598D01*
X108924746Y-143226882D01*
X109194073Y-143227117D01*
X109442989Y-143124267D01*
X109633598Y-142933990D01*
X109736882Y-142685254D01*
X109737117Y-142415927D01*
X109634267Y-142167011D01*
X109522728Y-142055277D01*
X109742989Y-141964267D01*
X109933598Y-141773990D01*
X110036882Y-141525254D01*
X110037117Y-141255927D01*
X109934267Y-141007011D01*
X109743990Y-140816402D01*
X109495254Y-140713118D01*
X109225927Y-140712883D01*
X108977011Y-140815733D01*
X108786402Y-141006010D01*
X108683118Y-141254746D01*
X108682883Y-141524073D01*
X108785733Y-141772989D01*
X108897272Y-141884723D01*
X108677011Y-141975733D01*
X108486402Y-142166010D01*
X108383118Y-142414746D01*
X108382883Y-142684073D01*
X107719430Y-142684073D01*
X107423591Y-142486400D01*
X106954038Y-142393000D01*
X106905962Y-142393000D01*
X106436409Y-142486400D01*
X106038342Y-142752380D01*
X105772362Y-143150447D01*
X105678962Y-143620000D01*
X105641038Y-143620000D01*
X105547638Y-143150447D01*
X105281658Y-142752380D01*
X104883591Y-142486400D01*
X104414038Y-142393000D01*
X104365962Y-142393000D01*
X103896409Y-142486400D01*
X103498342Y-142752380D01*
X103232362Y-143150447D01*
X103138962Y-143620000D01*
X103032000Y-143620000D01*
X103032000Y-140230000D01*
X103155615Y-140230000D01*
X103155615Y-141930000D01*
X103181903Y-142069708D01*
X103264470Y-142198020D01*
X103390453Y-142284101D01*
X103540000Y-142314385D01*
X105240000Y-142314385D01*
X105379708Y-142288097D01*
X105508020Y-142205530D01*
X105594101Y-142079547D01*
X105624385Y-141930000D01*
X105624385Y-141080000D01*
X105678962Y-141080000D01*
X105772362Y-141549553D01*
X106038342Y-141947620D01*
X106436409Y-142213600D01*
X106905962Y-142307000D01*
X106954038Y-142307000D01*
X107423591Y-142213600D01*
X107821658Y-141947620D01*
X108087638Y-141549553D01*
X108181038Y-141080000D01*
X108087638Y-140610447D01*
X107821658Y-140212380D01*
X107423591Y-139946400D01*
X106954038Y-139853000D01*
X106905962Y-139853000D01*
X106436409Y-139946400D01*
X106038342Y-140212380D01*
X105772362Y-140610447D01*
X105678962Y-141080000D01*
X105624385Y-141080000D01*
X105624385Y-140230000D01*
X105598097Y-140090292D01*
X105515530Y-139961980D01*
X105389547Y-139875899D01*
X105240000Y-139845615D01*
X103540000Y-139845615D01*
X103400292Y-139871903D01*
X103271980Y-139954470D01*
X103185899Y-140080453D01*
X103155615Y-140230000D01*
X103032000Y-140230000D01*
X103032000Y-130370000D01*
X103238962Y-130370000D01*
X103332362Y-130839553D01*
X103598342Y-131237620D01*
X103963000Y-131481277D01*
X103963000Y-135465000D01*
X104003115Y-135666675D01*
X104117355Y-135837645D01*
X107277355Y-138997645D01*
X107448325Y-139111885D01*
X107650000Y-139152000D01*
X108731710Y-139152000D01*
X110027355Y-140447646D01*
X110198326Y-140561885D01*
X110400000Y-140602000D01*
X112225000Y-140602000D01*
X112426675Y-140561885D01*
X112597645Y-140447645D01*
X113268290Y-139777000D01*
X116406710Y-139777000D01*
X116723000Y-140093291D01*
X116723000Y-140100000D01*
X116757406Y-140272973D01*
X116855388Y-140419612D01*
X116910500Y-140474724D01*
X116910500Y-148473000D01*
X115300000Y-148473000D01*
X115127090Y-148507393D01*
X115127117Y-148475927D01*
X115024267Y-148227011D01*
X114833990Y-148036402D01*
X114585254Y-147933118D01*
X114315927Y-147932883D01*
X114067011Y-148035733D01*
X113876402Y-148226010D01*
X113773118Y-148474746D01*
X113772883Y-148744073D01*
X113875733Y-148992989D01*
X114066010Y-149183598D01*
X114293480Y-149278052D01*
X114213115Y-149398325D01*
X114190553Y-149511756D01*
X114025254Y-149443118D01*
X113755927Y-149442883D01*
X113507011Y-149545733D01*
X113316402Y-149736010D01*
X113213118Y-149984746D01*
X113212883Y-150254073D01*
X113315733Y-150502989D01*
X113324903Y-150512175D01*
X113227355Y-150577355D01*
X111157355Y-152647355D01*
X111043115Y-152818325D01*
X111012284Y-152973325D01*
X111003000Y-153020000D01*
X111003000Y-154459493D01*
X110956402Y-154506010D01*
X110853118Y-154754746D01*
X110852883Y-155024073D01*
X110955733Y-155272989D01*
X111146010Y-155463598D01*
X111394746Y-155566882D01*
X111621790Y-155567080D01*
X112427355Y-156372645D01*
X112598325Y-156486885D01*
X112631785Y-156493540D01*
X112716140Y-156510319D01*
X112727027Y-156517594D01*
X112900000Y-156552000D01*
X115840000Y-156552000D01*
X116012973Y-156517594D01*
X116023860Y-156510319D01*
X116141675Y-156486885D01*
X116312645Y-156372645D01*
X116703000Y-155982290D01*
X116703000Y-156090000D01*
X116743115Y-156291675D01*
X116857355Y-156462645D01*
X117342940Y-156948230D01*
X117342883Y-157014073D01*
X117445733Y-157262989D01*
X117636010Y-157453598D01*
X117884746Y-157556882D01*
X118154073Y-157557117D01*
X118402989Y-157454267D01*
X118593598Y-157263990D01*
X118626782Y-157184073D01*
X119397883Y-157184073D01*
X119500733Y-157432989D01*
X119691010Y-157623598D01*
X119939746Y-157726882D01*
X120209073Y-157727117D01*
X120457989Y-157624267D01*
X120648598Y-157433990D01*
X120751882Y-157185254D01*
X120751970Y-157084073D01*
X121247883Y-157084073D01*
X121350733Y-157332989D01*
X121541010Y-157523598D01*
X121789746Y-157626882D01*
X122059073Y-157627117D01*
X122307989Y-157524267D01*
X122498598Y-157333990D01*
X122601882Y-157085254D01*
X122602117Y-156815927D01*
X122499267Y-156567011D01*
X122308990Y-156376402D01*
X122060254Y-156273118D01*
X121790927Y-156272883D01*
X121542011Y-156375733D01*
X121351402Y-156566010D01*
X121248118Y-156814746D01*
X121247883Y-157084073D01*
X120751970Y-157084073D01*
X120752117Y-156915927D01*
X120649267Y-156667011D01*
X120458990Y-156476402D01*
X120210254Y-156373118D01*
X119940927Y-156372883D01*
X119692011Y-156475733D01*
X119501402Y-156666010D01*
X119398118Y-156914746D01*
X119397883Y-157184073D01*
X118626782Y-157184073D01*
X118696882Y-157015254D01*
X118697117Y-156745927D01*
X118594267Y-156497011D01*
X118403990Y-156306402D01*
X118155254Y-156203118D01*
X118088350Y-156203060D01*
X117894363Y-156009073D01*
X123922883Y-156009073D01*
X124025733Y-156257989D01*
X124216010Y-156448598D01*
X124464746Y-156551882D01*
X124734073Y-156552117D01*
X124982989Y-156449267D01*
X125173598Y-156258990D01*
X125276882Y-156010254D01*
X125277117Y-155740927D01*
X125174267Y-155492011D01*
X124983990Y-155301402D01*
X124966340Y-155294073D01*
X125222883Y-155294073D01*
X125325733Y-155542989D01*
X125516010Y-155733598D01*
X125722995Y-155819546D01*
X125587011Y-155875733D01*
X125396402Y-156066010D01*
X125293118Y-156314746D01*
X125292883Y-156584073D01*
X125395733Y-156832989D01*
X125586010Y-157023598D01*
X125834746Y-157126882D01*
X126104073Y-157127117D01*
X126352989Y-157024267D01*
X126493427Y-156884073D01*
X127497883Y-156884073D01*
X127600733Y-157132989D01*
X127791010Y-157323598D01*
X128039746Y-157426882D01*
X128309073Y-157427117D01*
X128557989Y-157324267D01*
X128748598Y-157133990D01*
X128851882Y-156885254D01*
X128852117Y-156615927D01*
X128749267Y-156367011D01*
X128566648Y-156184073D01*
X128922883Y-156184073D01*
X129025733Y-156432989D01*
X129216010Y-156623598D01*
X129464746Y-156726882D01*
X129734073Y-156727117D01*
X129982989Y-156624267D01*
X130173598Y-156433990D01*
X130276882Y-156185254D01*
X130277117Y-155915927D01*
X130271143Y-155901470D01*
X130457989Y-155824267D01*
X130648598Y-155633990D01*
X130731610Y-155434073D01*
X132922883Y-155434073D01*
X133025733Y-155682989D01*
X133216010Y-155873598D01*
X133464746Y-155976882D01*
X133734073Y-155977117D01*
X133982989Y-155874267D01*
X134173598Y-155683990D01*
X134276882Y-155435254D01*
X134277117Y-155165927D01*
X134174267Y-154917011D01*
X133983990Y-154726402D01*
X133735254Y-154623118D01*
X133465927Y-154622883D01*
X133217011Y-154725733D01*
X133026402Y-154916010D01*
X132923118Y-155164746D01*
X132922883Y-155434073D01*
X130731610Y-155434073D01*
X130751882Y-155385254D01*
X130752117Y-155115927D01*
X130649267Y-154867011D01*
X130458990Y-154676402D01*
X130210254Y-154573118D01*
X129940927Y-154572883D01*
X129692011Y-154675733D01*
X129501402Y-154866010D01*
X129398118Y-155114746D01*
X129397883Y-155384073D01*
X129403857Y-155398530D01*
X129217011Y-155475733D01*
X129026402Y-155666010D01*
X128923118Y-155914746D01*
X128922883Y-156184073D01*
X128566648Y-156184073D01*
X128558990Y-156176402D01*
X128310254Y-156073118D01*
X128040927Y-156072883D01*
X127792011Y-156175733D01*
X127601402Y-156366010D01*
X127498118Y-156614746D01*
X127497883Y-156884073D01*
X126493427Y-156884073D01*
X126543598Y-156833990D01*
X126646882Y-156585254D01*
X126647117Y-156315927D01*
X126544267Y-156067011D01*
X126353990Y-155876402D01*
X126147005Y-155790454D01*
X126282989Y-155734267D01*
X126473598Y-155543990D01*
X126576882Y-155295254D01*
X126577117Y-155025927D01*
X126514071Y-154873344D01*
X126613598Y-154773990D01*
X126716882Y-154525254D01*
X126717117Y-154255927D01*
X126614267Y-154007011D01*
X126423990Y-153816402D01*
X126175254Y-153713118D01*
X125905927Y-153712883D01*
X125657011Y-153815733D01*
X125466402Y-154006010D01*
X125363118Y-154254746D01*
X125362883Y-154524073D01*
X125425929Y-154676656D01*
X125326402Y-154776010D01*
X125223118Y-155024746D01*
X125222883Y-155294073D01*
X124966340Y-155294073D01*
X124735254Y-155198118D01*
X124465927Y-155197883D01*
X124217011Y-155300733D01*
X124026402Y-155491010D01*
X123923118Y-155739746D01*
X123922883Y-156009073D01*
X117894363Y-156009073D01*
X117757000Y-155871710D01*
X117757000Y-155237000D01*
X120390000Y-155237000D01*
X120591675Y-155196885D01*
X120762645Y-155082645D01*
X122143290Y-153702000D01*
X126431710Y-153702000D01*
X126822354Y-154092645D01*
X126913577Y-154153598D01*
X126993326Y-154206885D01*
X127125741Y-154233224D01*
X127186010Y-154293598D01*
X127434746Y-154396882D01*
X127704073Y-154397117D01*
X127952989Y-154294267D01*
X128000338Y-154247000D01*
X129755000Y-154247000D01*
X129956675Y-154206885D01*
X130127645Y-154092645D01*
X132547645Y-151672645D01*
X132661885Y-151501675D01*
X132702000Y-151300000D01*
X132702000Y-150304073D01*
X135222883Y-150304073D01*
X135325733Y-150552989D01*
X135516010Y-150743598D01*
X135764746Y-150846882D01*
X136034073Y-150847117D01*
X136282989Y-150744267D01*
X136473598Y-150553990D01*
X136576882Y-150305254D01*
X136577113Y-150040000D01*
X136615615Y-150040000D01*
X136615615Y-151740000D01*
X136641903Y-151879708D01*
X136724470Y-152008020D01*
X136850453Y-152094101D01*
X137000000Y-152124385D01*
X138700000Y-152124385D01*
X138839708Y-152098097D01*
X138968020Y-152015530D01*
X139054101Y-151889547D01*
X139084385Y-151740000D01*
X139084385Y-151270000D01*
X139365615Y-151270000D01*
X139365615Y-152970000D01*
X139391903Y-153109708D01*
X139474470Y-153238020D01*
X139600453Y-153324101D01*
X139750000Y-153354385D01*
X141450000Y-153354385D01*
X141589708Y-153328097D01*
X141718020Y-153245530D01*
X141804101Y-153119547D01*
X141834385Y-152970000D01*
X141834385Y-151270000D01*
X141808097Y-151130292D01*
X141725530Y-151001980D01*
X141599547Y-150915899D01*
X141450000Y-150885615D01*
X139750000Y-150885615D01*
X139610292Y-150911903D01*
X139481980Y-150994470D01*
X139395899Y-151120453D01*
X139365615Y-151270000D01*
X139084385Y-151270000D01*
X139084385Y-150040000D01*
X139058097Y-149900292D01*
X138975530Y-149771980D01*
X138849547Y-149685899D01*
X138700000Y-149655615D01*
X137000000Y-149655615D01*
X136860292Y-149681903D01*
X136731980Y-149764470D01*
X136645899Y-149890453D01*
X136615615Y-150040000D01*
X136577113Y-150040000D01*
X136577117Y-150035927D01*
X136474267Y-149787011D01*
X136283990Y-149596402D01*
X136035254Y-149493118D01*
X135765927Y-149492883D01*
X135517011Y-149595733D01*
X135326402Y-149786010D01*
X135223118Y-150034746D01*
X135222883Y-150304073D01*
X132702000Y-150304073D01*
X132702000Y-150118290D01*
X135296217Y-147524073D01*
X136702883Y-147524073D01*
X136805733Y-147772989D01*
X136996010Y-147963598D01*
X137244746Y-148066882D01*
X137514073Y-148067117D01*
X137762989Y-147964267D01*
X137953598Y-147773990D01*
X138056882Y-147525254D01*
X138057117Y-147255927D01*
X137954267Y-147007011D01*
X137763990Y-146816402D01*
X137515254Y-146713118D01*
X137245927Y-146712883D01*
X136997011Y-146815733D01*
X136806402Y-147006010D01*
X136703118Y-147254746D01*
X136702883Y-147524073D01*
X135296217Y-147524073D01*
X138630808Y-144189482D01*
X138533118Y-144424746D01*
X138532883Y-144694073D01*
X138635733Y-144942989D01*
X138826010Y-145133598D01*
X139074746Y-145236882D01*
X139344073Y-145237117D01*
X139592989Y-145134267D01*
X139783598Y-144943990D01*
X139886882Y-144695254D01*
X139887117Y-144425927D01*
X139784267Y-144177011D01*
X139593990Y-143986402D01*
X139345254Y-143883118D01*
X139075927Y-143882883D01*
X138839870Y-143980420D01*
X139022645Y-143797645D01*
X139136885Y-143626675D01*
X139177000Y-143425000D01*
X139177000Y-135513690D01*
X139655000Y-135513690D01*
X139655000Y-136204250D01*
X139813750Y-136363000D01*
X141013000Y-136363000D01*
X141013000Y-135163750D01*
X140854250Y-135005000D01*
X140163691Y-135005000D01*
X139930302Y-135101673D01*
X139751673Y-135280301D01*
X139655000Y-135513690D01*
X139177000Y-135513690D01*
X139177000Y-134468290D01*
X141052646Y-132592645D01*
X141166885Y-132421674D01*
X141207000Y-132220000D01*
X141207000Y-131381277D01*
X141571658Y-131137620D01*
X141837638Y-130739553D01*
X141931038Y-130270000D01*
X141837638Y-129800447D01*
X141571658Y-129402380D01*
X141173591Y-129136400D01*
X140704038Y-129043000D01*
X140655962Y-129043000D01*
X140186409Y-129136400D01*
X139788342Y-129402380D01*
X139560747Y-129743000D01*
X134992617Y-129743000D01*
X134751658Y-129382380D01*
X134353591Y-129116400D01*
X133884038Y-129023000D01*
X133835962Y-129023000D01*
X133366409Y-129116400D01*
X132968342Y-129382380D01*
X132727383Y-129743000D01*
X131265980Y-129743000D01*
X131011658Y-129362380D01*
X130613591Y-129096400D01*
X130144038Y-129003000D01*
X130095962Y-129003000D01*
X129626409Y-129096400D01*
X129228342Y-129362380D01*
X128962362Y-129760447D01*
X128868962Y-130230000D01*
X128962362Y-130699553D01*
X129228342Y-131097620D01*
X129593000Y-131341277D01*
X129593000Y-132911710D01*
X127449210Y-135055500D01*
X126560791Y-135055500D01*
X126217241Y-134711950D01*
X126414024Y-134712122D01*
X126672132Y-134605474D01*
X126869780Y-134408170D01*
X126976878Y-134150249D01*
X126977041Y-133963136D01*
X127091123Y-134054666D01*
X127447053Y-133881658D01*
X127712615Y-133573410D01*
X127840000Y-133187000D01*
X127840000Y-132887000D01*
X126932000Y-132887000D01*
X126932000Y-132907000D01*
X126678000Y-132907000D01*
X126678000Y-132887000D01*
X126658000Y-132887000D01*
X126658000Y-132633000D01*
X126678000Y-132633000D01*
X126678000Y-131593002D01*
X126932000Y-131593002D01*
X126932000Y-132633000D01*
X127840000Y-132633000D01*
X127840000Y-132333000D01*
X127712615Y-131946590D01*
X127447053Y-131638342D01*
X127091123Y-131465334D01*
X126932000Y-131593002D01*
X126678000Y-131593002D01*
X126518877Y-131465334D01*
X126162947Y-131638342D01*
X125897385Y-131946590D01*
X125770000Y-132333000D01*
X125770000Y-132446393D01*
X125742806Y-132437926D01*
X125670474Y-132262868D01*
X125473170Y-132065220D01*
X125215249Y-131958122D01*
X124935976Y-131957878D01*
X124677868Y-132064526D01*
X124675168Y-132067221D01*
X124673170Y-132065220D01*
X124415249Y-131958122D01*
X124135976Y-131957878D01*
X123877868Y-132064526D01*
X123875168Y-132067221D01*
X123873170Y-132065220D01*
X123615249Y-131958122D01*
X123335976Y-131957878D01*
X123077868Y-132064526D01*
X122880220Y-132261830D01*
X122773122Y-132519751D01*
X122772942Y-132725242D01*
X122677868Y-132764526D01*
X122675168Y-132767221D01*
X122673170Y-132765220D01*
X122576944Y-132725263D01*
X122577122Y-132520976D01*
X122470474Y-132262868D01*
X122273170Y-132065220D01*
X122015249Y-131958122D01*
X121735976Y-131957878D01*
X121477868Y-132064526D01*
X121475168Y-132067221D01*
X121473170Y-132065220D01*
X121347050Y-132012850D01*
X121347117Y-131935927D01*
X121244267Y-131687011D01*
X121053990Y-131496402D01*
X120805254Y-131393118D01*
X120535927Y-131392883D01*
X120287011Y-131495733D01*
X120096402Y-131686010D01*
X119993118Y-131934746D01*
X119993046Y-132016935D01*
X119877868Y-132064526D01*
X119680220Y-132261830D01*
X119614649Y-132419742D01*
X119597738Y-132421283D01*
X119580000Y-132428630D01*
X119580000Y-132333000D01*
X119452615Y-131946590D01*
X119187053Y-131638342D01*
X118831123Y-131465334D01*
X118672000Y-131593002D01*
X118672000Y-132633000D01*
X118692000Y-132633000D01*
X118692000Y-132887000D01*
X118672000Y-132887000D01*
X118672000Y-132907000D01*
X118418000Y-132907000D01*
X118418000Y-132887000D01*
X117510000Y-132887000D01*
X117510000Y-133187000D01*
X117637385Y-133573410D01*
X117902947Y-133881658D01*
X118210517Y-134031159D01*
X118259745Y-134278644D01*
X118411919Y-134506389D01*
X118639664Y-134658563D01*
X118908308Y-134712000D01*
X119241692Y-134712000D01*
X119510336Y-134658563D01*
X119738081Y-134506389D01*
X119858991Y-134325434D01*
X120152262Y-134298717D01*
X120194001Y-134281428D01*
X120286010Y-134373598D01*
X120534746Y-134476882D01*
X120804073Y-134477117D01*
X121052989Y-134374267D01*
X121243598Y-134183990D01*
X121300252Y-134047553D01*
X121334751Y-134061878D01*
X121614024Y-134062122D01*
X121872132Y-133955474D01*
X121874832Y-133952779D01*
X121876830Y-133954780D01*
X122134751Y-134061878D01*
X122414024Y-134062122D01*
X122672132Y-133955474D01*
X122674832Y-133952779D01*
X122676830Y-133954780D01*
X122934751Y-134061878D01*
X123214024Y-134062122D01*
X123472132Y-133955474D01*
X123474832Y-133952779D01*
X123476830Y-133954780D01*
X123734751Y-134061878D01*
X124014024Y-134062122D01*
X124042921Y-134050182D01*
X124042883Y-134094073D01*
X124145733Y-134342989D01*
X124336010Y-134533598D01*
X124584746Y-134636882D01*
X124651650Y-134636940D01*
X125815500Y-135800791D01*
X125815500Y-139349210D01*
X125341770Y-139822940D01*
X125275927Y-139822883D01*
X125027011Y-139925733D01*
X124836402Y-140116010D01*
X124733118Y-140364746D01*
X124732883Y-140634073D01*
X124835733Y-140882989D01*
X125026010Y-141073598D01*
X125071587Y-141092523D01*
X124967011Y-141135733D01*
X124776402Y-141326010D01*
X124673118Y-141574746D01*
X124672883Y-141844073D01*
X124775733Y-142092989D01*
X124966010Y-142283598D01*
X125214746Y-142386882D01*
X125484073Y-142387117D01*
X125732989Y-142284267D01*
X125923000Y-142094587D01*
X125923000Y-143406710D01*
X123407000Y-145922710D01*
X123407000Y-144980000D01*
X123366885Y-144778326D01*
X123357361Y-144764073D01*
X123252646Y-144607355D01*
X122472645Y-143827355D01*
X122301675Y-143713115D01*
X122100000Y-143673000D01*
X121864537Y-143673000D01*
X121893598Y-143643990D01*
X121996882Y-143395254D01*
X121997117Y-143125927D01*
X121894267Y-142877011D01*
X121703990Y-142686402D01*
X121674299Y-142674073D01*
X123162883Y-142674073D01*
X123265733Y-142922989D01*
X123456010Y-143113598D01*
X123704746Y-143216882D01*
X123974073Y-143217117D01*
X124222989Y-143114267D01*
X124413598Y-142923990D01*
X124516882Y-142675254D01*
X124517117Y-142405927D01*
X124414267Y-142157011D01*
X124223990Y-141966402D01*
X123975254Y-141863118D01*
X123705927Y-141862883D01*
X123457011Y-141965733D01*
X123266402Y-142156010D01*
X123163118Y-142404746D01*
X123162883Y-142674073D01*
X121674299Y-142674073D01*
X121455254Y-142583118D01*
X121185927Y-142582883D01*
X120937011Y-142685733D01*
X120746402Y-142876010D01*
X120664621Y-143072960D01*
X120575927Y-143072883D01*
X120327011Y-143175733D01*
X120279662Y-143223000D01*
X119426962Y-143223000D01*
X119427117Y-143045927D01*
X119324267Y-142797011D01*
X119133990Y-142606402D01*
X118885254Y-142503118D01*
X118644809Y-142502908D01*
X118726882Y-142305254D01*
X118727117Y-142035927D01*
X118624267Y-141787011D01*
X118433990Y-141596402D01*
X118185254Y-141493118D01*
X117964500Y-141492925D01*
X117964500Y-141205021D01*
X118075000Y-141227000D01*
X119179493Y-141227000D01*
X119226010Y-141273598D01*
X119474746Y-141376882D01*
X119744073Y-141377117D01*
X119992989Y-141274267D01*
X120183598Y-141083990D01*
X120286882Y-140835254D01*
X120287117Y-140565927D01*
X120184267Y-140317011D01*
X119993990Y-140126402D01*
X119745254Y-140023118D01*
X119475927Y-140022883D01*
X119227011Y-140125733D01*
X119179662Y-140173000D01*
X118293290Y-140173000D01*
X117810148Y-139689858D01*
X117810146Y-139689855D01*
X116997645Y-138877355D01*
X116826675Y-138763115D01*
X116625000Y-138723000D01*
X113668923Y-138723000D01*
X113746882Y-138535254D01*
X113747117Y-138265927D01*
X113644267Y-138017011D01*
X113453990Y-137826402D01*
X113303885Y-137764073D01*
X120242883Y-137764073D01*
X120345733Y-138012989D01*
X120536010Y-138203598D01*
X120784746Y-138306882D01*
X121054073Y-138307117D01*
X121302989Y-138204267D01*
X121493598Y-138013990D01*
X121559704Y-137854788D01*
X121564746Y-137856882D01*
X121834073Y-137857117D01*
X121986651Y-137794073D01*
X123752883Y-137794073D01*
X123855733Y-138042989D01*
X124046010Y-138233598D01*
X124294746Y-138336882D01*
X124564073Y-138337117D01*
X124812989Y-138234267D01*
X125003598Y-138043990D01*
X125106882Y-137795254D01*
X125107117Y-137525927D01*
X125004267Y-137277011D01*
X124813990Y-137086402D01*
X124565254Y-136983118D01*
X124295927Y-136982883D01*
X124047011Y-137085733D01*
X123856402Y-137276010D01*
X123753118Y-137524746D01*
X123752883Y-137794073D01*
X121986651Y-137794073D01*
X122082989Y-137754267D01*
X122273598Y-137563990D01*
X122376882Y-137315254D01*
X122377117Y-137045927D01*
X122274267Y-136797011D01*
X122083990Y-136606402D01*
X121835254Y-136503118D01*
X121565927Y-136502883D01*
X121317011Y-136605733D01*
X121126402Y-136796010D01*
X121060296Y-136955212D01*
X121055254Y-136953118D01*
X120785927Y-136952883D01*
X120537011Y-137055733D01*
X120346402Y-137246010D01*
X120243118Y-137494746D01*
X120242883Y-137764073D01*
X113303885Y-137764073D01*
X113205254Y-137723118D01*
X112935927Y-137722883D01*
X112687011Y-137825733D01*
X112496402Y-138016010D01*
X112393118Y-138264746D01*
X112392883Y-138534073D01*
X112495733Y-138782989D01*
X112543000Y-138830338D01*
X112543000Y-139011710D01*
X112006710Y-139548000D01*
X110618291Y-139548000D01*
X109322645Y-138252355D01*
X109151675Y-138138115D01*
X108950000Y-138098000D01*
X107868290Y-138098000D01*
X106924363Y-137154073D01*
X117122883Y-137154073D01*
X117225733Y-137402989D01*
X117416010Y-137593598D01*
X117664746Y-137696882D01*
X117934073Y-137697117D01*
X118182989Y-137594267D01*
X118373598Y-137403990D01*
X118447266Y-137226577D01*
X118664746Y-137316882D01*
X118934073Y-137317117D01*
X119182989Y-137214267D01*
X119373598Y-137023990D01*
X119476882Y-136775254D01*
X119477117Y-136505927D01*
X119374267Y-136257011D01*
X119183990Y-136066402D01*
X119009803Y-135994073D01*
X119742883Y-135994073D01*
X119845733Y-136242989D01*
X120036010Y-136433598D01*
X120284746Y-136536882D01*
X120554073Y-136537117D01*
X120802989Y-136434267D01*
X120993598Y-136243990D01*
X121096882Y-135995254D01*
X121097117Y-135725927D01*
X121038505Y-135584073D01*
X122252883Y-135584073D01*
X122355733Y-135832989D01*
X122546010Y-136023598D01*
X122794746Y-136126882D01*
X122892024Y-136126967D01*
X122843118Y-136244746D01*
X122842883Y-136514073D01*
X122945733Y-136762989D01*
X123136010Y-136953598D01*
X123384746Y-137056882D01*
X123654073Y-137057117D01*
X123902989Y-136954267D01*
X124093598Y-136763990D01*
X124196882Y-136515254D01*
X124197117Y-136245927D01*
X124094267Y-135997011D01*
X123903990Y-135806402D01*
X123655254Y-135703118D01*
X123557976Y-135703033D01*
X123606882Y-135585254D01*
X123607017Y-135430000D01*
X124228000Y-135430000D01*
X124262406Y-135602973D01*
X124360388Y-135749612D01*
X124507027Y-135847594D01*
X124680000Y-135882000D01*
X124852973Y-135847594D01*
X124999612Y-135749612D01*
X125009612Y-135739612D01*
X125107594Y-135592973D01*
X125142000Y-135420000D01*
X125107594Y-135247027D01*
X125009612Y-135100388D01*
X124862973Y-135002406D01*
X124690000Y-134968000D01*
X124517027Y-135002406D01*
X124370388Y-135100388D01*
X124360388Y-135110388D01*
X124262406Y-135257027D01*
X124228000Y-135430000D01*
X123607017Y-135430000D01*
X123607117Y-135315927D01*
X123504267Y-135067011D01*
X123313990Y-134876402D01*
X123065254Y-134773118D01*
X122795927Y-134772883D01*
X122547011Y-134875733D01*
X122356402Y-135066010D01*
X122253118Y-135314746D01*
X122252883Y-135584073D01*
X121038505Y-135584073D01*
X120994267Y-135477011D01*
X120803990Y-135286402D01*
X120555254Y-135183118D01*
X120285927Y-135182883D01*
X120037011Y-135285733D01*
X119846402Y-135476010D01*
X119743118Y-135724746D01*
X119742883Y-135994073D01*
X119009803Y-135994073D01*
X118935254Y-135963118D01*
X118665927Y-135962883D01*
X118417011Y-136065733D01*
X118226402Y-136256010D01*
X118152734Y-136433423D01*
X117935254Y-136343118D01*
X117665927Y-136342883D01*
X117417011Y-136445733D01*
X117226402Y-136636010D01*
X117123118Y-136884746D01*
X117122883Y-137154073D01*
X106924363Y-137154073D01*
X106284363Y-136514073D01*
X113032883Y-136514073D01*
X113135733Y-136762989D01*
X113326010Y-136953598D01*
X113574746Y-137056882D01*
X113844073Y-137057117D01*
X114092989Y-136954267D01*
X114283598Y-136763990D01*
X114386882Y-136515254D01*
X114387117Y-136245927D01*
X114284267Y-135997011D01*
X114093990Y-135806402D01*
X113845254Y-135703118D01*
X113575927Y-135702883D01*
X113327011Y-135805733D01*
X113136402Y-135996010D01*
X113033118Y-136244746D01*
X113032883Y-136514073D01*
X106284363Y-136514073D01*
X105017000Y-135246710D01*
X105017000Y-132333000D01*
X117510000Y-132333000D01*
X117510000Y-132633000D01*
X118418000Y-132633000D01*
X118418000Y-131593002D01*
X118258877Y-131465334D01*
X117902947Y-131638342D01*
X117637385Y-131946590D01*
X117510000Y-132333000D01*
X105017000Y-132333000D01*
X105017000Y-131481277D01*
X105381658Y-131237620D01*
X105647638Y-130839553D01*
X105676242Y-130695750D01*
X107455000Y-130695750D01*
X107455000Y-131386310D01*
X107551673Y-131619699D01*
X107730302Y-131798327D01*
X107963691Y-131895000D01*
X108654250Y-131895000D01*
X108813000Y-131736250D01*
X108813000Y-130537000D01*
X109067000Y-130537000D01*
X109067000Y-131736250D01*
X109225750Y-131895000D01*
X109916309Y-131895000D01*
X110149698Y-131798327D01*
X110328327Y-131619699D01*
X110425000Y-131386310D01*
X110425000Y-130695750D01*
X110266250Y-130537000D01*
X109067000Y-130537000D01*
X108813000Y-130537000D01*
X107613750Y-130537000D01*
X107455000Y-130695750D01*
X105676242Y-130695750D01*
X105741038Y-130370000D01*
X105647638Y-129900447D01*
X105381658Y-129502380D01*
X105278857Y-129433690D01*
X107455000Y-129433690D01*
X107455000Y-130124250D01*
X107613750Y-130283000D01*
X108813000Y-130283000D01*
X108813000Y-130263000D01*
X109067000Y-130263000D01*
X109067000Y-130283000D01*
X110266250Y-130283000D01*
X110425000Y-130124250D01*
X110425000Y-130074073D01*
X113212883Y-130074073D01*
X113315733Y-130322989D01*
X113506010Y-130513598D01*
X113754746Y-130616882D01*
X114024073Y-130617117D01*
X114272989Y-130514267D01*
X114463598Y-130323990D01*
X114566882Y-130075254D01*
X114567117Y-129805927D01*
X114464267Y-129557011D01*
X114273990Y-129366402D01*
X114051637Y-129274073D01*
X127062883Y-129274073D01*
X127165733Y-129522989D01*
X127356010Y-129713598D01*
X127604746Y-129816882D01*
X127874073Y-129817117D01*
X128122989Y-129714267D01*
X128313598Y-129523990D01*
X128416882Y-129275254D01*
X128417117Y-129005927D01*
X128314267Y-128757011D01*
X128123990Y-128566402D01*
X127875254Y-128463118D01*
X127605927Y-128462883D01*
X127357011Y-128565733D01*
X127166402Y-128756010D01*
X127063118Y-129004746D01*
X127062883Y-129274073D01*
X114051637Y-129274073D01*
X114025254Y-129263118D01*
X113755927Y-129262883D01*
X113507011Y-129365733D01*
X113316402Y-129556010D01*
X113213118Y-129804746D01*
X113212883Y-130074073D01*
X110425000Y-130074073D01*
X110425000Y-129433690D01*
X110328327Y-129200301D01*
X110149698Y-129021673D01*
X109916309Y-128925000D01*
X109551224Y-128925000D01*
X109831658Y-128737620D01*
X110097638Y-128339553D01*
X110191038Y-127870000D01*
X110097638Y-127400447D01*
X109831658Y-127002380D01*
X109733810Y-126937000D01*
X117150000Y-126937000D01*
X117150000Y-127237000D01*
X117277385Y-127623410D01*
X117542947Y-127931658D01*
X117898877Y-128104666D01*
X118058000Y-127976998D01*
X118058000Y-126937000D01*
X118312000Y-126937000D01*
X118312000Y-127976998D01*
X118471123Y-128104666D01*
X118827053Y-127931658D01*
X119092615Y-127623410D01*
X119220000Y-127237000D01*
X119220000Y-126937000D01*
X126130000Y-126937000D01*
X126130000Y-127237000D01*
X126257385Y-127623410D01*
X126522947Y-127931658D01*
X126878877Y-128104666D01*
X127038000Y-127976998D01*
X127038000Y-126937000D01*
X127292000Y-126937000D01*
X127292000Y-127976998D01*
X127451123Y-128104666D01*
X127807053Y-127931658D01*
X128072615Y-127623410D01*
X128200000Y-127237000D01*
X128200000Y-126937000D01*
X127292000Y-126937000D01*
X127038000Y-126937000D01*
X126130000Y-126937000D01*
X119220000Y-126937000D01*
X118312000Y-126937000D01*
X118058000Y-126937000D01*
X117150000Y-126937000D01*
X109733810Y-126937000D01*
X109588640Y-126840000D01*
X128885615Y-126840000D01*
X128885615Y-128540000D01*
X128911903Y-128679708D01*
X128994470Y-128808020D01*
X129120453Y-128894101D01*
X129270000Y-128924385D01*
X130970000Y-128924385D01*
X131109708Y-128898097D01*
X131238020Y-128815530D01*
X131324101Y-128689547D01*
X131354385Y-128540000D01*
X131354385Y-126860000D01*
X132625615Y-126860000D01*
X132625615Y-128560000D01*
X132651903Y-128699708D01*
X132734470Y-128828020D01*
X132860453Y-128914101D01*
X133010000Y-128944385D01*
X134710000Y-128944385D01*
X134849708Y-128918097D01*
X134978020Y-128835530D01*
X135064101Y-128709547D01*
X135094385Y-128560000D01*
X135094385Y-126880000D01*
X139445615Y-126880000D01*
X139445615Y-128580000D01*
X139471903Y-128719708D01*
X139554470Y-128848020D01*
X139680453Y-128934101D01*
X139830000Y-128964385D01*
X141530000Y-128964385D01*
X141669708Y-128938097D01*
X141798020Y-128855530D01*
X141884101Y-128729547D01*
X141914385Y-128580000D01*
X141914385Y-126880000D01*
X141888097Y-126740292D01*
X141805530Y-126611980D01*
X141679547Y-126525899D01*
X141530000Y-126495615D01*
X139830000Y-126495615D01*
X139690292Y-126521903D01*
X139561980Y-126604470D01*
X139475899Y-126730453D01*
X139445615Y-126880000D01*
X135094385Y-126880000D01*
X135094385Y-126860000D01*
X135068097Y-126720292D01*
X134985530Y-126591980D01*
X134859547Y-126505899D01*
X134710000Y-126475615D01*
X133010000Y-126475615D01*
X132870292Y-126501903D01*
X132741980Y-126584470D01*
X132655899Y-126710453D01*
X132625615Y-126860000D01*
X131354385Y-126860000D01*
X131354385Y-126840000D01*
X131328097Y-126700292D01*
X131245530Y-126571980D01*
X131119547Y-126485899D01*
X130970000Y-126455615D01*
X129270000Y-126455615D01*
X129130292Y-126481903D01*
X129001980Y-126564470D01*
X128915899Y-126690453D01*
X128885615Y-126840000D01*
X109588640Y-126840000D01*
X109433591Y-126736400D01*
X108964038Y-126643000D01*
X108915962Y-126643000D01*
X108446409Y-126736400D01*
X108048342Y-127002380D01*
X107782362Y-127400447D01*
X107688962Y-127870000D01*
X107782362Y-128339553D01*
X108048342Y-128737620D01*
X108328776Y-128925000D01*
X107963691Y-128925000D01*
X107730302Y-129021673D01*
X107551673Y-129200301D01*
X107455000Y-129433690D01*
X105278857Y-129433690D01*
X104983591Y-129236400D01*
X104514038Y-129143000D01*
X104465962Y-129143000D01*
X103996409Y-129236400D01*
X103598342Y-129502380D01*
X103332362Y-129900447D01*
X103238962Y-130370000D01*
X103032000Y-130370000D01*
X103032000Y-126980000D01*
X103255615Y-126980000D01*
X103255615Y-128680000D01*
X103281903Y-128819708D01*
X103364470Y-128948020D01*
X103490453Y-129034101D01*
X103640000Y-129064385D01*
X105340000Y-129064385D01*
X105479708Y-129038097D01*
X105608020Y-128955530D01*
X105694101Y-128829547D01*
X105724385Y-128680000D01*
X105724385Y-126980000D01*
X105698097Y-126840292D01*
X105615530Y-126711980D01*
X105489547Y-126625899D01*
X105340000Y-126595615D01*
X103640000Y-126595615D01*
X103500292Y-126621903D01*
X103371980Y-126704470D01*
X103285899Y-126830453D01*
X103255615Y-126980000D01*
X103032000Y-126980000D01*
X103032000Y-126092000D01*
X117245932Y-126092000D01*
X117150000Y-126383000D01*
X117150000Y-126383000D01*
G37*
X117150000Y-126383000D02*
X117150000Y-126683000D01*
X118058000Y-126683000D01*
X118058000Y-126663000D01*
X118312000Y-126663000D01*
X118312000Y-126683000D01*
X119220000Y-126683000D01*
X119220000Y-126383000D01*
X119124068Y-126092000D01*
X126225932Y-126092000D01*
X126130000Y-126383000D01*
X126130000Y-126683000D01*
X127038000Y-126683000D01*
X127038000Y-126663000D01*
X127292000Y-126663000D01*
X127292000Y-126683000D01*
X128200000Y-126683000D01*
X128200000Y-126383000D01*
X128107365Y-126102000D01*
X142118000Y-126102000D01*
X142118000Y-135005700D01*
X142116309Y-135005000D01*
X141425750Y-135005000D01*
X141267000Y-135163750D01*
X141267000Y-136363000D01*
X141287000Y-136363000D01*
X141287000Y-136617000D01*
X141267000Y-136617000D01*
X141267000Y-136637000D01*
X141013000Y-136637000D01*
X141013000Y-136617000D01*
X139813750Y-136617000D01*
X139655000Y-136775750D01*
X139655000Y-137466310D01*
X139751673Y-137699699D01*
X139930302Y-137878327D01*
X140163691Y-137975000D01*
X140528776Y-137975000D01*
X140248342Y-138162380D01*
X139982362Y-138560447D01*
X139888962Y-139030000D01*
X139982362Y-139499553D01*
X140248342Y-139897620D01*
X140646409Y-140163600D01*
X141115962Y-140257000D01*
X141164038Y-140257000D01*
X141633591Y-140163600D01*
X142031658Y-139897620D01*
X142118000Y-139768400D01*
X142118000Y-140831600D01*
X142031658Y-140702380D01*
X141633591Y-140436400D01*
X141164038Y-140343000D01*
X141115962Y-140343000D01*
X140646409Y-140436400D01*
X140248342Y-140702380D01*
X139982362Y-141100447D01*
X139888962Y-141570000D01*
X139982362Y-142039553D01*
X140248342Y-142437620D01*
X140646409Y-142703600D01*
X141115962Y-142797000D01*
X141164038Y-142797000D01*
X141633591Y-142703600D01*
X142031658Y-142437620D01*
X142118000Y-142308400D01*
X142118000Y-143371600D01*
X142031658Y-143242380D01*
X141633591Y-142976400D01*
X141164038Y-142883000D01*
X141115962Y-142883000D01*
X140646409Y-142976400D01*
X140248342Y-143242380D01*
X139982362Y-143640447D01*
X139888962Y-144110000D01*
X139982362Y-144579553D01*
X140248342Y-144977620D01*
X140646409Y-145243600D01*
X141115962Y-145337000D01*
X141164038Y-145337000D01*
X141633591Y-145243600D01*
X142031658Y-144977620D01*
X142118000Y-144848400D01*
X142118000Y-145911600D01*
X142031658Y-145782380D01*
X141633591Y-145516400D01*
X141164038Y-145423000D01*
X141115962Y-145423000D01*
X140646409Y-145516400D01*
X140248342Y-145782380D01*
X139982362Y-146180447D01*
X139888962Y-146650000D01*
X139982362Y-147119553D01*
X140248342Y-147517620D01*
X140646409Y-147783600D01*
X141115962Y-147877000D01*
X141164038Y-147877000D01*
X141633591Y-147783600D01*
X142031658Y-147517620D01*
X142118000Y-147388400D01*
X142118000Y-148451600D01*
X142031658Y-148322380D01*
X141633591Y-148056400D01*
X141164038Y-147963000D01*
X141115962Y-147963000D01*
X140646409Y-148056400D01*
X140248342Y-148322380D01*
X139982362Y-148720447D01*
X139888962Y-149190000D01*
X139982362Y-149659553D01*
X140248342Y-150057620D01*
X140646409Y-150323600D01*
X141115962Y-150417000D01*
X141164038Y-150417000D01*
X141633591Y-150323600D01*
X142031658Y-150057620D01*
X142118000Y-149928400D01*
X142118000Y-157223439D01*
X133589858Y-157233000D01*
X133543841Y-157241685D01*
X133501447Y-157268965D01*
X133473006Y-157310590D01*
X133463000Y-157360000D01*
X133463000Y-161748000D01*
X103032000Y-161748000D01*
X103032000Y-160993779D01*
X111472857Y-160993779D01*
X111598495Y-161297846D01*
X111830930Y-161530688D01*
X112134778Y-161656856D01*
X112463779Y-161657143D01*
X112767846Y-161531505D01*
X113000688Y-161299070D01*
X113126856Y-160995222D01*
X113126857Y-160993779D01*
X114472857Y-160993779D01*
X114598495Y-161297846D01*
X114830930Y-161530688D01*
X115134778Y-161656856D01*
X115463779Y-161657143D01*
X115767846Y-161531505D01*
X116000688Y-161299070D01*
X116126856Y-160995222D01*
X116127143Y-160666221D01*
X116001505Y-160362154D01*
X115769070Y-160129312D01*
X115465222Y-160003144D01*
X115136221Y-160002857D01*
X114832154Y-160128495D01*
X114599312Y-160360930D01*
X114473144Y-160664778D01*
X114472857Y-160993779D01*
X113126857Y-160993779D01*
X113127143Y-160666221D01*
X113001505Y-160362154D01*
X112769070Y-160129312D01*
X112465222Y-160003144D01*
X112136221Y-160002857D01*
X111832154Y-160128495D01*
X111599312Y-160360930D01*
X111473144Y-160664778D01*
X111472857Y-160993779D01*
X103032000Y-160993779D01*
X103032000Y-159418432D01*
X103118355Y-159626924D01*
X103508642Y-160055183D01*
X104033108Y-160301486D01*
X104263000Y-160180819D01*
X104263000Y-158987000D01*
X104243000Y-158987000D01*
X104243000Y-158733000D01*
X104263000Y-158733000D01*
X104263000Y-158713000D01*
X104517000Y-158713000D01*
X104517000Y-158733000D01*
X104537000Y-158733000D01*
X104537000Y-158987000D01*
X104517000Y-158987000D01*
X104517000Y-160180819D01*
X104746892Y-160301486D01*
X105271358Y-160055183D01*
X105661645Y-159626924D01*
X105780048Y-159341056D01*
X106038342Y-159727620D01*
X106436409Y-159993600D01*
X106905962Y-160087000D01*
X106954038Y-160087000D01*
X107423591Y-159993600D01*
X107587509Y-159884073D01*
X120072883Y-159884073D01*
X120175733Y-160132989D01*
X120366010Y-160323598D01*
X120614746Y-160426882D01*
X120884073Y-160427117D01*
X121132989Y-160324267D01*
X121323598Y-160133990D01*
X121426882Y-159885254D01*
X121427117Y-159615927D01*
X121324267Y-159367011D01*
X121133990Y-159176402D01*
X120885254Y-159073118D01*
X120615927Y-159072883D01*
X120367011Y-159175733D01*
X120176402Y-159366010D01*
X120073118Y-159614746D01*
X120072883Y-159884073D01*
X107587509Y-159884073D01*
X107821658Y-159727620D01*
X108087638Y-159329553D01*
X108146412Y-159034073D01*
X121497883Y-159034073D01*
X121600733Y-159282989D01*
X121791010Y-159473598D01*
X122039746Y-159576882D01*
X122223055Y-159577042D01*
X122222883Y-159774073D01*
X122325733Y-160022989D01*
X122516010Y-160213598D01*
X122764746Y-160316882D01*
X123034073Y-160317117D01*
X123282989Y-160214267D01*
X123473598Y-160023990D01*
X123576882Y-159775254D01*
X123577117Y-159505927D01*
X123474267Y-159257011D01*
X123283990Y-159066402D01*
X123035254Y-158963118D01*
X122851945Y-158962958D01*
X122852117Y-158765927D01*
X122749267Y-158517011D01*
X122558990Y-158326402D01*
X122310254Y-158223118D01*
X122040927Y-158222883D01*
X121792011Y-158325733D01*
X121601402Y-158516010D01*
X121498118Y-158764746D01*
X121497883Y-159034073D01*
X108146412Y-159034073D01*
X108181038Y-158860000D01*
X108087638Y-158390447D01*
X107821658Y-157992380D01*
X107423591Y-157726400D01*
X106954038Y-157633000D01*
X106905962Y-157633000D01*
X106436409Y-157726400D01*
X106038342Y-157992380D01*
X105780048Y-158378944D01*
X105661645Y-158093076D01*
X105271358Y-157664817D01*
X104840046Y-157462262D01*
X104883591Y-157453600D01*
X105281658Y-157187620D01*
X105547638Y-156789553D01*
X105641038Y-156320000D01*
X105678962Y-156320000D01*
X105772362Y-156789553D01*
X106038342Y-157187620D01*
X106436409Y-157453600D01*
X106905962Y-157547000D01*
X106954038Y-157547000D01*
X107423591Y-157453600D01*
X107821658Y-157187620D01*
X108024481Y-156884073D01*
X110082883Y-156884073D01*
X110185733Y-157132989D01*
X110376010Y-157323598D01*
X110624746Y-157426882D01*
X110894073Y-157427117D01*
X111142989Y-157324267D01*
X111333598Y-157133990D01*
X111436882Y-156885254D01*
X111437117Y-156615927D01*
X111334267Y-156367011D01*
X111143990Y-156176402D01*
X110895254Y-156073118D01*
X110625927Y-156072883D01*
X110377011Y-156175733D01*
X110186402Y-156366010D01*
X110083118Y-156614746D01*
X110082883Y-156884073D01*
X108024481Y-156884073D01*
X108087638Y-156789553D01*
X108181038Y-156320000D01*
X108087638Y-155850447D01*
X107821658Y-155452380D01*
X107423591Y-155186400D01*
X106954038Y-155093000D01*
X106905962Y-155093000D01*
X106436409Y-155186400D01*
X106038342Y-155452380D01*
X105772362Y-155850447D01*
X105678962Y-156320000D01*
X105641038Y-156320000D01*
X105547638Y-155850447D01*
X105281658Y-155452380D01*
X104883591Y-155186400D01*
X104414038Y-155093000D01*
X104365962Y-155093000D01*
X103896409Y-155186400D01*
X103498342Y-155452380D01*
X103232362Y-155850447D01*
X103138962Y-156320000D01*
X103232362Y-156789553D01*
X103498342Y-157187620D01*
X103896409Y-157453600D01*
X103939954Y-157462262D01*
X103508642Y-157664817D01*
X103118355Y-158093076D01*
X103032000Y-158301568D01*
X103032000Y-153780000D01*
X103138962Y-153780000D01*
X103232362Y-154249553D01*
X103498342Y-154647620D01*
X103896409Y-154913600D01*
X104365962Y-155007000D01*
X104414038Y-155007000D01*
X104883591Y-154913600D01*
X105281658Y-154647620D01*
X105547638Y-154249553D01*
X105641038Y-153780000D01*
X105678962Y-153780000D01*
X105772362Y-154249553D01*
X106038342Y-154647620D01*
X106436409Y-154913600D01*
X106905962Y-155007000D01*
X106954038Y-155007000D01*
X107423591Y-154913600D01*
X107821658Y-154647620D01*
X108087638Y-154249553D01*
X108181038Y-153780000D01*
X108087638Y-153310447D01*
X107821658Y-152912380D01*
X107423591Y-152646400D01*
X106954038Y-152553000D01*
X106905962Y-152553000D01*
X106436409Y-152646400D01*
X106038342Y-152912380D01*
X105772362Y-153310447D01*
X105678962Y-153780000D01*
X105641038Y-153780000D01*
X105547638Y-153310447D01*
X105281658Y-152912380D01*
X104883591Y-152646400D01*
X104414038Y-152553000D01*
X104365962Y-152553000D01*
X103896409Y-152646400D01*
X103498342Y-152912380D01*
X103232362Y-153310447D01*
X103138962Y-153780000D01*
X103032000Y-153780000D01*
X103032000Y-151240000D01*
X103138962Y-151240000D01*
X103232362Y-151709553D01*
X103498342Y-152107620D01*
X103896409Y-152373600D01*
X104365962Y-152467000D01*
X104414038Y-152467000D01*
X104883591Y-152373600D01*
X105281658Y-152107620D01*
X105547638Y-151709553D01*
X105641038Y-151240000D01*
X105678962Y-151240000D01*
X105772362Y-151709553D01*
X106038342Y-152107620D01*
X106436409Y-152373600D01*
X106905962Y-152467000D01*
X106954038Y-152467000D01*
X107423591Y-152373600D01*
X107821658Y-152107620D01*
X108087638Y-151709553D01*
X108181038Y-151240000D01*
X108171903Y-151194073D01*
X109572883Y-151194073D01*
X109675733Y-151442989D01*
X109866010Y-151633598D01*
X110114746Y-151736882D01*
X110384073Y-151737117D01*
X110632989Y-151634267D01*
X110823598Y-151443990D01*
X110926882Y-151195254D01*
X110927117Y-150925927D01*
X110824267Y-150677011D01*
X110633990Y-150486402D01*
X110385254Y-150383118D01*
X110115927Y-150382883D01*
X109867011Y-150485733D01*
X109676402Y-150676010D01*
X109573118Y-150924746D01*
X109572883Y-151194073D01*
X108171903Y-151194073D01*
X108087638Y-150770447D01*
X107821658Y-150372380D01*
X107423591Y-150106400D01*
X106954038Y-150013000D01*
X106905962Y-150013000D01*
X106436409Y-150106400D01*
X106038342Y-150372380D01*
X105772362Y-150770447D01*
X105678962Y-151240000D01*
X105641038Y-151240000D01*
X105547638Y-150770447D01*
X105281658Y-150372380D01*
X104883591Y-150106400D01*
X104414038Y-150013000D01*
X104365962Y-150013000D01*
X103896409Y-150106400D01*
X103498342Y-150372380D01*
X103232362Y-150770447D01*
X103138962Y-151240000D01*
X103032000Y-151240000D01*
X103032000Y-148700000D01*
X103138962Y-148700000D01*
X103232362Y-149169553D01*
X103498342Y-149567620D01*
X103896409Y-149833600D01*
X104365962Y-149927000D01*
X104414038Y-149927000D01*
X104883591Y-149833600D01*
X105281658Y-149567620D01*
X105547638Y-149169553D01*
X105641038Y-148700000D01*
X105678962Y-148700000D01*
X105772362Y-149169553D01*
X106038342Y-149567620D01*
X106436409Y-149833600D01*
X106905962Y-149927000D01*
X106954038Y-149927000D01*
X107423591Y-149833600D01*
X107821658Y-149567620D01*
X108087638Y-149169553D01*
X108181038Y-148700000D01*
X108087638Y-148230447D01*
X107821658Y-147832380D01*
X107423591Y-147566400D01*
X106954038Y-147473000D01*
X106905962Y-147473000D01*
X106436409Y-147566400D01*
X106038342Y-147832380D01*
X105772362Y-148230447D01*
X105678962Y-148700000D01*
X105641038Y-148700000D01*
X105547638Y-148230447D01*
X105281658Y-147832380D01*
X104883591Y-147566400D01*
X104414038Y-147473000D01*
X104365962Y-147473000D01*
X103896409Y-147566400D01*
X103498342Y-147832380D01*
X103232362Y-148230447D01*
X103138962Y-148700000D01*
X103032000Y-148700000D01*
X103032000Y-147424073D01*
X109202883Y-147424073D01*
X109305733Y-147672989D01*
X109496010Y-147863598D01*
X109744746Y-147966882D01*
X110014073Y-147967117D01*
X110262989Y-147864267D01*
X110453598Y-147673990D01*
X110556882Y-147425254D01*
X110557117Y-147155927D01*
X110454267Y-146907011D01*
X110263990Y-146716402D01*
X110015254Y-146613118D01*
X109745927Y-146612883D01*
X109497011Y-146715733D01*
X109306402Y-146906010D01*
X109203118Y-147154746D01*
X109202883Y-147424073D01*
X103032000Y-147424073D01*
X103032000Y-146160000D01*
X103138962Y-146160000D01*
X103232362Y-146629553D01*
X103498342Y-147027620D01*
X103896409Y-147293600D01*
X104365962Y-147387000D01*
X104414038Y-147387000D01*
X104883591Y-147293600D01*
X105281658Y-147027620D01*
X105547638Y-146629553D01*
X105641038Y-146160000D01*
X105678962Y-146160000D01*
X105772362Y-146629553D01*
X106038342Y-147027620D01*
X106436409Y-147293600D01*
X106905962Y-147387000D01*
X106954038Y-147387000D01*
X107423591Y-147293600D01*
X107821658Y-147027620D01*
X108087638Y-146629553D01*
X108168721Y-146221923D01*
X108204746Y-146236882D01*
X108474073Y-146237117D01*
X108722989Y-146134267D01*
X108913598Y-145943990D01*
X109016882Y-145695254D01*
X109017117Y-145425927D01*
X109016351Y-145424073D01*
X110542883Y-145424073D01*
X110645733Y-145672989D01*
X110836010Y-145863598D01*
X111084746Y-145966882D01*
X111354073Y-145967117D01*
X111602989Y-145864267D01*
X111793598Y-145673990D01*
X111896882Y-145425254D01*
X111897117Y-145155927D01*
X111794267Y-144907011D01*
X111603990Y-144716402D01*
X111355254Y-144613118D01*
X111085927Y-144612883D01*
X110837011Y-144715733D01*
X110646402Y-144906010D01*
X110543118Y-145154746D01*
X110542883Y-145424073D01*
X109016351Y-145424073D01*
X108965377Y-145300706D01*
X109124746Y-145366882D01*
X109394073Y-145367117D01*
X109642989Y-145264267D01*
X109833598Y-145073990D01*
X109936882Y-144825254D01*
X109937117Y-144555927D01*
X109834267Y-144307011D01*
X109643990Y-144116402D01*
X109395254Y-144013118D01*
X109125927Y-144012883D01*
X108877011Y-144115733D01*
X108686402Y-144306010D01*
X108583118Y-144554746D01*
X108582883Y-144824073D01*
X108634623Y-144949294D01*
X108475254Y-144883118D01*
X108205927Y-144882883D01*
X107957011Y-144985733D01*
X107766402Y-145176010D01*
X107740577Y-145238203D01*
X107423591Y-145026400D01*
X106954038Y-144933000D01*
X106905962Y-144933000D01*
X106436409Y-145026400D01*
X106038342Y-145292380D01*
X105772362Y-145690447D01*
X105678962Y-146160000D01*
X105641038Y-146160000D01*
X105547638Y-145690447D01*
X105281658Y-145292380D01*
X104883591Y-145026400D01*
X104414038Y-144933000D01*
X104365962Y-144933000D01*
X103896409Y-145026400D01*
X103498342Y-145292380D01*
X103232362Y-145690447D01*
X103138962Y-146160000D01*
X103032000Y-146160000D01*
X103032000Y-143620000D01*
X103138962Y-143620000D01*
X103232362Y-144089553D01*
X103498342Y-144487620D01*
X103896409Y-144753600D01*
X104365962Y-144847000D01*
X104414038Y-144847000D01*
X104883591Y-144753600D01*
X105281658Y-144487620D01*
X105547638Y-144089553D01*
X105641038Y-143620000D01*
X105678962Y-143620000D01*
X105772362Y-144089553D01*
X106038342Y-144487620D01*
X106436409Y-144753600D01*
X106905962Y-144847000D01*
X106954038Y-144847000D01*
X107423591Y-144753600D01*
X107821658Y-144487620D01*
X108087638Y-144089553D01*
X108181038Y-143620000D01*
X108087638Y-143150447D01*
X107821658Y-142752380D01*
X107719430Y-142684073D01*
X108382883Y-142684073D01*
X108485733Y-142932989D01*
X108676010Y-143123598D01*
X108924746Y-143226882D01*
X109194073Y-143227117D01*
X109442989Y-143124267D01*
X109633598Y-142933990D01*
X109736882Y-142685254D01*
X109737117Y-142415927D01*
X109634267Y-142167011D01*
X109522728Y-142055277D01*
X109742989Y-141964267D01*
X109933598Y-141773990D01*
X110036882Y-141525254D01*
X110037117Y-141255927D01*
X109934267Y-141007011D01*
X109743990Y-140816402D01*
X109495254Y-140713118D01*
X109225927Y-140712883D01*
X108977011Y-140815733D01*
X108786402Y-141006010D01*
X108683118Y-141254746D01*
X108682883Y-141524073D01*
X108785733Y-141772989D01*
X108897272Y-141884723D01*
X108677011Y-141975733D01*
X108486402Y-142166010D01*
X108383118Y-142414746D01*
X108382883Y-142684073D01*
X107719430Y-142684073D01*
X107423591Y-142486400D01*
X106954038Y-142393000D01*
X106905962Y-142393000D01*
X106436409Y-142486400D01*
X106038342Y-142752380D01*
X105772362Y-143150447D01*
X105678962Y-143620000D01*
X105641038Y-143620000D01*
X105547638Y-143150447D01*
X105281658Y-142752380D01*
X104883591Y-142486400D01*
X104414038Y-142393000D01*
X104365962Y-142393000D01*
X103896409Y-142486400D01*
X103498342Y-142752380D01*
X103232362Y-143150447D01*
X103138962Y-143620000D01*
X103032000Y-143620000D01*
X103032000Y-140230000D01*
X103155615Y-140230000D01*
X103155615Y-141930000D01*
X103181903Y-142069708D01*
X103264470Y-142198020D01*
X103390453Y-142284101D01*
X103540000Y-142314385D01*
X105240000Y-142314385D01*
X105379708Y-142288097D01*
X105508020Y-142205530D01*
X105594101Y-142079547D01*
X105624385Y-141930000D01*
X105624385Y-141080000D01*
X105678962Y-141080000D01*
X105772362Y-141549553D01*
X106038342Y-141947620D01*
X106436409Y-142213600D01*
X106905962Y-142307000D01*
X106954038Y-142307000D01*
X107423591Y-142213600D01*
X107821658Y-141947620D01*
X108087638Y-141549553D01*
X108181038Y-141080000D01*
X108087638Y-140610447D01*
X107821658Y-140212380D01*
X107423591Y-139946400D01*
X106954038Y-139853000D01*
X106905962Y-139853000D01*
X106436409Y-139946400D01*
X106038342Y-140212380D01*
X105772362Y-140610447D01*
X105678962Y-141080000D01*
X105624385Y-141080000D01*
X105624385Y-140230000D01*
X105598097Y-140090292D01*
X105515530Y-139961980D01*
X105389547Y-139875899D01*
X105240000Y-139845615D01*
X103540000Y-139845615D01*
X103400292Y-139871903D01*
X103271980Y-139954470D01*
X103185899Y-140080453D01*
X103155615Y-140230000D01*
X103032000Y-140230000D01*
X103032000Y-130370000D01*
X103238962Y-130370000D01*
X103332362Y-130839553D01*
X103598342Y-131237620D01*
X103963000Y-131481277D01*
X103963000Y-135465000D01*
X104003115Y-135666675D01*
X104117355Y-135837645D01*
X107277355Y-138997645D01*
X107448325Y-139111885D01*
X107650000Y-139152000D01*
X108731710Y-139152000D01*
X110027355Y-140447646D01*
X110198326Y-140561885D01*
X110400000Y-140602000D01*
X112225000Y-140602000D01*
X112426675Y-140561885D01*
X112597645Y-140447645D01*
X113268290Y-139777000D01*
X116406710Y-139777000D01*
X116723000Y-140093291D01*
X116723000Y-140100000D01*
X116757406Y-140272973D01*
X116855388Y-140419612D01*
X116910500Y-140474724D01*
X116910500Y-148473000D01*
X115300000Y-148473000D01*
X115127090Y-148507393D01*
X115127117Y-148475927D01*
X115024267Y-148227011D01*
X114833990Y-148036402D01*
X114585254Y-147933118D01*
X114315927Y-147932883D01*
X114067011Y-148035733D01*
X113876402Y-148226010D01*
X113773118Y-148474746D01*
X113772883Y-148744073D01*
X113875733Y-148992989D01*
X114066010Y-149183598D01*
X114293480Y-149278052D01*
X114213115Y-149398325D01*
X114190553Y-149511756D01*
X114025254Y-149443118D01*
X113755927Y-149442883D01*
X113507011Y-149545733D01*
X113316402Y-149736010D01*
X113213118Y-149984746D01*
X113212883Y-150254073D01*
X113315733Y-150502989D01*
X113324903Y-150512175D01*
X113227355Y-150577355D01*
X111157355Y-152647355D01*
X111043115Y-152818325D01*
X111012284Y-152973325D01*
X111003000Y-153020000D01*
X111003000Y-154459493D01*
X110956402Y-154506010D01*
X110853118Y-154754746D01*
X110852883Y-155024073D01*
X110955733Y-155272989D01*
X111146010Y-155463598D01*
X111394746Y-155566882D01*
X111621790Y-155567080D01*
X112427355Y-156372645D01*
X112598325Y-156486885D01*
X112631785Y-156493540D01*
X112716140Y-156510319D01*
X112727027Y-156517594D01*
X112900000Y-156552000D01*
X115840000Y-156552000D01*
X116012973Y-156517594D01*
X116023860Y-156510319D01*
X116141675Y-156486885D01*
X116312645Y-156372645D01*
X116703000Y-155982290D01*
X116703000Y-156090000D01*
X116743115Y-156291675D01*
X116857355Y-156462645D01*
X117342940Y-156948230D01*
X117342883Y-157014073D01*
X117445733Y-157262989D01*
X117636010Y-157453598D01*
X117884746Y-157556882D01*
X118154073Y-157557117D01*
X118402989Y-157454267D01*
X118593598Y-157263990D01*
X118626782Y-157184073D01*
X119397883Y-157184073D01*
X119500733Y-157432989D01*
X119691010Y-157623598D01*
X119939746Y-157726882D01*
X120209073Y-157727117D01*
X120457989Y-157624267D01*
X120648598Y-157433990D01*
X120751882Y-157185254D01*
X120751970Y-157084073D01*
X121247883Y-157084073D01*
X121350733Y-157332989D01*
X121541010Y-157523598D01*
X121789746Y-157626882D01*
X122059073Y-157627117D01*
X122307989Y-157524267D01*
X122498598Y-157333990D01*
X122601882Y-157085254D01*
X122602117Y-156815927D01*
X122499267Y-156567011D01*
X122308990Y-156376402D01*
X122060254Y-156273118D01*
X121790927Y-156272883D01*
X121542011Y-156375733D01*
X121351402Y-156566010D01*
X121248118Y-156814746D01*
X121247883Y-157084073D01*
X120751970Y-157084073D01*
X120752117Y-156915927D01*
X120649267Y-156667011D01*
X120458990Y-156476402D01*
X120210254Y-156373118D01*
X119940927Y-156372883D01*
X119692011Y-156475733D01*
X119501402Y-156666010D01*
X119398118Y-156914746D01*
X119397883Y-157184073D01*
X118626782Y-157184073D01*
X118696882Y-157015254D01*
X118697117Y-156745927D01*
X118594267Y-156497011D01*
X118403990Y-156306402D01*
X118155254Y-156203118D01*
X118088350Y-156203060D01*
X117894363Y-156009073D01*
X123922883Y-156009073D01*
X124025733Y-156257989D01*
X124216010Y-156448598D01*
X124464746Y-156551882D01*
X124734073Y-156552117D01*
X124982989Y-156449267D01*
X125173598Y-156258990D01*
X125276882Y-156010254D01*
X125277117Y-155740927D01*
X125174267Y-155492011D01*
X124983990Y-155301402D01*
X124966340Y-155294073D01*
X125222883Y-155294073D01*
X125325733Y-155542989D01*
X125516010Y-155733598D01*
X125722995Y-155819546D01*
X125587011Y-155875733D01*
X125396402Y-156066010D01*
X125293118Y-156314746D01*
X125292883Y-156584073D01*
X125395733Y-156832989D01*
X125586010Y-157023598D01*
X125834746Y-157126882D01*
X126104073Y-157127117D01*
X126352989Y-157024267D01*
X126493427Y-156884073D01*
X127497883Y-156884073D01*
X127600733Y-157132989D01*
X127791010Y-157323598D01*
X128039746Y-157426882D01*
X128309073Y-157427117D01*
X128557989Y-157324267D01*
X128748598Y-157133990D01*
X128851882Y-156885254D01*
X128852117Y-156615927D01*
X128749267Y-156367011D01*
X128566648Y-156184073D01*
X128922883Y-156184073D01*
X129025733Y-156432989D01*
X129216010Y-156623598D01*
X129464746Y-156726882D01*
X129734073Y-156727117D01*
X129982989Y-156624267D01*
X130173598Y-156433990D01*
X130276882Y-156185254D01*
X130277117Y-155915927D01*
X130271143Y-155901470D01*
X130457989Y-155824267D01*
X130648598Y-155633990D01*
X130731610Y-155434073D01*
X132922883Y-155434073D01*
X133025733Y-155682989D01*
X133216010Y-155873598D01*
X133464746Y-155976882D01*
X133734073Y-155977117D01*
X133982989Y-155874267D01*
X134173598Y-155683990D01*
X134276882Y-155435254D01*
X134277117Y-155165927D01*
X134174267Y-154917011D01*
X133983990Y-154726402D01*
X133735254Y-154623118D01*
X133465927Y-154622883D01*
X133217011Y-154725733D01*
X133026402Y-154916010D01*
X132923118Y-155164746D01*
X132922883Y-155434073D01*
X130731610Y-155434073D01*
X130751882Y-155385254D01*
X130752117Y-155115927D01*
X130649267Y-154867011D01*
X130458990Y-154676402D01*
X130210254Y-154573118D01*
X129940927Y-154572883D01*
X129692011Y-154675733D01*
X129501402Y-154866010D01*
X129398118Y-155114746D01*
X129397883Y-155384073D01*
X129403857Y-155398530D01*
X129217011Y-155475733D01*
X129026402Y-155666010D01*
X128923118Y-155914746D01*
X128922883Y-156184073D01*
X128566648Y-156184073D01*
X128558990Y-156176402D01*
X128310254Y-156073118D01*
X128040927Y-156072883D01*
X127792011Y-156175733D01*
X127601402Y-156366010D01*
X127498118Y-156614746D01*
X127497883Y-156884073D01*
X126493427Y-156884073D01*
X126543598Y-156833990D01*
X126646882Y-156585254D01*
X126647117Y-156315927D01*
X126544267Y-156067011D01*
X126353990Y-155876402D01*
X126147005Y-155790454D01*
X126282989Y-155734267D01*
X126473598Y-155543990D01*
X126576882Y-155295254D01*
X126577117Y-155025927D01*
X126514071Y-154873344D01*
X126613598Y-154773990D01*
X126716882Y-154525254D01*
X126717117Y-154255927D01*
X126614267Y-154007011D01*
X126423990Y-153816402D01*
X126175254Y-153713118D01*
X125905927Y-153712883D01*
X125657011Y-153815733D01*
X125466402Y-154006010D01*
X125363118Y-154254746D01*
X125362883Y-154524073D01*
X125425929Y-154676656D01*
X125326402Y-154776010D01*
X125223118Y-155024746D01*
X125222883Y-155294073D01*
X124966340Y-155294073D01*
X124735254Y-155198118D01*
X124465927Y-155197883D01*
X124217011Y-155300733D01*
X124026402Y-155491010D01*
X123923118Y-155739746D01*
X123922883Y-156009073D01*
X117894363Y-156009073D01*
X117757000Y-155871710D01*
X117757000Y-155237000D01*
X120390000Y-155237000D01*
X120591675Y-155196885D01*
X120762645Y-155082645D01*
X122143290Y-153702000D01*
X126431710Y-153702000D01*
X126822354Y-154092645D01*
X126913577Y-154153598D01*
X126993326Y-154206885D01*
X127125741Y-154233224D01*
X127186010Y-154293598D01*
X127434746Y-154396882D01*
X127704073Y-154397117D01*
X127952989Y-154294267D01*
X128000338Y-154247000D01*
X129755000Y-154247000D01*
X129956675Y-154206885D01*
X130127645Y-154092645D01*
X132547645Y-151672645D01*
X132661885Y-151501675D01*
X132702000Y-151300000D01*
X132702000Y-150304073D01*
X135222883Y-150304073D01*
X135325733Y-150552989D01*
X135516010Y-150743598D01*
X135764746Y-150846882D01*
X136034073Y-150847117D01*
X136282989Y-150744267D01*
X136473598Y-150553990D01*
X136576882Y-150305254D01*
X136577113Y-150040000D01*
X136615615Y-150040000D01*
X136615615Y-151740000D01*
X136641903Y-151879708D01*
X136724470Y-152008020D01*
X136850453Y-152094101D01*
X137000000Y-152124385D01*
X138700000Y-152124385D01*
X138839708Y-152098097D01*
X138968020Y-152015530D01*
X139054101Y-151889547D01*
X139084385Y-151740000D01*
X139084385Y-151270000D01*
X139365615Y-151270000D01*
X139365615Y-152970000D01*
X139391903Y-153109708D01*
X139474470Y-153238020D01*
X139600453Y-153324101D01*
X139750000Y-153354385D01*
X141450000Y-153354385D01*
X141589708Y-153328097D01*
X141718020Y-153245530D01*
X141804101Y-153119547D01*
X141834385Y-152970000D01*
X141834385Y-151270000D01*
X141808097Y-151130292D01*
X141725530Y-151001980D01*
X141599547Y-150915899D01*
X141450000Y-150885615D01*
X139750000Y-150885615D01*
X139610292Y-150911903D01*
X139481980Y-150994470D01*
X139395899Y-151120453D01*
X139365615Y-151270000D01*
X139084385Y-151270000D01*
X139084385Y-150040000D01*
X139058097Y-149900292D01*
X138975530Y-149771980D01*
X138849547Y-149685899D01*
X138700000Y-149655615D01*
X137000000Y-149655615D01*
X136860292Y-149681903D01*
X136731980Y-149764470D01*
X136645899Y-149890453D01*
X136615615Y-150040000D01*
X136577113Y-150040000D01*
X136577117Y-150035927D01*
X136474267Y-149787011D01*
X136283990Y-149596402D01*
X136035254Y-149493118D01*
X135765927Y-149492883D01*
X135517011Y-149595733D01*
X135326402Y-149786010D01*
X135223118Y-150034746D01*
X135222883Y-150304073D01*
X132702000Y-150304073D01*
X132702000Y-150118290D01*
X135296217Y-147524073D01*
X136702883Y-147524073D01*
X136805733Y-147772989D01*
X136996010Y-147963598D01*
X137244746Y-148066882D01*
X137514073Y-148067117D01*
X137762989Y-147964267D01*
X137953598Y-147773990D01*
X138056882Y-147525254D01*
X138057117Y-147255927D01*
X137954267Y-147007011D01*
X137763990Y-146816402D01*
X137515254Y-146713118D01*
X137245927Y-146712883D01*
X136997011Y-146815733D01*
X136806402Y-147006010D01*
X136703118Y-147254746D01*
X136702883Y-147524073D01*
X135296217Y-147524073D01*
X138630808Y-144189482D01*
X138533118Y-144424746D01*
X138532883Y-144694073D01*
X138635733Y-144942989D01*
X138826010Y-145133598D01*
X139074746Y-145236882D01*
X139344073Y-145237117D01*
X139592989Y-145134267D01*
X139783598Y-144943990D01*
X139886882Y-144695254D01*
X139887117Y-144425927D01*
X139784267Y-144177011D01*
X139593990Y-143986402D01*
X139345254Y-143883118D01*
X139075927Y-143882883D01*
X138839870Y-143980420D01*
X139022645Y-143797645D01*
X139136885Y-143626675D01*
X139177000Y-143425000D01*
X139177000Y-135513690D01*
X139655000Y-135513690D01*
X139655000Y-136204250D01*
X139813750Y-136363000D01*
X141013000Y-136363000D01*
X141013000Y-135163750D01*
X140854250Y-135005000D01*
X140163691Y-135005000D01*
X139930302Y-135101673D01*
X139751673Y-135280301D01*
X139655000Y-135513690D01*
X139177000Y-135513690D01*
X139177000Y-134468290D01*
X141052646Y-132592645D01*
X141166885Y-132421674D01*
X141207000Y-132220000D01*
X141207000Y-131381277D01*
X141571658Y-131137620D01*
X141837638Y-130739553D01*
X141931038Y-130270000D01*
X141837638Y-129800447D01*
X141571658Y-129402380D01*
X141173591Y-129136400D01*
X140704038Y-129043000D01*
X140655962Y-129043000D01*
X140186409Y-129136400D01*
X139788342Y-129402380D01*
X139560747Y-129743000D01*
X134992617Y-129743000D01*
X134751658Y-129382380D01*
X134353591Y-129116400D01*
X133884038Y-129023000D01*
X133835962Y-129023000D01*
X133366409Y-129116400D01*
X132968342Y-129382380D01*
X132727383Y-129743000D01*
X131265980Y-129743000D01*
X131011658Y-129362380D01*
X130613591Y-129096400D01*
X130144038Y-129003000D01*
X130095962Y-129003000D01*
X129626409Y-129096400D01*
X129228342Y-129362380D01*
X128962362Y-129760447D01*
X128868962Y-130230000D01*
X128962362Y-130699553D01*
X129228342Y-131097620D01*
X129593000Y-131341277D01*
X129593000Y-132911710D01*
X127449210Y-135055500D01*
X126560791Y-135055500D01*
X126217241Y-134711950D01*
X126414024Y-134712122D01*
X126672132Y-134605474D01*
X126869780Y-134408170D01*
X126976878Y-134150249D01*
X126977041Y-133963136D01*
X127091123Y-134054666D01*
X127447053Y-133881658D01*
X127712615Y-133573410D01*
X127840000Y-133187000D01*
X127840000Y-132887000D01*
X126932000Y-132887000D01*
X126932000Y-132907000D01*
X126678000Y-132907000D01*
X126678000Y-132887000D01*
X126658000Y-132887000D01*
X126658000Y-132633000D01*
X126678000Y-132633000D01*
X126678000Y-131593002D01*
X126932000Y-131593002D01*
X126932000Y-132633000D01*
X127840000Y-132633000D01*
X127840000Y-132333000D01*
X127712615Y-131946590D01*
X127447053Y-131638342D01*
X127091123Y-131465334D01*
X126932000Y-131593002D01*
X126678000Y-131593002D01*
X126518877Y-131465334D01*
X126162947Y-131638342D01*
X125897385Y-131946590D01*
X125770000Y-132333000D01*
X125770000Y-132446393D01*
X125742806Y-132437926D01*
X125670474Y-132262868D01*
X125473170Y-132065220D01*
X125215249Y-131958122D01*
X124935976Y-131957878D01*
X124677868Y-132064526D01*
X124675168Y-132067221D01*
X124673170Y-132065220D01*
X124415249Y-131958122D01*
X124135976Y-131957878D01*
X123877868Y-132064526D01*
X123875168Y-132067221D01*
X123873170Y-132065220D01*
X123615249Y-131958122D01*
X123335976Y-131957878D01*
X123077868Y-132064526D01*
X122880220Y-132261830D01*
X122773122Y-132519751D01*
X122772942Y-132725242D01*
X122677868Y-132764526D01*
X122675168Y-132767221D01*
X122673170Y-132765220D01*
X122576944Y-132725263D01*
X122577122Y-132520976D01*
X122470474Y-132262868D01*
X122273170Y-132065220D01*
X122015249Y-131958122D01*
X121735976Y-131957878D01*
X121477868Y-132064526D01*
X121475168Y-132067221D01*
X121473170Y-132065220D01*
X121347050Y-132012850D01*
X121347117Y-131935927D01*
X121244267Y-131687011D01*
X121053990Y-131496402D01*
X120805254Y-131393118D01*
X120535927Y-131392883D01*
X120287011Y-131495733D01*
X120096402Y-131686010D01*
X119993118Y-131934746D01*
X119993046Y-132016935D01*
X119877868Y-132064526D01*
X119680220Y-132261830D01*
X119614649Y-132419742D01*
X119597738Y-132421283D01*
X119580000Y-132428630D01*
X119580000Y-132333000D01*
X119452615Y-131946590D01*
X119187053Y-131638342D01*
X118831123Y-131465334D01*
X118672000Y-131593002D01*
X118672000Y-132633000D01*
X118692000Y-132633000D01*
X118692000Y-132887000D01*
X118672000Y-132887000D01*
X118672000Y-132907000D01*
X118418000Y-132907000D01*
X118418000Y-132887000D01*
X117510000Y-132887000D01*
X117510000Y-133187000D01*
X117637385Y-133573410D01*
X117902947Y-133881658D01*
X118210517Y-134031159D01*
X118259745Y-134278644D01*
X118411919Y-134506389D01*
X118639664Y-134658563D01*
X118908308Y-134712000D01*
X119241692Y-134712000D01*
X119510336Y-134658563D01*
X119738081Y-134506389D01*
X119858991Y-134325434D01*
X120152262Y-134298717D01*
X120194001Y-134281428D01*
X120286010Y-134373598D01*
X120534746Y-134476882D01*
X120804073Y-134477117D01*
X121052989Y-134374267D01*
X121243598Y-134183990D01*
X121300252Y-134047553D01*
X121334751Y-134061878D01*
X121614024Y-134062122D01*
X121872132Y-133955474D01*
X121874832Y-133952779D01*
X121876830Y-133954780D01*
X122134751Y-134061878D01*
X122414024Y-134062122D01*
X122672132Y-133955474D01*
X122674832Y-133952779D01*
X122676830Y-133954780D01*
X122934751Y-134061878D01*
X123214024Y-134062122D01*
X123472132Y-133955474D01*
X123474832Y-133952779D01*
X123476830Y-133954780D01*
X123734751Y-134061878D01*
X124014024Y-134062122D01*
X124042921Y-134050182D01*
X124042883Y-134094073D01*
X124145733Y-134342989D01*
X124336010Y-134533598D01*
X124584746Y-134636882D01*
X124651650Y-134636940D01*
X125815500Y-135800791D01*
X125815500Y-139349210D01*
X125341770Y-139822940D01*
X125275927Y-139822883D01*
X125027011Y-139925733D01*
X124836402Y-140116010D01*
X124733118Y-140364746D01*
X124732883Y-140634073D01*
X124835733Y-140882989D01*
X125026010Y-141073598D01*
X125071587Y-141092523D01*
X124967011Y-141135733D01*
X124776402Y-141326010D01*
X124673118Y-141574746D01*
X124672883Y-141844073D01*
X124775733Y-142092989D01*
X124966010Y-142283598D01*
X125214746Y-142386882D01*
X125484073Y-142387117D01*
X125732989Y-142284267D01*
X125923000Y-142094587D01*
X125923000Y-143406710D01*
X123407000Y-145922710D01*
X123407000Y-144980000D01*
X123366885Y-144778326D01*
X123357361Y-144764073D01*
X123252646Y-144607355D01*
X122472645Y-143827355D01*
X122301675Y-143713115D01*
X122100000Y-143673000D01*
X121864537Y-143673000D01*
X121893598Y-143643990D01*
X121996882Y-143395254D01*
X121997117Y-143125927D01*
X121894267Y-142877011D01*
X121703990Y-142686402D01*
X121674299Y-142674073D01*
X123162883Y-142674073D01*
X123265733Y-142922989D01*
X123456010Y-143113598D01*
X123704746Y-143216882D01*
X123974073Y-143217117D01*
X124222989Y-143114267D01*
X124413598Y-142923990D01*
X124516882Y-142675254D01*
X124517117Y-142405927D01*
X124414267Y-142157011D01*
X124223990Y-141966402D01*
X123975254Y-141863118D01*
X123705927Y-141862883D01*
X123457011Y-141965733D01*
X123266402Y-142156010D01*
X123163118Y-142404746D01*
X123162883Y-142674073D01*
X121674299Y-142674073D01*
X121455254Y-142583118D01*
X121185927Y-142582883D01*
X120937011Y-142685733D01*
X120746402Y-142876010D01*
X120664621Y-143072960D01*
X120575927Y-143072883D01*
X120327011Y-143175733D01*
X120279662Y-143223000D01*
X119426962Y-143223000D01*
X119427117Y-143045927D01*
X119324267Y-142797011D01*
X119133990Y-142606402D01*
X118885254Y-142503118D01*
X118644809Y-142502908D01*
X118726882Y-142305254D01*
X118727117Y-142035927D01*
X118624267Y-141787011D01*
X118433990Y-141596402D01*
X118185254Y-141493118D01*
X117964500Y-141492925D01*
X117964500Y-141205021D01*
X118075000Y-141227000D01*
X119179493Y-141227000D01*
X119226010Y-141273598D01*
X119474746Y-141376882D01*
X119744073Y-141377117D01*
X119992989Y-141274267D01*
X120183598Y-141083990D01*
X120286882Y-140835254D01*
X120287117Y-140565927D01*
X120184267Y-140317011D01*
X119993990Y-140126402D01*
X119745254Y-140023118D01*
X119475927Y-140022883D01*
X119227011Y-140125733D01*
X119179662Y-140173000D01*
X118293290Y-140173000D01*
X117810148Y-139689858D01*
X117810146Y-139689855D01*
X116997645Y-138877355D01*
X116826675Y-138763115D01*
X116625000Y-138723000D01*
X113668923Y-138723000D01*
X113746882Y-138535254D01*
X113747117Y-138265927D01*
X113644267Y-138017011D01*
X113453990Y-137826402D01*
X113303885Y-137764073D01*
X120242883Y-137764073D01*
X120345733Y-138012989D01*
X120536010Y-138203598D01*
X120784746Y-138306882D01*
X121054073Y-138307117D01*
X121302989Y-138204267D01*
X121493598Y-138013990D01*
X121559704Y-137854788D01*
X121564746Y-137856882D01*
X121834073Y-137857117D01*
X121986651Y-137794073D01*
X123752883Y-137794073D01*
X123855733Y-138042989D01*
X124046010Y-138233598D01*
X124294746Y-138336882D01*
X124564073Y-138337117D01*
X124812989Y-138234267D01*
X125003598Y-138043990D01*
X125106882Y-137795254D01*
X125107117Y-137525927D01*
X125004267Y-137277011D01*
X124813990Y-137086402D01*
X124565254Y-136983118D01*
X124295927Y-136982883D01*
X124047011Y-137085733D01*
X123856402Y-137276010D01*
X123753118Y-137524746D01*
X123752883Y-137794073D01*
X121986651Y-137794073D01*
X122082989Y-137754267D01*
X122273598Y-137563990D01*
X122376882Y-137315254D01*
X122377117Y-137045927D01*
X122274267Y-136797011D01*
X122083990Y-136606402D01*
X121835254Y-136503118D01*
X121565927Y-136502883D01*
X121317011Y-136605733D01*
X121126402Y-136796010D01*
X121060296Y-136955212D01*
X121055254Y-136953118D01*
X120785927Y-136952883D01*
X120537011Y-137055733D01*
X120346402Y-137246010D01*
X120243118Y-137494746D01*
X120242883Y-137764073D01*
X113303885Y-137764073D01*
X113205254Y-137723118D01*
X112935927Y-137722883D01*
X112687011Y-137825733D01*
X112496402Y-138016010D01*
X112393118Y-138264746D01*
X112392883Y-138534073D01*
X112495733Y-138782989D01*
X112543000Y-138830338D01*
X112543000Y-139011710D01*
X112006710Y-139548000D01*
X110618291Y-139548000D01*
X109322645Y-138252355D01*
X109151675Y-138138115D01*
X108950000Y-138098000D01*
X107868290Y-138098000D01*
X106924363Y-137154073D01*
X117122883Y-137154073D01*
X117225733Y-137402989D01*
X117416010Y-137593598D01*
X117664746Y-137696882D01*
X117934073Y-137697117D01*
X118182989Y-137594267D01*
X118373598Y-137403990D01*
X118447266Y-137226577D01*
X118664746Y-137316882D01*
X118934073Y-137317117D01*
X119182989Y-137214267D01*
X119373598Y-137023990D01*
X119476882Y-136775254D01*
X119477117Y-136505927D01*
X119374267Y-136257011D01*
X119183990Y-136066402D01*
X119009803Y-135994073D01*
X119742883Y-135994073D01*
X119845733Y-136242989D01*
X120036010Y-136433598D01*
X120284746Y-136536882D01*
X120554073Y-136537117D01*
X120802989Y-136434267D01*
X120993598Y-136243990D01*
X121096882Y-135995254D01*
X121097117Y-135725927D01*
X121038505Y-135584073D01*
X122252883Y-135584073D01*
X122355733Y-135832989D01*
X122546010Y-136023598D01*
X122794746Y-136126882D01*
X122892024Y-136126967D01*
X122843118Y-136244746D01*
X122842883Y-136514073D01*
X122945733Y-136762989D01*
X123136010Y-136953598D01*
X123384746Y-137056882D01*
X123654073Y-137057117D01*
X123902989Y-136954267D01*
X124093598Y-136763990D01*
X124196882Y-136515254D01*
X124197117Y-136245927D01*
X124094267Y-135997011D01*
X123903990Y-135806402D01*
X123655254Y-135703118D01*
X123557976Y-135703033D01*
X123606882Y-135585254D01*
X123607017Y-135430000D01*
X124228000Y-135430000D01*
X124262406Y-135602973D01*
X124360388Y-135749612D01*
X124507027Y-135847594D01*
X124680000Y-135882000D01*
X124852973Y-135847594D01*
X124999612Y-135749612D01*
X125009612Y-135739612D01*
X125107594Y-135592973D01*
X125142000Y-135420000D01*
X125107594Y-135247027D01*
X125009612Y-135100388D01*
X124862973Y-135002406D01*
X124690000Y-134968000D01*
X124517027Y-135002406D01*
X124370388Y-135100388D01*
X124360388Y-135110388D01*
X124262406Y-135257027D01*
X124228000Y-135430000D01*
X123607017Y-135430000D01*
X123607117Y-135315927D01*
X123504267Y-135067011D01*
X123313990Y-134876402D01*
X123065254Y-134773118D01*
X122795927Y-134772883D01*
X122547011Y-134875733D01*
X122356402Y-135066010D01*
X122253118Y-135314746D01*
X122252883Y-135584073D01*
X121038505Y-135584073D01*
X120994267Y-135477011D01*
X120803990Y-135286402D01*
X120555254Y-135183118D01*
X120285927Y-135182883D01*
X120037011Y-135285733D01*
X119846402Y-135476010D01*
X119743118Y-135724746D01*
X119742883Y-135994073D01*
X119009803Y-135994073D01*
X118935254Y-135963118D01*
X118665927Y-135962883D01*
X118417011Y-136065733D01*
X118226402Y-136256010D01*
X118152734Y-136433423D01*
X117935254Y-136343118D01*
X117665927Y-136342883D01*
X117417011Y-136445733D01*
X117226402Y-136636010D01*
X117123118Y-136884746D01*
X117122883Y-137154073D01*
X106924363Y-137154073D01*
X106284363Y-136514073D01*
X113032883Y-136514073D01*
X113135733Y-136762989D01*
X113326010Y-136953598D01*
X113574746Y-137056882D01*
X113844073Y-137057117D01*
X114092989Y-136954267D01*
X114283598Y-136763990D01*
X114386882Y-136515254D01*
X114387117Y-136245927D01*
X114284267Y-135997011D01*
X114093990Y-135806402D01*
X113845254Y-135703118D01*
X113575927Y-135702883D01*
X113327011Y-135805733D01*
X113136402Y-135996010D01*
X113033118Y-136244746D01*
X113032883Y-136514073D01*
X106284363Y-136514073D01*
X105017000Y-135246710D01*
X105017000Y-132333000D01*
X117510000Y-132333000D01*
X117510000Y-132633000D01*
X118418000Y-132633000D01*
X118418000Y-131593002D01*
X118258877Y-131465334D01*
X117902947Y-131638342D01*
X117637385Y-131946590D01*
X117510000Y-132333000D01*
X105017000Y-132333000D01*
X105017000Y-131481277D01*
X105381658Y-131237620D01*
X105647638Y-130839553D01*
X105676242Y-130695750D01*
X107455000Y-130695750D01*
X107455000Y-131386310D01*
X107551673Y-131619699D01*
X107730302Y-131798327D01*
X107963691Y-131895000D01*
X108654250Y-131895000D01*
X108813000Y-131736250D01*
X108813000Y-130537000D01*
X109067000Y-130537000D01*
X109067000Y-131736250D01*
X109225750Y-131895000D01*
X109916309Y-131895000D01*
X110149698Y-131798327D01*
X110328327Y-131619699D01*
X110425000Y-131386310D01*
X110425000Y-130695750D01*
X110266250Y-130537000D01*
X109067000Y-130537000D01*
X108813000Y-130537000D01*
X107613750Y-130537000D01*
X107455000Y-130695750D01*
X105676242Y-130695750D01*
X105741038Y-130370000D01*
X105647638Y-129900447D01*
X105381658Y-129502380D01*
X105278857Y-129433690D01*
X107455000Y-129433690D01*
X107455000Y-130124250D01*
X107613750Y-130283000D01*
X108813000Y-130283000D01*
X108813000Y-130263000D01*
X109067000Y-130263000D01*
X109067000Y-130283000D01*
X110266250Y-130283000D01*
X110425000Y-130124250D01*
X110425000Y-130074073D01*
X113212883Y-130074073D01*
X113315733Y-130322989D01*
X113506010Y-130513598D01*
X113754746Y-130616882D01*
X114024073Y-130617117D01*
X114272989Y-130514267D01*
X114463598Y-130323990D01*
X114566882Y-130075254D01*
X114567117Y-129805927D01*
X114464267Y-129557011D01*
X114273990Y-129366402D01*
X114051637Y-129274073D01*
X127062883Y-129274073D01*
X127165733Y-129522989D01*
X127356010Y-129713598D01*
X127604746Y-129816882D01*
X127874073Y-129817117D01*
X128122989Y-129714267D01*
X128313598Y-129523990D01*
X128416882Y-129275254D01*
X128417117Y-129005927D01*
X128314267Y-128757011D01*
X128123990Y-128566402D01*
X127875254Y-128463118D01*
X127605927Y-128462883D01*
X127357011Y-128565733D01*
X127166402Y-128756010D01*
X127063118Y-129004746D01*
X127062883Y-129274073D01*
X114051637Y-129274073D01*
X114025254Y-129263118D01*
X113755927Y-129262883D01*
X113507011Y-129365733D01*
X113316402Y-129556010D01*
X113213118Y-129804746D01*
X113212883Y-130074073D01*
X110425000Y-130074073D01*
X110425000Y-129433690D01*
X110328327Y-129200301D01*
X110149698Y-129021673D01*
X109916309Y-128925000D01*
X109551224Y-128925000D01*
X109831658Y-128737620D01*
X110097638Y-128339553D01*
X110191038Y-127870000D01*
X110097638Y-127400447D01*
X109831658Y-127002380D01*
X109733810Y-126937000D01*
X117150000Y-126937000D01*
X117150000Y-127237000D01*
X117277385Y-127623410D01*
X117542947Y-127931658D01*
X117898877Y-128104666D01*
X118058000Y-127976998D01*
X118058000Y-126937000D01*
X118312000Y-126937000D01*
X118312000Y-127976998D01*
X118471123Y-128104666D01*
X118827053Y-127931658D01*
X119092615Y-127623410D01*
X119220000Y-127237000D01*
X119220000Y-126937000D01*
X126130000Y-126937000D01*
X126130000Y-127237000D01*
X126257385Y-127623410D01*
X126522947Y-127931658D01*
X126878877Y-128104666D01*
X127038000Y-127976998D01*
X127038000Y-126937000D01*
X127292000Y-126937000D01*
X127292000Y-127976998D01*
X127451123Y-128104666D01*
X127807053Y-127931658D01*
X128072615Y-127623410D01*
X128200000Y-127237000D01*
X128200000Y-126937000D01*
X127292000Y-126937000D01*
X127038000Y-126937000D01*
X126130000Y-126937000D01*
X119220000Y-126937000D01*
X118312000Y-126937000D01*
X118058000Y-126937000D01*
X117150000Y-126937000D01*
X109733810Y-126937000D01*
X109588640Y-126840000D01*
X128885615Y-126840000D01*
X128885615Y-128540000D01*
X128911903Y-128679708D01*
X128994470Y-128808020D01*
X129120453Y-128894101D01*
X129270000Y-128924385D01*
X130970000Y-128924385D01*
X131109708Y-128898097D01*
X131238020Y-128815530D01*
X131324101Y-128689547D01*
X131354385Y-128540000D01*
X131354385Y-126860000D01*
X132625615Y-126860000D01*
X132625615Y-128560000D01*
X132651903Y-128699708D01*
X132734470Y-128828020D01*
X132860453Y-128914101D01*
X133010000Y-128944385D01*
X134710000Y-128944385D01*
X134849708Y-128918097D01*
X134978020Y-128835530D01*
X135064101Y-128709547D01*
X135094385Y-128560000D01*
X135094385Y-126880000D01*
X139445615Y-126880000D01*
X139445615Y-128580000D01*
X139471903Y-128719708D01*
X139554470Y-128848020D01*
X139680453Y-128934101D01*
X139830000Y-128964385D01*
X141530000Y-128964385D01*
X141669708Y-128938097D01*
X141798020Y-128855530D01*
X141884101Y-128729547D01*
X141914385Y-128580000D01*
X141914385Y-126880000D01*
X141888097Y-126740292D01*
X141805530Y-126611980D01*
X141679547Y-126525899D01*
X141530000Y-126495615D01*
X139830000Y-126495615D01*
X139690292Y-126521903D01*
X139561980Y-126604470D01*
X139475899Y-126730453D01*
X139445615Y-126880000D01*
X135094385Y-126880000D01*
X135094385Y-126860000D01*
X135068097Y-126720292D01*
X134985530Y-126591980D01*
X134859547Y-126505899D01*
X134710000Y-126475615D01*
X133010000Y-126475615D01*
X132870292Y-126501903D01*
X132741980Y-126584470D01*
X132655899Y-126710453D01*
X132625615Y-126860000D01*
X131354385Y-126860000D01*
X131354385Y-126840000D01*
X131328097Y-126700292D01*
X131245530Y-126571980D01*
X131119547Y-126485899D01*
X130970000Y-126455615D01*
X129270000Y-126455615D01*
X129130292Y-126481903D01*
X129001980Y-126564470D01*
X128915899Y-126690453D01*
X128885615Y-126840000D01*
X109588640Y-126840000D01*
X109433591Y-126736400D01*
X108964038Y-126643000D01*
X108915962Y-126643000D01*
X108446409Y-126736400D01*
X108048342Y-127002380D01*
X107782362Y-127400447D01*
X107688962Y-127870000D01*
X107782362Y-128339553D01*
X108048342Y-128737620D01*
X108328776Y-128925000D01*
X107963691Y-128925000D01*
X107730302Y-129021673D01*
X107551673Y-129200301D01*
X107455000Y-129433690D01*
X105278857Y-129433690D01*
X104983591Y-129236400D01*
X104514038Y-129143000D01*
X104465962Y-129143000D01*
X103996409Y-129236400D01*
X103598342Y-129502380D01*
X103332362Y-129900447D01*
X103238962Y-130370000D01*
X103032000Y-130370000D01*
X103032000Y-126980000D01*
X103255615Y-126980000D01*
X103255615Y-128680000D01*
X103281903Y-128819708D01*
X103364470Y-128948020D01*
X103490453Y-129034101D01*
X103640000Y-129064385D01*
X105340000Y-129064385D01*
X105479708Y-129038097D01*
X105608020Y-128955530D01*
X105694101Y-128829547D01*
X105724385Y-128680000D01*
X105724385Y-126980000D01*
X105698097Y-126840292D01*
X105615530Y-126711980D01*
X105489547Y-126625899D01*
X105340000Y-126595615D01*
X103640000Y-126595615D01*
X103500292Y-126621903D01*
X103371980Y-126704470D01*
X103285899Y-126830453D01*
X103255615Y-126980000D01*
X103032000Y-126980000D01*
X103032000Y-126092000D01*
X117245932Y-126092000D01*
X117150000Y-126383000D01*
G36*
X116703000Y-154279493D02*
X116656402Y-154326010D01*
X116553118Y-154574746D01*
X116553060Y-154641650D01*
X115721710Y-155473000D01*
X113018290Y-155473000D01*
X112140858Y-154595568D01*
X112104267Y-154507011D01*
X112057000Y-154459662D01*
X112057000Y-153238290D01*
X113818290Y-151477000D01*
X114375000Y-151477000D01*
X114576675Y-151436885D01*
X114747645Y-151322645D01*
X115072645Y-150997646D01*
X115186884Y-150826675D01*
X115186885Y-150826674D01*
X115227000Y-150625000D01*
X115227000Y-150512142D01*
X115334746Y-150556882D01*
X115604073Y-150557117D01*
X115852989Y-150454267D01*
X116018145Y-150289399D01*
X116204746Y-150366882D01*
X116474073Y-150367117D01*
X116703000Y-150272526D01*
X116703000Y-154279493D01*
X116703000Y-154279493D01*
G37*
X116703000Y-154279493D02*
X116656402Y-154326010D01*
X116553118Y-154574746D01*
X116553060Y-154641650D01*
X115721710Y-155473000D01*
X113018290Y-155473000D01*
X112140858Y-154595568D01*
X112104267Y-154507011D01*
X112057000Y-154459662D01*
X112057000Y-153238290D01*
X113818290Y-151477000D01*
X114375000Y-151477000D01*
X114576675Y-151436885D01*
X114747645Y-151322645D01*
X115072645Y-150997646D01*
X115186884Y-150826675D01*
X115186885Y-150826674D01*
X115227000Y-150625000D01*
X115227000Y-150512142D01*
X115334746Y-150556882D01*
X115604073Y-150557117D01*
X115852989Y-150454267D01*
X116018145Y-150289399D01*
X116204746Y-150366882D01*
X116474073Y-150367117D01*
X116703000Y-150272526D01*
X116703000Y-154279493D01*
G36*
X135130388Y-131544612D02*
X135277027Y-131642594D01*
X135450000Y-131677000D01*
X139725000Y-131677000D01*
X139897973Y-131642594D01*
X140044612Y-131544612D01*
X140153000Y-131436224D01*
X140153000Y-132001709D01*
X138277355Y-133877355D01*
X138163115Y-134048325D01*
X138143085Y-134149024D01*
X138123000Y-134250000D01*
X138123000Y-143206710D01*
X131802355Y-149527355D01*
X131688115Y-149698325D01*
X131674958Y-149764470D01*
X131648000Y-149900000D01*
X131648000Y-151081710D01*
X129536710Y-153193000D01*
X128000507Y-153193000D01*
X127953990Y-153146402D01*
X127705254Y-153043118D01*
X127435927Y-153042883D01*
X127313684Y-153093393D01*
X127022645Y-152802355D01*
X126851675Y-152688115D01*
X126756080Y-152669100D01*
X126912989Y-152604267D01*
X126916535Y-152600727D01*
X126925733Y-152622989D01*
X127116010Y-152813598D01*
X127364746Y-152916882D01*
X127634073Y-152917117D01*
X127882989Y-152814267D01*
X128073598Y-152623990D01*
X128176882Y-152375254D01*
X128177117Y-152105927D01*
X128074267Y-151857011D01*
X127883990Y-151666402D01*
X127635254Y-151563118D01*
X127365927Y-151562883D01*
X127117011Y-151665733D01*
X127113465Y-151669273D01*
X127104267Y-151647011D01*
X126913990Y-151456402D01*
X126665254Y-151353118D01*
X126395927Y-151352883D01*
X126147011Y-151455733D01*
X125956402Y-151646010D01*
X125853118Y-151894746D01*
X125852883Y-152164073D01*
X125955733Y-152412989D01*
X126146010Y-152603598D01*
X126252942Y-152648000D01*
X121925000Y-152648000D01*
X121723325Y-152688115D01*
X121552355Y-152802355D01*
X120171710Y-154183000D01*
X119213450Y-154183000D01*
X119282989Y-154154267D01*
X119473598Y-153963990D01*
X119576882Y-153715254D01*
X119577117Y-153445927D01*
X119474267Y-153197011D01*
X119283990Y-153006402D01*
X119166958Y-152957806D01*
X119167117Y-152775927D01*
X119064267Y-152527011D01*
X118873990Y-152336402D01*
X118744861Y-152282783D01*
X118826882Y-152085254D01*
X118827117Y-151815927D01*
X118724267Y-151567011D01*
X118533990Y-151376402D01*
X118285254Y-151273118D01*
X118015927Y-151272883D01*
X117767011Y-151375733D01*
X117757000Y-151385727D01*
X117757000Y-151144073D01*
X129842883Y-151144073D01*
X129945733Y-151392989D01*
X130136010Y-151583598D01*
X130384746Y-151686882D01*
X130654073Y-151687117D01*
X130902989Y-151584267D01*
X131093598Y-151393990D01*
X131196882Y-151145254D01*
X131197117Y-150875927D01*
X131180586Y-150835919D01*
X131232989Y-150814267D01*
X131423598Y-150623990D01*
X131526882Y-150375254D01*
X131527117Y-150105927D01*
X131424267Y-149857011D01*
X131233990Y-149666402D01*
X130985254Y-149563118D01*
X130715927Y-149562883D01*
X130467011Y-149665733D01*
X130276402Y-149856010D01*
X130173118Y-150104746D01*
X130172883Y-150374073D01*
X130189414Y-150414081D01*
X130137011Y-150435733D01*
X129946402Y-150626010D01*
X129843118Y-150874746D01*
X129842883Y-151144073D01*
X117757000Y-151144073D01*
X117757000Y-149908213D01*
X117763031Y-149904183D01*
X117762883Y-150074073D01*
X117865733Y-150322989D01*
X118056010Y-150513598D01*
X118304746Y-150616882D01*
X118574073Y-150617117D01*
X118822989Y-150514267D01*
X119013598Y-150323990D01*
X119116882Y-150075254D01*
X119117117Y-149805927D01*
X119014267Y-149557011D01*
X118823990Y-149366402D01*
X118575254Y-149263118D01*
X118407319Y-149262971D01*
X118776217Y-148894073D01*
X122332883Y-148894073D01*
X122435733Y-149142989D01*
X122626010Y-149333598D01*
X122874746Y-149436882D01*
X123073003Y-149437055D01*
X123072883Y-149574073D01*
X123175733Y-149822989D01*
X123366010Y-150013598D01*
X123614746Y-150116882D01*
X123884073Y-150117117D01*
X124132989Y-150014267D01*
X124323598Y-149823990D01*
X124426882Y-149575254D01*
X124427117Y-149305927D01*
X124324267Y-149057011D01*
X124133990Y-148866402D01*
X123885254Y-148763118D01*
X123686997Y-148762945D01*
X123687117Y-148625927D01*
X123584267Y-148377011D01*
X123393990Y-148186402D01*
X123145254Y-148083118D01*
X122875927Y-148082883D01*
X122627011Y-148185733D01*
X122436402Y-148376010D01*
X122333118Y-148624746D01*
X122332883Y-148894073D01*
X118776217Y-148894073D01*
X119568290Y-148102000D01*
X122400000Y-148102000D01*
X122572973Y-148067594D01*
X122669214Y-148003287D01*
X122751675Y-147986885D01*
X122922645Y-147872645D01*
X122948231Y-147847060D01*
X123014073Y-147847117D01*
X123262989Y-147744267D01*
X123453598Y-147553990D01*
X123556882Y-147305254D01*
X123556919Y-147263371D01*
X123816217Y-147004073D01*
X132552883Y-147004073D01*
X132655733Y-147252989D01*
X132846010Y-147443598D01*
X133094746Y-147546882D01*
X133364073Y-147547117D01*
X133612989Y-147444267D01*
X133803598Y-147253990D01*
X133906882Y-147005254D01*
X133907117Y-146735927D01*
X133804267Y-146487011D01*
X133613990Y-146296402D01*
X133365254Y-146193118D01*
X133095927Y-146192883D01*
X132847011Y-146295733D01*
X132656402Y-146486010D01*
X132553118Y-146734746D01*
X132552883Y-147004073D01*
X123816217Y-147004073D01*
X126716217Y-144104073D01*
X127502883Y-144104073D01*
X127605733Y-144352989D01*
X127796010Y-144543598D01*
X128044746Y-144646882D01*
X128314073Y-144647117D01*
X128562989Y-144544267D01*
X128753598Y-144353990D01*
X128856882Y-144105254D01*
X128857117Y-143835927D01*
X128754267Y-143587011D01*
X128563990Y-143396402D01*
X128315254Y-143293118D01*
X128045927Y-143292883D01*
X127797011Y-143395733D01*
X127606402Y-143586010D01*
X127503118Y-143834746D01*
X127502883Y-144104073D01*
X126716217Y-144104073D01*
X126822645Y-143997645D01*
X126936885Y-143826675D01*
X126977000Y-143625000D01*
X126974514Y-143612500D01*
X126977000Y-143600000D01*
X126977000Y-141540000D01*
X126936885Y-141338326D01*
X126936885Y-141338325D01*
X126822645Y-141167355D01*
X126155290Y-140500000D01*
X126715145Y-139940145D01*
X126829385Y-139769175D01*
X126839166Y-139720000D01*
X132185615Y-139720000D01*
X132185615Y-141420000D01*
X132211903Y-141559708D01*
X132294470Y-141688020D01*
X132420453Y-141774101D01*
X132570000Y-141804385D01*
X134270000Y-141804385D01*
X134409708Y-141778097D01*
X134538020Y-141695530D01*
X134624101Y-141569547D01*
X134654385Y-141420000D01*
X134654385Y-140545962D01*
X134733000Y-140545962D01*
X134733000Y-140594038D01*
X134826400Y-141063591D01*
X135092380Y-141461658D01*
X135490447Y-141727638D01*
X135960000Y-141821038D01*
X136429553Y-141727638D01*
X136827620Y-141461658D01*
X137093600Y-141063591D01*
X137187000Y-140594038D01*
X137187000Y-140545962D01*
X137093600Y-140076409D01*
X136827620Y-139678342D01*
X136429553Y-139412362D01*
X135960000Y-139318962D01*
X135490447Y-139412362D01*
X135092380Y-139678342D01*
X134826400Y-140076409D01*
X134733000Y-140545962D01*
X134654385Y-140545962D01*
X134654385Y-139720000D01*
X134628097Y-139580292D01*
X134545530Y-139451980D01*
X134419547Y-139365899D01*
X134270000Y-139335615D01*
X132570000Y-139335615D01*
X132430292Y-139361903D01*
X132301980Y-139444470D01*
X132215899Y-139570453D01*
X132185615Y-139720000D01*
X126839166Y-139720000D01*
X126869500Y-139567500D01*
X126869500Y-136109500D01*
X127667500Y-136109500D01*
X127869175Y-136069385D01*
X128040145Y-135955145D01*
X130011217Y-133984073D01*
X132702883Y-133984073D01*
X132805733Y-134232989D01*
X132996010Y-134423598D01*
X133131917Y-134480032D01*
X133118000Y-134550000D01*
X133152406Y-134722973D01*
X133250388Y-134869612D01*
X133260388Y-134879612D01*
X133407027Y-134977594D01*
X133580000Y-135012000D01*
X134300000Y-135012000D01*
X134472973Y-134977594D01*
X134619612Y-134879612D01*
X134717594Y-134732973D01*
X134752000Y-134560000D01*
X134717594Y-134387027D01*
X134619612Y-134240388D01*
X134472973Y-134142406D01*
X134300000Y-134108000D01*
X134005914Y-134108000D01*
X134056882Y-133985254D01*
X134057117Y-133715927D01*
X133954267Y-133467011D01*
X133763990Y-133276402D01*
X133515254Y-133173118D01*
X133245927Y-133172883D01*
X132997011Y-133275733D01*
X132806402Y-133466010D01*
X132703118Y-133714746D01*
X132702883Y-133984073D01*
X130011217Y-133984073D01*
X130492645Y-133502645D01*
X130606885Y-133331674D01*
X130647000Y-133130000D01*
X130647000Y-132524073D01*
X136152883Y-132524073D01*
X136255733Y-132772989D01*
X136446010Y-132963598D01*
X136694746Y-133066882D01*
X136964073Y-133067117D01*
X137212989Y-132964267D01*
X137403598Y-132773990D01*
X137506882Y-132525254D01*
X137507117Y-132255927D01*
X137404267Y-132007011D01*
X137213990Y-131816402D01*
X136965254Y-131713118D01*
X136695927Y-131712883D01*
X136447011Y-131815733D01*
X136256402Y-132006010D01*
X136153118Y-132254746D01*
X136152883Y-132524073D01*
X130647000Y-132524073D01*
X130647000Y-131341277D01*
X130769920Y-131259144D01*
X131230388Y-131719612D01*
X131377027Y-131817594D01*
X131550000Y-131852000D01*
X132710000Y-131852000D01*
X132882973Y-131817594D01*
X133029612Y-131719612D01*
X133365939Y-131383286D01*
X133366409Y-131383600D01*
X133835962Y-131477000D01*
X133884038Y-131477000D01*
X134353591Y-131383600D01*
X134722727Y-131136951D01*
X135130388Y-131544612D01*
X135130388Y-131544612D01*
G37*
X135130388Y-131544612D02*
X135277027Y-131642594D01*
X135450000Y-131677000D01*
X139725000Y-131677000D01*
X139897973Y-131642594D01*
X140044612Y-131544612D01*
X140153000Y-131436224D01*
X140153000Y-132001709D01*
X138277355Y-133877355D01*
X138163115Y-134048325D01*
X138143085Y-134149024D01*
X138123000Y-134250000D01*
X138123000Y-143206710D01*
X131802355Y-149527355D01*
X131688115Y-149698325D01*
X131674958Y-149764470D01*
X131648000Y-149900000D01*
X131648000Y-151081710D01*
X129536710Y-153193000D01*
X128000507Y-153193000D01*
X127953990Y-153146402D01*
X127705254Y-153043118D01*
X127435927Y-153042883D01*
X127313684Y-153093393D01*
X127022645Y-152802355D01*
X126851675Y-152688115D01*
X126756080Y-152669100D01*
X126912989Y-152604267D01*
X126916535Y-152600727D01*
X126925733Y-152622989D01*
X127116010Y-152813598D01*
X127364746Y-152916882D01*
X127634073Y-152917117D01*
X127882989Y-152814267D01*
X128073598Y-152623990D01*
X128176882Y-152375254D01*
X128177117Y-152105927D01*
X128074267Y-151857011D01*
X127883990Y-151666402D01*
X127635254Y-151563118D01*
X127365927Y-151562883D01*
X127117011Y-151665733D01*
X127113465Y-151669273D01*
X127104267Y-151647011D01*
X126913990Y-151456402D01*
X126665254Y-151353118D01*
X126395927Y-151352883D01*
X126147011Y-151455733D01*
X125956402Y-151646010D01*
X125853118Y-151894746D01*
X125852883Y-152164073D01*
X125955733Y-152412989D01*
X126146010Y-152603598D01*
X126252942Y-152648000D01*
X121925000Y-152648000D01*
X121723325Y-152688115D01*
X121552355Y-152802355D01*
X120171710Y-154183000D01*
X119213450Y-154183000D01*
X119282989Y-154154267D01*
X119473598Y-153963990D01*
X119576882Y-153715254D01*
X119577117Y-153445927D01*
X119474267Y-153197011D01*
X119283990Y-153006402D01*
X119166958Y-152957806D01*
X119167117Y-152775927D01*
X119064267Y-152527011D01*
X118873990Y-152336402D01*
X118744861Y-152282783D01*
X118826882Y-152085254D01*
X118827117Y-151815927D01*
X118724267Y-151567011D01*
X118533990Y-151376402D01*
X118285254Y-151273118D01*
X118015927Y-151272883D01*
X117767011Y-151375733D01*
X117757000Y-151385727D01*
X117757000Y-151144073D01*
X129842883Y-151144073D01*
X129945733Y-151392989D01*
X130136010Y-151583598D01*
X130384746Y-151686882D01*
X130654073Y-151687117D01*
X130902989Y-151584267D01*
X131093598Y-151393990D01*
X131196882Y-151145254D01*
X131197117Y-150875927D01*
X131180586Y-150835919D01*
X131232989Y-150814267D01*
X131423598Y-150623990D01*
X131526882Y-150375254D01*
X131527117Y-150105927D01*
X131424267Y-149857011D01*
X131233990Y-149666402D01*
X130985254Y-149563118D01*
X130715927Y-149562883D01*
X130467011Y-149665733D01*
X130276402Y-149856010D01*
X130173118Y-150104746D01*
X130172883Y-150374073D01*
X130189414Y-150414081D01*
X130137011Y-150435733D01*
X129946402Y-150626010D01*
X129843118Y-150874746D01*
X129842883Y-151144073D01*
X117757000Y-151144073D01*
X117757000Y-149908213D01*
X117763031Y-149904183D01*
X117762883Y-150074073D01*
X117865733Y-150322989D01*
X118056010Y-150513598D01*
X118304746Y-150616882D01*
X118574073Y-150617117D01*
X118822989Y-150514267D01*
X119013598Y-150323990D01*
X119116882Y-150075254D01*
X119117117Y-149805927D01*
X119014267Y-149557011D01*
X118823990Y-149366402D01*
X118575254Y-149263118D01*
X118407319Y-149262971D01*
X118776217Y-148894073D01*
X122332883Y-148894073D01*
X122435733Y-149142989D01*
X122626010Y-149333598D01*
X122874746Y-149436882D01*
X123073003Y-149437055D01*
X123072883Y-149574073D01*
X123175733Y-149822989D01*
X123366010Y-150013598D01*
X123614746Y-150116882D01*
X123884073Y-150117117D01*
X124132989Y-150014267D01*
X124323598Y-149823990D01*
X124426882Y-149575254D01*
X124427117Y-149305927D01*
X124324267Y-149057011D01*
X124133990Y-148866402D01*
X123885254Y-148763118D01*
X123686997Y-148762945D01*
X123687117Y-148625927D01*
X123584267Y-148377011D01*
X123393990Y-148186402D01*
X123145254Y-148083118D01*
X122875927Y-148082883D01*
X122627011Y-148185733D01*
X122436402Y-148376010D01*
X122333118Y-148624746D01*
X122332883Y-148894073D01*
X118776217Y-148894073D01*
X119568290Y-148102000D01*
X122400000Y-148102000D01*
X122572973Y-148067594D01*
X122669214Y-148003287D01*
X122751675Y-147986885D01*
X122922645Y-147872645D01*
X122948231Y-147847060D01*
X123014073Y-147847117D01*
X123262989Y-147744267D01*
X123453598Y-147553990D01*
X123556882Y-147305254D01*
X123556919Y-147263371D01*
X123816217Y-147004073D01*
X132552883Y-147004073D01*
X132655733Y-147252989D01*
X132846010Y-147443598D01*
X133094746Y-147546882D01*
X133364073Y-147547117D01*
X133612989Y-147444267D01*
X133803598Y-147253990D01*
X133906882Y-147005254D01*
X133907117Y-146735927D01*
X133804267Y-146487011D01*
X133613990Y-146296402D01*
X133365254Y-146193118D01*
X133095927Y-146192883D01*
X132847011Y-146295733D01*
X132656402Y-146486010D01*
X132553118Y-146734746D01*
X132552883Y-147004073D01*
X123816217Y-147004073D01*
X126716217Y-144104073D01*
X127502883Y-144104073D01*
X127605733Y-144352989D01*
X127796010Y-144543598D01*
X128044746Y-144646882D01*
X128314073Y-144647117D01*
X128562989Y-144544267D01*
X128753598Y-144353990D01*
X128856882Y-144105254D01*
X128857117Y-143835927D01*
X128754267Y-143587011D01*
X128563990Y-143396402D01*
X128315254Y-143293118D01*
X128045927Y-143292883D01*
X127797011Y-143395733D01*
X127606402Y-143586010D01*
X127503118Y-143834746D01*
X127502883Y-144104073D01*
X126716217Y-144104073D01*
X126822645Y-143997645D01*
X126936885Y-143826675D01*
X126977000Y-143625000D01*
X126974514Y-143612500D01*
X126977000Y-143600000D01*
X126977000Y-141540000D01*
X126936885Y-141338326D01*
X126936885Y-141338325D01*
X126822645Y-141167355D01*
X126155290Y-140500000D01*
X126715145Y-139940145D01*
X126829385Y-139769175D01*
X126839166Y-139720000D01*
X132185615Y-139720000D01*
X132185615Y-141420000D01*
X132211903Y-141559708D01*
X132294470Y-141688020D01*
X132420453Y-141774101D01*
X132570000Y-141804385D01*
X134270000Y-141804385D01*
X134409708Y-141778097D01*
X134538020Y-141695530D01*
X134624101Y-141569547D01*
X134654385Y-141420000D01*
X134654385Y-140545962D01*
X134733000Y-140545962D01*
X134733000Y-140594038D01*
X134826400Y-141063591D01*
X135092380Y-141461658D01*
X135490447Y-141727638D01*
X135960000Y-141821038D01*
X136429553Y-141727638D01*
X136827620Y-141461658D01*
X137093600Y-141063591D01*
X137187000Y-140594038D01*
X137187000Y-140545962D01*
X137093600Y-140076409D01*
X136827620Y-139678342D01*
X136429553Y-139412362D01*
X135960000Y-139318962D01*
X135490447Y-139412362D01*
X135092380Y-139678342D01*
X134826400Y-140076409D01*
X134733000Y-140545962D01*
X134654385Y-140545962D01*
X134654385Y-139720000D01*
X134628097Y-139580292D01*
X134545530Y-139451980D01*
X134419547Y-139365899D01*
X134270000Y-139335615D01*
X132570000Y-139335615D01*
X132430292Y-139361903D01*
X132301980Y-139444470D01*
X132215899Y-139570453D01*
X132185615Y-139720000D01*
X126839166Y-139720000D01*
X126869500Y-139567500D01*
X126869500Y-136109500D01*
X127667500Y-136109500D01*
X127869175Y-136069385D01*
X128040145Y-135955145D01*
X130011217Y-133984073D01*
X132702883Y-133984073D01*
X132805733Y-134232989D01*
X132996010Y-134423598D01*
X133131917Y-134480032D01*
X133118000Y-134550000D01*
X133152406Y-134722973D01*
X133250388Y-134869612D01*
X133260388Y-134879612D01*
X133407027Y-134977594D01*
X133580000Y-135012000D01*
X134300000Y-135012000D01*
X134472973Y-134977594D01*
X134619612Y-134879612D01*
X134717594Y-134732973D01*
X134752000Y-134560000D01*
X134717594Y-134387027D01*
X134619612Y-134240388D01*
X134472973Y-134142406D01*
X134300000Y-134108000D01*
X134005914Y-134108000D01*
X134056882Y-133985254D01*
X134057117Y-133715927D01*
X133954267Y-133467011D01*
X133763990Y-133276402D01*
X133515254Y-133173118D01*
X133245927Y-133172883D01*
X132997011Y-133275733D01*
X132806402Y-133466010D01*
X132703118Y-133714746D01*
X132702883Y-133984073D01*
X130011217Y-133984073D01*
X130492645Y-133502645D01*
X130606885Y-133331674D01*
X130647000Y-133130000D01*
X130647000Y-132524073D01*
X136152883Y-132524073D01*
X136255733Y-132772989D01*
X136446010Y-132963598D01*
X136694746Y-133066882D01*
X136964073Y-133067117D01*
X137212989Y-132964267D01*
X137403598Y-132773990D01*
X137506882Y-132525254D01*
X137507117Y-132255927D01*
X137404267Y-132007011D01*
X137213990Y-131816402D01*
X136965254Y-131713118D01*
X136695927Y-131712883D01*
X136447011Y-131815733D01*
X136256402Y-132006010D01*
X136153118Y-132254746D01*
X136152883Y-132524073D01*
X130647000Y-132524073D01*
X130647000Y-131341277D01*
X130769920Y-131259144D01*
X131230388Y-131719612D01*
X131377027Y-131817594D01*
X131550000Y-131852000D01*
X132710000Y-131852000D01*
X132882973Y-131817594D01*
X133029612Y-131719612D01*
X133365939Y-131383286D01*
X133366409Y-131383600D01*
X133835962Y-131477000D01*
X133884038Y-131477000D01*
X134353591Y-131383600D01*
X134722727Y-131136951D01*
X135130388Y-131544612D01*
G36*
X119628680Y-132934075D02*
X119679526Y-133057132D01*
X119876830Y-133254780D01*
X120049276Y-133326386D01*
X120068748Y-133345858D01*
X120054605Y-133360000D01*
X120068748Y-133374143D01*
X119889143Y-133553748D01*
X119875000Y-133539605D01*
X119860858Y-133553748D01*
X119681253Y-133374143D01*
X119695395Y-133360000D01*
X119565718Y-133230323D01*
X119580000Y-133187000D01*
X119580000Y-132885395D01*
X119628680Y-132934075D01*
X119628680Y-132934075D01*
G37*
X119628680Y-132934075D02*
X119679526Y-133057132D01*
X119876830Y-133254780D01*
X120049276Y-133326386D01*
X120068748Y-133345858D01*
X120054605Y-133360000D01*
X120068748Y-133374143D01*
X119889143Y-133553748D01*
X119875000Y-133539605D01*
X119860858Y-133553748D01*
X119681253Y-133374143D01*
X119695395Y-133360000D01*
X119565718Y-133230323D01*
X119580000Y-133187000D01*
X119580000Y-132885395D01*
X119628680Y-132934075D01*
G36*
X125770000Y-133187000D02*
X125784282Y-133230323D01*
X125654605Y-133360000D01*
X125668748Y-133374143D01*
X125489143Y-133553748D01*
X125475000Y-133539605D01*
X125460858Y-133553748D01*
X125281253Y-133374143D01*
X125295395Y-133360000D01*
X125281253Y-133345858D01*
X125300874Y-133326236D01*
X125472132Y-133255474D01*
X125669780Y-133058170D01*
X125721301Y-132934094D01*
X125770000Y-132885395D01*
X125770000Y-133187000D01*
X125770000Y-133187000D01*
G37*
X125770000Y-133187000D02*
X125784282Y-133230323D01*
X125654605Y-133360000D01*
X125668748Y-133374143D01*
X125489143Y-133553748D01*
X125475000Y-133539605D01*
X125460858Y-133553748D01*
X125281253Y-133374143D01*
X125295395Y-133360000D01*
X125281253Y-133345858D01*
X125300874Y-133326236D01*
X125472132Y-133255474D01*
X125669780Y-133058170D01*
X125721301Y-132934094D01*
X125770000Y-132885395D01*
X125770000Y-133187000D01*
G36*
X128283642Y-107519817D02*
X127893355Y-107948076D01*
X127723524Y-108358110D01*
X127844845Y-108588000D01*
X129038000Y-108588000D01*
X129038000Y-108568000D01*
X129292000Y-108568000D01*
X129292000Y-108588000D01*
X129312000Y-108588000D01*
X129312000Y-108842000D01*
X129292000Y-108842000D01*
X129292000Y-108862000D01*
X129038000Y-108862000D01*
X129038000Y-108842000D01*
X127844845Y-108842000D01*
X127723524Y-109071890D01*
X127893355Y-109481924D01*
X128283642Y-109910183D01*
X128518791Y-110020615D01*
X128315000Y-110020615D01*
X128175292Y-110046903D01*
X128046980Y-110129470D01*
X127960899Y-110255453D01*
X127930615Y-110405000D01*
X127930615Y-111173772D01*
X127700254Y-111078118D01*
X127430927Y-111077883D01*
X127182011Y-111180733D01*
X126991402Y-111371010D01*
X126888118Y-111619746D01*
X126887883Y-111889073D01*
X126990733Y-112137989D01*
X127181010Y-112328598D01*
X127429746Y-112431882D01*
X127699073Y-112432117D01*
X127947989Y-112329267D01*
X127986547Y-112290776D01*
X128039470Y-112373020D01*
X128165453Y-112459101D01*
X128315000Y-112489385D01*
X130015000Y-112489385D01*
X130154708Y-112463097D01*
X130283020Y-112380530D01*
X130369101Y-112254547D01*
X130399385Y-112105000D01*
X130399385Y-110405000D01*
X130373097Y-110265292D01*
X130290530Y-110136980D01*
X130164547Y-110050899D01*
X130015000Y-110020615D01*
X129811209Y-110020615D01*
X130046358Y-109910183D01*
X130436645Y-109481924D01*
X130538000Y-109237216D01*
X130538000Y-112548000D01*
X128185000Y-112548000D01*
X128135590Y-112558006D01*
X128093965Y-112586447D01*
X128066685Y-112628841D01*
X128065943Y-112632785D01*
X127917027Y-112662406D01*
X127770388Y-112760388D01*
X127672406Y-112907027D01*
X127638000Y-113080000D01*
X127638000Y-121180096D01*
X127452345Y-121056046D01*
X127155000Y-120996900D01*
X126857655Y-121056046D01*
X126605578Y-121224478D01*
X126437146Y-121476555D01*
X126378000Y-121773900D01*
X126378000Y-122416100D01*
X126430096Y-122678000D01*
X118899904Y-122678000D01*
X118952000Y-122416100D01*
X118952000Y-121773900D01*
X118892854Y-121476555D01*
X118724422Y-121224478D01*
X118472345Y-121056046D01*
X118175000Y-120996900D01*
X117877655Y-121056046D01*
X117702000Y-121173415D01*
X117702000Y-115823900D01*
X117758000Y-115823900D01*
X117758000Y-116466100D01*
X117817146Y-116763445D01*
X117985578Y-117015522D01*
X118237655Y-117183954D01*
X118535000Y-117243100D01*
X118832345Y-117183954D01*
X119084422Y-117015522D01*
X119252854Y-116763445D01*
X119312000Y-116466100D01*
X119312000Y-115984680D01*
X119466830Y-116139780D01*
X119563056Y-116179737D01*
X119562878Y-116384024D01*
X119669526Y-116642132D01*
X119866830Y-116839780D01*
X120124751Y-116946878D01*
X120404024Y-116947122D01*
X120662132Y-116840474D01*
X120664832Y-116837779D01*
X120666830Y-116839780D01*
X120924751Y-116946878D01*
X121204024Y-116947122D01*
X121462132Y-116840474D01*
X121464832Y-116837779D01*
X121466830Y-116839780D01*
X121724751Y-116946878D01*
X122004024Y-116947122D01*
X122262132Y-116840474D01*
X122459780Y-116643170D01*
X122566878Y-116385249D01*
X122567058Y-116179758D01*
X122662132Y-116140474D01*
X122664832Y-116137779D01*
X122666830Y-116139780D01*
X122763056Y-116179737D01*
X122762878Y-116384024D01*
X122869526Y-116642132D01*
X123066830Y-116839780D01*
X123324751Y-116946878D01*
X123586383Y-116947107D01*
X123664442Y-117025166D01*
X123781930Y-116907678D01*
X123797279Y-117104827D01*
X124161924Y-117218366D01*
X124542262Y-117183717D01*
X124674599Y-117128902D01*
X124961924Y-117218366D01*
X125342262Y-117183717D01*
X125532721Y-117104827D01*
X125548070Y-116907675D01*
X125179031Y-116538636D01*
X125238366Y-116348076D01*
X125225388Y-116205619D01*
X125239276Y-116211386D01*
X125258748Y-116230858D01*
X125244605Y-116245000D01*
X125727675Y-116728070D01*
X125924827Y-116712721D01*
X126018000Y-116413484D01*
X126018000Y-116466100D01*
X126077146Y-116763445D01*
X126245578Y-117015522D01*
X126497655Y-117183954D01*
X126795000Y-117243100D01*
X127092345Y-117183954D01*
X127344422Y-117015522D01*
X127512854Y-116763445D01*
X127572000Y-116466100D01*
X127572000Y-115823900D01*
X127512854Y-115526555D01*
X127344422Y-115274478D01*
X127092345Y-115106046D01*
X127091736Y-115105925D01*
X127133692Y-114895000D01*
X127080255Y-114626356D01*
X126928081Y-114398611D01*
X126700336Y-114246437D01*
X126431692Y-114193000D01*
X126098308Y-114193000D01*
X125829664Y-114246437D01*
X125601919Y-114398611D01*
X125449745Y-114626356D01*
X125406662Y-114842948D01*
X125325976Y-114842878D01*
X125241630Y-114877729D01*
X125239267Y-114872011D01*
X125048990Y-114681402D01*
X124800254Y-114578118D01*
X124530927Y-114577883D01*
X124282011Y-114680733D01*
X124091402Y-114871010D01*
X124088609Y-114877736D01*
X124005249Y-114843122D01*
X123725976Y-114842878D01*
X123467868Y-114949526D01*
X123465168Y-114952221D01*
X123463170Y-114950220D01*
X123205249Y-114843122D01*
X122925976Y-114842878D01*
X122667868Y-114949526D01*
X122665168Y-114952221D01*
X122663170Y-114950220D01*
X122405249Y-114843122D01*
X122125976Y-114842878D01*
X121867868Y-114949526D01*
X121865168Y-114952221D01*
X121863170Y-114950220D01*
X121605249Y-114843122D01*
X121325976Y-114842878D01*
X121067868Y-114949526D01*
X120870220Y-115146830D01*
X120763122Y-115404751D01*
X120762942Y-115610242D01*
X120667868Y-115649526D01*
X120665168Y-115652221D01*
X120663170Y-115650220D01*
X120566944Y-115610263D01*
X120567122Y-115405976D01*
X120460474Y-115147868D01*
X120263170Y-114950220D01*
X120005249Y-114843122D01*
X119767046Y-114842914D01*
X119767122Y-114755976D01*
X119660474Y-114497868D01*
X119463170Y-114300220D01*
X119205249Y-114193122D01*
X118925976Y-114192878D01*
X118667868Y-114299526D01*
X118470220Y-114496830D01*
X118363122Y-114754751D01*
X118362878Y-115034024D01*
X118380866Y-115077559D01*
X118237655Y-115106046D01*
X117985578Y-115274478D01*
X117817146Y-115526555D01*
X117758000Y-115823900D01*
X117702000Y-115823900D01*
X117702000Y-113080000D01*
X117667594Y-112907027D01*
X117588779Y-112789073D01*
X122787883Y-112789073D01*
X122890733Y-113037989D01*
X123081010Y-113228598D01*
X123329746Y-113331882D01*
X123599073Y-113332117D01*
X123847989Y-113229267D01*
X124038598Y-113038990D01*
X124083481Y-112930899D01*
X124142136Y-112989656D01*
X124088118Y-113119746D01*
X124087883Y-113389073D01*
X124190733Y-113637989D01*
X124381010Y-113828598D01*
X124629746Y-113931882D01*
X124899073Y-113932117D01*
X125147989Y-113829267D01*
X125338598Y-113638990D01*
X125441882Y-113390254D01*
X125442117Y-113120927D01*
X125339267Y-112872011D01*
X125187864Y-112720344D01*
X125241882Y-112590254D01*
X125242117Y-112320927D01*
X125139267Y-112072011D01*
X124948990Y-111881402D01*
X124700254Y-111778118D01*
X124430927Y-111777883D01*
X124182011Y-111880733D01*
X123991402Y-112071010D01*
X123946519Y-112179101D01*
X123848990Y-112081402D01*
X123600254Y-111978118D01*
X123330927Y-111977883D01*
X123082011Y-112080733D01*
X122891402Y-112271010D01*
X122788118Y-112519746D01*
X122787883Y-112789073D01*
X117588779Y-112789073D01*
X117569612Y-112760388D01*
X117422973Y-112662406D01*
X117299928Y-112637931D01*
X117283553Y-112613965D01*
X117241159Y-112586685D01*
X117195000Y-112578000D01*
X114812000Y-112578000D01*
X114812000Y-109285503D01*
X114893355Y-109481924D01*
X115283642Y-109910183D01*
X115518791Y-110020615D01*
X115315000Y-110020615D01*
X115175292Y-110046903D01*
X115046980Y-110129470D01*
X114960899Y-110255453D01*
X114930615Y-110405000D01*
X114930615Y-112105000D01*
X114956903Y-112244708D01*
X115039470Y-112373020D01*
X115165453Y-112459101D01*
X115315000Y-112489385D01*
X117015000Y-112489385D01*
X117154708Y-112463097D01*
X117283020Y-112380530D01*
X117369101Y-112254547D01*
X117399385Y-112105000D01*
X117399385Y-110889073D01*
X119687883Y-110889073D01*
X119790733Y-111137989D01*
X119981010Y-111328598D01*
X120229746Y-111431882D01*
X120499073Y-111432117D01*
X120747989Y-111329267D01*
X120938598Y-111138990D01*
X121041882Y-110890254D01*
X121042117Y-110620927D01*
X120939267Y-110372011D01*
X120748990Y-110181402D01*
X120500254Y-110078118D01*
X120230927Y-110077883D01*
X119982011Y-110180733D01*
X119791402Y-110371010D01*
X119688118Y-110619746D01*
X119687883Y-110889073D01*
X117399385Y-110889073D01*
X117399385Y-110405000D01*
X117373097Y-110265292D01*
X117290530Y-110136980D01*
X117164547Y-110050899D01*
X117015000Y-110020615D01*
X116811209Y-110020615D01*
X117046358Y-109910183D01*
X117065596Y-109889073D01*
X117987883Y-109889073D01*
X118090733Y-110137989D01*
X118281010Y-110328598D01*
X118529746Y-110431882D01*
X118799073Y-110432117D01*
X119047989Y-110329267D01*
X119238598Y-110138990D01*
X119341882Y-109890254D01*
X119342117Y-109620927D01*
X119246317Y-109389073D01*
X119987883Y-109389073D01*
X120090733Y-109637989D01*
X120281010Y-109828598D01*
X120529746Y-109931882D01*
X120799073Y-109932117D01*
X121047989Y-109829267D01*
X121238598Y-109638990D01*
X121341882Y-109390254D01*
X121342117Y-109120927D01*
X121239267Y-108872011D01*
X121048990Y-108681402D01*
X120800254Y-108578118D01*
X120530927Y-108577883D01*
X120282011Y-108680733D01*
X120091402Y-108871010D01*
X119988118Y-109119746D01*
X119987883Y-109389073D01*
X119246317Y-109389073D01*
X119239267Y-109372011D01*
X119048990Y-109181402D01*
X118800254Y-109078118D01*
X118530927Y-109077883D01*
X118282011Y-109180733D01*
X118091402Y-109371010D01*
X117988118Y-109619746D01*
X117987883Y-109889073D01*
X117065596Y-109889073D01*
X117436645Y-109481924D01*
X117606476Y-109071890D01*
X117485155Y-108842000D01*
X116292000Y-108842000D01*
X116292000Y-108862000D01*
X116038000Y-108862000D01*
X116038000Y-108842000D01*
X116018000Y-108842000D01*
X116018000Y-108588000D01*
X116038000Y-108588000D01*
X116038000Y-108568000D01*
X116292000Y-108568000D01*
X116292000Y-108588000D01*
X117485155Y-108588000D01*
X117606476Y-108358110D01*
X117436645Y-107948076D01*
X117046358Y-107519817D01*
X116646429Y-107332000D01*
X128683571Y-107332000D01*
X128283642Y-107519817D01*
X128283642Y-107519817D01*
G37*
X128283642Y-107519817D02*
X127893355Y-107948076D01*
X127723524Y-108358110D01*
X127844845Y-108588000D01*
X129038000Y-108588000D01*
X129038000Y-108568000D01*
X129292000Y-108568000D01*
X129292000Y-108588000D01*
X129312000Y-108588000D01*
X129312000Y-108842000D01*
X129292000Y-108842000D01*
X129292000Y-108862000D01*
X129038000Y-108862000D01*
X129038000Y-108842000D01*
X127844845Y-108842000D01*
X127723524Y-109071890D01*
X127893355Y-109481924D01*
X128283642Y-109910183D01*
X128518791Y-110020615D01*
X128315000Y-110020615D01*
X128175292Y-110046903D01*
X128046980Y-110129470D01*
X127960899Y-110255453D01*
X127930615Y-110405000D01*
X127930615Y-111173772D01*
X127700254Y-111078118D01*
X127430927Y-111077883D01*
X127182011Y-111180733D01*
X126991402Y-111371010D01*
X126888118Y-111619746D01*
X126887883Y-111889073D01*
X126990733Y-112137989D01*
X127181010Y-112328598D01*
X127429746Y-112431882D01*
X127699073Y-112432117D01*
X127947989Y-112329267D01*
X127986547Y-112290776D01*
X128039470Y-112373020D01*
X128165453Y-112459101D01*
X128315000Y-112489385D01*
X130015000Y-112489385D01*
X130154708Y-112463097D01*
X130283020Y-112380530D01*
X130369101Y-112254547D01*
X130399385Y-112105000D01*
X130399385Y-110405000D01*
X130373097Y-110265292D01*
X130290530Y-110136980D01*
X130164547Y-110050899D01*
X130015000Y-110020615D01*
X129811209Y-110020615D01*
X130046358Y-109910183D01*
X130436645Y-109481924D01*
X130538000Y-109237216D01*
X130538000Y-112548000D01*
X128185000Y-112548000D01*
X128135590Y-112558006D01*
X128093965Y-112586447D01*
X128066685Y-112628841D01*
X128065943Y-112632785D01*
X127917027Y-112662406D01*
X127770388Y-112760388D01*
X127672406Y-112907027D01*
X127638000Y-113080000D01*
X127638000Y-121180096D01*
X127452345Y-121056046D01*
X127155000Y-120996900D01*
X126857655Y-121056046D01*
X126605578Y-121224478D01*
X126437146Y-121476555D01*
X126378000Y-121773900D01*
X126378000Y-122416100D01*
X126430096Y-122678000D01*
X118899904Y-122678000D01*
X118952000Y-122416100D01*
X118952000Y-121773900D01*
X118892854Y-121476555D01*
X118724422Y-121224478D01*
X118472345Y-121056046D01*
X118175000Y-120996900D01*
X117877655Y-121056046D01*
X117702000Y-121173415D01*
X117702000Y-115823900D01*
X117758000Y-115823900D01*
X117758000Y-116466100D01*
X117817146Y-116763445D01*
X117985578Y-117015522D01*
X118237655Y-117183954D01*
X118535000Y-117243100D01*
X118832345Y-117183954D01*
X119084422Y-117015522D01*
X119252854Y-116763445D01*
X119312000Y-116466100D01*
X119312000Y-115984680D01*
X119466830Y-116139780D01*
X119563056Y-116179737D01*
X119562878Y-116384024D01*
X119669526Y-116642132D01*
X119866830Y-116839780D01*
X120124751Y-116946878D01*
X120404024Y-116947122D01*
X120662132Y-116840474D01*
X120664832Y-116837779D01*
X120666830Y-116839780D01*
X120924751Y-116946878D01*
X121204024Y-116947122D01*
X121462132Y-116840474D01*
X121464832Y-116837779D01*
X121466830Y-116839780D01*
X121724751Y-116946878D01*
X122004024Y-116947122D01*
X122262132Y-116840474D01*
X122459780Y-116643170D01*
X122566878Y-116385249D01*
X122567058Y-116179758D01*
X122662132Y-116140474D01*
X122664832Y-116137779D01*
X122666830Y-116139780D01*
X122763056Y-116179737D01*
X122762878Y-116384024D01*
X122869526Y-116642132D01*
X123066830Y-116839780D01*
X123324751Y-116946878D01*
X123586383Y-116947107D01*
X123664442Y-117025166D01*
X123781930Y-116907678D01*
X123797279Y-117104827D01*
X124161924Y-117218366D01*
X124542262Y-117183717D01*
X124674599Y-117128902D01*
X124961924Y-117218366D01*
X125342262Y-117183717D01*
X125532721Y-117104827D01*
X125548070Y-116907675D01*
X125179031Y-116538636D01*
X125238366Y-116348076D01*
X125225388Y-116205619D01*
X125239276Y-116211386D01*
X125258748Y-116230858D01*
X125244605Y-116245000D01*
X125727675Y-116728070D01*
X125924827Y-116712721D01*
X126018000Y-116413484D01*
X126018000Y-116466100D01*
X126077146Y-116763445D01*
X126245578Y-117015522D01*
X126497655Y-117183954D01*
X126795000Y-117243100D01*
X127092345Y-117183954D01*
X127344422Y-117015522D01*
X127512854Y-116763445D01*
X127572000Y-116466100D01*
X127572000Y-115823900D01*
X127512854Y-115526555D01*
X127344422Y-115274478D01*
X127092345Y-115106046D01*
X127091736Y-115105925D01*
X127133692Y-114895000D01*
X127080255Y-114626356D01*
X126928081Y-114398611D01*
X126700336Y-114246437D01*
X126431692Y-114193000D01*
X126098308Y-114193000D01*
X125829664Y-114246437D01*
X125601919Y-114398611D01*
X125449745Y-114626356D01*
X125406662Y-114842948D01*
X125325976Y-114842878D01*
X125241630Y-114877729D01*
X125239267Y-114872011D01*
X125048990Y-114681402D01*
X124800254Y-114578118D01*
X124530927Y-114577883D01*
X124282011Y-114680733D01*
X124091402Y-114871010D01*
X124088609Y-114877736D01*
X124005249Y-114843122D01*
X123725976Y-114842878D01*
X123467868Y-114949526D01*
X123465168Y-114952221D01*
X123463170Y-114950220D01*
X123205249Y-114843122D01*
X122925976Y-114842878D01*
X122667868Y-114949526D01*
X122665168Y-114952221D01*
X122663170Y-114950220D01*
X122405249Y-114843122D01*
X122125976Y-114842878D01*
X121867868Y-114949526D01*
X121865168Y-114952221D01*
X121863170Y-114950220D01*
X121605249Y-114843122D01*
X121325976Y-114842878D01*
X121067868Y-114949526D01*
X120870220Y-115146830D01*
X120763122Y-115404751D01*
X120762942Y-115610242D01*
X120667868Y-115649526D01*
X120665168Y-115652221D01*
X120663170Y-115650220D01*
X120566944Y-115610263D01*
X120567122Y-115405976D01*
X120460474Y-115147868D01*
X120263170Y-114950220D01*
X120005249Y-114843122D01*
X119767046Y-114842914D01*
X119767122Y-114755976D01*
X119660474Y-114497868D01*
X119463170Y-114300220D01*
X119205249Y-114193122D01*
X118925976Y-114192878D01*
X118667868Y-114299526D01*
X118470220Y-114496830D01*
X118363122Y-114754751D01*
X118362878Y-115034024D01*
X118380866Y-115077559D01*
X118237655Y-115106046D01*
X117985578Y-115274478D01*
X117817146Y-115526555D01*
X117758000Y-115823900D01*
X117702000Y-115823900D01*
X117702000Y-113080000D01*
X117667594Y-112907027D01*
X117588779Y-112789073D01*
X122787883Y-112789073D01*
X122890733Y-113037989D01*
X123081010Y-113228598D01*
X123329746Y-113331882D01*
X123599073Y-113332117D01*
X123847989Y-113229267D01*
X124038598Y-113038990D01*
X124083481Y-112930899D01*
X124142136Y-112989656D01*
X124088118Y-113119746D01*
X124087883Y-113389073D01*
X124190733Y-113637989D01*
X124381010Y-113828598D01*
X124629746Y-113931882D01*
X124899073Y-113932117D01*
X125147989Y-113829267D01*
X125338598Y-113638990D01*
X125441882Y-113390254D01*
X125442117Y-113120927D01*
X125339267Y-112872011D01*
X125187864Y-112720344D01*
X125241882Y-112590254D01*
X125242117Y-112320927D01*
X125139267Y-112072011D01*
X124948990Y-111881402D01*
X124700254Y-111778118D01*
X124430927Y-111777883D01*
X124182011Y-111880733D01*
X123991402Y-112071010D01*
X123946519Y-112179101D01*
X123848990Y-112081402D01*
X123600254Y-111978118D01*
X123330927Y-111977883D01*
X123082011Y-112080733D01*
X122891402Y-112271010D01*
X122788118Y-112519746D01*
X122787883Y-112789073D01*
X117588779Y-112789073D01*
X117569612Y-112760388D01*
X117422973Y-112662406D01*
X117299928Y-112637931D01*
X117283553Y-112613965D01*
X117241159Y-112586685D01*
X117195000Y-112578000D01*
X114812000Y-112578000D01*
X114812000Y-109285503D01*
X114893355Y-109481924D01*
X115283642Y-109910183D01*
X115518791Y-110020615D01*
X115315000Y-110020615D01*
X115175292Y-110046903D01*
X115046980Y-110129470D01*
X114960899Y-110255453D01*
X114930615Y-110405000D01*
X114930615Y-112105000D01*
X114956903Y-112244708D01*
X115039470Y-112373020D01*
X115165453Y-112459101D01*
X115315000Y-112489385D01*
X117015000Y-112489385D01*
X117154708Y-112463097D01*
X117283020Y-112380530D01*
X117369101Y-112254547D01*
X117399385Y-112105000D01*
X117399385Y-110889073D01*
X119687883Y-110889073D01*
X119790733Y-111137989D01*
X119981010Y-111328598D01*
X120229746Y-111431882D01*
X120499073Y-111432117D01*
X120747989Y-111329267D01*
X120938598Y-111138990D01*
X121041882Y-110890254D01*
X121042117Y-110620927D01*
X120939267Y-110372011D01*
X120748990Y-110181402D01*
X120500254Y-110078118D01*
X120230927Y-110077883D01*
X119982011Y-110180733D01*
X119791402Y-110371010D01*
X119688118Y-110619746D01*
X119687883Y-110889073D01*
X117399385Y-110889073D01*
X117399385Y-110405000D01*
X117373097Y-110265292D01*
X117290530Y-110136980D01*
X117164547Y-110050899D01*
X117015000Y-110020615D01*
X116811209Y-110020615D01*
X117046358Y-109910183D01*
X117065596Y-109889073D01*
X117987883Y-109889073D01*
X118090733Y-110137989D01*
X118281010Y-110328598D01*
X118529746Y-110431882D01*
X118799073Y-110432117D01*
X119047989Y-110329267D01*
X119238598Y-110138990D01*
X119341882Y-109890254D01*
X119342117Y-109620927D01*
X119246317Y-109389073D01*
X119987883Y-109389073D01*
X120090733Y-109637989D01*
X120281010Y-109828598D01*
X120529746Y-109931882D01*
X120799073Y-109932117D01*
X121047989Y-109829267D01*
X121238598Y-109638990D01*
X121341882Y-109390254D01*
X121342117Y-109120927D01*
X121239267Y-108872011D01*
X121048990Y-108681402D01*
X120800254Y-108578118D01*
X120530927Y-108577883D01*
X120282011Y-108680733D01*
X120091402Y-108871010D01*
X119988118Y-109119746D01*
X119987883Y-109389073D01*
X119246317Y-109389073D01*
X119239267Y-109372011D01*
X119048990Y-109181402D01*
X118800254Y-109078118D01*
X118530927Y-109077883D01*
X118282011Y-109180733D01*
X118091402Y-109371010D01*
X117988118Y-109619746D01*
X117987883Y-109889073D01*
X117065596Y-109889073D01*
X117436645Y-109481924D01*
X117606476Y-109071890D01*
X117485155Y-108842000D01*
X116292000Y-108842000D01*
X116292000Y-108862000D01*
X116038000Y-108862000D01*
X116038000Y-108842000D01*
X116018000Y-108842000D01*
X116018000Y-108588000D01*
X116038000Y-108588000D01*
X116038000Y-108568000D01*
X116292000Y-108568000D01*
X116292000Y-108588000D01*
X117485155Y-108588000D01*
X117606476Y-108358110D01*
X117436645Y-107948076D01*
X117046358Y-107519817D01*
X116646429Y-107332000D01*
X128683571Y-107332000D01*
X128283642Y-107519817D01*
M02*
