%TF.GenerationSoftware,KiCad,Pcbnew,4.0.7*%
%TF.CreationDate,2019-02-19T19:06:54-06:00*%
%TF.ProjectId,GolfGloveMainBoardV1.0.0,476F6C66476C6F76654D61696E426F61,rev?*%
%TF.FileFunction,Paste,Bot*%
%FSLAX46Y46*%
G04 Gerber Fmt 4.6, Leading zero omitted, Abs format (unit mm)*
G04 Created by KiCad (PCBNEW 4.0.7) date 02/19/19 19:06:54*
%MOMM*%
%LPD*%
G01*
G04 APERTURE LIST*
%ADD10C,0.100000*%
%ADD11C,0.150000*%
%ADD12R,0.600000X0.500000*%
%ADD13R,0.500000X0.600000*%
%ADD14R,0.600000X0.400000*%
%ADD15R,0.900000X0.500000*%
%ADD16R,0.400000X0.600000*%
%ADD17R,2.200000X1.400000*%
%ADD18R,2.400000X1.400000*%
%ADD19R,0.812800X0.304800*%
%ADD20R,1.651000X2.387600*%
%ADD21R,2.500000X3.325000*%
G04 APERTURE END LIST*
D10*
D11*
X118120000Y-123130000D02*
X118120000Y-125640000D01*
X127220000Y-123130000D02*
X118120000Y-123130000D01*
X127220000Y-125640000D02*
X127220000Y-123130000D01*
X118130000Y-125640000D02*
X127220000Y-125640000D01*
X102580000Y-162200000D02*
X102570000Y-162200000D01*
X102580000Y-125640000D02*
X102580000Y-162200000D01*
X117250000Y-125640000D02*
X102580000Y-125640000D01*
X117250000Y-113080000D02*
X117250000Y-125640000D01*
X114340000Y-113080000D02*
X117250000Y-113080000D01*
X114340000Y-106880000D02*
X114340000Y-113080000D01*
X130990000Y-106880000D02*
X114340000Y-106880000D01*
X130990000Y-113080000D02*
X130990000Y-106880000D01*
X128090000Y-113080000D02*
X130990000Y-113080000D01*
X128090000Y-125650000D02*
X128090000Y-113080000D01*
X142570000Y-125650000D02*
X128090000Y-125650000D01*
X142570000Y-162200000D02*
X142570000Y-125650000D01*
X102580000Y-162200000D02*
X142570000Y-162200000D01*
D12*
X113180000Y-132570000D03*
X112080000Y-132570000D03*
D13*
X107820000Y-134720000D03*
X107820000Y-135820000D03*
D12*
X130890000Y-145980000D03*
X131990000Y-145980000D03*
X131990000Y-143130000D03*
X130890000Y-143130000D03*
D13*
X120200000Y-160525000D03*
X120200000Y-161625000D03*
X122900000Y-161650000D03*
X122900000Y-160550000D03*
X134725000Y-154700000D03*
X134725000Y-153600000D03*
X121170000Y-161640000D03*
X121170000Y-160540000D03*
X122030000Y-161650000D03*
X122030000Y-160550000D03*
D12*
X133160000Y-153000000D03*
X132060000Y-153000000D03*
X133140000Y-153930000D03*
X132040000Y-153930000D03*
D13*
X125125000Y-157125000D03*
X125125000Y-156025000D03*
D12*
X112315000Y-150820000D03*
X113415000Y-150820000D03*
D13*
X116565000Y-151270000D03*
X116565000Y-152370000D03*
D12*
X112390000Y-155020000D03*
X113490000Y-155020000D03*
D13*
X116565000Y-154695000D03*
X116565000Y-153595000D03*
D14*
X119875000Y-158775000D03*
X119875000Y-157875000D03*
D15*
X110640000Y-152120000D03*
X110640000Y-153620000D03*
D16*
X112490000Y-138370000D03*
X111590000Y-138370000D03*
D14*
X130890000Y-144980000D03*
X130890000Y-144080000D03*
X137250000Y-128610000D03*
X137250000Y-127710000D03*
X106710000Y-128730000D03*
X106710000Y-127830000D03*
X136190000Y-128610000D03*
X136190000Y-127710000D03*
X138300000Y-128610000D03*
X138300000Y-127710000D03*
X127175000Y-157000000D03*
X127175000Y-157900000D03*
D16*
X114390000Y-150795000D03*
X115290000Y-150795000D03*
D17*
X115980000Y-133900000D03*
X109680000Y-133900000D03*
X115980000Y-136450000D03*
D18*
X109780000Y-136450000D03*
D19*
X112391800Y-153860600D03*
X112391800Y-153378000D03*
X112391800Y-152870000D03*
X112391800Y-152362000D03*
X112391800Y-151879400D03*
X115338200Y-151879400D03*
X115338200Y-152362000D03*
X115338200Y-152870000D03*
X115338200Y-153378000D03*
X115338200Y-153860600D03*
D20*
X113865000Y-152870000D03*
D21*
X128190000Y-147442500D03*
X128190000Y-141617500D03*
M02*
