%TF.GenerationSoftware,KiCad,Pcbnew,4.0.7*%
%TF.CreationDate,2019-06-15T20:20:24-05:00*%
%TF.ProjectId,GolfGloveMainBoardV1.0.0,476F6C66476C6F76654D61696E426F61,rev?*%
%TF.FileFunction,Copper,L1,Top,Signal*%
%FSLAX46Y46*%
G04 Gerber Fmt 4.6, Leading zero omitted, Abs format (unit mm)*
G04 Created by KiCad (PCBNEW 4.0.7) date 06/15/19 20:20:24*
%MOMM*%
%LPD*%
G01*
G04 APERTURE LIST*
%ADD10C,0.100000*%
%ADD11C,0.150000*%
%ADD12R,1.350000X1.350000*%
%ADD13O,1.350000X1.350000*%
%ADD14C,2.000000*%
%ADD15R,0.700000X1.500000*%
%ADD16R,1.000000X0.800000*%
%ADD17R,0.400000X0.600000*%
%ADD18R,0.600000X0.400000*%
%ADD19R,0.900000X0.500000*%
%ADD20R,0.500000X0.900000*%
%ADD21R,1.700000X1.700000*%
%ADD22O,1.700000X1.700000*%
%ADD23R,1.300000X0.450000*%
%ADD24O,2.000000X1.450000*%
%ADD25O,1.800000X1.150000*%
%ADD26R,0.800000X0.750000*%
%ADD27R,0.600000X0.500000*%
%ADD28R,0.500000X0.600000*%
%ADD29R,0.280000X0.780000*%
%ADD30R,0.780000X0.280000*%
%ADD31R,0.220000X0.810000*%
%ADD32R,0.810000X0.220000*%
%ADD33R,3.700000X3.700000*%
%ADD34C,0.500000*%
%ADD35R,1.000000X2.000000*%
%ADD36R,2.800000X0.700000*%
%ADD37R,0.500000X0.500000*%
%ADD38C,0.450000*%
%ADD39C,0.293370*%
%ADD40C,0.254000*%
G04 APERTURE END LIST*
D10*
D11*
X156650000Y-73250000D02*
X156650000Y-50250000D01*
X159250000Y-79300000D02*
X156650000Y-79300000D01*
X159250000Y-73250000D02*
X159250000Y-79300000D01*
X156650000Y-73250000D02*
X159250000Y-73250000D01*
X131900000Y-76625000D02*
X131900000Y-75525000D01*
X127650000Y-76625000D02*
X131900000Y-76625000D01*
X127650000Y-52875000D02*
X127650000Y-76625000D01*
X131900000Y-75525000D02*
X131900000Y-52875000D01*
X127650000Y-52875000D02*
X131900000Y-52875000D01*
X131900000Y-50250000D02*
X127650000Y-50250000D01*
X156650000Y-79300000D02*
X102900000Y-79300000D01*
X139000000Y-48100000D02*
X139000000Y-37900000D01*
X139000000Y-37900000D02*
X151000000Y-37900000D01*
X151000000Y-37900000D02*
X151000000Y-48100000D01*
X131900000Y-50250000D02*
X139000000Y-50250000D01*
X139000000Y-50250000D02*
X139000000Y-48100000D01*
X151000000Y-48100000D02*
X151000000Y-50250000D01*
X151000000Y-50250000D02*
X156650000Y-50250000D01*
X142000000Y-48100000D02*
X142000000Y-50275000D01*
X148000000Y-48100000D02*
X148000000Y-50250000D01*
X148000000Y-50275000D02*
X142000000Y-50275000D01*
X142000000Y-48100000D02*
X148000000Y-48100000D01*
X113000000Y-48100000D02*
X119000000Y-48100000D01*
X119000000Y-50275000D02*
X113000000Y-50275000D01*
X119000000Y-48100000D02*
X119000000Y-50250000D01*
X113000000Y-48100000D02*
X113000000Y-50275000D01*
X122000000Y-50250000D02*
X127650000Y-50250000D01*
X122000000Y-48100000D02*
X122000000Y-50250000D01*
X110000000Y-50250000D02*
X110000000Y-48100000D01*
X102900000Y-50250000D02*
X110000000Y-50250000D01*
X102900000Y-50250000D02*
X102900000Y-50350000D01*
X102900000Y-50350000D02*
X102900000Y-79300000D01*
X122000000Y-37900000D02*
X122000000Y-48100000D01*
X110000000Y-37900000D02*
X122000000Y-37900000D01*
X110000000Y-48100000D02*
X110000000Y-37900000D01*
D10*
G36*
X149350000Y-76410000D02*
X151350000Y-76410000D01*
X151350000Y-79050000D01*
X154050000Y-79050000D01*
X154050000Y-76410000D01*
X156050000Y-76410000D01*
X156050000Y-79050000D01*
X158750000Y-79050000D01*
X158750000Y-74610000D01*
X158250000Y-74610000D01*
X158250000Y-78550000D01*
X156550000Y-78550000D01*
X156550000Y-75910000D01*
X153550000Y-75910000D01*
X153550000Y-78550000D01*
X151850000Y-78550000D01*
X151850000Y-75910000D01*
X148850000Y-75910000D01*
X148850000Y-78550000D01*
X147150000Y-78550000D01*
X147150000Y-73650000D01*
X146650000Y-73650000D01*
X146650000Y-78550000D01*
X145250000Y-78550000D01*
X145250000Y-73650000D01*
X144350000Y-73650000D01*
X144350000Y-73893215D01*
X144652417Y-73893215D01*
X144662258Y-73845605D01*
X144686326Y-73803203D01*
X144724269Y-73770419D01*
X144732181Y-73766065D01*
X144774844Y-73753957D01*
X144823363Y-73754700D01*
X144868878Y-73767600D01*
X144887489Y-73778213D01*
X144921132Y-73813447D01*
X144941691Y-73858632D01*
X144948222Y-73908158D01*
X144939782Y-73956417D01*
X144922888Y-73988643D01*
X144887628Y-74021313D01*
X144842318Y-74041408D01*
X144792733Y-74047982D01*
X144744647Y-74040092D01*
X144711755Y-74023186D01*
X144676815Y-73986416D01*
X144657153Y-73941622D01*
X144652417Y-73893215D01*
X144350000Y-73893215D01*
X144350000Y-79050000D01*
X149350000Y-79050000D01*
X149350000Y-76410000D01*
X149350000Y-76410000D01*
G37*
D12*
X140425000Y-66675000D03*
D13*
X140425000Y-68675000D03*
D12*
X137975000Y-51325000D03*
D13*
X137975000Y-53325000D03*
D12*
X150000000Y-47100000D03*
D13*
X148000000Y-47100000D03*
X146000000Y-47100000D03*
X144000000Y-47100000D03*
X142000000Y-47100000D03*
X140000000Y-47100000D03*
D12*
X150000000Y-51300000D03*
D13*
X148000000Y-51300000D03*
X146000000Y-51300000D03*
X144000000Y-51300000D03*
X142000000Y-51300000D03*
X140000000Y-51300000D03*
D14*
X152100000Y-59750000D03*
X152100000Y-64250000D03*
X145600000Y-59750000D03*
X145600000Y-64250000D03*
X145600000Y-71800000D03*
X145600000Y-67300000D03*
X152100000Y-71800000D03*
X152100000Y-67300000D03*
D15*
X134150000Y-75820000D03*
X137150000Y-75820000D03*
X138650000Y-75820000D03*
D16*
X132750000Y-78680000D03*
X140050000Y-78680000D03*
X140050000Y-76470000D03*
X132750000Y-76470000D03*
D17*
X140475000Y-71925000D03*
X141375000Y-71925000D03*
X150300000Y-41250000D03*
X149400000Y-41250000D03*
X139650000Y-41250000D03*
X140550000Y-41250000D03*
X136650000Y-64850000D03*
X135750000Y-64850000D03*
X136650000Y-61250000D03*
X135750000Y-61250000D03*
X136650000Y-57650000D03*
X135750000Y-57650000D03*
X136650000Y-54050000D03*
X135750000Y-54050000D03*
X140550000Y-52600000D03*
X139650000Y-52600000D03*
X140550000Y-53500000D03*
X139650000Y-53500000D03*
D18*
X144600000Y-69150000D03*
X144600000Y-70050000D03*
D19*
X141700000Y-62950000D03*
X141700000Y-61450000D03*
D20*
X140850000Y-62800000D03*
X139350000Y-62800000D03*
D21*
X155250000Y-70450000D03*
D22*
X155250000Y-67910000D03*
D21*
X149350000Y-39300000D03*
D22*
X146810000Y-39300000D03*
D21*
X140650000Y-39300000D03*
D22*
X143190000Y-39300000D03*
D21*
X133150000Y-63050000D03*
D22*
X135690000Y-63050000D03*
D21*
X133150000Y-59450000D03*
D22*
X135690000Y-59450000D03*
D21*
X133150000Y-55850000D03*
D22*
X135690000Y-55850000D03*
D21*
X133150000Y-52250000D03*
D22*
X135690000Y-52250000D03*
D21*
X142150000Y-78050000D03*
D22*
X142150000Y-75510000D03*
D23*
X137500000Y-68550000D03*
X137500000Y-69200000D03*
X137500000Y-69850000D03*
X137500000Y-70500000D03*
X137500000Y-71150000D03*
D24*
X137450000Y-66125000D03*
X137450000Y-73575000D03*
D25*
X133650000Y-65975000D03*
X133650000Y-73725000D03*
D21*
X155250000Y-64300000D03*
D22*
X155250000Y-61760000D03*
X155250000Y-59220000D03*
X155250000Y-56680000D03*
X155250000Y-54140000D03*
X155250000Y-51600000D03*
D26*
X141150000Y-70825000D03*
X139650000Y-70825000D03*
X138250000Y-64525000D03*
X139750000Y-64525000D03*
D27*
X143850000Y-71800000D03*
X142750000Y-71800000D03*
D28*
X142600000Y-72475000D03*
X142600000Y-73575000D03*
D27*
X140850000Y-44150000D03*
X139750000Y-44150000D03*
D28*
X149650000Y-42800000D03*
X149650000Y-43900000D03*
X148800000Y-42800000D03*
X148800000Y-43900000D03*
D27*
X140850000Y-42250000D03*
X139750000Y-42250000D03*
X139750000Y-43200000D03*
X140850000Y-43200000D03*
D28*
X151150000Y-57750000D03*
X151150000Y-56650000D03*
D27*
X152100000Y-55400000D03*
X151000000Y-55400000D03*
D28*
X146300000Y-54550000D03*
X146300000Y-53450000D03*
D27*
X152100000Y-54400000D03*
X151000000Y-54400000D03*
D29*
X146505000Y-44445000D03*
D30*
X146595000Y-43745000D03*
X146595000Y-43315000D03*
X146595000Y-42885000D03*
X146595000Y-42455000D03*
D29*
X146505000Y-41755000D03*
X146075000Y-41755000D03*
X145645000Y-41755000D03*
X145215000Y-41755000D03*
X144785000Y-41755000D03*
X144355000Y-41755000D03*
X143925000Y-41755000D03*
X143495000Y-41755000D03*
D30*
X143405000Y-42455000D03*
X143405000Y-42885000D03*
X143405000Y-43315000D03*
X143405000Y-43745000D03*
D29*
X143495000Y-44445000D03*
X143925000Y-44445000D03*
X144355000Y-44445000D03*
X144785000Y-44445000D03*
X145215000Y-44445000D03*
X145645000Y-44445000D03*
X146075000Y-44445000D03*
D31*
X139800000Y-59405000D03*
X140200000Y-59405000D03*
X140600000Y-59405000D03*
X141000000Y-59405000D03*
X141400000Y-59405000D03*
X141800000Y-59405000D03*
X142200000Y-59405000D03*
X142600000Y-59405000D03*
X143000000Y-59405000D03*
X143400000Y-59405000D03*
X143400000Y-54495000D03*
X143000000Y-54495000D03*
X142600000Y-54495000D03*
X142200000Y-54495000D03*
X141800000Y-54495000D03*
X141400000Y-54495000D03*
X141000000Y-54495000D03*
X140600000Y-54495000D03*
X140200000Y-54495000D03*
X139800000Y-54495000D03*
D32*
X139145000Y-55150000D03*
X139145000Y-55550000D03*
X139145000Y-55950000D03*
X139145000Y-56350000D03*
X139145000Y-56750000D03*
X139145000Y-57150000D03*
X139145000Y-57550000D03*
X139145000Y-57950000D03*
X139145000Y-58350000D03*
X139145000Y-58750000D03*
X144055000Y-58750000D03*
X144055000Y-58350000D03*
X144055000Y-57950000D03*
X144055000Y-57550000D03*
X144055000Y-57150000D03*
X144055000Y-56750000D03*
X144055000Y-56350000D03*
X144055000Y-55950000D03*
X144055000Y-55550000D03*
X144055000Y-55150000D03*
D33*
X141600000Y-56950000D03*
D30*
X149945000Y-54945000D03*
D29*
X149245000Y-54855000D03*
X148815000Y-54855000D03*
X148385000Y-54855000D03*
X147955000Y-54855000D03*
D30*
X147255000Y-54945000D03*
X147255000Y-55375000D03*
X147255000Y-55805000D03*
X147255000Y-56235000D03*
X147255000Y-56665000D03*
X147255000Y-57095000D03*
X147255000Y-57525000D03*
X147255000Y-57955000D03*
D29*
X147955000Y-58045000D03*
X148385000Y-58045000D03*
X148815000Y-58045000D03*
X149245000Y-58045000D03*
D30*
X149945000Y-57955000D03*
X149945000Y-57525000D03*
X149945000Y-57095000D03*
X149945000Y-56665000D03*
X149945000Y-56235000D03*
X149945000Y-55805000D03*
X149945000Y-55375000D03*
D28*
X145500000Y-54550000D03*
X145500000Y-53450000D03*
D34*
X153225000Y-72900000D03*
X156025000Y-72700000D03*
X155025000Y-72700000D03*
X154025000Y-72700000D03*
X143225000Y-63000000D03*
X151125000Y-72900000D03*
X143225000Y-67000000D03*
X141925000Y-64600000D03*
X143225000Y-67900000D03*
X143225000Y-66100000D03*
X119025000Y-75500000D03*
X117025000Y-73900000D03*
X114225000Y-66100000D03*
X114225000Y-67900000D03*
X114225000Y-71100000D03*
X112925000Y-64600000D03*
X114225000Y-67000000D03*
X122125000Y-72900000D03*
X114225000Y-63000000D03*
X113025000Y-73300000D03*
X114225000Y-72200000D03*
X115425000Y-78900000D03*
X116625000Y-78900000D03*
X125025000Y-72700000D03*
X126025000Y-72700000D03*
X127025000Y-72700000D03*
X118425000Y-78100000D03*
X117825000Y-77300000D03*
X117825000Y-78900000D03*
X124225000Y-72900000D03*
X119025000Y-78900000D03*
X113825000Y-74100000D03*
X116225000Y-74700000D03*
X115425000Y-75700000D03*
X116025000Y-78100000D03*
X119025000Y-77300000D03*
X114625000Y-73100000D03*
X117025000Y-75500000D03*
X114825000Y-76500000D03*
X114825000Y-78100000D03*
X117225000Y-78100000D03*
X114625000Y-74900000D03*
X115425000Y-73900000D03*
X116025000Y-76500000D03*
X115425000Y-77300000D03*
X116625000Y-77300000D03*
D28*
X116500000Y-54550000D03*
X116500000Y-53450000D03*
D30*
X120945000Y-54945000D03*
D29*
X120245000Y-54855000D03*
X119815000Y-54855000D03*
X119385000Y-54855000D03*
X118955000Y-54855000D03*
D30*
X118255000Y-54945000D03*
X118255000Y-55375000D03*
X118255000Y-55805000D03*
X118255000Y-56235000D03*
X118255000Y-56665000D03*
X118255000Y-57095000D03*
X118255000Y-57525000D03*
X118255000Y-57955000D03*
D29*
X118955000Y-58045000D03*
X119385000Y-58045000D03*
X119815000Y-58045000D03*
X120245000Y-58045000D03*
D30*
X120945000Y-57955000D03*
X120945000Y-57525000D03*
X120945000Y-57095000D03*
X120945000Y-56665000D03*
X120945000Y-56235000D03*
X120945000Y-55805000D03*
X120945000Y-55375000D03*
D31*
X110800000Y-59405000D03*
X111200000Y-59405000D03*
X111600000Y-59405000D03*
X112000000Y-59405000D03*
X112400000Y-59405000D03*
X112800000Y-59405000D03*
X113200000Y-59405000D03*
X113600000Y-59405000D03*
X114000000Y-59405000D03*
X114400000Y-59405000D03*
X114400000Y-54495000D03*
X114000000Y-54495000D03*
X113600000Y-54495000D03*
X113200000Y-54495000D03*
X112800000Y-54495000D03*
X112400000Y-54495000D03*
X112000000Y-54495000D03*
X111600000Y-54495000D03*
X111200000Y-54495000D03*
X110800000Y-54495000D03*
D32*
X110145000Y-55150000D03*
X110145000Y-55550000D03*
X110145000Y-55950000D03*
X110145000Y-56350000D03*
X110145000Y-56750000D03*
X110145000Y-57150000D03*
X110145000Y-57550000D03*
X110145000Y-57950000D03*
X110145000Y-58350000D03*
X110145000Y-58750000D03*
X115055000Y-58750000D03*
X115055000Y-58350000D03*
X115055000Y-57950000D03*
X115055000Y-57550000D03*
X115055000Y-57150000D03*
X115055000Y-56750000D03*
X115055000Y-56350000D03*
X115055000Y-55950000D03*
X115055000Y-55550000D03*
X115055000Y-55150000D03*
D33*
X112600000Y-56950000D03*
D29*
X117505000Y-44445000D03*
D30*
X117595000Y-43745000D03*
X117595000Y-43315000D03*
X117595000Y-42885000D03*
X117595000Y-42455000D03*
D29*
X117505000Y-41755000D03*
X117075000Y-41755000D03*
X116645000Y-41755000D03*
X116215000Y-41755000D03*
X115785000Y-41755000D03*
X115355000Y-41755000D03*
X114925000Y-41755000D03*
X114495000Y-41755000D03*
D30*
X114405000Y-42455000D03*
X114405000Y-42885000D03*
X114405000Y-43315000D03*
X114405000Y-43745000D03*
D29*
X114495000Y-44445000D03*
X114925000Y-44445000D03*
X115355000Y-44445000D03*
X115785000Y-44445000D03*
X116215000Y-44445000D03*
X116645000Y-44445000D03*
X117075000Y-44445000D03*
D27*
X123100000Y-54400000D03*
X122000000Y-54400000D03*
D28*
X117300000Y-54550000D03*
X117300000Y-53450000D03*
D27*
X123100000Y-55400000D03*
X122000000Y-55400000D03*
D28*
X122150000Y-57750000D03*
X122150000Y-56650000D03*
D27*
X110750000Y-43200000D03*
X111850000Y-43200000D03*
X111850000Y-42250000D03*
X110750000Y-42250000D03*
D28*
X119800000Y-42800000D03*
X119800000Y-43900000D03*
X120650000Y-42800000D03*
X120650000Y-43900000D03*
D27*
X111850000Y-44150000D03*
X110750000Y-44150000D03*
X118900000Y-76575000D03*
X120000000Y-76575000D03*
D28*
X117950000Y-75175000D03*
X117950000Y-76275000D03*
D26*
X109250000Y-64525000D03*
X110750000Y-64525000D03*
X112150000Y-70825000D03*
X110650000Y-70825000D03*
D21*
X126250000Y-64300000D03*
D22*
X126250000Y-61760000D03*
X126250000Y-59220000D03*
X126250000Y-56680000D03*
X126250000Y-54140000D03*
X126250000Y-51600000D03*
D23*
X108500000Y-68550000D03*
X108500000Y-69200000D03*
X108500000Y-69850000D03*
X108500000Y-70500000D03*
X108500000Y-71150000D03*
D24*
X108450000Y-66125000D03*
X108450000Y-73575000D03*
D25*
X104650000Y-65975000D03*
X104650000Y-73725000D03*
D21*
X113150000Y-78050000D03*
D22*
X113150000Y-75510000D03*
D21*
X104150000Y-52250000D03*
D22*
X106690000Y-52250000D03*
D21*
X104150000Y-55850000D03*
D22*
X106690000Y-55850000D03*
D21*
X104150000Y-59450000D03*
D22*
X106690000Y-59450000D03*
D21*
X104150000Y-63050000D03*
D22*
X106690000Y-63050000D03*
D21*
X111650000Y-39300000D03*
D22*
X114190000Y-39300000D03*
D21*
X120350000Y-39300000D03*
D22*
X117810000Y-39300000D03*
D21*
X126250000Y-70450000D03*
D22*
X126250000Y-67910000D03*
D20*
X111850000Y-62800000D03*
X110350000Y-62800000D03*
D19*
X112700000Y-62950000D03*
X112700000Y-61450000D03*
D18*
X115600000Y-69150000D03*
X115600000Y-70050000D03*
D17*
X111550000Y-53500000D03*
X110650000Y-53500000D03*
X111550000Y-52600000D03*
X110650000Y-52600000D03*
X107650000Y-54050000D03*
X106750000Y-54050000D03*
X107650000Y-57650000D03*
X106750000Y-57650000D03*
X107650000Y-61250000D03*
X106750000Y-61250000D03*
X107650000Y-64850000D03*
X106750000Y-64850000D03*
X110650000Y-41250000D03*
X111550000Y-41250000D03*
X121300000Y-41250000D03*
X120400000Y-41250000D03*
X111475000Y-71925000D03*
X112375000Y-71925000D03*
D15*
X105150000Y-75820000D03*
X108150000Y-75820000D03*
X109650000Y-75820000D03*
D16*
X103750000Y-78680000D03*
X111050000Y-78680000D03*
X111050000Y-76470000D03*
X103750000Y-76470000D03*
D14*
X116600000Y-71800000D03*
X116600000Y-67300000D03*
X123100000Y-71800000D03*
X123100000Y-67300000D03*
X123100000Y-59750000D03*
X123100000Y-64250000D03*
X116600000Y-59750000D03*
X116600000Y-64250000D03*
D12*
X121000000Y-51300000D03*
D13*
X119000000Y-51300000D03*
X117000000Y-51300000D03*
X115000000Y-51300000D03*
X113000000Y-51300000D03*
X111000000Y-51300000D03*
D12*
X121000000Y-47100000D03*
D13*
X119000000Y-47100000D03*
X117000000Y-47100000D03*
X115000000Y-47100000D03*
X113000000Y-47100000D03*
X111000000Y-47100000D03*
D12*
X108975000Y-51325000D03*
D13*
X108975000Y-53325000D03*
D12*
X111425000Y-66675000D03*
D13*
X111425000Y-68675000D03*
D35*
X121200000Y-77325000D03*
X126400000Y-77325000D03*
D36*
X123800000Y-76475000D03*
X123800000Y-78175000D03*
D19*
X144800000Y-73900000D03*
D37*
X146900000Y-73900000D03*
D38*
X142000000Y-56300000D03*
X135750000Y-71675000D03*
X150075000Y-66825000D03*
X147325000Y-53800000D03*
X136715000Y-58480000D03*
X137015000Y-54560000D03*
X136735000Y-62090000D03*
X137735000Y-63470000D03*
X149585000Y-52720000D03*
X145925000Y-52710000D03*
X116925000Y-52710000D03*
X120585000Y-52720000D03*
X108735000Y-63470000D03*
X107735000Y-62090000D03*
X108015000Y-54560000D03*
X107715000Y-58480000D03*
X118815000Y-74070000D03*
X118325000Y-53800000D03*
X121075000Y-66825000D03*
X106750000Y-71675000D03*
X113000000Y-56300000D03*
X141600000Y-43200000D03*
X147200000Y-44875000D03*
X118200000Y-44875000D03*
X112600000Y-43200000D03*
X144550000Y-45350000D03*
X144225000Y-43100000D03*
X149225000Y-42200000D03*
X120225000Y-42200000D03*
X115225000Y-43100000D03*
X115550000Y-45350000D03*
X135225000Y-71350000D03*
X135750000Y-68350000D03*
X106750000Y-68350000D03*
X106225000Y-71350000D03*
X135050000Y-75275000D03*
X106050000Y-75275000D03*
X141875000Y-70000000D03*
X144500000Y-65725000D03*
X148975000Y-55805000D03*
X148600000Y-65700000D03*
X140465000Y-60280000D03*
X141725000Y-65250000D03*
X112725000Y-65250000D03*
X111465000Y-60280000D03*
X119600000Y-65700000D03*
X119975000Y-55805000D03*
X115500000Y-65725000D03*
X112875000Y-70000000D03*
X144350000Y-53450000D03*
X115350000Y-53450000D03*
X144625000Y-54575000D03*
X115625000Y-54575000D03*
X148500000Y-59100000D03*
X119500000Y-59100000D03*
X147300000Y-59200000D03*
X118300000Y-59200000D03*
X142000000Y-60400000D03*
X113000000Y-60400000D03*
X141900000Y-62200000D03*
X140700000Y-60950000D03*
X111700000Y-60950000D03*
X112900000Y-62200000D03*
X141395000Y-60330000D03*
X112395000Y-60330000D03*
X144000000Y-59500000D03*
X139100000Y-59600000D03*
X110100000Y-59600000D03*
X115000000Y-59500000D03*
X143500000Y-60400000D03*
X140850000Y-61550000D03*
X111850000Y-61550000D03*
X114500000Y-60400000D03*
X139575000Y-75150000D03*
X146875000Y-69650000D03*
X117875000Y-69650000D03*
X110575000Y-75150000D03*
X150675000Y-67825000D03*
X152175000Y-68775000D03*
X123175000Y-68775000D03*
X121675000Y-67825000D03*
X137400000Y-64625000D03*
X108400000Y-64625000D03*
X139125000Y-65225000D03*
X110125000Y-65225000D03*
X141050000Y-53500000D03*
X112050000Y-53500000D03*
X141700000Y-53450000D03*
X112700000Y-53450000D03*
X143950000Y-45750000D03*
X143050000Y-45150000D03*
X141800000Y-41300000D03*
X112800000Y-41300000D03*
X114050000Y-45150000D03*
X114950000Y-45750000D03*
X147700000Y-41250000D03*
X142100000Y-52500000D03*
X142900000Y-53300000D03*
X113900000Y-53300000D03*
X113100000Y-52500000D03*
X118700000Y-41250000D03*
X146050000Y-55700000D03*
X117050000Y-55700000D03*
X153725000Y-64875000D03*
X153725000Y-63650000D03*
X124725000Y-63650000D03*
X124725000Y-64875000D03*
X145750000Y-56800000D03*
X116750000Y-56800000D03*
X146125000Y-56300000D03*
X117125000Y-56300000D03*
X145600000Y-55300000D03*
X116600000Y-55300000D03*
X147900000Y-43750000D03*
X118900000Y-43750000D03*
X147325000Y-42900000D03*
X118325000Y-42900000D03*
X140125000Y-62225000D03*
X111125000Y-62225000D03*
X147725000Y-72125000D03*
X150300000Y-71825000D03*
X121300000Y-71825000D03*
X118725000Y-72125000D03*
X151150000Y-69650000D03*
X149000000Y-71875000D03*
X120000000Y-71875000D03*
X122150000Y-69650000D03*
X141800000Y-63800000D03*
X143300000Y-63800000D03*
X114300000Y-63800000D03*
X112800000Y-63800000D03*
X138175000Y-57050000D03*
X109175000Y-57050000D03*
X138075000Y-57825000D03*
X109075000Y-57825000D03*
D11*
X147920000Y-54945000D02*
X147955000Y-54980000D01*
X147380000Y-54945000D02*
X147920000Y-54945000D01*
X149820000Y-57095000D02*
X149820000Y-57525000D01*
X150925000Y-57525000D02*
X151150000Y-57750000D01*
X149945000Y-57525000D02*
X150925000Y-57525000D01*
X152100000Y-57300000D02*
X151650000Y-57750000D01*
X151650000Y-57750000D02*
X151150000Y-57750000D01*
X152100000Y-55400000D02*
X152100000Y-57300000D01*
X152100000Y-54400000D02*
X152100000Y-55400000D01*
X152100000Y-64250000D02*
X145600000Y-64250000D01*
X152150000Y-64300000D02*
X152100000Y-64250000D01*
X155250000Y-64300000D02*
X152150000Y-64300000D01*
X152100000Y-67300000D02*
X145600000Y-67300000D01*
X145600000Y-64250000D02*
X145600000Y-67300000D01*
X152100000Y-64250000D02*
X152100000Y-67300000D01*
X141600000Y-56700000D02*
X141600000Y-56950000D01*
X142000000Y-56300000D02*
X141600000Y-56700000D01*
X139800000Y-58750000D02*
X141600000Y-56950000D01*
X139800000Y-59405000D02*
X139800000Y-58750000D01*
X147255000Y-54405000D02*
X147255000Y-54945000D01*
X146300000Y-53450000D02*
X147255000Y-54405000D01*
X145500000Y-53450000D02*
X146300000Y-53450000D01*
X137025000Y-71625000D02*
X137500000Y-71150000D01*
X135800000Y-71625000D02*
X137025000Y-71625000D01*
X135750000Y-71675000D02*
X135800000Y-71625000D01*
X136650000Y-65325000D02*
X137450000Y-66125000D01*
X136650000Y-64850000D02*
X136650000Y-65325000D01*
X150075000Y-66825000D02*
X150550000Y-67300000D01*
X150550000Y-67300000D02*
X152100000Y-67300000D01*
X139100000Y-70825000D02*
X138775000Y-71150000D01*
X138775000Y-71150000D02*
X137500000Y-71150000D01*
X139650000Y-70825000D02*
X139100000Y-70825000D01*
X137450000Y-71200000D02*
X137500000Y-71150000D01*
X137450000Y-73575000D02*
X137450000Y-71200000D01*
X140215000Y-73575000D02*
X142150000Y-75510000D01*
X137450000Y-73575000D02*
X140215000Y-73575000D01*
X146975000Y-53450000D02*
X147325000Y-53800000D01*
X146300000Y-53450000D02*
X146975000Y-53450000D01*
X136650000Y-58415000D02*
X136650000Y-57650000D01*
X136715000Y-58480000D02*
X136650000Y-58415000D01*
X137015000Y-54530000D02*
X137015000Y-54560000D01*
X136650000Y-54165000D02*
X137015000Y-54530000D01*
X136650000Y-54050000D02*
X136650000Y-54165000D01*
X136650000Y-62005000D02*
X136735000Y-62090000D01*
X136650000Y-61250000D02*
X136650000Y-62005000D01*
X136650000Y-64555000D02*
X136650000Y-64850000D01*
X137735000Y-63470000D02*
X136650000Y-64555000D01*
X152100000Y-53625000D02*
X151195000Y-52720000D01*
X151195000Y-52720000D02*
X149585000Y-52720000D01*
X145925000Y-52710000D02*
X145500000Y-53135000D01*
X145500000Y-53135000D02*
X145500000Y-53450000D01*
X152100000Y-54400000D02*
X152100000Y-53625000D01*
X123100000Y-54400000D02*
X123100000Y-53625000D01*
X116500000Y-53135000D02*
X116500000Y-53450000D01*
X116925000Y-52710000D02*
X116500000Y-53135000D01*
X122195000Y-52720000D02*
X120585000Y-52720000D01*
X123100000Y-53625000D02*
X122195000Y-52720000D01*
X108735000Y-63470000D02*
X107650000Y-64555000D01*
X107650000Y-64555000D02*
X107650000Y-64850000D01*
X107650000Y-61250000D02*
X107650000Y-62005000D01*
X107650000Y-62005000D02*
X107735000Y-62090000D01*
X107650000Y-54050000D02*
X107650000Y-54165000D01*
X107650000Y-54165000D02*
X108015000Y-54530000D01*
X108015000Y-54530000D02*
X108015000Y-54560000D01*
X107715000Y-58480000D02*
X107650000Y-58415000D01*
X107650000Y-58415000D02*
X107650000Y-57650000D01*
X117950000Y-75175000D02*
X117950000Y-74495000D01*
X118375000Y-74070000D02*
X118815000Y-74070000D01*
X117950000Y-74495000D02*
X118375000Y-74070000D01*
X117300000Y-53450000D02*
X117975000Y-53450000D01*
X117975000Y-53450000D02*
X118325000Y-53800000D01*
X108450000Y-73575000D02*
X111215000Y-73575000D01*
X111215000Y-73575000D02*
X113150000Y-75510000D01*
X108450000Y-73575000D02*
X108450000Y-71200000D01*
X108450000Y-71200000D02*
X108500000Y-71150000D01*
X110650000Y-70825000D02*
X110100000Y-70825000D01*
X109775000Y-71150000D02*
X108500000Y-71150000D01*
X110100000Y-70825000D02*
X109775000Y-71150000D01*
X121550000Y-67300000D02*
X123100000Y-67300000D01*
X121075000Y-66825000D02*
X121550000Y-67300000D01*
X107650000Y-64850000D02*
X107650000Y-65325000D01*
X107650000Y-65325000D02*
X108450000Y-66125000D01*
X106750000Y-71675000D02*
X106800000Y-71625000D01*
X106800000Y-71625000D02*
X108025000Y-71625000D01*
X108025000Y-71625000D02*
X108500000Y-71150000D01*
X116500000Y-53450000D02*
X117300000Y-53450000D01*
X117300000Y-53450000D02*
X118255000Y-54405000D01*
X118255000Y-54405000D02*
X118255000Y-54945000D01*
X110800000Y-59405000D02*
X110800000Y-58750000D01*
X110800000Y-58750000D02*
X112600000Y-56950000D01*
X113000000Y-56300000D02*
X112600000Y-56700000D01*
X112600000Y-56700000D02*
X112600000Y-56950000D01*
X123100000Y-64250000D02*
X123100000Y-67300000D01*
X116600000Y-64250000D02*
X116600000Y-67300000D01*
X123100000Y-67300000D02*
X116600000Y-67300000D01*
X126250000Y-64300000D02*
X123150000Y-64300000D01*
X123150000Y-64300000D02*
X123100000Y-64250000D01*
X123100000Y-64250000D02*
X116600000Y-64250000D01*
X123100000Y-54400000D02*
X123100000Y-55400000D01*
X123100000Y-55400000D02*
X123100000Y-57300000D01*
X122650000Y-57750000D02*
X122150000Y-57750000D01*
X123100000Y-57300000D02*
X122650000Y-57750000D01*
X120945000Y-57525000D02*
X121925000Y-57525000D01*
X121925000Y-57525000D02*
X122150000Y-57750000D01*
X120820000Y-57095000D02*
X120820000Y-57525000D01*
X118380000Y-54945000D02*
X118920000Y-54945000D01*
X118920000Y-54945000D02*
X118955000Y-54980000D01*
X146470000Y-41915000D02*
X146470000Y-42455000D01*
X146505000Y-41880000D02*
X146470000Y-41915000D01*
X145645000Y-44320000D02*
X145215000Y-44320000D01*
X140850000Y-42250000D02*
X140850000Y-44150000D01*
X140850000Y-43200000D02*
X141600000Y-43200000D01*
X146505000Y-41880000D02*
X145645000Y-41880000D01*
X146810000Y-41575000D02*
X146505000Y-41880000D01*
X146810000Y-39300000D02*
X146810000Y-41575000D01*
X145215000Y-43035000D02*
X145645000Y-42605000D01*
X145645000Y-42605000D02*
X145645000Y-41880000D01*
X145215000Y-43315000D02*
X145215000Y-43035000D01*
X145215000Y-44320000D02*
X145215000Y-43315000D01*
X146505000Y-44320000D02*
X146505000Y-44355000D01*
X146470000Y-43315000D02*
X145215000Y-43315000D01*
X140850000Y-43200000D02*
X140850000Y-42250000D01*
X140850000Y-44150000D02*
X140850000Y-43200000D01*
X147025002Y-45049998D02*
X147200000Y-44875000D01*
X146524998Y-45049998D02*
X147025002Y-45049998D01*
X146505000Y-45030000D02*
X146524998Y-45049998D01*
X146505000Y-44445000D02*
X146505000Y-45030000D01*
X117505000Y-44445000D02*
X117505000Y-45030000D01*
X117505000Y-45030000D02*
X117524998Y-45049998D01*
X117524998Y-45049998D02*
X118025002Y-45049998D01*
X118025002Y-45049998D02*
X118200000Y-44875000D01*
X111850000Y-44150000D02*
X111850000Y-43200000D01*
X111850000Y-43200000D02*
X111850000Y-42250000D01*
X117470000Y-43315000D02*
X116215000Y-43315000D01*
X117505000Y-44320000D02*
X117505000Y-44355000D01*
X116215000Y-44320000D02*
X116215000Y-43315000D01*
X116215000Y-43315000D02*
X116215000Y-43035000D01*
X116645000Y-42605000D02*
X116645000Y-41880000D01*
X116215000Y-43035000D02*
X116645000Y-42605000D01*
X117810000Y-39300000D02*
X117810000Y-41575000D01*
X117810000Y-41575000D02*
X117505000Y-41880000D01*
X117505000Y-41880000D02*
X116645000Y-41880000D01*
X111850000Y-43200000D02*
X112600000Y-43200000D01*
X111850000Y-42250000D02*
X111850000Y-44150000D01*
X116645000Y-44320000D02*
X116215000Y-44320000D01*
X117505000Y-41880000D02*
X117470000Y-41915000D01*
X117470000Y-41915000D02*
X117470000Y-42455000D01*
X144355000Y-44320000D02*
X143925000Y-44320000D01*
X139750000Y-46850000D02*
X140000000Y-47100000D01*
X139750000Y-44150000D02*
X139750000Y-46850000D01*
X144355000Y-45155000D02*
X144550000Y-45350000D01*
X144355000Y-44320000D02*
X144355000Y-45155000D01*
X144125000Y-43200000D02*
X144225000Y-43100000D01*
X144125000Y-44000000D02*
X144125000Y-43200000D01*
X143925000Y-44200000D02*
X144125000Y-44000000D01*
X143925000Y-44445000D02*
X143925000Y-44200000D01*
X149225000Y-42800000D02*
X149650000Y-42800000D01*
X148800000Y-42800000D02*
X149225000Y-42800000D01*
X149225000Y-42800000D02*
X149225000Y-42200000D01*
X120225000Y-42800000D02*
X120225000Y-42200000D01*
X119800000Y-42800000D02*
X120225000Y-42800000D01*
X120225000Y-42800000D02*
X120650000Y-42800000D01*
X114925000Y-44445000D02*
X114925000Y-44200000D01*
X114925000Y-44200000D02*
X115125000Y-44000000D01*
X115125000Y-44000000D02*
X115125000Y-43200000D01*
X115125000Y-43200000D02*
X115225000Y-43100000D01*
X115355000Y-44320000D02*
X115355000Y-45155000D01*
X115355000Y-45155000D02*
X115550000Y-45350000D01*
X110750000Y-44150000D02*
X110750000Y-46850000D01*
X110750000Y-46850000D02*
X111000000Y-47100000D01*
X115355000Y-44320000D02*
X114925000Y-44320000D01*
D39*
X142600000Y-73575000D02*
X143675000Y-73575000D01*
X143675000Y-73575000D02*
X144050000Y-73200000D01*
X120000000Y-76575000D02*
X121425000Y-76575000D01*
X121425000Y-76575000D02*
X121200000Y-76800000D01*
X121200000Y-76800000D02*
X121200000Y-77325000D01*
X144050000Y-73200000D02*
X145700000Y-73200000D01*
X145700000Y-73200000D02*
X146400000Y-73900000D01*
D11*
X135225000Y-71350000D02*
X135375000Y-71200000D01*
X135375000Y-71200000D02*
X135375000Y-69400000D01*
X135375000Y-69400000D02*
X136225000Y-68550000D01*
X136225000Y-68550000D02*
X137500000Y-68550000D01*
X135950000Y-68550000D02*
X135750000Y-68350000D01*
X136225000Y-68550000D02*
X135950000Y-68550000D01*
X107225000Y-68550000D02*
X106950000Y-68550000D01*
X106950000Y-68550000D02*
X106750000Y-68350000D01*
X107225000Y-68550000D02*
X108500000Y-68550000D01*
X106375000Y-69400000D02*
X107225000Y-68550000D01*
X106375000Y-71200000D02*
X106375000Y-69400000D01*
X106225000Y-71350000D02*
X106375000Y-71200000D01*
X135050000Y-75275000D02*
X134505000Y-75820000D01*
X134505000Y-75820000D02*
X134150000Y-75820000D01*
X105505000Y-75820000D02*
X105150000Y-75820000D01*
X106050000Y-75275000D02*
X105505000Y-75820000D01*
X149820000Y-55805000D02*
X149820000Y-56235000D01*
X148815000Y-55615000D02*
X149005000Y-55805000D01*
X149005000Y-55805000D02*
X149820000Y-55805000D01*
X148815000Y-54980000D02*
X148815000Y-55615000D01*
X148975000Y-55805000D02*
X149005000Y-55805000D01*
X147380000Y-55805000D02*
X148975000Y-55805000D01*
X147380000Y-55375000D02*
X147380000Y-55805000D01*
X150490000Y-54400000D02*
X149945000Y-54945000D01*
X151000000Y-54400000D02*
X150490000Y-54400000D01*
X145500000Y-54400000D02*
X146300000Y-54400000D01*
X146300000Y-55050000D02*
X146625000Y-55375000D01*
X146625000Y-55375000D02*
X147255000Y-55375000D01*
X146300000Y-54400000D02*
X146300000Y-55050000D01*
X139700000Y-53500000D02*
X139650000Y-53500000D01*
X140200000Y-54000000D02*
X139700000Y-53500000D01*
X140200000Y-54495000D02*
X140200000Y-54000000D01*
X139650000Y-52600000D02*
X139650000Y-53500000D01*
X148775000Y-52350000D02*
X148775000Y-53075000D01*
X148775000Y-53075000D02*
X149945000Y-54245000D01*
X149945000Y-54245000D02*
X149945000Y-54945000D01*
X149825000Y-51300000D02*
X148775000Y-52350000D01*
X150000000Y-51300000D02*
X149825000Y-51300000D01*
X141750000Y-71925000D02*
X141875000Y-71800000D01*
X141875000Y-71800000D02*
X141875000Y-70000000D01*
X141375000Y-71925000D02*
X141750000Y-71925000D01*
X144600000Y-68500000D02*
X144225000Y-68125000D01*
X144225000Y-68125000D02*
X144225000Y-66000000D01*
X144225000Y-66000000D02*
X144500000Y-65725000D01*
X144600000Y-69150000D02*
X144600000Y-68500000D01*
X144825000Y-57150000D02*
X145025000Y-57350000D01*
X145025000Y-57350000D02*
X146225000Y-57350000D01*
X146225000Y-57350000D02*
X146350000Y-57225000D01*
X146350000Y-57225000D02*
X146350000Y-56850000D01*
X146350000Y-56850000D02*
X146600000Y-56600000D01*
X146600000Y-56600000D02*
X146600000Y-55400000D01*
X146600000Y-55400000D02*
X146625000Y-55375000D01*
X144055000Y-57150000D02*
X144825000Y-57150000D01*
X135765000Y-52325000D02*
X135690000Y-52250000D01*
X138925000Y-52600000D02*
X138650000Y-52325000D01*
X138650000Y-52325000D02*
X135765000Y-52325000D01*
X139650000Y-52600000D02*
X138925000Y-52600000D01*
X140515000Y-60230000D02*
X140465000Y-60280000D01*
X140600000Y-59405000D02*
X140515000Y-60230000D01*
X111600000Y-59405000D02*
X111515000Y-60230000D01*
X111515000Y-60230000D02*
X111465000Y-60280000D01*
X110650000Y-52600000D02*
X109925000Y-52600000D01*
X109650000Y-52325000D02*
X106765000Y-52325000D01*
X109925000Y-52600000D02*
X109650000Y-52325000D01*
X106765000Y-52325000D02*
X106690000Y-52250000D01*
X115055000Y-57150000D02*
X115825000Y-57150000D01*
X117600000Y-55400000D02*
X117625000Y-55375000D01*
X117600000Y-56600000D02*
X117600000Y-55400000D01*
X117350000Y-56850000D02*
X117600000Y-56600000D01*
X117350000Y-57225000D02*
X117350000Y-56850000D01*
X117225000Y-57350000D02*
X117350000Y-57225000D01*
X116025000Y-57350000D02*
X117225000Y-57350000D01*
X115825000Y-57150000D02*
X116025000Y-57350000D01*
X115600000Y-69150000D02*
X115600000Y-68500000D01*
X115225000Y-66000000D02*
X115500000Y-65725000D01*
X115225000Y-68125000D02*
X115225000Y-66000000D01*
X115600000Y-68500000D02*
X115225000Y-68125000D01*
X112375000Y-71925000D02*
X112750000Y-71925000D01*
X112875000Y-71800000D02*
X112875000Y-70000000D01*
X112750000Y-71925000D02*
X112875000Y-71800000D01*
X121000000Y-51300000D02*
X120825000Y-51300000D01*
X120825000Y-51300000D02*
X119775000Y-52350000D01*
X120945000Y-54245000D02*
X120945000Y-54945000D01*
X119775000Y-53075000D02*
X120945000Y-54245000D01*
X119775000Y-52350000D02*
X119775000Y-53075000D01*
X110650000Y-52600000D02*
X110650000Y-53500000D01*
X111200000Y-54495000D02*
X111200000Y-54000000D01*
X111200000Y-54000000D02*
X110700000Y-53500000D01*
X110700000Y-53500000D02*
X110650000Y-53500000D01*
X117300000Y-54400000D02*
X117300000Y-55050000D01*
X117625000Y-55375000D02*
X118255000Y-55375000D01*
X117300000Y-55050000D02*
X117625000Y-55375000D01*
X116500000Y-54400000D02*
X117300000Y-54400000D01*
X122000000Y-54400000D02*
X121490000Y-54400000D01*
X121490000Y-54400000D02*
X120945000Y-54945000D01*
X118380000Y-55375000D02*
X118380000Y-55805000D01*
X118380000Y-55805000D02*
X119975000Y-55805000D01*
X119975000Y-55805000D02*
X120005000Y-55805000D01*
X119815000Y-54980000D02*
X119815000Y-55615000D01*
X120005000Y-55805000D02*
X120820000Y-55805000D01*
X119815000Y-55615000D02*
X120005000Y-55805000D01*
X120820000Y-55805000D02*
X120820000Y-56235000D01*
X150975000Y-55375000D02*
X151000000Y-55400000D01*
X149945000Y-55375000D02*
X150975000Y-55375000D01*
X120945000Y-55375000D02*
X121975000Y-55375000D01*
X121975000Y-55375000D02*
X122000000Y-55400000D01*
X144350000Y-53450000D02*
X144275000Y-53525000D01*
X144275000Y-53525000D02*
X143400000Y-53525000D01*
X143400000Y-53525000D02*
X143000000Y-53925000D01*
X143000000Y-53925000D02*
X143000000Y-54495000D01*
X114000000Y-53925000D02*
X114000000Y-54495000D01*
X114400000Y-53525000D02*
X114000000Y-53925000D01*
X115275000Y-53525000D02*
X114400000Y-53525000D01*
X115350000Y-53450000D02*
X115275000Y-53525000D01*
X144545000Y-54495000D02*
X144625000Y-54575000D01*
X143400000Y-54495000D02*
X144545000Y-54495000D01*
X114400000Y-54495000D02*
X115545000Y-54495000D01*
X115545000Y-54495000D02*
X115625000Y-54575000D01*
X151135000Y-56665000D02*
X151150000Y-56650000D01*
X149945000Y-56665000D02*
X151135000Y-56665000D01*
X120945000Y-56665000D02*
X122135000Y-56665000D01*
X122135000Y-56665000D02*
X122150000Y-56650000D01*
X146075000Y-45150000D02*
X146275000Y-45350000D01*
X146275000Y-45350000D02*
X148250000Y-45350000D01*
X148250000Y-45350000D02*
X148800000Y-44800000D01*
X148800000Y-44800000D02*
X148800000Y-43900000D01*
X146075000Y-44320000D02*
X146075000Y-45150000D01*
X117075000Y-44320000D02*
X117075000Y-45150000D01*
X119800000Y-44800000D02*
X119800000Y-43900000D01*
X119250000Y-45350000D02*
X119800000Y-44800000D01*
X117275000Y-45350000D02*
X119250000Y-45350000D01*
X117075000Y-45150000D02*
X117275000Y-45350000D01*
X149650000Y-44950000D02*
X148850000Y-45750000D01*
X148850000Y-45750000D02*
X145650000Y-45750000D01*
X145650000Y-45750000D02*
X144785000Y-44885000D01*
X144785000Y-44885000D02*
X144785000Y-44320000D01*
X149650000Y-43900000D02*
X149650000Y-44950000D01*
X120650000Y-43900000D02*
X120650000Y-44950000D01*
X115785000Y-44885000D02*
X115785000Y-44320000D01*
X116650000Y-45750000D02*
X115785000Y-44885000D01*
X119850000Y-45750000D02*
X116650000Y-45750000D01*
X120650000Y-44950000D02*
X119850000Y-45750000D01*
D39*
X142600000Y-72475000D02*
X142600000Y-71950000D01*
X142600000Y-71950000D02*
X142750000Y-71800000D01*
X142600000Y-64600000D02*
X142600000Y-63400000D01*
X142600000Y-59405000D02*
X142600000Y-63400000D01*
X142600000Y-64600000D02*
X142600000Y-72025000D01*
X117950000Y-76275000D02*
X117950000Y-76550000D01*
X117950000Y-76550000D02*
X117975000Y-76575000D01*
X117975000Y-76575000D02*
X118900000Y-76575000D01*
X117950000Y-76550000D02*
X117975000Y-76575000D01*
X117975000Y-76575000D02*
X117950000Y-76275000D01*
X113600000Y-72025000D02*
X113600000Y-72950000D01*
X113600000Y-64600000D02*
X113600000Y-72025000D01*
X113600000Y-59405000D02*
X113600000Y-63400000D01*
X113600000Y-64600000D02*
X113600000Y-63400000D01*
X117225000Y-76575000D02*
X118900000Y-76575000D01*
X113600000Y-72950000D02*
X117225000Y-76575000D01*
D11*
X144850000Y-57950000D02*
X144055000Y-57950000D01*
X147900000Y-59100000D02*
X148500000Y-59100000D01*
X147400000Y-58600000D02*
X147900000Y-59100000D01*
X146900000Y-58600000D02*
X147400000Y-58600000D01*
X146100000Y-57800000D02*
X146900000Y-58600000D01*
X145000000Y-57800000D02*
X146100000Y-57800000D01*
X144850000Y-57950000D02*
X145000000Y-57800000D01*
X115850000Y-57950000D02*
X116000000Y-57800000D01*
X116000000Y-57800000D02*
X117100000Y-57800000D01*
X117100000Y-57800000D02*
X117900000Y-58600000D01*
X117900000Y-58600000D02*
X118400000Y-58600000D01*
X118400000Y-58600000D02*
X118900000Y-59100000D01*
X118900000Y-59100000D02*
X119500000Y-59100000D01*
X115850000Y-57950000D02*
X115055000Y-57950000D01*
X145150000Y-58350000D02*
X145300000Y-58200000D01*
X145300000Y-58200000D02*
X145900000Y-58200000D01*
X145900000Y-58200000D02*
X146500000Y-58800000D01*
X146500000Y-58800000D02*
X146600000Y-58800000D01*
X146600000Y-58800000D02*
X146800000Y-59000000D01*
X146800000Y-59000000D02*
X147100000Y-59000000D01*
X147300000Y-59200000D02*
X147100000Y-59000000D01*
X145150000Y-58350000D02*
X144055000Y-58350000D01*
X116150000Y-58350000D02*
X115055000Y-58350000D01*
X118300000Y-59200000D02*
X118100000Y-59000000D01*
X117800000Y-59000000D02*
X118100000Y-59000000D01*
X117600000Y-58800000D02*
X117800000Y-59000000D01*
X117500000Y-58800000D02*
X117600000Y-58800000D01*
X116900000Y-58200000D02*
X117500000Y-58800000D01*
X116300000Y-58200000D02*
X116900000Y-58200000D01*
X116150000Y-58350000D02*
X116300000Y-58200000D01*
X142200000Y-59405000D02*
X142200000Y-60200000D01*
X142200000Y-60200000D02*
X142100000Y-60300000D01*
X142100000Y-60300000D02*
X142000000Y-60400000D01*
X113100000Y-60300000D02*
X113000000Y-60400000D01*
X113200000Y-60200000D02*
X113100000Y-60300000D01*
X113200000Y-59405000D02*
X113200000Y-60200000D01*
X141700000Y-62900000D02*
X141700000Y-62950000D01*
X141900000Y-62200000D02*
X141700000Y-62400000D01*
X141700000Y-62400000D02*
X141700000Y-62950000D01*
X141550000Y-62800000D02*
X141700000Y-62950000D01*
X140850000Y-62800000D02*
X141550000Y-62800000D01*
X140700000Y-60850000D02*
X140700000Y-60950000D01*
X140700000Y-60850000D02*
X140700000Y-60950000D01*
X140985000Y-59420000D02*
X141000000Y-59405000D01*
X141000000Y-59955000D02*
X140925000Y-60030000D01*
X140925000Y-60030000D02*
X140925000Y-60340000D01*
X140925000Y-60340000D02*
X140915000Y-60350000D01*
X140915000Y-60350000D02*
X140915000Y-60470000D01*
X140915000Y-60470000D02*
X140700000Y-60685000D01*
X140700000Y-60685000D02*
X140700000Y-60950000D01*
X141000000Y-59405000D02*
X141000000Y-59955000D01*
X112000000Y-59405000D02*
X112000000Y-59955000D01*
X111700000Y-60685000D02*
X111700000Y-60950000D01*
X111915000Y-60470000D02*
X111700000Y-60685000D01*
X111915000Y-60350000D02*
X111915000Y-60470000D01*
X111925000Y-60340000D02*
X111915000Y-60350000D01*
X111925000Y-60030000D02*
X111925000Y-60340000D01*
X112000000Y-59955000D02*
X111925000Y-60030000D01*
X111985000Y-59420000D02*
X112000000Y-59405000D01*
X111700000Y-60850000D02*
X111700000Y-60950000D01*
X111700000Y-60850000D02*
X111700000Y-60950000D01*
X111850000Y-62800000D02*
X112550000Y-62800000D01*
X112550000Y-62800000D02*
X112700000Y-62950000D01*
X112700000Y-62400000D02*
X112700000Y-62950000D01*
X112900000Y-62200000D02*
X112700000Y-62400000D01*
X112700000Y-62900000D02*
X112700000Y-62950000D01*
X141800000Y-59405000D02*
X141400000Y-59405000D01*
X141400000Y-60325000D02*
X141395000Y-60330000D01*
X141400000Y-59405000D02*
X141400000Y-60325000D01*
X112400000Y-59405000D02*
X112400000Y-60325000D01*
X112400000Y-60325000D02*
X112395000Y-60330000D01*
X112800000Y-59405000D02*
X112400000Y-59405000D01*
X144000000Y-59500000D02*
X144055000Y-59445000D01*
X144055000Y-59445000D02*
X144055000Y-58750000D01*
X144000000Y-60700000D02*
X143800000Y-60900000D01*
X143800000Y-60900000D02*
X143200000Y-60900000D01*
X143200000Y-60900000D02*
X143000000Y-60700000D01*
X143000000Y-60700000D02*
X143000000Y-60200000D01*
X143000000Y-60200000D02*
X143000000Y-60200000D01*
X143000000Y-60200000D02*
X143000000Y-59405000D01*
X144000000Y-59500000D02*
X144000000Y-60700000D01*
X139100000Y-62100000D02*
X139100000Y-59600000D01*
X139350000Y-62350000D02*
X139100000Y-62100000D01*
X139350000Y-62800000D02*
X139350000Y-62350000D01*
X110350000Y-62800000D02*
X110350000Y-62350000D01*
X110350000Y-62350000D02*
X110100000Y-62100000D01*
X110100000Y-62100000D02*
X110100000Y-59600000D01*
X115000000Y-59500000D02*
X115000000Y-60700000D01*
X114000000Y-60200000D02*
X114000000Y-59405000D01*
X114000000Y-60200000D02*
X114000000Y-60200000D01*
X114000000Y-60700000D02*
X114000000Y-60200000D01*
X114200000Y-60900000D02*
X114000000Y-60700000D01*
X114800000Y-60900000D02*
X114200000Y-60900000D01*
X115000000Y-60700000D02*
X114800000Y-60900000D01*
X115055000Y-59445000D02*
X115055000Y-58750000D01*
X115000000Y-59500000D02*
X115055000Y-59445000D01*
X143500000Y-60400000D02*
X143400000Y-60300000D01*
X143400000Y-60300000D02*
X143400000Y-59405000D01*
X140925000Y-61450000D02*
X140850000Y-61525000D01*
X140850000Y-61525000D02*
X140850000Y-61550000D01*
X141700000Y-61450000D02*
X140925000Y-61450000D01*
X112700000Y-61450000D02*
X111925000Y-61450000D01*
X111850000Y-61525000D02*
X111850000Y-61550000D01*
X111925000Y-61450000D02*
X111850000Y-61525000D01*
X114400000Y-60300000D02*
X114400000Y-59405000D01*
X114500000Y-60400000D02*
X114400000Y-60300000D01*
X138905000Y-75820000D02*
X138650000Y-75820000D01*
X139575000Y-75150000D02*
X138905000Y-75820000D01*
X153075000Y-70450000D02*
X152225000Y-69600000D01*
X152225000Y-69600000D02*
X151975000Y-69600000D01*
X151975000Y-69600000D02*
X151550000Y-69175000D01*
X151550000Y-69175000D02*
X150250000Y-69175000D01*
X150250000Y-69175000D02*
X150025000Y-68950000D01*
X150025000Y-68950000D02*
X147575000Y-68950000D01*
X147575000Y-68950000D02*
X146875000Y-69650000D01*
X155250000Y-70450000D02*
X153075000Y-70450000D01*
X126250000Y-70450000D02*
X124075000Y-70450000D01*
X118575000Y-68950000D02*
X117875000Y-69650000D01*
X121025000Y-68950000D02*
X118575000Y-68950000D01*
X121250000Y-69175000D02*
X121025000Y-68950000D01*
X122550000Y-69175000D02*
X121250000Y-69175000D01*
X122975000Y-69600000D02*
X122550000Y-69175000D01*
X123225000Y-69600000D02*
X122975000Y-69600000D01*
X124075000Y-70450000D02*
X123225000Y-69600000D01*
X110575000Y-75150000D02*
X109905000Y-75820000D01*
X109905000Y-75820000D02*
X109650000Y-75820000D01*
X150675000Y-67825000D02*
X150950000Y-68100000D01*
X150950000Y-68100000D02*
X150950000Y-68450000D01*
X150950000Y-68450000D02*
X151275000Y-68775000D01*
X151275000Y-68775000D02*
X152175000Y-68775000D01*
X122275000Y-68775000D02*
X123175000Y-68775000D01*
X121950000Y-68450000D02*
X122275000Y-68775000D01*
X121950000Y-68100000D02*
X121950000Y-68450000D01*
X121675000Y-67825000D02*
X121950000Y-68100000D01*
X137500000Y-64525000D02*
X137400000Y-64625000D01*
X138250000Y-64525000D02*
X137500000Y-64525000D01*
X109250000Y-64525000D02*
X108500000Y-64525000D01*
X108500000Y-64525000D02*
X108400000Y-64625000D01*
X139750000Y-64600000D02*
X139125000Y-65225000D01*
X139750000Y-64525000D02*
X139750000Y-64600000D01*
X110750000Y-64525000D02*
X110750000Y-64600000D01*
X110750000Y-64600000D02*
X110125000Y-65225000D01*
X140475000Y-71500000D02*
X141150000Y-70825000D01*
X140475000Y-71925000D02*
X140475000Y-71500000D01*
X111475000Y-71925000D02*
X111475000Y-71500000D01*
X111475000Y-71500000D02*
X112150000Y-70825000D01*
X149245000Y-54145000D02*
X148000000Y-52900000D01*
X148000000Y-52900000D02*
X148000000Y-51300000D01*
X149245000Y-54980000D02*
X149245000Y-54145000D01*
X148000000Y-51300000D02*
X147800000Y-51300000D01*
X141400000Y-53850000D02*
X141050000Y-53500000D01*
X141400000Y-54495000D02*
X141400000Y-53850000D01*
X140550000Y-53500000D02*
X141050000Y-53500000D01*
X111550000Y-53500000D02*
X112050000Y-53500000D01*
X112400000Y-54495000D02*
X112400000Y-53850000D01*
X112400000Y-53850000D02*
X112050000Y-53500000D01*
X119000000Y-51300000D02*
X118800000Y-51300000D01*
X120245000Y-54980000D02*
X120245000Y-54145000D01*
X119000000Y-52900000D02*
X119000000Y-51300000D01*
X120245000Y-54145000D02*
X119000000Y-52900000D01*
X146000000Y-51800000D02*
X146000000Y-51300000D01*
X148385000Y-54185000D02*
X146000000Y-51800000D01*
X148385000Y-54980000D02*
X148385000Y-54185000D01*
X141800000Y-53550000D02*
X141700000Y-53450000D01*
X141800000Y-54495000D02*
X141800000Y-53550000D01*
X141100000Y-52600000D02*
X141700000Y-53200000D01*
X141700000Y-53200000D02*
X141700000Y-53450000D01*
X140550000Y-52600000D02*
X141100000Y-52600000D01*
X111550000Y-52600000D02*
X112100000Y-52600000D01*
X112700000Y-53200000D02*
X112700000Y-53450000D01*
X112100000Y-52600000D02*
X112700000Y-53200000D01*
X112800000Y-54495000D02*
X112800000Y-53550000D01*
X112800000Y-53550000D02*
X112700000Y-53450000D01*
X119385000Y-54980000D02*
X119385000Y-54185000D01*
X119385000Y-54185000D02*
X117000000Y-51800000D01*
X117000000Y-51800000D02*
X117000000Y-51300000D01*
X140650000Y-41150000D02*
X140550000Y-41250000D01*
X140650000Y-39300000D02*
X140650000Y-41150000D01*
X143950000Y-45750000D02*
X143350000Y-45150000D01*
X143350000Y-45150000D02*
X143050000Y-45150000D01*
X141800000Y-41300000D02*
X141750000Y-41250000D01*
X141750000Y-41250000D02*
X140550000Y-41250000D01*
X144000000Y-51450000D02*
X144000000Y-51300000D01*
X142200000Y-53250000D02*
X144000000Y-51450000D01*
X142200000Y-54495000D02*
X142200000Y-53250000D01*
X113200000Y-54495000D02*
X113200000Y-53250000D01*
X113200000Y-53250000D02*
X115000000Y-51450000D01*
X115000000Y-51450000D02*
X115000000Y-51300000D01*
X112750000Y-41250000D02*
X111550000Y-41250000D01*
X112800000Y-41300000D02*
X112750000Y-41250000D01*
X114350000Y-45150000D02*
X114050000Y-45150000D01*
X114950000Y-45750000D02*
X114350000Y-45150000D01*
X111650000Y-39300000D02*
X111650000Y-41150000D01*
X111650000Y-41150000D02*
X111550000Y-41250000D01*
X149350000Y-41200000D02*
X149400000Y-41250000D01*
X149350000Y-39300000D02*
X149350000Y-41200000D01*
X149400000Y-41250000D02*
X147700000Y-41250000D01*
X142000000Y-52400000D02*
X142100000Y-52500000D01*
X142900000Y-53300000D02*
X142600000Y-53600000D01*
X142600000Y-53600000D02*
X142600000Y-54495000D01*
X142000000Y-51300000D02*
X142000000Y-52400000D01*
X113000000Y-51300000D02*
X113000000Y-52400000D01*
X113600000Y-53600000D02*
X113600000Y-54495000D01*
X113900000Y-53300000D02*
X113600000Y-53600000D01*
X113000000Y-52400000D02*
X113100000Y-52500000D01*
X120400000Y-41250000D02*
X118700000Y-41250000D01*
X120350000Y-39300000D02*
X120350000Y-41200000D01*
X120350000Y-41200000D02*
X120400000Y-41250000D01*
X144055000Y-55550000D02*
X145200000Y-55550000D01*
X145900000Y-55850000D02*
X146050000Y-55700000D01*
X145500000Y-55850000D02*
X145900000Y-55850000D01*
X145200000Y-55550000D02*
X145500000Y-55850000D01*
X116200000Y-55550000D02*
X116500000Y-55850000D01*
X116500000Y-55850000D02*
X116900000Y-55850000D01*
X116900000Y-55850000D02*
X117050000Y-55700000D01*
X115055000Y-55550000D02*
X116200000Y-55550000D01*
X153725000Y-66385000D02*
X155250000Y-67910000D01*
X153725000Y-64875000D02*
X153725000Y-66385000D01*
X153725000Y-64875000D02*
X153725000Y-64875000D01*
X153725000Y-60675000D02*
X153725000Y-63650000D01*
X155180000Y-59220000D02*
X153725000Y-60675000D01*
X155250000Y-59220000D02*
X155180000Y-59220000D01*
X126250000Y-59220000D02*
X126180000Y-59220000D01*
X126180000Y-59220000D02*
X124725000Y-60675000D01*
X124725000Y-60675000D02*
X124725000Y-63650000D01*
X124725000Y-64875000D02*
X124725000Y-64875000D01*
X124725000Y-64875000D02*
X124725000Y-66385000D01*
X124725000Y-66385000D02*
X126250000Y-67910000D01*
X144650000Y-56350000D02*
X144055000Y-56350000D01*
X145100000Y-56800000D02*
X145750000Y-56800000D01*
X144650000Y-56350000D02*
X145100000Y-56800000D01*
X115650000Y-56350000D02*
X116100000Y-56800000D01*
X116100000Y-56800000D02*
X116750000Y-56800000D01*
X115650000Y-56350000D02*
X115055000Y-56350000D01*
X144055000Y-55950000D02*
X144900000Y-55950000D01*
X145250000Y-56300000D02*
X146125000Y-56300000D01*
X144900000Y-55950000D02*
X145250000Y-56300000D01*
X115900000Y-55950000D02*
X116250000Y-56300000D01*
X116250000Y-56300000D02*
X117125000Y-56300000D01*
X115055000Y-55950000D02*
X115900000Y-55950000D01*
X145450000Y-55150000D02*
X145600000Y-55300000D01*
X144055000Y-55150000D02*
X145450000Y-55150000D01*
X152100000Y-59750000D02*
X145600000Y-59750000D01*
X123100000Y-59750000D02*
X116600000Y-59750000D01*
X115055000Y-55150000D02*
X116450000Y-55150000D01*
X116450000Y-55150000D02*
X116600000Y-55300000D01*
X136850000Y-76120000D02*
X137150000Y-75820000D01*
X136850000Y-77900000D02*
X136850000Y-76120000D01*
X137425000Y-78475000D02*
X136850000Y-77900000D01*
X138425000Y-78475000D02*
X137425000Y-78475000D01*
X139325000Y-77575000D02*
X138425000Y-78475000D01*
X141200000Y-77575000D02*
X139325000Y-77575000D01*
X141675000Y-78050000D02*
X141200000Y-77575000D01*
X142150000Y-78050000D02*
X141675000Y-78050000D01*
X113150000Y-78050000D02*
X112675000Y-78050000D01*
X112675000Y-78050000D02*
X112200000Y-77575000D01*
X112200000Y-77575000D02*
X110325000Y-77575000D01*
X110325000Y-77575000D02*
X109425000Y-78475000D01*
X109425000Y-78475000D02*
X108425000Y-78475000D01*
X108425000Y-78475000D02*
X107850000Y-77900000D01*
X107850000Y-77900000D02*
X107850000Y-76120000D01*
X107850000Y-76120000D02*
X108150000Y-75820000D01*
X134950000Y-54050000D02*
X133150000Y-52250000D01*
X135750000Y-54050000D02*
X134950000Y-54050000D01*
X136850000Y-55150000D02*
X135750000Y-54050000D01*
X139145000Y-55150000D02*
X138500000Y-55150000D01*
X138500000Y-55150000D02*
X136850000Y-55150000D01*
X109500000Y-55150000D02*
X107850000Y-55150000D01*
X110145000Y-55150000D02*
X109500000Y-55150000D01*
X107850000Y-55150000D02*
X106750000Y-54050000D01*
X106750000Y-54050000D02*
X105950000Y-54050000D01*
X105950000Y-54050000D02*
X104150000Y-52250000D01*
X134950000Y-57650000D02*
X133150000Y-55850000D01*
X135750000Y-57650000D02*
X134950000Y-57650000D01*
X137850000Y-55550000D02*
X135750000Y-57650000D01*
X139145000Y-55550000D02*
X138500000Y-55550000D01*
X138500000Y-55550000D02*
X137850000Y-55550000D01*
X109500000Y-55550000D02*
X108850000Y-55550000D01*
X110145000Y-55550000D02*
X109500000Y-55550000D01*
X108850000Y-55550000D02*
X106750000Y-57650000D01*
X106750000Y-57650000D02*
X105950000Y-57650000D01*
X105950000Y-57650000D02*
X104150000Y-55850000D01*
X134950000Y-61250000D02*
X133150000Y-59450000D01*
X135750000Y-61250000D02*
X134950000Y-61250000D01*
X138000000Y-55950000D02*
X137250000Y-56700000D01*
X137250000Y-56700000D02*
X137250000Y-59800000D01*
X137250000Y-59800000D02*
X136400000Y-60650000D01*
X136400000Y-60650000D02*
X136350000Y-60650000D01*
X136350000Y-60650000D02*
X136000000Y-60650000D01*
X136000000Y-60650000D02*
X135750000Y-60900000D01*
X135750000Y-60900000D02*
X135750000Y-61250000D01*
X139145000Y-55950000D02*
X138500000Y-55950000D01*
X138500000Y-55950000D02*
X138000000Y-55950000D01*
X109500000Y-55950000D02*
X109000000Y-55950000D01*
X110145000Y-55950000D02*
X109500000Y-55950000D01*
X106750000Y-60900000D02*
X106750000Y-61250000D01*
X107000000Y-60650000D02*
X106750000Y-60900000D01*
X107350000Y-60650000D02*
X107000000Y-60650000D01*
X107400000Y-60650000D02*
X107350000Y-60650000D01*
X108250000Y-59800000D02*
X107400000Y-60650000D01*
X108250000Y-56700000D02*
X108250000Y-59800000D01*
X109000000Y-55950000D02*
X108250000Y-56700000D01*
X106750000Y-61250000D02*
X105950000Y-61250000D01*
X105950000Y-61250000D02*
X104150000Y-59450000D01*
X147745000Y-43745000D02*
X147750000Y-43750000D01*
X147750000Y-43750000D02*
X147900000Y-43750000D01*
X146470000Y-43745000D02*
X147745000Y-43745000D01*
X117470000Y-43745000D02*
X118745000Y-43745000D01*
X118750000Y-43750000D02*
X118900000Y-43750000D01*
X118745000Y-43745000D02*
X118750000Y-43750000D01*
X147310000Y-42885000D02*
X147325000Y-42900000D01*
X146470000Y-42885000D02*
X147310000Y-42885000D01*
X117470000Y-42885000D02*
X118310000Y-42885000D01*
X118310000Y-42885000D02*
X118325000Y-42900000D01*
X134950000Y-64850000D02*
X133150000Y-63050000D01*
X135750000Y-64850000D02*
X134950000Y-64850000D01*
X135750000Y-64800000D02*
X135750000Y-64850000D01*
X138150000Y-56350000D02*
X137600000Y-56900000D01*
X137600000Y-56900000D02*
X137600000Y-60250000D01*
X137600000Y-60250000D02*
X137250000Y-60600000D01*
X137250000Y-60600000D02*
X137250000Y-63300000D01*
X137250000Y-63300000D02*
X135750000Y-64800000D01*
X139145000Y-56350000D02*
X138500000Y-56350000D01*
X138500000Y-56350000D02*
X138150000Y-56350000D01*
X109500000Y-56350000D02*
X109150000Y-56350000D01*
X110145000Y-56350000D02*
X109500000Y-56350000D01*
X108250000Y-63300000D02*
X106750000Y-64800000D01*
X108250000Y-60600000D02*
X108250000Y-63300000D01*
X108600000Y-60250000D02*
X108250000Y-60600000D01*
X108600000Y-56900000D02*
X108600000Y-60250000D01*
X109150000Y-56350000D02*
X108600000Y-56900000D01*
X106750000Y-64800000D02*
X106750000Y-64850000D01*
X106750000Y-64850000D02*
X105950000Y-64850000D01*
X105950000Y-64850000D02*
X104150000Y-63050000D01*
X139550000Y-62075000D02*
X139925000Y-62075000D01*
X139400002Y-61925002D02*
X139550000Y-62075000D01*
X139400002Y-60650000D02*
X139400002Y-61925002D01*
X139775002Y-60275000D02*
X139400002Y-60650000D01*
X139825000Y-60275000D02*
X139775002Y-60275000D01*
X140200000Y-59900000D02*
X139825000Y-60275000D01*
X140200000Y-59405000D02*
X140200000Y-59900000D01*
X139975000Y-62075000D02*
X139925000Y-62075000D01*
X140125000Y-62225000D02*
X139975000Y-62075000D01*
X111125000Y-62225000D02*
X110975000Y-62075000D01*
X110975000Y-62075000D02*
X110925000Y-62075000D01*
X111200000Y-59405000D02*
X111200000Y-59900000D01*
X111200000Y-59900000D02*
X110825000Y-60275000D01*
X110825000Y-60275000D02*
X110775002Y-60275000D01*
X110775002Y-60275000D02*
X110400002Y-60650000D01*
X110400002Y-60650000D02*
X110400002Y-61925002D01*
X110400002Y-61925002D02*
X110550000Y-62075000D01*
X110550000Y-62075000D02*
X110925000Y-62075000D01*
X147725000Y-72125000D02*
X148375000Y-72775000D01*
X148375000Y-72775000D02*
X149500000Y-72775000D01*
X149500000Y-72775000D02*
X150300000Y-71825000D01*
X120500000Y-72775000D02*
X121300000Y-71825000D01*
X119375000Y-72775000D02*
X120500000Y-72775000D01*
X118725000Y-72125000D02*
X119375000Y-72775000D01*
X151150000Y-69650000D02*
X151075000Y-69575000D01*
X151075000Y-69575000D02*
X149600000Y-69575000D01*
X149600000Y-69575000D02*
X149000000Y-70175000D01*
X149000000Y-70175000D02*
X149000000Y-71875000D01*
X120000000Y-70175000D02*
X120000000Y-71875000D01*
X120600000Y-69575000D02*
X120000000Y-70175000D01*
X122075000Y-69575000D02*
X120600000Y-69575000D01*
X122150000Y-69650000D02*
X122075000Y-69575000D01*
X145100000Y-71300000D02*
X144600000Y-70800000D01*
X138600000Y-63400000D02*
X139000000Y-63800000D01*
X139000000Y-63800000D02*
X141800000Y-63800000D01*
X143300000Y-63800000D02*
X143800000Y-64300000D01*
X143800000Y-64300000D02*
X143800000Y-69700000D01*
X143800000Y-69700000D02*
X144150000Y-70050000D01*
X144150000Y-70050000D02*
X144600000Y-70050000D01*
X138600000Y-59725000D02*
X138600000Y-63400000D01*
X139145000Y-58750000D02*
X139145000Y-58755000D01*
X145850000Y-71550000D02*
X145600000Y-71800000D01*
X148000000Y-71550000D02*
X145850000Y-71550000D01*
X148300000Y-71850000D02*
X148000000Y-71550000D01*
X148300000Y-72025000D02*
X148300000Y-71850000D01*
X148700000Y-72425000D02*
X148300000Y-72025000D01*
X149250000Y-72425000D02*
X148700000Y-72425000D01*
X149575000Y-72100000D02*
X149250000Y-72425000D01*
X149575000Y-71875000D02*
X149575000Y-72100000D01*
X150100000Y-71350000D02*
X149575000Y-71875000D01*
X151100000Y-71350000D02*
X150100000Y-71350000D01*
X151550000Y-71800000D02*
X151100000Y-71350000D01*
X152100000Y-71800000D02*
X151550000Y-71800000D01*
X144600000Y-70800000D02*
X145600000Y-71800000D01*
X144600000Y-70050000D02*
X144600000Y-70800000D01*
X138525000Y-58750000D02*
X138375000Y-58900000D01*
X138375000Y-58900000D02*
X138375000Y-59500000D01*
X138375000Y-59500000D02*
X138600000Y-59725000D01*
X139145000Y-58750000D02*
X138525000Y-58750000D01*
X110145000Y-58750000D02*
X109525000Y-58750000D01*
X109375000Y-59500000D02*
X109600000Y-59725000D01*
X109375000Y-58900000D02*
X109375000Y-59500000D01*
X109525000Y-58750000D02*
X109375000Y-58900000D01*
X115600000Y-70050000D02*
X115600000Y-70800000D01*
X115600000Y-70800000D02*
X116600000Y-71800000D01*
X123100000Y-71800000D02*
X122550000Y-71800000D01*
X122550000Y-71800000D02*
X122100000Y-71350000D01*
X122100000Y-71350000D02*
X121100000Y-71350000D01*
X121100000Y-71350000D02*
X120575000Y-71875000D01*
X120575000Y-71875000D02*
X120575000Y-72100000D01*
X120575000Y-72100000D02*
X120250000Y-72425000D01*
X120250000Y-72425000D02*
X119700000Y-72425000D01*
X119700000Y-72425000D02*
X119300000Y-72025000D01*
X119300000Y-72025000D02*
X119300000Y-71850000D01*
X119300000Y-71850000D02*
X119000000Y-71550000D01*
X119000000Y-71550000D02*
X116850000Y-71550000D01*
X116850000Y-71550000D02*
X116600000Y-71800000D01*
X110145000Y-58750000D02*
X110145000Y-58755000D01*
X109600000Y-59725000D02*
X109600000Y-63400000D01*
X115150000Y-70050000D02*
X115600000Y-70050000D01*
X114800000Y-69700000D02*
X115150000Y-70050000D01*
X114800000Y-64300000D02*
X114800000Y-69700000D01*
X114300000Y-63800000D02*
X114800000Y-64300000D01*
X110000000Y-63800000D02*
X112800000Y-63800000D01*
X109600000Y-63400000D02*
X110000000Y-63800000D01*
X116100000Y-71300000D02*
X115600000Y-70800000D01*
X138500000Y-57550000D02*
X138175000Y-57225000D01*
X138175000Y-57225000D02*
X138175000Y-57050000D01*
X139145000Y-57550000D02*
X138500000Y-57550000D01*
X110145000Y-57550000D02*
X109500000Y-57550000D01*
X109175000Y-57225000D02*
X109175000Y-57050000D01*
X109500000Y-57550000D02*
X109175000Y-57225000D01*
X138275000Y-57950000D02*
X138150000Y-57825000D01*
X138150000Y-57825000D02*
X138075000Y-57825000D01*
X139145000Y-57950000D02*
X138275000Y-57950000D01*
X110145000Y-57950000D02*
X109275000Y-57950000D01*
X109150000Y-57825000D02*
X109075000Y-57825000D01*
X109275000Y-57950000D02*
X109150000Y-57825000D01*
D39*
X146400000Y-73900000D02*
X146900000Y-73900000D01*
D40*
G36*
X113322380Y-38408342D02*
X113056400Y-38806409D01*
X112963000Y-39275962D01*
X112963000Y-39324038D01*
X113056400Y-39793591D01*
X113322380Y-40191658D01*
X113720447Y-40457638D01*
X114190000Y-40551038D01*
X114659553Y-40457638D01*
X115057620Y-40191658D01*
X115323600Y-39793591D01*
X115417000Y-39324038D01*
X115417000Y-39275962D01*
X115323600Y-38806409D01*
X115057620Y-38408342D01*
X114973298Y-38352000D01*
X117026702Y-38352000D01*
X116942380Y-38408342D01*
X116676400Y-38806409D01*
X116583000Y-39275962D01*
X116583000Y-39324038D01*
X116676400Y-39793591D01*
X116942380Y-40191658D01*
X117340447Y-40457638D01*
X117358000Y-40461130D01*
X117358000Y-40981932D01*
X117287247Y-40995245D01*
X117215000Y-40980615D01*
X116935000Y-40980615D01*
X116857247Y-40995245D01*
X116785000Y-40980615D01*
X116505000Y-40980615D01*
X116427247Y-40995245D01*
X116355000Y-40980615D01*
X116075000Y-40980615D01*
X115997247Y-40995245D01*
X115925000Y-40980615D01*
X115645000Y-40980615D01*
X115567247Y-40995245D01*
X115495000Y-40980615D01*
X115215000Y-40980615D01*
X115137247Y-40995245D01*
X115065000Y-40980615D01*
X114785000Y-40980615D01*
X114707247Y-40995245D01*
X114635000Y-40980615D01*
X114355000Y-40980615D01*
X114215292Y-41006903D01*
X114086980Y-41089470D01*
X114000899Y-41215453D01*
X113970615Y-41365000D01*
X113970615Y-41938967D01*
X113875292Y-41956903D01*
X113746980Y-42039470D01*
X113660899Y-42165453D01*
X113630615Y-42315000D01*
X113630615Y-42595000D01*
X113645245Y-42672753D01*
X113630615Y-42745000D01*
X113630615Y-43025000D01*
X113645245Y-43102753D01*
X113630615Y-43175000D01*
X113630615Y-43455000D01*
X113645245Y-43532753D01*
X113630615Y-43605000D01*
X113630615Y-43885000D01*
X113656903Y-44024708D01*
X113739470Y-44153020D01*
X113865453Y-44239101D01*
X113970615Y-44260397D01*
X113970615Y-44547931D01*
X113930780Y-44547896D01*
X113709440Y-44639352D01*
X113539947Y-44808549D01*
X113448105Y-45029729D01*
X113447896Y-45269220D01*
X113539352Y-45490560D01*
X113708549Y-45660053D01*
X113929729Y-45751895D01*
X114169220Y-45752104D01*
X114270876Y-45710100D01*
X114347968Y-45787192D01*
X114347896Y-45869220D01*
X114439352Y-46090560D01*
X114512723Y-46164060D01*
X114256124Y-46335514D01*
X114028079Y-46676807D01*
X114000000Y-46817969D01*
X113971921Y-46676807D01*
X113743876Y-46335514D01*
X113402583Y-46107469D01*
X113000000Y-46027390D01*
X112597417Y-46107469D01*
X112256124Y-46335514D01*
X112028079Y-46676807D01*
X111948000Y-47079390D01*
X111948000Y-47120610D01*
X112028079Y-47523193D01*
X112256124Y-47864486D01*
X112418527Y-47973000D01*
X110452000Y-47973000D01*
X110452000Y-40305399D01*
X110524470Y-40418020D01*
X110650453Y-40504101D01*
X110800000Y-40534385D01*
X111198000Y-40534385D01*
X111198000Y-40599813D01*
X111081980Y-40674470D01*
X110995899Y-40800453D01*
X110965615Y-40950000D01*
X110965615Y-41550000D01*
X110991903Y-41689708D01*
X111074470Y-41818020D01*
X111186909Y-41894847D01*
X111165615Y-42000000D01*
X111165615Y-42500000D01*
X111191903Y-42639708D01*
X111247111Y-42725503D01*
X111195899Y-42800453D01*
X111165615Y-42950000D01*
X111165615Y-43450000D01*
X111191903Y-43589708D01*
X111247111Y-43675503D01*
X111195899Y-43750453D01*
X111165615Y-43900000D01*
X111165615Y-44400000D01*
X111191903Y-44539708D01*
X111274470Y-44668020D01*
X111400453Y-44754101D01*
X111550000Y-44784385D01*
X112150000Y-44784385D01*
X112289708Y-44758097D01*
X112418020Y-44675530D01*
X112504101Y-44549547D01*
X112534385Y-44400000D01*
X112534385Y-43900000D01*
X112515931Y-43801927D01*
X112719220Y-43802104D01*
X112940560Y-43710648D01*
X113110053Y-43541451D01*
X113201895Y-43320271D01*
X113202104Y-43080780D01*
X113110648Y-42859440D01*
X112941451Y-42689947D01*
X112720271Y-42598105D01*
X112514555Y-42597925D01*
X112534385Y-42500000D01*
X112534385Y-42000000D01*
X112508097Y-41860292D01*
X112482048Y-41819811D01*
X112679729Y-41901895D01*
X112919220Y-41902104D01*
X113140560Y-41810648D01*
X113310053Y-41641451D01*
X113401895Y-41420271D01*
X113402104Y-41180780D01*
X113310648Y-40959440D01*
X113141451Y-40789947D01*
X112920271Y-40698105D01*
X112680780Y-40697896D01*
X112459440Y-40789352D01*
X112450777Y-40798000D01*
X112102000Y-40798000D01*
X112102000Y-40534385D01*
X112500000Y-40534385D01*
X112639708Y-40508097D01*
X112768020Y-40425530D01*
X112854101Y-40299547D01*
X112884385Y-40150000D01*
X112884385Y-38450000D01*
X112865945Y-38352000D01*
X113406702Y-38352000D01*
X113322380Y-38408342D01*
X113322380Y-38408342D01*
G37*
X113322380Y-38408342D02*
X113056400Y-38806409D01*
X112963000Y-39275962D01*
X112963000Y-39324038D01*
X113056400Y-39793591D01*
X113322380Y-40191658D01*
X113720447Y-40457638D01*
X114190000Y-40551038D01*
X114659553Y-40457638D01*
X115057620Y-40191658D01*
X115323600Y-39793591D01*
X115417000Y-39324038D01*
X115417000Y-39275962D01*
X115323600Y-38806409D01*
X115057620Y-38408342D01*
X114973298Y-38352000D01*
X117026702Y-38352000D01*
X116942380Y-38408342D01*
X116676400Y-38806409D01*
X116583000Y-39275962D01*
X116583000Y-39324038D01*
X116676400Y-39793591D01*
X116942380Y-40191658D01*
X117340447Y-40457638D01*
X117358000Y-40461130D01*
X117358000Y-40981932D01*
X117287247Y-40995245D01*
X117215000Y-40980615D01*
X116935000Y-40980615D01*
X116857247Y-40995245D01*
X116785000Y-40980615D01*
X116505000Y-40980615D01*
X116427247Y-40995245D01*
X116355000Y-40980615D01*
X116075000Y-40980615D01*
X115997247Y-40995245D01*
X115925000Y-40980615D01*
X115645000Y-40980615D01*
X115567247Y-40995245D01*
X115495000Y-40980615D01*
X115215000Y-40980615D01*
X115137247Y-40995245D01*
X115065000Y-40980615D01*
X114785000Y-40980615D01*
X114707247Y-40995245D01*
X114635000Y-40980615D01*
X114355000Y-40980615D01*
X114215292Y-41006903D01*
X114086980Y-41089470D01*
X114000899Y-41215453D01*
X113970615Y-41365000D01*
X113970615Y-41938967D01*
X113875292Y-41956903D01*
X113746980Y-42039470D01*
X113660899Y-42165453D01*
X113630615Y-42315000D01*
X113630615Y-42595000D01*
X113645245Y-42672753D01*
X113630615Y-42745000D01*
X113630615Y-43025000D01*
X113645245Y-43102753D01*
X113630615Y-43175000D01*
X113630615Y-43455000D01*
X113645245Y-43532753D01*
X113630615Y-43605000D01*
X113630615Y-43885000D01*
X113656903Y-44024708D01*
X113739470Y-44153020D01*
X113865453Y-44239101D01*
X113970615Y-44260397D01*
X113970615Y-44547931D01*
X113930780Y-44547896D01*
X113709440Y-44639352D01*
X113539947Y-44808549D01*
X113448105Y-45029729D01*
X113447896Y-45269220D01*
X113539352Y-45490560D01*
X113708549Y-45660053D01*
X113929729Y-45751895D01*
X114169220Y-45752104D01*
X114270876Y-45710100D01*
X114347968Y-45787192D01*
X114347896Y-45869220D01*
X114439352Y-46090560D01*
X114512723Y-46164060D01*
X114256124Y-46335514D01*
X114028079Y-46676807D01*
X114000000Y-46817969D01*
X113971921Y-46676807D01*
X113743876Y-46335514D01*
X113402583Y-46107469D01*
X113000000Y-46027390D01*
X112597417Y-46107469D01*
X112256124Y-46335514D01*
X112028079Y-46676807D01*
X111948000Y-47079390D01*
X111948000Y-47120610D01*
X112028079Y-47523193D01*
X112256124Y-47864486D01*
X112418527Y-47973000D01*
X110452000Y-47973000D01*
X110452000Y-40305399D01*
X110524470Y-40418020D01*
X110650453Y-40504101D01*
X110800000Y-40534385D01*
X111198000Y-40534385D01*
X111198000Y-40599813D01*
X111081980Y-40674470D01*
X110995899Y-40800453D01*
X110965615Y-40950000D01*
X110965615Y-41550000D01*
X110991903Y-41689708D01*
X111074470Y-41818020D01*
X111186909Y-41894847D01*
X111165615Y-42000000D01*
X111165615Y-42500000D01*
X111191903Y-42639708D01*
X111247111Y-42725503D01*
X111195899Y-42800453D01*
X111165615Y-42950000D01*
X111165615Y-43450000D01*
X111191903Y-43589708D01*
X111247111Y-43675503D01*
X111195899Y-43750453D01*
X111165615Y-43900000D01*
X111165615Y-44400000D01*
X111191903Y-44539708D01*
X111274470Y-44668020D01*
X111400453Y-44754101D01*
X111550000Y-44784385D01*
X112150000Y-44784385D01*
X112289708Y-44758097D01*
X112418020Y-44675530D01*
X112504101Y-44549547D01*
X112534385Y-44400000D01*
X112534385Y-43900000D01*
X112515931Y-43801927D01*
X112719220Y-43802104D01*
X112940560Y-43710648D01*
X113110053Y-43541451D01*
X113201895Y-43320271D01*
X113202104Y-43080780D01*
X113110648Y-42859440D01*
X112941451Y-42689947D01*
X112720271Y-42598105D01*
X112514555Y-42597925D01*
X112534385Y-42500000D01*
X112534385Y-42000000D01*
X112508097Y-41860292D01*
X112482048Y-41819811D01*
X112679729Y-41901895D01*
X112919220Y-41902104D01*
X113140560Y-41810648D01*
X113310053Y-41641451D01*
X113401895Y-41420271D01*
X113402104Y-41180780D01*
X113310648Y-40959440D01*
X113141451Y-40789947D01*
X112920271Y-40698105D01*
X112680780Y-40697896D01*
X112459440Y-40789352D01*
X112450777Y-40798000D01*
X112102000Y-40798000D01*
X112102000Y-40534385D01*
X112500000Y-40534385D01*
X112639708Y-40508097D01*
X112768020Y-40425530D01*
X112854101Y-40299547D01*
X112884385Y-40150000D01*
X112884385Y-38450000D01*
X112865945Y-38352000D01*
X113406702Y-38352000D01*
X113322380Y-38408342D01*
G36*
X116075000Y-42529385D02*
X116081391Y-42529385D01*
X115895388Y-42715388D01*
X115797406Y-42862027D01*
X115763000Y-43035000D01*
X115763000Y-43670615D01*
X115645000Y-43670615D01*
X115505292Y-43696903D01*
X115376980Y-43779470D01*
X115290899Y-43905453D01*
X115260615Y-44055000D01*
X115260615Y-44835000D01*
X115286903Y-44974708D01*
X115369470Y-45103020D01*
X115421059Y-45138269D01*
X115465388Y-45204612D01*
X116330388Y-46069612D01*
X116477027Y-46167594D01*
X116500458Y-46172255D01*
X116256124Y-46335514D01*
X116028079Y-46676807D01*
X116000000Y-46817969D01*
X115971921Y-46676807D01*
X115743876Y-46335514D01*
X115427397Y-46124050D01*
X115460053Y-46091451D01*
X115551895Y-45870271D01*
X115552104Y-45630780D01*
X115460648Y-45409440D01*
X115291451Y-45239947D01*
X115070271Y-45148105D01*
X114987257Y-45148033D01*
X114921990Y-45082766D01*
X114989101Y-44984547D01*
X115019385Y-44835000D01*
X115019385Y-44188609D01*
X115063020Y-44160530D01*
X115149101Y-44034547D01*
X115179385Y-43885000D01*
X115179385Y-43605000D01*
X115164755Y-43527247D01*
X115179385Y-43455000D01*
X115179385Y-43175000D01*
X115164755Y-43097247D01*
X115179385Y-43025000D01*
X115179385Y-42745000D01*
X115164755Y-42667247D01*
X115179385Y-42595000D01*
X115179385Y-42522173D01*
X115215000Y-42529385D01*
X115495000Y-42529385D01*
X115572753Y-42514755D01*
X115645000Y-42529385D01*
X115925000Y-42529385D01*
X116002753Y-42514755D01*
X116075000Y-42529385D01*
X116075000Y-42529385D01*
G37*
X116075000Y-42529385D02*
X116081391Y-42529385D01*
X115895388Y-42715388D01*
X115797406Y-42862027D01*
X115763000Y-43035000D01*
X115763000Y-43670615D01*
X115645000Y-43670615D01*
X115505292Y-43696903D01*
X115376980Y-43779470D01*
X115290899Y-43905453D01*
X115260615Y-44055000D01*
X115260615Y-44835000D01*
X115286903Y-44974708D01*
X115369470Y-45103020D01*
X115421059Y-45138269D01*
X115465388Y-45204612D01*
X116330388Y-46069612D01*
X116477027Y-46167594D01*
X116500458Y-46172255D01*
X116256124Y-46335514D01*
X116028079Y-46676807D01*
X116000000Y-46817969D01*
X115971921Y-46676807D01*
X115743876Y-46335514D01*
X115427397Y-46124050D01*
X115460053Y-46091451D01*
X115551895Y-45870271D01*
X115552104Y-45630780D01*
X115460648Y-45409440D01*
X115291451Y-45239947D01*
X115070271Y-45148105D01*
X114987257Y-45148033D01*
X114921990Y-45082766D01*
X114989101Y-44984547D01*
X115019385Y-44835000D01*
X115019385Y-44188609D01*
X115063020Y-44160530D01*
X115149101Y-44034547D01*
X115179385Y-43885000D01*
X115179385Y-43605000D01*
X115164755Y-43527247D01*
X115179385Y-43455000D01*
X115179385Y-43175000D01*
X115164755Y-43097247D01*
X115179385Y-43025000D01*
X115179385Y-42745000D01*
X115164755Y-42667247D01*
X115179385Y-42595000D01*
X115179385Y-42522173D01*
X115215000Y-42529385D01*
X115495000Y-42529385D01*
X115572753Y-42514755D01*
X115645000Y-42529385D01*
X115925000Y-42529385D01*
X116002753Y-42514755D01*
X116075000Y-42529385D01*
G36*
X121548000Y-46040615D02*
X120325000Y-46040615D01*
X120185292Y-46066903D01*
X120056980Y-46149470D01*
X119970899Y-46275453D01*
X119940615Y-46425000D01*
X119940615Y-46629954D01*
X119743876Y-46335514D01*
X119544058Y-46202000D01*
X119850000Y-46202000D01*
X120022973Y-46167594D01*
X120169612Y-46069612D01*
X120969612Y-45269612D01*
X121067594Y-45122973D01*
X121102000Y-44950000D01*
X121102000Y-44518013D01*
X121168020Y-44475530D01*
X121254101Y-44349547D01*
X121284385Y-44200000D01*
X121284385Y-43600000D01*
X121258097Y-43460292D01*
X121175530Y-43331980D01*
X121049547Y-43245899D01*
X120900000Y-43215615D01*
X120400000Y-43215615D01*
X120260292Y-43241903D01*
X120225997Y-43263971D01*
X120199547Y-43245899D01*
X120050000Y-43215615D01*
X119550000Y-43215615D01*
X119410292Y-43241903D01*
X119308677Y-43307291D01*
X119241451Y-43239947D01*
X119020271Y-43148105D01*
X118873867Y-43147977D01*
X118926895Y-43020271D01*
X118927104Y-42780780D01*
X118835648Y-42559440D01*
X118666451Y-42389947D01*
X118445271Y-42298105D01*
X118366193Y-42298036D01*
X118343097Y-42175292D01*
X118260530Y-42046980D01*
X118134547Y-41960899D01*
X118075319Y-41948905D01*
X118129612Y-41894612D01*
X118227594Y-41747973D01*
X118247349Y-41648658D01*
X118358549Y-41760053D01*
X118579729Y-41851895D01*
X118819220Y-41852104D01*
X119040560Y-41760648D01*
X119099311Y-41702000D01*
X119849813Y-41702000D01*
X119924470Y-41818020D01*
X120050453Y-41904101D01*
X120200000Y-41934385D01*
X120600000Y-41934385D01*
X120739708Y-41908097D01*
X120868020Y-41825530D01*
X120954101Y-41699547D01*
X120984385Y-41550000D01*
X120984385Y-40950000D01*
X120958097Y-40810292D01*
X120875530Y-40681980D01*
X120802000Y-40631739D01*
X120802000Y-40534385D01*
X121200000Y-40534385D01*
X121339708Y-40508097D01*
X121468020Y-40425530D01*
X121548000Y-40308476D01*
X121548000Y-46040615D01*
X121548000Y-46040615D01*
G37*
X121548000Y-46040615D02*
X120325000Y-46040615D01*
X120185292Y-46066903D01*
X120056980Y-46149470D01*
X119970899Y-46275453D01*
X119940615Y-46425000D01*
X119940615Y-46629954D01*
X119743876Y-46335514D01*
X119544058Y-46202000D01*
X119850000Y-46202000D01*
X120022973Y-46167594D01*
X120169612Y-46069612D01*
X120969612Y-45269612D01*
X121067594Y-45122973D01*
X121102000Y-44950000D01*
X121102000Y-44518013D01*
X121168020Y-44475530D01*
X121254101Y-44349547D01*
X121284385Y-44200000D01*
X121284385Y-43600000D01*
X121258097Y-43460292D01*
X121175530Y-43331980D01*
X121049547Y-43245899D01*
X120900000Y-43215615D01*
X120400000Y-43215615D01*
X120260292Y-43241903D01*
X120225997Y-43263971D01*
X120199547Y-43245899D01*
X120050000Y-43215615D01*
X119550000Y-43215615D01*
X119410292Y-43241903D01*
X119308677Y-43307291D01*
X119241451Y-43239947D01*
X119020271Y-43148105D01*
X118873867Y-43147977D01*
X118926895Y-43020271D01*
X118927104Y-42780780D01*
X118835648Y-42559440D01*
X118666451Y-42389947D01*
X118445271Y-42298105D01*
X118366193Y-42298036D01*
X118343097Y-42175292D01*
X118260530Y-42046980D01*
X118134547Y-41960899D01*
X118075319Y-41948905D01*
X118129612Y-41894612D01*
X118227594Y-41747973D01*
X118247349Y-41648658D01*
X118358549Y-41760053D01*
X118579729Y-41851895D01*
X118819220Y-41852104D01*
X119040560Y-41760648D01*
X119099311Y-41702000D01*
X119849813Y-41702000D01*
X119924470Y-41818020D01*
X120050453Y-41904101D01*
X120200000Y-41934385D01*
X120600000Y-41934385D01*
X120739708Y-41908097D01*
X120868020Y-41825530D01*
X120954101Y-41699547D01*
X120984385Y-41550000D01*
X120984385Y-40950000D01*
X120958097Y-40810292D01*
X120875530Y-40681980D01*
X120802000Y-40631739D01*
X120802000Y-40534385D01*
X121200000Y-40534385D01*
X121339708Y-40508097D01*
X121468020Y-40425530D01*
X121548000Y-40308476D01*
X121548000Y-46040615D01*
G36*
X112458549Y-64310053D02*
X112679729Y-64401895D01*
X112919220Y-64402104D01*
X113076315Y-64337194D01*
X113076315Y-64749828D01*
X113066451Y-64739947D01*
X112845271Y-64648105D01*
X112605780Y-64647896D01*
X112384440Y-64739352D01*
X112214947Y-64908549D01*
X112123105Y-65129729D01*
X112122896Y-65369220D01*
X112214352Y-65590560D01*
X112312605Y-65688985D01*
X112249547Y-65645899D01*
X112100000Y-65615615D01*
X110750000Y-65615615D01*
X110610292Y-65641903D01*
X110481980Y-65724470D01*
X110395899Y-65850453D01*
X110365615Y-66000000D01*
X110365615Y-67350000D01*
X110391903Y-67489708D01*
X110474470Y-67618020D01*
X110600453Y-67704101D01*
X110750000Y-67734385D01*
X110954954Y-67734385D01*
X110660514Y-67931124D01*
X110432469Y-68272417D01*
X110352390Y-68675000D01*
X110432469Y-69077583D01*
X110660514Y-69418876D01*
X111001807Y-69646921D01*
X111404390Y-69727000D01*
X111445610Y-69727000D01*
X111848193Y-69646921D01*
X112189486Y-69418876D01*
X112417531Y-69077583D01*
X112497610Y-68675000D01*
X112417531Y-68272417D01*
X112189486Y-67931124D01*
X111895046Y-67734385D01*
X112100000Y-67734385D01*
X112239708Y-67708097D01*
X112368020Y-67625530D01*
X112454101Y-67499547D01*
X112484385Y-67350000D01*
X112484385Y-66000000D01*
X112458097Y-65860292D01*
X112397257Y-65765745D01*
X112604729Y-65851895D01*
X112844220Y-65852104D01*
X113065560Y-65760648D01*
X113076315Y-65749912D01*
X113076315Y-69431757D01*
X112995271Y-69398105D01*
X112755780Y-69397896D01*
X112534440Y-69489352D01*
X112364947Y-69658549D01*
X112273105Y-69879729D01*
X112272943Y-70065615D01*
X111750000Y-70065615D01*
X111610292Y-70091903D01*
X111481980Y-70174470D01*
X111395899Y-70300453D01*
X111365615Y-70450000D01*
X111365615Y-70970161D01*
X111155388Y-71180388D01*
X111069134Y-71309475D01*
X111006980Y-71349470D01*
X110920899Y-71475453D01*
X110890615Y-71625000D01*
X110890615Y-72225000D01*
X110916903Y-72364708D01*
X110999470Y-72493020D01*
X111125453Y-72579101D01*
X111275000Y-72609385D01*
X111675000Y-72609385D01*
X111814708Y-72583097D01*
X111926252Y-72511320D01*
X112025453Y-72579101D01*
X112175000Y-72609385D01*
X112575000Y-72609385D01*
X112714708Y-72583097D01*
X112843020Y-72500530D01*
X112929101Y-72374547D01*
X112937543Y-72332858D01*
X113069612Y-72244612D01*
X113076315Y-72237909D01*
X113076315Y-72950000D01*
X113116178Y-73150406D01*
X113166253Y-73225348D01*
X113229699Y-73320301D01*
X116854699Y-76945301D01*
X117024594Y-77058822D01*
X117225000Y-77098685D01*
X118332761Y-77098685D01*
X118450453Y-77179101D01*
X118600000Y-77209385D01*
X119200000Y-77209385D01*
X119339708Y-77183097D01*
X119348000Y-77177761D01*
X119348000Y-78848000D01*
X114384385Y-78848000D01*
X114384385Y-77200000D01*
X114358097Y-77060292D01*
X114275530Y-76931980D01*
X114149547Y-76845899D01*
X114000000Y-76815615D01*
X112300000Y-76815615D01*
X112160292Y-76841903D01*
X112031980Y-76924470D01*
X111945899Y-77050453D01*
X111931208Y-77123000D01*
X111833414Y-77123000D01*
X111904101Y-77019547D01*
X111934385Y-76870000D01*
X111934385Y-76070000D01*
X111908097Y-75930292D01*
X111825530Y-75801980D01*
X111699547Y-75715899D01*
X111550000Y-75685615D01*
X110855135Y-75685615D01*
X110915560Y-75660648D01*
X111085053Y-75491451D01*
X111176895Y-75270271D01*
X111177104Y-75030780D01*
X111085648Y-74809440D01*
X110916451Y-74639947D01*
X110695271Y-74548105D01*
X110455780Y-74547896D01*
X110234440Y-74639352D01*
X110154422Y-74719230D01*
X110149547Y-74715899D01*
X110000000Y-74685615D01*
X109300000Y-74685615D01*
X109160292Y-74711903D01*
X109031980Y-74794470D01*
X108945899Y-74920453D01*
X108915615Y-75070000D01*
X108915615Y-76570000D01*
X108941903Y-76709708D01*
X108969800Y-76753061D01*
X108831284Y-76752940D01*
X108854101Y-76719547D01*
X108884385Y-76570000D01*
X108884385Y-75070000D01*
X108858097Y-74930292D01*
X108775530Y-74801980D01*
X108649547Y-74715899D01*
X108500000Y-74685615D01*
X107800000Y-74685615D01*
X107660292Y-74711903D01*
X107531980Y-74794470D01*
X107445899Y-74920453D01*
X107415615Y-75070000D01*
X107415615Y-76031442D01*
X107398000Y-76120000D01*
X107398000Y-77900000D01*
X107432406Y-78072973D01*
X107530388Y-78219612D01*
X108105388Y-78794612D01*
X108185288Y-78848000D01*
X104634385Y-78848000D01*
X104634385Y-78280000D01*
X104608097Y-78140292D01*
X104525530Y-78011980D01*
X104399547Y-77925899D01*
X104250000Y-77895615D01*
X103352000Y-77895615D01*
X103352000Y-77254385D01*
X104250000Y-77254385D01*
X104389708Y-77228097D01*
X104518020Y-77145530D01*
X104604101Y-77019547D01*
X104626714Y-76907881D01*
X104650453Y-76924101D01*
X104800000Y-76954385D01*
X105356131Y-76954385D01*
X105199312Y-77110930D01*
X105073144Y-77414778D01*
X105072857Y-77743779D01*
X105198495Y-78047846D01*
X105430930Y-78280688D01*
X105734778Y-78406856D01*
X106063779Y-78407143D01*
X106367846Y-78281505D01*
X106600688Y-78049070D01*
X106726856Y-77745222D01*
X106727143Y-77416221D01*
X106601505Y-77112154D01*
X106369070Y-76879312D01*
X106065222Y-76753144D01*
X105831284Y-76752940D01*
X105854101Y-76719547D01*
X105884385Y-76570000D01*
X105884385Y-76079839D01*
X106087192Y-75877032D01*
X106169220Y-75877104D01*
X106390560Y-75785648D01*
X106560053Y-75616451D01*
X106651895Y-75395271D01*
X106652104Y-75155780D01*
X106560648Y-74934440D01*
X106391451Y-74764947D01*
X106170271Y-74673105D01*
X105930780Y-74672896D01*
X105716307Y-74761515D01*
X105649547Y-74715899D01*
X105500000Y-74685615D01*
X104800000Y-74685615D01*
X104660292Y-74711903D01*
X104531980Y-74794470D01*
X104445899Y-74920453D01*
X104415615Y-75070000D01*
X104415615Y-75726878D01*
X104399547Y-75715899D01*
X104250000Y-75685615D01*
X103352000Y-75685615D01*
X103352000Y-72334778D01*
X106623000Y-72334778D01*
X106623000Y-72365222D01*
X106682146Y-72662567D01*
X106850578Y-72914644D01*
X107102655Y-73083076D01*
X107400000Y-73142222D01*
X107697345Y-73083076D01*
X107949422Y-72914644D01*
X108117854Y-72662567D01*
X108177000Y-72365222D01*
X108177000Y-72334778D01*
X108117854Y-72037433D01*
X107949422Y-71785356D01*
X107697345Y-71616924D01*
X107400000Y-71557778D01*
X107102655Y-71616924D01*
X106850578Y-71785356D01*
X106682146Y-72037433D01*
X106623000Y-72334778D01*
X103352000Y-72334778D01*
X103352000Y-71469220D01*
X105622896Y-71469220D01*
X105714352Y-71690560D01*
X105883549Y-71860053D01*
X106104729Y-71951895D01*
X106344220Y-71952104D01*
X106565560Y-71860648D01*
X106735053Y-71691451D01*
X106826895Y-71470271D01*
X106827104Y-71230780D01*
X106822901Y-71220608D01*
X106827000Y-71200000D01*
X106827000Y-69587224D01*
X107412225Y-69002000D01*
X107465615Y-69002000D01*
X107465615Y-69425000D01*
X107485122Y-69528671D01*
X107465615Y-69625000D01*
X107465615Y-70075000D01*
X107485122Y-70178671D01*
X107465615Y-70275000D01*
X107465615Y-70725000D01*
X107491903Y-70864708D01*
X107574470Y-70993020D01*
X107700453Y-71079101D01*
X107850000Y-71109385D01*
X109150000Y-71109385D01*
X109289708Y-71083097D01*
X109418020Y-71000530D01*
X109504101Y-70874547D01*
X109534385Y-70725000D01*
X109534385Y-70275000D01*
X109514878Y-70171329D01*
X109534385Y-70075000D01*
X109534385Y-69625000D01*
X109514878Y-69521329D01*
X109534385Y-69425000D01*
X109534385Y-68975000D01*
X109514878Y-68871329D01*
X109534385Y-68775000D01*
X109534385Y-68325000D01*
X109508097Y-68185292D01*
X109425530Y-68056980D01*
X109299547Y-67970899D01*
X109150000Y-67940615D01*
X107910554Y-67940615D01*
X107949422Y-67914644D01*
X108117854Y-67662567D01*
X108177000Y-67365222D01*
X108177000Y-67334778D01*
X108117854Y-67037433D01*
X107949422Y-66785356D01*
X107697345Y-66616924D01*
X107400000Y-66557778D01*
X107102655Y-66616924D01*
X106850578Y-66785356D01*
X106682146Y-67037433D01*
X106623000Y-67334778D01*
X106623000Y-67365222D01*
X106682146Y-67662567D01*
X106739224Y-67747991D01*
X106630780Y-67747896D01*
X106409440Y-67839352D01*
X106239947Y-68008549D01*
X106148105Y-68229729D01*
X106147896Y-68469220D01*
X106239352Y-68690560D01*
X106342194Y-68793582D01*
X106055388Y-69080388D01*
X105957406Y-69227027D01*
X105923000Y-69400000D01*
X105923000Y-70823419D01*
X105884440Y-70839352D01*
X105714947Y-71008549D01*
X105623105Y-71229729D01*
X105622896Y-71469220D01*
X103352000Y-71469220D01*
X103352000Y-64284385D01*
X104745160Y-64284385D01*
X105630387Y-65169612D01*
X105702197Y-65217594D01*
X105777027Y-65267594D01*
X105950000Y-65302000D01*
X106199813Y-65302000D01*
X106274470Y-65418020D01*
X106400453Y-65504101D01*
X106550000Y-65534385D01*
X106950000Y-65534385D01*
X107089708Y-65508097D01*
X107218020Y-65425530D01*
X107304101Y-65299547D01*
X107334385Y-65150000D01*
X107334385Y-64854839D01*
X107878778Y-64310446D01*
X107798105Y-64504729D01*
X107797896Y-64744220D01*
X107889352Y-64965560D01*
X108058549Y-65135053D01*
X108279729Y-65226895D01*
X108519220Y-65227104D01*
X108607535Y-65190613D01*
X108700453Y-65254101D01*
X108850000Y-65284385D01*
X109522948Y-65284385D01*
X109522896Y-65344220D01*
X109614352Y-65565560D01*
X109783549Y-65735053D01*
X110004729Y-65826895D01*
X110244220Y-65827104D01*
X110465560Y-65735648D01*
X110635053Y-65566451D01*
X110726895Y-65345271D01*
X110726948Y-65284385D01*
X111150000Y-65284385D01*
X111289708Y-65258097D01*
X111418020Y-65175530D01*
X111504101Y-65049547D01*
X111534385Y-64900000D01*
X111534385Y-64252000D01*
X112400597Y-64252000D01*
X112458549Y-64310053D01*
X112458549Y-64310053D01*
G37*
X112458549Y-64310053D02*
X112679729Y-64401895D01*
X112919220Y-64402104D01*
X113076315Y-64337194D01*
X113076315Y-64749828D01*
X113066451Y-64739947D01*
X112845271Y-64648105D01*
X112605780Y-64647896D01*
X112384440Y-64739352D01*
X112214947Y-64908549D01*
X112123105Y-65129729D01*
X112122896Y-65369220D01*
X112214352Y-65590560D01*
X112312605Y-65688985D01*
X112249547Y-65645899D01*
X112100000Y-65615615D01*
X110750000Y-65615615D01*
X110610292Y-65641903D01*
X110481980Y-65724470D01*
X110395899Y-65850453D01*
X110365615Y-66000000D01*
X110365615Y-67350000D01*
X110391903Y-67489708D01*
X110474470Y-67618020D01*
X110600453Y-67704101D01*
X110750000Y-67734385D01*
X110954954Y-67734385D01*
X110660514Y-67931124D01*
X110432469Y-68272417D01*
X110352390Y-68675000D01*
X110432469Y-69077583D01*
X110660514Y-69418876D01*
X111001807Y-69646921D01*
X111404390Y-69727000D01*
X111445610Y-69727000D01*
X111848193Y-69646921D01*
X112189486Y-69418876D01*
X112417531Y-69077583D01*
X112497610Y-68675000D01*
X112417531Y-68272417D01*
X112189486Y-67931124D01*
X111895046Y-67734385D01*
X112100000Y-67734385D01*
X112239708Y-67708097D01*
X112368020Y-67625530D01*
X112454101Y-67499547D01*
X112484385Y-67350000D01*
X112484385Y-66000000D01*
X112458097Y-65860292D01*
X112397257Y-65765745D01*
X112604729Y-65851895D01*
X112844220Y-65852104D01*
X113065560Y-65760648D01*
X113076315Y-65749912D01*
X113076315Y-69431757D01*
X112995271Y-69398105D01*
X112755780Y-69397896D01*
X112534440Y-69489352D01*
X112364947Y-69658549D01*
X112273105Y-69879729D01*
X112272943Y-70065615D01*
X111750000Y-70065615D01*
X111610292Y-70091903D01*
X111481980Y-70174470D01*
X111395899Y-70300453D01*
X111365615Y-70450000D01*
X111365615Y-70970161D01*
X111155388Y-71180388D01*
X111069134Y-71309475D01*
X111006980Y-71349470D01*
X110920899Y-71475453D01*
X110890615Y-71625000D01*
X110890615Y-72225000D01*
X110916903Y-72364708D01*
X110999470Y-72493020D01*
X111125453Y-72579101D01*
X111275000Y-72609385D01*
X111675000Y-72609385D01*
X111814708Y-72583097D01*
X111926252Y-72511320D01*
X112025453Y-72579101D01*
X112175000Y-72609385D01*
X112575000Y-72609385D01*
X112714708Y-72583097D01*
X112843020Y-72500530D01*
X112929101Y-72374547D01*
X112937543Y-72332858D01*
X113069612Y-72244612D01*
X113076315Y-72237909D01*
X113076315Y-72950000D01*
X113116178Y-73150406D01*
X113166253Y-73225348D01*
X113229699Y-73320301D01*
X116854699Y-76945301D01*
X117024594Y-77058822D01*
X117225000Y-77098685D01*
X118332761Y-77098685D01*
X118450453Y-77179101D01*
X118600000Y-77209385D01*
X119200000Y-77209385D01*
X119339708Y-77183097D01*
X119348000Y-77177761D01*
X119348000Y-78848000D01*
X114384385Y-78848000D01*
X114384385Y-77200000D01*
X114358097Y-77060292D01*
X114275530Y-76931980D01*
X114149547Y-76845899D01*
X114000000Y-76815615D01*
X112300000Y-76815615D01*
X112160292Y-76841903D01*
X112031980Y-76924470D01*
X111945899Y-77050453D01*
X111931208Y-77123000D01*
X111833414Y-77123000D01*
X111904101Y-77019547D01*
X111934385Y-76870000D01*
X111934385Y-76070000D01*
X111908097Y-75930292D01*
X111825530Y-75801980D01*
X111699547Y-75715899D01*
X111550000Y-75685615D01*
X110855135Y-75685615D01*
X110915560Y-75660648D01*
X111085053Y-75491451D01*
X111176895Y-75270271D01*
X111177104Y-75030780D01*
X111085648Y-74809440D01*
X110916451Y-74639947D01*
X110695271Y-74548105D01*
X110455780Y-74547896D01*
X110234440Y-74639352D01*
X110154422Y-74719230D01*
X110149547Y-74715899D01*
X110000000Y-74685615D01*
X109300000Y-74685615D01*
X109160292Y-74711903D01*
X109031980Y-74794470D01*
X108945899Y-74920453D01*
X108915615Y-75070000D01*
X108915615Y-76570000D01*
X108941903Y-76709708D01*
X108969800Y-76753061D01*
X108831284Y-76752940D01*
X108854101Y-76719547D01*
X108884385Y-76570000D01*
X108884385Y-75070000D01*
X108858097Y-74930292D01*
X108775530Y-74801980D01*
X108649547Y-74715899D01*
X108500000Y-74685615D01*
X107800000Y-74685615D01*
X107660292Y-74711903D01*
X107531980Y-74794470D01*
X107445899Y-74920453D01*
X107415615Y-75070000D01*
X107415615Y-76031442D01*
X107398000Y-76120000D01*
X107398000Y-77900000D01*
X107432406Y-78072973D01*
X107530388Y-78219612D01*
X108105388Y-78794612D01*
X108185288Y-78848000D01*
X104634385Y-78848000D01*
X104634385Y-78280000D01*
X104608097Y-78140292D01*
X104525530Y-78011980D01*
X104399547Y-77925899D01*
X104250000Y-77895615D01*
X103352000Y-77895615D01*
X103352000Y-77254385D01*
X104250000Y-77254385D01*
X104389708Y-77228097D01*
X104518020Y-77145530D01*
X104604101Y-77019547D01*
X104626714Y-76907881D01*
X104650453Y-76924101D01*
X104800000Y-76954385D01*
X105356131Y-76954385D01*
X105199312Y-77110930D01*
X105073144Y-77414778D01*
X105072857Y-77743779D01*
X105198495Y-78047846D01*
X105430930Y-78280688D01*
X105734778Y-78406856D01*
X106063779Y-78407143D01*
X106367846Y-78281505D01*
X106600688Y-78049070D01*
X106726856Y-77745222D01*
X106727143Y-77416221D01*
X106601505Y-77112154D01*
X106369070Y-76879312D01*
X106065222Y-76753144D01*
X105831284Y-76752940D01*
X105854101Y-76719547D01*
X105884385Y-76570000D01*
X105884385Y-76079839D01*
X106087192Y-75877032D01*
X106169220Y-75877104D01*
X106390560Y-75785648D01*
X106560053Y-75616451D01*
X106651895Y-75395271D01*
X106652104Y-75155780D01*
X106560648Y-74934440D01*
X106391451Y-74764947D01*
X106170271Y-74673105D01*
X105930780Y-74672896D01*
X105716307Y-74761515D01*
X105649547Y-74715899D01*
X105500000Y-74685615D01*
X104800000Y-74685615D01*
X104660292Y-74711903D01*
X104531980Y-74794470D01*
X104445899Y-74920453D01*
X104415615Y-75070000D01*
X104415615Y-75726878D01*
X104399547Y-75715899D01*
X104250000Y-75685615D01*
X103352000Y-75685615D01*
X103352000Y-72334778D01*
X106623000Y-72334778D01*
X106623000Y-72365222D01*
X106682146Y-72662567D01*
X106850578Y-72914644D01*
X107102655Y-73083076D01*
X107400000Y-73142222D01*
X107697345Y-73083076D01*
X107949422Y-72914644D01*
X108117854Y-72662567D01*
X108177000Y-72365222D01*
X108177000Y-72334778D01*
X108117854Y-72037433D01*
X107949422Y-71785356D01*
X107697345Y-71616924D01*
X107400000Y-71557778D01*
X107102655Y-71616924D01*
X106850578Y-71785356D01*
X106682146Y-72037433D01*
X106623000Y-72334778D01*
X103352000Y-72334778D01*
X103352000Y-71469220D01*
X105622896Y-71469220D01*
X105714352Y-71690560D01*
X105883549Y-71860053D01*
X106104729Y-71951895D01*
X106344220Y-71952104D01*
X106565560Y-71860648D01*
X106735053Y-71691451D01*
X106826895Y-71470271D01*
X106827104Y-71230780D01*
X106822901Y-71220608D01*
X106827000Y-71200000D01*
X106827000Y-69587224D01*
X107412225Y-69002000D01*
X107465615Y-69002000D01*
X107465615Y-69425000D01*
X107485122Y-69528671D01*
X107465615Y-69625000D01*
X107465615Y-70075000D01*
X107485122Y-70178671D01*
X107465615Y-70275000D01*
X107465615Y-70725000D01*
X107491903Y-70864708D01*
X107574470Y-70993020D01*
X107700453Y-71079101D01*
X107850000Y-71109385D01*
X109150000Y-71109385D01*
X109289708Y-71083097D01*
X109418020Y-71000530D01*
X109504101Y-70874547D01*
X109534385Y-70725000D01*
X109534385Y-70275000D01*
X109514878Y-70171329D01*
X109534385Y-70075000D01*
X109534385Y-69625000D01*
X109514878Y-69521329D01*
X109534385Y-69425000D01*
X109534385Y-68975000D01*
X109514878Y-68871329D01*
X109534385Y-68775000D01*
X109534385Y-68325000D01*
X109508097Y-68185292D01*
X109425530Y-68056980D01*
X109299547Y-67970899D01*
X109150000Y-67940615D01*
X107910554Y-67940615D01*
X107949422Y-67914644D01*
X108117854Y-67662567D01*
X108177000Y-67365222D01*
X108177000Y-67334778D01*
X108117854Y-67037433D01*
X107949422Y-66785356D01*
X107697345Y-66616924D01*
X107400000Y-66557778D01*
X107102655Y-66616924D01*
X106850578Y-66785356D01*
X106682146Y-67037433D01*
X106623000Y-67334778D01*
X106623000Y-67365222D01*
X106682146Y-67662567D01*
X106739224Y-67747991D01*
X106630780Y-67747896D01*
X106409440Y-67839352D01*
X106239947Y-68008549D01*
X106148105Y-68229729D01*
X106147896Y-68469220D01*
X106239352Y-68690560D01*
X106342194Y-68793582D01*
X106055388Y-69080388D01*
X105957406Y-69227027D01*
X105923000Y-69400000D01*
X105923000Y-70823419D01*
X105884440Y-70839352D01*
X105714947Y-71008549D01*
X105623105Y-71229729D01*
X105622896Y-71469220D01*
X103352000Y-71469220D01*
X103352000Y-64284385D01*
X104745160Y-64284385D01*
X105630387Y-65169612D01*
X105702197Y-65217594D01*
X105777027Y-65267594D01*
X105950000Y-65302000D01*
X106199813Y-65302000D01*
X106274470Y-65418020D01*
X106400453Y-65504101D01*
X106550000Y-65534385D01*
X106950000Y-65534385D01*
X107089708Y-65508097D01*
X107218020Y-65425530D01*
X107304101Y-65299547D01*
X107334385Y-65150000D01*
X107334385Y-64854839D01*
X107878778Y-64310446D01*
X107798105Y-64504729D01*
X107797896Y-64744220D01*
X107889352Y-64965560D01*
X108058549Y-65135053D01*
X108279729Y-65226895D01*
X108519220Y-65227104D01*
X108607535Y-65190613D01*
X108700453Y-65254101D01*
X108850000Y-65284385D01*
X109522948Y-65284385D01*
X109522896Y-65344220D01*
X109614352Y-65565560D01*
X109783549Y-65735053D01*
X110004729Y-65826895D01*
X110244220Y-65827104D01*
X110465560Y-65735648D01*
X110635053Y-65566451D01*
X110726895Y-65345271D01*
X110726948Y-65284385D01*
X111150000Y-65284385D01*
X111289708Y-65258097D01*
X111418020Y-65175530D01*
X111504101Y-65049547D01*
X111534385Y-64900000D01*
X111534385Y-64252000D01*
X112400597Y-64252000D01*
X112458549Y-64310053D01*
G36*
X114179729Y-64401895D02*
X114262743Y-64401967D01*
X114348000Y-64487224D01*
X114348000Y-69700000D01*
X114382406Y-69872973D01*
X114480388Y-70019612D01*
X114830388Y-70369612D01*
X114977027Y-70467594D01*
X114994223Y-70471014D01*
X115024470Y-70518020D01*
X115148000Y-70602425D01*
X115148000Y-70800000D01*
X115182406Y-70972973D01*
X115280388Y-71119612D01*
X115358919Y-71198143D01*
X115223240Y-71524896D01*
X115222762Y-72072701D01*
X115431956Y-72578989D01*
X115818974Y-72966683D01*
X116324896Y-73176760D01*
X116872701Y-73177238D01*
X117378989Y-72968044D01*
X117766683Y-72581026D01*
X117976760Y-72075104D01*
X117976824Y-72002000D01*
X118124238Y-72002000D01*
X118123105Y-72004729D01*
X118122896Y-72244220D01*
X118214352Y-72465560D01*
X118383549Y-72635053D01*
X118604729Y-72726895D01*
X118687743Y-72726967D01*
X119055388Y-73094612D01*
X119202027Y-73192594D01*
X119374075Y-73226816D01*
X119356685Y-73253841D01*
X119348000Y-73300000D01*
X119348000Y-75970586D01*
X119200000Y-75940615D01*
X118600000Y-75940615D01*
X118578670Y-75944629D01*
X118558097Y-75835292D01*
X118475530Y-75706980D01*
X118349547Y-75620899D01*
X118200000Y-75590615D01*
X117700000Y-75590615D01*
X117560292Y-75616903D01*
X117431980Y-75699470D01*
X117345899Y-75825453D01*
X117324033Y-75933431D01*
X114123685Y-72733083D01*
X114123685Y-64378623D01*
X114179729Y-64401895D01*
X114179729Y-64401895D01*
G37*
X114179729Y-64401895D02*
X114262743Y-64401967D01*
X114348000Y-64487224D01*
X114348000Y-69700000D01*
X114382406Y-69872973D01*
X114480388Y-70019612D01*
X114830388Y-70369612D01*
X114977027Y-70467594D01*
X114994223Y-70471014D01*
X115024470Y-70518020D01*
X115148000Y-70602425D01*
X115148000Y-70800000D01*
X115182406Y-70972973D01*
X115280388Y-71119612D01*
X115358919Y-71198143D01*
X115223240Y-71524896D01*
X115222762Y-72072701D01*
X115431956Y-72578989D01*
X115818974Y-72966683D01*
X116324896Y-73176760D01*
X116872701Y-73177238D01*
X117378989Y-72968044D01*
X117766683Y-72581026D01*
X117976760Y-72075104D01*
X117976824Y-72002000D01*
X118124238Y-72002000D01*
X118123105Y-72004729D01*
X118122896Y-72244220D01*
X118214352Y-72465560D01*
X118383549Y-72635053D01*
X118604729Y-72726895D01*
X118687743Y-72726967D01*
X119055388Y-73094612D01*
X119202027Y-73192594D01*
X119374075Y-73226816D01*
X119356685Y-73253841D01*
X119348000Y-73300000D01*
X119348000Y-75970586D01*
X119200000Y-75940615D01*
X118600000Y-75940615D01*
X118578670Y-75944629D01*
X118558097Y-75835292D01*
X118475530Y-75706980D01*
X118349547Y-75620899D01*
X118200000Y-75590615D01*
X117700000Y-75590615D01*
X117560292Y-75616903D01*
X117431980Y-75699470D01*
X117345899Y-75825453D01*
X117324033Y-75933431D01*
X114123685Y-72733083D01*
X114123685Y-64378623D01*
X114179729Y-64401895D01*
G36*
X125015615Y-71300000D02*
X125041903Y-71439708D01*
X125124470Y-71568020D01*
X125250453Y-71654101D01*
X125400000Y-71684385D01*
X127100000Y-71684385D01*
X127198000Y-71665945D01*
X127198000Y-73173000D01*
X123382958Y-73173000D01*
X123878989Y-72968044D01*
X124266683Y-72581026D01*
X124476760Y-72075104D01*
X124477238Y-71527299D01*
X124268044Y-71021011D01*
X124149241Y-70902000D01*
X125015615Y-70902000D01*
X125015615Y-71300000D01*
X125015615Y-71300000D01*
G37*
X125015615Y-71300000D02*
X125041903Y-71439708D01*
X125124470Y-71568020D01*
X125250453Y-71654101D01*
X125400000Y-71684385D01*
X127100000Y-71684385D01*
X127198000Y-71665945D01*
X127198000Y-73173000D01*
X123382958Y-73173000D01*
X123878989Y-72968044D01*
X124266683Y-72581026D01*
X124476760Y-72075104D01*
X124477238Y-71527299D01*
X124268044Y-71021011D01*
X124149241Y-70902000D01*
X125015615Y-70902000D01*
X125015615Y-71300000D01*
G36*
X121931956Y-72578989D02*
X122318974Y-72966683D01*
X122815841Y-73173000D01*
X120712126Y-73173000D01*
X120762062Y-73133066D01*
X120819612Y-73094612D01*
X120830472Y-73078358D01*
X120845740Y-73066149D01*
X121383910Y-72427073D01*
X121419220Y-72427104D01*
X121640560Y-72335648D01*
X121775678Y-72200766D01*
X121931956Y-72578989D01*
X121931956Y-72578989D01*
G37*
X121931956Y-72578989D02*
X122318974Y-72966683D01*
X122815841Y-73173000D01*
X120712126Y-73173000D01*
X120762062Y-73133066D01*
X120819612Y-73094612D01*
X120830472Y-73078358D01*
X120845740Y-73066149D01*
X121383910Y-72427073D01*
X121419220Y-72427104D01*
X121640560Y-72335648D01*
X121775678Y-72200766D01*
X121931956Y-72578989D01*
G36*
X125358342Y-50732380D02*
X125092362Y-51130447D01*
X124998962Y-51600000D01*
X125092362Y-52069553D01*
X125358342Y-52467620D01*
X125756409Y-52733600D01*
X126225962Y-52827000D01*
X126274038Y-52827000D01*
X126743591Y-52733600D01*
X127141658Y-52467620D01*
X127407638Y-52069553D01*
X127501038Y-51600000D01*
X127407638Y-51130447D01*
X127141658Y-50732380D01*
X127096191Y-50702000D01*
X127523000Y-50702000D01*
X127523000Y-52448262D01*
X127477027Y-52457406D01*
X127330388Y-52555388D01*
X127232406Y-52702027D01*
X127198000Y-52875000D01*
X127198000Y-53356702D01*
X127141658Y-53272380D01*
X126743591Y-53006400D01*
X126274038Y-52913000D01*
X126225962Y-52913000D01*
X125756409Y-53006400D01*
X125358342Y-53272380D01*
X125092362Y-53670447D01*
X124998962Y-54140000D01*
X125092362Y-54609553D01*
X125358342Y-55007620D01*
X125756409Y-55273600D01*
X126225962Y-55367000D01*
X126274038Y-55367000D01*
X126743591Y-55273600D01*
X127141658Y-55007620D01*
X127198000Y-54923298D01*
X127198000Y-55896702D01*
X127141658Y-55812380D01*
X126743591Y-55546400D01*
X126274038Y-55453000D01*
X126225962Y-55453000D01*
X125756409Y-55546400D01*
X125358342Y-55812380D01*
X125092362Y-56210447D01*
X124998962Y-56680000D01*
X125092362Y-57149553D01*
X125358342Y-57547620D01*
X125756409Y-57813600D01*
X126225962Y-57907000D01*
X126274038Y-57907000D01*
X126743591Y-57813600D01*
X127141658Y-57547620D01*
X127198000Y-57463298D01*
X127198000Y-58436702D01*
X127141658Y-58352380D01*
X126743591Y-58086400D01*
X126274038Y-57993000D01*
X126225962Y-57993000D01*
X125756409Y-58086400D01*
X125358342Y-58352380D01*
X125092362Y-58750447D01*
X124998962Y-59220000D01*
X125088855Y-59671921D01*
X124405388Y-60355388D01*
X124307406Y-60502027D01*
X124273000Y-60675000D01*
X124273000Y-63250597D01*
X124214947Y-63308549D01*
X124123105Y-63529729D01*
X124122896Y-63769220D01*
X124214352Y-63990560D01*
X124383549Y-64160053D01*
X124604729Y-64251895D01*
X124844220Y-64252104D01*
X125065560Y-64160648D01*
X125235053Y-63991451D01*
X125326895Y-63770271D01*
X125327104Y-63530780D01*
X125235648Y-63309440D01*
X125177000Y-63250689D01*
X125177000Y-62356223D01*
X125358342Y-62627620D01*
X125756409Y-62893600D01*
X126225962Y-62987000D01*
X126274038Y-62987000D01*
X126743591Y-62893600D01*
X127141658Y-62627620D01*
X127198000Y-62543298D01*
X127198000Y-67126702D01*
X127141658Y-67042380D01*
X126743591Y-66776400D01*
X126274038Y-66683000D01*
X126225962Y-66683000D01*
X125756409Y-66776400D01*
X125755938Y-66776714D01*
X125177000Y-66197776D01*
X125177000Y-65274403D01*
X125235053Y-65216451D01*
X125326895Y-64995271D01*
X125327104Y-64755780D01*
X125235648Y-64534440D01*
X125066451Y-64364947D01*
X124845271Y-64273105D01*
X124605780Y-64272896D01*
X124384440Y-64364352D01*
X124214947Y-64533549D01*
X124123105Y-64754729D01*
X124122896Y-64994220D01*
X124214352Y-65215560D01*
X124273000Y-65274311D01*
X124273000Y-66385000D01*
X124307406Y-66557973D01*
X124405388Y-66704612D01*
X125111933Y-67411157D01*
X125092362Y-67440447D01*
X124998962Y-67910000D01*
X125092362Y-68379553D01*
X125358342Y-68777620D01*
X125756409Y-69043600D01*
X126225962Y-69137000D01*
X126274038Y-69137000D01*
X126743591Y-69043600D01*
X127141658Y-68777620D01*
X127198000Y-68693298D01*
X127198000Y-69235460D01*
X127100000Y-69215615D01*
X125400000Y-69215615D01*
X125260292Y-69241903D01*
X125131980Y-69324470D01*
X125045899Y-69450453D01*
X125015615Y-69600000D01*
X125015615Y-69998000D01*
X124262225Y-69998000D01*
X123544612Y-69280388D01*
X123530365Y-69270869D01*
X123685053Y-69116451D01*
X123776895Y-68895271D01*
X123777104Y-68655780D01*
X123685648Y-68434440D01*
X123516451Y-68264947D01*
X123295271Y-68173105D01*
X123055780Y-68172896D01*
X122834440Y-68264352D01*
X122775689Y-68323000D01*
X122462225Y-68323000D01*
X122402000Y-68262776D01*
X122402000Y-68100000D01*
X122367594Y-67927027D01*
X122277029Y-67791489D01*
X122277104Y-67705780D01*
X122185648Y-67484440D01*
X122016451Y-67314947D01*
X121795271Y-67223105D01*
X121555780Y-67222896D01*
X121334440Y-67314352D01*
X121164947Y-67483549D01*
X121073105Y-67704729D01*
X121072896Y-67944220D01*
X121164352Y-68165560D01*
X121333549Y-68335053D01*
X121498000Y-68403339D01*
X121498000Y-68450000D01*
X121532406Y-68622973D01*
X121599243Y-68723000D01*
X121437224Y-68723000D01*
X121344612Y-68630388D01*
X121197973Y-68532406D01*
X121025000Y-68498000D01*
X118575000Y-68498000D01*
X118449451Y-68522973D01*
X118402026Y-68532406D01*
X118255387Y-68630388D01*
X117837808Y-69047968D01*
X117755780Y-69047896D01*
X117534440Y-69139352D01*
X117364947Y-69308549D01*
X117273105Y-69529729D01*
X117272896Y-69769220D01*
X117364352Y-69990560D01*
X117533549Y-70160053D01*
X117754729Y-70251895D01*
X117994220Y-70252104D01*
X118215560Y-70160648D01*
X118385053Y-69991451D01*
X118476895Y-69770271D01*
X118476967Y-69687257D01*
X118762225Y-69402000D01*
X120133776Y-69402000D01*
X119680388Y-69855388D01*
X119582406Y-70002027D01*
X119548000Y-70175000D01*
X119548000Y-71458776D01*
X119319612Y-71230388D01*
X119172973Y-71132406D01*
X119000000Y-71098000D01*
X117799855Y-71098000D01*
X117768044Y-71021011D01*
X117381026Y-70633317D01*
X116875104Y-70423240D01*
X116327299Y-70422762D01*
X116203204Y-70474037D01*
X116254101Y-70399547D01*
X116284385Y-70250000D01*
X116284385Y-69850000D01*
X116258097Y-69710292D01*
X116186320Y-69598748D01*
X116254101Y-69499547D01*
X116284385Y-69350000D01*
X116284385Y-68950000D01*
X116258097Y-68810292D01*
X116175530Y-68681980D01*
X116052000Y-68597575D01*
X116052000Y-68500000D01*
X116017594Y-68327027D01*
X115919612Y-68180388D01*
X115677000Y-67937776D01*
X115677000Y-66303230D01*
X115840560Y-66235648D01*
X116010053Y-66066451D01*
X116101895Y-65845271D01*
X116101917Y-65819220D01*
X118997896Y-65819220D01*
X119089352Y-66040560D01*
X119258549Y-66210053D01*
X119479729Y-66301895D01*
X119719220Y-66302104D01*
X119940560Y-66210648D01*
X120110053Y-66041451D01*
X120201895Y-65820271D01*
X120202104Y-65580780D01*
X120110648Y-65359440D01*
X119941451Y-65189947D01*
X119720271Y-65098105D01*
X119480780Y-65097896D01*
X119259440Y-65189352D01*
X119089947Y-65358549D01*
X118998105Y-65579729D01*
X118997896Y-65819220D01*
X116101917Y-65819220D01*
X116102104Y-65605780D01*
X116010648Y-65384440D01*
X115841451Y-65214947D01*
X115620271Y-65123105D01*
X115380780Y-65122896D01*
X115252000Y-65176107D01*
X115252000Y-64300000D01*
X115217594Y-64127027D01*
X115119612Y-63980388D01*
X114902032Y-63762808D01*
X114902104Y-63680780D01*
X114810648Y-63459440D01*
X114641451Y-63289947D01*
X114420271Y-63198105D01*
X114180780Y-63197896D01*
X114123685Y-63221487D01*
X114123685Y-61336820D01*
X114200000Y-61352000D01*
X114800000Y-61352000D01*
X114972973Y-61317594D01*
X115119612Y-61219612D01*
X115319612Y-61019612D01*
X115417594Y-60872973D01*
X115452000Y-60700000D01*
X115452000Y-60549068D01*
X115818974Y-60916683D01*
X116324896Y-61126760D01*
X116872701Y-61127238D01*
X117378989Y-60918044D01*
X117766683Y-60531026D01*
X117903306Y-60202000D01*
X121796847Y-60202000D01*
X121931956Y-60528989D01*
X122318974Y-60916683D01*
X122824896Y-61126760D01*
X123372701Y-61127238D01*
X123878989Y-60918044D01*
X124266683Y-60531026D01*
X124476760Y-60025104D01*
X124477238Y-59477299D01*
X124268044Y-58971011D01*
X123881026Y-58583317D01*
X123375104Y-58373240D01*
X122827299Y-58372762D01*
X122321011Y-58581956D01*
X121933317Y-58968974D01*
X121796694Y-59298000D01*
X120069619Y-59298000D01*
X120101895Y-59220271D01*
X120102104Y-58980780D01*
X120029616Y-58805345D01*
X120032753Y-58804755D01*
X120105000Y-58819385D01*
X120385000Y-58819385D01*
X120524708Y-58793097D01*
X120653020Y-58710530D01*
X120739101Y-58584547D01*
X120760397Y-58479385D01*
X121335000Y-58479385D01*
X121474708Y-58453097D01*
X121603020Y-58370530D01*
X121689101Y-58244547D01*
X121719385Y-58095000D01*
X121719385Y-57815000D01*
X121693097Y-57675292D01*
X121610530Y-57546980D01*
X121484547Y-57460899D01*
X121335000Y-57430615D01*
X120688609Y-57430615D01*
X120660530Y-57386980D01*
X120534547Y-57300899D01*
X120385000Y-57270615D01*
X120105000Y-57270615D01*
X120027247Y-57285245D01*
X119955000Y-57270615D01*
X119675000Y-57270615D01*
X119597247Y-57285245D01*
X119525000Y-57270615D01*
X119245000Y-57270615D01*
X119167247Y-57285245D01*
X119095000Y-57270615D01*
X119022173Y-57270615D01*
X119029385Y-57235000D01*
X119029385Y-56955000D01*
X119014755Y-56877247D01*
X119029385Y-56805000D01*
X119029385Y-56525000D01*
X119014755Y-56447247D01*
X119029385Y-56375000D01*
X119029385Y-56257000D01*
X119575597Y-56257000D01*
X119633549Y-56315053D01*
X119854729Y-56406895D01*
X120094220Y-56407104D01*
X120170709Y-56375499D01*
X120185245Y-56452753D01*
X120170615Y-56525000D01*
X120170615Y-56805000D01*
X120196903Y-56944708D01*
X120279470Y-57073020D01*
X120405453Y-57159101D01*
X120555000Y-57189385D01*
X121335000Y-57189385D01*
X121474708Y-57163097D01*
X121546344Y-57117000D01*
X121559465Y-57117000D01*
X121624470Y-57218020D01*
X121750453Y-57304101D01*
X121900000Y-57334385D01*
X122400000Y-57334385D01*
X122539708Y-57308097D01*
X122668020Y-57225530D01*
X122754101Y-57099547D01*
X122784385Y-56950000D01*
X122784385Y-56350000D01*
X122758097Y-56210292D01*
X122675530Y-56081980D01*
X122549547Y-55995899D01*
X122480419Y-55981900D01*
X122568020Y-55925530D01*
X122654101Y-55799547D01*
X122684385Y-55650000D01*
X122684385Y-55150000D01*
X122658097Y-55010292D01*
X122586320Y-54898748D01*
X122654101Y-54799547D01*
X122684385Y-54650000D01*
X122684385Y-54150000D01*
X122658097Y-54010292D01*
X122575530Y-53881980D01*
X122449547Y-53795899D01*
X122300000Y-53765615D01*
X121700000Y-53765615D01*
X121560292Y-53791903D01*
X121431980Y-53874470D01*
X121364711Y-53972921D01*
X121319169Y-53981980D01*
X121317027Y-53982406D01*
X121307130Y-53989019D01*
X121264612Y-53925388D01*
X120227000Y-52887776D01*
X120227000Y-52537224D01*
X120404839Y-52359385D01*
X121675000Y-52359385D01*
X121814708Y-52333097D01*
X121943020Y-52250530D01*
X122029101Y-52124547D01*
X122059385Y-51975000D01*
X122059385Y-50702000D01*
X125403809Y-50702000D01*
X125358342Y-50732380D01*
X125358342Y-50732380D01*
G37*
X125358342Y-50732380D02*
X125092362Y-51130447D01*
X124998962Y-51600000D01*
X125092362Y-52069553D01*
X125358342Y-52467620D01*
X125756409Y-52733600D01*
X126225962Y-52827000D01*
X126274038Y-52827000D01*
X126743591Y-52733600D01*
X127141658Y-52467620D01*
X127407638Y-52069553D01*
X127501038Y-51600000D01*
X127407638Y-51130447D01*
X127141658Y-50732380D01*
X127096191Y-50702000D01*
X127523000Y-50702000D01*
X127523000Y-52448262D01*
X127477027Y-52457406D01*
X127330388Y-52555388D01*
X127232406Y-52702027D01*
X127198000Y-52875000D01*
X127198000Y-53356702D01*
X127141658Y-53272380D01*
X126743591Y-53006400D01*
X126274038Y-52913000D01*
X126225962Y-52913000D01*
X125756409Y-53006400D01*
X125358342Y-53272380D01*
X125092362Y-53670447D01*
X124998962Y-54140000D01*
X125092362Y-54609553D01*
X125358342Y-55007620D01*
X125756409Y-55273600D01*
X126225962Y-55367000D01*
X126274038Y-55367000D01*
X126743591Y-55273600D01*
X127141658Y-55007620D01*
X127198000Y-54923298D01*
X127198000Y-55896702D01*
X127141658Y-55812380D01*
X126743591Y-55546400D01*
X126274038Y-55453000D01*
X126225962Y-55453000D01*
X125756409Y-55546400D01*
X125358342Y-55812380D01*
X125092362Y-56210447D01*
X124998962Y-56680000D01*
X125092362Y-57149553D01*
X125358342Y-57547620D01*
X125756409Y-57813600D01*
X126225962Y-57907000D01*
X126274038Y-57907000D01*
X126743591Y-57813600D01*
X127141658Y-57547620D01*
X127198000Y-57463298D01*
X127198000Y-58436702D01*
X127141658Y-58352380D01*
X126743591Y-58086400D01*
X126274038Y-57993000D01*
X126225962Y-57993000D01*
X125756409Y-58086400D01*
X125358342Y-58352380D01*
X125092362Y-58750447D01*
X124998962Y-59220000D01*
X125088855Y-59671921D01*
X124405388Y-60355388D01*
X124307406Y-60502027D01*
X124273000Y-60675000D01*
X124273000Y-63250597D01*
X124214947Y-63308549D01*
X124123105Y-63529729D01*
X124122896Y-63769220D01*
X124214352Y-63990560D01*
X124383549Y-64160053D01*
X124604729Y-64251895D01*
X124844220Y-64252104D01*
X125065560Y-64160648D01*
X125235053Y-63991451D01*
X125326895Y-63770271D01*
X125327104Y-63530780D01*
X125235648Y-63309440D01*
X125177000Y-63250689D01*
X125177000Y-62356223D01*
X125358342Y-62627620D01*
X125756409Y-62893600D01*
X126225962Y-62987000D01*
X126274038Y-62987000D01*
X126743591Y-62893600D01*
X127141658Y-62627620D01*
X127198000Y-62543298D01*
X127198000Y-67126702D01*
X127141658Y-67042380D01*
X126743591Y-66776400D01*
X126274038Y-66683000D01*
X126225962Y-66683000D01*
X125756409Y-66776400D01*
X125755938Y-66776714D01*
X125177000Y-66197776D01*
X125177000Y-65274403D01*
X125235053Y-65216451D01*
X125326895Y-64995271D01*
X125327104Y-64755780D01*
X125235648Y-64534440D01*
X125066451Y-64364947D01*
X124845271Y-64273105D01*
X124605780Y-64272896D01*
X124384440Y-64364352D01*
X124214947Y-64533549D01*
X124123105Y-64754729D01*
X124122896Y-64994220D01*
X124214352Y-65215560D01*
X124273000Y-65274311D01*
X124273000Y-66385000D01*
X124307406Y-66557973D01*
X124405388Y-66704612D01*
X125111933Y-67411157D01*
X125092362Y-67440447D01*
X124998962Y-67910000D01*
X125092362Y-68379553D01*
X125358342Y-68777620D01*
X125756409Y-69043600D01*
X126225962Y-69137000D01*
X126274038Y-69137000D01*
X126743591Y-69043600D01*
X127141658Y-68777620D01*
X127198000Y-68693298D01*
X127198000Y-69235460D01*
X127100000Y-69215615D01*
X125400000Y-69215615D01*
X125260292Y-69241903D01*
X125131980Y-69324470D01*
X125045899Y-69450453D01*
X125015615Y-69600000D01*
X125015615Y-69998000D01*
X124262225Y-69998000D01*
X123544612Y-69280388D01*
X123530365Y-69270869D01*
X123685053Y-69116451D01*
X123776895Y-68895271D01*
X123777104Y-68655780D01*
X123685648Y-68434440D01*
X123516451Y-68264947D01*
X123295271Y-68173105D01*
X123055780Y-68172896D01*
X122834440Y-68264352D01*
X122775689Y-68323000D01*
X122462225Y-68323000D01*
X122402000Y-68262776D01*
X122402000Y-68100000D01*
X122367594Y-67927027D01*
X122277029Y-67791489D01*
X122277104Y-67705780D01*
X122185648Y-67484440D01*
X122016451Y-67314947D01*
X121795271Y-67223105D01*
X121555780Y-67222896D01*
X121334440Y-67314352D01*
X121164947Y-67483549D01*
X121073105Y-67704729D01*
X121072896Y-67944220D01*
X121164352Y-68165560D01*
X121333549Y-68335053D01*
X121498000Y-68403339D01*
X121498000Y-68450000D01*
X121532406Y-68622973D01*
X121599243Y-68723000D01*
X121437224Y-68723000D01*
X121344612Y-68630388D01*
X121197973Y-68532406D01*
X121025000Y-68498000D01*
X118575000Y-68498000D01*
X118449451Y-68522973D01*
X118402026Y-68532406D01*
X118255387Y-68630388D01*
X117837808Y-69047968D01*
X117755780Y-69047896D01*
X117534440Y-69139352D01*
X117364947Y-69308549D01*
X117273105Y-69529729D01*
X117272896Y-69769220D01*
X117364352Y-69990560D01*
X117533549Y-70160053D01*
X117754729Y-70251895D01*
X117994220Y-70252104D01*
X118215560Y-70160648D01*
X118385053Y-69991451D01*
X118476895Y-69770271D01*
X118476967Y-69687257D01*
X118762225Y-69402000D01*
X120133776Y-69402000D01*
X119680388Y-69855388D01*
X119582406Y-70002027D01*
X119548000Y-70175000D01*
X119548000Y-71458776D01*
X119319612Y-71230388D01*
X119172973Y-71132406D01*
X119000000Y-71098000D01*
X117799855Y-71098000D01*
X117768044Y-71021011D01*
X117381026Y-70633317D01*
X116875104Y-70423240D01*
X116327299Y-70422762D01*
X116203204Y-70474037D01*
X116254101Y-70399547D01*
X116284385Y-70250000D01*
X116284385Y-69850000D01*
X116258097Y-69710292D01*
X116186320Y-69598748D01*
X116254101Y-69499547D01*
X116284385Y-69350000D01*
X116284385Y-68950000D01*
X116258097Y-68810292D01*
X116175530Y-68681980D01*
X116052000Y-68597575D01*
X116052000Y-68500000D01*
X116017594Y-68327027D01*
X115919612Y-68180388D01*
X115677000Y-67937776D01*
X115677000Y-66303230D01*
X115840560Y-66235648D01*
X116010053Y-66066451D01*
X116101895Y-65845271D01*
X116101917Y-65819220D01*
X118997896Y-65819220D01*
X119089352Y-66040560D01*
X119258549Y-66210053D01*
X119479729Y-66301895D01*
X119719220Y-66302104D01*
X119940560Y-66210648D01*
X120110053Y-66041451D01*
X120201895Y-65820271D01*
X120202104Y-65580780D01*
X120110648Y-65359440D01*
X119941451Y-65189947D01*
X119720271Y-65098105D01*
X119480780Y-65097896D01*
X119259440Y-65189352D01*
X119089947Y-65358549D01*
X118998105Y-65579729D01*
X118997896Y-65819220D01*
X116101917Y-65819220D01*
X116102104Y-65605780D01*
X116010648Y-65384440D01*
X115841451Y-65214947D01*
X115620271Y-65123105D01*
X115380780Y-65122896D01*
X115252000Y-65176107D01*
X115252000Y-64300000D01*
X115217594Y-64127027D01*
X115119612Y-63980388D01*
X114902032Y-63762808D01*
X114902104Y-63680780D01*
X114810648Y-63459440D01*
X114641451Y-63289947D01*
X114420271Y-63198105D01*
X114180780Y-63197896D01*
X114123685Y-63221487D01*
X114123685Y-61336820D01*
X114200000Y-61352000D01*
X114800000Y-61352000D01*
X114972973Y-61317594D01*
X115119612Y-61219612D01*
X115319612Y-61019612D01*
X115417594Y-60872973D01*
X115452000Y-60700000D01*
X115452000Y-60549068D01*
X115818974Y-60916683D01*
X116324896Y-61126760D01*
X116872701Y-61127238D01*
X117378989Y-60918044D01*
X117766683Y-60531026D01*
X117903306Y-60202000D01*
X121796847Y-60202000D01*
X121931956Y-60528989D01*
X122318974Y-60916683D01*
X122824896Y-61126760D01*
X123372701Y-61127238D01*
X123878989Y-60918044D01*
X124266683Y-60531026D01*
X124476760Y-60025104D01*
X124477238Y-59477299D01*
X124268044Y-58971011D01*
X123881026Y-58583317D01*
X123375104Y-58373240D01*
X122827299Y-58372762D01*
X122321011Y-58581956D01*
X121933317Y-58968974D01*
X121796694Y-59298000D01*
X120069619Y-59298000D01*
X120101895Y-59220271D01*
X120102104Y-58980780D01*
X120029616Y-58805345D01*
X120032753Y-58804755D01*
X120105000Y-58819385D01*
X120385000Y-58819385D01*
X120524708Y-58793097D01*
X120653020Y-58710530D01*
X120739101Y-58584547D01*
X120760397Y-58479385D01*
X121335000Y-58479385D01*
X121474708Y-58453097D01*
X121603020Y-58370530D01*
X121689101Y-58244547D01*
X121719385Y-58095000D01*
X121719385Y-57815000D01*
X121693097Y-57675292D01*
X121610530Y-57546980D01*
X121484547Y-57460899D01*
X121335000Y-57430615D01*
X120688609Y-57430615D01*
X120660530Y-57386980D01*
X120534547Y-57300899D01*
X120385000Y-57270615D01*
X120105000Y-57270615D01*
X120027247Y-57285245D01*
X119955000Y-57270615D01*
X119675000Y-57270615D01*
X119597247Y-57285245D01*
X119525000Y-57270615D01*
X119245000Y-57270615D01*
X119167247Y-57285245D01*
X119095000Y-57270615D01*
X119022173Y-57270615D01*
X119029385Y-57235000D01*
X119029385Y-56955000D01*
X119014755Y-56877247D01*
X119029385Y-56805000D01*
X119029385Y-56525000D01*
X119014755Y-56447247D01*
X119029385Y-56375000D01*
X119029385Y-56257000D01*
X119575597Y-56257000D01*
X119633549Y-56315053D01*
X119854729Y-56406895D01*
X120094220Y-56407104D01*
X120170709Y-56375499D01*
X120185245Y-56452753D01*
X120170615Y-56525000D01*
X120170615Y-56805000D01*
X120196903Y-56944708D01*
X120279470Y-57073020D01*
X120405453Y-57159101D01*
X120555000Y-57189385D01*
X121335000Y-57189385D01*
X121474708Y-57163097D01*
X121546344Y-57117000D01*
X121559465Y-57117000D01*
X121624470Y-57218020D01*
X121750453Y-57304101D01*
X121900000Y-57334385D01*
X122400000Y-57334385D01*
X122539708Y-57308097D01*
X122668020Y-57225530D01*
X122754101Y-57099547D01*
X122784385Y-56950000D01*
X122784385Y-56350000D01*
X122758097Y-56210292D01*
X122675530Y-56081980D01*
X122549547Y-55995899D01*
X122480419Y-55981900D01*
X122568020Y-55925530D01*
X122654101Y-55799547D01*
X122684385Y-55650000D01*
X122684385Y-55150000D01*
X122658097Y-55010292D01*
X122586320Y-54898748D01*
X122654101Y-54799547D01*
X122684385Y-54650000D01*
X122684385Y-54150000D01*
X122658097Y-54010292D01*
X122575530Y-53881980D01*
X122449547Y-53795899D01*
X122300000Y-53765615D01*
X121700000Y-53765615D01*
X121560292Y-53791903D01*
X121431980Y-53874470D01*
X121364711Y-53972921D01*
X121319169Y-53981980D01*
X121317027Y-53982406D01*
X121307130Y-53989019D01*
X121264612Y-53925388D01*
X120227000Y-52887776D01*
X120227000Y-52537224D01*
X120404839Y-52359385D01*
X121675000Y-52359385D01*
X121814708Y-52333097D01*
X121943020Y-52250530D01*
X122029101Y-52124547D01*
X122059385Y-51975000D01*
X122059385Y-50702000D01*
X125403809Y-50702000D01*
X125358342Y-50732380D01*
G36*
X109055388Y-59819612D02*
X109148000Y-59912224D01*
X109148000Y-63400000D01*
X109182406Y-63572973D01*
X109280388Y-63719612D01*
X109326391Y-63765615D01*
X108850000Y-63765615D01*
X108710292Y-63791903D01*
X108581980Y-63874470D01*
X108495899Y-64000453D01*
X108491317Y-64023080D01*
X108280780Y-64022896D01*
X108085739Y-64103485D01*
X108569612Y-63619613D01*
X108667594Y-63472973D01*
X108684156Y-63389708D01*
X108702000Y-63300000D01*
X108702000Y-60787224D01*
X108919612Y-60569612D01*
X109017594Y-60422973D01*
X109052000Y-60250000D01*
X109052000Y-59814542D01*
X109055388Y-59819612D01*
X109055388Y-59819612D01*
G37*
X109055388Y-59819612D02*
X109148000Y-59912224D01*
X109148000Y-63400000D01*
X109182406Y-63572973D01*
X109280388Y-63719612D01*
X109326391Y-63765615D01*
X108850000Y-63765615D01*
X108710292Y-63791903D01*
X108581980Y-63874470D01*
X108495899Y-64000453D01*
X108491317Y-64023080D01*
X108280780Y-64022896D01*
X108085739Y-64103485D01*
X108569612Y-63619613D01*
X108667594Y-63472973D01*
X108684156Y-63389708D01*
X108702000Y-63300000D01*
X108702000Y-60787224D01*
X108919612Y-60569612D01*
X109017594Y-60422973D01*
X109052000Y-60250000D01*
X109052000Y-59814542D01*
X109055388Y-59819612D01*
G36*
X107798000Y-62518096D02*
X107557620Y-62158342D01*
X107159553Y-61892362D01*
X107124879Y-61885465D01*
X107218020Y-61825530D01*
X107304101Y-61699547D01*
X107334385Y-61550000D01*
X107334385Y-61102000D01*
X107400000Y-61102000D01*
X107572973Y-61067594D01*
X107719612Y-60969612D01*
X107798000Y-60891224D01*
X107798000Y-62518096D01*
X107798000Y-62518096D01*
G37*
X107798000Y-62518096D02*
X107557620Y-62158342D01*
X107159553Y-61892362D01*
X107124879Y-61885465D01*
X107218020Y-61825530D01*
X107304101Y-61699547D01*
X107334385Y-61550000D01*
X107334385Y-61102000D01*
X107400000Y-61102000D01*
X107572973Y-61067594D01*
X107719612Y-60969612D01*
X107798000Y-60891224D01*
X107798000Y-62518096D01*
G36*
X107798000Y-58918096D02*
X107557620Y-58558342D01*
X107159553Y-58292362D01*
X107124879Y-58285465D01*
X107218020Y-58225530D01*
X107304101Y-58099547D01*
X107334385Y-57950000D01*
X107334385Y-57704839D01*
X107798000Y-57241224D01*
X107798000Y-58918096D01*
X107798000Y-58918096D01*
G37*
X107798000Y-58918096D02*
X107557620Y-58558342D01*
X107159553Y-58292362D01*
X107124879Y-58285465D01*
X107218020Y-58225530D01*
X107304101Y-58099547D01*
X107334385Y-57950000D01*
X107334385Y-57704839D01*
X107798000Y-57241224D01*
X107798000Y-58918096D01*
G36*
X114269419Y-55280217D02*
X114283171Y-55353304D01*
X114265615Y-55440000D01*
X114265615Y-55660000D01*
X114283171Y-55753304D01*
X114265615Y-55840000D01*
X114265615Y-56060000D01*
X114283171Y-56153304D01*
X114265615Y-56240000D01*
X114265615Y-56460000D01*
X114283171Y-56553304D01*
X114265615Y-56640000D01*
X114265615Y-56860000D01*
X114283171Y-56953304D01*
X114265615Y-57040000D01*
X114265615Y-57260000D01*
X114283171Y-57353304D01*
X114265615Y-57440000D01*
X114265615Y-57660000D01*
X114283171Y-57753304D01*
X114265615Y-57840000D01*
X114265615Y-58060000D01*
X114283171Y-58153304D01*
X114265615Y-58240000D01*
X114265615Y-58460000D01*
X114283171Y-58553304D01*
X114269783Y-58619419D01*
X114196696Y-58633171D01*
X114110000Y-58615615D01*
X113890000Y-58615615D01*
X113796696Y-58633171D01*
X113710000Y-58615615D01*
X113490000Y-58615615D01*
X113396696Y-58633171D01*
X113310000Y-58615615D01*
X113090000Y-58615615D01*
X112996696Y-58633171D01*
X112910000Y-58615615D01*
X112690000Y-58615615D01*
X112596696Y-58633171D01*
X112510000Y-58615615D01*
X112290000Y-58615615D01*
X112196696Y-58633171D01*
X112110000Y-58615615D01*
X111890000Y-58615615D01*
X111796696Y-58633171D01*
X111710000Y-58615615D01*
X111490000Y-58615615D01*
X111396696Y-58633171D01*
X111310000Y-58615615D01*
X111090000Y-58615615D01*
X110950292Y-58641903D01*
X110934385Y-58652139D01*
X110934385Y-58640000D01*
X110916829Y-58546696D01*
X110934385Y-58460000D01*
X110934385Y-58240000D01*
X110916829Y-58146696D01*
X110934385Y-58060000D01*
X110934385Y-57840000D01*
X110916829Y-57746696D01*
X110934385Y-57660000D01*
X110934385Y-57440000D01*
X110916829Y-57346696D01*
X110934385Y-57260000D01*
X110934385Y-57040000D01*
X110916829Y-56946696D01*
X110934385Y-56860000D01*
X110934385Y-56640000D01*
X110916829Y-56546696D01*
X110934385Y-56460000D01*
X110934385Y-56240000D01*
X110916829Y-56146696D01*
X110934385Y-56060000D01*
X110934385Y-55840000D01*
X110916829Y-55746696D01*
X110934385Y-55660000D01*
X110934385Y-55440000D01*
X110916829Y-55346696D01*
X110930217Y-55280581D01*
X111003304Y-55266829D01*
X111090000Y-55284385D01*
X111310000Y-55284385D01*
X111403304Y-55266829D01*
X111490000Y-55284385D01*
X111710000Y-55284385D01*
X111803304Y-55266829D01*
X111890000Y-55284385D01*
X112110000Y-55284385D01*
X112203304Y-55266829D01*
X112290000Y-55284385D01*
X112510000Y-55284385D01*
X112603304Y-55266829D01*
X112690000Y-55284385D01*
X112910000Y-55284385D01*
X113003304Y-55266829D01*
X113090000Y-55284385D01*
X113310000Y-55284385D01*
X113403304Y-55266829D01*
X113490000Y-55284385D01*
X113710000Y-55284385D01*
X113803304Y-55266829D01*
X113890000Y-55284385D01*
X114110000Y-55284385D01*
X114203304Y-55266829D01*
X114269419Y-55280217D01*
X114269419Y-55280217D01*
G37*
X114269419Y-55280217D02*
X114283171Y-55353304D01*
X114265615Y-55440000D01*
X114265615Y-55660000D01*
X114283171Y-55753304D01*
X114265615Y-55840000D01*
X114265615Y-56060000D01*
X114283171Y-56153304D01*
X114265615Y-56240000D01*
X114265615Y-56460000D01*
X114283171Y-56553304D01*
X114265615Y-56640000D01*
X114265615Y-56860000D01*
X114283171Y-56953304D01*
X114265615Y-57040000D01*
X114265615Y-57260000D01*
X114283171Y-57353304D01*
X114265615Y-57440000D01*
X114265615Y-57660000D01*
X114283171Y-57753304D01*
X114265615Y-57840000D01*
X114265615Y-58060000D01*
X114283171Y-58153304D01*
X114265615Y-58240000D01*
X114265615Y-58460000D01*
X114283171Y-58553304D01*
X114269783Y-58619419D01*
X114196696Y-58633171D01*
X114110000Y-58615615D01*
X113890000Y-58615615D01*
X113796696Y-58633171D01*
X113710000Y-58615615D01*
X113490000Y-58615615D01*
X113396696Y-58633171D01*
X113310000Y-58615615D01*
X113090000Y-58615615D01*
X112996696Y-58633171D01*
X112910000Y-58615615D01*
X112690000Y-58615615D01*
X112596696Y-58633171D01*
X112510000Y-58615615D01*
X112290000Y-58615615D01*
X112196696Y-58633171D01*
X112110000Y-58615615D01*
X111890000Y-58615615D01*
X111796696Y-58633171D01*
X111710000Y-58615615D01*
X111490000Y-58615615D01*
X111396696Y-58633171D01*
X111310000Y-58615615D01*
X111090000Y-58615615D01*
X110950292Y-58641903D01*
X110934385Y-58652139D01*
X110934385Y-58640000D01*
X110916829Y-58546696D01*
X110934385Y-58460000D01*
X110934385Y-58240000D01*
X110916829Y-58146696D01*
X110934385Y-58060000D01*
X110934385Y-57840000D01*
X110916829Y-57746696D01*
X110934385Y-57660000D01*
X110934385Y-57440000D01*
X110916829Y-57346696D01*
X110934385Y-57260000D01*
X110934385Y-57040000D01*
X110916829Y-56946696D01*
X110934385Y-56860000D01*
X110934385Y-56640000D01*
X110916829Y-56546696D01*
X110934385Y-56460000D01*
X110934385Y-56240000D01*
X110916829Y-56146696D01*
X110934385Y-56060000D01*
X110934385Y-55840000D01*
X110916829Y-55746696D01*
X110934385Y-55660000D01*
X110934385Y-55440000D01*
X110916829Y-55346696D01*
X110930217Y-55280581D01*
X111003304Y-55266829D01*
X111090000Y-55284385D01*
X111310000Y-55284385D01*
X111403304Y-55266829D01*
X111490000Y-55284385D01*
X111710000Y-55284385D01*
X111803304Y-55266829D01*
X111890000Y-55284385D01*
X112110000Y-55284385D01*
X112203304Y-55266829D01*
X112290000Y-55284385D01*
X112510000Y-55284385D01*
X112603304Y-55266829D01*
X112690000Y-55284385D01*
X112910000Y-55284385D01*
X113003304Y-55266829D01*
X113090000Y-55284385D01*
X113310000Y-55284385D01*
X113403304Y-55266829D01*
X113490000Y-55284385D01*
X113710000Y-55284385D01*
X113803304Y-55266829D01*
X113890000Y-55284385D01*
X114110000Y-55284385D01*
X114203304Y-55266829D01*
X114269419Y-55280217D01*
G36*
X116028079Y-51723193D02*
X116256124Y-52064486D01*
X116597417Y-52292531D01*
X116916845Y-52356069D01*
X118888428Y-54327653D01*
X118860615Y-54465000D01*
X118860615Y-54926042D01*
X118794547Y-54880899D01*
X118645000Y-54850615D01*
X117934260Y-54850615D01*
X117934385Y-54850000D01*
X117934385Y-54250000D01*
X117908097Y-54110292D01*
X117825530Y-53981980D01*
X117699547Y-53895899D01*
X117550000Y-53865615D01*
X117050000Y-53865615D01*
X116910292Y-53891903D01*
X116901747Y-53897402D01*
X116899547Y-53895899D01*
X116750000Y-53865615D01*
X116250000Y-53865615D01*
X116110292Y-53891903D01*
X115981980Y-53974470D01*
X115930390Y-54049973D01*
X115745271Y-53973105D01*
X115660591Y-53973031D01*
X115690560Y-53960648D01*
X115860053Y-53791451D01*
X115951895Y-53570271D01*
X115952104Y-53330780D01*
X115860648Y-53109440D01*
X115691451Y-52939947D01*
X115470271Y-52848105D01*
X115230780Y-52847896D01*
X115009440Y-52939352D01*
X114875558Y-53073000D01*
X114457570Y-53073000D01*
X114410648Y-52959440D01*
X114270339Y-52818885D01*
X114763631Y-52325593D01*
X115000000Y-52372610D01*
X115402583Y-52292531D01*
X115743876Y-52064486D01*
X115971921Y-51723193D01*
X116000000Y-51582031D01*
X116028079Y-51723193D01*
X116028079Y-51723193D01*
G37*
X116028079Y-51723193D02*
X116256124Y-52064486D01*
X116597417Y-52292531D01*
X116916845Y-52356069D01*
X118888428Y-54327653D01*
X118860615Y-54465000D01*
X118860615Y-54926042D01*
X118794547Y-54880899D01*
X118645000Y-54850615D01*
X117934260Y-54850615D01*
X117934385Y-54850000D01*
X117934385Y-54250000D01*
X117908097Y-54110292D01*
X117825530Y-53981980D01*
X117699547Y-53895899D01*
X117550000Y-53865615D01*
X117050000Y-53865615D01*
X116910292Y-53891903D01*
X116901747Y-53897402D01*
X116899547Y-53895899D01*
X116750000Y-53865615D01*
X116250000Y-53865615D01*
X116110292Y-53891903D01*
X115981980Y-53974470D01*
X115930390Y-54049973D01*
X115745271Y-53973105D01*
X115660591Y-53973031D01*
X115690560Y-53960648D01*
X115860053Y-53791451D01*
X115951895Y-53570271D01*
X115952104Y-53330780D01*
X115860648Y-53109440D01*
X115691451Y-52939947D01*
X115470271Y-52848105D01*
X115230780Y-52847896D01*
X115009440Y-52939352D01*
X114875558Y-53073000D01*
X114457570Y-53073000D01*
X114410648Y-52959440D01*
X114270339Y-52818885D01*
X114763631Y-52325593D01*
X115000000Y-52372610D01*
X115402583Y-52292531D01*
X115743876Y-52064486D01*
X115971921Y-51723193D01*
X116000000Y-51582031D01*
X116028079Y-51723193D01*
G36*
X107982469Y-52922417D02*
X107902390Y-53325000D01*
X107982469Y-53727583D01*
X108210514Y-54068876D01*
X108551807Y-54296921D01*
X108954390Y-54377000D01*
X108995610Y-54377000D01*
X109398193Y-54296921D01*
X109739486Y-54068876D01*
X109967531Y-53727583D01*
X110047610Y-53325000D01*
X109993307Y-53052000D01*
X110095586Y-53052000D01*
X110065615Y-53200000D01*
X110065615Y-53800000D01*
X110091903Y-53939708D01*
X110174470Y-54068020D01*
X110300453Y-54154101D01*
X110305615Y-54155146D01*
X110305615Y-54655615D01*
X109740000Y-54655615D01*
X109600292Y-54681903D01*
X109575277Y-54698000D01*
X108037224Y-54698000D01*
X107334385Y-53995161D01*
X107334385Y-53750000D01*
X107308097Y-53610292D01*
X107225530Y-53481980D01*
X107126384Y-53414236D01*
X107159553Y-53407638D01*
X107557620Y-53141658D01*
X107801277Y-52777000D01*
X108079634Y-52777000D01*
X107982469Y-52922417D01*
X107982469Y-52922417D01*
G37*
X107982469Y-52922417D02*
X107902390Y-53325000D01*
X107982469Y-53727583D01*
X108210514Y-54068876D01*
X108551807Y-54296921D01*
X108954390Y-54377000D01*
X108995610Y-54377000D01*
X109398193Y-54296921D01*
X109739486Y-54068876D01*
X109967531Y-53727583D01*
X110047610Y-53325000D01*
X109993307Y-53052000D01*
X110095586Y-53052000D01*
X110065615Y-53200000D01*
X110065615Y-53800000D01*
X110091903Y-53939708D01*
X110174470Y-54068020D01*
X110300453Y-54154101D01*
X110305615Y-54155146D01*
X110305615Y-54655615D01*
X109740000Y-54655615D01*
X109600292Y-54681903D01*
X109575277Y-54698000D01*
X108037224Y-54698000D01*
X107334385Y-53995161D01*
X107334385Y-53750000D01*
X107308097Y-53610292D01*
X107225530Y-53481980D01*
X107126384Y-53414236D01*
X107159553Y-53407638D01*
X107557620Y-53141658D01*
X107801277Y-52777000D01*
X108079634Y-52777000D01*
X107982469Y-52922417D01*
G36*
X112256124Y-50535514D02*
X112028079Y-50876807D01*
X111948000Y-51279390D01*
X111948000Y-51320610D01*
X112028079Y-51723193D01*
X112256124Y-52064486D01*
X112548000Y-52259512D01*
X112548000Y-52259569D01*
X112504222Y-52364998D01*
X112419612Y-52280388D01*
X112272973Y-52182406D01*
X112100215Y-52148043D01*
X112025530Y-52031980D01*
X111899547Y-51945899D01*
X111750000Y-51915615D01*
X111350000Y-51915615D01*
X111210292Y-51941903D01*
X111098748Y-52013680D01*
X110999547Y-51945899D01*
X110850000Y-51915615D01*
X110450000Y-51915615D01*
X110310292Y-51941903D01*
X110181980Y-52024470D01*
X110103521Y-52139297D01*
X110022570Y-52058346D01*
X110034385Y-52000000D01*
X110034385Y-50695160D01*
X110172973Y-50667594D01*
X110319612Y-50569612D01*
X110417594Y-50422973D01*
X110426738Y-50377000D01*
X112493357Y-50377000D01*
X112256124Y-50535514D01*
X112256124Y-50535514D01*
G37*
X112256124Y-50535514D02*
X112028079Y-50876807D01*
X111948000Y-51279390D01*
X111948000Y-51320610D01*
X112028079Y-51723193D01*
X112256124Y-52064486D01*
X112548000Y-52259512D01*
X112548000Y-52259569D01*
X112504222Y-52364998D01*
X112419612Y-52280388D01*
X112272973Y-52182406D01*
X112100215Y-52148043D01*
X112025530Y-52031980D01*
X111899547Y-51945899D01*
X111750000Y-51915615D01*
X111350000Y-51915615D01*
X111210292Y-51941903D01*
X111098748Y-52013680D01*
X110999547Y-51945899D01*
X110850000Y-51915615D01*
X110450000Y-51915615D01*
X110310292Y-51941903D01*
X110181980Y-52024470D01*
X110103521Y-52139297D01*
X110022570Y-52058346D01*
X110034385Y-52000000D01*
X110034385Y-50695160D01*
X110172973Y-50667594D01*
X110319612Y-50569612D01*
X110417594Y-50422973D01*
X110426738Y-50377000D01*
X112493357Y-50377000D01*
X112256124Y-50535514D01*
G36*
X142322380Y-38408342D02*
X142056400Y-38806409D01*
X141963000Y-39275962D01*
X141963000Y-39324038D01*
X142056400Y-39793591D01*
X142322380Y-40191658D01*
X142720447Y-40457638D01*
X143190000Y-40551038D01*
X143659553Y-40457638D01*
X144057620Y-40191658D01*
X144323600Y-39793591D01*
X144417000Y-39324038D01*
X144417000Y-39275962D01*
X144323600Y-38806409D01*
X144057620Y-38408342D01*
X143973298Y-38352000D01*
X146026702Y-38352000D01*
X145942380Y-38408342D01*
X145676400Y-38806409D01*
X145583000Y-39275962D01*
X145583000Y-39324038D01*
X145676400Y-39793591D01*
X145942380Y-40191658D01*
X146340447Y-40457638D01*
X146358000Y-40461130D01*
X146358000Y-40981932D01*
X146287247Y-40995245D01*
X146215000Y-40980615D01*
X145935000Y-40980615D01*
X145857247Y-40995245D01*
X145785000Y-40980615D01*
X145505000Y-40980615D01*
X145427247Y-40995245D01*
X145355000Y-40980615D01*
X145075000Y-40980615D01*
X144997247Y-40995245D01*
X144925000Y-40980615D01*
X144645000Y-40980615D01*
X144567247Y-40995245D01*
X144495000Y-40980615D01*
X144215000Y-40980615D01*
X144137247Y-40995245D01*
X144065000Y-40980615D01*
X143785000Y-40980615D01*
X143707247Y-40995245D01*
X143635000Y-40980615D01*
X143355000Y-40980615D01*
X143215292Y-41006903D01*
X143086980Y-41089470D01*
X143000899Y-41215453D01*
X142970615Y-41365000D01*
X142970615Y-41938967D01*
X142875292Y-41956903D01*
X142746980Y-42039470D01*
X142660899Y-42165453D01*
X142630615Y-42315000D01*
X142630615Y-42595000D01*
X142645245Y-42672753D01*
X142630615Y-42745000D01*
X142630615Y-43025000D01*
X142645245Y-43102753D01*
X142630615Y-43175000D01*
X142630615Y-43455000D01*
X142645245Y-43532753D01*
X142630615Y-43605000D01*
X142630615Y-43885000D01*
X142656903Y-44024708D01*
X142739470Y-44153020D01*
X142865453Y-44239101D01*
X142970615Y-44260397D01*
X142970615Y-44547931D01*
X142930780Y-44547896D01*
X142709440Y-44639352D01*
X142539947Y-44808549D01*
X142448105Y-45029729D01*
X142447896Y-45269220D01*
X142539352Y-45490560D01*
X142708549Y-45660053D01*
X142929729Y-45751895D01*
X143169220Y-45752104D01*
X143270876Y-45710100D01*
X143347968Y-45787192D01*
X143347896Y-45869220D01*
X143439352Y-46090560D01*
X143512723Y-46164060D01*
X143256124Y-46335514D01*
X143028079Y-46676807D01*
X143000000Y-46817969D01*
X142971921Y-46676807D01*
X142743876Y-46335514D01*
X142402583Y-46107469D01*
X142000000Y-46027390D01*
X141597417Y-46107469D01*
X141256124Y-46335514D01*
X141028079Y-46676807D01*
X140948000Y-47079390D01*
X140948000Y-47120610D01*
X141028079Y-47523193D01*
X141256124Y-47864486D01*
X141418527Y-47973000D01*
X139452000Y-47973000D01*
X139452000Y-40305399D01*
X139524470Y-40418020D01*
X139650453Y-40504101D01*
X139800000Y-40534385D01*
X140198000Y-40534385D01*
X140198000Y-40599813D01*
X140081980Y-40674470D01*
X139995899Y-40800453D01*
X139965615Y-40950000D01*
X139965615Y-41550000D01*
X139991903Y-41689708D01*
X140074470Y-41818020D01*
X140186909Y-41894847D01*
X140165615Y-42000000D01*
X140165615Y-42500000D01*
X140191903Y-42639708D01*
X140247111Y-42725503D01*
X140195899Y-42800453D01*
X140165615Y-42950000D01*
X140165615Y-43450000D01*
X140191903Y-43589708D01*
X140247111Y-43675503D01*
X140195899Y-43750453D01*
X140165615Y-43900000D01*
X140165615Y-44400000D01*
X140191903Y-44539708D01*
X140274470Y-44668020D01*
X140400453Y-44754101D01*
X140550000Y-44784385D01*
X141150000Y-44784385D01*
X141289708Y-44758097D01*
X141418020Y-44675530D01*
X141504101Y-44549547D01*
X141534385Y-44400000D01*
X141534385Y-43900000D01*
X141515931Y-43801927D01*
X141719220Y-43802104D01*
X141940560Y-43710648D01*
X142110053Y-43541451D01*
X142201895Y-43320271D01*
X142202104Y-43080780D01*
X142110648Y-42859440D01*
X141941451Y-42689947D01*
X141720271Y-42598105D01*
X141514555Y-42597925D01*
X141534385Y-42500000D01*
X141534385Y-42000000D01*
X141508097Y-41860292D01*
X141482048Y-41819811D01*
X141679729Y-41901895D01*
X141919220Y-41902104D01*
X142140560Y-41810648D01*
X142310053Y-41641451D01*
X142401895Y-41420271D01*
X142402104Y-41180780D01*
X142310648Y-40959440D01*
X142141451Y-40789947D01*
X141920271Y-40698105D01*
X141680780Y-40697896D01*
X141459440Y-40789352D01*
X141450777Y-40798000D01*
X141102000Y-40798000D01*
X141102000Y-40534385D01*
X141500000Y-40534385D01*
X141639708Y-40508097D01*
X141768020Y-40425530D01*
X141854101Y-40299547D01*
X141884385Y-40150000D01*
X141884385Y-38450000D01*
X141865945Y-38352000D01*
X142406702Y-38352000D01*
X142322380Y-38408342D01*
X142322380Y-38408342D01*
G37*
X142322380Y-38408342D02*
X142056400Y-38806409D01*
X141963000Y-39275962D01*
X141963000Y-39324038D01*
X142056400Y-39793591D01*
X142322380Y-40191658D01*
X142720447Y-40457638D01*
X143190000Y-40551038D01*
X143659553Y-40457638D01*
X144057620Y-40191658D01*
X144323600Y-39793591D01*
X144417000Y-39324038D01*
X144417000Y-39275962D01*
X144323600Y-38806409D01*
X144057620Y-38408342D01*
X143973298Y-38352000D01*
X146026702Y-38352000D01*
X145942380Y-38408342D01*
X145676400Y-38806409D01*
X145583000Y-39275962D01*
X145583000Y-39324038D01*
X145676400Y-39793591D01*
X145942380Y-40191658D01*
X146340447Y-40457638D01*
X146358000Y-40461130D01*
X146358000Y-40981932D01*
X146287247Y-40995245D01*
X146215000Y-40980615D01*
X145935000Y-40980615D01*
X145857247Y-40995245D01*
X145785000Y-40980615D01*
X145505000Y-40980615D01*
X145427247Y-40995245D01*
X145355000Y-40980615D01*
X145075000Y-40980615D01*
X144997247Y-40995245D01*
X144925000Y-40980615D01*
X144645000Y-40980615D01*
X144567247Y-40995245D01*
X144495000Y-40980615D01*
X144215000Y-40980615D01*
X144137247Y-40995245D01*
X144065000Y-40980615D01*
X143785000Y-40980615D01*
X143707247Y-40995245D01*
X143635000Y-40980615D01*
X143355000Y-40980615D01*
X143215292Y-41006903D01*
X143086980Y-41089470D01*
X143000899Y-41215453D01*
X142970615Y-41365000D01*
X142970615Y-41938967D01*
X142875292Y-41956903D01*
X142746980Y-42039470D01*
X142660899Y-42165453D01*
X142630615Y-42315000D01*
X142630615Y-42595000D01*
X142645245Y-42672753D01*
X142630615Y-42745000D01*
X142630615Y-43025000D01*
X142645245Y-43102753D01*
X142630615Y-43175000D01*
X142630615Y-43455000D01*
X142645245Y-43532753D01*
X142630615Y-43605000D01*
X142630615Y-43885000D01*
X142656903Y-44024708D01*
X142739470Y-44153020D01*
X142865453Y-44239101D01*
X142970615Y-44260397D01*
X142970615Y-44547931D01*
X142930780Y-44547896D01*
X142709440Y-44639352D01*
X142539947Y-44808549D01*
X142448105Y-45029729D01*
X142447896Y-45269220D01*
X142539352Y-45490560D01*
X142708549Y-45660053D01*
X142929729Y-45751895D01*
X143169220Y-45752104D01*
X143270876Y-45710100D01*
X143347968Y-45787192D01*
X143347896Y-45869220D01*
X143439352Y-46090560D01*
X143512723Y-46164060D01*
X143256124Y-46335514D01*
X143028079Y-46676807D01*
X143000000Y-46817969D01*
X142971921Y-46676807D01*
X142743876Y-46335514D01*
X142402583Y-46107469D01*
X142000000Y-46027390D01*
X141597417Y-46107469D01*
X141256124Y-46335514D01*
X141028079Y-46676807D01*
X140948000Y-47079390D01*
X140948000Y-47120610D01*
X141028079Y-47523193D01*
X141256124Y-47864486D01*
X141418527Y-47973000D01*
X139452000Y-47973000D01*
X139452000Y-40305399D01*
X139524470Y-40418020D01*
X139650453Y-40504101D01*
X139800000Y-40534385D01*
X140198000Y-40534385D01*
X140198000Y-40599813D01*
X140081980Y-40674470D01*
X139995899Y-40800453D01*
X139965615Y-40950000D01*
X139965615Y-41550000D01*
X139991903Y-41689708D01*
X140074470Y-41818020D01*
X140186909Y-41894847D01*
X140165615Y-42000000D01*
X140165615Y-42500000D01*
X140191903Y-42639708D01*
X140247111Y-42725503D01*
X140195899Y-42800453D01*
X140165615Y-42950000D01*
X140165615Y-43450000D01*
X140191903Y-43589708D01*
X140247111Y-43675503D01*
X140195899Y-43750453D01*
X140165615Y-43900000D01*
X140165615Y-44400000D01*
X140191903Y-44539708D01*
X140274470Y-44668020D01*
X140400453Y-44754101D01*
X140550000Y-44784385D01*
X141150000Y-44784385D01*
X141289708Y-44758097D01*
X141418020Y-44675530D01*
X141504101Y-44549547D01*
X141534385Y-44400000D01*
X141534385Y-43900000D01*
X141515931Y-43801927D01*
X141719220Y-43802104D01*
X141940560Y-43710648D01*
X142110053Y-43541451D01*
X142201895Y-43320271D01*
X142202104Y-43080780D01*
X142110648Y-42859440D01*
X141941451Y-42689947D01*
X141720271Y-42598105D01*
X141514555Y-42597925D01*
X141534385Y-42500000D01*
X141534385Y-42000000D01*
X141508097Y-41860292D01*
X141482048Y-41819811D01*
X141679729Y-41901895D01*
X141919220Y-41902104D01*
X142140560Y-41810648D01*
X142310053Y-41641451D01*
X142401895Y-41420271D01*
X142402104Y-41180780D01*
X142310648Y-40959440D01*
X142141451Y-40789947D01*
X141920271Y-40698105D01*
X141680780Y-40697896D01*
X141459440Y-40789352D01*
X141450777Y-40798000D01*
X141102000Y-40798000D01*
X141102000Y-40534385D01*
X141500000Y-40534385D01*
X141639708Y-40508097D01*
X141768020Y-40425530D01*
X141854101Y-40299547D01*
X141884385Y-40150000D01*
X141884385Y-38450000D01*
X141865945Y-38352000D01*
X142406702Y-38352000D01*
X142322380Y-38408342D01*
G36*
X145075000Y-42529385D02*
X145081391Y-42529385D01*
X144895388Y-42715388D01*
X144797406Y-42862027D01*
X144763000Y-43035000D01*
X144763000Y-43670615D01*
X144645000Y-43670615D01*
X144505292Y-43696903D01*
X144376980Y-43779470D01*
X144290899Y-43905453D01*
X144260615Y-44055000D01*
X144260615Y-44835000D01*
X144286903Y-44974708D01*
X144369470Y-45103020D01*
X144421059Y-45138269D01*
X144465388Y-45204612D01*
X145330388Y-46069612D01*
X145477027Y-46167594D01*
X145500458Y-46172255D01*
X145256124Y-46335514D01*
X145028079Y-46676807D01*
X145000000Y-46817969D01*
X144971921Y-46676807D01*
X144743876Y-46335514D01*
X144427397Y-46124050D01*
X144460053Y-46091451D01*
X144551895Y-45870271D01*
X144552104Y-45630780D01*
X144460648Y-45409440D01*
X144291451Y-45239947D01*
X144070271Y-45148105D01*
X143987257Y-45148033D01*
X143921990Y-45082766D01*
X143989101Y-44984547D01*
X144019385Y-44835000D01*
X144019385Y-44188609D01*
X144063020Y-44160530D01*
X144149101Y-44034547D01*
X144179385Y-43885000D01*
X144179385Y-43605000D01*
X144164755Y-43527247D01*
X144179385Y-43455000D01*
X144179385Y-43175000D01*
X144164755Y-43097247D01*
X144179385Y-43025000D01*
X144179385Y-42745000D01*
X144164755Y-42667247D01*
X144179385Y-42595000D01*
X144179385Y-42522173D01*
X144215000Y-42529385D01*
X144495000Y-42529385D01*
X144572753Y-42514755D01*
X144645000Y-42529385D01*
X144925000Y-42529385D01*
X145002753Y-42514755D01*
X145075000Y-42529385D01*
X145075000Y-42529385D01*
G37*
X145075000Y-42529385D02*
X145081391Y-42529385D01*
X144895388Y-42715388D01*
X144797406Y-42862027D01*
X144763000Y-43035000D01*
X144763000Y-43670615D01*
X144645000Y-43670615D01*
X144505292Y-43696903D01*
X144376980Y-43779470D01*
X144290899Y-43905453D01*
X144260615Y-44055000D01*
X144260615Y-44835000D01*
X144286903Y-44974708D01*
X144369470Y-45103020D01*
X144421059Y-45138269D01*
X144465388Y-45204612D01*
X145330388Y-46069612D01*
X145477027Y-46167594D01*
X145500458Y-46172255D01*
X145256124Y-46335514D01*
X145028079Y-46676807D01*
X145000000Y-46817969D01*
X144971921Y-46676807D01*
X144743876Y-46335514D01*
X144427397Y-46124050D01*
X144460053Y-46091451D01*
X144551895Y-45870271D01*
X144552104Y-45630780D01*
X144460648Y-45409440D01*
X144291451Y-45239947D01*
X144070271Y-45148105D01*
X143987257Y-45148033D01*
X143921990Y-45082766D01*
X143989101Y-44984547D01*
X144019385Y-44835000D01*
X144019385Y-44188609D01*
X144063020Y-44160530D01*
X144149101Y-44034547D01*
X144179385Y-43885000D01*
X144179385Y-43605000D01*
X144164755Y-43527247D01*
X144179385Y-43455000D01*
X144179385Y-43175000D01*
X144164755Y-43097247D01*
X144179385Y-43025000D01*
X144179385Y-42745000D01*
X144164755Y-42667247D01*
X144179385Y-42595000D01*
X144179385Y-42522173D01*
X144215000Y-42529385D01*
X144495000Y-42529385D01*
X144572753Y-42514755D01*
X144645000Y-42529385D01*
X144925000Y-42529385D01*
X145002753Y-42514755D01*
X145075000Y-42529385D01*
G36*
X150548000Y-46040615D02*
X149325000Y-46040615D01*
X149185292Y-46066903D01*
X149056980Y-46149470D01*
X148970899Y-46275453D01*
X148940615Y-46425000D01*
X148940615Y-46629954D01*
X148743876Y-46335514D01*
X148544058Y-46202000D01*
X148850000Y-46202000D01*
X149022973Y-46167594D01*
X149169612Y-46069612D01*
X149969612Y-45269612D01*
X150067594Y-45122973D01*
X150102000Y-44950000D01*
X150102000Y-44518013D01*
X150168020Y-44475530D01*
X150254101Y-44349547D01*
X150284385Y-44200000D01*
X150284385Y-43600000D01*
X150258097Y-43460292D01*
X150175530Y-43331980D01*
X150049547Y-43245899D01*
X149900000Y-43215615D01*
X149400000Y-43215615D01*
X149260292Y-43241903D01*
X149225997Y-43263971D01*
X149199547Y-43245899D01*
X149050000Y-43215615D01*
X148550000Y-43215615D01*
X148410292Y-43241903D01*
X148308677Y-43307291D01*
X148241451Y-43239947D01*
X148020271Y-43148105D01*
X147873867Y-43147977D01*
X147926895Y-43020271D01*
X147927104Y-42780780D01*
X147835648Y-42559440D01*
X147666451Y-42389947D01*
X147445271Y-42298105D01*
X147366193Y-42298036D01*
X147343097Y-42175292D01*
X147260530Y-42046980D01*
X147134547Y-41960899D01*
X147075319Y-41948905D01*
X147129612Y-41894612D01*
X147227594Y-41747973D01*
X147247349Y-41648658D01*
X147358549Y-41760053D01*
X147579729Y-41851895D01*
X147819220Y-41852104D01*
X148040560Y-41760648D01*
X148099311Y-41702000D01*
X148849813Y-41702000D01*
X148924470Y-41818020D01*
X149050453Y-41904101D01*
X149200000Y-41934385D01*
X149600000Y-41934385D01*
X149739708Y-41908097D01*
X149868020Y-41825530D01*
X149954101Y-41699547D01*
X149984385Y-41550000D01*
X149984385Y-40950000D01*
X149958097Y-40810292D01*
X149875530Y-40681980D01*
X149802000Y-40631739D01*
X149802000Y-40534385D01*
X150200000Y-40534385D01*
X150339708Y-40508097D01*
X150468020Y-40425530D01*
X150548000Y-40308476D01*
X150548000Y-46040615D01*
X150548000Y-46040615D01*
G37*
X150548000Y-46040615D02*
X149325000Y-46040615D01*
X149185292Y-46066903D01*
X149056980Y-46149470D01*
X148970899Y-46275453D01*
X148940615Y-46425000D01*
X148940615Y-46629954D01*
X148743876Y-46335514D01*
X148544058Y-46202000D01*
X148850000Y-46202000D01*
X149022973Y-46167594D01*
X149169612Y-46069612D01*
X149969612Y-45269612D01*
X150067594Y-45122973D01*
X150102000Y-44950000D01*
X150102000Y-44518013D01*
X150168020Y-44475530D01*
X150254101Y-44349547D01*
X150284385Y-44200000D01*
X150284385Y-43600000D01*
X150258097Y-43460292D01*
X150175530Y-43331980D01*
X150049547Y-43245899D01*
X149900000Y-43215615D01*
X149400000Y-43215615D01*
X149260292Y-43241903D01*
X149225997Y-43263971D01*
X149199547Y-43245899D01*
X149050000Y-43215615D01*
X148550000Y-43215615D01*
X148410292Y-43241903D01*
X148308677Y-43307291D01*
X148241451Y-43239947D01*
X148020271Y-43148105D01*
X147873867Y-43147977D01*
X147926895Y-43020271D01*
X147927104Y-42780780D01*
X147835648Y-42559440D01*
X147666451Y-42389947D01*
X147445271Y-42298105D01*
X147366193Y-42298036D01*
X147343097Y-42175292D01*
X147260530Y-42046980D01*
X147134547Y-41960899D01*
X147075319Y-41948905D01*
X147129612Y-41894612D01*
X147227594Y-41747973D01*
X147247349Y-41648658D01*
X147358549Y-41760053D01*
X147579729Y-41851895D01*
X147819220Y-41852104D01*
X148040560Y-41760648D01*
X148099311Y-41702000D01*
X148849813Y-41702000D01*
X148924470Y-41818020D01*
X149050453Y-41904101D01*
X149200000Y-41934385D01*
X149600000Y-41934385D01*
X149739708Y-41908097D01*
X149868020Y-41825530D01*
X149954101Y-41699547D01*
X149984385Y-41550000D01*
X149984385Y-40950000D01*
X149958097Y-40810292D01*
X149875530Y-40681980D01*
X149802000Y-40631739D01*
X149802000Y-40534385D01*
X150200000Y-40534385D01*
X150339708Y-40508097D01*
X150468020Y-40425530D01*
X150548000Y-40308476D01*
X150548000Y-46040615D01*
G36*
X141458549Y-64310053D02*
X141679729Y-64401895D01*
X141919220Y-64402104D01*
X142076315Y-64337194D01*
X142076315Y-64749828D01*
X142066451Y-64739947D01*
X141845271Y-64648105D01*
X141605780Y-64647896D01*
X141384440Y-64739352D01*
X141214947Y-64908549D01*
X141123105Y-65129729D01*
X141122896Y-65369220D01*
X141214352Y-65590560D01*
X141312605Y-65688985D01*
X141249547Y-65645899D01*
X141100000Y-65615615D01*
X139750000Y-65615615D01*
X139610292Y-65641903D01*
X139481980Y-65724470D01*
X139395899Y-65850453D01*
X139365615Y-66000000D01*
X139365615Y-67350000D01*
X139391903Y-67489708D01*
X139474470Y-67618020D01*
X139600453Y-67704101D01*
X139750000Y-67734385D01*
X139954954Y-67734385D01*
X139660514Y-67931124D01*
X139432469Y-68272417D01*
X139352390Y-68675000D01*
X139432469Y-69077583D01*
X139660514Y-69418876D01*
X140001807Y-69646921D01*
X140404390Y-69727000D01*
X140445610Y-69727000D01*
X140848193Y-69646921D01*
X141189486Y-69418876D01*
X141417531Y-69077583D01*
X141497610Y-68675000D01*
X141417531Y-68272417D01*
X141189486Y-67931124D01*
X140895046Y-67734385D01*
X141100000Y-67734385D01*
X141239708Y-67708097D01*
X141368020Y-67625530D01*
X141454101Y-67499547D01*
X141484385Y-67350000D01*
X141484385Y-66000000D01*
X141458097Y-65860292D01*
X141397257Y-65765745D01*
X141604729Y-65851895D01*
X141844220Y-65852104D01*
X142065560Y-65760648D01*
X142076315Y-65749912D01*
X142076315Y-69431757D01*
X141995271Y-69398105D01*
X141755780Y-69397896D01*
X141534440Y-69489352D01*
X141364947Y-69658549D01*
X141273105Y-69879729D01*
X141272943Y-70065615D01*
X140750000Y-70065615D01*
X140610292Y-70091903D01*
X140481980Y-70174470D01*
X140395899Y-70300453D01*
X140365615Y-70450000D01*
X140365615Y-70970161D01*
X140155388Y-71180388D01*
X140069134Y-71309475D01*
X140006980Y-71349470D01*
X139920899Y-71475453D01*
X139890615Y-71625000D01*
X139890615Y-72225000D01*
X139916903Y-72364708D01*
X139999470Y-72493020D01*
X140125453Y-72579101D01*
X140275000Y-72609385D01*
X140675000Y-72609385D01*
X140814708Y-72583097D01*
X140926252Y-72511320D01*
X141025453Y-72579101D01*
X141175000Y-72609385D01*
X141575000Y-72609385D01*
X141714708Y-72583097D01*
X141843020Y-72500530D01*
X141929101Y-72374547D01*
X141937543Y-72332858D01*
X141965615Y-72314101D01*
X141965615Y-72775000D01*
X141991903Y-72914708D01*
X142063680Y-73026252D01*
X141995899Y-73125453D01*
X141986270Y-73173000D01*
X140875000Y-73173000D01*
X140825590Y-73183006D01*
X140783965Y-73211447D01*
X140756685Y-73253841D01*
X140748000Y-73300000D01*
X140748000Y-75749006D01*
X140699547Y-75715899D01*
X140550000Y-75685615D01*
X139855135Y-75685615D01*
X139915560Y-75660648D01*
X140085053Y-75491451D01*
X140176895Y-75270271D01*
X140177104Y-75030780D01*
X140085648Y-74809440D01*
X139916451Y-74639947D01*
X139695271Y-74548105D01*
X139455780Y-74547896D01*
X139234440Y-74639352D01*
X139154422Y-74719230D01*
X139149547Y-74715899D01*
X139000000Y-74685615D01*
X138300000Y-74685615D01*
X138160292Y-74711903D01*
X138031980Y-74794470D01*
X137945899Y-74920453D01*
X137915615Y-75070000D01*
X137915615Y-76570000D01*
X137941903Y-76709708D01*
X137969800Y-76753061D01*
X137831284Y-76752940D01*
X137854101Y-76719547D01*
X137884385Y-76570000D01*
X137884385Y-75070000D01*
X137858097Y-74930292D01*
X137775530Y-74801980D01*
X137649547Y-74715899D01*
X137500000Y-74685615D01*
X136800000Y-74685615D01*
X136660292Y-74711903D01*
X136531980Y-74794470D01*
X136445899Y-74920453D01*
X136415615Y-75070000D01*
X136415615Y-76031442D01*
X136398000Y-76120000D01*
X136398000Y-77900000D01*
X136432406Y-78072973D01*
X136530388Y-78219612D01*
X137105388Y-78794612D01*
X137185288Y-78848000D01*
X133634385Y-78848000D01*
X133634385Y-78280000D01*
X133608097Y-78140292D01*
X133525530Y-78011980D01*
X133399547Y-77925899D01*
X133250000Y-77895615D01*
X132250000Y-77895615D01*
X132110292Y-77921903D01*
X132027000Y-77975500D01*
X132027000Y-77173912D01*
X132100453Y-77224101D01*
X132250000Y-77254385D01*
X133250000Y-77254385D01*
X133389708Y-77228097D01*
X133518020Y-77145530D01*
X133604101Y-77019547D01*
X133626714Y-76907881D01*
X133650453Y-76924101D01*
X133800000Y-76954385D01*
X134356131Y-76954385D01*
X134199312Y-77110930D01*
X134073144Y-77414778D01*
X134072857Y-77743779D01*
X134198495Y-78047846D01*
X134430930Y-78280688D01*
X134734778Y-78406856D01*
X135063779Y-78407143D01*
X135367846Y-78281505D01*
X135600688Y-78049070D01*
X135726856Y-77745222D01*
X135727143Y-77416221D01*
X135601505Y-77112154D01*
X135369070Y-76879312D01*
X135065222Y-76753144D01*
X134831284Y-76752940D01*
X134854101Y-76719547D01*
X134884385Y-76570000D01*
X134884385Y-76079839D01*
X135087192Y-75877032D01*
X135169220Y-75877104D01*
X135390560Y-75785648D01*
X135560053Y-75616451D01*
X135651895Y-75395271D01*
X135652104Y-75155780D01*
X135560648Y-74934440D01*
X135391451Y-74764947D01*
X135170271Y-74673105D01*
X134930780Y-74672896D01*
X134716307Y-74761515D01*
X134649547Y-74715899D01*
X134500000Y-74685615D01*
X133800000Y-74685615D01*
X133660292Y-74711903D01*
X133531980Y-74794470D01*
X133445899Y-74920453D01*
X133415615Y-75070000D01*
X133415615Y-75726878D01*
X133399547Y-75715899D01*
X133250000Y-75685615D01*
X132352000Y-75685615D01*
X132352000Y-72334778D01*
X135623000Y-72334778D01*
X135623000Y-72365222D01*
X135682146Y-72662567D01*
X135850578Y-72914644D01*
X136102655Y-73083076D01*
X136400000Y-73142222D01*
X136697345Y-73083076D01*
X136949422Y-72914644D01*
X137117854Y-72662567D01*
X137177000Y-72365222D01*
X137177000Y-72334778D01*
X137117854Y-72037433D01*
X136949422Y-71785356D01*
X136697345Y-71616924D01*
X136400000Y-71557778D01*
X136102655Y-71616924D01*
X135850578Y-71785356D01*
X135682146Y-72037433D01*
X135623000Y-72334778D01*
X132352000Y-72334778D01*
X132352000Y-71469220D01*
X134622896Y-71469220D01*
X134714352Y-71690560D01*
X134883549Y-71860053D01*
X135104729Y-71951895D01*
X135344220Y-71952104D01*
X135565560Y-71860648D01*
X135735053Y-71691451D01*
X135826895Y-71470271D01*
X135827104Y-71230780D01*
X135822901Y-71220608D01*
X135827000Y-71200000D01*
X135827000Y-69587224D01*
X136412225Y-69002000D01*
X136465615Y-69002000D01*
X136465615Y-69425000D01*
X136485122Y-69528671D01*
X136465615Y-69625000D01*
X136465615Y-70075000D01*
X136485122Y-70178671D01*
X136465615Y-70275000D01*
X136465615Y-70725000D01*
X136491903Y-70864708D01*
X136574470Y-70993020D01*
X136700453Y-71079101D01*
X136850000Y-71109385D01*
X138150000Y-71109385D01*
X138289708Y-71083097D01*
X138418020Y-71000530D01*
X138504101Y-70874547D01*
X138534385Y-70725000D01*
X138534385Y-70275000D01*
X138514878Y-70171329D01*
X138534385Y-70075000D01*
X138534385Y-69625000D01*
X138514878Y-69521329D01*
X138534385Y-69425000D01*
X138534385Y-68975000D01*
X138514878Y-68871329D01*
X138534385Y-68775000D01*
X138534385Y-68325000D01*
X138508097Y-68185292D01*
X138425530Y-68056980D01*
X138299547Y-67970899D01*
X138150000Y-67940615D01*
X136910554Y-67940615D01*
X136949422Y-67914644D01*
X137117854Y-67662567D01*
X137177000Y-67365222D01*
X137177000Y-67334778D01*
X137117854Y-67037433D01*
X136949422Y-66785356D01*
X136697345Y-66616924D01*
X136400000Y-66557778D01*
X136102655Y-66616924D01*
X135850578Y-66785356D01*
X135682146Y-67037433D01*
X135623000Y-67334778D01*
X135623000Y-67365222D01*
X135682146Y-67662567D01*
X135739224Y-67747991D01*
X135630780Y-67747896D01*
X135409440Y-67839352D01*
X135239947Y-68008549D01*
X135148105Y-68229729D01*
X135147896Y-68469220D01*
X135239352Y-68690560D01*
X135342194Y-68793582D01*
X135055388Y-69080388D01*
X134957406Y-69227027D01*
X134923000Y-69400000D01*
X134923000Y-70823419D01*
X134884440Y-70839352D01*
X134714947Y-71008549D01*
X134623105Y-71229729D01*
X134622896Y-71469220D01*
X132352000Y-71469220D01*
X132352000Y-64284385D01*
X133745160Y-64284385D01*
X134630387Y-65169612D01*
X134702197Y-65217594D01*
X134777027Y-65267594D01*
X134950000Y-65302000D01*
X135199813Y-65302000D01*
X135274470Y-65418020D01*
X135400453Y-65504101D01*
X135550000Y-65534385D01*
X135950000Y-65534385D01*
X136089708Y-65508097D01*
X136218020Y-65425530D01*
X136304101Y-65299547D01*
X136334385Y-65150000D01*
X136334385Y-64854839D01*
X136878778Y-64310446D01*
X136798105Y-64504729D01*
X136797896Y-64744220D01*
X136889352Y-64965560D01*
X137058549Y-65135053D01*
X137279729Y-65226895D01*
X137519220Y-65227104D01*
X137607535Y-65190613D01*
X137700453Y-65254101D01*
X137850000Y-65284385D01*
X138522948Y-65284385D01*
X138522896Y-65344220D01*
X138614352Y-65565560D01*
X138783549Y-65735053D01*
X139004729Y-65826895D01*
X139244220Y-65827104D01*
X139465560Y-65735648D01*
X139635053Y-65566451D01*
X139726895Y-65345271D01*
X139726948Y-65284385D01*
X140150000Y-65284385D01*
X140289708Y-65258097D01*
X140418020Y-65175530D01*
X140504101Y-65049547D01*
X140534385Y-64900000D01*
X140534385Y-64252000D01*
X141400597Y-64252000D01*
X141458549Y-64310053D01*
X141458549Y-64310053D01*
G37*
X141458549Y-64310053D02*
X141679729Y-64401895D01*
X141919220Y-64402104D01*
X142076315Y-64337194D01*
X142076315Y-64749828D01*
X142066451Y-64739947D01*
X141845271Y-64648105D01*
X141605780Y-64647896D01*
X141384440Y-64739352D01*
X141214947Y-64908549D01*
X141123105Y-65129729D01*
X141122896Y-65369220D01*
X141214352Y-65590560D01*
X141312605Y-65688985D01*
X141249547Y-65645899D01*
X141100000Y-65615615D01*
X139750000Y-65615615D01*
X139610292Y-65641903D01*
X139481980Y-65724470D01*
X139395899Y-65850453D01*
X139365615Y-66000000D01*
X139365615Y-67350000D01*
X139391903Y-67489708D01*
X139474470Y-67618020D01*
X139600453Y-67704101D01*
X139750000Y-67734385D01*
X139954954Y-67734385D01*
X139660514Y-67931124D01*
X139432469Y-68272417D01*
X139352390Y-68675000D01*
X139432469Y-69077583D01*
X139660514Y-69418876D01*
X140001807Y-69646921D01*
X140404390Y-69727000D01*
X140445610Y-69727000D01*
X140848193Y-69646921D01*
X141189486Y-69418876D01*
X141417531Y-69077583D01*
X141497610Y-68675000D01*
X141417531Y-68272417D01*
X141189486Y-67931124D01*
X140895046Y-67734385D01*
X141100000Y-67734385D01*
X141239708Y-67708097D01*
X141368020Y-67625530D01*
X141454101Y-67499547D01*
X141484385Y-67350000D01*
X141484385Y-66000000D01*
X141458097Y-65860292D01*
X141397257Y-65765745D01*
X141604729Y-65851895D01*
X141844220Y-65852104D01*
X142065560Y-65760648D01*
X142076315Y-65749912D01*
X142076315Y-69431757D01*
X141995271Y-69398105D01*
X141755780Y-69397896D01*
X141534440Y-69489352D01*
X141364947Y-69658549D01*
X141273105Y-69879729D01*
X141272943Y-70065615D01*
X140750000Y-70065615D01*
X140610292Y-70091903D01*
X140481980Y-70174470D01*
X140395899Y-70300453D01*
X140365615Y-70450000D01*
X140365615Y-70970161D01*
X140155388Y-71180388D01*
X140069134Y-71309475D01*
X140006980Y-71349470D01*
X139920899Y-71475453D01*
X139890615Y-71625000D01*
X139890615Y-72225000D01*
X139916903Y-72364708D01*
X139999470Y-72493020D01*
X140125453Y-72579101D01*
X140275000Y-72609385D01*
X140675000Y-72609385D01*
X140814708Y-72583097D01*
X140926252Y-72511320D01*
X141025453Y-72579101D01*
X141175000Y-72609385D01*
X141575000Y-72609385D01*
X141714708Y-72583097D01*
X141843020Y-72500530D01*
X141929101Y-72374547D01*
X141937543Y-72332858D01*
X141965615Y-72314101D01*
X141965615Y-72775000D01*
X141991903Y-72914708D01*
X142063680Y-73026252D01*
X141995899Y-73125453D01*
X141986270Y-73173000D01*
X140875000Y-73173000D01*
X140825590Y-73183006D01*
X140783965Y-73211447D01*
X140756685Y-73253841D01*
X140748000Y-73300000D01*
X140748000Y-75749006D01*
X140699547Y-75715899D01*
X140550000Y-75685615D01*
X139855135Y-75685615D01*
X139915560Y-75660648D01*
X140085053Y-75491451D01*
X140176895Y-75270271D01*
X140177104Y-75030780D01*
X140085648Y-74809440D01*
X139916451Y-74639947D01*
X139695271Y-74548105D01*
X139455780Y-74547896D01*
X139234440Y-74639352D01*
X139154422Y-74719230D01*
X139149547Y-74715899D01*
X139000000Y-74685615D01*
X138300000Y-74685615D01*
X138160292Y-74711903D01*
X138031980Y-74794470D01*
X137945899Y-74920453D01*
X137915615Y-75070000D01*
X137915615Y-76570000D01*
X137941903Y-76709708D01*
X137969800Y-76753061D01*
X137831284Y-76752940D01*
X137854101Y-76719547D01*
X137884385Y-76570000D01*
X137884385Y-75070000D01*
X137858097Y-74930292D01*
X137775530Y-74801980D01*
X137649547Y-74715899D01*
X137500000Y-74685615D01*
X136800000Y-74685615D01*
X136660292Y-74711903D01*
X136531980Y-74794470D01*
X136445899Y-74920453D01*
X136415615Y-75070000D01*
X136415615Y-76031442D01*
X136398000Y-76120000D01*
X136398000Y-77900000D01*
X136432406Y-78072973D01*
X136530388Y-78219612D01*
X137105388Y-78794612D01*
X137185288Y-78848000D01*
X133634385Y-78848000D01*
X133634385Y-78280000D01*
X133608097Y-78140292D01*
X133525530Y-78011980D01*
X133399547Y-77925899D01*
X133250000Y-77895615D01*
X132250000Y-77895615D01*
X132110292Y-77921903D01*
X132027000Y-77975500D01*
X132027000Y-77173912D01*
X132100453Y-77224101D01*
X132250000Y-77254385D01*
X133250000Y-77254385D01*
X133389708Y-77228097D01*
X133518020Y-77145530D01*
X133604101Y-77019547D01*
X133626714Y-76907881D01*
X133650453Y-76924101D01*
X133800000Y-76954385D01*
X134356131Y-76954385D01*
X134199312Y-77110930D01*
X134073144Y-77414778D01*
X134072857Y-77743779D01*
X134198495Y-78047846D01*
X134430930Y-78280688D01*
X134734778Y-78406856D01*
X135063779Y-78407143D01*
X135367846Y-78281505D01*
X135600688Y-78049070D01*
X135726856Y-77745222D01*
X135727143Y-77416221D01*
X135601505Y-77112154D01*
X135369070Y-76879312D01*
X135065222Y-76753144D01*
X134831284Y-76752940D01*
X134854101Y-76719547D01*
X134884385Y-76570000D01*
X134884385Y-76079839D01*
X135087192Y-75877032D01*
X135169220Y-75877104D01*
X135390560Y-75785648D01*
X135560053Y-75616451D01*
X135651895Y-75395271D01*
X135652104Y-75155780D01*
X135560648Y-74934440D01*
X135391451Y-74764947D01*
X135170271Y-74673105D01*
X134930780Y-74672896D01*
X134716307Y-74761515D01*
X134649547Y-74715899D01*
X134500000Y-74685615D01*
X133800000Y-74685615D01*
X133660292Y-74711903D01*
X133531980Y-74794470D01*
X133445899Y-74920453D01*
X133415615Y-75070000D01*
X133415615Y-75726878D01*
X133399547Y-75715899D01*
X133250000Y-75685615D01*
X132352000Y-75685615D01*
X132352000Y-72334778D01*
X135623000Y-72334778D01*
X135623000Y-72365222D01*
X135682146Y-72662567D01*
X135850578Y-72914644D01*
X136102655Y-73083076D01*
X136400000Y-73142222D01*
X136697345Y-73083076D01*
X136949422Y-72914644D01*
X137117854Y-72662567D01*
X137177000Y-72365222D01*
X137177000Y-72334778D01*
X137117854Y-72037433D01*
X136949422Y-71785356D01*
X136697345Y-71616924D01*
X136400000Y-71557778D01*
X136102655Y-71616924D01*
X135850578Y-71785356D01*
X135682146Y-72037433D01*
X135623000Y-72334778D01*
X132352000Y-72334778D01*
X132352000Y-71469220D01*
X134622896Y-71469220D01*
X134714352Y-71690560D01*
X134883549Y-71860053D01*
X135104729Y-71951895D01*
X135344220Y-71952104D01*
X135565560Y-71860648D01*
X135735053Y-71691451D01*
X135826895Y-71470271D01*
X135827104Y-71230780D01*
X135822901Y-71220608D01*
X135827000Y-71200000D01*
X135827000Y-69587224D01*
X136412225Y-69002000D01*
X136465615Y-69002000D01*
X136465615Y-69425000D01*
X136485122Y-69528671D01*
X136465615Y-69625000D01*
X136465615Y-70075000D01*
X136485122Y-70178671D01*
X136465615Y-70275000D01*
X136465615Y-70725000D01*
X136491903Y-70864708D01*
X136574470Y-70993020D01*
X136700453Y-71079101D01*
X136850000Y-71109385D01*
X138150000Y-71109385D01*
X138289708Y-71083097D01*
X138418020Y-71000530D01*
X138504101Y-70874547D01*
X138534385Y-70725000D01*
X138534385Y-70275000D01*
X138514878Y-70171329D01*
X138534385Y-70075000D01*
X138534385Y-69625000D01*
X138514878Y-69521329D01*
X138534385Y-69425000D01*
X138534385Y-68975000D01*
X138514878Y-68871329D01*
X138534385Y-68775000D01*
X138534385Y-68325000D01*
X138508097Y-68185292D01*
X138425530Y-68056980D01*
X138299547Y-67970899D01*
X138150000Y-67940615D01*
X136910554Y-67940615D01*
X136949422Y-67914644D01*
X137117854Y-67662567D01*
X137177000Y-67365222D01*
X137177000Y-67334778D01*
X137117854Y-67037433D01*
X136949422Y-66785356D01*
X136697345Y-66616924D01*
X136400000Y-66557778D01*
X136102655Y-66616924D01*
X135850578Y-66785356D01*
X135682146Y-67037433D01*
X135623000Y-67334778D01*
X135623000Y-67365222D01*
X135682146Y-67662567D01*
X135739224Y-67747991D01*
X135630780Y-67747896D01*
X135409440Y-67839352D01*
X135239947Y-68008549D01*
X135148105Y-68229729D01*
X135147896Y-68469220D01*
X135239352Y-68690560D01*
X135342194Y-68793582D01*
X135055388Y-69080388D01*
X134957406Y-69227027D01*
X134923000Y-69400000D01*
X134923000Y-70823419D01*
X134884440Y-70839352D01*
X134714947Y-71008549D01*
X134623105Y-71229729D01*
X134622896Y-71469220D01*
X132352000Y-71469220D01*
X132352000Y-64284385D01*
X133745160Y-64284385D01*
X134630387Y-65169612D01*
X134702197Y-65217594D01*
X134777027Y-65267594D01*
X134950000Y-65302000D01*
X135199813Y-65302000D01*
X135274470Y-65418020D01*
X135400453Y-65504101D01*
X135550000Y-65534385D01*
X135950000Y-65534385D01*
X136089708Y-65508097D01*
X136218020Y-65425530D01*
X136304101Y-65299547D01*
X136334385Y-65150000D01*
X136334385Y-64854839D01*
X136878778Y-64310446D01*
X136798105Y-64504729D01*
X136797896Y-64744220D01*
X136889352Y-64965560D01*
X137058549Y-65135053D01*
X137279729Y-65226895D01*
X137519220Y-65227104D01*
X137607535Y-65190613D01*
X137700453Y-65254101D01*
X137850000Y-65284385D01*
X138522948Y-65284385D01*
X138522896Y-65344220D01*
X138614352Y-65565560D01*
X138783549Y-65735053D01*
X139004729Y-65826895D01*
X139244220Y-65827104D01*
X139465560Y-65735648D01*
X139635053Y-65566451D01*
X139726895Y-65345271D01*
X139726948Y-65284385D01*
X140150000Y-65284385D01*
X140289708Y-65258097D01*
X140418020Y-65175530D01*
X140504101Y-65049547D01*
X140534385Y-64900000D01*
X140534385Y-64252000D01*
X141400597Y-64252000D01*
X141458549Y-64310053D01*
G36*
X150931956Y-72578989D02*
X151318974Y-72966683D01*
X151815841Y-73173000D01*
X149712126Y-73173000D01*
X149762062Y-73133066D01*
X149819612Y-73094612D01*
X149830472Y-73078358D01*
X149845740Y-73066149D01*
X150383910Y-72427073D01*
X150419220Y-72427104D01*
X150640560Y-72335648D01*
X150775678Y-72200766D01*
X150931956Y-72578989D01*
X150931956Y-72578989D01*
G37*
X150931956Y-72578989D02*
X151318974Y-72966683D01*
X151815841Y-73173000D01*
X149712126Y-73173000D01*
X149762062Y-73133066D01*
X149819612Y-73094612D01*
X149830472Y-73078358D01*
X149845740Y-73066149D01*
X150383910Y-72427073D01*
X150419220Y-72427104D01*
X150640560Y-72335648D01*
X150775678Y-72200766D01*
X150931956Y-72578989D01*
G36*
X154015615Y-71300000D02*
X154041903Y-71439708D01*
X154124470Y-71568020D01*
X154250453Y-71654101D01*
X154400000Y-71684385D01*
X156100000Y-71684385D01*
X156198000Y-71665945D01*
X156198000Y-73173000D01*
X152382958Y-73173000D01*
X152878989Y-72968044D01*
X153266683Y-72581026D01*
X153476760Y-72075104D01*
X153477238Y-71527299D01*
X153268044Y-71021011D01*
X153149241Y-70902000D01*
X154015615Y-70902000D01*
X154015615Y-71300000D01*
X154015615Y-71300000D01*
G37*
X154015615Y-71300000D02*
X154041903Y-71439708D01*
X154124470Y-71568020D01*
X154250453Y-71654101D01*
X154400000Y-71684385D01*
X156100000Y-71684385D01*
X156198000Y-71665945D01*
X156198000Y-73173000D01*
X152382958Y-73173000D01*
X152878989Y-72968044D01*
X153266683Y-72581026D01*
X153476760Y-72075104D01*
X153477238Y-71527299D01*
X153268044Y-71021011D01*
X153149241Y-70902000D01*
X154015615Y-70902000D01*
X154015615Y-71300000D01*
G36*
X143179729Y-64401895D02*
X143262743Y-64401967D01*
X143348000Y-64487224D01*
X143348000Y-69700000D01*
X143382406Y-69872973D01*
X143480388Y-70019612D01*
X143830388Y-70369612D01*
X143977027Y-70467594D01*
X143994223Y-70471014D01*
X144024470Y-70518020D01*
X144148000Y-70602425D01*
X144148000Y-70800000D01*
X144182406Y-70972973D01*
X144280388Y-71119612D01*
X144358919Y-71198143D01*
X144223240Y-71524896D01*
X144222762Y-72072701D01*
X144431956Y-72578989D01*
X144529112Y-72676315D01*
X144050000Y-72676315D01*
X143849594Y-72716178D01*
X143727140Y-72798000D01*
X143679699Y-72829699D01*
X143458083Y-73051315D01*
X143154059Y-73051315D01*
X143136320Y-73023748D01*
X143204101Y-72924547D01*
X143234385Y-72775000D01*
X143234385Y-72379348D01*
X143318020Y-72325530D01*
X143404101Y-72199547D01*
X143434385Y-72050000D01*
X143434385Y-71550000D01*
X143408097Y-71410292D01*
X143325530Y-71281980D01*
X143199547Y-71195899D01*
X143123685Y-71180537D01*
X143123685Y-64378623D01*
X143179729Y-64401895D01*
X143179729Y-64401895D01*
G37*
X143179729Y-64401895D02*
X143262743Y-64401967D01*
X143348000Y-64487224D01*
X143348000Y-69700000D01*
X143382406Y-69872973D01*
X143480388Y-70019612D01*
X143830388Y-70369612D01*
X143977027Y-70467594D01*
X143994223Y-70471014D01*
X144024470Y-70518020D01*
X144148000Y-70602425D01*
X144148000Y-70800000D01*
X144182406Y-70972973D01*
X144280388Y-71119612D01*
X144358919Y-71198143D01*
X144223240Y-71524896D01*
X144222762Y-72072701D01*
X144431956Y-72578989D01*
X144529112Y-72676315D01*
X144050000Y-72676315D01*
X143849594Y-72716178D01*
X143727140Y-72798000D01*
X143679699Y-72829699D01*
X143458083Y-73051315D01*
X143154059Y-73051315D01*
X143136320Y-73023748D01*
X143204101Y-72924547D01*
X143234385Y-72775000D01*
X143234385Y-72379348D01*
X143318020Y-72325530D01*
X143404101Y-72199547D01*
X143434385Y-72050000D01*
X143434385Y-71550000D01*
X143408097Y-71410292D01*
X143325530Y-71281980D01*
X143199547Y-71195899D01*
X143123685Y-71180537D01*
X143123685Y-64378623D01*
X143179729Y-64401895D01*
G36*
X154358342Y-50732380D02*
X154092362Y-51130447D01*
X153998962Y-51600000D01*
X154092362Y-52069553D01*
X154358342Y-52467620D01*
X154756409Y-52733600D01*
X155225962Y-52827000D01*
X155274038Y-52827000D01*
X155743591Y-52733600D01*
X156141658Y-52467620D01*
X156198000Y-52383298D01*
X156198000Y-53356702D01*
X156141658Y-53272380D01*
X155743591Y-53006400D01*
X155274038Y-52913000D01*
X155225962Y-52913000D01*
X154756409Y-53006400D01*
X154358342Y-53272380D01*
X154092362Y-53670447D01*
X153998962Y-54140000D01*
X154092362Y-54609553D01*
X154358342Y-55007620D01*
X154756409Y-55273600D01*
X155225962Y-55367000D01*
X155274038Y-55367000D01*
X155743591Y-55273600D01*
X156141658Y-55007620D01*
X156198000Y-54923298D01*
X156198000Y-55896702D01*
X156141658Y-55812380D01*
X155743591Y-55546400D01*
X155274038Y-55453000D01*
X155225962Y-55453000D01*
X154756409Y-55546400D01*
X154358342Y-55812380D01*
X154092362Y-56210447D01*
X153998962Y-56680000D01*
X154092362Y-57149553D01*
X154358342Y-57547620D01*
X154756409Y-57813600D01*
X155225962Y-57907000D01*
X155274038Y-57907000D01*
X155743591Y-57813600D01*
X156141658Y-57547620D01*
X156198000Y-57463298D01*
X156198000Y-58436702D01*
X156141658Y-58352380D01*
X155743591Y-58086400D01*
X155274038Y-57993000D01*
X155225962Y-57993000D01*
X154756409Y-58086400D01*
X154358342Y-58352380D01*
X154092362Y-58750447D01*
X153998962Y-59220000D01*
X154088855Y-59671921D01*
X153405388Y-60355388D01*
X153307406Y-60502027D01*
X153273000Y-60675000D01*
X153273000Y-63250597D01*
X153214947Y-63308549D01*
X153123105Y-63529729D01*
X153122896Y-63769220D01*
X153214352Y-63990560D01*
X153383549Y-64160053D01*
X153604729Y-64251895D01*
X153844220Y-64252104D01*
X154065560Y-64160648D01*
X154235053Y-63991451D01*
X154326895Y-63770271D01*
X154327104Y-63530780D01*
X154235648Y-63309440D01*
X154177000Y-63250689D01*
X154177000Y-62356223D01*
X154358342Y-62627620D01*
X154756409Y-62893600D01*
X155225962Y-62987000D01*
X155274038Y-62987000D01*
X155743591Y-62893600D01*
X156141658Y-62627620D01*
X156198000Y-62543298D01*
X156198000Y-67126702D01*
X156141658Y-67042380D01*
X155743591Y-66776400D01*
X155274038Y-66683000D01*
X155225962Y-66683000D01*
X154756409Y-66776400D01*
X154755938Y-66776714D01*
X154177000Y-66197776D01*
X154177000Y-65274403D01*
X154235053Y-65216451D01*
X154326895Y-64995271D01*
X154327104Y-64755780D01*
X154235648Y-64534440D01*
X154066451Y-64364947D01*
X153845271Y-64273105D01*
X153605780Y-64272896D01*
X153384440Y-64364352D01*
X153214947Y-64533549D01*
X153123105Y-64754729D01*
X153122896Y-64994220D01*
X153214352Y-65215560D01*
X153273000Y-65274311D01*
X153273000Y-66385000D01*
X153307406Y-66557973D01*
X153405388Y-66704612D01*
X154111933Y-67411157D01*
X154092362Y-67440447D01*
X153998962Y-67910000D01*
X154092362Y-68379553D01*
X154358342Y-68777620D01*
X154756409Y-69043600D01*
X155225962Y-69137000D01*
X155274038Y-69137000D01*
X155743591Y-69043600D01*
X156141658Y-68777620D01*
X156198000Y-68693298D01*
X156198000Y-69235460D01*
X156100000Y-69215615D01*
X154400000Y-69215615D01*
X154260292Y-69241903D01*
X154131980Y-69324470D01*
X154045899Y-69450453D01*
X154015615Y-69600000D01*
X154015615Y-69998000D01*
X153262225Y-69998000D01*
X152544612Y-69280388D01*
X152530365Y-69270869D01*
X152685053Y-69116451D01*
X152776895Y-68895271D01*
X152777104Y-68655780D01*
X152685648Y-68434440D01*
X152516451Y-68264947D01*
X152295271Y-68173105D01*
X152055780Y-68172896D01*
X151834440Y-68264352D01*
X151775689Y-68323000D01*
X151462225Y-68323000D01*
X151402000Y-68262776D01*
X151402000Y-68100000D01*
X151367594Y-67927027D01*
X151277029Y-67791489D01*
X151277104Y-67705780D01*
X151185648Y-67484440D01*
X151016451Y-67314947D01*
X150795271Y-67223105D01*
X150555780Y-67222896D01*
X150334440Y-67314352D01*
X150164947Y-67483549D01*
X150073105Y-67704729D01*
X150072896Y-67944220D01*
X150164352Y-68165560D01*
X150333549Y-68335053D01*
X150498000Y-68403339D01*
X150498000Y-68450000D01*
X150532406Y-68622973D01*
X150599243Y-68723000D01*
X150437224Y-68723000D01*
X150344612Y-68630388D01*
X150197973Y-68532406D01*
X150025000Y-68498000D01*
X147575000Y-68498000D01*
X147449451Y-68522973D01*
X147402026Y-68532406D01*
X147255387Y-68630388D01*
X146837808Y-69047968D01*
X146755780Y-69047896D01*
X146534440Y-69139352D01*
X146364947Y-69308549D01*
X146273105Y-69529729D01*
X146272896Y-69769220D01*
X146364352Y-69990560D01*
X146533549Y-70160053D01*
X146754729Y-70251895D01*
X146994220Y-70252104D01*
X147215560Y-70160648D01*
X147385053Y-69991451D01*
X147476895Y-69770271D01*
X147476967Y-69687257D01*
X147762225Y-69402000D01*
X149133776Y-69402000D01*
X148680388Y-69855388D01*
X148582406Y-70002027D01*
X148548000Y-70175000D01*
X148548000Y-71458776D01*
X148319612Y-71230388D01*
X148172973Y-71132406D01*
X148000000Y-71098000D01*
X146799855Y-71098000D01*
X146768044Y-71021011D01*
X146381026Y-70633317D01*
X145875104Y-70423240D01*
X145327299Y-70422762D01*
X145203204Y-70474037D01*
X145254101Y-70399547D01*
X145284385Y-70250000D01*
X145284385Y-69850000D01*
X145258097Y-69710292D01*
X145186320Y-69598748D01*
X145254101Y-69499547D01*
X145284385Y-69350000D01*
X145284385Y-68950000D01*
X145258097Y-68810292D01*
X145175530Y-68681980D01*
X145052000Y-68597575D01*
X145052000Y-68500000D01*
X145017594Y-68327027D01*
X144919612Y-68180388D01*
X144677000Y-67937776D01*
X144677000Y-66303230D01*
X144840560Y-66235648D01*
X145010053Y-66066451D01*
X145101895Y-65845271D01*
X145101917Y-65819220D01*
X147997896Y-65819220D01*
X148089352Y-66040560D01*
X148258549Y-66210053D01*
X148479729Y-66301895D01*
X148719220Y-66302104D01*
X148940560Y-66210648D01*
X149110053Y-66041451D01*
X149201895Y-65820271D01*
X149202104Y-65580780D01*
X149110648Y-65359440D01*
X148941451Y-65189947D01*
X148720271Y-65098105D01*
X148480780Y-65097896D01*
X148259440Y-65189352D01*
X148089947Y-65358549D01*
X147998105Y-65579729D01*
X147997896Y-65819220D01*
X145101917Y-65819220D01*
X145102104Y-65605780D01*
X145010648Y-65384440D01*
X144841451Y-65214947D01*
X144620271Y-65123105D01*
X144380780Y-65122896D01*
X144252000Y-65176107D01*
X144252000Y-64300000D01*
X144217594Y-64127027D01*
X144119612Y-63980388D01*
X143902032Y-63762808D01*
X143902104Y-63680780D01*
X143810648Y-63459440D01*
X143641451Y-63289947D01*
X143420271Y-63198105D01*
X143180780Y-63197896D01*
X143123685Y-63221487D01*
X143123685Y-61336820D01*
X143200000Y-61352000D01*
X143800000Y-61352000D01*
X143972973Y-61317594D01*
X144119612Y-61219612D01*
X144319612Y-61019612D01*
X144417594Y-60872973D01*
X144452000Y-60700000D01*
X144452000Y-60549068D01*
X144818974Y-60916683D01*
X145324896Y-61126760D01*
X145872701Y-61127238D01*
X146378989Y-60918044D01*
X146766683Y-60531026D01*
X146903306Y-60202000D01*
X150796847Y-60202000D01*
X150931956Y-60528989D01*
X151318974Y-60916683D01*
X151824896Y-61126760D01*
X152372701Y-61127238D01*
X152878989Y-60918044D01*
X153266683Y-60531026D01*
X153476760Y-60025104D01*
X153477238Y-59477299D01*
X153268044Y-58971011D01*
X152881026Y-58583317D01*
X152375104Y-58373240D01*
X151827299Y-58372762D01*
X151321011Y-58581956D01*
X150933317Y-58968974D01*
X150796694Y-59298000D01*
X149069619Y-59298000D01*
X149101895Y-59220271D01*
X149102104Y-58980780D01*
X149029616Y-58805345D01*
X149032753Y-58804755D01*
X149105000Y-58819385D01*
X149385000Y-58819385D01*
X149524708Y-58793097D01*
X149653020Y-58710530D01*
X149739101Y-58584547D01*
X149760397Y-58479385D01*
X150335000Y-58479385D01*
X150474708Y-58453097D01*
X150603020Y-58370530D01*
X150689101Y-58244547D01*
X150719385Y-58095000D01*
X150719385Y-57815000D01*
X150693097Y-57675292D01*
X150610530Y-57546980D01*
X150484547Y-57460899D01*
X150335000Y-57430615D01*
X149688609Y-57430615D01*
X149660530Y-57386980D01*
X149534547Y-57300899D01*
X149385000Y-57270615D01*
X149105000Y-57270615D01*
X149027247Y-57285245D01*
X148955000Y-57270615D01*
X148675000Y-57270615D01*
X148597247Y-57285245D01*
X148525000Y-57270615D01*
X148245000Y-57270615D01*
X148167247Y-57285245D01*
X148095000Y-57270615D01*
X148022173Y-57270615D01*
X148029385Y-57235000D01*
X148029385Y-56955000D01*
X148014755Y-56877247D01*
X148029385Y-56805000D01*
X148029385Y-56525000D01*
X148014755Y-56447247D01*
X148029385Y-56375000D01*
X148029385Y-56257000D01*
X148575597Y-56257000D01*
X148633549Y-56315053D01*
X148854729Y-56406895D01*
X149094220Y-56407104D01*
X149170709Y-56375499D01*
X149185245Y-56452753D01*
X149170615Y-56525000D01*
X149170615Y-56805000D01*
X149196903Y-56944708D01*
X149279470Y-57073020D01*
X149405453Y-57159101D01*
X149555000Y-57189385D01*
X150335000Y-57189385D01*
X150474708Y-57163097D01*
X150546344Y-57117000D01*
X150559465Y-57117000D01*
X150624470Y-57218020D01*
X150750453Y-57304101D01*
X150900000Y-57334385D01*
X151400000Y-57334385D01*
X151539708Y-57308097D01*
X151668020Y-57225530D01*
X151754101Y-57099547D01*
X151784385Y-56950000D01*
X151784385Y-56350000D01*
X151758097Y-56210292D01*
X151675530Y-56081980D01*
X151549547Y-55995899D01*
X151480419Y-55981900D01*
X151568020Y-55925530D01*
X151654101Y-55799547D01*
X151684385Y-55650000D01*
X151684385Y-55150000D01*
X151658097Y-55010292D01*
X151586320Y-54898748D01*
X151654101Y-54799547D01*
X151684385Y-54650000D01*
X151684385Y-54150000D01*
X151658097Y-54010292D01*
X151575530Y-53881980D01*
X151449547Y-53795899D01*
X151300000Y-53765615D01*
X150700000Y-53765615D01*
X150560292Y-53791903D01*
X150431980Y-53874470D01*
X150364711Y-53972921D01*
X150319169Y-53981980D01*
X150317027Y-53982406D01*
X150307130Y-53989019D01*
X150264612Y-53925388D01*
X149227000Y-52887776D01*
X149227000Y-52537224D01*
X149404839Y-52359385D01*
X150675000Y-52359385D01*
X150814708Y-52333097D01*
X150943020Y-52250530D01*
X151029101Y-52124547D01*
X151059385Y-51975000D01*
X151059385Y-50702000D01*
X154403809Y-50702000D01*
X154358342Y-50732380D01*
X154358342Y-50732380D01*
G37*
X154358342Y-50732380D02*
X154092362Y-51130447D01*
X153998962Y-51600000D01*
X154092362Y-52069553D01*
X154358342Y-52467620D01*
X154756409Y-52733600D01*
X155225962Y-52827000D01*
X155274038Y-52827000D01*
X155743591Y-52733600D01*
X156141658Y-52467620D01*
X156198000Y-52383298D01*
X156198000Y-53356702D01*
X156141658Y-53272380D01*
X155743591Y-53006400D01*
X155274038Y-52913000D01*
X155225962Y-52913000D01*
X154756409Y-53006400D01*
X154358342Y-53272380D01*
X154092362Y-53670447D01*
X153998962Y-54140000D01*
X154092362Y-54609553D01*
X154358342Y-55007620D01*
X154756409Y-55273600D01*
X155225962Y-55367000D01*
X155274038Y-55367000D01*
X155743591Y-55273600D01*
X156141658Y-55007620D01*
X156198000Y-54923298D01*
X156198000Y-55896702D01*
X156141658Y-55812380D01*
X155743591Y-55546400D01*
X155274038Y-55453000D01*
X155225962Y-55453000D01*
X154756409Y-55546400D01*
X154358342Y-55812380D01*
X154092362Y-56210447D01*
X153998962Y-56680000D01*
X154092362Y-57149553D01*
X154358342Y-57547620D01*
X154756409Y-57813600D01*
X155225962Y-57907000D01*
X155274038Y-57907000D01*
X155743591Y-57813600D01*
X156141658Y-57547620D01*
X156198000Y-57463298D01*
X156198000Y-58436702D01*
X156141658Y-58352380D01*
X155743591Y-58086400D01*
X155274038Y-57993000D01*
X155225962Y-57993000D01*
X154756409Y-58086400D01*
X154358342Y-58352380D01*
X154092362Y-58750447D01*
X153998962Y-59220000D01*
X154088855Y-59671921D01*
X153405388Y-60355388D01*
X153307406Y-60502027D01*
X153273000Y-60675000D01*
X153273000Y-63250597D01*
X153214947Y-63308549D01*
X153123105Y-63529729D01*
X153122896Y-63769220D01*
X153214352Y-63990560D01*
X153383549Y-64160053D01*
X153604729Y-64251895D01*
X153844220Y-64252104D01*
X154065560Y-64160648D01*
X154235053Y-63991451D01*
X154326895Y-63770271D01*
X154327104Y-63530780D01*
X154235648Y-63309440D01*
X154177000Y-63250689D01*
X154177000Y-62356223D01*
X154358342Y-62627620D01*
X154756409Y-62893600D01*
X155225962Y-62987000D01*
X155274038Y-62987000D01*
X155743591Y-62893600D01*
X156141658Y-62627620D01*
X156198000Y-62543298D01*
X156198000Y-67126702D01*
X156141658Y-67042380D01*
X155743591Y-66776400D01*
X155274038Y-66683000D01*
X155225962Y-66683000D01*
X154756409Y-66776400D01*
X154755938Y-66776714D01*
X154177000Y-66197776D01*
X154177000Y-65274403D01*
X154235053Y-65216451D01*
X154326895Y-64995271D01*
X154327104Y-64755780D01*
X154235648Y-64534440D01*
X154066451Y-64364947D01*
X153845271Y-64273105D01*
X153605780Y-64272896D01*
X153384440Y-64364352D01*
X153214947Y-64533549D01*
X153123105Y-64754729D01*
X153122896Y-64994220D01*
X153214352Y-65215560D01*
X153273000Y-65274311D01*
X153273000Y-66385000D01*
X153307406Y-66557973D01*
X153405388Y-66704612D01*
X154111933Y-67411157D01*
X154092362Y-67440447D01*
X153998962Y-67910000D01*
X154092362Y-68379553D01*
X154358342Y-68777620D01*
X154756409Y-69043600D01*
X155225962Y-69137000D01*
X155274038Y-69137000D01*
X155743591Y-69043600D01*
X156141658Y-68777620D01*
X156198000Y-68693298D01*
X156198000Y-69235460D01*
X156100000Y-69215615D01*
X154400000Y-69215615D01*
X154260292Y-69241903D01*
X154131980Y-69324470D01*
X154045899Y-69450453D01*
X154015615Y-69600000D01*
X154015615Y-69998000D01*
X153262225Y-69998000D01*
X152544612Y-69280388D01*
X152530365Y-69270869D01*
X152685053Y-69116451D01*
X152776895Y-68895271D01*
X152777104Y-68655780D01*
X152685648Y-68434440D01*
X152516451Y-68264947D01*
X152295271Y-68173105D01*
X152055780Y-68172896D01*
X151834440Y-68264352D01*
X151775689Y-68323000D01*
X151462225Y-68323000D01*
X151402000Y-68262776D01*
X151402000Y-68100000D01*
X151367594Y-67927027D01*
X151277029Y-67791489D01*
X151277104Y-67705780D01*
X151185648Y-67484440D01*
X151016451Y-67314947D01*
X150795271Y-67223105D01*
X150555780Y-67222896D01*
X150334440Y-67314352D01*
X150164947Y-67483549D01*
X150073105Y-67704729D01*
X150072896Y-67944220D01*
X150164352Y-68165560D01*
X150333549Y-68335053D01*
X150498000Y-68403339D01*
X150498000Y-68450000D01*
X150532406Y-68622973D01*
X150599243Y-68723000D01*
X150437224Y-68723000D01*
X150344612Y-68630388D01*
X150197973Y-68532406D01*
X150025000Y-68498000D01*
X147575000Y-68498000D01*
X147449451Y-68522973D01*
X147402026Y-68532406D01*
X147255387Y-68630388D01*
X146837808Y-69047968D01*
X146755780Y-69047896D01*
X146534440Y-69139352D01*
X146364947Y-69308549D01*
X146273105Y-69529729D01*
X146272896Y-69769220D01*
X146364352Y-69990560D01*
X146533549Y-70160053D01*
X146754729Y-70251895D01*
X146994220Y-70252104D01*
X147215560Y-70160648D01*
X147385053Y-69991451D01*
X147476895Y-69770271D01*
X147476967Y-69687257D01*
X147762225Y-69402000D01*
X149133776Y-69402000D01*
X148680388Y-69855388D01*
X148582406Y-70002027D01*
X148548000Y-70175000D01*
X148548000Y-71458776D01*
X148319612Y-71230388D01*
X148172973Y-71132406D01*
X148000000Y-71098000D01*
X146799855Y-71098000D01*
X146768044Y-71021011D01*
X146381026Y-70633317D01*
X145875104Y-70423240D01*
X145327299Y-70422762D01*
X145203204Y-70474037D01*
X145254101Y-70399547D01*
X145284385Y-70250000D01*
X145284385Y-69850000D01*
X145258097Y-69710292D01*
X145186320Y-69598748D01*
X145254101Y-69499547D01*
X145284385Y-69350000D01*
X145284385Y-68950000D01*
X145258097Y-68810292D01*
X145175530Y-68681980D01*
X145052000Y-68597575D01*
X145052000Y-68500000D01*
X145017594Y-68327027D01*
X144919612Y-68180388D01*
X144677000Y-67937776D01*
X144677000Y-66303230D01*
X144840560Y-66235648D01*
X145010053Y-66066451D01*
X145101895Y-65845271D01*
X145101917Y-65819220D01*
X147997896Y-65819220D01*
X148089352Y-66040560D01*
X148258549Y-66210053D01*
X148479729Y-66301895D01*
X148719220Y-66302104D01*
X148940560Y-66210648D01*
X149110053Y-66041451D01*
X149201895Y-65820271D01*
X149202104Y-65580780D01*
X149110648Y-65359440D01*
X148941451Y-65189947D01*
X148720271Y-65098105D01*
X148480780Y-65097896D01*
X148259440Y-65189352D01*
X148089947Y-65358549D01*
X147998105Y-65579729D01*
X147997896Y-65819220D01*
X145101917Y-65819220D01*
X145102104Y-65605780D01*
X145010648Y-65384440D01*
X144841451Y-65214947D01*
X144620271Y-65123105D01*
X144380780Y-65122896D01*
X144252000Y-65176107D01*
X144252000Y-64300000D01*
X144217594Y-64127027D01*
X144119612Y-63980388D01*
X143902032Y-63762808D01*
X143902104Y-63680780D01*
X143810648Y-63459440D01*
X143641451Y-63289947D01*
X143420271Y-63198105D01*
X143180780Y-63197896D01*
X143123685Y-63221487D01*
X143123685Y-61336820D01*
X143200000Y-61352000D01*
X143800000Y-61352000D01*
X143972973Y-61317594D01*
X144119612Y-61219612D01*
X144319612Y-61019612D01*
X144417594Y-60872973D01*
X144452000Y-60700000D01*
X144452000Y-60549068D01*
X144818974Y-60916683D01*
X145324896Y-61126760D01*
X145872701Y-61127238D01*
X146378989Y-60918044D01*
X146766683Y-60531026D01*
X146903306Y-60202000D01*
X150796847Y-60202000D01*
X150931956Y-60528989D01*
X151318974Y-60916683D01*
X151824896Y-61126760D01*
X152372701Y-61127238D01*
X152878989Y-60918044D01*
X153266683Y-60531026D01*
X153476760Y-60025104D01*
X153477238Y-59477299D01*
X153268044Y-58971011D01*
X152881026Y-58583317D01*
X152375104Y-58373240D01*
X151827299Y-58372762D01*
X151321011Y-58581956D01*
X150933317Y-58968974D01*
X150796694Y-59298000D01*
X149069619Y-59298000D01*
X149101895Y-59220271D01*
X149102104Y-58980780D01*
X149029616Y-58805345D01*
X149032753Y-58804755D01*
X149105000Y-58819385D01*
X149385000Y-58819385D01*
X149524708Y-58793097D01*
X149653020Y-58710530D01*
X149739101Y-58584547D01*
X149760397Y-58479385D01*
X150335000Y-58479385D01*
X150474708Y-58453097D01*
X150603020Y-58370530D01*
X150689101Y-58244547D01*
X150719385Y-58095000D01*
X150719385Y-57815000D01*
X150693097Y-57675292D01*
X150610530Y-57546980D01*
X150484547Y-57460899D01*
X150335000Y-57430615D01*
X149688609Y-57430615D01*
X149660530Y-57386980D01*
X149534547Y-57300899D01*
X149385000Y-57270615D01*
X149105000Y-57270615D01*
X149027247Y-57285245D01*
X148955000Y-57270615D01*
X148675000Y-57270615D01*
X148597247Y-57285245D01*
X148525000Y-57270615D01*
X148245000Y-57270615D01*
X148167247Y-57285245D01*
X148095000Y-57270615D01*
X148022173Y-57270615D01*
X148029385Y-57235000D01*
X148029385Y-56955000D01*
X148014755Y-56877247D01*
X148029385Y-56805000D01*
X148029385Y-56525000D01*
X148014755Y-56447247D01*
X148029385Y-56375000D01*
X148029385Y-56257000D01*
X148575597Y-56257000D01*
X148633549Y-56315053D01*
X148854729Y-56406895D01*
X149094220Y-56407104D01*
X149170709Y-56375499D01*
X149185245Y-56452753D01*
X149170615Y-56525000D01*
X149170615Y-56805000D01*
X149196903Y-56944708D01*
X149279470Y-57073020D01*
X149405453Y-57159101D01*
X149555000Y-57189385D01*
X150335000Y-57189385D01*
X150474708Y-57163097D01*
X150546344Y-57117000D01*
X150559465Y-57117000D01*
X150624470Y-57218020D01*
X150750453Y-57304101D01*
X150900000Y-57334385D01*
X151400000Y-57334385D01*
X151539708Y-57308097D01*
X151668020Y-57225530D01*
X151754101Y-57099547D01*
X151784385Y-56950000D01*
X151784385Y-56350000D01*
X151758097Y-56210292D01*
X151675530Y-56081980D01*
X151549547Y-55995899D01*
X151480419Y-55981900D01*
X151568020Y-55925530D01*
X151654101Y-55799547D01*
X151684385Y-55650000D01*
X151684385Y-55150000D01*
X151658097Y-55010292D01*
X151586320Y-54898748D01*
X151654101Y-54799547D01*
X151684385Y-54650000D01*
X151684385Y-54150000D01*
X151658097Y-54010292D01*
X151575530Y-53881980D01*
X151449547Y-53795899D01*
X151300000Y-53765615D01*
X150700000Y-53765615D01*
X150560292Y-53791903D01*
X150431980Y-53874470D01*
X150364711Y-53972921D01*
X150319169Y-53981980D01*
X150317027Y-53982406D01*
X150307130Y-53989019D01*
X150264612Y-53925388D01*
X149227000Y-52887776D01*
X149227000Y-52537224D01*
X149404839Y-52359385D01*
X150675000Y-52359385D01*
X150814708Y-52333097D01*
X150943020Y-52250530D01*
X151029101Y-52124547D01*
X151059385Y-51975000D01*
X151059385Y-50702000D01*
X154403809Y-50702000D01*
X154358342Y-50732380D01*
G36*
X138055388Y-59819612D02*
X138148000Y-59912224D01*
X138148000Y-63400000D01*
X138182406Y-63572973D01*
X138280388Y-63719612D01*
X138326391Y-63765615D01*
X137850000Y-63765615D01*
X137710292Y-63791903D01*
X137581980Y-63874470D01*
X137495899Y-64000453D01*
X137491317Y-64023080D01*
X137280780Y-64022896D01*
X137085739Y-64103485D01*
X137569612Y-63619613D01*
X137667594Y-63472973D01*
X137684156Y-63389708D01*
X137702000Y-63300000D01*
X137702000Y-60787224D01*
X137919612Y-60569612D01*
X138017594Y-60422973D01*
X138052000Y-60250000D01*
X138052000Y-59814542D01*
X138055388Y-59819612D01*
X138055388Y-59819612D01*
G37*
X138055388Y-59819612D02*
X138148000Y-59912224D01*
X138148000Y-63400000D01*
X138182406Y-63572973D01*
X138280388Y-63719612D01*
X138326391Y-63765615D01*
X137850000Y-63765615D01*
X137710292Y-63791903D01*
X137581980Y-63874470D01*
X137495899Y-64000453D01*
X137491317Y-64023080D01*
X137280780Y-64022896D01*
X137085739Y-64103485D01*
X137569612Y-63619613D01*
X137667594Y-63472973D01*
X137684156Y-63389708D01*
X137702000Y-63300000D01*
X137702000Y-60787224D01*
X137919612Y-60569612D01*
X138017594Y-60422973D01*
X138052000Y-60250000D01*
X138052000Y-59814542D01*
X138055388Y-59819612D01*
G36*
X136798000Y-62518096D02*
X136557620Y-62158342D01*
X136159553Y-61892362D01*
X136124879Y-61885465D01*
X136218020Y-61825530D01*
X136304101Y-61699547D01*
X136334385Y-61550000D01*
X136334385Y-61102000D01*
X136400000Y-61102000D01*
X136572973Y-61067594D01*
X136719612Y-60969612D01*
X136798000Y-60891224D01*
X136798000Y-62518096D01*
X136798000Y-62518096D01*
G37*
X136798000Y-62518096D02*
X136557620Y-62158342D01*
X136159553Y-61892362D01*
X136124879Y-61885465D01*
X136218020Y-61825530D01*
X136304101Y-61699547D01*
X136334385Y-61550000D01*
X136334385Y-61102000D01*
X136400000Y-61102000D01*
X136572973Y-61067594D01*
X136719612Y-60969612D01*
X136798000Y-60891224D01*
X136798000Y-62518096D01*
G36*
X136798000Y-58918096D02*
X136557620Y-58558342D01*
X136159553Y-58292362D01*
X136124879Y-58285465D01*
X136218020Y-58225530D01*
X136304101Y-58099547D01*
X136334385Y-57950000D01*
X136334385Y-57704839D01*
X136798000Y-57241224D01*
X136798000Y-58918096D01*
X136798000Y-58918096D01*
G37*
X136798000Y-58918096D02*
X136557620Y-58558342D01*
X136159553Y-58292362D01*
X136124879Y-58285465D01*
X136218020Y-58225530D01*
X136304101Y-58099547D01*
X136334385Y-57950000D01*
X136334385Y-57704839D01*
X136798000Y-57241224D01*
X136798000Y-58918096D01*
G36*
X143269419Y-55280217D02*
X143283171Y-55353304D01*
X143265615Y-55440000D01*
X143265615Y-55660000D01*
X143283171Y-55753304D01*
X143265615Y-55840000D01*
X143265615Y-56060000D01*
X143283171Y-56153304D01*
X143265615Y-56240000D01*
X143265615Y-56460000D01*
X143283171Y-56553304D01*
X143265615Y-56640000D01*
X143265615Y-56860000D01*
X143283171Y-56953304D01*
X143265615Y-57040000D01*
X143265615Y-57260000D01*
X143283171Y-57353304D01*
X143265615Y-57440000D01*
X143265615Y-57660000D01*
X143283171Y-57753304D01*
X143265615Y-57840000D01*
X143265615Y-58060000D01*
X143283171Y-58153304D01*
X143265615Y-58240000D01*
X143265615Y-58460000D01*
X143283171Y-58553304D01*
X143269783Y-58619419D01*
X143196696Y-58633171D01*
X143110000Y-58615615D01*
X142890000Y-58615615D01*
X142796696Y-58633171D01*
X142710000Y-58615615D01*
X142490000Y-58615615D01*
X142396696Y-58633171D01*
X142310000Y-58615615D01*
X142090000Y-58615615D01*
X141996696Y-58633171D01*
X141910000Y-58615615D01*
X141690000Y-58615615D01*
X141596696Y-58633171D01*
X141510000Y-58615615D01*
X141290000Y-58615615D01*
X141196696Y-58633171D01*
X141110000Y-58615615D01*
X140890000Y-58615615D01*
X140796696Y-58633171D01*
X140710000Y-58615615D01*
X140490000Y-58615615D01*
X140396696Y-58633171D01*
X140310000Y-58615615D01*
X140090000Y-58615615D01*
X139950292Y-58641903D01*
X139934385Y-58652139D01*
X139934385Y-58640000D01*
X139916829Y-58546696D01*
X139934385Y-58460000D01*
X139934385Y-58240000D01*
X139916829Y-58146696D01*
X139934385Y-58060000D01*
X139934385Y-57840000D01*
X139916829Y-57746696D01*
X139934385Y-57660000D01*
X139934385Y-57440000D01*
X139916829Y-57346696D01*
X139934385Y-57260000D01*
X139934385Y-57040000D01*
X139916829Y-56946696D01*
X139934385Y-56860000D01*
X139934385Y-56640000D01*
X139916829Y-56546696D01*
X139934385Y-56460000D01*
X139934385Y-56240000D01*
X139916829Y-56146696D01*
X139934385Y-56060000D01*
X139934385Y-55840000D01*
X139916829Y-55746696D01*
X139934385Y-55660000D01*
X139934385Y-55440000D01*
X139916829Y-55346696D01*
X139930217Y-55280581D01*
X140003304Y-55266829D01*
X140090000Y-55284385D01*
X140310000Y-55284385D01*
X140403304Y-55266829D01*
X140490000Y-55284385D01*
X140710000Y-55284385D01*
X140803304Y-55266829D01*
X140890000Y-55284385D01*
X141110000Y-55284385D01*
X141203304Y-55266829D01*
X141290000Y-55284385D01*
X141510000Y-55284385D01*
X141603304Y-55266829D01*
X141690000Y-55284385D01*
X141910000Y-55284385D01*
X142003304Y-55266829D01*
X142090000Y-55284385D01*
X142310000Y-55284385D01*
X142403304Y-55266829D01*
X142490000Y-55284385D01*
X142710000Y-55284385D01*
X142803304Y-55266829D01*
X142890000Y-55284385D01*
X143110000Y-55284385D01*
X143203304Y-55266829D01*
X143269419Y-55280217D01*
X143269419Y-55280217D01*
G37*
X143269419Y-55280217D02*
X143283171Y-55353304D01*
X143265615Y-55440000D01*
X143265615Y-55660000D01*
X143283171Y-55753304D01*
X143265615Y-55840000D01*
X143265615Y-56060000D01*
X143283171Y-56153304D01*
X143265615Y-56240000D01*
X143265615Y-56460000D01*
X143283171Y-56553304D01*
X143265615Y-56640000D01*
X143265615Y-56860000D01*
X143283171Y-56953304D01*
X143265615Y-57040000D01*
X143265615Y-57260000D01*
X143283171Y-57353304D01*
X143265615Y-57440000D01*
X143265615Y-57660000D01*
X143283171Y-57753304D01*
X143265615Y-57840000D01*
X143265615Y-58060000D01*
X143283171Y-58153304D01*
X143265615Y-58240000D01*
X143265615Y-58460000D01*
X143283171Y-58553304D01*
X143269783Y-58619419D01*
X143196696Y-58633171D01*
X143110000Y-58615615D01*
X142890000Y-58615615D01*
X142796696Y-58633171D01*
X142710000Y-58615615D01*
X142490000Y-58615615D01*
X142396696Y-58633171D01*
X142310000Y-58615615D01*
X142090000Y-58615615D01*
X141996696Y-58633171D01*
X141910000Y-58615615D01*
X141690000Y-58615615D01*
X141596696Y-58633171D01*
X141510000Y-58615615D01*
X141290000Y-58615615D01*
X141196696Y-58633171D01*
X141110000Y-58615615D01*
X140890000Y-58615615D01*
X140796696Y-58633171D01*
X140710000Y-58615615D01*
X140490000Y-58615615D01*
X140396696Y-58633171D01*
X140310000Y-58615615D01*
X140090000Y-58615615D01*
X139950292Y-58641903D01*
X139934385Y-58652139D01*
X139934385Y-58640000D01*
X139916829Y-58546696D01*
X139934385Y-58460000D01*
X139934385Y-58240000D01*
X139916829Y-58146696D01*
X139934385Y-58060000D01*
X139934385Y-57840000D01*
X139916829Y-57746696D01*
X139934385Y-57660000D01*
X139934385Y-57440000D01*
X139916829Y-57346696D01*
X139934385Y-57260000D01*
X139934385Y-57040000D01*
X139916829Y-56946696D01*
X139934385Y-56860000D01*
X139934385Y-56640000D01*
X139916829Y-56546696D01*
X139934385Y-56460000D01*
X139934385Y-56240000D01*
X139916829Y-56146696D01*
X139934385Y-56060000D01*
X139934385Y-55840000D01*
X139916829Y-55746696D01*
X139934385Y-55660000D01*
X139934385Y-55440000D01*
X139916829Y-55346696D01*
X139930217Y-55280581D01*
X140003304Y-55266829D01*
X140090000Y-55284385D01*
X140310000Y-55284385D01*
X140403304Y-55266829D01*
X140490000Y-55284385D01*
X140710000Y-55284385D01*
X140803304Y-55266829D01*
X140890000Y-55284385D01*
X141110000Y-55284385D01*
X141203304Y-55266829D01*
X141290000Y-55284385D01*
X141510000Y-55284385D01*
X141603304Y-55266829D01*
X141690000Y-55284385D01*
X141910000Y-55284385D01*
X142003304Y-55266829D01*
X142090000Y-55284385D01*
X142310000Y-55284385D01*
X142403304Y-55266829D01*
X142490000Y-55284385D01*
X142710000Y-55284385D01*
X142803304Y-55266829D01*
X142890000Y-55284385D01*
X143110000Y-55284385D01*
X143203304Y-55266829D01*
X143269419Y-55280217D01*
G36*
X145028079Y-51723193D02*
X145256124Y-52064486D01*
X145597417Y-52292531D01*
X145916845Y-52356069D01*
X147888428Y-54327653D01*
X147860615Y-54465000D01*
X147860615Y-54926042D01*
X147794547Y-54880899D01*
X147645000Y-54850615D01*
X146934260Y-54850615D01*
X146934385Y-54850000D01*
X146934385Y-54250000D01*
X146908097Y-54110292D01*
X146825530Y-53981980D01*
X146699547Y-53895899D01*
X146550000Y-53865615D01*
X146050000Y-53865615D01*
X145910292Y-53891903D01*
X145901747Y-53897402D01*
X145899547Y-53895899D01*
X145750000Y-53865615D01*
X145250000Y-53865615D01*
X145110292Y-53891903D01*
X144981980Y-53974470D01*
X144930390Y-54049973D01*
X144745271Y-53973105D01*
X144660591Y-53973031D01*
X144690560Y-53960648D01*
X144860053Y-53791451D01*
X144951895Y-53570271D01*
X144952104Y-53330780D01*
X144860648Y-53109440D01*
X144691451Y-52939947D01*
X144470271Y-52848105D01*
X144230780Y-52847896D01*
X144009440Y-52939352D01*
X143875558Y-53073000D01*
X143457570Y-53073000D01*
X143410648Y-52959440D01*
X143270339Y-52818885D01*
X143763631Y-52325593D01*
X144000000Y-52372610D01*
X144402583Y-52292531D01*
X144743876Y-52064486D01*
X144971921Y-51723193D01*
X145000000Y-51582031D01*
X145028079Y-51723193D01*
X145028079Y-51723193D01*
G37*
X145028079Y-51723193D02*
X145256124Y-52064486D01*
X145597417Y-52292531D01*
X145916845Y-52356069D01*
X147888428Y-54327653D01*
X147860615Y-54465000D01*
X147860615Y-54926042D01*
X147794547Y-54880899D01*
X147645000Y-54850615D01*
X146934260Y-54850615D01*
X146934385Y-54850000D01*
X146934385Y-54250000D01*
X146908097Y-54110292D01*
X146825530Y-53981980D01*
X146699547Y-53895899D01*
X146550000Y-53865615D01*
X146050000Y-53865615D01*
X145910292Y-53891903D01*
X145901747Y-53897402D01*
X145899547Y-53895899D01*
X145750000Y-53865615D01*
X145250000Y-53865615D01*
X145110292Y-53891903D01*
X144981980Y-53974470D01*
X144930390Y-54049973D01*
X144745271Y-53973105D01*
X144660591Y-53973031D01*
X144690560Y-53960648D01*
X144860053Y-53791451D01*
X144951895Y-53570271D01*
X144952104Y-53330780D01*
X144860648Y-53109440D01*
X144691451Y-52939947D01*
X144470271Y-52848105D01*
X144230780Y-52847896D01*
X144009440Y-52939352D01*
X143875558Y-53073000D01*
X143457570Y-53073000D01*
X143410648Y-52959440D01*
X143270339Y-52818885D01*
X143763631Y-52325593D01*
X144000000Y-52372610D01*
X144402583Y-52292531D01*
X144743876Y-52064486D01*
X144971921Y-51723193D01*
X145000000Y-51582031D01*
X145028079Y-51723193D01*
G36*
X136982469Y-52922417D02*
X136902390Y-53325000D01*
X136982469Y-53727583D01*
X137210514Y-54068876D01*
X137551807Y-54296921D01*
X137954390Y-54377000D01*
X137995610Y-54377000D01*
X138398193Y-54296921D01*
X138739486Y-54068876D01*
X138967531Y-53727583D01*
X139047610Y-53325000D01*
X138993307Y-53052000D01*
X139095586Y-53052000D01*
X139065615Y-53200000D01*
X139065615Y-53800000D01*
X139091903Y-53939708D01*
X139174470Y-54068020D01*
X139300453Y-54154101D01*
X139305615Y-54155146D01*
X139305615Y-54655615D01*
X138740000Y-54655615D01*
X138600292Y-54681903D01*
X138575277Y-54698000D01*
X137037224Y-54698000D01*
X136334385Y-53995161D01*
X136334385Y-53750000D01*
X136308097Y-53610292D01*
X136225530Y-53481980D01*
X136126384Y-53414236D01*
X136159553Y-53407638D01*
X136557620Y-53141658D01*
X136801277Y-52777000D01*
X137079634Y-52777000D01*
X136982469Y-52922417D01*
X136982469Y-52922417D01*
G37*
X136982469Y-52922417D02*
X136902390Y-53325000D01*
X136982469Y-53727583D01*
X137210514Y-54068876D01*
X137551807Y-54296921D01*
X137954390Y-54377000D01*
X137995610Y-54377000D01*
X138398193Y-54296921D01*
X138739486Y-54068876D01*
X138967531Y-53727583D01*
X139047610Y-53325000D01*
X138993307Y-53052000D01*
X139095586Y-53052000D01*
X139065615Y-53200000D01*
X139065615Y-53800000D01*
X139091903Y-53939708D01*
X139174470Y-54068020D01*
X139300453Y-54154101D01*
X139305615Y-54155146D01*
X139305615Y-54655615D01*
X138740000Y-54655615D01*
X138600292Y-54681903D01*
X138575277Y-54698000D01*
X137037224Y-54698000D01*
X136334385Y-53995161D01*
X136334385Y-53750000D01*
X136308097Y-53610292D01*
X136225530Y-53481980D01*
X136126384Y-53414236D01*
X136159553Y-53407638D01*
X136557620Y-53141658D01*
X136801277Y-52777000D01*
X137079634Y-52777000D01*
X136982469Y-52922417D01*
G36*
X141256124Y-50535514D02*
X141028079Y-50876807D01*
X140948000Y-51279390D01*
X140948000Y-51320610D01*
X141028079Y-51723193D01*
X141256124Y-52064486D01*
X141548000Y-52259512D01*
X141548000Y-52259569D01*
X141504222Y-52364998D01*
X141419612Y-52280388D01*
X141272973Y-52182406D01*
X141100215Y-52148043D01*
X141025530Y-52031980D01*
X140899547Y-51945899D01*
X140750000Y-51915615D01*
X140350000Y-51915615D01*
X140210292Y-51941903D01*
X140098748Y-52013680D01*
X139999547Y-51945899D01*
X139850000Y-51915615D01*
X139450000Y-51915615D01*
X139310292Y-51941903D01*
X139181980Y-52024470D01*
X139103521Y-52139297D01*
X139022570Y-52058346D01*
X139034385Y-52000000D01*
X139034385Y-50695160D01*
X139172973Y-50667594D01*
X139319612Y-50569612D01*
X139417594Y-50422973D01*
X139426738Y-50377000D01*
X141493357Y-50377000D01*
X141256124Y-50535514D01*
X141256124Y-50535514D01*
G37*
X141256124Y-50535514D02*
X141028079Y-50876807D01*
X140948000Y-51279390D01*
X140948000Y-51320610D01*
X141028079Y-51723193D01*
X141256124Y-52064486D01*
X141548000Y-52259512D01*
X141548000Y-52259569D01*
X141504222Y-52364998D01*
X141419612Y-52280388D01*
X141272973Y-52182406D01*
X141100215Y-52148043D01*
X141025530Y-52031980D01*
X140899547Y-51945899D01*
X140750000Y-51915615D01*
X140350000Y-51915615D01*
X140210292Y-51941903D01*
X140098748Y-52013680D01*
X139999547Y-51945899D01*
X139850000Y-51915615D01*
X139450000Y-51915615D01*
X139310292Y-51941903D01*
X139181980Y-52024470D01*
X139103521Y-52139297D01*
X139022570Y-52058346D01*
X139034385Y-52000000D01*
X139034385Y-50695160D01*
X139172973Y-50667594D01*
X139319612Y-50569612D01*
X139417594Y-50422973D01*
X139426738Y-50377000D01*
X141493357Y-50377000D01*
X141256124Y-50535514D01*
M02*
