%TF.GenerationSoftware,KiCad,Pcbnew,4.0.7*%
%TF.CreationDate,2019-06-15T20:20:24-05:00*%
%TF.ProjectId,GolfGloveMainBoardV1.0.0,476F6C66476C6F76654D61696E426F61,rev?*%
%TF.FileFunction,Soldermask,Top*%
%FSLAX46Y46*%
G04 Gerber Fmt 4.6, Leading zero omitted, Abs format (unit mm)*
G04 Created by KiCad (PCBNEW 4.0.7) date 06/15/19 20:20:24*
%MOMM*%
%LPD*%
G01*
G04 APERTURE LIST*
%ADD10C,0.100000*%
%ADD11C,0.150000*%
G04 APERTURE END LIST*
D10*
D11*
X156650000Y-73250000D02*
X156650000Y-50250000D01*
X159250000Y-79300000D02*
X156650000Y-79300000D01*
X159250000Y-73250000D02*
X159250000Y-79300000D01*
X156650000Y-73250000D02*
X159250000Y-73250000D01*
X131900000Y-76625000D02*
X131900000Y-75525000D01*
X127650000Y-76625000D02*
X131900000Y-76625000D01*
X127650000Y-52875000D02*
X127650000Y-76625000D01*
X131900000Y-75525000D02*
X131900000Y-52875000D01*
X127650000Y-52875000D02*
X131900000Y-52875000D01*
X131900000Y-50250000D02*
X127650000Y-50250000D01*
X156650000Y-79300000D02*
X102900000Y-79300000D01*
X139000000Y-48100000D02*
X139000000Y-37900000D01*
X139000000Y-37900000D02*
X151000000Y-37900000D01*
X151000000Y-37900000D02*
X151000000Y-48100000D01*
X131900000Y-50250000D02*
X139000000Y-50250000D01*
X139000000Y-50250000D02*
X139000000Y-48100000D01*
X151000000Y-48100000D02*
X151000000Y-50250000D01*
X151000000Y-50250000D02*
X156650000Y-50250000D01*
X142000000Y-48100000D02*
X142000000Y-50275000D01*
X148000000Y-48100000D02*
X148000000Y-50250000D01*
X148000000Y-50275000D02*
X142000000Y-50275000D01*
X142000000Y-48100000D02*
X148000000Y-48100000D01*
X113000000Y-48100000D02*
X119000000Y-48100000D01*
X119000000Y-50275000D02*
X113000000Y-50275000D01*
X119000000Y-48100000D02*
X119000000Y-50250000D01*
X113000000Y-48100000D02*
X113000000Y-50275000D01*
X122000000Y-50250000D02*
X127650000Y-50250000D01*
X122000000Y-48100000D02*
X122000000Y-50250000D01*
X110000000Y-50250000D02*
X110000000Y-48100000D01*
X102900000Y-50250000D02*
X110000000Y-50250000D01*
X102900000Y-50250000D02*
X102900000Y-50350000D01*
X102900000Y-50350000D02*
X102900000Y-79300000D01*
X122000000Y-37900000D02*
X122000000Y-48100000D01*
X110000000Y-37900000D02*
X122000000Y-37900000D01*
X110000000Y-48100000D02*
X110000000Y-37900000D01*
D10*
G36*
X118400000Y-75212430D02*
X118404949Y-75247254D01*
X118419404Y-75279321D01*
X118442220Y-75306091D01*
X118471590Y-75325445D01*
X118505190Y-75335850D01*
X118540358Y-75336483D01*
X118574311Y-75327293D01*
X118604358Y-75309008D01*
X118628139Y-75283051D01*
X118678607Y-75209343D01*
X118741661Y-75147597D01*
X118815505Y-75099275D01*
X118897330Y-75066215D01*
X118984018Y-75049679D01*
X119072266Y-75050294D01*
X119158713Y-75068039D01*
X119240069Y-75102239D01*
X119313231Y-75151587D01*
X119375417Y-75214209D01*
X119424254Y-75287714D01*
X119457884Y-75369306D01*
X119474853Y-75455007D01*
X119474853Y-75455035D01*
X119475019Y-75455875D01*
X119473611Y-75556673D01*
X119473421Y-75557508D01*
X119473421Y-75557532D01*
X119454064Y-75642731D01*
X119418170Y-75723354D01*
X119367301Y-75795465D01*
X119303392Y-75856323D01*
X119243301Y-75894459D01*
X119216550Y-75917298D01*
X119197220Y-75946685D01*
X119186843Y-75980293D01*
X119186240Y-76015462D01*
X119195458Y-76049407D01*
X119213769Y-76079439D01*
X119239721Y-76103181D01*
X119271260Y-76118754D01*
X119310280Y-76125000D01*
X121900000Y-76125000D01*
X121900000Y-78525000D01*
X120500000Y-78525000D01*
X120500000Y-77150000D01*
X120495051Y-77115176D01*
X120480596Y-77083109D01*
X120457780Y-77056339D01*
X120428410Y-77036985D01*
X120394810Y-77026580D01*
X120375000Y-77025000D01*
X119581487Y-77025000D01*
X119546663Y-77029949D01*
X119514596Y-77044404D01*
X119487826Y-77067220D01*
X119468472Y-77096590D01*
X119458067Y-77130190D01*
X119458868Y-77174279D01*
X119474853Y-77255007D01*
X119474853Y-77255035D01*
X119475019Y-77255875D01*
X119473611Y-77356673D01*
X119473421Y-77357508D01*
X119473421Y-77357532D01*
X119454064Y-77442731D01*
X119418170Y-77523354D01*
X119367301Y-77595465D01*
X119303392Y-77656323D01*
X119228875Y-77703614D01*
X119146603Y-77735525D01*
X119059693Y-77750849D01*
X118959205Y-77748745D01*
X118959192Y-77749344D01*
X118945180Y-77748286D01*
X118910756Y-77755514D01*
X118879709Y-77772045D01*
X118854497Y-77796572D01*
X118837115Y-77827151D01*
X118828941Y-77861362D01*
X118830622Y-77896496D01*
X118837829Y-77920650D01*
X118857884Y-77969306D01*
X118874853Y-78055007D01*
X118874853Y-78055035D01*
X118875019Y-78055875D01*
X118873611Y-78156673D01*
X118873421Y-78157508D01*
X118873421Y-78157532D01*
X118854064Y-78242734D01*
X118838564Y-78277548D01*
X118828921Y-78311374D01*
X118829084Y-78346548D01*
X118839040Y-78380284D01*
X118858000Y-78409910D01*
X118884463Y-78433082D01*
X118916334Y-78447963D01*
X118951089Y-78453377D01*
X118976183Y-78451173D01*
X118984016Y-78449679D01*
X119072266Y-78450294D01*
X119158713Y-78468039D01*
X119240069Y-78502239D01*
X119313231Y-78551587D01*
X119375417Y-78614209D01*
X119424254Y-78687714D01*
X119457884Y-78769306D01*
X119474853Y-78855007D01*
X119474853Y-78855035D01*
X119475019Y-78855875D01*
X119473611Y-78956673D01*
X119473421Y-78957508D01*
X119473421Y-78957532D01*
X119454064Y-79042731D01*
X119418170Y-79123354D01*
X119367301Y-79195465D01*
X119303392Y-79256323D01*
X119228875Y-79303614D01*
X119146603Y-79335525D01*
X119059693Y-79350849D01*
X118971459Y-79349002D01*
X118885269Y-79330051D01*
X118804396Y-79294719D01*
X118731930Y-79244353D01*
X118670630Y-79180876D01*
X118622821Y-79106690D01*
X118590333Y-79024636D01*
X118574403Y-78937841D01*
X118575636Y-78849593D01*
X118593984Y-78763274D01*
X118612378Y-78720356D01*
X118621548Y-78686398D01*
X118620894Y-78651230D01*
X118610469Y-78617637D01*
X118591098Y-78588278D01*
X118564314Y-78565478D01*
X118532238Y-78551042D01*
X118497411Y-78546114D01*
X118475781Y-78548013D01*
X118459694Y-78550849D01*
X118359205Y-78548745D01*
X118359192Y-78549344D01*
X118345180Y-78548286D01*
X118310756Y-78555514D01*
X118279709Y-78572045D01*
X118254497Y-78596572D01*
X118237115Y-78627151D01*
X118228941Y-78661362D01*
X118230622Y-78696496D01*
X118237829Y-78720650D01*
X118257884Y-78769306D01*
X118274853Y-78855007D01*
X118274853Y-78855035D01*
X118275019Y-78855875D01*
X118273611Y-78956673D01*
X118273421Y-78957508D01*
X118273421Y-78957532D01*
X118254064Y-79042731D01*
X118218170Y-79123354D01*
X118167301Y-79195465D01*
X118103392Y-79256323D01*
X118028875Y-79303614D01*
X117946603Y-79335525D01*
X117859693Y-79350849D01*
X117771459Y-79349002D01*
X117685269Y-79330051D01*
X117604396Y-79294719D01*
X117531930Y-79244353D01*
X117470630Y-79180876D01*
X117422821Y-79106690D01*
X117390333Y-79024636D01*
X117374403Y-78937841D01*
X117375636Y-78849593D01*
X117393984Y-78763274D01*
X117412378Y-78720356D01*
X117421548Y-78686398D01*
X117420894Y-78651230D01*
X117410469Y-78617637D01*
X117391098Y-78588278D01*
X117364314Y-78565478D01*
X117332238Y-78551042D01*
X117297411Y-78546114D01*
X117275781Y-78548013D01*
X117259694Y-78550849D01*
X117159205Y-78548745D01*
X117159192Y-78549344D01*
X117145180Y-78548286D01*
X117110756Y-78555514D01*
X117079709Y-78572045D01*
X117054497Y-78596572D01*
X117037115Y-78627151D01*
X117028941Y-78661362D01*
X117030622Y-78696496D01*
X117037829Y-78720650D01*
X117057884Y-78769306D01*
X117074853Y-78855007D01*
X117074853Y-78855035D01*
X117075019Y-78855875D01*
X117073611Y-78956673D01*
X117073421Y-78957508D01*
X117073421Y-78957532D01*
X117054064Y-79042731D01*
X117018170Y-79123354D01*
X116967301Y-79195465D01*
X116903392Y-79256323D01*
X116828875Y-79303614D01*
X116746603Y-79335525D01*
X116659693Y-79350849D01*
X116571459Y-79349002D01*
X116485269Y-79330051D01*
X116404396Y-79294719D01*
X116331930Y-79244353D01*
X116270630Y-79180876D01*
X116222821Y-79106690D01*
X116190333Y-79024636D01*
X116174403Y-78937841D01*
X116175636Y-78849593D01*
X116193984Y-78763274D01*
X116212378Y-78720356D01*
X116221548Y-78686398D01*
X116220894Y-78651230D01*
X116210469Y-78617637D01*
X116191098Y-78588278D01*
X116164314Y-78565478D01*
X116132238Y-78551042D01*
X116097411Y-78546114D01*
X116075781Y-78548013D01*
X116059694Y-78550849D01*
X115959205Y-78548745D01*
X115959192Y-78549344D01*
X115945180Y-78548286D01*
X115910756Y-78555514D01*
X115879709Y-78572045D01*
X115854497Y-78596572D01*
X115837115Y-78627151D01*
X115828941Y-78661362D01*
X115830622Y-78696496D01*
X115837829Y-78720650D01*
X115857884Y-78769306D01*
X115874853Y-78855007D01*
X115874853Y-78855035D01*
X115875019Y-78855875D01*
X115873611Y-78956673D01*
X115873421Y-78957508D01*
X115873421Y-78957532D01*
X115854064Y-79042731D01*
X115818170Y-79123354D01*
X115767301Y-79195465D01*
X115703392Y-79256323D01*
X115628875Y-79303614D01*
X115546603Y-79335525D01*
X115459693Y-79350849D01*
X115371459Y-79349002D01*
X115285269Y-79330051D01*
X115204396Y-79294719D01*
X115131930Y-79244353D01*
X115070630Y-79180876D01*
X115022821Y-79106690D01*
X114990333Y-79024636D01*
X114974403Y-78937841D01*
X114975636Y-78849593D01*
X114993984Y-78763274D01*
X115012378Y-78720356D01*
X115021548Y-78686398D01*
X115020894Y-78651230D01*
X115010469Y-78617637D01*
X114991098Y-78588278D01*
X114964314Y-78565478D01*
X114932238Y-78551042D01*
X114897411Y-78546114D01*
X114875781Y-78548013D01*
X114859694Y-78550849D01*
X114771459Y-78549002D01*
X114685269Y-78530051D01*
X114604396Y-78494719D01*
X114531930Y-78444353D01*
X114470628Y-78380874D01*
X114430071Y-78317941D01*
X114424386Y-78311374D01*
X115228921Y-78311374D01*
X115229084Y-78346548D01*
X115239040Y-78380284D01*
X115258000Y-78409910D01*
X115284463Y-78433082D01*
X115316334Y-78447963D01*
X115351089Y-78453377D01*
X115376183Y-78451173D01*
X115384016Y-78449679D01*
X115474118Y-78450307D01*
X115506676Y-78452304D01*
X115540994Y-78444592D01*
X115571805Y-78427623D01*
X115596669Y-78402743D01*
X115613617Y-78371922D01*
X115621307Y-78337599D01*
X115619681Y-78311374D01*
X116428921Y-78311374D01*
X116429084Y-78346548D01*
X116439040Y-78380284D01*
X116458000Y-78409910D01*
X116484463Y-78433082D01*
X116516334Y-78447963D01*
X116551089Y-78453377D01*
X116576183Y-78451173D01*
X116584016Y-78449679D01*
X116674118Y-78450307D01*
X116706676Y-78452304D01*
X116740994Y-78444592D01*
X116771805Y-78427623D01*
X116796669Y-78402743D01*
X116813617Y-78371922D01*
X116821307Y-78337599D01*
X116819681Y-78311374D01*
X117628921Y-78311374D01*
X117629084Y-78346548D01*
X117639040Y-78380284D01*
X117658000Y-78409910D01*
X117684463Y-78433082D01*
X117716334Y-78447963D01*
X117751089Y-78453377D01*
X117776183Y-78451173D01*
X117784016Y-78449679D01*
X117874118Y-78450307D01*
X117906676Y-78452304D01*
X117940994Y-78444592D01*
X117971805Y-78427623D01*
X117996669Y-78402743D01*
X118013617Y-78371922D01*
X118021307Y-78337599D01*
X118019130Y-78302492D01*
X118012921Y-78281688D01*
X117990333Y-78224638D01*
X117974403Y-78137841D01*
X117975636Y-78049593D01*
X117993984Y-77963274D01*
X118012378Y-77920356D01*
X118021548Y-77886398D01*
X118020894Y-77851230D01*
X118010469Y-77817637D01*
X117991098Y-77788278D01*
X117964314Y-77765478D01*
X117932238Y-77751042D01*
X117897411Y-77746114D01*
X117875781Y-77748013D01*
X117859694Y-77750849D01*
X117759205Y-77748745D01*
X117759192Y-77749344D01*
X117745180Y-77748286D01*
X117710756Y-77755514D01*
X117679709Y-77772045D01*
X117654497Y-77796572D01*
X117637115Y-77827151D01*
X117628941Y-77861362D01*
X117630622Y-77896496D01*
X117637829Y-77920650D01*
X117657884Y-77969306D01*
X117674853Y-78055007D01*
X117674853Y-78055035D01*
X117675019Y-78055875D01*
X117673611Y-78156673D01*
X117673421Y-78157508D01*
X117673421Y-78157532D01*
X117654064Y-78242734D01*
X117638564Y-78277548D01*
X117628921Y-78311374D01*
X116819681Y-78311374D01*
X116819130Y-78302492D01*
X116812921Y-78281688D01*
X116790333Y-78224638D01*
X116774403Y-78137841D01*
X116775636Y-78049593D01*
X116793984Y-77963274D01*
X116812378Y-77920356D01*
X116821548Y-77886398D01*
X116820894Y-77851230D01*
X116810469Y-77817637D01*
X116791098Y-77788278D01*
X116764314Y-77765478D01*
X116732238Y-77751042D01*
X116697411Y-77746114D01*
X116675781Y-77748013D01*
X116659694Y-77750849D01*
X116559205Y-77748745D01*
X116559192Y-77749344D01*
X116545180Y-77748286D01*
X116510756Y-77755514D01*
X116479709Y-77772045D01*
X116454497Y-77796572D01*
X116437115Y-77827151D01*
X116428941Y-77861362D01*
X116430622Y-77896496D01*
X116437829Y-77920650D01*
X116457884Y-77969306D01*
X116474853Y-78055007D01*
X116474853Y-78055035D01*
X116475019Y-78055875D01*
X116473611Y-78156673D01*
X116473421Y-78157508D01*
X116473421Y-78157532D01*
X116454064Y-78242734D01*
X116438564Y-78277548D01*
X116428921Y-78311374D01*
X115619681Y-78311374D01*
X115619130Y-78302492D01*
X115612921Y-78281688D01*
X115590333Y-78224638D01*
X115574403Y-78137841D01*
X115575636Y-78049593D01*
X115593984Y-77963274D01*
X115612378Y-77920356D01*
X115621548Y-77886398D01*
X115620894Y-77851230D01*
X115610469Y-77817637D01*
X115591098Y-77788278D01*
X115564314Y-77765478D01*
X115532238Y-77751042D01*
X115497411Y-77746114D01*
X115475781Y-77748013D01*
X115459694Y-77750849D01*
X115359205Y-77748745D01*
X115359192Y-77749344D01*
X115345180Y-77748286D01*
X115310756Y-77755514D01*
X115279709Y-77772045D01*
X115254497Y-77796572D01*
X115237115Y-77827151D01*
X115228941Y-77861362D01*
X115230622Y-77896496D01*
X115237829Y-77920650D01*
X115257884Y-77969306D01*
X115274853Y-78055007D01*
X115274853Y-78055035D01*
X115275019Y-78055875D01*
X115273611Y-78156673D01*
X115273421Y-78157508D01*
X115273421Y-78157532D01*
X115254064Y-78242734D01*
X115238564Y-78277548D01*
X115228921Y-78311374D01*
X114424386Y-78311374D01*
X114407047Y-78291349D01*
X114377526Y-78272225D01*
X114343846Y-78262083D01*
X114308673Y-78261725D01*
X114274794Y-78271180D01*
X114244890Y-78289699D01*
X114221329Y-78315816D01*
X114205977Y-78347463D01*
X114200000Y-78385654D01*
X114200000Y-79100000D01*
X112100000Y-79100000D01*
X112100000Y-77000000D01*
X114200000Y-77000000D01*
X114200000Y-77812430D01*
X114204949Y-77847254D01*
X114219404Y-77879321D01*
X114242220Y-77906091D01*
X114271590Y-77925445D01*
X114305190Y-77935850D01*
X114340358Y-77936483D01*
X114374311Y-77927293D01*
X114404358Y-77909008D01*
X114428139Y-77883051D01*
X114478607Y-77809343D01*
X114541661Y-77747597D01*
X114615505Y-77699275D01*
X114697330Y-77666215D01*
X114784018Y-77649679D01*
X114874118Y-77650307D01*
X114906676Y-77652304D01*
X114940994Y-77644592D01*
X114971805Y-77627623D01*
X114996669Y-77602743D01*
X115013617Y-77571922D01*
X115021307Y-77537599D01*
X115019681Y-77511374D01*
X115828921Y-77511374D01*
X115829084Y-77546548D01*
X115839040Y-77580284D01*
X115858000Y-77609910D01*
X115884463Y-77633082D01*
X115916334Y-77647963D01*
X115951089Y-77653377D01*
X115976183Y-77651173D01*
X115984016Y-77649679D01*
X116074118Y-77650307D01*
X116106676Y-77652304D01*
X116140994Y-77644592D01*
X116171805Y-77627623D01*
X116196669Y-77602743D01*
X116213617Y-77571922D01*
X116221307Y-77537599D01*
X116219130Y-77502492D01*
X116212921Y-77481688D01*
X116190333Y-77424638D01*
X116174403Y-77337841D01*
X116175636Y-77249593D01*
X116193984Y-77163274D01*
X116212378Y-77120356D01*
X116221548Y-77086398D01*
X116220894Y-77051230D01*
X116210469Y-77017637D01*
X116191098Y-76988278D01*
X116164314Y-76965478D01*
X116132238Y-76951042D01*
X116097411Y-76946114D01*
X116075781Y-76948013D01*
X116059694Y-76950849D01*
X115959205Y-76948745D01*
X115959192Y-76949344D01*
X115945180Y-76948286D01*
X115910756Y-76955514D01*
X115879709Y-76972045D01*
X115854497Y-76996572D01*
X115837115Y-77027151D01*
X115828941Y-77061362D01*
X115830622Y-77096496D01*
X115837829Y-77120650D01*
X115857884Y-77169306D01*
X115874853Y-77255007D01*
X115874853Y-77255035D01*
X115875019Y-77255875D01*
X115873611Y-77356673D01*
X115873421Y-77357508D01*
X115873421Y-77357532D01*
X115854064Y-77442734D01*
X115838564Y-77477548D01*
X115828921Y-77511374D01*
X115019681Y-77511374D01*
X115019130Y-77502492D01*
X115012921Y-77481688D01*
X114990333Y-77424638D01*
X114974403Y-77337841D01*
X114975636Y-77249593D01*
X114993984Y-77163274D01*
X115012378Y-77120356D01*
X115021548Y-77086398D01*
X115020894Y-77051230D01*
X115010469Y-77017637D01*
X114991098Y-76988278D01*
X114964314Y-76965478D01*
X114932238Y-76951042D01*
X114897411Y-76946114D01*
X114875781Y-76948013D01*
X114859694Y-76950849D01*
X114771459Y-76949002D01*
X114685269Y-76930051D01*
X114604396Y-76894719D01*
X114531930Y-76844353D01*
X114470630Y-76780876D01*
X114425840Y-76711374D01*
X115228921Y-76711374D01*
X115229084Y-76746548D01*
X115239040Y-76780284D01*
X115258000Y-76809910D01*
X115284463Y-76833082D01*
X115316334Y-76847963D01*
X115351089Y-76853377D01*
X115376183Y-76851173D01*
X115384016Y-76849679D01*
X115474118Y-76850307D01*
X115506676Y-76852304D01*
X115540994Y-76844592D01*
X115571805Y-76827623D01*
X115596669Y-76802743D01*
X115613617Y-76771922D01*
X115621307Y-76737599D01*
X115619130Y-76702492D01*
X115612921Y-76681688D01*
X115590333Y-76624638D01*
X115574403Y-76537841D01*
X115575636Y-76449593D01*
X115593984Y-76363274D01*
X115612378Y-76320356D01*
X115621548Y-76286398D01*
X115620894Y-76251230D01*
X115610469Y-76217637D01*
X115591098Y-76188278D01*
X115564314Y-76165478D01*
X115532238Y-76151042D01*
X115497411Y-76146114D01*
X115475781Y-76148013D01*
X115459694Y-76150849D01*
X115359205Y-76148745D01*
X115359192Y-76149344D01*
X115345180Y-76148286D01*
X115310756Y-76155514D01*
X115279709Y-76172045D01*
X115254497Y-76196572D01*
X115237115Y-76227151D01*
X115228941Y-76261362D01*
X115230622Y-76296496D01*
X115237829Y-76320650D01*
X115257884Y-76369306D01*
X115274853Y-76455007D01*
X115274853Y-76455035D01*
X115275019Y-76455875D01*
X115273611Y-76556673D01*
X115273421Y-76557508D01*
X115273421Y-76557532D01*
X115254064Y-76642734D01*
X115238564Y-76677548D01*
X115228921Y-76711374D01*
X114425840Y-76711374D01*
X114422821Y-76706690D01*
X114390333Y-76624636D01*
X114374403Y-76537841D01*
X114375636Y-76449593D01*
X114393984Y-76363274D01*
X114428749Y-76282159D01*
X114478607Y-76209343D01*
X114541661Y-76147597D01*
X114615505Y-76099275D01*
X114697330Y-76066215D01*
X114784018Y-76049679D01*
X114874118Y-76050307D01*
X114906676Y-76052304D01*
X114940994Y-76044592D01*
X114971805Y-76027623D01*
X114996669Y-76002743D01*
X115013617Y-75971922D01*
X115021307Y-75937599D01*
X115019130Y-75902492D01*
X115012921Y-75881688D01*
X114990333Y-75824638D01*
X114974403Y-75737841D01*
X114975636Y-75649593D01*
X114993984Y-75563274D01*
X115028751Y-75482156D01*
X115054502Y-75444547D01*
X115070093Y-75413018D01*
X115076283Y-75378392D01*
X115073162Y-75348900D01*
X115107511Y-75351228D01*
X115141878Y-75343736D01*
X115166780Y-75331160D01*
X115215505Y-75299275D01*
X115297330Y-75266215D01*
X115384018Y-75249679D01*
X115472266Y-75250294D01*
X115558713Y-75268039D01*
X115640069Y-75302239D01*
X115713231Y-75351587D01*
X115775417Y-75414209D01*
X115824254Y-75487714D01*
X115857884Y-75569306D01*
X115874853Y-75655007D01*
X115874853Y-75655035D01*
X115875019Y-75655875D01*
X115873611Y-75756673D01*
X115873421Y-75757508D01*
X115873421Y-75757532D01*
X115854064Y-75842734D01*
X115838564Y-75877548D01*
X115828921Y-75911374D01*
X115829084Y-75946548D01*
X115839040Y-75980284D01*
X115858000Y-76009910D01*
X115884463Y-76033082D01*
X115916334Y-76047963D01*
X115951089Y-76053377D01*
X115976183Y-76051173D01*
X115984016Y-76049679D01*
X116072266Y-76050294D01*
X116158713Y-76068039D01*
X116240069Y-76102239D01*
X116313231Y-76151587D01*
X116375417Y-76214209D01*
X116424254Y-76287714D01*
X116457884Y-76369306D01*
X116474853Y-76455007D01*
X116474853Y-76455035D01*
X116475019Y-76455875D01*
X116473611Y-76556673D01*
X116473421Y-76557508D01*
X116473421Y-76557532D01*
X116454064Y-76642734D01*
X116438564Y-76677548D01*
X116428921Y-76711374D01*
X116429084Y-76746548D01*
X116439040Y-76780284D01*
X116458000Y-76809910D01*
X116484463Y-76833082D01*
X116516334Y-76847963D01*
X116551089Y-76853377D01*
X116576183Y-76851173D01*
X116584016Y-76849679D01*
X116672266Y-76850294D01*
X116758713Y-76868039D01*
X116840069Y-76902239D01*
X116913231Y-76951587D01*
X116975417Y-77014209D01*
X117024254Y-77087714D01*
X117057884Y-77169306D01*
X117074853Y-77255007D01*
X117074853Y-77255035D01*
X117075019Y-77255875D01*
X117073611Y-77356673D01*
X117073421Y-77357508D01*
X117073421Y-77357532D01*
X117054064Y-77442734D01*
X117038564Y-77477548D01*
X117028921Y-77511374D01*
X117029084Y-77546548D01*
X117039040Y-77580284D01*
X117058000Y-77609910D01*
X117084463Y-77633082D01*
X117116334Y-77647963D01*
X117151089Y-77653377D01*
X117176183Y-77651173D01*
X117184016Y-77649679D01*
X117274118Y-77650307D01*
X117306676Y-77652304D01*
X117340994Y-77644592D01*
X117371805Y-77627623D01*
X117396669Y-77602743D01*
X117413617Y-77571922D01*
X117421307Y-77537599D01*
X117419130Y-77502492D01*
X117412921Y-77481688D01*
X117390333Y-77424638D01*
X117374403Y-77337841D01*
X117375636Y-77249593D01*
X117393984Y-77163274D01*
X117428749Y-77082159D01*
X117478607Y-77009343D01*
X117499065Y-76989310D01*
X117520484Y-76961409D01*
X117533281Y-76928646D01*
X117534481Y-76915358D01*
X118114113Y-76915358D01*
X118123303Y-76949311D01*
X118149470Y-76988080D01*
X118184053Y-77022905D01*
X118184399Y-77022561D01*
X118194279Y-77033654D01*
X118224064Y-77052364D01*
X118257882Y-77062035D01*
X118293056Y-77061902D01*
X118294598Y-77061448D01*
X118287826Y-77067220D01*
X118268472Y-77096590D01*
X118258067Y-77130190D01*
X118258868Y-77174279D01*
X118274853Y-77255007D01*
X118274853Y-77255035D01*
X118275019Y-77255875D01*
X118273611Y-77356673D01*
X118273421Y-77357508D01*
X118273421Y-77357532D01*
X118254064Y-77442734D01*
X118238564Y-77477548D01*
X118228921Y-77511374D01*
X118229084Y-77546548D01*
X118239040Y-77580284D01*
X118258000Y-77609910D01*
X118284463Y-77633082D01*
X118316334Y-77647963D01*
X118351089Y-77653377D01*
X118376183Y-77651173D01*
X118384016Y-77649679D01*
X118474118Y-77650307D01*
X118506676Y-77652304D01*
X118540994Y-77644592D01*
X118571805Y-77627623D01*
X118596669Y-77602743D01*
X118613617Y-77571922D01*
X118621307Y-77537599D01*
X118619130Y-77502492D01*
X118612921Y-77481688D01*
X118590333Y-77424638D01*
X118574403Y-77337841D01*
X118575636Y-77249593D01*
X118591281Y-77175989D01*
X118593681Y-77140897D01*
X118586209Y-77106526D01*
X118569458Y-77075597D01*
X118544753Y-77050559D01*
X118514051Y-77033396D01*
X118469013Y-77025000D01*
X118381487Y-77025000D01*
X118360933Y-77027921D01*
X118379636Y-77006596D01*
X118394545Y-76974738D01*
X118400000Y-76938213D01*
X118400000Y-76900000D01*
X118395051Y-76865176D01*
X118380596Y-76833109D01*
X118357780Y-76806339D01*
X118328410Y-76786985D01*
X118294810Y-76776580D01*
X118275000Y-76775000D01*
X118238166Y-76775000D01*
X118203342Y-76779949D01*
X118171275Y-76794404D01*
X118144505Y-76817220D01*
X118125151Y-76846590D01*
X118114746Y-76880190D01*
X118114113Y-76915358D01*
X117534481Y-76915358D01*
X117536445Y-76893614D01*
X117529723Y-76859088D01*
X117513649Y-76827802D01*
X117500000Y-76813353D01*
X117500000Y-75958927D01*
X117495051Y-75924103D01*
X117480596Y-75892036D01*
X117457780Y-75865266D01*
X117428410Y-75845912D01*
X117394810Y-75835507D01*
X117359642Y-75834874D01*
X117325689Y-75844064D01*
X117308021Y-75853386D01*
X117228875Y-75903614D01*
X117146603Y-75935525D01*
X117059693Y-75950849D01*
X116971459Y-75949002D01*
X116885269Y-75930051D01*
X116804396Y-75894719D01*
X116731930Y-75844353D01*
X116675245Y-75785654D01*
X118400000Y-75785654D01*
X118400000Y-76000000D01*
X118404949Y-76034824D01*
X118419404Y-76066891D01*
X118442220Y-76093661D01*
X118471590Y-76113015D01*
X118505190Y-76123420D01*
X118525000Y-76125000D01*
X118736851Y-76125000D01*
X118771675Y-76120051D01*
X118803742Y-76105596D01*
X118830512Y-76082780D01*
X118849866Y-76053410D01*
X118860271Y-76019810D01*
X118860904Y-75984642D01*
X118851714Y-75950689D01*
X118833429Y-75920642D01*
X118808191Y-75897357D01*
X118731930Y-75844353D01*
X118670628Y-75780874D01*
X118630071Y-75717941D01*
X118607047Y-75691349D01*
X118577526Y-75672225D01*
X118543846Y-75662083D01*
X118508673Y-75661725D01*
X118474794Y-75671180D01*
X118444890Y-75689699D01*
X118421329Y-75715816D01*
X118405977Y-75747463D01*
X118400000Y-75785654D01*
X116675245Y-75785654D01*
X116670630Y-75780876D01*
X116622821Y-75706690D01*
X116590333Y-75624636D01*
X116574403Y-75537841D01*
X116575636Y-75449593D01*
X116593984Y-75363274D01*
X116628751Y-75282156D01*
X116654502Y-75244547D01*
X116670093Y-75213018D01*
X116676283Y-75178392D01*
X116673162Y-75148900D01*
X116707511Y-75151228D01*
X116741878Y-75143736D01*
X116766780Y-75131160D01*
X116815505Y-75099275D01*
X116897330Y-75066215D01*
X116984018Y-75049679D01*
X117072266Y-75050294D01*
X117158713Y-75068039D01*
X117240069Y-75102239D01*
X117305101Y-75146103D01*
X117336739Y-75161473D01*
X117371407Y-75167421D01*
X117406359Y-75163476D01*
X117438828Y-75149949D01*
X117466243Y-75127912D01*
X117486433Y-75099109D01*
X117497800Y-75065823D01*
X117500000Y-75042473D01*
X117500000Y-74675000D01*
X118400000Y-74675000D01*
X118400000Y-75212430D01*
X118400000Y-75212430D01*
G37*
G36*
X133450000Y-79280000D02*
X132050000Y-79280000D01*
X132050000Y-78080000D01*
X133450000Y-78080000D01*
X133450000Y-79280000D01*
X133450000Y-79280000D01*
G37*
G36*
X111750000Y-79280000D02*
X110350000Y-79280000D01*
X110350000Y-78080000D01*
X111750000Y-78080000D01*
X111750000Y-79280000D01*
X111750000Y-79280000D01*
G37*
G36*
X104450000Y-79280000D02*
X103050000Y-79280000D01*
X103050000Y-78080000D01*
X104450000Y-78080000D01*
X104450000Y-79280000D01*
X104450000Y-79280000D01*
G37*
G36*
X140750000Y-79280000D02*
X139350000Y-79280000D01*
X139350000Y-78080000D01*
X140750000Y-78080000D01*
X140750000Y-79280000D01*
X140750000Y-79280000D01*
G37*
G36*
X143200000Y-79100000D02*
X141100000Y-79100000D01*
X141100000Y-77000000D01*
X143200000Y-77000000D01*
X143200000Y-79100000D01*
X143200000Y-79100000D01*
G37*
G36*
X125400000Y-78725000D02*
X122200000Y-78725000D01*
X122200000Y-77625000D01*
X125400000Y-77625000D01*
X125400000Y-78725000D01*
X125400000Y-78725000D01*
G37*
G36*
X127100000Y-78525000D02*
X125700000Y-78525000D01*
X125700000Y-76125000D01*
X127100000Y-76125000D01*
X127100000Y-78525000D01*
X127100000Y-78525000D01*
G37*
G36*
X137700000Y-76805298D02*
X137704949Y-76840122D01*
X137719404Y-76872189D01*
X137742220Y-76898959D01*
X137771590Y-76918313D01*
X137805190Y-76928718D01*
X137828556Y-76928376D01*
X137828548Y-76929452D01*
X137974128Y-76930468D01*
X138008986Y-76925762D01*
X138041152Y-76911532D01*
X138068081Y-76888903D01*
X138087640Y-76859668D01*
X138098279Y-76826142D01*
X138100000Y-76805471D01*
X138100000Y-74870000D01*
X139200000Y-74870000D01*
X139200000Y-75745000D01*
X139204949Y-75779824D01*
X139219404Y-75811891D01*
X139242220Y-75838661D01*
X139271590Y-75858015D01*
X139305190Y-75868420D01*
X139325000Y-75870000D01*
X140750000Y-75870000D01*
X140750000Y-77070000D01*
X139350000Y-77070000D01*
X139350000Y-76895000D01*
X139345051Y-76860176D01*
X139330596Y-76828109D01*
X139307780Y-76801339D01*
X139278410Y-76781985D01*
X139244810Y-76771580D01*
X139225000Y-76770000D01*
X138270431Y-76770000D01*
X138235607Y-76774949D01*
X138203540Y-76789404D01*
X138176770Y-76812220D01*
X138157416Y-76841590D01*
X138147011Y-76875190D01*
X138146378Y-76910358D01*
X138155568Y-76944311D01*
X138173853Y-76974358D01*
X138200532Y-76998630D01*
X138316337Y-77076741D01*
X138406154Y-77167188D01*
X138476697Y-77273363D01*
X138525273Y-77391217D01*
X138549862Y-77515400D01*
X138549862Y-77515424D01*
X138550028Y-77516264D01*
X138547995Y-77661861D01*
X138547804Y-77662700D01*
X138547804Y-77662721D01*
X138519758Y-77786169D01*
X138467911Y-77902618D01*
X138394433Y-78006781D01*
X138302120Y-78094688D01*
X138194487Y-78162995D01*
X138075647Y-78209090D01*
X137950111Y-78231225D01*
X137822662Y-78228556D01*
X137698163Y-78201182D01*
X137581357Y-78150151D01*
X137476678Y-78077397D01*
X137388133Y-77985707D01*
X137319077Y-77878552D01*
X137272150Y-77760031D01*
X137249140Y-77634657D01*
X137250920Y-77507191D01*
X137277423Y-77382507D01*
X137327639Y-77265343D01*
X137399657Y-77160163D01*
X137490734Y-77070975D01*
X137599813Y-76999595D01*
X137626242Y-76976386D01*
X137645160Y-76946732D01*
X137655067Y-76912982D01*
X137655179Y-76877808D01*
X137645488Y-76843996D01*
X137626760Y-76814222D01*
X137600479Y-76790844D01*
X137568726Y-76775713D01*
X137531367Y-76770000D01*
X136600000Y-76770000D01*
X136600000Y-74870000D01*
X137700000Y-74870000D01*
X137700000Y-76805298D01*
X137700000Y-76805298D01*
G37*
G36*
X105700000Y-76805298D02*
X105704949Y-76840122D01*
X105719404Y-76872189D01*
X105742220Y-76898959D01*
X105771590Y-76918313D01*
X105805190Y-76928718D01*
X105828555Y-76928376D01*
X105828547Y-76929452D01*
X105968273Y-76930427D01*
X106093141Y-76956059D01*
X106210654Y-77005458D01*
X106316337Y-77076741D01*
X106406154Y-77167188D01*
X106476697Y-77273363D01*
X106525273Y-77391217D01*
X106549862Y-77515400D01*
X106549862Y-77515424D01*
X106550028Y-77516264D01*
X106547995Y-77661861D01*
X106547804Y-77662700D01*
X106547804Y-77662721D01*
X106519758Y-77786169D01*
X106467911Y-77902618D01*
X106394433Y-78006781D01*
X106302120Y-78094688D01*
X106194487Y-78162995D01*
X106075647Y-78209090D01*
X105950111Y-78231225D01*
X105822662Y-78228556D01*
X105698163Y-78201182D01*
X105581357Y-78150151D01*
X105476678Y-78077397D01*
X105388133Y-77985707D01*
X105319077Y-77878552D01*
X105272150Y-77760031D01*
X105249140Y-77634657D01*
X105250920Y-77507191D01*
X105277423Y-77382507D01*
X105327639Y-77265343D01*
X105399657Y-77160163D01*
X105490734Y-77070975D01*
X105599813Y-76999595D01*
X105626242Y-76976386D01*
X105645160Y-76946732D01*
X105655067Y-76912982D01*
X105655179Y-76877808D01*
X105645488Y-76843996D01*
X105626760Y-76814222D01*
X105600479Y-76790844D01*
X105568726Y-76775713D01*
X105531367Y-76770000D01*
X104575000Y-76770000D01*
X104540176Y-76774949D01*
X104508109Y-76789404D01*
X104481339Y-76812220D01*
X104461985Y-76841590D01*
X104451580Y-76875190D01*
X104450000Y-76895000D01*
X104450000Y-77070000D01*
X103050000Y-77070000D01*
X103050000Y-75870000D01*
X104475000Y-75870000D01*
X104509824Y-75865051D01*
X104541891Y-75850596D01*
X104568661Y-75827780D01*
X104588015Y-75798410D01*
X104598420Y-75764810D01*
X104600000Y-75745000D01*
X104600000Y-74870000D01*
X105700000Y-74870000D01*
X105700000Y-76805298D01*
X105700000Y-76805298D01*
G37*
G36*
X108700000Y-76805298D02*
X108704949Y-76840122D01*
X108719404Y-76872189D01*
X108742220Y-76898959D01*
X108771590Y-76918313D01*
X108805190Y-76928718D01*
X108828556Y-76928376D01*
X108828548Y-76929452D01*
X108974128Y-76930468D01*
X109008986Y-76925762D01*
X109041152Y-76911532D01*
X109068081Y-76888903D01*
X109087640Y-76859668D01*
X109098279Y-76826142D01*
X109100000Y-76805471D01*
X109100000Y-74870000D01*
X110200000Y-74870000D01*
X110200000Y-75745000D01*
X110204949Y-75779824D01*
X110219404Y-75811891D01*
X110242220Y-75838661D01*
X110271590Y-75858015D01*
X110305190Y-75868420D01*
X110325000Y-75870000D01*
X111750000Y-75870000D01*
X111750000Y-77070000D01*
X110350000Y-77070000D01*
X110350000Y-76895000D01*
X110345051Y-76860176D01*
X110330596Y-76828109D01*
X110307780Y-76801339D01*
X110278410Y-76781985D01*
X110244810Y-76771580D01*
X110225000Y-76770000D01*
X109270431Y-76770000D01*
X109235607Y-76774949D01*
X109203540Y-76789404D01*
X109176770Y-76812220D01*
X109157416Y-76841590D01*
X109147011Y-76875190D01*
X109146378Y-76910358D01*
X109155568Y-76944311D01*
X109173853Y-76974358D01*
X109200532Y-76998630D01*
X109316337Y-77076741D01*
X109406154Y-77167188D01*
X109476697Y-77273363D01*
X109525273Y-77391217D01*
X109549862Y-77515400D01*
X109549862Y-77515424D01*
X109550028Y-77516264D01*
X109547995Y-77661861D01*
X109547804Y-77662700D01*
X109547804Y-77662721D01*
X109519758Y-77786169D01*
X109467911Y-77902618D01*
X109394433Y-78006781D01*
X109302120Y-78094688D01*
X109194487Y-78162995D01*
X109075647Y-78209090D01*
X108950111Y-78231225D01*
X108822662Y-78228556D01*
X108698163Y-78201182D01*
X108581357Y-78150151D01*
X108476678Y-78077397D01*
X108388133Y-77985707D01*
X108319077Y-77878552D01*
X108272150Y-77760031D01*
X108249140Y-77634657D01*
X108250920Y-77507191D01*
X108277423Y-77382507D01*
X108327639Y-77265343D01*
X108399657Y-77160163D01*
X108490734Y-77070975D01*
X108599813Y-76999595D01*
X108626242Y-76976386D01*
X108645160Y-76946732D01*
X108655067Y-76912982D01*
X108655179Y-76877808D01*
X108645488Y-76843996D01*
X108626760Y-76814222D01*
X108600479Y-76790844D01*
X108568726Y-76775713D01*
X108531367Y-76770000D01*
X107600000Y-76770000D01*
X107600000Y-74870000D01*
X108700000Y-74870000D01*
X108700000Y-76805298D01*
X108700000Y-76805298D01*
G37*
G36*
X134700000Y-76805298D02*
X134704949Y-76840122D01*
X134719404Y-76872189D01*
X134742220Y-76898959D01*
X134771590Y-76918313D01*
X134805190Y-76928718D01*
X134828555Y-76928376D01*
X134828547Y-76929452D01*
X134968273Y-76930427D01*
X135093141Y-76956059D01*
X135210654Y-77005458D01*
X135316337Y-77076741D01*
X135406154Y-77167188D01*
X135476697Y-77273363D01*
X135525273Y-77391217D01*
X135549862Y-77515400D01*
X135549862Y-77515424D01*
X135550028Y-77516264D01*
X135547995Y-77661861D01*
X135547804Y-77662700D01*
X135547804Y-77662721D01*
X135519758Y-77786169D01*
X135467911Y-77902618D01*
X135394433Y-78006781D01*
X135302120Y-78094688D01*
X135194487Y-78162995D01*
X135075647Y-78209090D01*
X134950111Y-78231225D01*
X134822662Y-78228556D01*
X134698163Y-78201182D01*
X134581357Y-78150151D01*
X134476678Y-78077397D01*
X134388133Y-77985707D01*
X134319077Y-77878552D01*
X134272150Y-77760031D01*
X134249140Y-77634657D01*
X134250920Y-77507191D01*
X134277423Y-77382507D01*
X134327639Y-77265343D01*
X134399657Y-77160163D01*
X134490734Y-77070975D01*
X134599813Y-76999595D01*
X134626242Y-76976386D01*
X134645160Y-76946732D01*
X134655067Y-76912982D01*
X134655179Y-76877808D01*
X134645488Y-76843996D01*
X134626760Y-76814222D01*
X134600479Y-76790844D01*
X134568726Y-76775713D01*
X134531367Y-76770000D01*
X133575000Y-76770000D01*
X133540176Y-76774949D01*
X133508109Y-76789404D01*
X133481339Y-76812220D01*
X133461985Y-76841590D01*
X133451580Y-76875190D01*
X133450000Y-76895000D01*
X133450000Y-77070000D01*
X132050000Y-77070000D01*
X132050000Y-75870000D01*
X133475000Y-75870000D01*
X133509824Y-75865051D01*
X133541891Y-75850596D01*
X133568661Y-75827780D01*
X133588015Y-75798410D01*
X133598420Y-75764810D01*
X133600000Y-75745000D01*
X133600000Y-74870000D01*
X134700000Y-74870000D01*
X134700000Y-76805298D01*
X134700000Y-76805298D01*
G37*
G36*
X125400000Y-77025000D02*
X122200000Y-77025000D01*
X122200000Y-75925000D01*
X125400000Y-75925000D01*
X125400000Y-77025000D01*
X125400000Y-77025000D01*
G37*
G36*
X142164666Y-74460066D02*
X142164673Y-74460067D01*
X142169741Y-74460102D01*
X142373388Y-74482945D01*
X142568720Y-74544908D01*
X142748296Y-74643631D01*
X142905277Y-74775353D01*
X143033684Y-74935059D01*
X143128624Y-75116663D01*
X143186483Y-75313250D01*
X143186491Y-75313334D01*
X143186498Y-75313359D01*
X143205060Y-75517330D01*
X143183652Y-75721009D01*
X143183646Y-75721029D01*
X143183635Y-75721132D01*
X143123037Y-75916891D01*
X143025570Y-76097153D01*
X142894947Y-76255049D01*
X142736142Y-76384567D01*
X142555205Y-76480773D01*
X142359027Y-76540003D01*
X142155081Y-76560000D01*
X142144763Y-76560000D01*
X142135334Y-76559934D01*
X142135327Y-76559933D01*
X142130259Y-76559898D01*
X141926612Y-76537055D01*
X141731280Y-76475092D01*
X141551704Y-76376369D01*
X141394723Y-76244647D01*
X141266316Y-76084941D01*
X141171376Y-75903337D01*
X141113517Y-75706750D01*
X141113509Y-75706666D01*
X141113502Y-75706641D01*
X141094940Y-75502670D01*
X141116348Y-75298991D01*
X141116354Y-75298971D01*
X141116365Y-75298868D01*
X141176963Y-75103109D01*
X141274430Y-74922847D01*
X141405053Y-74764951D01*
X141563858Y-74635433D01*
X141744795Y-74539227D01*
X141940973Y-74479997D01*
X142144919Y-74460000D01*
X142155237Y-74460000D01*
X142164666Y-74460066D01*
X142164666Y-74460066D01*
G37*
G36*
X113872266Y-73650294D02*
X113958713Y-73668039D01*
X114040069Y-73702239D01*
X114113231Y-73751587D01*
X114175417Y-73814209D01*
X114224254Y-73887714D01*
X114257884Y-73969306D01*
X114274853Y-74055007D01*
X114274853Y-74055035D01*
X114275019Y-74055875D01*
X114273611Y-74156673D01*
X114273421Y-74157508D01*
X114273421Y-74157532D01*
X114254064Y-74242731D01*
X114218169Y-74323355D01*
X114196191Y-74354511D01*
X114180161Y-74385820D01*
X114173488Y-74420355D01*
X114176351Y-74451566D01*
X114175569Y-74451293D01*
X114140446Y-74449405D01*
X114106187Y-74457376D01*
X114084384Y-74468387D01*
X114028879Y-74503612D01*
X113946604Y-74535525D01*
X113939990Y-74536691D01*
X113906554Y-74547612D01*
X113877485Y-74567416D01*
X113855083Y-74594534D01*
X113841124Y-74626820D01*
X113836712Y-74661716D01*
X113842196Y-74696460D01*
X113857143Y-74728300D01*
X113880393Y-74754473D01*
X113905277Y-74775353D01*
X113967256Y-74852439D01*
X113992279Y-74875865D01*
X114023637Y-74891798D01*
X114058193Y-74898364D01*
X114093210Y-74895044D01*
X114125915Y-74882099D01*
X114153720Y-74860555D01*
X114174421Y-74832118D01*
X114186286Y-74799489D01*
X114193984Y-74763274D01*
X114228751Y-74682156D01*
X114254502Y-74644547D01*
X114270093Y-74613018D01*
X114276283Y-74578392D01*
X114273162Y-74548900D01*
X114307511Y-74551228D01*
X114341878Y-74543736D01*
X114366780Y-74531160D01*
X114415505Y-74499275D01*
X114497330Y-74466215D01*
X114584018Y-74449679D01*
X114672266Y-74450294D01*
X114758713Y-74468039D01*
X114840069Y-74502239D01*
X114913231Y-74551587D01*
X114975417Y-74614209D01*
X115024254Y-74687714D01*
X115057884Y-74769306D01*
X115074853Y-74855007D01*
X115074853Y-74855035D01*
X115075019Y-74855875D01*
X115073611Y-74956673D01*
X115073421Y-74957508D01*
X115073421Y-74957532D01*
X115054064Y-75042731D01*
X115018169Y-75123355D01*
X114996191Y-75154511D01*
X114980161Y-75185820D01*
X114973488Y-75220355D01*
X114976351Y-75251566D01*
X114975569Y-75251293D01*
X114940446Y-75249405D01*
X114906187Y-75257376D01*
X114884384Y-75268387D01*
X114828879Y-75303612D01*
X114746603Y-75335525D01*
X114659693Y-75350849D01*
X114571459Y-75349002D01*
X114485269Y-75330051D01*
X114404396Y-75294719D01*
X114390096Y-75284780D01*
X114358677Y-75268968D01*
X114324096Y-75262536D01*
X114289092Y-75265993D01*
X114256437Y-75279064D01*
X114228716Y-75300715D01*
X114208125Y-75329232D01*
X114196294Y-75362357D01*
X114194269Y-75398750D01*
X114205060Y-75517329D01*
X114183652Y-75721009D01*
X114183646Y-75721029D01*
X114183635Y-75721132D01*
X114123037Y-75916891D01*
X114025570Y-76097153D01*
X113894947Y-76255049D01*
X113736142Y-76384567D01*
X113555205Y-76480773D01*
X113359027Y-76540003D01*
X113155081Y-76560000D01*
X113144763Y-76560000D01*
X113135334Y-76559934D01*
X113135327Y-76559933D01*
X113130259Y-76559898D01*
X112926612Y-76537055D01*
X112731280Y-76475092D01*
X112551704Y-76376369D01*
X112394723Y-76244647D01*
X112266316Y-76084941D01*
X112171376Y-75903337D01*
X112113517Y-75706750D01*
X112113509Y-75706666D01*
X112113502Y-75706641D01*
X112094940Y-75502670D01*
X112116348Y-75298991D01*
X112116354Y-75298971D01*
X112116365Y-75298868D01*
X112176963Y-75103109D01*
X112274430Y-74922847D01*
X112405053Y-74764951D01*
X112563858Y-74635433D01*
X112744795Y-74539227D01*
X112940973Y-74479997D01*
X113144919Y-74460000D01*
X113155237Y-74460000D01*
X113164666Y-74460066D01*
X113164673Y-74460067D01*
X113169741Y-74460102D01*
X113295391Y-74474196D01*
X113326786Y-74473271D01*
X113360264Y-74462481D01*
X113389411Y-74442791D01*
X113411918Y-74415760D01*
X113426004Y-74383530D01*
X113430553Y-74348651D01*
X113421783Y-74304071D01*
X113390333Y-74224638D01*
X113374403Y-74137841D01*
X113375636Y-74049593D01*
X113393984Y-73963274D01*
X113428751Y-73882156D01*
X113454502Y-73844547D01*
X113470093Y-73813018D01*
X113476283Y-73778392D01*
X113473162Y-73748900D01*
X113507511Y-73751228D01*
X113541878Y-73743736D01*
X113566780Y-73731160D01*
X113615505Y-73699275D01*
X113697330Y-73666215D01*
X113784018Y-73649679D01*
X113872266Y-73650294D01*
X113872266Y-73650294D01*
G37*
G36*
X116272266Y-74250294D02*
X116358713Y-74268039D01*
X116440072Y-74302240D01*
X116481429Y-74330135D01*
X116513067Y-74345506D01*
X116547734Y-74351453D01*
X116575730Y-74348292D01*
X116573609Y-74383187D01*
X116581341Y-74417500D01*
X116594090Y-74442314D01*
X116624254Y-74487714D01*
X116657884Y-74569306D01*
X116674853Y-74655007D01*
X116674853Y-74655035D01*
X116675019Y-74655875D01*
X116673611Y-74756673D01*
X116673421Y-74757508D01*
X116673421Y-74757532D01*
X116654064Y-74842731D01*
X116618169Y-74923355D01*
X116596191Y-74954511D01*
X116580161Y-74985820D01*
X116573488Y-75020355D01*
X116576351Y-75051566D01*
X116575569Y-75051293D01*
X116540446Y-75049405D01*
X116506187Y-75057376D01*
X116484384Y-75068387D01*
X116428879Y-75103612D01*
X116346603Y-75135525D01*
X116259693Y-75150849D01*
X116171459Y-75149002D01*
X116085269Y-75130051D01*
X116004396Y-75094719D01*
X115931930Y-75044353D01*
X115870630Y-74980876D01*
X115822821Y-74906690D01*
X115790333Y-74824636D01*
X115774403Y-74737841D01*
X115775636Y-74649593D01*
X115793984Y-74563274D01*
X115828751Y-74482156D01*
X115854502Y-74444547D01*
X115870093Y-74413018D01*
X115876283Y-74378392D01*
X115873162Y-74348900D01*
X115907511Y-74351228D01*
X115941878Y-74343736D01*
X115966780Y-74331160D01*
X116015505Y-74299275D01*
X116097330Y-74266215D01*
X116184018Y-74249679D01*
X116272266Y-74250294D01*
X116272266Y-74250294D01*
G37*
G36*
X133986070Y-72950039D02*
X133986083Y-72950040D01*
X133991143Y-72950076D01*
X134141454Y-72966936D01*
X134285627Y-73012670D01*
X134418171Y-73085537D01*
X134534038Y-73182761D01*
X134628814Y-73300639D01*
X134698889Y-73434680D01*
X134741595Y-73579779D01*
X134741602Y-73579860D01*
X134741611Y-73579889D01*
X134755309Y-73730410D01*
X134739511Y-73880712D01*
X134739503Y-73880737D01*
X134739493Y-73880835D01*
X134694766Y-74025325D01*
X134622826Y-74158375D01*
X134526414Y-74274917D01*
X134409200Y-74370514D01*
X134275652Y-74441523D01*
X134130854Y-74485240D01*
X133980322Y-74500000D01*
X133319520Y-74500000D01*
X133313930Y-74499961D01*
X133313917Y-74499960D01*
X133308857Y-74499924D01*
X133158546Y-74483064D01*
X133014373Y-74437330D01*
X132881829Y-74364463D01*
X132765962Y-74267239D01*
X132671186Y-74149361D01*
X132601111Y-74015320D01*
X132558405Y-73870221D01*
X132558398Y-73870140D01*
X132558389Y-73870111D01*
X132544691Y-73719590D01*
X132560489Y-73569288D01*
X132560497Y-73569263D01*
X132560507Y-73569165D01*
X132605234Y-73424675D01*
X132677174Y-73291625D01*
X132773586Y-73175083D01*
X132890800Y-73079486D01*
X133024348Y-73008477D01*
X133169146Y-72964760D01*
X133319678Y-72950000D01*
X133980480Y-72950000D01*
X133986070Y-72950039D01*
X133986070Y-72950039D01*
G37*
G36*
X104986070Y-72950039D02*
X104986083Y-72950040D01*
X104991143Y-72950076D01*
X105141454Y-72966936D01*
X105285627Y-73012670D01*
X105418171Y-73085537D01*
X105534038Y-73182761D01*
X105628814Y-73300639D01*
X105698889Y-73434680D01*
X105741595Y-73579779D01*
X105741602Y-73579860D01*
X105741611Y-73579889D01*
X105755309Y-73730410D01*
X105739511Y-73880712D01*
X105739503Y-73880737D01*
X105739493Y-73880835D01*
X105694766Y-74025325D01*
X105622826Y-74158375D01*
X105526414Y-74274917D01*
X105409200Y-74370514D01*
X105275652Y-74441523D01*
X105130854Y-74485240D01*
X104980322Y-74500000D01*
X104319520Y-74500000D01*
X104313930Y-74499961D01*
X104313917Y-74499960D01*
X104308857Y-74499924D01*
X104158546Y-74483064D01*
X104014373Y-74437330D01*
X103881829Y-74364463D01*
X103765962Y-74267239D01*
X103671186Y-74149361D01*
X103601111Y-74015320D01*
X103558405Y-73870221D01*
X103558398Y-73870140D01*
X103558389Y-73870111D01*
X103544691Y-73719590D01*
X103560489Y-73569288D01*
X103560497Y-73569263D01*
X103560507Y-73569165D01*
X103605234Y-73424675D01*
X103677174Y-73291625D01*
X103773586Y-73175083D01*
X103890800Y-73079486D01*
X104024348Y-73008477D01*
X104169146Y-72964760D01*
X104319678Y-72950000D01*
X104980480Y-72950000D01*
X104986070Y-72950039D01*
X104986070Y-72950039D01*
G37*
G36*
X136606513Y-71749311D02*
X136624798Y-71779358D01*
X136661665Y-71809743D01*
X136735516Y-71849674D01*
X136825742Y-71924316D01*
X136899753Y-72015062D01*
X136954728Y-72118455D01*
X136988573Y-72230556D01*
X137000000Y-72347097D01*
X137000000Y-72353059D01*
X136999978Y-72356207D01*
X136999977Y-72356215D01*
X136999942Y-72361280D01*
X136986889Y-72477650D01*
X136980820Y-72496781D01*
X136975493Y-72528577D01*
X136979575Y-72563514D01*
X136993229Y-72595929D01*
X137015374Y-72623258D01*
X137044255Y-72643335D01*
X137077586Y-72654571D01*
X137108826Y-72655919D01*
X137169194Y-72650000D01*
X137730972Y-72650000D01*
X137738649Y-72650053D01*
X137738665Y-72650055D01*
X137743721Y-72650090D01*
X137923124Y-72670213D01*
X138095202Y-72724800D01*
X138253400Y-72811770D01*
X138391693Y-72927811D01*
X138504813Y-73068504D01*
X138588451Y-73228489D01*
X138639422Y-73401672D01*
X138639429Y-73401753D01*
X138639438Y-73401782D01*
X138655789Y-73581457D01*
X138636931Y-73760874D01*
X138636923Y-73760899D01*
X138636913Y-73760997D01*
X138583529Y-73933452D01*
X138497666Y-74092253D01*
X138382593Y-74231353D01*
X138242693Y-74345452D01*
X138083296Y-74430205D01*
X137910473Y-74482384D01*
X137730806Y-74500000D01*
X137169028Y-74500000D01*
X137161351Y-74499947D01*
X137161335Y-74499945D01*
X137156279Y-74499910D01*
X136976876Y-74479787D01*
X136804798Y-74425200D01*
X136646600Y-74338230D01*
X136508307Y-74222189D01*
X136395187Y-74081496D01*
X136311549Y-73921511D01*
X136260578Y-73748328D01*
X136260571Y-73748247D01*
X136260562Y-73748218D01*
X136244211Y-73568543D01*
X136263069Y-73389126D01*
X136263077Y-73389101D01*
X136263087Y-73389003D01*
X136316471Y-73216548D01*
X136367046Y-73123011D01*
X136379098Y-73090451D01*
X136381635Y-73055368D01*
X136374297Y-73020968D01*
X136357666Y-72989974D01*
X136333059Y-72964840D01*
X136302424Y-72947557D01*
X136291029Y-72944786D01*
X136291182Y-72944290D01*
X136279449Y-72940658D01*
X136279353Y-72940648D01*
X136167491Y-72906021D01*
X136064484Y-72850326D01*
X135974258Y-72775684D01*
X135900247Y-72684938D01*
X135845272Y-72581545D01*
X135811427Y-72469444D01*
X135800000Y-72352903D01*
X135800000Y-72346941D01*
X135800022Y-72343793D01*
X135800023Y-72343785D01*
X135800058Y-72338720D01*
X135813111Y-72222350D01*
X135848519Y-72110732D01*
X135904932Y-72008117D01*
X135980202Y-71918413D01*
X136071462Y-71845038D01*
X136175236Y-71790787D01*
X136287571Y-71757725D01*
X136287652Y-71757718D01*
X136287681Y-71757709D01*
X136404188Y-71747106D01*
X136511934Y-71758431D01*
X136547085Y-71757150D01*
X136580487Y-71746126D01*
X136601711Y-71731571D01*
X136606513Y-71749311D01*
X136606513Y-71749311D01*
G37*
G36*
X107606513Y-71749311D02*
X107624798Y-71779358D01*
X107661665Y-71809743D01*
X107735516Y-71849674D01*
X107825742Y-71924316D01*
X107899753Y-72015062D01*
X107954728Y-72118455D01*
X107988573Y-72230556D01*
X108000000Y-72347097D01*
X108000000Y-72353059D01*
X107999978Y-72356207D01*
X107999977Y-72356215D01*
X107999942Y-72361280D01*
X107986889Y-72477650D01*
X107980820Y-72496781D01*
X107975493Y-72528577D01*
X107979575Y-72563514D01*
X107993229Y-72595929D01*
X108015374Y-72623258D01*
X108044255Y-72643335D01*
X108077586Y-72654571D01*
X108108826Y-72655919D01*
X108169194Y-72650000D01*
X108730972Y-72650000D01*
X108738649Y-72650053D01*
X108738665Y-72650055D01*
X108743721Y-72650090D01*
X108923124Y-72670213D01*
X109095202Y-72724800D01*
X109253400Y-72811770D01*
X109391693Y-72927811D01*
X109504813Y-73068504D01*
X109588451Y-73228489D01*
X109639422Y-73401672D01*
X109639429Y-73401753D01*
X109639438Y-73401782D01*
X109655789Y-73581457D01*
X109636931Y-73760874D01*
X109636923Y-73760899D01*
X109636913Y-73760997D01*
X109583529Y-73933452D01*
X109497666Y-74092253D01*
X109382593Y-74231353D01*
X109242693Y-74345452D01*
X109083296Y-74430205D01*
X108910473Y-74482384D01*
X108730806Y-74500000D01*
X108169028Y-74500000D01*
X108161351Y-74499947D01*
X108161335Y-74499945D01*
X108156279Y-74499910D01*
X107976876Y-74479787D01*
X107804798Y-74425200D01*
X107646600Y-74338230D01*
X107508307Y-74222189D01*
X107395187Y-74081496D01*
X107311549Y-73921511D01*
X107260578Y-73748328D01*
X107260571Y-73748247D01*
X107260562Y-73748218D01*
X107244211Y-73568543D01*
X107263069Y-73389126D01*
X107263077Y-73389101D01*
X107263087Y-73389003D01*
X107316471Y-73216548D01*
X107367046Y-73123011D01*
X107379098Y-73090451D01*
X107381635Y-73055368D01*
X107374297Y-73020968D01*
X107357666Y-72989974D01*
X107333059Y-72964840D01*
X107302424Y-72947557D01*
X107291029Y-72944786D01*
X107291182Y-72944290D01*
X107279449Y-72940658D01*
X107279353Y-72940648D01*
X107167491Y-72906021D01*
X107064484Y-72850326D01*
X106974258Y-72775684D01*
X106900247Y-72684938D01*
X106845272Y-72581545D01*
X106811427Y-72469444D01*
X106800000Y-72352903D01*
X106800000Y-72346941D01*
X106800022Y-72343793D01*
X106800023Y-72343785D01*
X106800058Y-72338720D01*
X106813111Y-72222350D01*
X106848519Y-72110732D01*
X106904932Y-72008117D01*
X106980202Y-71918413D01*
X107071462Y-71845038D01*
X107175236Y-71790787D01*
X107287571Y-71757725D01*
X107287652Y-71757718D01*
X107287681Y-71757709D01*
X107404188Y-71747106D01*
X107511934Y-71758431D01*
X107547085Y-71757150D01*
X107580487Y-71746126D01*
X107601711Y-71731571D01*
X107606513Y-71749311D01*
X107606513Y-71749311D01*
G37*
G36*
X117072266Y-73450294D02*
X117158713Y-73468039D01*
X117240069Y-73502239D01*
X117313231Y-73551587D01*
X117375417Y-73614209D01*
X117424254Y-73687714D01*
X117457884Y-73769306D01*
X117474853Y-73855007D01*
X117474853Y-73855035D01*
X117475019Y-73855875D01*
X117473611Y-73956673D01*
X117473421Y-73957508D01*
X117473421Y-73957532D01*
X117454064Y-74042731D01*
X117418170Y-74123354D01*
X117367301Y-74195465D01*
X117303392Y-74256323D01*
X117228875Y-74303614D01*
X117146603Y-74335525D01*
X117059693Y-74350849D01*
X116971459Y-74349002D01*
X116885269Y-74330051D01*
X116804393Y-74294718D01*
X116769544Y-74270497D01*
X116738124Y-74254686D01*
X116703543Y-74248254D01*
X116673666Y-74251205D01*
X116674127Y-74249854D01*
X116675770Y-74214718D01*
X116667560Y-74180516D01*
X116656397Y-74158791D01*
X116622822Y-74106694D01*
X116590333Y-74024636D01*
X116574403Y-73937841D01*
X116575636Y-73849593D01*
X116593984Y-73763274D01*
X116628749Y-73682159D01*
X116678607Y-73609343D01*
X116741661Y-73547597D01*
X116815505Y-73499275D01*
X116897330Y-73466215D01*
X116984018Y-73449679D01*
X117072266Y-73450294D01*
X117072266Y-73450294D01*
G37*
G36*
X115472266Y-73450294D02*
X115558713Y-73468039D01*
X115640069Y-73502239D01*
X115713231Y-73551587D01*
X115775417Y-73614209D01*
X115824254Y-73687714D01*
X115857884Y-73769306D01*
X115874853Y-73855007D01*
X115874853Y-73855035D01*
X115875019Y-73855875D01*
X115873611Y-73956673D01*
X115873421Y-73957508D01*
X115873421Y-73957532D01*
X115854064Y-74042731D01*
X115818169Y-74123355D01*
X115796191Y-74154511D01*
X115780161Y-74185820D01*
X115773488Y-74220355D01*
X115776351Y-74251566D01*
X115775569Y-74251293D01*
X115740446Y-74249405D01*
X115706187Y-74257376D01*
X115684384Y-74268387D01*
X115628879Y-74303612D01*
X115546603Y-74335525D01*
X115459693Y-74350849D01*
X115371459Y-74349002D01*
X115285269Y-74330051D01*
X115204396Y-74294719D01*
X115131930Y-74244353D01*
X115070630Y-74180876D01*
X115022821Y-74106690D01*
X114990333Y-74024636D01*
X114974403Y-73937841D01*
X114975636Y-73849593D01*
X114993984Y-73763274D01*
X115028751Y-73682156D01*
X115054502Y-73644547D01*
X115070093Y-73613018D01*
X115076283Y-73578392D01*
X115073162Y-73548900D01*
X115107511Y-73551228D01*
X115141878Y-73543736D01*
X115166780Y-73531160D01*
X115215505Y-73499275D01*
X115297330Y-73466215D01*
X115384018Y-73449679D01*
X115472266Y-73450294D01*
X115472266Y-73450294D01*
G37*
G36*
X145726041Y-70600794D02*
X145956569Y-70648115D01*
X146173512Y-70739309D01*
X146368616Y-70870908D01*
X146534437Y-71037890D01*
X146664669Y-71233906D01*
X146754348Y-71451484D01*
X146799886Y-71681465D01*
X146799886Y-71681498D01*
X146800051Y-71682334D01*
X146796298Y-71951128D01*
X146796107Y-71951967D01*
X146796107Y-71951988D01*
X146744165Y-72180616D01*
X146648447Y-72395601D01*
X146512795Y-72587901D01*
X146342372Y-72750191D01*
X146143673Y-72876290D01*
X145924265Y-72961393D01*
X145692511Y-73002257D01*
X145457225Y-72997329D01*
X145227383Y-72946795D01*
X145011735Y-72852580D01*
X144818487Y-72718269D01*
X144655016Y-72548991D01*
X144527530Y-72351171D01*
X144518746Y-72328985D01*
X144501326Y-72298428D01*
X144476082Y-72273934D01*
X144445013Y-72257443D01*
X144402524Y-72250000D01*
X143175000Y-72250000D01*
X143140176Y-72254949D01*
X143108109Y-72269404D01*
X143081339Y-72292220D01*
X143061985Y-72321590D01*
X143051580Y-72355190D01*
X143050000Y-72375000D01*
X143050000Y-74075000D01*
X142150000Y-74075000D01*
X142150000Y-71971447D01*
X142159824Y-71970051D01*
X142191891Y-71955596D01*
X142218661Y-71932780D01*
X142238015Y-71903410D01*
X142248420Y-71869810D01*
X142250000Y-71850000D01*
X142250000Y-71350000D01*
X144404811Y-71350000D01*
X144439635Y-71345051D01*
X144471702Y-71330596D01*
X144498472Y-71307780D01*
X144519702Y-71274244D01*
X144543338Y-71219098D01*
X144676294Y-71024920D01*
X144844433Y-70860266D01*
X145041353Y-70731405D01*
X145141612Y-70690898D01*
X145172047Y-70673264D01*
X145196363Y-70647849D01*
X145198420Y-70643908D01*
X145205190Y-70646005D01*
X145248423Y-70645371D01*
X145490715Y-70599152D01*
X145726041Y-70600794D01*
X145726041Y-70600794D01*
G37*
G36*
X113072266Y-72850294D02*
X113158713Y-72868039D01*
X113240069Y-72902239D01*
X113313231Y-72951587D01*
X113375417Y-73014209D01*
X113424254Y-73087714D01*
X113457884Y-73169306D01*
X113474853Y-73255007D01*
X113474853Y-73255035D01*
X113475019Y-73255875D01*
X113473611Y-73356673D01*
X113473421Y-73357508D01*
X113473421Y-73357532D01*
X113454064Y-73442731D01*
X113418169Y-73523355D01*
X113396191Y-73554511D01*
X113380161Y-73585820D01*
X113373488Y-73620355D01*
X113376351Y-73651566D01*
X113375569Y-73651293D01*
X113340446Y-73649405D01*
X113306187Y-73657376D01*
X113284384Y-73668387D01*
X113228879Y-73703612D01*
X113146603Y-73735525D01*
X113059693Y-73750849D01*
X112971459Y-73749002D01*
X112885269Y-73730051D01*
X112804396Y-73694719D01*
X112731930Y-73644353D01*
X112670630Y-73580876D01*
X112622821Y-73506690D01*
X112590333Y-73424636D01*
X112574403Y-73337841D01*
X112575636Y-73249593D01*
X112593984Y-73163274D01*
X112628749Y-73082159D01*
X112678607Y-73009343D01*
X112741661Y-72947597D01*
X112815505Y-72899275D01*
X112897330Y-72866215D01*
X112984018Y-72849679D01*
X113072266Y-72850294D01*
X113072266Y-72850294D01*
G37*
G36*
X114272266Y-70650294D02*
X114358713Y-70668039D01*
X114440069Y-70702239D01*
X114513231Y-70751587D01*
X114575417Y-70814209D01*
X114624254Y-70887714D01*
X114657884Y-70969306D01*
X114674853Y-71055007D01*
X114674853Y-71055035D01*
X114675019Y-71055875D01*
X114673611Y-71156673D01*
X114673421Y-71157508D01*
X114673421Y-71157532D01*
X114654064Y-71242731D01*
X114618170Y-71323354D01*
X114567301Y-71395465D01*
X114503392Y-71456323D01*
X114428875Y-71503614D01*
X114353668Y-71532785D01*
X114322990Y-71549992D01*
X114298321Y-71575065D01*
X114281613Y-71606017D01*
X114274190Y-71640399D01*
X114276640Y-71675488D01*
X114288768Y-71708505D01*
X114309614Y-71736836D01*
X114350431Y-71764558D01*
X114440069Y-71802239D01*
X114513231Y-71851587D01*
X114575417Y-71914209D01*
X114624254Y-71987714D01*
X114657884Y-72069306D01*
X114674853Y-72155007D01*
X114674853Y-72155035D01*
X114675019Y-72155875D01*
X114673611Y-72256673D01*
X114673421Y-72257508D01*
X114673421Y-72257532D01*
X114654064Y-72342731D01*
X114618171Y-72423352D01*
X114595283Y-72455796D01*
X114579253Y-72487105D01*
X114572579Y-72521640D01*
X114575792Y-72556667D01*
X114588635Y-72589413D01*
X114610092Y-72617284D01*
X114638465Y-72638073D01*
X114672290Y-72650299D01*
X114758713Y-72668039D01*
X114840069Y-72702239D01*
X114913231Y-72751587D01*
X114975417Y-72814209D01*
X115024254Y-72887714D01*
X115057884Y-72969306D01*
X115074853Y-73055007D01*
X115074853Y-73055035D01*
X115075019Y-73055875D01*
X115073611Y-73156673D01*
X115073421Y-73157508D01*
X115073421Y-73157532D01*
X115054064Y-73242731D01*
X115018169Y-73323355D01*
X114996191Y-73354511D01*
X114980161Y-73385820D01*
X114973488Y-73420355D01*
X114976351Y-73451566D01*
X114975569Y-73451293D01*
X114940446Y-73449405D01*
X114906187Y-73457376D01*
X114884384Y-73468387D01*
X114828879Y-73503612D01*
X114746603Y-73535525D01*
X114659693Y-73550849D01*
X114571459Y-73549002D01*
X114485269Y-73530051D01*
X114404396Y-73494719D01*
X114331930Y-73444353D01*
X114270630Y-73380876D01*
X114222821Y-73306690D01*
X114190333Y-73224636D01*
X114174403Y-73137841D01*
X114175636Y-73049593D01*
X114193984Y-72963274D01*
X114228750Y-72882156D01*
X114255310Y-72843367D01*
X114270901Y-72811838D01*
X114277091Y-72777212D01*
X114273390Y-72742234D01*
X114260090Y-72709671D01*
X114238245Y-72682103D01*
X114209584Y-72661712D01*
X114179014Y-72650663D01*
X114085269Y-72630051D01*
X114004396Y-72594719D01*
X113931930Y-72544353D01*
X113870630Y-72480876D01*
X113822821Y-72406690D01*
X113790333Y-72324636D01*
X113774403Y-72237841D01*
X113775636Y-72149593D01*
X113793984Y-72063274D01*
X113828749Y-71982159D01*
X113878607Y-71909343D01*
X113941661Y-71847597D01*
X114015505Y-71799275D01*
X114097209Y-71766264D01*
X114127644Y-71748630D01*
X114151961Y-71723215D01*
X114168234Y-71692032D01*
X114175176Y-71657550D01*
X114172237Y-71622499D01*
X114159649Y-71589654D01*
X114138409Y-71561617D01*
X114110200Y-71540607D01*
X114096300Y-71535412D01*
X114096499Y-71534957D01*
X114004396Y-71494719D01*
X113931930Y-71444353D01*
X113870630Y-71380876D01*
X113822821Y-71306690D01*
X113790333Y-71224636D01*
X113774403Y-71137841D01*
X113775636Y-71049593D01*
X113793984Y-70963274D01*
X113828749Y-70882159D01*
X113878607Y-70809343D01*
X113941661Y-70747597D01*
X114015505Y-70699275D01*
X114097330Y-70666215D01*
X114184018Y-70649679D01*
X114272266Y-70650294D01*
X114272266Y-70650294D01*
G37*
G36*
X152226041Y-70600794D02*
X152456569Y-70648115D01*
X152673512Y-70739309D01*
X152868616Y-70870908D01*
X153034437Y-71037890D01*
X153164669Y-71233906D01*
X153254348Y-71451484D01*
X153299886Y-71681465D01*
X153299886Y-71681498D01*
X153300051Y-71682334D01*
X153296298Y-71951128D01*
X153296107Y-71951967D01*
X153296107Y-71951988D01*
X153244165Y-72180616D01*
X153199739Y-72280399D01*
X153190096Y-72314226D01*
X153190258Y-72349399D01*
X153200213Y-72383135D01*
X153219173Y-72412762D01*
X153245635Y-72435934D01*
X153288798Y-72453688D01*
X153358712Y-72468039D01*
X153440072Y-72502240D01*
X153456827Y-72513541D01*
X153488465Y-72528912D01*
X153523133Y-72534859D01*
X153558085Y-72530913D01*
X153590554Y-72517386D01*
X153617968Y-72495349D01*
X153629865Y-72480531D01*
X153678608Y-72409342D01*
X153741661Y-72347597D01*
X153815505Y-72299275D01*
X153897330Y-72266215D01*
X153984018Y-72249679D01*
X154072266Y-72250294D01*
X154158713Y-72268039D01*
X154240069Y-72302239D01*
X154313231Y-72351587D01*
X154375416Y-72414208D01*
X154420533Y-72482115D01*
X154443927Y-72508382D01*
X154473712Y-72527093D01*
X154507530Y-72536764D01*
X154542704Y-72536631D01*
X154576448Y-72526704D01*
X154606090Y-72507770D01*
X154627788Y-72483563D01*
X154678607Y-72409343D01*
X154741661Y-72347597D01*
X154815505Y-72299275D01*
X154897330Y-72266215D01*
X154984018Y-72249679D01*
X155072266Y-72250294D01*
X155158713Y-72268039D01*
X155240069Y-72302239D01*
X155313231Y-72351587D01*
X155375416Y-72414208D01*
X155420533Y-72482115D01*
X155443927Y-72508382D01*
X155473712Y-72527093D01*
X155507530Y-72536764D01*
X155542704Y-72536631D01*
X155576448Y-72526704D01*
X155606090Y-72507770D01*
X155627788Y-72483563D01*
X155678607Y-72409343D01*
X155741661Y-72347597D01*
X155815505Y-72299275D01*
X155897330Y-72266215D01*
X155984018Y-72249679D01*
X156072266Y-72250294D01*
X156158713Y-72268039D01*
X156240069Y-72302239D01*
X156313231Y-72351587D01*
X156375417Y-72414209D01*
X156424254Y-72487714D01*
X156457884Y-72569306D01*
X156474853Y-72655007D01*
X156474853Y-72655035D01*
X156475019Y-72655875D01*
X156473611Y-72756673D01*
X156473421Y-72757508D01*
X156473421Y-72757532D01*
X156454064Y-72842731D01*
X156418170Y-72923354D01*
X156367301Y-72995465D01*
X156303392Y-73056323D01*
X156228875Y-73103614D01*
X156146603Y-73135525D01*
X156059693Y-73150849D01*
X155971459Y-73149002D01*
X155885269Y-73130051D01*
X155804396Y-73094719D01*
X155731930Y-73044353D01*
X155670630Y-72980876D01*
X155631118Y-72919565D01*
X155608093Y-72892974D01*
X155578572Y-72873850D01*
X155544892Y-72863708D01*
X155509720Y-72863350D01*
X155475841Y-72872805D01*
X155445937Y-72891324D01*
X155423904Y-72915225D01*
X155367301Y-72995465D01*
X155303392Y-73056323D01*
X155228875Y-73103614D01*
X155146603Y-73135525D01*
X155059693Y-73150849D01*
X154971459Y-73149002D01*
X154885269Y-73130051D01*
X154804396Y-73094719D01*
X154731930Y-73044353D01*
X154670630Y-72980876D01*
X154631118Y-72919565D01*
X154608093Y-72892974D01*
X154578572Y-72873850D01*
X154544892Y-72863708D01*
X154509720Y-72863350D01*
X154475841Y-72872805D01*
X154445937Y-72891324D01*
X154423904Y-72915225D01*
X154367301Y-72995465D01*
X154303392Y-73056323D01*
X154228875Y-73103614D01*
X154146603Y-73135525D01*
X154059693Y-73150849D01*
X153971459Y-73149002D01*
X153885269Y-73130051D01*
X153804396Y-73094719D01*
X153794920Y-73088133D01*
X153763500Y-73072322D01*
X153728919Y-73065890D01*
X153693915Y-73069347D01*
X153661260Y-73082419D01*
X153633540Y-73104071D01*
X153621437Y-73118722D01*
X153567301Y-73195465D01*
X153503392Y-73256323D01*
X153428875Y-73303614D01*
X153346603Y-73335525D01*
X153259693Y-73350849D01*
X153171459Y-73349002D01*
X153085269Y-73330051D01*
X153004396Y-73294719D01*
X152931930Y-73244353D01*
X152870630Y-73180876D01*
X152822821Y-73106690D01*
X152790335Y-73024640D01*
X152782447Y-72981662D01*
X152771293Y-72948303D01*
X152751287Y-72919372D01*
X152724013Y-72897160D01*
X152691631Y-72883426D01*
X152656705Y-72879257D01*
X152614297Y-72887685D01*
X152424265Y-72961393D01*
X152192511Y-73002257D01*
X151957225Y-72997329D01*
X151725665Y-72946417D01*
X151694118Y-72937660D01*
X151658946Y-72938066D01*
X151625280Y-72948254D01*
X151595785Y-72967419D01*
X151572797Y-72994042D01*
X151556068Y-73033916D01*
X151554066Y-73042727D01*
X151518170Y-73123354D01*
X151467301Y-73195465D01*
X151403392Y-73256323D01*
X151328875Y-73303614D01*
X151246603Y-73335525D01*
X151159693Y-73350849D01*
X151071459Y-73349002D01*
X150985269Y-73330051D01*
X150904396Y-73294719D01*
X150831930Y-73244353D01*
X150770630Y-73180876D01*
X150722821Y-73106690D01*
X150690333Y-73024636D01*
X150674403Y-72937841D01*
X150675636Y-72849593D01*
X150693984Y-72763274D01*
X150728749Y-72682159D01*
X150778607Y-72609343D01*
X150841661Y-72547597D01*
X150915505Y-72499275D01*
X150947542Y-72486331D01*
X150977977Y-72468697D01*
X151002294Y-72443282D01*
X151018567Y-72412099D01*
X151025509Y-72377617D01*
X151022570Y-72342566D01*
X151016938Y-72324417D01*
X150940899Y-72132364D01*
X150898417Y-71900903D01*
X150901703Y-71665586D01*
X150950630Y-71435402D01*
X151043340Y-71219095D01*
X151176294Y-71024920D01*
X151344433Y-70860266D01*
X151541353Y-70731406D01*
X151759549Y-70643248D01*
X151990714Y-70599152D01*
X152226041Y-70600794D01*
X152226041Y-70600794D01*
G37*
G36*
X123226041Y-70600794D02*
X123456569Y-70648115D01*
X123673512Y-70739309D01*
X123868616Y-70870908D01*
X124034437Y-71037890D01*
X124164669Y-71233906D01*
X124254348Y-71451484D01*
X124299886Y-71681465D01*
X124299886Y-71681498D01*
X124300051Y-71682334D01*
X124296298Y-71951128D01*
X124296107Y-71951967D01*
X124296107Y-71951988D01*
X124244165Y-72180616D01*
X124199739Y-72280399D01*
X124190096Y-72314226D01*
X124190258Y-72349399D01*
X124200213Y-72383135D01*
X124219173Y-72412762D01*
X124245635Y-72435934D01*
X124288798Y-72453688D01*
X124358712Y-72468039D01*
X124440072Y-72502240D01*
X124456827Y-72513541D01*
X124488465Y-72528912D01*
X124523133Y-72534859D01*
X124558085Y-72530913D01*
X124590554Y-72517386D01*
X124617968Y-72495349D01*
X124629865Y-72480531D01*
X124678608Y-72409342D01*
X124741661Y-72347597D01*
X124815505Y-72299275D01*
X124897330Y-72266215D01*
X124984018Y-72249679D01*
X125072266Y-72250294D01*
X125158713Y-72268039D01*
X125240069Y-72302239D01*
X125313231Y-72351587D01*
X125375416Y-72414208D01*
X125420533Y-72482115D01*
X125443927Y-72508382D01*
X125473712Y-72527093D01*
X125507530Y-72536764D01*
X125542704Y-72536631D01*
X125576448Y-72526704D01*
X125606090Y-72507770D01*
X125627788Y-72483563D01*
X125678607Y-72409343D01*
X125741661Y-72347597D01*
X125815505Y-72299275D01*
X125897330Y-72266215D01*
X125984018Y-72249679D01*
X126072266Y-72250294D01*
X126158713Y-72268039D01*
X126240069Y-72302239D01*
X126313231Y-72351587D01*
X126375416Y-72414208D01*
X126420533Y-72482115D01*
X126443927Y-72508382D01*
X126473712Y-72527093D01*
X126507530Y-72536764D01*
X126542704Y-72536631D01*
X126576448Y-72526704D01*
X126606090Y-72507770D01*
X126627788Y-72483563D01*
X126678607Y-72409343D01*
X126741661Y-72347597D01*
X126815505Y-72299275D01*
X126897330Y-72266215D01*
X126984018Y-72249679D01*
X127072266Y-72250294D01*
X127158713Y-72268039D01*
X127240069Y-72302239D01*
X127313231Y-72351587D01*
X127375417Y-72414209D01*
X127424254Y-72487714D01*
X127457884Y-72569306D01*
X127474853Y-72655007D01*
X127474853Y-72655035D01*
X127475019Y-72655875D01*
X127473611Y-72756673D01*
X127473421Y-72757508D01*
X127473421Y-72757532D01*
X127454064Y-72842731D01*
X127418170Y-72923354D01*
X127367301Y-72995465D01*
X127303392Y-73056323D01*
X127228875Y-73103614D01*
X127146603Y-73135525D01*
X127059693Y-73150849D01*
X126971459Y-73149002D01*
X126885269Y-73130051D01*
X126804396Y-73094719D01*
X126731930Y-73044353D01*
X126670630Y-72980876D01*
X126631118Y-72919565D01*
X126608093Y-72892974D01*
X126578572Y-72873850D01*
X126544892Y-72863708D01*
X126509720Y-72863350D01*
X126475841Y-72872805D01*
X126445937Y-72891324D01*
X126423904Y-72915225D01*
X126367301Y-72995465D01*
X126303392Y-73056323D01*
X126228875Y-73103614D01*
X126146603Y-73135525D01*
X126059693Y-73150849D01*
X125971459Y-73149002D01*
X125885269Y-73130051D01*
X125804396Y-73094719D01*
X125731930Y-73044353D01*
X125670630Y-72980876D01*
X125631118Y-72919565D01*
X125608093Y-72892974D01*
X125578572Y-72873850D01*
X125544892Y-72863708D01*
X125509720Y-72863350D01*
X125475841Y-72872805D01*
X125445937Y-72891324D01*
X125423904Y-72915225D01*
X125367301Y-72995465D01*
X125303392Y-73056323D01*
X125228875Y-73103614D01*
X125146603Y-73135525D01*
X125059693Y-73150849D01*
X124971459Y-73149002D01*
X124885269Y-73130051D01*
X124804396Y-73094719D01*
X124794920Y-73088133D01*
X124763500Y-73072322D01*
X124728919Y-73065890D01*
X124693915Y-73069347D01*
X124661260Y-73082419D01*
X124633540Y-73104071D01*
X124621437Y-73118722D01*
X124567301Y-73195465D01*
X124503392Y-73256323D01*
X124428875Y-73303614D01*
X124346603Y-73335525D01*
X124259693Y-73350849D01*
X124171459Y-73349002D01*
X124085269Y-73330051D01*
X124004396Y-73294719D01*
X123931930Y-73244353D01*
X123870630Y-73180876D01*
X123822821Y-73106690D01*
X123790335Y-73024640D01*
X123782447Y-72981662D01*
X123771293Y-72948303D01*
X123751287Y-72919372D01*
X123724013Y-72897160D01*
X123691631Y-72883426D01*
X123656705Y-72879257D01*
X123614297Y-72887685D01*
X123424265Y-72961393D01*
X123192511Y-73002257D01*
X122957225Y-72997329D01*
X122725665Y-72946417D01*
X122694118Y-72937660D01*
X122658946Y-72938066D01*
X122625280Y-72948254D01*
X122595785Y-72967419D01*
X122572797Y-72994042D01*
X122556068Y-73033916D01*
X122554066Y-73042727D01*
X122518170Y-73123354D01*
X122467301Y-73195465D01*
X122403392Y-73256323D01*
X122328875Y-73303614D01*
X122246603Y-73335525D01*
X122159693Y-73350849D01*
X122071459Y-73349002D01*
X121985269Y-73330051D01*
X121904396Y-73294719D01*
X121831930Y-73244353D01*
X121770630Y-73180876D01*
X121722821Y-73106690D01*
X121690333Y-73024636D01*
X121674403Y-72937841D01*
X121675636Y-72849593D01*
X121693984Y-72763274D01*
X121728749Y-72682159D01*
X121778607Y-72609343D01*
X121841661Y-72547597D01*
X121915505Y-72499275D01*
X121947542Y-72486331D01*
X121977977Y-72468697D01*
X122002294Y-72443282D01*
X122018567Y-72412099D01*
X122025509Y-72377617D01*
X122022570Y-72342566D01*
X122016938Y-72324417D01*
X121940899Y-72132364D01*
X121898417Y-71900903D01*
X121901703Y-71665586D01*
X121950630Y-71435402D01*
X122043340Y-71219095D01*
X122176294Y-71024920D01*
X122344433Y-70860266D01*
X122541353Y-70731406D01*
X122759549Y-70643248D01*
X122990714Y-70599152D01*
X123226041Y-70600794D01*
X123226041Y-70600794D01*
G37*
G36*
X116726041Y-70600794D02*
X116956569Y-70648115D01*
X117173512Y-70739309D01*
X117368616Y-70870908D01*
X117534437Y-71037890D01*
X117664669Y-71233906D01*
X117754348Y-71451484D01*
X117799886Y-71681465D01*
X117799886Y-71681498D01*
X117800051Y-71682334D01*
X117796298Y-71951128D01*
X117796107Y-71951967D01*
X117796107Y-71951988D01*
X117744165Y-72180616D01*
X117648447Y-72395601D01*
X117512795Y-72587901D01*
X117342372Y-72750191D01*
X117143673Y-72876290D01*
X116924265Y-72961393D01*
X116692511Y-73002257D01*
X116457225Y-72997329D01*
X116227383Y-72946795D01*
X116011735Y-72852580D01*
X115818487Y-72718269D01*
X115655016Y-72548991D01*
X115527530Y-72351171D01*
X115440899Y-72132366D01*
X115398417Y-71900903D01*
X115401703Y-71665586D01*
X115450630Y-71435402D01*
X115543340Y-71219095D01*
X115676294Y-71024920D01*
X115844433Y-70860266D01*
X116041353Y-70731405D01*
X116141612Y-70690898D01*
X116172047Y-70673264D01*
X116196363Y-70647849D01*
X116198420Y-70643908D01*
X116205190Y-70646005D01*
X116248423Y-70645371D01*
X116490715Y-70599152D01*
X116726041Y-70600794D01*
X116726041Y-70600794D01*
G37*
G36*
X111250000Y-71300000D02*
X111254949Y-71334824D01*
X111269404Y-71366891D01*
X111292220Y-71393661D01*
X111321590Y-71413015D01*
X111355190Y-71423420D01*
X111375000Y-71425000D01*
X111425000Y-71425000D01*
X111459824Y-71420051D01*
X111491891Y-71405596D01*
X111518661Y-71382780D01*
X111538015Y-71353410D01*
X111548420Y-71319810D01*
X111550000Y-71300000D01*
X111550000Y-70250000D01*
X112750000Y-70250000D01*
X112750000Y-71300000D01*
X112754949Y-71334824D01*
X112769404Y-71366891D01*
X112775000Y-71373457D01*
X112775000Y-72425000D01*
X111075000Y-72425000D01*
X111075000Y-71525000D01*
X111070051Y-71490176D01*
X111055596Y-71458109D01*
X111032780Y-71431339D01*
X111003410Y-71411985D01*
X110969810Y-71401580D01*
X110950000Y-71400000D01*
X110050000Y-71400000D01*
X110050000Y-70250000D01*
X111250000Y-70250000D01*
X111250000Y-71300000D01*
X111250000Y-71300000D01*
G37*
G36*
X140250000Y-71300000D02*
X140254949Y-71334824D01*
X140269404Y-71366891D01*
X140292220Y-71393661D01*
X140321590Y-71413015D01*
X140355190Y-71423420D01*
X140375000Y-71425000D01*
X140425000Y-71425000D01*
X140459824Y-71420051D01*
X140491891Y-71405596D01*
X140518661Y-71382780D01*
X140538015Y-71353410D01*
X140548420Y-71319810D01*
X140550000Y-71300000D01*
X140550000Y-70250000D01*
X141750000Y-70250000D01*
X141750000Y-71300000D01*
X141754949Y-71334824D01*
X141769404Y-71366891D01*
X141775000Y-71373457D01*
X141775000Y-72425000D01*
X140075000Y-72425000D01*
X140075000Y-71525000D01*
X140070051Y-71490176D01*
X140055596Y-71458109D01*
X140032780Y-71431339D01*
X140003410Y-71411985D01*
X139969810Y-71401580D01*
X139950000Y-71400000D01*
X139050000Y-71400000D01*
X139050000Y-70250000D01*
X140250000Y-70250000D01*
X140250000Y-71300000D01*
X140250000Y-71300000D01*
G37*
G36*
X136671959Y-68115072D02*
X136720780Y-68125000D01*
X138350000Y-68125000D01*
X138350000Y-71575000D01*
X136721376Y-71575000D01*
X136686552Y-71579949D01*
X136654485Y-71594404D01*
X136650000Y-71598227D01*
X136650000Y-68101837D01*
X136671959Y-68115072D01*
X136671959Y-68115072D01*
G37*
G36*
X107671959Y-68115072D02*
X107720780Y-68125000D01*
X109350000Y-68125000D01*
X109350000Y-71575000D01*
X107721376Y-71575000D01*
X107686552Y-71579949D01*
X107654485Y-71594404D01*
X107650000Y-71598227D01*
X107650000Y-68101837D01*
X107671959Y-68115072D01*
X107671959Y-68115072D01*
G37*
G36*
X156300000Y-71500000D02*
X154200000Y-71500000D01*
X154200000Y-69400000D01*
X156300000Y-69400000D01*
X156300000Y-71500000D01*
X156300000Y-71500000D01*
G37*
G36*
X127300000Y-71500000D02*
X125200000Y-71500000D01*
X125200000Y-69400000D01*
X127300000Y-69400000D01*
X127300000Y-71500000D01*
X127300000Y-71500000D01*
G37*
G36*
X116100000Y-70450567D02*
X116094786Y-70450000D01*
X115100000Y-70450000D01*
X115100000Y-68750000D01*
X116100000Y-68750000D01*
X116100000Y-70450567D01*
X116100000Y-70450567D01*
G37*
G36*
X145100000Y-70450567D02*
X145094786Y-70450000D01*
X144100000Y-70450000D01*
X144100000Y-68750000D01*
X145100000Y-68750000D01*
X145100000Y-70450567D01*
X145100000Y-70450567D01*
G37*
G36*
X140428971Y-67799997D02*
X140436379Y-67800048D01*
X140436395Y-67800050D01*
X140441451Y-67800085D01*
X140611157Y-67819121D01*
X140773933Y-67870757D01*
X140923580Y-67953026D01*
X141054398Y-68062795D01*
X141161403Y-68195882D01*
X141240520Y-68347219D01*
X141288735Y-68511041D01*
X141288743Y-68511125D01*
X141288750Y-68511150D01*
X141304218Y-68681108D01*
X141286380Y-68850821D01*
X141286372Y-68850846D01*
X141286362Y-68850943D01*
X141235864Y-69014076D01*
X141154642Y-69164294D01*
X141045789Y-69295874D01*
X140913452Y-69403806D01*
X140762671Y-69483978D01*
X140599189Y-69533336D01*
X140429234Y-69550000D01*
X140420597Y-69550000D01*
X140413621Y-69549952D01*
X140413605Y-69549950D01*
X140408549Y-69549915D01*
X140238843Y-69530879D01*
X140076067Y-69479243D01*
X139926420Y-69396974D01*
X139795602Y-69287205D01*
X139688597Y-69154118D01*
X139609480Y-69002781D01*
X139561265Y-68838959D01*
X139561257Y-68838875D01*
X139561250Y-68838850D01*
X139545782Y-68668892D01*
X139563620Y-68499179D01*
X139563628Y-68499154D01*
X139563638Y-68499057D01*
X139614136Y-68335924D01*
X139695358Y-68185706D01*
X139804211Y-68054126D01*
X139936548Y-67946194D01*
X140087329Y-67866022D01*
X140250811Y-67816664D01*
X140420766Y-67800000D01*
X140426269Y-67800000D01*
X140427972Y-67799833D01*
X140428971Y-67799997D01*
X140428971Y-67799997D01*
G37*
G36*
X111428971Y-67799997D02*
X111436379Y-67800048D01*
X111436395Y-67800050D01*
X111441451Y-67800085D01*
X111611157Y-67819121D01*
X111773933Y-67870757D01*
X111923580Y-67953026D01*
X112054398Y-68062795D01*
X112161403Y-68195882D01*
X112240520Y-68347219D01*
X112288735Y-68511041D01*
X112288743Y-68511125D01*
X112288750Y-68511150D01*
X112304218Y-68681108D01*
X112286380Y-68850821D01*
X112286372Y-68850846D01*
X112286362Y-68850943D01*
X112235864Y-69014076D01*
X112154642Y-69164294D01*
X112045789Y-69295874D01*
X111913452Y-69403806D01*
X111762671Y-69483978D01*
X111599189Y-69533336D01*
X111429234Y-69550000D01*
X111420597Y-69550000D01*
X111413621Y-69549952D01*
X111413605Y-69549950D01*
X111408549Y-69549915D01*
X111238843Y-69530879D01*
X111076067Y-69479243D01*
X110926420Y-69396974D01*
X110795602Y-69287205D01*
X110688597Y-69154118D01*
X110609480Y-69002781D01*
X110561265Y-68838959D01*
X110561257Y-68838875D01*
X110561250Y-68838850D01*
X110545782Y-68668892D01*
X110563620Y-68499179D01*
X110563628Y-68499154D01*
X110563638Y-68499057D01*
X110614136Y-68335924D01*
X110695358Y-68185706D01*
X110804211Y-68054126D01*
X110936548Y-67946194D01*
X111087329Y-67866022D01*
X111250811Y-67816664D01*
X111420766Y-67800000D01*
X111426269Y-67800000D01*
X111427972Y-67799833D01*
X111428971Y-67799997D01*
X111428971Y-67799997D01*
G37*
G36*
X155264666Y-66860066D02*
X155264673Y-66860067D01*
X155269741Y-66860102D01*
X155473388Y-66882945D01*
X155668720Y-66944908D01*
X155848296Y-67043631D01*
X156005277Y-67175353D01*
X156133684Y-67335059D01*
X156228624Y-67516663D01*
X156286483Y-67713250D01*
X156286491Y-67713334D01*
X156286498Y-67713359D01*
X156305060Y-67917330D01*
X156283652Y-68121009D01*
X156283646Y-68121029D01*
X156283635Y-68121132D01*
X156223037Y-68316891D01*
X156125570Y-68497153D01*
X155994947Y-68655049D01*
X155836142Y-68784567D01*
X155655205Y-68880773D01*
X155459027Y-68940003D01*
X155255081Y-68960000D01*
X155244763Y-68960000D01*
X155235334Y-68959934D01*
X155235327Y-68959933D01*
X155230259Y-68959898D01*
X155026612Y-68937055D01*
X154831280Y-68875092D01*
X154651704Y-68776369D01*
X154494723Y-68644647D01*
X154366316Y-68484941D01*
X154271376Y-68303337D01*
X154213517Y-68106750D01*
X154213509Y-68106666D01*
X154213502Y-68106641D01*
X154194940Y-67902670D01*
X154216348Y-67698991D01*
X154216354Y-67698971D01*
X154216365Y-67698868D01*
X154276963Y-67503109D01*
X154374430Y-67322847D01*
X154505053Y-67164951D01*
X154663858Y-67035433D01*
X154844795Y-66939227D01*
X155040973Y-66879997D01*
X155244919Y-66860000D01*
X155255237Y-66860000D01*
X155264666Y-66860066D01*
X155264666Y-66860066D01*
G37*
G36*
X126264666Y-66860066D02*
X126264673Y-66860067D01*
X126269741Y-66860102D01*
X126473388Y-66882945D01*
X126668720Y-66944908D01*
X126848296Y-67043631D01*
X127005277Y-67175353D01*
X127133684Y-67335059D01*
X127228624Y-67516663D01*
X127286483Y-67713250D01*
X127286491Y-67713334D01*
X127286498Y-67713359D01*
X127305060Y-67917330D01*
X127283652Y-68121009D01*
X127283646Y-68121029D01*
X127283635Y-68121132D01*
X127223037Y-68316891D01*
X127125570Y-68497153D01*
X126994947Y-68655049D01*
X126836142Y-68784567D01*
X126655205Y-68880773D01*
X126459027Y-68940003D01*
X126255081Y-68960000D01*
X126244763Y-68960000D01*
X126235334Y-68959934D01*
X126235327Y-68959933D01*
X126230259Y-68959898D01*
X126026612Y-68937055D01*
X125831280Y-68875092D01*
X125651704Y-68776369D01*
X125494723Y-68644647D01*
X125366316Y-68484941D01*
X125271376Y-68303337D01*
X125213517Y-68106750D01*
X125213509Y-68106666D01*
X125213502Y-68106641D01*
X125194940Y-67902670D01*
X125216348Y-67698991D01*
X125216354Y-67698971D01*
X125216365Y-67698868D01*
X125276963Y-67503109D01*
X125374430Y-67322847D01*
X125505053Y-67164951D01*
X125663858Y-67035433D01*
X125844795Y-66939227D01*
X126040973Y-66879997D01*
X126244919Y-66860000D01*
X126255237Y-66860000D01*
X126264666Y-66860066D01*
X126264666Y-66860066D01*
G37*
G36*
X123226041Y-66100794D02*
X123456569Y-66148115D01*
X123673512Y-66239309D01*
X123868616Y-66370908D01*
X124034437Y-66537890D01*
X124164669Y-66733906D01*
X124254348Y-66951484D01*
X124299886Y-67181465D01*
X124299886Y-67181498D01*
X124300051Y-67182334D01*
X124296298Y-67451128D01*
X124296107Y-67451967D01*
X124296107Y-67451988D01*
X124244165Y-67680616D01*
X124148447Y-67895601D01*
X124012795Y-68087901D01*
X123842372Y-68250191D01*
X123643673Y-68376290D01*
X123424265Y-68461393D01*
X123192511Y-68502257D01*
X122957225Y-68497329D01*
X122727383Y-68446795D01*
X122511735Y-68352580D01*
X122318487Y-68218269D01*
X122155016Y-68048991D01*
X122027530Y-67851171D01*
X121940899Y-67632366D01*
X121898417Y-67400903D01*
X121901703Y-67165586D01*
X121950630Y-66935402D01*
X122043340Y-66719095D01*
X122176294Y-66524920D01*
X122344433Y-66360266D01*
X122541353Y-66231406D01*
X122759549Y-66143248D01*
X122990714Y-66099152D01*
X123226041Y-66100794D01*
X123226041Y-66100794D01*
G37*
G36*
X116726041Y-66100794D02*
X116956569Y-66148115D01*
X117173512Y-66239309D01*
X117368616Y-66370908D01*
X117534437Y-66537890D01*
X117664669Y-66733906D01*
X117754348Y-66951484D01*
X117799886Y-67181465D01*
X117799886Y-67181498D01*
X117800051Y-67182334D01*
X117796298Y-67451128D01*
X117796107Y-67451967D01*
X117796107Y-67451988D01*
X117744165Y-67680616D01*
X117648447Y-67895601D01*
X117512795Y-68087901D01*
X117342372Y-68250191D01*
X117143673Y-68376290D01*
X116924265Y-68461393D01*
X116692511Y-68502257D01*
X116457225Y-68497329D01*
X116227383Y-68446795D01*
X116011735Y-68352580D01*
X115818487Y-68218269D01*
X115655016Y-68048991D01*
X115527530Y-67851171D01*
X115440899Y-67632366D01*
X115398417Y-67400903D01*
X115401703Y-67165586D01*
X115450630Y-66935402D01*
X115543340Y-66719095D01*
X115676294Y-66524920D01*
X115844433Y-66360266D01*
X116041353Y-66231406D01*
X116259549Y-66143248D01*
X116490714Y-66099152D01*
X116726041Y-66100794D01*
X116726041Y-66100794D01*
G37*
G36*
X145726041Y-66100794D02*
X145956569Y-66148115D01*
X146173512Y-66239309D01*
X146368616Y-66370908D01*
X146534437Y-66537890D01*
X146664669Y-66733906D01*
X146754348Y-66951484D01*
X146799886Y-67181465D01*
X146799886Y-67181498D01*
X146800051Y-67182334D01*
X146796298Y-67451128D01*
X146796107Y-67451967D01*
X146796107Y-67451988D01*
X146744165Y-67680616D01*
X146648447Y-67895601D01*
X146512795Y-68087901D01*
X146342372Y-68250191D01*
X146143673Y-68376290D01*
X145924265Y-68461393D01*
X145692511Y-68502257D01*
X145457225Y-68497329D01*
X145227383Y-68446795D01*
X145011735Y-68352580D01*
X144818487Y-68218269D01*
X144655016Y-68048991D01*
X144527530Y-67851171D01*
X144440899Y-67632366D01*
X144398417Y-67400903D01*
X144401703Y-67165586D01*
X144450630Y-66935402D01*
X144543340Y-66719095D01*
X144676294Y-66524920D01*
X144844433Y-66360266D01*
X145041353Y-66231406D01*
X145259549Y-66143248D01*
X145490714Y-66099152D01*
X145726041Y-66100794D01*
X145726041Y-66100794D01*
G37*
G36*
X152226041Y-66100794D02*
X152456569Y-66148115D01*
X152673512Y-66239309D01*
X152868616Y-66370908D01*
X153034437Y-66537890D01*
X153164669Y-66733906D01*
X153254348Y-66951484D01*
X153299886Y-67181465D01*
X153299886Y-67181498D01*
X153300051Y-67182334D01*
X153296298Y-67451128D01*
X153296107Y-67451967D01*
X153296107Y-67451988D01*
X153244165Y-67680616D01*
X153148447Y-67895601D01*
X153012795Y-68087901D01*
X152842372Y-68250191D01*
X152643673Y-68376290D01*
X152424265Y-68461393D01*
X152192511Y-68502257D01*
X151957225Y-68497329D01*
X151727383Y-68446795D01*
X151511735Y-68352580D01*
X151318487Y-68218269D01*
X151155016Y-68048991D01*
X151027530Y-67851171D01*
X150940899Y-67632366D01*
X150898417Y-67400903D01*
X150901703Y-67165586D01*
X150950630Y-66935402D01*
X151043340Y-66719095D01*
X151176294Y-66524920D01*
X151344433Y-66360266D01*
X151541353Y-66231406D01*
X151759549Y-66143248D01*
X151990714Y-66099152D01*
X152226041Y-66100794D01*
X152226041Y-66100794D01*
G37*
G36*
X114272266Y-65650294D02*
X114358713Y-65668039D01*
X114440069Y-65702239D01*
X114513231Y-65751587D01*
X114575417Y-65814209D01*
X114624254Y-65887714D01*
X114657884Y-65969306D01*
X114674853Y-66055007D01*
X114674853Y-66055035D01*
X114675019Y-66055875D01*
X114673611Y-66156673D01*
X114673421Y-66157508D01*
X114673421Y-66157532D01*
X114654064Y-66242731D01*
X114618170Y-66323354D01*
X114567301Y-66395465D01*
X114500029Y-66459526D01*
X114478223Y-66487125D01*
X114464969Y-66519707D01*
X114461317Y-66554691D01*
X114467556Y-66589307D01*
X114483192Y-66620815D01*
X114505023Y-66642465D01*
X114504595Y-66642890D01*
X114575417Y-66714209D01*
X114624254Y-66787714D01*
X114657884Y-66869306D01*
X114674853Y-66955007D01*
X114674853Y-66955035D01*
X114675019Y-66955875D01*
X114673611Y-67056673D01*
X114673421Y-67057508D01*
X114673421Y-67057532D01*
X114654064Y-67142731D01*
X114618170Y-67223354D01*
X114567301Y-67295465D01*
X114500029Y-67359526D01*
X114478223Y-67387125D01*
X114464969Y-67419707D01*
X114461317Y-67454691D01*
X114467556Y-67489307D01*
X114483192Y-67520815D01*
X114505023Y-67542465D01*
X114504595Y-67542890D01*
X114575417Y-67614209D01*
X114624254Y-67687714D01*
X114657884Y-67769306D01*
X114674853Y-67855007D01*
X114674853Y-67855035D01*
X114675019Y-67855875D01*
X114673611Y-67956673D01*
X114673421Y-67957508D01*
X114673421Y-67957532D01*
X114654064Y-68042731D01*
X114618170Y-68123354D01*
X114567301Y-68195465D01*
X114503392Y-68256323D01*
X114428875Y-68303614D01*
X114346603Y-68335525D01*
X114259693Y-68350849D01*
X114171459Y-68349002D01*
X114085269Y-68330051D01*
X114004396Y-68294719D01*
X113931930Y-68244353D01*
X113870630Y-68180876D01*
X113822821Y-68106690D01*
X113790333Y-68024636D01*
X113774403Y-67937841D01*
X113775636Y-67849593D01*
X113793984Y-67763274D01*
X113828749Y-67682159D01*
X113878607Y-67609343D01*
X113950417Y-67539023D01*
X113949768Y-67538360D01*
X113958634Y-67530574D01*
X113977549Y-67500919D01*
X113987454Y-67467168D01*
X113987564Y-67431994D01*
X113977870Y-67398182D01*
X113959141Y-67368409D01*
X113935089Y-67346548D01*
X113931927Y-67344351D01*
X113870630Y-67280876D01*
X113822821Y-67206690D01*
X113790333Y-67124636D01*
X113774403Y-67037841D01*
X113775636Y-66949593D01*
X113793984Y-66863274D01*
X113828749Y-66782159D01*
X113878607Y-66709343D01*
X113950417Y-66639023D01*
X113949768Y-66638360D01*
X113958634Y-66630574D01*
X113977549Y-66600919D01*
X113987454Y-66567168D01*
X113987564Y-66531994D01*
X113977870Y-66498182D01*
X113959141Y-66468409D01*
X113935089Y-66446548D01*
X113931927Y-66444351D01*
X113870630Y-66380876D01*
X113822821Y-66306690D01*
X113790333Y-66224636D01*
X113774403Y-66137841D01*
X113775636Y-66049593D01*
X113793984Y-65963274D01*
X113828749Y-65882159D01*
X113878607Y-65809343D01*
X113941661Y-65747597D01*
X114015505Y-65699275D01*
X114097330Y-65666215D01*
X114184018Y-65649679D01*
X114272266Y-65650294D01*
X114272266Y-65650294D01*
G37*
G36*
X143272266Y-65650294D02*
X143358713Y-65668039D01*
X143440069Y-65702239D01*
X143513231Y-65751587D01*
X143575417Y-65814209D01*
X143624254Y-65887714D01*
X143657884Y-65969306D01*
X143674853Y-66055007D01*
X143674853Y-66055035D01*
X143675019Y-66055875D01*
X143673611Y-66156673D01*
X143673421Y-66157508D01*
X143673421Y-66157532D01*
X143654064Y-66242731D01*
X143618170Y-66323354D01*
X143567301Y-66395465D01*
X143500029Y-66459526D01*
X143478223Y-66487125D01*
X143464969Y-66519707D01*
X143461317Y-66554691D01*
X143467556Y-66589307D01*
X143483192Y-66620815D01*
X143505023Y-66642465D01*
X143504595Y-66642890D01*
X143575417Y-66714209D01*
X143624254Y-66787714D01*
X143657884Y-66869306D01*
X143674853Y-66955007D01*
X143674853Y-66955035D01*
X143675019Y-66955875D01*
X143673611Y-67056673D01*
X143673421Y-67057508D01*
X143673421Y-67057532D01*
X143654064Y-67142731D01*
X143618170Y-67223354D01*
X143567301Y-67295465D01*
X143500029Y-67359526D01*
X143478223Y-67387125D01*
X143464969Y-67419707D01*
X143461317Y-67454691D01*
X143467556Y-67489307D01*
X143483192Y-67520815D01*
X143505023Y-67542465D01*
X143504595Y-67542890D01*
X143575417Y-67614209D01*
X143624254Y-67687714D01*
X143657884Y-67769306D01*
X143674853Y-67855007D01*
X143674853Y-67855035D01*
X143675019Y-67855875D01*
X143673611Y-67956673D01*
X143673421Y-67957508D01*
X143673421Y-67957532D01*
X143654064Y-68042731D01*
X143618170Y-68123354D01*
X143567301Y-68195465D01*
X143503392Y-68256323D01*
X143428875Y-68303614D01*
X143346603Y-68335525D01*
X143259693Y-68350849D01*
X143171459Y-68349002D01*
X143085269Y-68330051D01*
X143004396Y-68294719D01*
X142931930Y-68244353D01*
X142870630Y-68180876D01*
X142822821Y-68106690D01*
X142790333Y-68024636D01*
X142774403Y-67937841D01*
X142775636Y-67849593D01*
X142793984Y-67763274D01*
X142828749Y-67682159D01*
X142878607Y-67609343D01*
X142950417Y-67539023D01*
X142949768Y-67538360D01*
X142958634Y-67530574D01*
X142977549Y-67500919D01*
X142987454Y-67467168D01*
X142987564Y-67431994D01*
X142977870Y-67398182D01*
X142959141Y-67368409D01*
X142935089Y-67346548D01*
X142931927Y-67344351D01*
X142870630Y-67280876D01*
X142822821Y-67206690D01*
X142790333Y-67124636D01*
X142774403Y-67037841D01*
X142775636Y-66949593D01*
X142793984Y-66863274D01*
X142828749Y-66782159D01*
X142878607Y-66709343D01*
X142950417Y-66639023D01*
X142949768Y-66638360D01*
X142958634Y-66630574D01*
X142977549Y-66600919D01*
X142987454Y-66567168D01*
X142987564Y-66531994D01*
X142977870Y-66498182D01*
X142959141Y-66468409D01*
X142935089Y-66446548D01*
X142931927Y-66444351D01*
X142870630Y-66380876D01*
X142822821Y-66306690D01*
X142790333Y-66224636D01*
X142774403Y-66137841D01*
X142775636Y-66049593D01*
X142793984Y-65963274D01*
X142828749Y-65882159D01*
X142878607Y-65809343D01*
X142941661Y-65747597D01*
X143015505Y-65699275D01*
X143097330Y-65666215D01*
X143184018Y-65649679D01*
X143272266Y-65650294D01*
X143272266Y-65650294D01*
G37*
G36*
X109850000Y-65100000D02*
X109263452Y-65100000D01*
X109228628Y-65104949D01*
X109196561Y-65119404D01*
X109169791Y-65142220D01*
X109150437Y-65171590D01*
X109140032Y-65205190D01*
X109139399Y-65240358D01*
X109148589Y-65274311D01*
X109166874Y-65304358D01*
X109201990Y-65333507D01*
X109253400Y-65361770D01*
X109391693Y-65477811D01*
X109504813Y-65618504D01*
X109588451Y-65778489D01*
X109639422Y-65951672D01*
X109639429Y-65951753D01*
X109639438Y-65951782D01*
X109655789Y-66131457D01*
X109636931Y-66310874D01*
X109636923Y-66310899D01*
X109636913Y-66310997D01*
X109583529Y-66483452D01*
X109497666Y-66642253D01*
X109382593Y-66781353D01*
X109242693Y-66895452D01*
X109083296Y-66980205D01*
X108910473Y-67032384D01*
X108730806Y-67050000D01*
X108169028Y-67050000D01*
X108161353Y-67049947D01*
X108161337Y-67049945D01*
X108156279Y-67049910D01*
X108110248Y-67044747D01*
X108078853Y-67045672D01*
X108045375Y-67056462D01*
X108016228Y-67076151D01*
X107993720Y-67103181D01*
X107979634Y-67135412D01*
X107975085Y-67170290D01*
X107979956Y-67202014D01*
X107988573Y-67230556D01*
X108000000Y-67347097D01*
X108000000Y-67353059D01*
X107999978Y-67356207D01*
X107999977Y-67356215D01*
X107999942Y-67361280D01*
X107986889Y-67477650D01*
X107951481Y-67589268D01*
X107895068Y-67691883D01*
X107819798Y-67781587D01*
X107728538Y-67854962D01*
X107662520Y-67889475D01*
X107634299Y-67909744D01*
X107612579Y-67937410D01*
X107600236Y-67968022D01*
X107578410Y-67953639D01*
X107544810Y-67943234D01*
X107513671Y-67942168D01*
X107395812Y-67952894D01*
X107279475Y-67940666D01*
X107279450Y-67940658D01*
X107279353Y-67940648D01*
X107167491Y-67906021D01*
X107064484Y-67850326D01*
X106974258Y-67775684D01*
X106900247Y-67684938D01*
X106845272Y-67581545D01*
X106811427Y-67469444D01*
X106800000Y-67352903D01*
X106800000Y-67346941D01*
X106800022Y-67343793D01*
X106800023Y-67343785D01*
X106800058Y-67338720D01*
X106813111Y-67222350D01*
X106848519Y-67110732D01*
X106904932Y-67008117D01*
X106980202Y-66918413D01*
X107071462Y-66845038D01*
X107175236Y-66790787D01*
X107287571Y-66757725D01*
X107287653Y-66757718D01*
X107292109Y-66756406D01*
X107324119Y-66741826D01*
X107350800Y-66718906D01*
X107370039Y-66689460D01*
X107380313Y-66655820D01*
X107380808Y-66620649D01*
X107367693Y-66578905D01*
X107311549Y-66471511D01*
X107260578Y-66298328D01*
X107260571Y-66298247D01*
X107260562Y-66298218D01*
X107244211Y-66118543D01*
X107263069Y-65939126D01*
X107263077Y-65939101D01*
X107263087Y-65939003D01*
X107316471Y-65766548D01*
X107402334Y-65607747D01*
X107446892Y-65553886D01*
X107464791Y-65524691D01*
X107474093Y-65490770D01*
X107473577Y-65455600D01*
X107463284Y-65421966D01*
X107444027Y-65392531D01*
X107417333Y-65369626D01*
X107385314Y-65355065D01*
X107350092Y-65350000D01*
X106350000Y-65350000D01*
X106350000Y-64350000D01*
X106627983Y-64350000D01*
X106662807Y-64345051D01*
X106685179Y-64334966D01*
X106715750Y-64346778D01*
X106743949Y-64350000D01*
X108050000Y-64350000D01*
X108050000Y-65075000D01*
X108054949Y-65109824D01*
X108069404Y-65141891D01*
X108092220Y-65168661D01*
X108121590Y-65188015D01*
X108155190Y-65198420D01*
X108175000Y-65200000D01*
X108525000Y-65200000D01*
X108559824Y-65195051D01*
X108591891Y-65180596D01*
X108618661Y-65157780D01*
X108638015Y-65128410D01*
X108648420Y-65094810D01*
X108650000Y-65075000D01*
X108650000Y-63950000D01*
X109850000Y-63950000D01*
X109850000Y-65100000D01*
X109850000Y-65100000D01*
G37*
G36*
X138850000Y-65100000D02*
X138263452Y-65100000D01*
X138228628Y-65104949D01*
X138196561Y-65119404D01*
X138169791Y-65142220D01*
X138150437Y-65171590D01*
X138140032Y-65205190D01*
X138139399Y-65240358D01*
X138148589Y-65274311D01*
X138166874Y-65304358D01*
X138201990Y-65333507D01*
X138253400Y-65361770D01*
X138391693Y-65477811D01*
X138504813Y-65618504D01*
X138588451Y-65778489D01*
X138639422Y-65951672D01*
X138639429Y-65951753D01*
X138639438Y-65951782D01*
X138655789Y-66131457D01*
X138636931Y-66310874D01*
X138636923Y-66310899D01*
X138636913Y-66310997D01*
X138583529Y-66483452D01*
X138497666Y-66642253D01*
X138382593Y-66781353D01*
X138242693Y-66895452D01*
X138083296Y-66980205D01*
X137910473Y-67032384D01*
X137730806Y-67050000D01*
X137169028Y-67050000D01*
X137161353Y-67049947D01*
X137161337Y-67049945D01*
X137156279Y-67049910D01*
X137110248Y-67044747D01*
X137078853Y-67045672D01*
X137045375Y-67056462D01*
X137016228Y-67076151D01*
X136993720Y-67103181D01*
X136979634Y-67135412D01*
X136975085Y-67170290D01*
X136979956Y-67202014D01*
X136988573Y-67230556D01*
X137000000Y-67347097D01*
X137000000Y-67353059D01*
X136999978Y-67356207D01*
X136999977Y-67356215D01*
X136999942Y-67361280D01*
X136986889Y-67477650D01*
X136951481Y-67589268D01*
X136895068Y-67691883D01*
X136819798Y-67781587D01*
X136728538Y-67854962D01*
X136662520Y-67889475D01*
X136634299Y-67909744D01*
X136612579Y-67937410D01*
X136600236Y-67968022D01*
X136578410Y-67953639D01*
X136544810Y-67943234D01*
X136513671Y-67942168D01*
X136395812Y-67952894D01*
X136279475Y-67940666D01*
X136279450Y-67940658D01*
X136279353Y-67940648D01*
X136167491Y-67906021D01*
X136064484Y-67850326D01*
X135974258Y-67775684D01*
X135900247Y-67684938D01*
X135845272Y-67581545D01*
X135811427Y-67469444D01*
X135800000Y-67352903D01*
X135800000Y-67346941D01*
X135800022Y-67343793D01*
X135800023Y-67343785D01*
X135800058Y-67338720D01*
X135813111Y-67222350D01*
X135848519Y-67110732D01*
X135904932Y-67008117D01*
X135980202Y-66918413D01*
X136071462Y-66845038D01*
X136175236Y-66790787D01*
X136287571Y-66757725D01*
X136287653Y-66757718D01*
X136292109Y-66756406D01*
X136324119Y-66741826D01*
X136350800Y-66718906D01*
X136370039Y-66689460D01*
X136380313Y-66655820D01*
X136380808Y-66620649D01*
X136367693Y-66578905D01*
X136311549Y-66471511D01*
X136260578Y-66298328D01*
X136260571Y-66298247D01*
X136260562Y-66298218D01*
X136244211Y-66118543D01*
X136263069Y-65939126D01*
X136263077Y-65939101D01*
X136263087Y-65939003D01*
X136316471Y-65766548D01*
X136402334Y-65607747D01*
X136446892Y-65553886D01*
X136464791Y-65524691D01*
X136474093Y-65490770D01*
X136473577Y-65455600D01*
X136463284Y-65421966D01*
X136444027Y-65392531D01*
X136417333Y-65369626D01*
X136385314Y-65355065D01*
X136350092Y-65350000D01*
X135350000Y-65350000D01*
X135350000Y-64350000D01*
X135627983Y-64350000D01*
X135662807Y-64345051D01*
X135685179Y-64334966D01*
X135715750Y-64346778D01*
X135743949Y-64350000D01*
X137050000Y-64350000D01*
X137050000Y-65075000D01*
X137054949Y-65109824D01*
X137069404Y-65141891D01*
X137092220Y-65168661D01*
X137121590Y-65188015D01*
X137155190Y-65198420D01*
X137175000Y-65200000D01*
X137525000Y-65200000D01*
X137559824Y-65195051D01*
X137591891Y-65180596D01*
X137618661Y-65157780D01*
X137638015Y-65128410D01*
X137648420Y-65094810D01*
X137650000Y-65075000D01*
X137650000Y-63950000D01*
X138850000Y-63950000D01*
X138850000Y-65100000D01*
X138850000Y-65100000D01*
G37*
G36*
X112300000Y-67550000D02*
X111429839Y-67550000D01*
X111425601Y-67550602D01*
X111420161Y-67550000D01*
X110550000Y-67550000D01*
X110550000Y-65800000D01*
X112300000Y-65800000D01*
X112300000Y-67550000D01*
X112300000Y-67550000D01*
G37*
G36*
X141300000Y-67550000D02*
X140429839Y-67550000D01*
X140425601Y-67550602D01*
X140420161Y-67550000D01*
X139550000Y-67550000D01*
X139550000Y-65800000D01*
X141300000Y-65800000D01*
X141300000Y-67550000D01*
X141300000Y-67550000D01*
G37*
G36*
X133986070Y-65200039D02*
X133986083Y-65200040D01*
X133991143Y-65200076D01*
X134141454Y-65216936D01*
X134285627Y-65262670D01*
X134418171Y-65335537D01*
X134534038Y-65432761D01*
X134628814Y-65550639D01*
X134698889Y-65684680D01*
X134741595Y-65829779D01*
X134741602Y-65829860D01*
X134741611Y-65829889D01*
X134755309Y-65980410D01*
X134739511Y-66130712D01*
X134739503Y-66130737D01*
X134739493Y-66130835D01*
X134694766Y-66275325D01*
X134622826Y-66408375D01*
X134526414Y-66524917D01*
X134409200Y-66620514D01*
X134275652Y-66691523D01*
X134130854Y-66735240D01*
X133980322Y-66750000D01*
X133319520Y-66750000D01*
X133313930Y-66749961D01*
X133313917Y-66749960D01*
X133308857Y-66749924D01*
X133158546Y-66733064D01*
X133014373Y-66687330D01*
X132881829Y-66614463D01*
X132765962Y-66517239D01*
X132671186Y-66399361D01*
X132601111Y-66265320D01*
X132558405Y-66120221D01*
X132558398Y-66120140D01*
X132558389Y-66120111D01*
X132544691Y-65969590D01*
X132560489Y-65819288D01*
X132560497Y-65819263D01*
X132560507Y-65819165D01*
X132605234Y-65674675D01*
X132677174Y-65541625D01*
X132773586Y-65425083D01*
X132890800Y-65329486D01*
X133024348Y-65258477D01*
X133169146Y-65214760D01*
X133319678Y-65200000D01*
X133980480Y-65200000D01*
X133986070Y-65200039D01*
X133986070Y-65200039D01*
G37*
G36*
X104986070Y-65200039D02*
X104986083Y-65200040D01*
X104991143Y-65200076D01*
X105141454Y-65216936D01*
X105285627Y-65262670D01*
X105418171Y-65335537D01*
X105534038Y-65432761D01*
X105628814Y-65550639D01*
X105698889Y-65684680D01*
X105741595Y-65829779D01*
X105741602Y-65829860D01*
X105741611Y-65829889D01*
X105755309Y-65980410D01*
X105739511Y-66130712D01*
X105739503Y-66130737D01*
X105739493Y-66130835D01*
X105694766Y-66275325D01*
X105622826Y-66408375D01*
X105526414Y-66524917D01*
X105409200Y-66620514D01*
X105275652Y-66691523D01*
X105130854Y-66735240D01*
X104980322Y-66750000D01*
X104319520Y-66750000D01*
X104313930Y-66749961D01*
X104313917Y-66749960D01*
X104308857Y-66749924D01*
X104158546Y-66733064D01*
X104014373Y-66687330D01*
X103881829Y-66614463D01*
X103765962Y-66517239D01*
X103671186Y-66399361D01*
X103601111Y-66265320D01*
X103558405Y-66120221D01*
X103558398Y-66120140D01*
X103558389Y-66120111D01*
X103544691Y-65969590D01*
X103560489Y-65819288D01*
X103560497Y-65819263D01*
X103560507Y-65819165D01*
X103605234Y-65674675D01*
X103677174Y-65541625D01*
X103773586Y-65425083D01*
X103890800Y-65329486D01*
X104024348Y-65258477D01*
X104169146Y-65214760D01*
X104319678Y-65200000D01*
X104980480Y-65200000D01*
X104986070Y-65200039D01*
X104986070Y-65200039D01*
G37*
G36*
X116726041Y-63050794D02*
X116956569Y-63098115D01*
X117173512Y-63189309D01*
X117368616Y-63320908D01*
X117534437Y-63487890D01*
X117664669Y-63683906D01*
X117754348Y-63901484D01*
X117799886Y-64131465D01*
X117799886Y-64131498D01*
X117800051Y-64132334D01*
X117796298Y-64401128D01*
X117796107Y-64401967D01*
X117796107Y-64401988D01*
X117744165Y-64630616D01*
X117648447Y-64845601D01*
X117512795Y-65037901D01*
X117342372Y-65200191D01*
X117143673Y-65326290D01*
X116924265Y-65411393D01*
X116692511Y-65452257D01*
X116457225Y-65447329D01*
X116227383Y-65396795D01*
X116011735Y-65302580D01*
X115818487Y-65168269D01*
X115655016Y-64998991D01*
X115527530Y-64801171D01*
X115440899Y-64582366D01*
X115398417Y-64350903D01*
X115401703Y-64115586D01*
X115450630Y-63885402D01*
X115543340Y-63669095D01*
X115676294Y-63474920D01*
X115844433Y-63310266D01*
X116041353Y-63181406D01*
X116259549Y-63093248D01*
X116490714Y-63049152D01*
X116726041Y-63050794D01*
X116726041Y-63050794D01*
G37*
G36*
X123226041Y-63050794D02*
X123456569Y-63098115D01*
X123673512Y-63189309D01*
X123868616Y-63320908D01*
X124034437Y-63487890D01*
X124164669Y-63683906D01*
X124254348Y-63901484D01*
X124299886Y-64131465D01*
X124299886Y-64131498D01*
X124300051Y-64132334D01*
X124296298Y-64401128D01*
X124296107Y-64401967D01*
X124296107Y-64401988D01*
X124244165Y-64630616D01*
X124148447Y-64845601D01*
X124012795Y-65037901D01*
X123842372Y-65200191D01*
X123643673Y-65326290D01*
X123424265Y-65411393D01*
X123192511Y-65452257D01*
X122957225Y-65447329D01*
X122727383Y-65396795D01*
X122511735Y-65302580D01*
X122318487Y-65168269D01*
X122155016Y-64998991D01*
X122027530Y-64801171D01*
X121940899Y-64582366D01*
X121898417Y-64350903D01*
X121901703Y-64115586D01*
X121950630Y-63885402D01*
X122043340Y-63669095D01*
X122176294Y-63474920D01*
X122344433Y-63310266D01*
X122541353Y-63181406D01*
X122759549Y-63093248D01*
X122990714Y-63049152D01*
X123226041Y-63050794D01*
X123226041Y-63050794D01*
G37*
G36*
X145726041Y-63050794D02*
X145956569Y-63098115D01*
X146173512Y-63189309D01*
X146368616Y-63320908D01*
X146534437Y-63487890D01*
X146664669Y-63683906D01*
X146754348Y-63901484D01*
X146799886Y-64131465D01*
X146799886Y-64131498D01*
X146800051Y-64132334D01*
X146796298Y-64401128D01*
X146796107Y-64401967D01*
X146796107Y-64401988D01*
X146744165Y-64630616D01*
X146648447Y-64845601D01*
X146512795Y-65037901D01*
X146342372Y-65200191D01*
X146143673Y-65326290D01*
X145924265Y-65411393D01*
X145692511Y-65452257D01*
X145457225Y-65447329D01*
X145227383Y-65396795D01*
X145011735Y-65302580D01*
X144818487Y-65168269D01*
X144655016Y-64998991D01*
X144527530Y-64801171D01*
X144440899Y-64582366D01*
X144398417Y-64350903D01*
X144401703Y-64115586D01*
X144450630Y-63885402D01*
X144543340Y-63669095D01*
X144676294Y-63474920D01*
X144844433Y-63310266D01*
X145041353Y-63181406D01*
X145259549Y-63093248D01*
X145490714Y-63049152D01*
X145726041Y-63050794D01*
X145726041Y-63050794D01*
G37*
G36*
X152226041Y-63050794D02*
X152456569Y-63098115D01*
X152673512Y-63189309D01*
X152868616Y-63320908D01*
X153034437Y-63487890D01*
X153164669Y-63683906D01*
X153254348Y-63901484D01*
X153299886Y-64131465D01*
X153299886Y-64131498D01*
X153300051Y-64132334D01*
X153296298Y-64401128D01*
X153296107Y-64401967D01*
X153296107Y-64401988D01*
X153244165Y-64630616D01*
X153148447Y-64845601D01*
X153012795Y-65037901D01*
X152842372Y-65200191D01*
X152643673Y-65326290D01*
X152424265Y-65411393D01*
X152192511Y-65452257D01*
X151957225Y-65447329D01*
X151727383Y-65396795D01*
X151511735Y-65302580D01*
X151318487Y-65168269D01*
X151155016Y-64998991D01*
X151027530Y-64801171D01*
X150940899Y-64582366D01*
X150898417Y-64350903D01*
X150901703Y-64115586D01*
X150950630Y-63885402D01*
X151043340Y-63669095D01*
X151176294Y-63474920D01*
X151344433Y-63310266D01*
X151541353Y-63181406D01*
X151759549Y-63093248D01*
X151990714Y-63049152D01*
X152226041Y-63050794D01*
X152226041Y-63050794D01*
G37*
G36*
X156300000Y-65350000D02*
X154200000Y-65350000D01*
X154200000Y-63250000D01*
X156300000Y-63250000D01*
X156300000Y-65350000D01*
X156300000Y-65350000D01*
G37*
G36*
X127300000Y-65350000D02*
X125200000Y-65350000D01*
X125200000Y-63250000D01*
X127300000Y-63250000D01*
X127300000Y-65350000D01*
X127300000Y-65350000D01*
G37*
G36*
X140350000Y-65100000D02*
X139150000Y-65100000D01*
X139150000Y-63950000D01*
X140350000Y-63950000D01*
X140350000Y-65100000D01*
X140350000Y-65100000D01*
G37*
G36*
X111350000Y-65100000D02*
X110150000Y-65100000D01*
X110150000Y-63950000D01*
X111350000Y-63950000D01*
X111350000Y-65100000D01*
X111350000Y-65100000D01*
G37*
G36*
X112972266Y-64150294D02*
X113058713Y-64168039D01*
X113140069Y-64202239D01*
X113213231Y-64251587D01*
X113275417Y-64314209D01*
X113324254Y-64387714D01*
X113357884Y-64469306D01*
X113374853Y-64555007D01*
X113374853Y-64555035D01*
X113375019Y-64555875D01*
X113373611Y-64656673D01*
X113373421Y-64657508D01*
X113373421Y-64657532D01*
X113354064Y-64742731D01*
X113318170Y-64823354D01*
X113267301Y-64895465D01*
X113203392Y-64956323D01*
X113128875Y-65003614D01*
X113046603Y-65035525D01*
X112959693Y-65050849D01*
X112871459Y-65049002D01*
X112785269Y-65030051D01*
X112704396Y-64994719D01*
X112631930Y-64944353D01*
X112570630Y-64880876D01*
X112522821Y-64806690D01*
X112490333Y-64724636D01*
X112474403Y-64637841D01*
X112475636Y-64549593D01*
X112493984Y-64463274D01*
X112528749Y-64382159D01*
X112578607Y-64309343D01*
X112641661Y-64247597D01*
X112715505Y-64199275D01*
X112797330Y-64166215D01*
X112884018Y-64149679D01*
X112972266Y-64150294D01*
X112972266Y-64150294D01*
G37*
G36*
X141972266Y-64150294D02*
X142058713Y-64168039D01*
X142140069Y-64202239D01*
X142213231Y-64251587D01*
X142275417Y-64314209D01*
X142324254Y-64387714D01*
X142357884Y-64469306D01*
X142374853Y-64555007D01*
X142374853Y-64555035D01*
X142375019Y-64555875D01*
X142373611Y-64656673D01*
X142373421Y-64657508D01*
X142373421Y-64657532D01*
X142354064Y-64742731D01*
X142318170Y-64823354D01*
X142267301Y-64895465D01*
X142203392Y-64956323D01*
X142128875Y-65003614D01*
X142046603Y-65035525D01*
X141959693Y-65050849D01*
X141871459Y-65049002D01*
X141785269Y-65030051D01*
X141704396Y-64994719D01*
X141631930Y-64944353D01*
X141570630Y-64880876D01*
X141522821Y-64806690D01*
X141490333Y-64724636D01*
X141474403Y-64637841D01*
X141475636Y-64549593D01*
X141493984Y-64463274D01*
X141528749Y-64382159D01*
X141578607Y-64309343D01*
X141641661Y-64247597D01*
X141715505Y-64199275D01*
X141797330Y-64166215D01*
X141884018Y-64149679D01*
X141972266Y-64150294D01*
X141972266Y-64150294D01*
G37*
G36*
X106712898Y-61993721D02*
X106738951Y-61999315D01*
X106901009Y-62016348D01*
X106901029Y-62016354D01*
X106901132Y-62016365D01*
X107096891Y-62076963D01*
X107277153Y-62174430D01*
X107435049Y-62305053D01*
X107564567Y-62463858D01*
X107660773Y-62644795D01*
X107720003Y-62840973D01*
X107740000Y-63044919D01*
X107740000Y-63055237D01*
X107739934Y-63064666D01*
X107739933Y-63064673D01*
X107739898Y-63069741D01*
X107717055Y-63273388D01*
X107655092Y-63468720D01*
X107556369Y-63648296D01*
X107424647Y-63805277D01*
X107264941Y-63933684D01*
X107083337Y-64028624D01*
X106886750Y-64086483D01*
X106886666Y-64086491D01*
X106886641Y-64086498D01*
X106732620Y-64100514D01*
X106698388Y-64108599D01*
X106685969Y-64115615D01*
X106667102Y-64106279D01*
X106641049Y-64100685D01*
X106478991Y-64083652D01*
X106478971Y-64083646D01*
X106478868Y-64083635D01*
X106283109Y-64023037D01*
X106102847Y-63925570D01*
X105944951Y-63794947D01*
X105815433Y-63636142D01*
X105719227Y-63455205D01*
X105659997Y-63259027D01*
X105640000Y-63055081D01*
X105640000Y-63044721D01*
X105640066Y-63035334D01*
X105640067Y-63035327D01*
X105640102Y-63030259D01*
X105662945Y-62826612D01*
X105724908Y-62631280D01*
X105823631Y-62451704D01*
X105955353Y-62294723D01*
X106115059Y-62166316D01*
X106296663Y-62071376D01*
X106493250Y-62013517D01*
X106493334Y-62013509D01*
X106493359Y-62013502D01*
X106647380Y-61999486D01*
X106681612Y-61991401D01*
X106694031Y-61984385D01*
X106712898Y-61993721D01*
X106712898Y-61993721D01*
G37*
G36*
X135712898Y-61993721D02*
X135738951Y-61999315D01*
X135901009Y-62016348D01*
X135901029Y-62016354D01*
X135901132Y-62016365D01*
X136096891Y-62076963D01*
X136277153Y-62174430D01*
X136435049Y-62305053D01*
X136564567Y-62463858D01*
X136660773Y-62644795D01*
X136720003Y-62840973D01*
X136740000Y-63044919D01*
X136740000Y-63055237D01*
X136739934Y-63064666D01*
X136739933Y-63064673D01*
X136739898Y-63069741D01*
X136717055Y-63273388D01*
X136655092Y-63468720D01*
X136556369Y-63648296D01*
X136424647Y-63805277D01*
X136264941Y-63933684D01*
X136083337Y-64028624D01*
X135886750Y-64086483D01*
X135886666Y-64086491D01*
X135886641Y-64086498D01*
X135732620Y-64100514D01*
X135698388Y-64108599D01*
X135685969Y-64115615D01*
X135667102Y-64106279D01*
X135641049Y-64100685D01*
X135478991Y-64083652D01*
X135478971Y-64083646D01*
X135478868Y-64083635D01*
X135283109Y-64023037D01*
X135102847Y-63925570D01*
X134944951Y-63794947D01*
X134815433Y-63636142D01*
X134719227Y-63455205D01*
X134659997Y-63259027D01*
X134640000Y-63055081D01*
X134640000Y-63044721D01*
X134640066Y-63035334D01*
X134640067Y-63035327D01*
X134640102Y-63030259D01*
X134662945Y-62826612D01*
X134724908Y-62631280D01*
X134823631Y-62451704D01*
X134955353Y-62294723D01*
X135115059Y-62166316D01*
X135296663Y-62071376D01*
X135493250Y-62013517D01*
X135493334Y-62013509D01*
X135493359Y-62013502D01*
X135647380Y-61999486D01*
X135681612Y-61991401D01*
X135694031Y-61984385D01*
X135712898Y-61993721D01*
X135712898Y-61993721D01*
G37*
G36*
X105200000Y-64100000D02*
X103100000Y-64100000D01*
X103100000Y-62000000D01*
X105200000Y-62000000D01*
X105200000Y-64100000D01*
X105200000Y-64100000D01*
G37*
G36*
X134200000Y-64100000D02*
X132100000Y-64100000D01*
X132100000Y-62000000D01*
X134200000Y-62000000D01*
X134200000Y-64100000D01*
X134200000Y-64100000D01*
G37*
G36*
X114272266Y-62550294D02*
X114358713Y-62568039D01*
X114440069Y-62602239D01*
X114513231Y-62651587D01*
X114575417Y-62714209D01*
X114624254Y-62787714D01*
X114657884Y-62869306D01*
X114674853Y-62955007D01*
X114674853Y-62955035D01*
X114675019Y-62955875D01*
X114673611Y-63056673D01*
X114673421Y-63057508D01*
X114673421Y-63057532D01*
X114654064Y-63142731D01*
X114618170Y-63223354D01*
X114567301Y-63295465D01*
X114503392Y-63356323D01*
X114428875Y-63403614D01*
X114346603Y-63435525D01*
X114259693Y-63450849D01*
X114171459Y-63449002D01*
X114085269Y-63430051D01*
X114004396Y-63394719D01*
X113931930Y-63344353D01*
X113870630Y-63280876D01*
X113822821Y-63206690D01*
X113790333Y-63124636D01*
X113774403Y-63037841D01*
X113775636Y-62949593D01*
X113793984Y-62863274D01*
X113828749Y-62782159D01*
X113878607Y-62709343D01*
X113941661Y-62647597D01*
X114015505Y-62599275D01*
X114097330Y-62566215D01*
X114184018Y-62549679D01*
X114272266Y-62550294D01*
X114272266Y-62550294D01*
G37*
G36*
X143272266Y-62550294D02*
X143358713Y-62568039D01*
X143440069Y-62602239D01*
X143513231Y-62651587D01*
X143575417Y-62714209D01*
X143624254Y-62787714D01*
X143657884Y-62869306D01*
X143674853Y-62955007D01*
X143674853Y-62955035D01*
X143675019Y-62955875D01*
X143673611Y-63056673D01*
X143673421Y-63057508D01*
X143673421Y-63057532D01*
X143654064Y-63142731D01*
X143618170Y-63223354D01*
X143567301Y-63295465D01*
X143503392Y-63356323D01*
X143428875Y-63403614D01*
X143346603Y-63435525D01*
X143259693Y-63450849D01*
X143171459Y-63449002D01*
X143085269Y-63430051D01*
X143004396Y-63394719D01*
X142931930Y-63344353D01*
X142870630Y-63280876D01*
X142822821Y-63206690D01*
X142790333Y-63124636D01*
X142774403Y-63037841D01*
X142775636Y-62949593D01*
X142793984Y-62863274D01*
X142828749Y-62782159D01*
X142878607Y-62709343D01*
X142941661Y-62647597D01*
X143015505Y-62599275D01*
X143097330Y-62566215D01*
X143184018Y-62549679D01*
X143272266Y-62550294D01*
X143272266Y-62550294D01*
G37*
G36*
X142350000Y-61900000D02*
X141425000Y-61900000D01*
X141390176Y-61904949D01*
X141358109Y-61919404D01*
X141331339Y-61942220D01*
X141311985Y-61971590D01*
X141301580Y-62005190D01*
X141300000Y-62025000D01*
X141300000Y-62375000D01*
X141304949Y-62409824D01*
X141319404Y-62441891D01*
X141342220Y-62468661D01*
X141371590Y-62488015D01*
X141405190Y-62498420D01*
X141425000Y-62500000D01*
X142350000Y-62500000D01*
X142350000Y-63400000D01*
X141425000Y-63400000D01*
X141390176Y-63404949D01*
X141358109Y-63419404D01*
X141331339Y-63442220D01*
X141326212Y-63450000D01*
X140400000Y-63450000D01*
X140400000Y-62150000D01*
X140925000Y-62150000D01*
X140959824Y-62145051D01*
X140991891Y-62130596D01*
X141018661Y-62107780D01*
X141038015Y-62078410D01*
X141048420Y-62044810D01*
X141050000Y-62025000D01*
X141050000Y-61000000D01*
X142350000Y-61000000D01*
X142350000Y-61900000D01*
X142350000Y-61900000D01*
G37*
G36*
X139800000Y-63450000D02*
X138900000Y-63450000D01*
X138900000Y-62150000D01*
X139800000Y-62150000D01*
X139800000Y-63450000D01*
X139800000Y-63450000D01*
G37*
G36*
X113350000Y-61900000D02*
X112425000Y-61900000D01*
X112390176Y-61904949D01*
X112358109Y-61919404D01*
X112331339Y-61942220D01*
X112311985Y-61971590D01*
X112301580Y-62005190D01*
X112300000Y-62025000D01*
X112300000Y-62375000D01*
X112304949Y-62409824D01*
X112319404Y-62441891D01*
X112342220Y-62468661D01*
X112371590Y-62488015D01*
X112405190Y-62498420D01*
X112425000Y-62500000D01*
X113350000Y-62500000D01*
X113350000Y-63400000D01*
X112425000Y-63400000D01*
X112390176Y-63404949D01*
X112358109Y-63419404D01*
X112331339Y-63442220D01*
X112326212Y-63450000D01*
X111400000Y-63450000D01*
X111400000Y-62150000D01*
X111925000Y-62150000D01*
X111959824Y-62145051D01*
X111991891Y-62130596D01*
X112018661Y-62107780D01*
X112038015Y-62078410D01*
X112048420Y-62044810D01*
X112050000Y-62025000D01*
X112050000Y-61000000D01*
X113350000Y-61000000D01*
X113350000Y-61900000D01*
X113350000Y-61900000D01*
G37*
G36*
X110800000Y-63450000D02*
X109900000Y-63450000D01*
X109900000Y-62150000D01*
X110800000Y-62150000D01*
X110800000Y-63450000D01*
X110800000Y-63450000D01*
G37*
G36*
X126264666Y-60710066D02*
X126264673Y-60710067D01*
X126269741Y-60710102D01*
X126473388Y-60732945D01*
X126668720Y-60794908D01*
X126848296Y-60893631D01*
X127005277Y-61025353D01*
X127133684Y-61185059D01*
X127228624Y-61366663D01*
X127286483Y-61563250D01*
X127286491Y-61563334D01*
X127286498Y-61563359D01*
X127305060Y-61767330D01*
X127283652Y-61971009D01*
X127283646Y-61971029D01*
X127283635Y-61971132D01*
X127223037Y-62166891D01*
X127125570Y-62347153D01*
X126994947Y-62505049D01*
X126836142Y-62634567D01*
X126655205Y-62730773D01*
X126459027Y-62790003D01*
X126255081Y-62810000D01*
X126244763Y-62810000D01*
X126235334Y-62809934D01*
X126235327Y-62809933D01*
X126230259Y-62809898D01*
X126026612Y-62787055D01*
X125831280Y-62725092D01*
X125651704Y-62626369D01*
X125494723Y-62494647D01*
X125366316Y-62334941D01*
X125271376Y-62153337D01*
X125213517Y-61956750D01*
X125213509Y-61956666D01*
X125213502Y-61956641D01*
X125194940Y-61752670D01*
X125216348Y-61548991D01*
X125216354Y-61548971D01*
X125216365Y-61548868D01*
X125276963Y-61353109D01*
X125374430Y-61172847D01*
X125505053Y-61014951D01*
X125663858Y-60885433D01*
X125844795Y-60789227D01*
X126040973Y-60729997D01*
X126244919Y-60710000D01*
X126255237Y-60710000D01*
X126264666Y-60710066D01*
X126264666Y-60710066D01*
G37*
G36*
X155264666Y-60710066D02*
X155264673Y-60710067D01*
X155269741Y-60710102D01*
X155473388Y-60732945D01*
X155668720Y-60794908D01*
X155848296Y-60893631D01*
X156005277Y-61025353D01*
X156133684Y-61185059D01*
X156228624Y-61366663D01*
X156286483Y-61563250D01*
X156286491Y-61563334D01*
X156286498Y-61563359D01*
X156305060Y-61767330D01*
X156283652Y-61971009D01*
X156283646Y-61971029D01*
X156283635Y-61971132D01*
X156223037Y-62166891D01*
X156125570Y-62347153D01*
X155994947Y-62505049D01*
X155836142Y-62634567D01*
X155655205Y-62730773D01*
X155459027Y-62790003D01*
X155255081Y-62810000D01*
X155244763Y-62810000D01*
X155235334Y-62809934D01*
X155235327Y-62809933D01*
X155230259Y-62809898D01*
X155026612Y-62787055D01*
X154831280Y-62725092D01*
X154651704Y-62626369D01*
X154494723Y-62494647D01*
X154366316Y-62334941D01*
X154271376Y-62153337D01*
X154213517Y-61956750D01*
X154213509Y-61956666D01*
X154213502Y-61956641D01*
X154194940Y-61752670D01*
X154216348Y-61548991D01*
X154216354Y-61548971D01*
X154216365Y-61548868D01*
X154276963Y-61353109D01*
X154374430Y-61172847D01*
X154505053Y-61014951D01*
X154663858Y-60885433D01*
X154844795Y-60789227D01*
X155040973Y-60729997D01*
X155244919Y-60710000D01*
X155255237Y-60710000D01*
X155264666Y-60710066D01*
X155264666Y-60710066D01*
G37*
G36*
X106715750Y-60746778D02*
X106743949Y-60750000D01*
X108050000Y-60750000D01*
X108050000Y-61750000D01*
X106752017Y-61750000D01*
X106717193Y-61754949D01*
X106694821Y-61765034D01*
X106664250Y-61753222D01*
X106636051Y-61750000D01*
X106350000Y-61750000D01*
X106350000Y-60750000D01*
X106627983Y-60750000D01*
X106662807Y-60745051D01*
X106685179Y-60734966D01*
X106715750Y-60746778D01*
X106715750Y-60746778D01*
G37*
G36*
X135715750Y-60746778D02*
X135743949Y-60750000D01*
X137050000Y-60750000D01*
X137050000Y-61750000D01*
X135752017Y-61750000D01*
X135717193Y-61754949D01*
X135694821Y-61765034D01*
X135664250Y-61753222D01*
X135636051Y-61750000D01*
X135350000Y-61750000D01*
X135350000Y-60750000D01*
X135627983Y-60750000D01*
X135662807Y-60745051D01*
X135685179Y-60734966D01*
X135715750Y-60746778D01*
X135715750Y-60746778D01*
G37*
G36*
X152226041Y-58550794D02*
X152456569Y-58598115D01*
X152673512Y-58689309D01*
X152868616Y-58820908D01*
X153034437Y-58987890D01*
X153164669Y-59183906D01*
X153254348Y-59401484D01*
X153299886Y-59631465D01*
X153299886Y-59631498D01*
X153300051Y-59632334D01*
X153296298Y-59901128D01*
X153296107Y-59901967D01*
X153296107Y-59901988D01*
X153244165Y-60130616D01*
X153148447Y-60345601D01*
X153012795Y-60537901D01*
X152842372Y-60700191D01*
X152643673Y-60826290D01*
X152424265Y-60911393D01*
X152192511Y-60952257D01*
X151957225Y-60947329D01*
X151727383Y-60896795D01*
X151511735Y-60802580D01*
X151318487Y-60668269D01*
X151155016Y-60498991D01*
X151027530Y-60301171D01*
X150940899Y-60082366D01*
X150898417Y-59850903D01*
X150901703Y-59615586D01*
X150950630Y-59385402D01*
X151043340Y-59169095D01*
X151176294Y-58974920D01*
X151344433Y-58810266D01*
X151541353Y-58681406D01*
X151759549Y-58593248D01*
X151990714Y-58549152D01*
X152226041Y-58550794D01*
X152226041Y-58550794D01*
G37*
G36*
X140175821Y-50438620D02*
X140175846Y-50438628D01*
X140175943Y-50438638D01*
X140339076Y-50489136D01*
X140489294Y-50570358D01*
X140620874Y-50679211D01*
X140728806Y-50811548D01*
X140808978Y-50962329D01*
X140858336Y-51125811D01*
X140875000Y-51295766D01*
X140875000Y-51301269D01*
X140875144Y-51302738D01*
X140875003Y-51303971D01*
X140874952Y-51311379D01*
X140874950Y-51311395D01*
X140874915Y-51316451D01*
X140855879Y-51486157D01*
X140804243Y-51648933D01*
X140721974Y-51798580D01*
X140640308Y-51895906D01*
X140622496Y-51924510D01*
X140612957Y-51958365D01*
X140613227Y-51993539D01*
X140623286Y-52027244D01*
X140642337Y-52056812D01*
X140668871Y-52079902D01*
X140700787Y-52094686D01*
X140736845Y-52100000D01*
X140950000Y-52100000D01*
X140950000Y-53765000D01*
X140954949Y-53799824D01*
X140969404Y-53831891D01*
X140992220Y-53858661D01*
X141021590Y-53878015D01*
X141055190Y-53888420D01*
X141075000Y-53890000D01*
X143710000Y-53890000D01*
X143710000Y-54715000D01*
X143714949Y-54749824D01*
X143729404Y-54781891D01*
X143752220Y-54808661D01*
X143781590Y-54828015D01*
X143815190Y-54838420D01*
X143835000Y-54840000D01*
X144660000Y-54840000D01*
X144660000Y-58699773D01*
X144664949Y-58734597D01*
X144679404Y-58766664D01*
X144702220Y-58793434D01*
X144731590Y-58812788D01*
X144765190Y-58823193D01*
X144800358Y-58823826D01*
X144834311Y-58814636D01*
X144853445Y-58804369D01*
X145041353Y-58681406D01*
X145259549Y-58593248D01*
X145490714Y-58549152D01*
X145726041Y-58550794D01*
X145956569Y-58598115D01*
X146173512Y-58689309D01*
X146368616Y-58820908D01*
X146534437Y-58987890D01*
X146664669Y-59183906D01*
X146754348Y-59401484D01*
X146799886Y-59631465D01*
X146799886Y-59631498D01*
X146800051Y-59632334D01*
X146796298Y-59901128D01*
X146796107Y-59901967D01*
X146796107Y-59901988D01*
X146744165Y-60130616D01*
X146648447Y-60345601D01*
X146512795Y-60537901D01*
X146342372Y-60700191D01*
X146143673Y-60826290D01*
X145924265Y-60911393D01*
X145692511Y-60952257D01*
X145457225Y-60947329D01*
X145227383Y-60896795D01*
X145011735Y-60802580D01*
X144818487Y-60668269D01*
X144655016Y-60498991D01*
X144527530Y-60301171D01*
X144440899Y-60082366D01*
X144398417Y-59850903D01*
X144401703Y-59615586D01*
X144450630Y-59385402D01*
X144515417Y-59234243D01*
X144524587Y-59200285D01*
X144523934Y-59165117D01*
X144513509Y-59131524D01*
X144494137Y-59102164D01*
X144467354Y-59079364D01*
X144435278Y-59064928D01*
X144400525Y-59060000D01*
X143835000Y-59060000D01*
X143800176Y-59064949D01*
X143768109Y-59079404D01*
X143741339Y-59102220D01*
X143721985Y-59131590D01*
X143711580Y-59165190D01*
X143710000Y-59185000D01*
X143710000Y-60010000D01*
X139490000Y-60010000D01*
X139490000Y-59185000D01*
X139485051Y-59150176D01*
X139470596Y-59118109D01*
X139447780Y-59091339D01*
X139418410Y-59071985D01*
X139384810Y-59061580D01*
X139365000Y-59060000D01*
X138540000Y-59060000D01*
X138540000Y-54840000D01*
X139365000Y-54840000D01*
X139399824Y-54835051D01*
X139431891Y-54820596D01*
X139458661Y-54797780D01*
X139478015Y-54768410D01*
X139488420Y-54734810D01*
X139490000Y-54715000D01*
X139490000Y-54125000D01*
X139485051Y-54090176D01*
X139470596Y-54058109D01*
X139447780Y-54031339D01*
X139418410Y-54011985D01*
X139384810Y-54001580D01*
X139365000Y-54000000D01*
X139250000Y-54000000D01*
X139250000Y-52100000D01*
X139262313Y-52100000D01*
X139297137Y-52095051D01*
X139329204Y-52080596D01*
X139355974Y-52057780D01*
X139375328Y-52028410D01*
X139385733Y-51994810D01*
X139386366Y-51959642D01*
X139377176Y-51925689D01*
X139359976Y-51897309D01*
X139271194Y-51788452D01*
X139191022Y-51637671D01*
X139141664Y-51474189D01*
X139125000Y-51304234D01*
X139125000Y-51295597D01*
X139125048Y-51288621D01*
X139125050Y-51288605D01*
X139125085Y-51283549D01*
X139144121Y-51113843D01*
X139195757Y-50951067D01*
X139278026Y-50801420D01*
X139387795Y-50670602D01*
X139520882Y-50563597D01*
X139672219Y-50484480D01*
X139836041Y-50436265D01*
X139836125Y-50436257D01*
X139836150Y-50436250D01*
X140006108Y-50420782D01*
X140175821Y-50438620D01*
X140175821Y-50438620D01*
G37*
G36*
X123226041Y-58550794D02*
X123456569Y-58598115D01*
X123673512Y-58689309D01*
X123868616Y-58820908D01*
X124034437Y-58987890D01*
X124164669Y-59183906D01*
X124254348Y-59401484D01*
X124299886Y-59631465D01*
X124299886Y-59631498D01*
X124300051Y-59632334D01*
X124296298Y-59901128D01*
X124296107Y-59901967D01*
X124296107Y-59901988D01*
X124244165Y-60130616D01*
X124148447Y-60345601D01*
X124012795Y-60537901D01*
X123842372Y-60700191D01*
X123643673Y-60826290D01*
X123424265Y-60911393D01*
X123192511Y-60952257D01*
X122957225Y-60947329D01*
X122727383Y-60896795D01*
X122511735Y-60802580D01*
X122318487Y-60668269D01*
X122155016Y-60498991D01*
X122027530Y-60301171D01*
X121940899Y-60082366D01*
X121898417Y-59850903D01*
X121901703Y-59615586D01*
X121950630Y-59385402D01*
X122043340Y-59169095D01*
X122176294Y-58974920D01*
X122344433Y-58810266D01*
X122541353Y-58681406D01*
X122759549Y-58593248D01*
X122990714Y-58549152D01*
X123226041Y-58550794D01*
X123226041Y-58550794D01*
G37*
G36*
X111175821Y-50438620D02*
X111175846Y-50438628D01*
X111175943Y-50438638D01*
X111339076Y-50489136D01*
X111489294Y-50570358D01*
X111620874Y-50679211D01*
X111728806Y-50811548D01*
X111808978Y-50962329D01*
X111858336Y-51125811D01*
X111875000Y-51295766D01*
X111875000Y-51301269D01*
X111875144Y-51302738D01*
X111875003Y-51303971D01*
X111874952Y-51311379D01*
X111874950Y-51311395D01*
X111874915Y-51316451D01*
X111855879Y-51486157D01*
X111804243Y-51648933D01*
X111721974Y-51798580D01*
X111640308Y-51895906D01*
X111622496Y-51924510D01*
X111612957Y-51958365D01*
X111613227Y-51993539D01*
X111623286Y-52027244D01*
X111642337Y-52056812D01*
X111668871Y-52079902D01*
X111700787Y-52094686D01*
X111736845Y-52100000D01*
X111950000Y-52100000D01*
X111950000Y-53765000D01*
X111954949Y-53799824D01*
X111969404Y-53831891D01*
X111992220Y-53858661D01*
X112021590Y-53878015D01*
X112055190Y-53888420D01*
X112075000Y-53890000D01*
X114710000Y-53890000D01*
X114710000Y-54715000D01*
X114714949Y-54749824D01*
X114729404Y-54781891D01*
X114752220Y-54808661D01*
X114781590Y-54828015D01*
X114815190Y-54838420D01*
X114835000Y-54840000D01*
X115660000Y-54840000D01*
X115660000Y-58699773D01*
X115664949Y-58734597D01*
X115679404Y-58766664D01*
X115702220Y-58793434D01*
X115731590Y-58812788D01*
X115765190Y-58823193D01*
X115800358Y-58823826D01*
X115834311Y-58814636D01*
X115853445Y-58804369D01*
X116041353Y-58681406D01*
X116259549Y-58593248D01*
X116490714Y-58549152D01*
X116726041Y-58550794D01*
X116956569Y-58598115D01*
X117173512Y-58689309D01*
X117368616Y-58820908D01*
X117534437Y-58987890D01*
X117664669Y-59183906D01*
X117754348Y-59401484D01*
X117799886Y-59631465D01*
X117799886Y-59631498D01*
X117800051Y-59632334D01*
X117796298Y-59901128D01*
X117796107Y-59901967D01*
X117796107Y-59901988D01*
X117744165Y-60130616D01*
X117648447Y-60345601D01*
X117512795Y-60537901D01*
X117342372Y-60700191D01*
X117143673Y-60826290D01*
X116924265Y-60911393D01*
X116692511Y-60952257D01*
X116457225Y-60947329D01*
X116227383Y-60896795D01*
X116011735Y-60802580D01*
X115818487Y-60668269D01*
X115655016Y-60498991D01*
X115527530Y-60301171D01*
X115440899Y-60082366D01*
X115398417Y-59850903D01*
X115401703Y-59615586D01*
X115450630Y-59385402D01*
X115515417Y-59234243D01*
X115524587Y-59200285D01*
X115523934Y-59165117D01*
X115513509Y-59131524D01*
X115494137Y-59102164D01*
X115467354Y-59079364D01*
X115435278Y-59064928D01*
X115400525Y-59060000D01*
X114835000Y-59060000D01*
X114800176Y-59064949D01*
X114768109Y-59079404D01*
X114741339Y-59102220D01*
X114721985Y-59131590D01*
X114711580Y-59165190D01*
X114710000Y-59185000D01*
X114710000Y-60010000D01*
X110490000Y-60010000D01*
X110490000Y-59185000D01*
X110485051Y-59150176D01*
X110470596Y-59118109D01*
X110447780Y-59091339D01*
X110418410Y-59071985D01*
X110384810Y-59061580D01*
X110365000Y-59060000D01*
X109540000Y-59060000D01*
X109540000Y-54840000D01*
X110365000Y-54840000D01*
X110399824Y-54835051D01*
X110431891Y-54820596D01*
X110458661Y-54797780D01*
X110478015Y-54768410D01*
X110488420Y-54734810D01*
X110490000Y-54715000D01*
X110490000Y-54125000D01*
X110485051Y-54090176D01*
X110470596Y-54058109D01*
X110447780Y-54031339D01*
X110418410Y-54011985D01*
X110384810Y-54001580D01*
X110365000Y-54000000D01*
X110250000Y-54000000D01*
X110250000Y-52100000D01*
X110262313Y-52100000D01*
X110297137Y-52095051D01*
X110329204Y-52080596D01*
X110355974Y-52057780D01*
X110375328Y-52028410D01*
X110385733Y-51994810D01*
X110386366Y-51959642D01*
X110377176Y-51925689D01*
X110359976Y-51897309D01*
X110271194Y-51788452D01*
X110191022Y-51637671D01*
X110141664Y-51474189D01*
X110125000Y-51304234D01*
X110125000Y-51295597D01*
X110125048Y-51288621D01*
X110125050Y-51288605D01*
X110125085Y-51283549D01*
X110144121Y-51113843D01*
X110195757Y-50951067D01*
X110278026Y-50801420D01*
X110387795Y-50670602D01*
X110520882Y-50563597D01*
X110672219Y-50484480D01*
X110836041Y-50436265D01*
X110836125Y-50436257D01*
X110836150Y-50436250D01*
X111006108Y-50420782D01*
X111175821Y-50438620D01*
X111175821Y-50438620D01*
G37*
G36*
X106712898Y-58393721D02*
X106738951Y-58399315D01*
X106901009Y-58416348D01*
X106901029Y-58416354D01*
X106901132Y-58416365D01*
X107096891Y-58476963D01*
X107277153Y-58574430D01*
X107435049Y-58705053D01*
X107564567Y-58863858D01*
X107660773Y-59044795D01*
X107720003Y-59240973D01*
X107740000Y-59444919D01*
X107740000Y-59455237D01*
X107739934Y-59464666D01*
X107739933Y-59464673D01*
X107739898Y-59469741D01*
X107717055Y-59673388D01*
X107655092Y-59868720D01*
X107556369Y-60048296D01*
X107424647Y-60205277D01*
X107264941Y-60333684D01*
X107083337Y-60428624D01*
X106886750Y-60486483D01*
X106886666Y-60486491D01*
X106886641Y-60486498D01*
X106732620Y-60500514D01*
X106698388Y-60508599D01*
X106685969Y-60515615D01*
X106667102Y-60506279D01*
X106641049Y-60500685D01*
X106478991Y-60483652D01*
X106478971Y-60483646D01*
X106478868Y-60483635D01*
X106283109Y-60423037D01*
X106102847Y-60325570D01*
X105944951Y-60194947D01*
X105815433Y-60036142D01*
X105719227Y-59855205D01*
X105659997Y-59659027D01*
X105640000Y-59455081D01*
X105640000Y-59444763D01*
X105640066Y-59435334D01*
X105640067Y-59435327D01*
X105640102Y-59430259D01*
X105662945Y-59226612D01*
X105724908Y-59031280D01*
X105823631Y-58851704D01*
X105955353Y-58694723D01*
X106115059Y-58566316D01*
X106296663Y-58471376D01*
X106493250Y-58413517D01*
X106493334Y-58413509D01*
X106493359Y-58413502D01*
X106647380Y-58399486D01*
X106681612Y-58391401D01*
X106694031Y-58384385D01*
X106712898Y-58393721D01*
X106712898Y-58393721D01*
G37*
G36*
X135712898Y-58393721D02*
X135738951Y-58399315D01*
X135901009Y-58416348D01*
X135901029Y-58416354D01*
X135901132Y-58416365D01*
X136096891Y-58476963D01*
X136277153Y-58574430D01*
X136435049Y-58705053D01*
X136564567Y-58863858D01*
X136660773Y-59044795D01*
X136720003Y-59240973D01*
X136740000Y-59444919D01*
X136740000Y-59455237D01*
X136739934Y-59464666D01*
X136739933Y-59464673D01*
X136739898Y-59469741D01*
X136717055Y-59673388D01*
X136655092Y-59868720D01*
X136556369Y-60048296D01*
X136424647Y-60205277D01*
X136264941Y-60333684D01*
X136083337Y-60428624D01*
X135886750Y-60486483D01*
X135886666Y-60486491D01*
X135886641Y-60486498D01*
X135732620Y-60500514D01*
X135698388Y-60508599D01*
X135685969Y-60515615D01*
X135667102Y-60506279D01*
X135641049Y-60500685D01*
X135478991Y-60483652D01*
X135478971Y-60483646D01*
X135478868Y-60483635D01*
X135283109Y-60423037D01*
X135102847Y-60325570D01*
X134944951Y-60194947D01*
X134815433Y-60036142D01*
X134719227Y-59855205D01*
X134659997Y-59659027D01*
X134640000Y-59455081D01*
X134640000Y-59444763D01*
X134640066Y-59435334D01*
X134640067Y-59435327D01*
X134640102Y-59430259D01*
X134662945Y-59226612D01*
X134724908Y-59031280D01*
X134823631Y-58851704D01*
X134955353Y-58694723D01*
X135115059Y-58566316D01*
X135296663Y-58471376D01*
X135493250Y-58413517D01*
X135493334Y-58413509D01*
X135493359Y-58413502D01*
X135647380Y-58399486D01*
X135681612Y-58391401D01*
X135694031Y-58384385D01*
X135712898Y-58393721D01*
X135712898Y-58393721D01*
G37*
G36*
X105200000Y-60500000D02*
X103100000Y-60500000D01*
X103100000Y-58400000D01*
X105200000Y-58400000D01*
X105200000Y-60500000D01*
X105200000Y-60500000D01*
G37*
G36*
X134200000Y-60500000D02*
X132100000Y-60500000D01*
X132100000Y-58400000D01*
X134200000Y-58400000D01*
X134200000Y-60500000D01*
X134200000Y-60500000D01*
G37*
G36*
X126264666Y-58170066D02*
X126264673Y-58170067D01*
X126269741Y-58170102D01*
X126473388Y-58192945D01*
X126668720Y-58254908D01*
X126848296Y-58353631D01*
X127005277Y-58485353D01*
X127133684Y-58645059D01*
X127228624Y-58826663D01*
X127286483Y-59023250D01*
X127286491Y-59023334D01*
X127286498Y-59023359D01*
X127305060Y-59227330D01*
X127283652Y-59431009D01*
X127283646Y-59431029D01*
X127283635Y-59431132D01*
X127223037Y-59626891D01*
X127125570Y-59807153D01*
X126994947Y-59965049D01*
X126836142Y-60094567D01*
X126655205Y-60190773D01*
X126459027Y-60250003D01*
X126255081Y-60270000D01*
X126244763Y-60270000D01*
X126235334Y-60269934D01*
X126235327Y-60269933D01*
X126230259Y-60269898D01*
X126026612Y-60247055D01*
X125831280Y-60185092D01*
X125651704Y-60086369D01*
X125494723Y-59954647D01*
X125366316Y-59794941D01*
X125271376Y-59613337D01*
X125213517Y-59416750D01*
X125213509Y-59416666D01*
X125213502Y-59416641D01*
X125194940Y-59212670D01*
X125216348Y-59008991D01*
X125216354Y-59008971D01*
X125216365Y-59008868D01*
X125276963Y-58813109D01*
X125374430Y-58632847D01*
X125505053Y-58474951D01*
X125663858Y-58345433D01*
X125844795Y-58249227D01*
X126040973Y-58189997D01*
X126244919Y-58170000D01*
X126255237Y-58170000D01*
X126264666Y-58170066D01*
X126264666Y-58170066D01*
G37*
G36*
X155264666Y-58170066D02*
X155264673Y-58170067D01*
X155269741Y-58170102D01*
X155473388Y-58192945D01*
X155668720Y-58254908D01*
X155848296Y-58353631D01*
X156005277Y-58485353D01*
X156133684Y-58645059D01*
X156228624Y-58826663D01*
X156286483Y-59023250D01*
X156286491Y-59023334D01*
X156286498Y-59023359D01*
X156305060Y-59227330D01*
X156283652Y-59431009D01*
X156283646Y-59431029D01*
X156283635Y-59431132D01*
X156223037Y-59626891D01*
X156125570Y-59807153D01*
X155994947Y-59965049D01*
X155836142Y-60094567D01*
X155655205Y-60190773D01*
X155459027Y-60250003D01*
X155255081Y-60270000D01*
X155244763Y-60270000D01*
X155235334Y-60269934D01*
X155235327Y-60269933D01*
X155230259Y-60269898D01*
X155026612Y-60247055D01*
X154831280Y-60185092D01*
X154651704Y-60086369D01*
X154494723Y-59954647D01*
X154366316Y-59794941D01*
X154271376Y-59613337D01*
X154213517Y-59416750D01*
X154213509Y-59416666D01*
X154213502Y-59416641D01*
X154194940Y-59212670D01*
X154216348Y-59008991D01*
X154216354Y-59008971D01*
X154216365Y-59008868D01*
X154276963Y-58813109D01*
X154374430Y-58632847D01*
X154505053Y-58474951D01*
X154663858Y-58345433D01*
X154844795Y-58249227D01*
X155040973Y-58189997D01*
X155244919Y-58170000D01*
X155255237Y-58170000D01*
X155264666Y-58170066D01*
X155264666Y-58170066D01*
G37*
G36*
X117750000Y-54480000D02*
X117754949Y-54514824D01*
X117769404Y-54546891D01*
X117792220Y-54573661D01*
X117821590Y-54593015D01*
X117855190Y-54603420D01*
X117875000Y-54605000D01*
X118490000Y-54605000D01*
X118524824Y-54600051D01*
X118556891Y-54585596D01*
X118583661Y-54562780D01*
X118603015Y-54533410D01*
X118613420Y-54499810D01*
X118615000Y-54480000D01*
X118615000Y-54265000D01*
X120585000Y-54265000D01*
X120585000Y-54480000D01*
X120589949Y-54514824D01*
X120604404Y-54546891D01*
X120627220Y-54573661D01*
X120656590Y-54593015D01*
X120690190Y-54603420D01*
X120710000Y-54605000D01*
X121375000Y-54605000D01*
X121409824Y-54600051D01*
X121441891Y-54585596D01*
X121468661Y-54562780D01*
X121488015Y-54533410D01*
X121498420Y-54499810D01*
X121500000Y-54480000D01*
X121500000Y-53950000D01*
X123600000Y-53950000D01*
X123600000Y-55850000D01*
X121660000Y-55850000D01*
X121625176Y-55854949D01*
X121593109Y-55869404D01*
X121566339Y-55892220D01*
X121546985Y-55921590D01*
X121536580Y-55955190D01*
X121535000Y-55975000D01*
X121535000Y-56025000D01*
X121539949Y-56059824D01*
X121554404Y-56091891D01*
X121577220Y-56118661D01*
X121606590Y-56138015D01*
X121640190Y-56148420D01*
X121660000Y-56150000D01*
X122600000Y-56150000D01*
X122600000Y-58250000D01*
X121660000Y-58250000D01*
X121625176Y-58254949D01*
X121593109Y-58269404D01*
X121566339Y-58292220D01*
X121564507Y-58295000D01*
X120710000Y-58295000D01*
X120675176Y-58299949D01*
X120643109Y-58314404D01*
X120616339Y-58337220D01*
X120596985Y-58366590D01*
X120586580Y-58400190D01*
X120585000Y-58420000D01*
X120585000Y-58635000D01*
X118615000Y-58635000D01*
X118615000Y-58420000D01*
X118610051Y-58385176D01*
X118595596Y-58353109D01*
X118572780Y-58326339D01*
X118543410Y-58306985D01*
X118509810Y-58296580D01*
X118490000Y-58295000D01*
X117665000Y-58295000D01*
X117665000Y-55570000D01*
X118845000Y-55570000D01*
X118845000Y-57330000D01*
X118849949Y-57364824D01*
X118864404Y-57396891D01*
X118887220Y-57423661D01*
X118916590Y-57443015D01*
X118950190Y-57453420D01*
X118970000Y-57455000D01*
X120230000Y-57455000D01*
X120264824Y-57450051D01*
X120296891Y-57435596D01*
X120323661Y-57412780D01*
X120343015Y-57383410D01*
X120353420Y-57349810D01*
X120355000Y-57330000D01*
X120355000Y-55570000D01*
X120350051Y-55535176D01*
X120335596Y-55503109D01*
X120312780Y-55476339D01*
X120283410Y-55456985D01*
X120249810Y-55446580D01*
X120230000Y-55445000D01*
X118970000Y-55445000D01*
X118935176Y-55449949D01*
X118903109Y-55464404D01*
X118876339Y-55487220D01*
X118856985Y-55516590D01*
X118846580Y-55550190D01*
X118845000Y-55570000D01*
X117665000Y-55570000D01*
X117665000Y-55175000D01*
X117660051Y-55140176D01*
X117645596Y-55108109D01*
X117622780Y-55081339D01*
X117593410Y-55061985D01*
X117559810Y-55051580D01*
X117540000Y-55050000D01*
X116050000Y-55050000D01*
X116050000Y-52950000D01*
X117750000Y-52950000D01*
X117750000Y-54480000D01*
X117750000Y-54480000D01*
G37*
G36*
X146750000Y-54480000D02*
X146754949Y-54514824D01*
X146769404Y-54546891D01*
X146792220Y-54573661D01*
X146821590Y-54593015D01*
X146855190Y-54603420D01*
X146875000Y-54605000D01*
X147490000Y-54605000D01*
X147524824Y-54600051D01*
X147556891Y-54585596D01*
X147583661Y-54562780D01*
X147603015Y-54533410D01*
X147613420Y-54499810D01*
X147615000Y-54480000D01*
X147615000Y-54265000D01*
X149585000Y-54265000D01*
X149585000Y-54480000D01*
X149589949Y-54514824D01*
X149604404Y-54546891D01*
X149627220Y-54573661D01*
X149656590Y-54593015D01*
X149690190Y-54603420D01*
X149710000Y-54605000D01*
X150375000Y-54605000D01*
X150409824Y-54600051D01*
X150441891Y-54585596D01*
X150468661Y-54562780D01*
X150488015Y-54533410D01*
X150498420Y-54499810D01*
X150500000Y-54480000D01*
X150500000Y-53950000D01*
X152600000Y-53950000D01*
X152600000Y-55850000D01*
X150660000Y-55850000D01*
X150625176Y-55854949D01*
X150593109Y-55869404D01*
X150566339Y-55892220D01*
X150546985Y-55921590D01*
X150536580Y-55955190D01*
X150535000Y-55975000D01*
X150535000Y-56025000D01*
X150539949Y-56059824D01*
X150554404Y-56091891D01*
X150577220Y-56118661D01*
X150606590Y-56138015D01*
X150640190Y-56148420D01*
X150660000Y-56150000D01*
X151600000Y-56150000D01*
X151600000Y-58250000D01*
X150660000Y-58250000D01*
X150625176Y-58254949D01*
X150593109Y-58269404D01*
X150566339Y-58292220D01*
X150564507Y-58295000D01*
X149710000Y-58295000D01*
X149675176Y-58299949D01*
X149643109Y-58314404D01*
X149616339Y-58337220D01*
X149596985Y-58366590D01*
X149586580Y-58400190D01*
X149585000Y-58420000D01*
X149585000Y-58635000D01*
X147615000Y-58635000D01*
X147615000Y-58420000D01*
X147610051Y-58385176D01*
X147595596Y-58353109D01*
X147572780Y-58326339D01*
X147543410Y-58306985D01*
X147509810Y-58296580D01*
X147490000Y-58295000D01*
X146665000Y-58295000D01*
X146665000Y-55570000D01*
X147845000Y-55570000D01*
X147845000Y-57330000D01*
X147849949Y-57364824D01*
X147864404Y-57396891D01*
X147887220Y-57423661D01*
X147916590Y-57443015D01*
X147950190Y-57453420D01*
X147970000Y-57455000D01*
X149230000Y-57455000D01*
X149264824Y-57450051D01*
X149296891Y-57435596D01*
X149323661Y-57412780D01*
X149343015Y-57383410D01*
X149353420Y-57349810D01*
X149355000Y-57330000D01*
X149355000Y-55570000D01*
X149350051Y-55535176D01*
X149335596Y-55503109D01*
X149312780Y-55476339D01*
X149283410Y-55456985D01*
X149249810Y-55446580D01*
X149230000Y-55445000D01*
X147970000Y-55445000D01*
X147935176Y-55449949D01*
X147903109Y-55464404D01*
X147876339Y-55487220D01*
X147856985Y-55516590D01*
X147846580Y-55550190D01*
X147845000Y-55570000D01*
X146665000Y-55570000D01*
X146665000Y-55175000D01*
X146660051Y-55140176D01*
X146645596Y-55108109D01*
X146622780Y-55081339D01*
X146593410Y-55061985D01*
X146559810Y-55051580D01*
X146540000Y-55050000D01*
X145050000Y-55050000D01*
X145050000Y-52950000D01*
X146750000Y-52950000D01*
X146750000Y-54480000D01*
X146750000Y-54480000D01*
G37*
G36*
X135715750Y-57146778D02*
X135743949Y-57150000D01*
X137050000Y-57150000D01*
X137050000Y-58150000D01*
X135752017Y-58150000D01*
X135717193Y-58154949D01*
X135694821Y-58165034D01*
X135664250Y-58153222D01*
X135636051Y-58150000D01*
X135350000Y-58150000D01*
X135350000Y-57150000D01*
X135627983Y-57150000D01*
X135662807Y-57145051D01*
X135685179Y-57134966D01*
X135715750Y-57146778D01*
X135715750Y-57146778D01*
G37*
G36*
X106715750Y-57146778D02*
X106743949Y-57150000D01*
X108050000Y-57150000D01*
X108050000Y-58150000D01*
X106752017Y-58150000D01*
X106717193Y-58154949D01*
X106694821Y-58165034D01*
X106664250Y-58153222D01*
X106636051Y-58150000D01*
X106350000Y-58150000D01*
X106350000Y-57150000D01*
X106627983Y-57150000D01*
X106662807Y-57145051D01*
X106685179Y-57134966D01*
X106715750Y-57146778D01*
X106715750Y-57146778D01*
G37*
G36*
X126264666Y-55630066D02*
X126264673Y-55630067D01*
X126269741Y-55630102D01*
X126473388Y-55652945D01*
X126668720Y-55714908D01*
X126848296Y-55813631D01*
X127005277Y-55945353D01*
X127133684Y-56105059D01*
X127228624Y-56286663D01*
X127286483Y-56483250D01*
X127286491Y-56483334D01*
X127286498Y-56483359D01*
X127305060Y-56687330D01*
X127283652Y-56891009D01*
X127283646Y-56891029D01*
X127283635Y-56891132D01*
X127223037Y-57086891D01*
X127125570Y-57267153D01*
X126994947Y-57425049D01*
X126836142Y-57554567D01*
X126655205Y-57650773D01*
X126459027Y-57710003D01*
X126255081Y-57730000D01*
X126244763Y-57730000D01*
X126235334Y-57729934D01*
X126235327Y-57729933D01*
X126230259Y-57729898D01*
X126026612Y-57707055D01*
X125831280Y-57645092D01*
X125651704Y-57546369D01*
X125494723Y-57414647D01*
X125366316Y-57254941D01*
X125271376Y-57073337D01*
X125213517Y-56876750D01*
X125213509Y-56876666D01*
X125213502Y-56876641D01*
X125194940Y-56672670D01*
X125216348Y-56468991D01*
X125216354Y-56468971D01*
X125216365Y-56468868D01*
X125276963Y-56273109D01*
X125374430Y-56092847D01*
X125505053Y-55934951D01*
X125663858Y-55805433D01*
X125844795Y-55709227D01*
X126040973Y-55649997D01*
X126244919Y-55630000D01*
X126255237Y-55630000D01*
X126264666Y-55630066D01*
X126264666Y-55630066D01*
G37*
G36*
X155264666Y-55630066D02*
X155264673Y-55630067D01*
X155269741Y-55630102D01*
X155473388Y-55652945D01*
X155668720Y-55714908D01*
X155848296Y-55813631D01*
X156005277Y-55945353D01*
X156133684Y-56105059D01*
X156228624Y-56286663D01*
X156286483Y-56483250D01*
X156286491Y-56483334D01*
X156286498Y-56483359D01*
X156305060Y-56687330D01*
X156283652Y-56891009D01*
X156283646Y-56891029D01*
X156283635Y-56891132D01*
X156223037Y-57086891D01*
X156125570Y-57267153D01*
X155994947Y-57425049D01*
X155836142Y-57554567D01*
X155655205Y-57650773D01*
X155459027Y-57710003D01*
X155255081Y-57730000D01*
X155244763Y-57730000D01*
X155235334Y-57729934D01*
X155235327Y-57729933D01*
X155230259Y-57729898D01*
X155026612Y-57707055D01*
X154831280Y-57645092D01*
X154651704Y-57546369D01*
X154494723Y-57414647D01*
X154366316Y-57254941D01*
X154271376Y-57073337D01*
X154213517Y-56876750D01*
X154213509Y-56876666D01*
X154213502Y-56876641D01*
X154194940Y-56672670D01*
X154216348Y-56468991D01*
X154216354Y-56468971D01*
X154216365Y-56468868D01*
X154276963Y-56273109D01*
X154374430Y-56092847D01*
X154505053Y-55934951D01*
X154663858Y-55805433D01*
X154844795Y-55709227D01*
X155040973Y-55649997D01*
X155244919Y-55630000D01*
X155255237Y-55630000D01*
X155264666Y-55630066D01*
X155264666Y-55630066D01*
G37*
G36*
X106712898Y-54793721D02*
X106738951Y-54799315D01*
X106901009Y-54816348D01*
X106901029Y-54816354D01*
X106901132Y-54816365D01*
X107096891Y-54876963D01*
X107277153Y-54974430D01*
X107435049Y-55105053D01*
X107564567Y-55263858D01*
X107660773Y-55444795D01*
X107720003Y-55640973D01*
X107740000Y-55844919D01*
X107740000Y-55855237D01*
X107739934Y-55864666D01*
X107739933Y-55864673D01*
X107739898Y-55869741D01*
X107717055Y-56073388D01*
X107655092Y-56268720D01*
X107556369Y-56448296D01*
X107424647Y-56605277D01*
X107264941Y-56733684D01*
X107083337Y-56828624D01*
X106886750Y-56886483D01*
X106886666Y-56886491D01*
X106886641Y-56886498D01*
X106732620Y-56900514D01*
X106698388Y-56908599D01*
X106685969Y-56915615D01*
X106667102Y-56906279D01*
X106641049Y-56900685D01*
X106478991Y-56883652D01*
X106478971Y-56883646D01*
X106478868Y-56883635D01*
X106283109Y-56823037D01*
X106102847Y-56725570D01*
X105944951Y-56594947D01*
X105815433Y-56436142D01*
X105719227Y-56255205D01*
X105659997Y-56059027D01*
X105640000Y-55855081D01*
X105640000Y-55844763D01*
X105640066Y-55835334D01*
X105640067Y-55835327D01*
X105640102Y-55830259D01*
X105662945Y-55626612D01*
X105724908Y-55431280D01*
X105823631Y-55251704D01*
X105955353Y-55094723D01*
X106115059Y-54966316D01*
X106296663Y-54871376D01*
X106493250Y-54813517D01*
X106493334Y-54813509D01*
X106493359Y-54813502D01*
X106647380Y-54799486D01*
X106681612Y-54791401D01*
X106694031Y-54784385D01*
X106712898Y-54793721D01*
X106712898Y-54793721D01*
G37*
G36*
X135712898Y-54793721D02*
X135738951Y-54799315D01*
X135901009Y-54816348D01*
X135901029Y-54816354D01*
X135901132Y-54816365D01*
X136096891Y-54876963D01*
X136277153Y-54974430D01*
X136435049Y-55105053D01*
X136564567Y-55263858D01*
X136660773Y-55444795D01*
X136720003Y-55640973D01*
X136740000Y-55844919D01*
X136740000Y-55855237D01*
X136739934Y-55864666D01*
X136739933Y-55864673D01*
X136739898Y-55869741D01*
X136717055Y-56073388D01*
X136655092Y-56268720D01*
X136556369Y-56448296D01*
X136424647Y-56605277D01*
X136264941Y-56733684D01*
X136083337Y-56828624D01*
X135886750Y-56886483D01*
X135886666Y-56886491D01*
X135886641Y-56886498D01*
X135732620Y-56900514D01*
X135698388Y-56908599D01*
X135685969Y-56915615D01*
X135667102Y-56906279D01*
X135641049Y-56900685D01*
X135478991Y-56883652D01*
X135478971Y-56883646D01*
X135478868Y-56883635D01*
X135283109Y-56823037D01*
X135102847Y-56725570D01*
X134944951Y-56594947D01*
X134815433Y-56436142D01*
X134719227Y-56255205D01*
X134659997Y-56059027D01*
X134640000Y-55855081D01*
X134640000Y-55844763D01*
X134640066Y-55835334D01*
X134640067Y-55835327D01*
X134640102Y-55830259D01*
X134662945Y-55626612D01*
X134724908Y-55431280D01*
X134823631Y-55251704D01*
X134955353Y-55094723D01*
X135115059Y-54966316D01*
X135296663Y-54871376D01*
X135493250Y-54813517D01*
X135493334Y-54813509D01*
X135493359Y-54813502D01*
X135647380Y-54799486D01*
X135681612Y-54791401D01*
X135694031Y-54784385D01*
X135712898Y-54793721D01*
X135712898Y-54793721D01*
G37*
G36*
X134200000Y-56900000D02*
X132100000Y-56900000D01*
X132100000Y-54800000D01*
X134200000Y-54800000D01*
X134200000Y-56900000D01*
X134200000Y-56900000D01*
G37*
G36*
X105200000Y-56900000D02*
X103100000Y-56900000D01*
X103100000Y-54800000D01*
X105200000Y-54800000D01*
X105200000Y-56900000D01*
X105200000Y-56900000D01*
G37*
G36*
X126264666Y-53090066D02*
X126264673Y-53090067D01*
X126269741Y-53090102D01*
X126473388Y-53112945D01*
X126668720Y-53174908D01*
X126848296Y-53273631D01*
X127005277Y-53405353D01*
X127133684Y-53565059D01*
X127228624Y-53746663D01*
X127286483Y-53943250D01*
X127286491Y-53943334D01*
X127286498Y-53943359D01*
X127305060Y-54147330D01*
X127283652Y-54351009D01*
X127283646Y-54351029D01*
X127283635Y-54351132D01*
X127223037Y-54546891D01*
X127125570Y-54727153D01*
X126994947Y-54885049D01*
X126836142Y-55014567D01*
X126655205Y-55110773D01*
X126459027Y-55170003D01*
X126255081Y-55190000D01*
X126244763Y-55190000D01*
X126235334Y-55189934D01*
X126235327Y-55189933D01*
X126230259Y-55189898D01*
X126026612Y-55167055D01*
X125831280Y-55105092D01*
X125651704Y-55006369D01*
X125494723Y-54874647D01*
X125366316Y-54714941D01*
X125271376Y-54533337D01*
X125213517Y-54336750D01*
X125213509Y-54336666D01*
X125213502Y-54336641D01*
X125194940Y-54132670D01*
X125216348Y-53928991D01*
X125216354Y-53928971D01*
X125216365Y-53928868D01*
X125276963Y-53733109D01*
X125374430Y-53552847D01*
X125505053Y-53394951D01*
X125663858Y-53265433D01*
X125844795Y-53169227D01*
X126040973Y-53109997D01*
X126244919Y-53090000D01*
X126255237Y-53090000D01*
X126264666Y-53090066D01*
X126264666Y-53090066D01*
G37*
G36*
X155264666Y-53090066D02*
X155264673Y-53090067D01*
X155269741Y-53090102D01*
X155473388Y-53112945D01*
X155668720Y-53174908D01*
X155848296Y-53273631D01*
X156005277Y-53405353D01*
X156133684Y-53565059D01*
X156228624Y-53746663D01*
X156286483Y-53943250D01*
X156286491Y-53943334D01*
X156286498Y-53943359D01*
X156305060Y-54147330D01*
X156283652Y-54351009D01*
X156283646Y-54351029D01*
X156283635Y-54351132D01*
X156223037Y-54546891D01*
X156125570Y-54727153D01*
X155994947Y-54885049D01*
X155836142Y-55014567D01*
X155655205Y-55110773D01*
X155459027Y-55170003D01*
X155255081Y-55190000D01*
X155244763Y-55190000D01*
X155235334Y-55189934D01*
X155235327Y-55189933D01*
X155230259Y-55189898D01*
X155026612Y-55167055D01*
X154831280Y-55105092D01*
X154651704Y-55006369D01*
X154494723Y-54874647D01*
X154366316Y-54714941D01*
X154271376Y-54533337D01*
X154213517Y-54336750D01*
X154213509Y-54336666D01*
X154213502Y-54336641D01*
X154194940Y-54132670D01*
X154216348Y-53928991D01*
X154216354Y-53928971D01*
X154216365Y-53928868D01*
X154276963Y-53733109D01*
X154374430Y-53552847D01*
X154505053Y-53394951D01*
X154663858Y-53265433D01*
X154844795Y-53169227D01*
X155040973Y-53109997D01*
X155244919Y-53090000D01*
X155255237Y-53090000D01*
X155264666Y-53090066D01*
X155264666Y-53090066D01*
G37*
G36*
X108978971Y-52449997D02*
X108986379Y-52450048D01*
X108986395Y-52450050D01*
X108991451Y-52450085D01*
X109161157Y-52469121D01*
X109323933Y-52520757D01*
X109473580Y-52603026D01*
X109604398Y-52712795D01*
X109711403Y-52845882D01*
X109790520Y-52997219D01*
X109838735Y-53161041D01*
X109838743Y-53161125D01*
X109838750Y-53161150D01*
X109854218Y-53331108D01*
X109836380Y-53500821D01*
X109836372Y-53500846D01*
X109836362Y-53500943D01*
X109785864Y-53664076D01*
X109704642Y-53814294D01*
X109595789Y-53945874D01*
X109463452Y-54053806D01*
X109312671Y-54133978D01*
X109149189Y-54183336D01*
X108979234Y-54200000D01*
X108970597Y-54200000D01*
X108963621Y-54199952D01*
X108963605Y-54199950D01*
X108958549Y-54199915D01*
X108788843Y-54180879D01*
X108626067Y-54129243D01*
X108476420Y-54046974D01*
X108345602Y-53937205D01*
X108271768Y-53845375D01*
X108246740Y-53821943D01*
X108215381Y-53806009D01*
X108180826Y-53799443D01*
X108145809Y-53802763D01*
X108113103Y-53815708D01*
X108085299Y-53837251D01*
X108064597Y-53865688D01*
X108052637Y-53898766D01*
X108050000Y-53924307D01*
X108050000Y-54550000D01*
X106752017Y-54550000D01*
X106717193Y-54554949D01*
X106694821Y-54565034D01*
X106664250Y-54553222D01*
X106636051Y-54550000D01*
X106350000Y-54550000D01*
X106350000Y-53550000D01*
X106627983Y-53550000D01*
X106662807Y-53545051D01*
X106685179Y-53534966D01*
X106715750Y-53546778D01*
X106743949Y-53550000D01*
X107979921Y-53550000D01*
X108014745Y-53545051D01*
X108046812Y-53530596D01*
X108073582Y-53507780D01*
X108092936Y-53478410D01*
X108103341Y-53444810D01*
X108104407Y-53413671D01*
X108095782Y-53318893D01*
X108113620Y-53149179D01*
X108113628Y-53149154D01*
X108113638Y-53149057D01*
X108164136Y-52985924D01*
X108245358Y-52835706D01*
X108354211Y-52704126D01*
X108486548Y-52596194D01*
X108637329Y-52516022D01*
X108800811Y-52466664D01*
X108970766Y-52450000D01*
X108976269Y-52450000D01*
X108977972Y-52449833D01*
X108978971Y-52449997D01*
X108978971Y-52449997D01*
G37*
G36*
X137978971Y-52449997D02*
X137986379Y-52450048D01*
X137986395Y-52450050D01*
X137991451Y-52450085D01*
X138161157Y-52469121D01*
X138323933Y-52520757D01*
X138473580Y-52603026D01*
X138604398Y-52712795D01*
X138711403Y-52845882D01*
X138790520Y-52997219D01*
X138838735Y-53161041D01*
X138838743Y-53161125D01*
X138838750Y-53161150D01*
X138854218Y-53331108D01*
X138836380Y-53500821D01*
X138836372Y-53500846D01*
X138836362Y-53500943D01*
X138785864Y-53664076D01*
X138704642Y-53814294D01*
X138595789Y-53945874D01*
X138463452Y-54053806D01*
X138312671Y-54133978D01*
X138149189Y-54183336D01*
X137979234Y-54200000D01*
X137970597Y-54200000D01*
X137963621Y-54199952D01*
X137963605Y-54199950D01*
X137958549Y-54199915D01*
X137788843Y-54180879D01*
X137626067Y-54129243D01*
X137476420Y-54046974D01*
X137345602Y-53937205D01*
X137271768Y-53845375D01*
X137246740Y-53821943D01*
X137215381Y-53806009D01*
X137180826Y-53799443D01*
X137145809Y-53802763D01*
X137113103Y-53815708D01*
X137085299Y-53837251D01*
X137064597Y-53865688D01*
X137052637Y-53898766D01*
X137050000Y-53924307D01*
X137050000Y-54550000D01*
X135752017Y-54550000D01*
X135717193Y-54554949D01*
X135694821Y-54565034D01*
X135664250Y-54553222D01*
X135636051Y-54550000D01*
X135350000Y-54550000D01*
X135350000Y-53550000D01*
X135627983Y-53550000D01*
X135662807Y-53545051D01*
X135685179Y-53534966D01*
X135715750Y-53546778D01*
X135743949Y-53550000D01*
X136979921Y-53550000D01*
X137014745Y-53545051D01*
X137046812Y-53530596D01*
X137073582Y-53507780D01*
X137092936Y-53478410D01*
X137103341Y-53444810D01*
X137104407Y-53413671D01*
X137095782Y-53318893D01*
X137113620Y-53149179D01*
X137113628Y-53149154D01*
X137113638Y-53149057D01*
X137164136Y-52985924D01*
X137245358Y-52835706D01*
X137354211Y-52704126D01*
X137486548Y-52596194D01*
X137637329Y-52516022D01*
X137800811Y-52466664D01*
X137970766Y-52450000D01*
X137976269Y-52450000D01*
X137977972Y-52449833D01*
X137978971Y-52449997D01*
X137978971Y-52449997D01*
G37*
G36*
X106901009Y-51216348D02*
X106901029Y-51216354D01*
X106901132Y-51216365D01*
X107096891Y-51276963D01*
X107277153Y-51374430D01*
X107435049Y-51505053D01*
X107564567Y-51663858D01*
X107660773Y-51844795D01*
X107720003Y-52040973D01*
X107740000Y-52244919D01*
X107740000Y-52255237D01*
X107739934Y-52264666D01*
X107739933Y-52264673D01*
X107739898Y-52269741D01*
X107717055Y-52473388D01*
X107655092Y-52668720D01*
X107556369Y-52848296D01*
X107424647Y-53005277D01*
X107264941Y-53133684D01*
X107083337Y-53228624D01*
X106886750Y-53286483D01*
X106886666Y-53286491D01*
X106886641Y-53286498D01*
X106732620Y-53300514D01*
X106698388Y-53308599D01*
X106685969Y-53315615D01*
X106667102Y-53306279D01*
X106641049Y-53300685D01*
X106478991Y-53283652D01*
X106478971Y-53283646D01*
X106478868Y-53283635D01*
X106283109Y-53223037D01*
X106102847Y-53125570D01*
X105944951Y-52994947D01*
X105815433Y-52836142D01*
X105719227Y-52655205D01*
X105659997Y-52459027D01*
X105640000Y-52255081D01*
X105640000Y-52244763D01*
X105640066Y-52235334D01*
X105640067Y-52235327D01*
X105640102Y-52230259D01*
X105662945Y-52026612D01*
X105724908Y-51831280D01*
X105823631Y-51651704D01*
X105955353Y-51494723D01*
X106115059Y-51366316D01*
X106296663Y-51271376D01*
X106493250Y-51213517D01*
X106493334Y-51213509D01*
X106493359Y-51213502D01*
X106697330Y-51194940D01*
X106901009Y-51216348D01*
X106901009Y-51216348D01*
G37*
G36*
X135901009Y-51216348D02*
X135901029Y-51216354D01*
X135901132Y-51216365D01*
X136096891Y-51276963D01*
X136277153Y-51374430D01*
X136435049Y-51505053D01*
X136564567Y-51663858D01*
X136660773Y-51844795D01*
X136720003Y-52040973D01*
X136740000Y-52244919D01*
X136740000Y-52255237D01*
X136739934Y-52264666D01*
X136739933Y-52264673D01*
X136739898Y-52269741D01*
X136717055Y-52473388D01*
X136655092Y-52668720D01*
X136556369Y-52848296D01*
X136424647Y-53005277D01*
X136264941Y-53133684D01*
X136083337Y-53228624D01*
X135886750Y-53286483D01*
X135886666Y-53286491D01*
X135886641Y-53286498D01*
X135732620Y-53300514D01*
X135698388Y-53308599D01*
X135685969Y-53315615D01*
X135667102Y-53306279D01*
X135641049Y-53300685D01*
X135478991Y-53283652D01*
X135478971Y-53283646D01*
X135478868Y-53283635D01*
X135283109Y-53223037D01*
X135102847Y-53125570D01*
X134944951Y-52994947D01*
X134815433Y-52836142D01*
X134719227Y-52655205D01*
X134659997Y-52459027D01*
X134640000Y-52255081D01*
X134640000Y-52244763D01*
X134640066Y-52235334D01*
X134640067Y-52235327D01*
X134640102Y-52230259D01*
X134662945Y-52026612D01*
X134724908Y-51831280D01*
X134823631Y-51651704D01*
X134955353Y-51494723D01*
X135115059Y-51366316D01*
X135296663Y-51271376D01*
X135493250Y-51213517D01*
X135493334Y-51213509D01*
X135493359Y-51213502D01*
X135697330Y-51194940D01*
X135901009Y-51216348D01*
X135901009Y-51216348D01*
G37*
G36*
X105200000Y-53300000D02*
X103100000Y-53300000D01*
X103100000Y-51200000D01*
X105200000Y-51200000D01*
X105200000Y-53300000D01*
X105200000Y-53300000D01*
G37*
G36*
X134200000Y-53300000D02*
X132100000Y-53300000D01*
X132100000Y-51200000D01*
X134200000Y-51200000D01*
X134200000Y-53300000D01*
X134200000Y-53300000D01*
G37*
G36*
X155264666Y-50550066D02*
X155264673Y-50550067D01*
X155269741Y-50550102D01*
X155473388Y-50572945D01*
X155668720Y-50634908D01*
X155848296Y-50733631D01*
X156005277Y-50865353D01*
X156133684Y-51025059D01*
X156228624Y-51206663D01*
X156286483Y-51403250D01*
X156286491Y-51403334D01*
X156286498Y-51403359D01*
X156305060Y-51607330D01*
X156283652Y-51811009D01*
X156283646Y-51811029D01*
X156283635Y-51811132D01*
X156223037Y-52006891D01*
X156125570Y-52187153D01*
X155994947Y-52345049D01*
X155836142Y-52474567D01*
X155655205Y-52570773D01*
X155459027Y-52630003D01*
X155255081Y-52650000D01*
X155244763Y-52650000D01*
X155235334Y-52649934D01*
X155235327Y-52649933D01*
X155230259Y-52649898D01*
X155026612Y-52627055D01*
X154831280Y-52565092D01*
X154651704Y-52466369D01*
X154494723Y-52334647D01*
X154366316Y-52174941D01*
X154271376Y-51993337D01*
X154213517Y-51796750D01*
X154213509Y-51796666D01*
X154213502Y-51796641D01*
X154194940Y-51592670D01*
X154216348Y-51388991D01*
X154216354Y-51388971D01*
X154216365Y-51388868D01*
X154276963Y-51193109D01*
X154374430Y-51012847D01*
X154505053Y-50854951D01*
X154663858Y-50725433D01*
X154844795Y-50629227D01*
X155040973Y-50569997D01*
X155244919Y-50550000D01*
X155255237Y-50550000D01*
X155264666Y-50550066D01*
X155264666Y-50550066D01*
G37*
G36*
X126264666Y-50550066D02*
X126264673Y-50550067D01*
X126269741Y-50550102D01*
X126473388Y-50572945D01*
X126668720Y-50634908D01*
X126848296Y-50733631D01*
X127005277Y-50865353D01*
X127133684Y-51025059D01*
X127228624Y-51206663D01*
X127286483Y-51403250D01*
X127286491Y-51403334D01*
X127286498Y-51403359D01*
X127305060Y-51607330D01*
X127283652Y-51811009D01*
X127283646Y-51811029D01*
X127283635Y-51811132D01*
X127223037Y-52006891D01*
X127125570Y-52187153D01*
X126994947Y-52345049D01*
X126836142Y-52474567D01*
X126655205Y-52570773D01*
X126459027Y-52630003D01*
X126255081Y-52650000D01*
X126244763Y-52650000D01*
X126235334Y-52649934D01*
X126235327Y-52649933D01*
X126230259Y-52649898D01*
X126026612Y-52627055D01*
X125831280Y-52565092D01*
X125651704Y-52466369D01*
X125494723Y-52334647D01*
X125366316Y-52174941D01*
X125271376Y-51993337D01*
X125213517Y-51796750D01*
X125213509Y-51796666D01*
X125213502Y-51796641D01*
X125194940Y-51592670D01*
X125216348Y-51388991D01*
X125216354Y-51388971D01*
X125216365Y-51388868D01*
X125276963Y-51193109D01*
X125374430Y-51012847D01*
X125505053Y-50854951D01*
X125663858Y-50725433D01*
X125844795Y-50629227D01*
X126040973Y-50569997D01*
X126244919Y-50550000D01*
X126255237Y-50550000D01*
X126264666Y-50550066D01*
X126264666Y-50550066D01*
G37*
G36*
X109850000Y-52200000D02*
X108979839Y-52200000D01*
X108975601Y-52200602D01*
X108970161Y-52200000D01*
X108100000Y-52200000D01*
X108100000Y-50450000D01*
X109850000Y-50450000D01*
X109850000Y-52200000D01*
X109850000Y-52200000D01*
G37*
G36*
X138850000Y-52200000D02*
X137979839Y-52200000D01*
X137975601Y-52200602D01*
X137970161Y-52200000D01*
X137100000Y-52200000D01*
X137100000Y-50450000D01*
X138850000Y-50450000D01*
X138850000Y-52200000D01*
X138850000Y-52200000D01*
G37*
G36*
X148175821Y-50438620D02*
X148175846Y-50438628D01*
X148175943Y-50438638D01*
X148339076Y-50489136D01*
X148489294Y-50570358D01*
X148620874Y-50679211D01*
X148728806Y-50811548D01*
X148808978Y-50962329D01*
X148858336Y-51125811D01*
X148875000Y-51295766D01*
X148875000Y-51301269D01*
X148875167Y-51302972D01*
X148875003Y-51303971D01*
X148874952Y-51311379D01*
X148874950Y-51311395D01*
X148874915Y-51316451D01*
X148855879Y-51486157D01*
X148804243Y-51648933D01*
X148721974Y-51798580D01*
X148612205Y-51929398D01*
X148479118Y-52036403D01*
X148327781Y-52115520D01*
X148163959Y-52163735D01*
X148163875Y-52163743D01*
X148163850Y-52163750D01*
X147993892Y-52179218D01*
X147824179Y-52161380D01*
X147824154Y-52161372D01*
X147824057Y-52161362D01*
X147660924Y-52110864D01*
X147510706Y-52029642D01*
X147379126Y-51920789D01*
X147271194Y-51788452D01*
X147191022Y-51637671D01*
X147141664Y-51474189D01*
X147125000Y-51304234D01*
X147125000Y-51298730D01*
X147124856Y-51297262D01*
X147124997Y-51296029D01*
X147125048Y-51288621D01*
X147125050Y-51288605D01*
X147125085Y-51283549D01*
X147144121Y-51113843D01*
X147195757Y-50951067D01*
X147278026Y-50801420D01*
X147387795Y-50670602D01*
X147520882Y-50563597D01*
X147672219Y-50484480D01*
X147836041Y-50436265D01*
X147836125Y-50436257D01*
X147836150Y-50436250D01*
X148006108Y-50420782D01*
X148175821Y-50438620D01*
X148175821Y-50438620D01*
G37*
G36*
X146175821Y-50438620D02*
X146175846Y-50438628D01*
X146175943Y-50438638D01*
X146339076Y-50489136D01*
X146489294Y-50570358D01*
X146620874Y-50679211D01*
X146728806Y-50811548D01*
X146808978Y-50962329D01*
X146858336Y-51125811D01*
X146875000Y-51295766D01*
X146875000Y-51301269D01*
X146875144Y-51302738D01*
X146875003Y-51303971D01*
X146874952Y-51311379D01*
X146874950Y-51311395D01*
X146874915Y-51316451D01*
X146855879Y-51486157D01*
X146804243Y-51648933D01*
X146721974Y-51798580D01*
X146612205Y-51929398D01*
X146479118Y-52036403D01*
X146327781Y-52115520D01*
X146163959Y-52163735D01*
X146163875Y-52163743D01*
X146163850Y-52163750D01*
X145993892Y-52179218D01*
X145824179Y-52161380D01*
X145824154Y-52161372D01*
X145824057Y-52161362D01*
X145660924Y-52110864D01*
X145510706Y-52029642D01*
X145379126Y-51920789D01*
X145271194Y-51788452D01*
X145191022Y-51637671D01*
X145141664Y-51474189D01*
X145125000Y-51304234D01*
X145125000Y-51298730D01*
X145124856Y-51297262D01*
X145124997Y-51296029D01*
X145125048Y-51288621D01*
X145125050Y-51288605D01*
X145125085Y-51283549D01*
X145144121Y-51113843D01*
X145195757Y-50951067D01*
X145278026Y-50801420D01*
X145387795Y-50670602D01*
X145520882Y-50563597D01*
X145672219Y-50484480D01*
X145836041Y-50436265D01*
X145836125Y-50436257D01*
X145836150Y-50436250D01*
X146006108Y-50420782D01*
X146175821Y-50438620D01*
X146175821Y-50438620D01*
G37*
G36*
X115175821Y-50438620D02*
X115175846Y-50438628D01*
X115175943Y-50438638D01*
X115339076Y-50489136D01*
X115489294Y-50570358D01*
X115620874Y-50679211D01*
X115728806Y-50811548D01*
X115808978Y-50962329D01*
X115858336Y-51125811D01*
X115875000Y-51295766D01*
X115875000Y-51301269D01*
X115875144Y-51302738D01*
X115875003Y-51303971D01*
X115874952Y-51311379D01*
X115874950Y-51311395D01*
X115874915Y-51316451D01*
X115855879Y-51486157D01*
X115804243Y-51648933D01*
X115721974Y-51798580D01*
X115612205Y-51929398D01*
X115479118Y-52036403D01*
X115327781Y-52115520D01*
X115163959Y-52163735D01*
X115163875Y-52163743D01*
X115163850Y-52163750D01*
X114993892Y-52179218D01*
X114824179Y-52161380D01*
X114824154Y-52161372D01*
X114824057Y-52161362D01*
X114660924Y-52110864D01*
X114510706Y-52029642D01*
X114379126Y-51920789D01*
X114271194Y-51788452D01*
X114191022Y-51637671D01*
X114141664Y-51474189D01*
X114125000Y-51304234D01*
X114125000Y-51298730D01*
X114124856Y-51297262D01*
X114124997Y-51296029D01*
X114125048Y-51288621D01*
X114125050Y-51288605D01*
X114125085Y-51283549D01*
X114144121Y-51113843D01*
X114195757Y-50951067D01*
X114278026Y-50801420D01*
X114387795Y-50670602D01*
X114520882Y-50563597D01*
X114672219Y-50484480D01*
X114836041Y-50436265D01*
X114836125Y-50436257D01*
X114836150Y-50436250D01*
X115006108Y-50420782D01*
X115175821Y-50438620D01*
X115175821Y-50438620D01*
G37*
G36*
X119175821Y-50438620D02*
X119175846Y-50438628D01*
X119175943Y-50438638D01*
X119339076Y-50489136D01*
X119489294Y-50570358D01*
X119620874Y-50679211D01*
X119728806Y-50811548D01*
X119808978Y-50962329D01*
X119858336Y-51125811D01*
X119875000Y-51295766D01*
X119875000Y-51301269D01*
X119875167Y-51302972D01*
X119875003Y-51303971D01*
X119874952Y-51311379D01*
X119874950Y-51311395D01*
X119874915Y-51316451D01*
X119855879Y-51486157D01*
X119804243Y-51648933D01*
X119721974Y-51798580D01*
X119612205Y-51929398D01*
X119479118Y-52036403D01*
X119327781Y-52115520D01*
X119163959Y-52163735D01*
X119163875Y-52163743D01*
X119163850Y-52163750D01*
X118993892Y-52179218D01*
X118824179Y-52161380D01*
X118824154Y-52161372D01*
X118824057Y-52161362D01*
X118660924Y-52110864D01*
X118510706Y-52029642D01*
X118379126Y-51920789D01*
X118271194Y-51788452D01*
X118191022Y-51637671D01*
X118141664Y-51474189D01*
X118125000Y-51304234D01*
X118125000Y-51298730D01*
X118124856Y-51297262D01*
X118124997Y-51296029D01*
X118125048Y-51288621D01*
X118125050Y-51288605D01*
X118125085Y-51283549D01*
X118144121Y-51113843D01*
X118195757Y-50951067D01*
X118278026Y-50801420D01*
X118387795Y-50670602D01*
X118520882Y-50563597D01*
X118672219Y-50484480D01*
X118836041Y-50436265D01*
X118836125Y-50436257D01*
X118836150Y-50436250D01*
X119006108Y-50420782D01*
X119175821Y-50438620D01*
X119175821Y-50438620D01*
G37*
G36*
X144175821Y-50438620D02*
X144175846Y-50438628D01*
X144175943Y-50438638D01*
X144339076Y-50489136D01*
X144489294Y-50570358D01*
X144620874Y-50679211D01*
X144728806Y-50811548D01*
X144808978Y-50962329D01*
X144858336Y-51125811D01*
X144875000Y-51295766D01*
X144875000Y-51301269D01*
X144875144Y-51302738D01*
X144875003Y-51303971D01*
X144874952Y-51311379D01*
X144874950Y-51311395D01*
X144874915Y-51316451D01*
X144855879Y-51486157D01*
X144804243Y-51648933D01*
X144721974Y-51798580D01*
X144612205Y-51929398D01*
X144479118Y-52036403D01*
X144327781Y-52115520D01*
X144163959Y-52163735D01*
X144163875Y-52163743D01*
X144163850Y-52163750D01*
X143993892Y-52179218D01*
X143824179Y-52161380D01*
X143824154Y-52161372D01*
X143824057Y-52161362D01*
X143660924Y-52110864D01*
X143510706Y-52029642D01*
X143379126Y-51920789D01*
X143271194Y-51788452D01*
X143191022Y-51637671D01*
X143141664Y-51474189D01*
X143125000Y-51304234D01*
X143125000Y-51298730D01*
X143124856Y-51297262D01*
X143124997Y-51296029D01*
X143125048Y-51288621D01*
X143125050Y-51288605D01*
X143125085Y-51283549D01*
X143144121Y-51113843D01*
X143195757Y-50951067D01*
X143278026Y-50801420D01*
X143387795Y-50670602D01*
X143520882Y-50563597D01*
X143672219Y-50484480D01*
X143836041Y-50436265D01*
X143836125Y-50436257D01*
X143836150Y-50436250D01*
X144006108Y-50420782D01*
X144175821Y-50438620D01*
X144175821Y-50438620D01*
G37*
G36*
X113175821Y-50438620D02*
X113175846Y-50438628D01*
X113175943Y-50438638D01*
X113339076Y-50489136D01*
X113489294Y-50570358D01*
X113620874Y-50679211D01*
X113728806Y-50811548D01*
X113808978Y-50962329D01*
X113858336Y-51125811D01*
X113875000Y-51295766D01*
X113875000Y-51301269D01*
X113875144Y-51302738D01*
X113875003Y-51303971D01*
X113874952Y-51311379D01*
X113874950Y-51311395D01*
X113874915Y-51316451D01*
X113855879Y-51486157D01*
X113804243Y-51648933D01*
X113721974Y-51798580D01*
X113612205Y-51929398D01*
X113479118Y-52036403D01*
X113327781Y-52115520D01*
X113163959Y-52163735D01*
X113163875Y-52163743D01*
X113163850Y-52163750D01*
X112993892Y-52179218D01*
X112824179Y-52161380D01*
X112824154Y-52161372D01*
X112824057Y-52161362D01*
X112660924Y-52110864D01*
X112510706Y-52029642D01*
X112379126Y-51920789D01*
X112271194Y-51788452D01*
X112191022Y-51637671D01*
X112141664Y-51474189D01*
X112125000Y-51304234D01*
X112125000Y-51298730D01*
X112124856Y-51297262D01*
X112124997Y-51296029D01*
X112125048Y-51288621D01*
X112125050Y-51288605D01*
X112125085Y-51283549D01*
X112144121Y-51113843D01*
X112195757Y-50951067D01*
X112278026Y-50801420D01*
X112387795Y-50670602D01*
X112520882Y-50563597D01*
X112672219Y-50484480D01*
X112836041Y-50436265D01*
X112836125Y-50436257D01*
X112836150Y-50436250D01*
X113006108Y-50420782D01*
X113175821Y-50438620D01*
X113175821Y-50438620D01*
G37*
G36*
X142175821Y-50438620D02*
X142175846Y-50438628D01*
X142175943Y-50438638D01*
X142339076Y-50489136D01*
X142489294Y-50570358D01*
X142620874Y-50679211D01*
X142728806Y-50811548D01*
X142808978Y-50962329D01*
X142858336Y-51125811D01*
X142875000Y-51295766D01*
X142875000Y-51301269D01*
X142875144Y-51302738D01*
X142875003Y-51303971D01*
X142874952Y-51311379D01*
X142874950Y-51311395D01*
X142874915Y-51316451D01*
X142855879Y-51486157D01*
X142804243Y-51648933D01*
X142721974Y-51798580D01*
X142612205Y-51929398D01*
X142479118Y-52036403D01*
X142327781Y-52115520D01*
X142163959Y-52163735D01*
X142163875Y-52163743D01*
X142163850Y-52163750D01*
X141993892Y-52179218D01*
X141824179Y-52161380D01*
X141824154Y-52161372D01*
X141824057Y-52161362D01*
X141660924Y-52110864D01*
X141510706Y-52029642D01*
X141379126Y-51920789D01*
X141271194Y-51788452D01*
X141191022Y-51637671D01*
X141141664Y-51474189D01*
X141125000Y-51304234D01*
X141125000Y-51298730D01*
X141124856Y-51297262D01*
X141124997Y-51296029D01*
X141125048Y-51288621D01*
X141125050Y-51288605D01*
X141125085Y-51283549D01*
X141144121Y-51113843D01*
X141195757Y-50951067D01*
X141278026Y-50801420D01*
X141387795Y-50670602D01*
X141520882Y-50563597D01*
X141672219Y-50484480D01*
X141836041Y-50436265D01*
X141836125Y-50436257D01*
X141836150Y-50436250D01*
X142006108Y-50420782D01*
X142175821Y-50438620D01*
X142175821Y-50438620D01*
G37*
G36*
X117175821Y-50438620D02*
X117175846Y-50438628D01*
X117175943Y-50438638D01*
X117339076Y-50489136D01*
X117489294Y-50570358D01*
X117620874Y-50679211D01*
X117728806Y-50811548D01*
X117808978Y-50962329D01*
X117858336Y-51125811D01*
X117875000Y-51295766D01*
X117875000Y-51301269D01*
X117875144Y-51302738D01*
X117875003Y-51303971D01*
X117874952Y-51311379D01*
X117874950Y-51311395D01*
X117874915Y-51316451D01*
X117855879Y-51486157D01*
X117804243Y-51648933D01*
X117721974Y-51798580D01*
X117612205Y-51929398D01*
X117479118Y-52036403D01*
X117327781Y-52115520D01*
X117163959Y-52163735D01*
X117163875Y-52163743D01*
X117163850Y-52163750D01*
X116993892Y-52179218D01*
X116824179Y-52161380D01*
X116824154Y-52161372D01*
X116824057Y-52161362D01*
X116660924Y-52110864D01*
X116510706Y-52029642D01*
X116379126Y-51920789D01*
X116271194Y-51788452D01*
X116191022Y-51637671D01*
X116141664Y-51474189D01*
X116125000Y-51304234D01*
X116125000Y-51298730D01*
X116124856Y-51297262D01*
X116124997Y-51296029D01*
X116125048Y-51288621D01*
X116125050Y-51288605D01*
X116125085Y-51283549D01*
X116144121Y-51113843D01*
X116195757Y-50951067D01*
X116278026Y-50801420D01*
X116387795Y-50670602D01*
X116520882Y-50563597D01*
X116672219Y-50484480D01*
X116836041Y-50436265D01*
X116836125Y-50436257D01*
X116836150Y-50436250D01*
X117006108Y-50420782D01*
X117175821Y-50438620D01*
X117175821Y-50438620D01*
G37*
G36*
X150875000Y-52175000D02*
X149125000Y-52175000D01*
X149125000Y-51304839D01*
X149124398Y-51300601D01*
X149125000Y-51295161D01*
X149125000Y-50425000D01*
X150875000Y-50425000D01*
X150875000Y-52175000D01*
X150875000Y-52175000D01*
G37*
G36*
X121875000Y-52175000D02*
X120125000Y-52175000D01*
X120125000Y-51304839D01*
X120124398Y-51300601D01*
X120125000Y-51295161D01*
X120125000Y-50425000D01*
X121875000Y-50425000D01*
X121875000Y-52175000D01*
X121875000Y-52175000D01*
G37*
G36*
X140175821Y-46238620D02*
X140175846Y-46238628D01*
X140175943Y-46238638D01*
X140339076Y-46289136D01*
X140489294Y-46370358D01*
X140620874Y-46479211D01*
X140728806Y-46611548D01*
X140808978Y-46762329D01*
X140858336Y-46925811D01*
X140875000Y-47095766D01*
X140875000Y-47101269D01*
X140875144Y-47102738D01*
X140875003Y-47103971D01*
X140874952Y-47111379D01*
X140874950Y-47111395D01*
X140874915Y-47116451D01*
X140855879Y-47286157D01*
X140804243Y-47448933D01*
X140721974Y-47598580D01*
X140612205Y-47729398D01*
X140479118Y-47836403D01*
X140327781Y-47915520D01*
X140163959Y-47963735D01*
X140163875Y-47963743D01*
X140163850Y-47963750D01*
X139993892Y-47979218D01*
X139824179Y-47961380D01*
X139824154Y-47961372D01*
X139824057Y-47961362D01*
X139660924Y-47910864D01*
X139510706Y-47829642D01*
X139379126Y-47720789D01*
X139271194Y-47588452D01*
X139191022Y-47437671D01*
X139141664Y-47274189D01*
X139125000Y-47104234D01*
X139125000Y-47095597D01*
X139125048Y-47088621D01*
X139125050Y-47088605D01*
X139125085Y-47083549D01*
X139144121Y-46913843D01*
X139195757Y-46751067D01*
X139278026Y-46601420D01*
X139387795Y-46470602D01*
X139520882Y-46363597D01*
X139672219Y-46284480D01*
X139836041Y-46236265D01*
X139836125Y-46236257D01*
X139836150Y-46236250D01*
X140006108Y-46220782D01*
X140175821Y-46238620D01*
X140175821Y-46238620D01*
G37*
G36*
X111175821Y-46238620D02*
X111175846Y-46238628D01*
X111175943Y-46238638D01*
X111339076Y-46289136D01*
X111489294Y-46370358D01*
X111620874Y-46479211D01*
X111728806Y-46611548D01*
X111808978Y-46762329D01*
X111858336Y-46925811D01*
X111875000Y-47095766D01*
X111875000Y-47101269D01*
X111875144Y-47102738D01*
X111875003Y-47103971D01*
X111874952Y-47111379D01*
X111874950Y-47111395D01*
X111874915Y-47116451D01*
X111855879Y-47286157D01*
X111804243Y-47448933D01*
X111721974Y-47598580D01*
X111612205Y-47729398D01*
X111479118Y-47836403D01*
X111327781Y-47915520D01*
X111163959Y-47963735D01*
X111163875Y-47963743D01*
X111163850Y-47963750D01*
X110993892Y-47979218D01*
X110824179Y-47961380D01*
X110824154Y-47961372D01*
X110824057Y-47961362D01*
X110660924Y-47910864D01*
X110510706Y-47829642D01*
X110379126Y-47720789D01*
X110271194Y-47588452D01*
X110191022Y-47437671D01*
X110141664Y-47274189D01*
X110125000Y-47104234D01*
X110125000Y-47095597D01*
X110125048Y-47088621D01*
X110125050Y-47088605D01*
X110125085Y-47083549D01*
X110144121Y-46913843D01*
X110195757Y-46751067D01*
X110278026Y-46601420D01*
X110387795Y-46470602D01*
X110520882Y-46363597D01*
X110672219Y-46284480D01*
X110836041Y-46236265D01*
X110836125Y-46236257D01*
X110836150Y-46236250D01*
X111006108Y-46220782D01*
X111175821Y-46238620D01*
X111175821Y-46238620D01*
G37*
G36*
X113175821Y-46238620D02*
X113175846Y-46238628D01*
X113175943Y-46238638D01*
X113339076Y-46289136D01*
X113489294Y-46370358D01*
X113620874Y-46479211D01*
X113728806Y-46611548D01*
X113808978Y-46762329D01*
X113858336Y-46925811D01*
X113875000Y-47095766D01*
X113875000Y-47101269D01*
X113875144Y-47102738D01*
X113875003Y-47103971D01*
X113874952Y-47111379D01*
X113874950Y-47111395D01*
X113874915Y-47116451D01*
X113855879Y-47286157D01*
X113804243Y-47448933D01*
X113721974Y-47598580D01*
X113612205Y-47729398D01*
X113479118Y-47836403D01*
X113327781Y-47915520D01*
X113163959Y-47963735D01*
X113163875Y-47963743D01*
X113163850Y-47963750D01*
X112993892Y-47979218D01*
X112824179Y-47961380D01*
X112824154Y-47961372D01*
X112824057Y-47961362D01*
X112660924Y-47910864D01*
X112510706Y-47829642D01*
X112379126Y-47720789D01*
X112271194Y-47588452D01*
X112191022Y-47437671D01*
X112141664Y-47274189D01*
X112125000Y-47104234D01*
X112125000Y-47098730D01*
X112124856Y-47097262D01*
X112124997Y-47096029D01*
X112125048Y-47088621D01*
X112125050Y-47088605D01*
X112125085Y-47083549D01*
X112144121Y-46913843D01*
X112195757Y-46751067D01*
X112278026Y-46601420D01*
X112387795Y-46470602D01*
X112520882Y-46363597D01*
X112672219Y-46284480D01*
X112836041Y-46236265D01*
X112836125Y-46236257D01*
X112836150Y-46236250D01*
X113006108Y-46220782D01*
X113175821Y-46238620D01*
X113175821Y-46238620D01*
G37*
G36*
X115175821Y-46238620D02*
X115175846Y-46238628D01*
X115175943Y-46238638D01*
X115339076Y-46289136D01*
X115489294Y-46370358D01*
X115620874Y-46479211D01*
X115728806Y-46611548D01*
X115808978Y-46762329D01*
X115858336Y-46925811D01*
X115875000Y-47095766D01*
X115875000Y-47101269D01*
X115875144Y-47102738D01*
X115875003Y-47103971D01*
X115874952Y-47111379D01*
X115874950Y-47111395D01*
X115874915Y-47116451D01*
X115855879Y-47286157D01*
X115804243Y-47448933D01*
X115721974Y-47598580D01*
X115612205Y-47729398D01*
X115479118Y-47836403D01*
X115327781Y-47915520D01*
X115163959Y-47963735D01*
X115163875Y-47963743D01*
X115163850Y-47963750D01*
X114993892Y-47979218D01*
X114824179Y-47961380D01*
X114824154Y-47961372D01*
X114824057Y-47961362D01*
X114660924Y-47910864D01*
X114510706Y-47829642D01*
X114379126Y-47720789D01*
X114271194Y-47588452D01*
X114191022Y-47437671D01*
X114141664Y-47274189D01*
X114125000Y-47104234D01*
X114125000Y-47098730D01*
X114124856Y-47097262D01*
X114124997Y-47096029D01*
X114125048Y-47088621D01*
X114125050Y-47088605D01*
X114125085Y-47083549D01*
X114144121Y-46913843D01*
X114195757Y-46751067D01*
X114278026Y-46601420D01*
X114387795Y-46470602D01*
X114520882Y-46363597D01*
X114672219Y-46284480D01*
X114836041Y-46236265D01*
X114836125Y-46236257D01*
X114836150Y-46236250D01*
X115006108Y-46220782D01*
X115175821Y-46238620D01*
X115175821Y-46238620D01*
G37*
G36*
X117175821Y-46238620D02*
X117175846Y-46238628D01*
X117175943Y-46238638D01*
X117339076Y-46289136D01*
X117489294Y-46370358D01*
X117620874Y-46479211D01*
X117728806Y-46611548D01*
X117808978Y-46762329D01*
X117858336Y-46925811D01*
X117875000Y-47095766D01*
X117875000Y-47101269D01*
X117875144Y-47102738D01*
X117875003Y-47103971D01*
X117874952Y-47111379D01*
X117874950Y-47111395D01*
X117874915Y-47116451D01*
X117855879Y-47286157D01*
X117804243Y-47448933D01*
X117721974Y-47598580D01*
X117612205Y-47729398D01*
X117479118Y-47836403D01*
X117327781Y-47915520D01*
X117163959Y-47963735D01*
X117163875Y-47963743D01*
X117163850Y-47963750D01*
X116993892Y-47979218D01*
X116824179Y-47961380D01*
X116824154Y-47961372D01*
X116824057Y-47961362D01*
X116660924Y-47910864D01*
X116510706Y-47829642D01*
X116379126Y-47720789D01*
X116271194Y-47588452D01*
X116191022Y-47437671D01*
X116141664Y-47274189D01*
X116125000Y-47104234D01*
X116125000Y-47098730D01*
X116124856Y-47097262D01*
X116124997Y-47096029D01*
X116125048Y-47088621D01*
X116125050Y-47088605D01*
X116125085Y-47083549D01*
X116144121Y-46913843D01*
X116195757Y-46751067D01*
X116278026Y-46601420D01*
X116387795Y-46470602D01*
X116520882Y-46363597D01*
X116672219Y-46284480D01*
X116836041Y-46236265D01*
X116836125Y-46236257D01*
X116836150Y-46236250D01*
X117006108Y-46220782D01*
X117175821Y-46238620D01*
X117175821Y-46238620D01*
G37*
G36*
X119175821Y-46238620D02*
X119175846Y-46238628D01*
X119175943Y-46238638D01*
X119339076Y-46289136D01*
X119489294Y-46370358D01*
X119620874Y-46479211D01*
X119728806Y-46611548D01*
X119808978Y-46762329D01*
X119858336Y-46925811D01*
X119875000Y-47095766D01*
X119875000Y-47101269D01*
X119875167Y-47102972D01*
X119875003Y-47103971D01*
X119874952Y-47111379D01*
X119874950Y-47111395D01*
X119874915Y-47116451D01*
X119855879Y-47286157D01*
X119804243Y-47448933D01*
X119721974Y-47598580D01*
X119612205Y-47729398D01*
X119479118Y-47836403D01*
X119327781Y-47915520D01*
X119163959Y-47963735D01*
X119163875Y-47963743D01*
X119163850Y-47963750D01*
X118993892Y-47979218D01*
X118824179Y-47961380D01*
X118824154Y-47961372D01*
X118824057Y-47961362D01*
X118660924Y-47910864D01*
X118510706Y-47829642D01*
X118379126Y-47720789D01*
X118271194Y-47588452D01*
X118191022Y-47437671D01*
X118141664Y-47274189D01*
X118125000Y-47104234D01*
X118125000Y-47098730D01*
X118124856Y-47097262D01*
X118124997Y-47096029D01*
X118125048Y-47088621D01*
X118125050Y-47088605D01*
X118125085Y-47083549D01*
X118144121Y-46913843D01*
X118195757Y-46751067D01*
X118278026Y-46601420D01*
X118387795Y-46470602D01*
X118520882Y-46363597D01*
X118672219Y-46284480D01*
X118836041Y-46236265D01*
X118836125Y-46236257D01*
X118836150Y-46236250D01*
X119006108Y-46220782D01*
X119175821Y-46238620D01*
X119175821Y-46238620D01*
G37*
G36*
X142175821Y-46238620D02*
X142175846Y-46238628D01*
X142175943Y-46238638D01*
X142339076Y-46289136D01*
X142489294Y-46370358D01*
X142620874Y-46479211D01*
X142728806Y-46611548D01*
X142808978Y-46762329D01*
X142858336Y-46925811D01*
X142875000Y-47095766D01*
X142875000Y-47101269D01*
X142875144Y-47102738D01*
X142875003Y-47103971D01*
X142874952Y-47111379D01*
X142874950Y-47111395D01*
X142874915Y-47116451D01*
X142855879Y-47286157D01*
X142804243Y-47448933D01*
X142721974Y-47598580D01*
X142612205Y-47729398D01*
X142479118Y-47836403D01*
X142327781Y-47915520D01*
X142163959Y-47963735D01*
X142163875Y-47963743D01*
X142163850Y-47963750D01*
X141993892Y-47979218D01*
X141824179Y-47961380D01*
X141824154Y-47961372D01*
X141824057Y-47961362D01*
X141660924Y-47910864D01*
X141510706Y-47829642D01*
X141379126Y-47720789D01*
X141271194Y-47588452D01*
X141191022Y-47437671D01*
X141141664Y-47274189D01*
X141125000Y-47104234D01*
X141125000Y-47098730D01*
X141124856Y-47097262D01*
X141124997Y-47096029D01*
X141125048Y-47088621D01*
X141125050Y-47088605D01*
X141125085Y-47083549D01*
X141144121Y-46913843D01*
X141195757Y-46751067D01*
X141278026Y-46601420D01*
X141387795Y-46470602D01*
X141520882Y-46363597D01*
X141672219Y-46284480D01*
X141836041Y-46236265D01*
X141836125Y-46236257D01*
X141836150Y-46236250D01*
X142006108Y-46220782D01*
X142175821Y-46238620D01*
X142175821Y-46238620D01*
G37*
G36*
X144175821Y-46238620D02*
X144175846Y-46238628D01*
X144175943Y-46238638D01*
X144339076Y-46289136D01*
X144489294Y-46370358D01*
X144620874Y-46479211D01*
X144728806Y-46611548D01*
X144808978Y-46762329D01*
X144858336Y-46925811D01*
X144875000Y-47095766D01*
X144875000Y-47101269D01*
X144875144Y-47102738D01*
X144875003Y-47103971D01*
X144874952Y-47111379D01*
X144874950Y-47111395D01*
X144874915Y-47116451D01*
X144855879Y-47286157D01*
X144804243Y-47448933D01*
X144721974Y-47598580D01*
X144612205Y-47729398D01*
X144479118Y-47836403D01*
X144327781Y-47915520D01*
X144163959Y-47963735D01*
X144163875Y-47963743D01*
X144163850Y-47963750D01*
X143993892Y-47979218D01*
X143824179Y-47961380D01*
X143824154Y-47961372D01*
X143824057Y-47961362D01*
X143660924Y-47910864D01*
X143510706Y-47829642D01*
X143379126Y-47720789D01*
X143271194Y-47588452D01*
X143191022Y-47437671D01*
X143141664Y-47274189D01*
X143125000Y-47104234D01*
X143125000Y-47098730D01*
X143124856Y-47097262D01*
X143124997Y-47096029D01*
X143125048Y-47088621D01*
X143125050Y-47088605D01*
X143125085Y-47083549D01*
X143144121Y-46913843D01*
X143195757Y-46751067D01*
X143278026Y-46601420D01*
X143387795Y-46470602D01*
X143520882Y-46363597D01*
X143672219Y-46284480D01*
X143836041Y-46236265D01*
X143836125Y-46236257D01*
X143836150Y-46236250D01*
X144006108Y-46220782D01*
X144175821Y-46238620D01*
X144175821Y-46238620D01*
G37*
G36*
X146175821Y-46238620D02*
X146175846Y-46238628D01*
X146175943Y-46238638D01*
X146339076Y-46289136D01*
X146489294Y-46370358D01*
X146620874Y-46479211D01*
X146728806Y-46611548D01*
X146808978Y-46762329D01*
X146858336Y-46925811D01*
X146875000Y-47095766D01*
X146875000Y-47101269D01*
X146875144Y-47102738D01*
X146875003Y-47103971D01*
X146874952Y-47111379D01*
X146874950Y-47111395D01*
X146874915Y-47116451D01*
X146855879Y-47286157D01*
X146804243Y-47448933D01*
X146721974Y-47598580D01*
X146612205Y-47729398D01*
X146479118Y-47836403D01*
X146327781Y-47915520D01*
X146163959Y-47963735D01*
X146163875Y-47963743D01*
X146163850Y-47963750D01*
X145993892Y-47979218D01*
X145824179Y-47961380D01*
X145824154Y-47961372D01*
X145824057Y-47961362D01*
X145660924Y-47910864D01*
X145510706Y-47829642D01*
X145379126Y-47720789D01*
X145271194Y-47588452D01*
X145191022Y-47437671D01*
X145141664Y-47274189D01*
X145125000Y-47104234D01*
X145125000Y-47098730D01*
X145124856Y-47097262D01*
X145124997Y-47096029D01*
X145125048Y-47088621D01*
X145125050Y-47088605D01*
X145125085Y-47083549D01*
X145144121Y-46913843D01*
X145195757Y-46751067D01*
X145278026Y-46601420D01*
X145387795Y-46470602D01*
X145520882Y-46363597D01*
X145672219Y-46284480D01*
X145836041Y-46236265D01*
X145836125Y-46236257D01*
X145836150Y-46236250D01*
X146006108Y-46220782D01*
X146175821Y-46238620D01*
X146175821Y-46238620D01*
G37*
G36*
X148175821Y-46238620D02*
X148175846Y-46238628D01*
X148175943Y-46238638D01*
X148339076Y-46289136D01*
X148489294Y-46370358D01*
X148620874Y-46479211D01*
X148728806Y-46611548D01*
X148808978Y-46762329D01*
X148858336Y-46925811D01*
X148875000Y-47095766D01*
X148875000Y-47101269D01*
X148875167Y-47102972D01*
X148875003Y-47103971D01*
X148874952Y-47111379D01*
X148874950Y-47111395D01*
X148874915Y-47116451D01*
X148855879Y-47286157D01*
X148804243Y-47448933D01*
X148721974Y-47598580D01*
X148612205Y-47729398D01*
X148479118Y-47836403D01*
X148327781Y-47915520D01*
X148163959Y-47963735D01*
X148163875Y-47963743D01*
X148163850Y-47963750D01*
X147993892Y-47979218D01*
X147824179Y-47961380D01*
X147824154Y-47961372D01*
X147824057Y-47961362D01*
X147660924Y-47910864D01*
X147510706Y-47829642D01*
X147379126Y-47720789D01*
X147271194Y-47588452D01*
X147191022Y-47437671D01*
X147141664Y-47274189D01*
X147125000Y-47104234D01*
X147125000Y-47098730D01*
X147124856Y-47097262D01*
X147124997Y-47096029D01*
X147125048Y-47088621D01*
X147125050Y-47088605D01*
X147125085Y-47083549D01*
X147144121Y-46913843D01*
X147195757Y-46751067D01*
X147278026Y-46601420D01*
X147387795Y-46470602D01*
X147520882Y-46363597D01*
X147672219Y-46284480D01*
X147836041Y-46236265D01*
X147836125Y-46236257D01*
X147836150Y-46236250D01*
X148006108Y-46220782D01*
X148175821Y-46238620D01*
X148175821Y-46238620D01*
G37*
G36*
X150875000Y-47975000D02*
X149125000Y-47975000D01*
X149125000Y-47104839D01*
X149124398Y-47100601D01*
X149125000Y-47095161D01*
X149125000Y-46225000D01*
X150875000Y-46225000D01*
X150875000Y-47975000D01*
X150875000Y-47975000D01*
G37*
G36*
X121875000Y-47975000D02*
X120125000Y-47975000D01*
X120125000Y-47104839D01*
X120124398Y-47100601D01*
X120125000Y-47095161D01*
X120125000Y-46225000D01*
X121875000Y-46225000D01*
X121875000Y-47975000D01*
X121875000Y-47975000D01*
G37*
G36*
X117845000Y-41990000D02*
X117849949Y-42024824D01*
X117864404Y-42056891D01*
X117887220Y-42083661D01*
X117916590Y-42103015D01*
X117950190Y-42113420D01*
X117970000Y-42115000D01*
X118185000Y-42115000D01*
X118185000Y-44085000D01*
X117970000Y-44085000D01*
X117935176Y-44089949D01*
X117903109Y-44104404D01*
X117876339Y-44127220D01*
X117856985Y-44156590D01*
X117846580Y-44190190D01*
X117845000Y-44210000D01*
X117845000Y-45035000D01*
X114155000Y-45035000D01*
X114155000Y-44210000D01*
X114150051Y-44175176D01*
X114135596Y-44143109D01*
X114112780Y-44116339D01*
X114083410Y-44096985D01*
X114049810Y-44086580D01*
X114030000Y-44085000D01*
X113815000Y-44085000D01*
X113815000Y-42470000D01*
X114995000Y-42470000D01*
X114995000Y-43730000D01*
X114999949Y-43764824D01*
X115014404Y-43796891D01*
X115037220Y-43823661D01*
X115066590Y-43843015D01*
X115100190Y-43853420D01*
X115120000Y-43855000D01*
X116880000Y-43855000D01*
X116914824Y-43850051D01*
X116946891Y-43835596D01*
X116973661Y-43812780D01*
X116993015Y-43783410D01*
X117003420Y-43749810D01*
X117005000Y-43730000D01*
X117005000Y-42470000D01*
X117000051Y-42435176D01*
X116985596Y-42403109D01*
X116962780Y-42376339D01*
X116933410Y-42356985D01*
X116899810Y-42346580D01*
X116880000Y-42345000D01*
X115120000Y-42345000D01*
X115085176Y-42349949D01*
X115053109Y-42364404D01*
X115026339Y-42387220D01*
X115006985Y-42416590D01*
X114996580Y-42450190D01*
X114995000Y-42470000D01*
X113815000Y-42470000D01*
X113815000Y-42115000D01*
X114030000Y-42115000D01*
X114064824Y-42110051D01*
X114096891Y-42095596D01*
X114123661Y-42072780D01*
X114143015Y-42043410D01*
X114153420Y-42009810D01*
X114155000Y-41990000D01*
X114155000Y-41165000D01*
X117845000Y-41165000D01*
X117845000Y-41990000D01*
X117845000Y-41990000D01*
G37*
G36*
X146845000Y-41990000D02*
X146849949Y-42024824D01*
X146864404Y-42056891D01*
X146887220Y-42083661D01*
X146916590Y-42103015D01*
X146950190Y-42113420D01*
X146970000Y-42115000D01*
X147185000Y-42115000D01*
X147185000Y-44085000D01*
X146970000Y-44085000D01*
X146935176Y-44089949D01*
X146903109Y-44104404D01*
X146876339Y-44127220D01*
X146856985Y-44156590D01*
X146846580Y-44190190D01*
X146845000Y-44210000D01*
X146845000Y-45035000D01*
X143155000Y-45035000D01*
X143155000Y-44210000D01*
X143150051Y-44175176D01*
X143135596Y-44143109D01*
X143112780Y-44116339D01*
X143083410Y-44096985D01*
X143049810Y-44086580D01*
X143030000Y-44085000D01*
X142815000Y-44085000D01*
X142815000Y-42470000D01*
X143995000Y-42470000D01*
X143995000Y-43730000D01*
X143999949Y-43764824D01*
X144014404Y-43796891D01*
X144037220Y-43823661D01*
X144066590Y-43843015D01*
X144100190Y-43853420D01*
X144120000Y-43855000D01*
X145880000Y-43855000D01*
X145914824Y-43850051D01*
X145946891Y-43835596D01*
X145973661Y-43812780D01*
X145993015Y-43783410D01*
X146003420Y-43749810D01*
X146005000Y-43730000D01*
X146005000Y-42470000D01*
X146000051Y-42435176D01*
X145985596Y-42403109D01*
X145962780Y-42376339D01*
X145933410Y-42356985D01*
X145899810Y-42346580D01*
X145880000Y-42345000D01*
X144120000Y-42345000D01*
X144085176Y-42349949D01*
X144053109Y-42364404D01*
X144026339Y-42387220D01*
X144006985Y-42416590D01*
X143996580Y-42450190D01*
X143995000Y-42470000D01*
X142815000Y-42470000D01*
X142815000Y-42115000D01*
X143030000Y-42115000D01*
X143064824Y-42110051D01*
X143096891Y-42095596D01*
X143123661Y-42072780D01*
X143143015Y-42043410D01*
X143153420Y-42009810D01*
X143155000Y-41990000D01*
X143155000Y-41165000D01*
X146845000Y-41165000D01*
X146845000Y-41990000D01*
X146845000Y-41990000D01*
G37*
G36*
X140950000Y-41675000D02*
X140954949Y-41709824D01*
X140969404Y-41741891D01*
X140992220Y-41768661D01*
X141021590Y-41788015D01*
X141055190Y-41798420D01*
X141075000Y-41800000D01*
X141350000Y-41800000D01*
X141350000Y-44600000D01*
X139250000Y-44600000D01*
X139250000Y-40750000D01*
X140950000Y-40750000D01*
X140950000Y-41675000D01*
X140950000Y-41675000D01*
G37*
G36*
X111950000Y-41675000D02*
X111954949Y-41709824D01*
X111969404Y-41741891D01*
X111992220Y-41768661D01*
X112021590Y-41788015D01*
X112055190Y-41798420D01*
X112075000Y-41800000D01*
X112350000Y-41800000D01*
X112350000Y-44600000D01*
X110250000Y-44600000D01*
X110250000Y-40750000D01*
X111950000Y-40750000D01*
X111950000Y-41675000D01*
X111950000Y-41675000D01*
G37*
G36*
X121100000Y-44400000D02*
X119350000Y-44400000D01*
X119350000Y-42300000D01*
X121100000Y-42300000D01*
X121100000Y-44400000D01*
X121100000Y-44400000D01*
G37*
G36*
X150100000Y-44400000D02*
X148350000Y-44400000D01*
X148350000Y-42300000D01*
X150100000Y-42300000D01*
X150100000Y-44400000D01*
X150100000Y-44400000D01*
G37*
G36*
X150700000Y-41750000D02*
X149000000Y-41750000D01*
X149000000Y-40750000D01*
X150700000Y-40750000D01*
X150700000Y-41750000D01*
X150700000Y-41750000D01*
G37*
G36*
X121700000Y-41750000D02*
X120000000Y-41750000D01*
X120000000Y-40750000D01*
X121700000Y-40750000D01*
X121700000Y-41750000D01*
X121700000Y-41750000D01*
G37*
G36*
X118021009Y-38266348D02*
X118021029Y-38266354D01*
X118021132Y-38266365D01*
X118216891Y-38326963D01*
X118397153Y-38424430D01*
X118555049Y-38555053D01*
X118684567Y-38713858D01*
X118780773Y-38894795D01*
X118840003Y-39090973D01*
X118860000Y-39294919D01*
X118860000Y-39305237D01*
X118859934Y-39314666D01*
X118859933Y-39314673D01*
X118859898Y-39319741D01*
X118837055Y-39523388D01*
X118775092Y-39718720D01*
X118676369Y-39898296D01*
X118544647Y-40055277D01*
X118384941Y-40183684D01*
X118203337Y-40278624D01*
X118006750Y-40336483D01*
X118006666Y-40336491D01*
X118006641Y-40336498D01*
X117802670Y-40355060D01*
X117598991Y-40333652D01*
X117598971Y-40333646D01*
X117598868Y-40333635D01*
X117403109Y-40273037D01*
X117222847Y-40175570D01*
X117064951Y-40044947D01*
X116935433Y-39886142D01*
X116839227Y-39705205D01*
X116779997Y-39509027D01*
X116760000Y-39305081D01*
X116760000Y-39294763D01*
X116760066Y-39285334D01*
X116760067Y-39285327D01*
X116760102Y-39280259D01*
X116782945Y-39076612D01*
X116844908Y-38881280D01*
X116943631Y-38701704D01*
X117075353Y-38544723D01*
X117235059Y-38416316D01*
X117416663Y-38321376D01*
X117613250Y-38263517D01*
X117613334Y-38263509D01*
X117613359Y-38263502D01*
X117817330Y-38244940D01*
X118021009Y-38266348D01*
X118021009Y-38266348D01*
G37*
G36*
X147021009Y-38266348D02*
X147021029Y-38266354D01*
X147021132Y-38266365D01*
X147216891Y-38326963D01*
X147397153Y-38424430D01*
X147555049Y-38555053D01*
X147684567Y-38713858D01*
X147780773Y-38894795D01*
X147840003Y-39090973D01*
X147860000Y-39294919D01*
X147860000Y-39305237D01*
X147859934Y-39314666D01*
X147859933Y-39314673D01*
X147859898Y-39319741D01*
X147837055Y-39523388D01*
X147775092Y-39718720D01*
X147676369Y-39898296D01*
X147544647Y-40055277D01*
X147384941Y-40183684D01*
X147203337Y-40278624D01*
X147006750Y-40336483D01*
X147006666Y-40336491D01*
X147006641Y-40336498D01*
X146802670Y-40355060D01*
X146598991Y-40333652D01*
X146598971Y-40333646D01*
X146598868Y-40333635D01*
X146403109Y-40273037D01*
X146222847Y-40175570D01*
X146064951Y-40044947D01*
X145935433Y-39886142D01*
X145839227Y-39705205D01*
X145779997Y-39509027D01*
X145760000Y-39305081D01*
X145760000Y-39294763D01*
X145760066Y-39285334D01*
X145760067Y-39285327D01*
X145760102Y-39280259D01*
X145782945Y-39076612D01*
X145844908Y-38881280D01*
X145943631Y-38701704D01*
X146075353Y-38544723D01*
X146235059Y-38416316D01*
X146416663Y-38321376D01*
X146613250Y-38263517D01*
X146613334Y-38263509D01*
X146613359Y-38263502D01*
X146817330Y-38244940D01*
X147021009Y-38266348D01*
X147021009Y-38266348D01*
G37*
G36*
X143401009Y-38266348D02*
X143401029Y-38266354D01*
X143401132Y-38266365D01*
X143596891Y-38326963D01*
X143777153Y-38424430D01*
X143935049Y-38555053D01*
X144064567Y-38713858D01*
X144160773Y-38894795D01*
X144220003Y-39090973D01*
X144240000Y-39294919D01*
X144240000Y-39305237D01*
X144239934Y-39314666D01*
X144239933Y-39314673D01*
X144239898Y-39319741D01*
X144217055Y-39523388D01*
X144155092Y-39718720D01*
X144056369Y-39898296D01*
X143924647Y-40055277D01*
X143764941Y-40183684D01*
X143583337Y-40278624D01*
X143386750Y-40336483D01*
X143386666Y-40336491D01*
X143386641Y-40336498D01*
X143182670Y-40355060D01*
X142978991Y-40333652D01*
X142978971Y-40333646D01*
X142978868Y-40333635D01*
X142783109Y-40273037D01*
X142602847Y-40175570D01*
X142444951Y-40044947D01*
X142315433Y-39886142D01*
X142219227Y-39705205D01*
X142159997Y-39509027D01*
X142140000Y-39305081D01*
X142140000Y-39294763D01*
X142140066Y-39285334D01*
X142140067Y-39285327D01*
X142140102Y-39280259D01*
X142162945Y-39076612D01*
X142224908Y-38881280D01*
X142323631Y-38701704D01*
X142455353Y-38544723D01*
X142615059Y-38416316D01*
X142796663Y-38321376D01*
X142993250Y-38263517D01*
X142993334Y-38263509D01*
X142993359Y-38263502D01*
X143197330Y-38244940D01*
X143401009Y-38266348D01*
X143401009Y-38266348D01*
G37*
G36*
X114401009Y-38266348D02*
X114401029Y-38266354D01*
X114401132Y-38266365D01*
X114596891Y-38326963D01*
X114777153Y-38424430D01*
X114935049Y-38555053D01*
X115064567Y-38713858D01*
X115160773Y-38894795D01*
X115220003Y-39090973D01*
X115240000Y-39294919D01*
X115240000Y-39305237D01*
X115239934Y-39314666D01*
X115239933Y-39314673D01*
X115239898Y-39319741D01*
X115217055Y-39523388D01*
X115155092Y-39718720D01*
X115056369Y-39898296D01*
X114924647Y-40055277D01*
X114764941Y-40183684D01*
X114583337Y-40278624D01*
X114386750Y-40336483D01*
X114386666Y-40336491D01*
X114386641Y-40336498D01*
X114182670Y-40355060D01*
X113978991Y-40333652D01*
X113978971Y-40333646D01*
X113978868Y-40333635D01*
X113783109Y-40273037D01*
X113602847Y-40175570D01*
X113444951Y-40044947D01*
X113315433Y-39886142D01*
X113219227Y-39705205D01*
X113159997Y-39509027D01*
X113140000Y-39305081D01*
X113140000Y-39294763D01*
X113140066Y-39285334D01*
X113140067Y-39285327D01*
X113140102Y-39280259D01*
X113162945Y-39076612D01*
X113224908Y-38881280D01*
X113323631Y-38701704D01*
X113455353Y-38544723D01*
X113615059Y-38416316D01*
X113796663Y-38321376D01*
X113993250Y-38263517D01*
X113993334Y-38263509D01*
X113993359Y-38263502D01*
X114197330Y-38244940D01*
X114401009Y-38266348D01*
X114401009Y-38266348D01*
G37*
G36*
X141700000Y-40350000D02*
X139600000Y-40350000D01*
X139600000Y-38250000D01*
X141700000Y-38250000D01*
X141700000Y-40350000D01*
X141700000Y-40350000D01*
G37*
G36*
X112700000Y-40350000D02*
X110600000Y-40350000D01*
X110600000Y-38250000D01*
X112700000Y-38250000D01*
X112700000Y-40350000D01*
X112700000Y-40350000D01*
G37*
G36*
X150400000Y-40350000D02*
X148300000Y-40350000D01*
X148300000Y-38250000D01*
X150400000Y-38250000D01*
X150400000Y-40350000D01*
X150400000Y-40350000D01*
G37*
G36*
X121400000Y-40350000D02*
X119300000Y-40350000D01*
X119300000Y-38250000D01*
X121400000Y-38250000D01*
X121400000Y-40350000D01*
X121400000Y-40350000D01*
G37*
M02*
