M48
;DRILL file {KiCad 4.0.7} date 06/15/19 20:20:34
;FORMAT={-:-/ absolute / inch / decimal}
FMAT,2
INCH,TZ
T1C0.008
T2C0.010
T3C0.012
T4C0.022
T5C0.031
T6C0.033
T7C0.039
T8C0.043
T9C0.031
T10C0.035
%
G90
G05
M72
T1
X4.1752Y-2.9636
X4.1821Y-2.8091
X4.2028Y-2.6909
X4.2028Y-2.8219
X4.2407Y-2.3024
X4.2415Y-2.4445
X4.2526Y-2.148
X4.2677Y-2.5443
X4.2809Y-2.4988
X4.2943Y-2.2766
X4.2982Y-2.2461
X4.3346Y-2.3465
X4.3356Y-2.5679
X4.3533Y-2.9587
X4.375Y-2.4498
X4.3884Y-2.3732
X4.3976Y-2.3996
X4.4035Y-2.4232
X4.4114Y-2.1063
X4.425Y-2.3752
X4.4331Y-1.7008
X4.437Y-2.1043
X4.438Y-2.5689
X4.4409Y-1.626
X4.4409Y-2.5118
X4.4439Y-2.7559
X4.4449Y-2.4488
X4.4488Y-2.2165
X4.4488Y-2.378
X4.4528Y-2.0669
X4.4843Y-2.0984
X4.4902Y-1.7776
X4.5Y-2.5118
X4.5079Y-2.378
X4.5256Y-1.8012
X4.5276Y-2.3425
X4.5364Y-1.6969
X4.5413Y-2.1043
X4.5472Y-2.5876
X4.5492Y-1.7854
X4.5522Y-2.1486
X4.5906Y-2.1772
X4.5965Y-2.2362
X4.6033Y-2.0752
X4.6083Y-2.1929
X4.6112Y-2.2165
X4.6407Y-2.7421
X4.6535Y-1.7667
X4.6575Y-2.3307
X4.6585Y-1.689
X4.6585Y-2.1181
X4.6732Y-1.624
X4.6742Y-2.8396
X4.6778Y-2.9161
X4.6811Y-1.7224
X4.7047Y-2.3268
X4.7087Y-2.5866
X4.7234Y-2.197
X4.7244Y-2.8297
X4.7333Y-1.6614
X4.7474Y-2.0756
X4.7667Y-2.6309
X4.7756Y-2.8278
X4.7904Y-2.6703
X4.8091Y-2.7421
X4.8494Y-2.7077
X4.9104Y-2.5059
X4.9104Y-2.5541
X5.3169Y-2.9636
X5.3238Y-2.8091
X5.3445Y-2.6909
X5.3445Y-2.8219
X5.3825Y-2.3024
X5.3833Y-2.4445
X5.3943Y-2.148
X5.4094Y-2.5443
X5.4226Y-2.4988
X5.436Y-2.2766
X5.44Y-2.2461
X5.4764Y-2.3465
X5.4774Y-2.5679
X5.4951Y-2.9587
X5.5167Y-2.4498
X5.5301Y-2.3732
X5.5394Y-2.3996
X5.5453Y-2.4232
X5.5531Y-2.1063
X5.5667Y-2.3752
X5.5748Y-1.7008
X5.5787Y-2.1043
X5.5797Y-2.5689
X5.5827Y-1.626
X5.5827Y-2.5118
X5.5856Y-2.7559
X5.5866Y-2.4488
X5.5906Y-2.2165
X5.5906Y-2.378
X5.5945Y-2.0669
X5.626Y-2.0984
X5.6319Y-1.7776
X5.6417Y-2.5118
X5.6496Y-2.378
X5.6673Y-1.8012
X5.6693Y-2.3425
X5.6781Y-1.6969
X5.6831Y-2.1043
X5.689Y-2.5876
X5.6909Y-1.7854
X5.6939Y-2.1486
X5.7323Y-2.1772
X5.7382Y-2.2362
X5.7451Y-2.0752
X5.75Y-2.1929
X5.753Y-2.2165
X5.7825Y-2.7421
X5.7953Y-1.7667
X5.7992Y-2.3307
X5.8002Y-1.689
X5.8002Y-2.1181
X5.815Y-1.624
X5.8159Y-2.8396
X5.8228Y-1.7224
X5.8465Y-2.3268
X5.8504Y-2.5866
X5.8652Y-2.197
X5.8661Y-2.8297
X5.875Y-1.6614
X5.8892Y-2.0756
X5.9085Y-2.6309
X5.9173Y-2.8278
X5.9321Y-2.6703
X5.9508Y-2.7421
X5.9911Y-2.7077
X6.0522Y-2.5059
X6.0522Y-2.5541
T2
X4.4459Y-2.5433
X4.4498Y-2.8858
X4.4813Y-2.9173
X4.497Y-2.4803
X4.497Y-2.6024
X4.497Y-2.6378
X4.497Y-2.6732
X4.497Y-2.7992
X4.497Y-2.8425
X4.5128Y-2.878
X4.5128Y-2.9488
X4.5207Y-3.0118
X4.5207Y-3.0748
X4.5443Y-2.9094
X4.5443Y-2.9803
X4.5443Y-3.0433
X4.5443Y-3.1063
X4.5679Y-3.0118
X4.5679Y-3.0748
X4.5758Y-2.9409
X4.5915Y-3.0433
X4.5915Y-3.1063
X4.6073Y-2.9094
X4.6073Y-2.9724
X4.6152Y-3.0748
X4.6388Y-3.0433
X4.6388Y-3.1063
X4.6624Y-3.0748
X4.686Y-2.9724
X4.686Y-3.0433
X4.686Y-3.1063
X4.8081Y-2.8701
X4.8907Y-2.8701
X4.9222Y-2.8622
X4.9616Y-2.8622
X5.001Y-2.8622
X5.5876Y-2.5433
X5.6388Y-2.4803
X5.6388Y-2.6024
X5.6388Y-2.6378
X5.6388Y-2.6732
X5.9498Y-2.8701
X6.0325Y-2.8701
X6.064Y-2.8622
X6.1033Y-2.8622
X6.1427Y-2.8622
T3
X5.7008Y-2.9094
T5
X4.2904Y-2.0207
X4.2904Y-2.0994
X4.3701Y-1.8543
X4.3701Y-2.0197
X4.3868Y-2.625
X4.3868Y-2.7037
X4.4488Y-1.8543
X4.4488Y-2.0197
X4.5276Y-1.8543
X4.5276Y-2.0197
X4.6063Y-1.8543
X4.6063Y-2.0197
X4.685Y-1.8543
X4.685Y-2.0197
X4.7638Y-1.8543
X4.7638Y-2.0197
X5.4321Y-2.0207
X5.4321Y-2.0994
X5.5118Y-1.8543
X5.5118Y-2.0197
X5.5285Y-2.625
X5.5285Y-2.7037
X5.5906Y-1.8543
X5.5906Y-2.0197
X5.6693Y-1.8543
X5.6693Y-2.0197
X5.748Y-1.8543
X5.748Y-2.0197
X5.8268Y-1.8543
X5.8268Y-2.0197
X5.9055Y-1.8543
X5.9055Y-2.0197
T7
X4.1004Y-2.0571
X4.1004Y-2.1988
X4.1004Y-2.3406
X4.1004Y-2.4823
X4.2004Y-2.0571
X4.2004Y-2.1988
X4.2004Y-2.3406
X4.2004Y-2.4823
X4.3957Y-1.5472
X4.4547Y-2.9728
X4.4547Y-3.0728
X4.4957Y-1.5472
X4.6382Y-1.5472
X4.7382Y-1.5472
X4.9705Y-2.0315
X4.9705Y-2.1315
X4.9705Y-2.2315
X4.9705Y-2.3315
X4.9705Y-2.4315
X4.9705Y-2.5315
X4.9705Y-2.6736
X4.9705Y-2.7736
X5.2421Y-2.0571
X5.2421Y-2.1988
X5.2421Y-2.3406
X5.2421Y-2.4823
X5.3421Y-2.0571
X5.3421Y-2.1988
X5.3421Y-2.3406
X5.3421Y-2.4823
X5.5374Y-1.5472
X5.5965Y-2.9728
X5.5965Y-3.0728
X5.6374Y-1.5472
X5.7799Y-1.5472
X5.8799Y-1.5472
X6.1122Y-2.0315
X6.1122Y-2.1315
X6.1122Y-2.2315
X6.1122Y-2.3315
X6.1122Y-2.4315
X6.1122Y-2.5315
X6.1122Y-2.6736
X6.1122Y-2.7736
T8
X4.5906Y-2.3524
X4.5906Y-2.5295
X4.5906Y-2.6496
X4.5906Y-2.8268
X4.8465Y-2.3524
X4.8465Y-2.5295
X4.8465Y-2.6496
X4.8465Y-2.8268
X5.7323Y-2.3524
X5.7323Y-2.5295
X5.7323Y-2.6496
X5.7323Y-2.8268
X5.9882Y-2.3524
X5.9882Y-2.5295
X5.9882Y-2.6496
X5.9882Y-2.8268
T9
X4.2283Y-2.6516
X4.2283Y-2.8484
X5.3701Y-2.6516
X5.3701Y-2.8484
T10
X4.1693Y-3.0543
X4.2874Y-3.0543
X5.311Y-3.0543
X5.4291Y-3.0543
T4
X4.1329Y-2.5974G85X4.1073Y-2.5974
G05
X4.1329Y-2.9026G85X4.1073Y-2.9026
G05
X5.2746Y-2.5974G85X5.249Y-2.5974
G05
X5.2746Y-2.9026G85X5.249Y-2.9026
G05
T6
X4.2805Y-2.6033G85X4.2589Y-2.6033
G05
X4.2805Y-2.8967G85X4.2589Y-2.8967
G05
X5.4222Y-2.6033G85X5.4006Y-2.6033
G05
X5.4222Y-2.8967G85X5.4006Y-2.8967
G05
T0
M30
