%TF.GenerationSoftware,KiCad,Pcbnew,4.0.7*%
%TF.CreationDate,2019-06-15T20:20:24-05:00*%
%TF.ProjectId,GolfGloveMainBoardV1.0.0,476F6C66476C6F76654D61696E426F61,rev?*%
%TF.FileFunction,Paste,Bot*%
%FSLAX46Y46*%
G04 Gerber Fmt 4.6, Leading zero omitted, Abs format (unit mm)*
G04 Created by KiCad (PCBNEW 4.0.7) date 06/15/19 20:20:24*
%MOMM*%
%LPD*%
G01*
G04 APERTURE LIST*
%ADD10C,0.100000*%
%ADD11C,0.150000*%
%ADD12R,0.800000X0.900000*%
%ADD13R,1.800000X1.000000*%
%ADD14R,0.304800X0.812800*%
%ADD15R,2.387600X1.651000*%
%ADD16R,0.558800X1.270000*%
%ADD17R,0.600000X0.400000*%
%ADD18R,0.900000X0.500000*%
%ADD19R,1.200000X0.900000*%
%ADD20R,0.500000X0.600000*%
%ADD21R,0.600000X0.500000*%
G04 APERTURE END LIST*
D10*
D11*
X156650000Y-73250000D02*
X156650000Y-50250000D01*
X159250000Y-79300000D02*
X156650000Y-79300000D01*
X159250000Y-73250000D02*
X159250000Y-79300000D01*
X156650000Y-73250000D02*
X159250000Y-73250000D01*
X131900000Y-76625000D02*
X131900000Y-75525000D01*
X127650000Y-76625000D02*
X131900000Y-76625000D01*
X127650000Y-52875000D02*
X127650000Y-76625000D01*
X131900000Y-75525000D02*
X131900000Y-52875000D01*
X127650000Y-52875000D02*
X131900000Y-52875000D01*
X131900000Y-50250000D02*
X127650000Y-50250000D01*
X156650000Y-79300000D02*
X102900000Y-79300000D01*
X139000000Y-48100000D02*
X139000000Y-37900000D01*
X139000000Y-37900000D02*
X151000000Y-37900000D01*
X151000000Y-37900000D02*
X151000000Y-48100000D01*
X131900000Y-50250000D02*
X139000000Y-50250000D01*
X139000000Y-50250000D02*
X139000000Y-48100000D01*
X151000000Y-48100000D02*
X151000000Y-50250000D01*
X151000000Y-50250000D02*
X156650000Y-50250000D01*
X142000000Y-48100000D02*
X142000000Y-50275000D01*
X148000000Y-48100000D02*
X148000000Y-50250000D01*
X148000000Y-50275000D02*
X142000000Y-50275000D01*
X142000000Y-48100000D02*
X148000000Y-48100000D01*
X113000000Y-48100000D02*
X119000000Y-48100000D01*
X119000000Y-50275000D02*
X113000000Y-50275000D01*
X119000000Y-48100000D02*
X119000000Y-50250000D01*
X113000000Y-48100000D02*
X113000000Y-50275000D01*
X122000000Y-50250000D02*
X127650000Y-50250000D01*
X122000000Y-48100000D02*
X122000000Y-50250000D01*
X110000000Y-50250000D02*
X110000000Y-48100000D01*
X102900000Y-50250000D02*
X110000000Y-50250000D01*
X102900000Y-50250000D02*
X102900000Y-50350000D01*
X102900000Y-50350000D02*
X102900000Y-79300000D01*
X122000000Y-37900000D02*
X122000000Y-48100000D01*
X110000000Y-37900000D02*
X122000000Y-37900000D01*
X110000000Y-48100000D02*
X110000000Y-37900000D01*
D12*
X149400000Y-61350000D03*
X149400000Y-62750000D03*
X148300000Y-62750000D03*
X148300000Y-61350000D03*
D13*
X152325000Y-51850000D03*
X152325000Y-54350000D03*
D14*
X149490600Y-71023200D03*
X149008000Y-71023200D03*
X148500000Y-71023200D03*
X147992000Y-71023200D03*
X147509400Y-71023200D03*
X147509400Y-68076800D03*
X147992000Y-68076800D03*
X148500000Y-68076800D03*
X149008000Y-68076800D03*
X149490600Y-68076800D03*
D15*
X148500000Y-69550000D03*
D16*
X132710200Y-68829600D03*
X133650000Y-68829600D03*
X134589800Y-68829600D03*
X134589800Y-71420400D03*
X132710200Y-71420400D03*
D17*
X146225000Y-70000000D03*
X146225000Y-69100000D03*
X141900000Y-61750000D03*
X141900000Y-60850000D03*
X150650000Y-53750000D03*
X150650000Y-54650000D03*
X135425000Y-65875000D03*
X135425000Y-66775000D03*
X135500000Y-73175000D03*
X135500000Y-74075000D03*
D18*
X151075000Y-68850000D03*
X151075000Y-70350000D03*
D17*
X139925000Y-60825000D03*
X139925000Y-61725000D03*
D19*
X147525000Y-65725000D03*
X149725000Y-65725000D03*
D20*
X152950000Y-68875000D03*
X152950000Y-69975000D03*
D21*
X150300000Y-72900000D03*
X149200000Y-72900000D03*
X148375000Y-66975000D03*
X149475000Y-66975000D03*
X147200000Y-72900000D03*
X148300000Y-72900000D03*
D20*
X143500000Y-62050000D03*
X143500000Y-60950000D03*
X143800000Y-57150000D03*
X143800000Y-58250000D03*
X142900000Y-57150000D03*
X142900000Y-58250000D03*
X141100000Y-57150000D03*
X141100000Y-58250000D03*
X140200000Y-57150000D03*
X140200000Y-58250000D03*
X139300000Y-58250000D03*
X139300000Y-57150000D03*
X142000000Y-57150000D03*
X142000000Y-58250000D03*
X146950000Y-62600000D03*
X146950000Y-61500000D03*
X150750000Y-61500000D03*
X150750000Y-62600000D03*
X139300000Y-54950000D03*
X139300000Y-56050000D03*
X141100000Y-56050000D03*
X141100000Y-54950000D03*
X140200000Y-56050000D03*
X140200000Y-54950000D03*
D21*
X148600000Y-54650000D03*
X149700000Y-54650000D03*
X149700000Y-53750000D03*
X148600000Y-53750000D03*
D20*
X136125000Y-69975000D03*
X136125000Y-71075000D03*
D21*
X134750000Y-67575000D03*
X133650000Y-67575000D03*
X105750000Y-67575000D03*
X104650000Y-67575000D03*
D20*
X107125000Y-69975000D03*
X107125000Y-71075000D03*
D21*
X120700000Y-53750000D03*
X119600000Y-53750000D03*
X119600000Y-54650000D03*
X120700000Y-54650000D03*
D20*
X111200000Y-56050000D03*
X111200000Y-54950000D03*
X112100000Y-56050000D03*
X112100000Y-54950000D03*
X110300000Y-54950000D03*
X110300000Y-56050000D03*
X121750000Y-61500000D03*
X121750000Y-62600000D03*
X117950000Y-62600000D03*
X117950000Y-61500000D03*
X113000000Y-57150000D03*
X113000000Y-58250000D03*
X110300000Y-58250000D03*
X110300000Y-57150000D03*
X111200000Y-57150000D03*
X111200000Y-58250000D03*
X112100000Y-57150000D03*
X112100000Y-58250000D03*
X113900000Y-57150000D03*
X113900000Y-58250000D03*
X114800000Y-57150000D03*
X114800000Y-58250000D03*
X114500000Y-62050000D03*
X114500000Y-60950000D03*
D21*
X118200000Y-72900000D03*
X119300000Y-72900000D03*
X119375000Y-66975000D03*
X120475000Y-66975000D03*
X121300000Y-72900000D03*
X120200000Y-72900000D03*
D20*
X123950000Y-68875000D03*
X123950000Y-69975000D03*
D19*
X118525000Y-65725000D03*
X120725000Y-65725000D03*
D17*
X110925000Y-60825000D03*
X110925000Y-61725000D03*
D18*
X122075000Y-68850000D03*
X122075000Y-70350000D03*
D17*
X106500000Y-73175000D03*
X106500000Y-74075000D03*
X106425000Y-65875000D03*
X106425000Y-66775000D03*
X121650000Y-53750000D03*
X121650000Y-54650000D03*
X112900000Y-61750000D03*
X112900000Y-60850000D03*
X117225000Y-70000000D03*
X117225000Y-69100000D03*
D16*
X103710200Y-68829600D03*
X104650000Y-68829600D03*
X105589800Y-68829600D03*
X105589800Y-71420400D03*
X103710200Y-71420400D03*
D14*
X120490600Y-71023200D03*
X120008000Y-71023200D03*
X119500000Y-71023200D03*
X118992000Y-71023200D03*
X118509400Y-71023200D03*
X118509400Y-68076800D03*
X118992000Y-68076800D03*
X119500000Y-68076800D03*
X120008000Y-68076800D03*
X120490600Y-68076800D03*
D15*
X119500000Y-69550000D03*
D13*
X123325000Y-51850000D03*
X123325000Y-54350000D03*
D12*
X120400000Y-61350000D03*
X120400000Y-62750000D03*
X119300000Y-62750000D03*
X119300000Y-61350000D03*
M02*
