M48
;DRILL file {KiCad 4.0.7} date 02/19/19 19:07:15
;FORMAT={-:-/ absolute / inch / decimal}
FMAT,2
INCH,TZ
T1C0.012
T2C0.016
T3C0.020
T4C0.039
T5C0.026
T6C0.035
%
G90
G05
M72
T1
X4.2126Y-6.3386
X4.8425Y-4.9803
X4.8701Y-6.2461
X4.878Y-6.3071
X4.8819Y-6.3524
X4.8957Y-6.2717
X4.9114Y-6.3287
X4.9213Y-6.2972
X4.9311Y-6.2106
X4.939Y-6.3563
X4.9469Y-6.3228
X4.9567Y-6.2362
X4.9764Y-6.3465
X4.9843Y-6.2598
X5.0059Y-6.2835
X5.0157Y-6.3504
X5.0413Y-6.2835
X5.0512Y-6.3504
X5.0768Y-6.2835
X5.0886Y-6.3504
X5.1122Y-6.2835
X5.1181Y-6.2008
X5.1181Y-6.2402
X5.126Y-6.3504
X5.1575Y-6.1811
X5.1575Y-6.2205
X5.1634Y-6.3504
X5.1969Y-6.2008
X5.1969Y-6.2402
X5.1969Y-6.2795
X5.2028Y-6.3583
X5.2165Y-6.1634
X5.2362Y-6.2008
X5.2362Y-6.2402
X5.2362Y-6.2795
X5.2382Y-6.3602
X5.2559Y-6.1614
X5.2953Y-6.1614
X5.315Y-6.122
X5.3346Y-6.1614
X5.3543Y-5.6693
X5.3543Y-6.122
X5.374Y-6.1614
X5.3937Y-6.122
X5.4134Y-6.1614
X5.4331Y-6.122
X5.4528Y-6.0827
X5.4528Y-6.1614
X5.4724Y-6.122
X5.4921Y-6.0827
X5.4921Y-6.1614
X5.5118Y-6.122
X5.5315Y-6.0827
X5.5315Y-6.1614
X5.5512Y-6.122
X5.5709Y-6.0827
X5.5709Y-6.1614
X5.5906Y-6.122
T2
X4.1098Y-5.5543
X4.2079Y-5.1315
X4.2654Y-5.7307
X4.2937Y-5.3157
X4.2937Y-5.6122
X4.3016Y-5.6965
X4.3055Y-5.5665
X4.326Y-5.7988
X4.3406Y-5.9472
X4.3606Y-6.1713
X4.3787Y-5.7201
X4.3909Y-6.098
X4.435Y-5.6114
X4.4516Y-5.4488
X4.4768Y-5.3693
X4.4829Y-6.0185
X4.4839Y-5.1157
X4.4839Y-5.9102
X4.4969Y-6.1189
X4.5059Y-5.8508
X4.5343Y-5.8165
X4.5461Y-5.9008
X4.5803Y-5.8933
X4.5937Y-5.576
X4.6154Y-6.0909
X4.6378Y-5.3945
X4.6465Y-6.1764
X4.6476Y-5.5972
X4.6476Y-6.1339
X4.6516Y-5.9823
X4.663Y-5.9031
X4.665Y-6.0201
X4.6719Y-4.3211
X4.6724Y-5.6941
X4.6752Y-5.637
X4.6772Y-5.3795
X4.6811Y-6.0465
X4.689Y-5.7417
X4.6984Y-6.3528
X4.7091Y-5.5394
X4.7191Y-4.549
X4.7195Y-5.2504
X4.7274Y-6.1831
X4.7315Y-5.4508
X4.7348Y-4.5766
X4.7352Y-5.2228
X4.7358Y-5.7429
X4.7388Y-4.3604
X4.7409Y-5.3488
X4.7506Y-4.3014
X4.7508Y-5.1996
X4.7508Y-5.2677
X4.7524Y-5.6594
X4.7539Y-6.2894
X4.7606Y-5.4185
X4.7663Y-4.5766
X4.7667Y-5.2228
X4.7764Y-5.6402
X4.7821Y-4.549
X4.7825Y-5.2504
X4.7902Y-5.7122
X4.7913Y-5.4008
X4.7978Y-4.5766
X4.7982Y-5.2228
X4.8002Y-6.1791
X4.8071Y-5.7756
X4.81Y-6.2559
X4.8136Y-4.549
X4.814Y-5.2504
X4.8293Y-4.325
X4.8378Y-5.7941
X4.8386Y-6.285
X4.8398Y-5.3327
X4.8429Y-5.8567
X4.8451Y-4.549
X4.8455Y-5.2504
X4.8608Y-4.4352
X4.8608Y-4.5766
X4.8612Y-5.2228
X4.863Y-5.3693
X4.872Y-5.8835
X4.8756Y-5.6118
X4.8766Y-4.549
X4.877Y-5.2504
X4.8923Y-4.5766
X4.8927Y-5.2228
X4.8988Y-5.4197
X4.9004Y-5.8126
X4.9041Y-4.4274
X4.9055Y-6.1368
X4.9081Y-4.5376
X4.9102Y-5.274
X4.912Y-4.4589
X4.9238Y-4.5766
X4.9242Y-5.2228
X4.935Y-5.5791
X4.9374Y-5.5315
X4.9396Y-4.549
X4.94Y-5.2504
X4.9567Y-6.1087
X4.9594Y-6.1594
X4.9616Y-6.1909
X4.9622Y-6.0783
X4.9815Y-5.9854
X5.0065Y-4.4746
X5.0197Y-5.9937
X5.0222Y-4.3998
X5.0224Y-6.052
X5.0291Y-5.0843
X5.0463Y-6.1713
X5.0465Y-5.6681
X5.1024Y-6.1437
X5.1211Y-6.1122
X5.1386Y-5.9453
X5.1516Y-5.915
X5.2453Y-5.7823
X5.2512Y-5.2697
X5.2598Y-6.1142
X5.2707Y-6.0423
X5.3504Y-5.9122
X5.387Y-5.2122
X5.4028Y-5.0906
X5.4087Y-5.8028
X5.4807Y-5.6913
T4
X4.1098Y-5.5543
X4.1098Y-5.6543
X4.1098Y-5.7543
X4.1098Y-5.8543
X4.1098Y-5.9543
X4.1098Y-6.0543
X4.1098Y-6.1543
X4.1098Y-6.2543
X4.1138Y-5.0327
X4.1138Y-5.1327
X4.2098Y-5.5543
X4.2098Y-5.6543
X4.2098Y-5.7543
X4.2098Y-5.8543
X4.2098Y-5.9543
X4.2098Y-6.0543
X4.2098Y-6.1543
X4.2098Y-6.2543
X4.289Y-5.0343
X4.289Y-5.1343
X4.5734Y-4.2801
X4.5734Y-4.3801
X5.0852Y-4.2801
X5.0852Y-4.3801
X5.1228Y-5.0272
X5.1228Y-5.1272
X5.2528Y-5.5343
X5.2701Y-5.028
X5.2701Y-5.128
X5.3528Y-5.5343
X5.4272Y-5.9406
X5.5354Y-5.989
X5.5386Y-5.0287
X5.5386Y-5.1287
X5.5567Y-5.3736
X5.5567Y-5.4736
X5.5567Y-5.5736
X5.5567Y-5.6736
X5.5567Y-5.7736
X5.5567Y-5.8736
T5
X4.6876Y-4.5234
X4.9715Y-5.276
T6
X4.4213Y-6.3319
X4.5394Y-6.3319
T3
X4.6526Y-4.7951G85X4.6526Y-4.8187
G05
X4.653Y-5.0043G85X4.653Y-4.9807
G05
X4.6667Y-4.5608G85X4.6667Y-4.5844
G05
X4.6671Y-5.2386G85X4.6671Y-5.215
G05
X4.9919Y-4.5608G85X4.9919Y-4.5844
G05
X4.9923Y-5.2386G85X4.9923Y-5.215
G05
X5.0061Y-4.7951G85X5.0061Y-4.8187
G05
X5.0065Y-5.0043G85X5.0065Y-4.9807
G05
T5
X4.6939Y-5.276G85X4.6821Y-5.276
G05
X4.9652Y-4.5234G85X4.977Y-4.5234
G05
T0
M30
