%TF.GenerationSoftware,KiCad,Pcbnew,4.0.7*%
%TF.CreationDate,2019-02-19T19:06:54-06:00*%
%TF.ProjectId,GolfGloveMainBoardV1.0.0,476F6C66476C6F76654D61696E426F61,rev?*%
%TF.FileFunction,Soldermask,Top*%
%FSLAX46Y46*%
G04 Gerber Fmt 4.6, Leading zero omitted, Abs format (unit mm)*
G04 Created by KiCad (PCBNEW 4.0.7) date 02/19/19 19:06:54*
%MOMM*%
%LPD*%
G01*
G04 APERTURE LIST*
%ADD10C,0.100000*%
%ADD11C,0.150000*%
G04 APERTURE END LIST*
D10*
D11*
X118120000Y-123130000D02*
X118120000Y-125640000D01*
X127220000Y-123130000D02*
X118120000Y-123130000D01*
X127220000Y-125640000D02*
X127220000Y-123130000D01*
X118130000Y-125640000D02*
X127220000Y-125640000D01*
X102580000Y-162200000D02*
X102570000Y-162200000D01*
X102580000Y-125640000D02*
X102580000Y-162200000D01*
X117250000Y-125640000D02*
X102580000Y-125640000D01*
X117250000Y-113080000D02*
X117250000Y-125640000D01*
X114340000Y-113080000D02*
X117250000Y-113080000D01*
X114340000Y-106880000D02*
X114340000Y-113080000D01*
X130990000Y-106880000D02*
X114340000Y-106880000D01*
X130990000Y-113080000D02*
X130990000Y-106880000D01*
X128090000Y-113080000D02*
X130990000Y-113080000D01*
X128090000Y-125650000D02*
X128090000Y-113080000D01*
X142570000Y-125650000D02*
X128090000Y-125650000D01*
X142570000Y-162200000D02*
X142570000Y-125650000D01*
X102580000Y-162200000D02*
X142570000Y-162200000D01*
D10*
G36*
X118150000Y-162530000D02*
X116750000Y-162530000D01*
X116750000Y-161330000D01*
X118150000Y-161330000D01*
X118150000Y-162530000D01*
X118150000Y-162530000D01*
G37*
G36*
X110850000Y-162530000D02*
X109450000Y-162530000D01*
X109450000Y-161330000D01*
X110850000Y-161330000D01*
X110850000Y-162530000D01*
X110850000Y-162530000D01*
G37*
G36*
X112100000Y-160055298D02*
X112104949Y-160090122D01*
X112119404Y-160122189D01*
X112142220Y-160148959D01*
X112171590Y-160168313D01*
X112205190Y-160178718D01*
X112228555Y-160178376D01*
X112228547Y-160179452D01*
X112368273Y-160180427D01*
X112493141Y-160206059D01*
X112610654Y-160255458D01*
X112716337Y-160326741D01*
X112806154Y-160417188D01*
X112876697Y-160523363D01*
X112925273Y-160641217D01*
X112949862Y-160765400D01*
X112949862Y-160765424D01*
X112950028Y-160766264D01*
X112947995Y-160911861D01*
X112947804Y-160912700D01*
X112947804Y-160912721D01*
X112919758Y-161036169D01*
X112867911Y-161152618D01*
X112794433Y-161256781D01*
X112702120Y-161344688D01*
X112594487Y-161412995D01*
X112475647Y-161459090D01*
X112350111Y-161481225D01*
X112222662Y-161478556D01*
X112098163Y-161451182D01*
X111981357Y-161400151D01*
X111876678Y-161327397D01*
X111788133Y-161235707D01*
X111719077Y-161128552D01*
X111672150Y-161010031D01*
X111649140Y-160884657D01*
X111650920Y-160757191D01*
X111677423Y-160632507D01*
X111727639Y-160515343D01*
X111799657Y-160410163D01*
X111890734Y-160320975D01*
X111999813Y-160249595D01*
X112026242Y-160226386D01*
X112045160Y-160196732D01*
X112055067Y-160162982D01*
X112055179Y-160127808D01*
X112045488Y-160093996D01*
X112026760Y-160064222D01*
X112000479Y-160040844D01*
X111968726Y-160025713D01*
X111931367Y-160020000D01*
X110975000Y-160020000D01*
X110940176Y-160024949D01*
X110908109Y-160039404D01*
X110881339Y-160062220D01*
X110861985Y-160091590D01*
X110851580Y-160125190D01*
X110850000Y-160145000D01*
X110850000Y-160320000D01*
X109450000Y-160320000D01*
X109450000Y-159120000D01*
X110875000Y-159120000D01*
X110909824Y-159115051D01*
X110941891Y-159100596D01*
X110968661Y-159077780D01*
X110988015Y-159048410D01*
X110998420Y-159014810D01*
X111000000Y-158995000D01*
X111000000Y-158120000D01*
X112100000Y-158120000D01*
X112100000Y-160055298D01*
X112100000Y-160055298D01*
G37*
G36*
X115100000Y-160055298D02*
X115104949Y-160090122D01*
X115119404Y-160122189D01*
X115142220Y-160148959D01*
X115171590Y-160168313D01*
X115205190Y-160178718D01*
X115228556Y-160178376D01*
X115228548Y-160179452D01*
X115374128Y-160180468D01*
X115408986Y-160175762D01*
X115441152Y-160161532D01*
X115468081Y-160138903D01*
X115487640Y-160109668D01*
X115498279Y-160076142D01*
X115500000Y-160055471D01*
X115500000Y-158120000D01*
X116600000Y-158120000D01*
X116600000Y-158995000D01*
X116604949Y-159029824D01*
X116619404Y-159061891D01*
X116642220Y-159088661D01*
X116671590Y-159108015D01*
X116705190Y-159118420D01*
X116725000Y-159120000D01*
X118150000Y-159120000D01*
X118150000Y-160320000D01*
X116750000Y-160320000D01*
X116750000Y-160145000D01*
X116745051Y-160110176D01*
X116730596Y-160078109D01*
X116707780Y-160051339D01*
X116678410Y-160031985D01*
X116644810Y-160021580D01*
X116625000Y-160020000D01*
X115670431Y-160020000D01*
X115635607Y-160024949D01*
X115603540Y-160039404D01*
X115576770Y-160062220D01*
X115557416Y-160091590D01*
X115547011Y-160125190D01*
X115546378Y-160160358D01*
X115555568Y-160194311D01*
X115573853Y-160224358D01*
X115600532Y-160248630D01*
X115716337Y-160326741D01*
X115806154Y-160417188D01*
X115876697Y-160523363D01*
X115925273Y-160641217D01*
X115949862Y-160765400D01*
X115949862Y-160765424D01*
X115950028Y-160766264D01*
X115947995Y-160911861D01*
X115947804Y-160912700D01*
X115947804Y-160912721D01*
X115919758Y-161036169D01*
X115867911Y-161152618D01*
X115794433Y-161256781D01*
X115702120Y-161344688D01*
X115594487Y-161412995D01*
X115475647Y-161459090D01*
X115350111Y-161481225D01*
X115222662Y-161478556D01*
X115098163Y-161451182D01*
X114981357Y-161400151D01*
X114876678Y-161327397D01*
X114788133Y-161235707D01*
X114719077Y-161128552D01*
X114672150Y-161010031D01*
X114649140Y-160884657D01*
X114650920Y-160757191D01*
X114677423Y-160632507D01*
X114727639Y-160515343D01*
X114799657Y-160410163D01*
X114890734Y-160320975D01*
X114999813Y-160249595D01*
X115026242Y-160226386D01*
X115045160Y-160196732D01*
X115055067Y-160162982D01*
X115055179Y-160127808D01*
X115045488Y-160093996D01*
X115026760Y-160064222D01*
X115000479Y-160040844D01*
X114968726Y-160025713D01*
X114931367Y-160020000D01*
X114000000Y-160020000D01*
X114000000Y-158120000D01*
X115100000Y-158120000D01*
X115100000Y-160055298D01*
X115100000Y-160055298D01*
G37*
G36*
X139537500Y-161012500D02*
X136337500Y-161012500D01*
X136337500Y-159912500D01*
X139537500Y-159912500D01*
X139537500Y-161012500D01*
X139537500Y-161012500D01*
G37*
G36*
X133650000Y-160950000D02*
X131950000Y-160950000D01*
X131950000Y-159950000D01*
X133650000Y-159950000D01*
X133650000Y-160950000D01*
X133650000Y-160950000D01*
G37*
G36*
X136037500Y-160812500D02*
X134637500Y-160812500D01*
X134637500Y-158412500D01*
X136037500Y-158412500D01*
X136037500Y-160812500D01*
X136037500Y-160812500D01*
G37*
G36*
X141237500Y-160812500D02*
X139837500Y-160812500D01*
X139837500Y-158412500D01*
X141237500Y-158412500D01*
X141237500Y-160812500D01*
X141237500Y-160812500D01*
G37*
G36*
X131450000Y-160650000D02*
X130450000Y-160650000D01*
X130450000Y-158950000D01*
X131450000Y-158950000D01*
X131450000Y-160650000D01*
X131450000Y-160650000D01*
G37*
G36*
X104404666Y-157810066D02*
X104404673Y-157810067D01*
X104409741Y-157810102D01*
X104613388Y-157832945D01*
X104808720Y-157894908D01*
X104988296Y-157993631D01*
X105145277Y-158125353D01*
X105273684Y-158285059D01*
X105368624Y-158466663D01*
X105426483Y-158663250D01*
X105426491Y-158663334D01*
X105426498Y-158663359D01*
X105445060Y-158867330D01*
X105423652Y-159071009D01*
X105423646Y-159071029D01*
X105423635Y-159071132D01*
X105363037Y-159266891D01*
X105265570Y-159447153D01*
X105134947Y-159605049D01*
X104976142Y-159734567D01*
X104795205Y-159830773D01*
X104599027Y-159890003D01*
X104395081Y-159910000D01*
X104384763Y-159910000D01*
X104375334Y-159909934D01*
X104375327Y-159909933D01*
X104370259Y-159909898D01*
X104166612Y-159887055D01*
X103971280Y-159825092D01*
X103791704Y-159726369D01*
X103634723Y-159594647D01*
X103506316Y-159434941D01*
X103411376Y-159253337D01*
X103353517Y-159056750D01*
X103353509Y-159056666D01*
X103353502Y-159056641D01*
X103334940Y-158852670D01*
X103356348Y-158648991D01*
X103356354Y-158648971D01*
X103356365Y-158648868D01*
X103416963Y-158453109D01*
X103514430Y-158272847D01*
X103645053Y-158114951D01*
X103803858Y-157985433D01*
X103984795Y-157889227D01*
X104180973Y-157829997D01*
X104384919Y-157810000D01*
X104395237Y-157810000D01*
X104404666Y-157810066D01*
X104404666Y-157810066D01*
G37*
G36*
X106944666Y-157810066D02*
X106944673Y-157810067D01*
X106949741Y-157810102D01*
X107153388Y-157832945D01*
X107348720Y-157894908D01*
X107528296Y-157993631D01*
X107685277Y-158125353D01*
X107813684Y-158285059D01*
X107908624Y-158466663D01*
X107966483Y-158663250D01*
X107966491Y-158663334D01*
X107966498Y-158663359D01*
X107985060Y-158867330D01*
X107963652Y-159071009D01*
X107963646Y-159071029D01*
X107963635Y-159071132D01*
X107903037Y-159266891D01*
X107805570Y-159447153D01*
X107674947Y-159605049D01*
X107516142Y-159734567D01*
X107335205Y-159830773D01*
X107139027Y-159890003D01*
X106935081Y-159910000D01*
X106924763Y-159910000D01*
X106915334Y-159909934D01*
X106915327Y-159909933D01*
X106910259Y-159909898D01*
X106706612Y-159887055D01*
X106511280Y-159825092D01*
X106331704Y-159726369D01*
X106174723Y-159594647D01*
X106046316Y-159434941D01*
X105951376Y-159253337D01*
X105893517Y-159056750D01*
X105893509Y-159056666D01*
X105893502Y-159056641D01*
X105874940Y-158852670D01*
X105896348Y-158648991D01*
X105896354Y-158648971D01*
X105896365Y-158648868D01*
X105956963Y-158453109D01*
X106054430Y-158272847D01*
X106185053Y-158114951D01*
X106343858Y-157985433D01*
X106524795Y-157889227D01*
X106720973Y-157829997D01*
X106924919Y-157810000D01*
X106935237Y-157810000D01*
X106944666Y-157810066D01*
X106944666Y-157810066D01*
G37*
G36*
X139537500Y-159312500D02*
X136337500Y-159312500D01*
X136337500Y-158212500D01*
X139537500Y-158212500D01*
X139537500Y-159312500D01*
X139537500Y-159312500D01*
G37*
G36*
X119285000Y-157815000D02*
X118385000Y-157815000D01*
X118385000Y-155715000D01*
X119285000Y-155715000D01*
X119285000Y-157815000D01*
X119285000Y-157815000D01*
G37*
G36*
X106944666Y-155270066D02*
X106944673Y-155270067D01*
X106949741Y-155270102D01*
X107153388Y-155292945D01*
X107348720Y-155354908D01*
X107528296Y-155453631D01*
X107685277Y-155585353D01*
X107813684Y-155745059D01*
X107908624Y-155926663D01*
X107966483Y-156123250D01*
X107966491Y-156123334D01*
X107966498Y-156123359D01*
X107985060Y-156327330D01*
X107963652Y-156531009D01*
X107963646Y-156531029D01*
X107963635Y-156531132D01*
X107903037Y-156726891D01*
X107805570Y-156907153D01*
X107674947Y-157065049D01*
X107516142Y-157194567D01*
X107335205Y-157290773D01*
X107139027Y-157350003D01*
X106935081Y-157370000D01*
X106924763Y-157370000D01*
X106915334Y-157369934D01*
X106915327Y-157369933D01*
X106910259Y-157369898D01*
X106706612Y-157347055D01*
X106511280Y-157285092D01*
X106331704Y-157186369D01*
X106174723Y-157054647D01*
X106046316Y-156894941D01*
X105951376Y-156713337D01*
X105893517Y-156516750D01*
X105893509Y-156516666D01*
X105893502Y-156516641D01*
X105874940Y-156312670D01*
X105896348Y-156108991D01*
X105896354Y-156108971D01*
X105896365Y-156108868D01*
X105956963Y-155913109D01*
X106054430Y-155732847D01*
X106185053Y-155574951D01*
X106343858Y-155445433D01*
X106524795Y-155349227D01*
X106720973Y-155289997D01*
X106924919Y-155270000D01*
X106935237Y-155270000D01*
X106944666Y-155270066D01*
X106944666Y-155270066D01*
G37*
G36*
X104404666Y-155270066D02*
X104404673Y-155270067D01*
X104409741Y-155270102D01*
X104613388Y-155292945D01*
X104808720Y-155354908D01*
X104988296Y-155453631D01*
X105145277Y-155585353D01*
X105273684Y-155745059D01*
X105368624Y-155926663D01*
X105426483Y-156123250D01*
X105426491Y-156123334D01*
X105426498Y-156123359D01*
X105445060Y-156327330D01*
X105423652Y-156531009D01*
X105423646Y-156531029D01*
X105423635Y-156531132D01*
X105363037Y-156726891D01*
X105265570Y-156907153D01*
X105134947Y-157065049D01*
X104976142Y-157194567D01*
X104795205Y-157290773D01*
X104599027Y-157350003D01*
X104395081Y-157370000D01*
X104384763Y-157370000D01*
X104375334Y-157369934D01*
X104375327Y-157369933D01*
X104370259Y-157369898D01*
X104166612Y-157347055D01*
X103971280Y-157285092D01*
X103791704Y-157186369D01*
X103634723Y-157054647D01*
X103506316Y-156894941D01*
X103411376Y-156713337D01*
X103353517Y-156516750D01*
X103353509Y-156516666D01*
X103353502Y-156516641D01*
X103334940Y-156312670D01*
X103356348Y-156108991D01*
X103356354Y-156108971D01*
X103356365Y-156108868D01*
X103416963Y-155913109D01*
X103514430Y-155732847D01*
X103645053Y-155574951D01*
X103803858Y-155445433D01*
X103984795Y-155349227D01*
X104180973Y-155289997D01*
X104384919Y-155270000D01*
X104395237Y-155270000D01*
X104404666Y-155270066D01*
X104404666Y-155270066D01*
G37*
G36*
X128800000Y-156350000D02*
X127900000Y-156350000D01*
X127900000Y-155050000D01*
X128800000Y-155050000D01*
X128800000Y-156350000D01*
X128800000Y-156350000D01*
G37*
G36*
X127300000Y-156350000D02*
X126400000Y-156350000D01*
X126400000Y-155050000D01*
X127300000Y-155050000D01*
X127300000Y-156350000D01*
X127300000Y-156350000D01*
G37*
G36*
X124460000Y-150990000D02*
X124464949Y-151024824D01*
X124479404Y-151056891D01*
X124502220Y-151083661D01*
X124531590Y-151103015D01*
X124565190Y-151113420D01*
X124585000Y-151115000D01*
X125410000Y-151115000D01*
X125410000Y-155335000D01*
X124585000Y-155335000D01*
X124550176Y-155339949D01*
X124518109Y-155354404D01*
X124491339Y-155377220D01*
X124471985Y-155406590D01*
X124461580Y-155440190D01*
X124460000Y-155460000D01*
X124460000Y-156285000D01*
X120240000Y-156285000D01*
X120240000Y-155460000D01*
X120235051Y-155425176D01*
X120220596Y-155393109D01*
X120197780Y-155366339D01*
X120168410Y-155346985D01*
X120134810Y-155336580D01*
X120115000Y-155335000D01*
X119290000Y-155335000D01*
X119290000Y-151115000D01*
X120115000Y-151115000D01*
X120149824Y-151110051D01*
X120181891Y-151095596D01*
X120208661Y-151072780D01*
X120228015Y-151043410D01*
X120238420Y-151009810D01*
X120240000Y-150990000D01*
X120240000Y-150165000D01*
X124460000Y-150165000D01*
X124460000Y-150990000D01*
X124460000Y-150990000D01*
G37*
G36*
X131575000Y-156200000D02*
X130675000Y-156200000D01*
X130675000Y-154900000D01*
X131575000Y-154900000D01*
X131575000Y-156200000D01*
X131575000Y-156200000D01*
G37*
G36*
X133075000Y-156200000D02*
X132175000Y-156200000D01*
X132175000Y-154900000D01*
X133075000Y-154900000D01*
X133075000Y-156200000D01*
X133075000Y-156200000D01*
G37*
G36*
X106944666Y-152730066D02*
X106944673Y-152730067D01*
X106949741Y-152730102D01*
X107153388Y-152752945D01*
X107348720Y-152814908D01*
X107528296Y-152913631D01*
X107685277Y-153045353D01*
X107813684Y-153205059D01*
X107908624Y-153386663D01*
X107966483Y-153583250D01*
X107966491Y-153583334D01*
X107966498Y-153583359D01*
X107985060Y-153787330D01*
X107963652Y-153991009D01*
X107963646Y-153991029D01*
X107963635Y-153991132D01*
X107903037Y-154186891D01*
X107805570Y-154367153D01*
X107674947Y-154525049D01*
X107516142Y-154654567D01*
X107335205Y-154750773D01*
X107139027Y-154810003D01*
X106935081Y-154830000D01*
X106924763Y-154830000D01*
X106915334Y-154829934D01*
X106915327Y-154829933D01*
X106910259Y-154829898D01*
X106706612Y-154807055D01*
X106511280Y-154745092D01*
X106331704Y-154646369D01*
X106174723Y-154514647D01*
X106046316Y-154354941D01*
X105951376Y-154173337D01*
X105893517Y-153976750D01*
X105893509Y-153976666D01*
X105893502Y-153976641D01*
X105874940Y-153772670D01*
X105896348Y-153568991D01*
X105896354Y-153568971D01*
X105896365Y-153568868D01*
X105956963Y-153373109D01*
X106054430Y-153192847D01*
X106185053Y-153034951D01*
X106343858Y-152905433D01*
X106524795Y-152809227D01*
X106720973Y-152749997D01*
X106924919Y-152730000D01*
X106935237Y-152730000D01*
X106944666Y-152730066D01*
X106944666Y-152730066D01*
G37*
G36*
X104404666Y-152730066D02*
X104404673Y-152730067D01*
X104409741Y-152730102D01*
X104613388Y-152752945D01*
X104808720Y-152814908D01*
X104988296Y-152913631D01*
X105145277Y-153045353D01*
X105273684Y-153205059D01*
X105368624Y-153386663D01*
X105426483Y-153583250D01*
X105426491Y-153583334D01*
X105426498Y-153583359D01*
X105445060Y-153787330D01*
X105423652Y-153991009D01*
X105423646Y-153991029D01*
X105423635Y-153991132D01*
X105363037Y-154186891D01*
X105265570Y-154367153D01*
X105134947Y-154525049D01*
X104976142Y-154654567D01*
X104795205Y-154750773D01*
X104599027Y-154810003D01*
X104395081Y-154830000D01*
X104384763Y-154830000D01*
X104375334Y-154829934D01*
X104375327Y-154829933D01*
X104370259Y-154829898D01*
X104166612Y-154807055D01*
X103971280Y-154745092D01*
X103791704Y-154646369D01*
X103634723Y-154514647D01*
X103506316Y-154354941D01*
X103411376Y-154173337D01*
X103353517Y-153976750D01*
X103353509Y-153976666D01*
X103353502Y-153976641D01*
X103334940Y-153772670D01*
X103356348Y-153568991D01*
X103356354Y-153568971D01*
X103356365Y-153568868D01*
X103416963Y-153373109D01*
X103514430Y-153192847D01*
X103645053Y-153034951D01*
X103803858Y-152905433D01*
X103984795Y-152809227D01*
X104180973Y-152749997D01*
X104384919Y-152730000D01*
X104395237Y-152730000D01*
X104404666Y-152730066D01*
X104404666Y-152730066D01*
G37*
G36*
X141650000Y-153170000D02*
X139550000Y-153170000D01*
X139550000Y-151070000D01*
X141650000Y-151070000D01*
X141650000Y-153170000D01*
X141650000Y-153170000D01*
G37*
G36*
X104404666Y-150190066D02*
X104404673Y-150190067D01*
X104409741Y-150190102D01*
X104613388Y-150212945D01*
X104808720Y-150274908D01*
X104988296Y-150373631D01*
X105145277Y-150505353D01*
X105273684Y-150665059D01*
X105368624Y-150846663D01*
X105426483Y-151043250D01*
X105426491Y-151043334D01*
X105426498Y-151043359D01*
X105445060Y-151247330D01*
X105423652Y-151451009D01*
X105423646Y-151451029D01*
X105423635Y-151451132D01*
X105363037Y-151646891D01*
X105265570Y-151827153D01*
X105134947Y-151985049D01*
X104976142Y-152114567D01*
X104795205Y-152210773D01*
X104599027Y-152270003D01*
X104395081Y-152290000D01*
X104384763Y-152290000D01*
X104375334Y-152289934D01*
X104375327Y-152289933D01*
X104370259Y-152289898D01*
X104166612Y-152267055D01*
X103971280Y-152205092D01*
X103791704Y-152106369D01*
X103634723Y-151974647D01*
X103506316Y-151814941D01*
X103411376Y-151633337D01*
X103353517Y-151436750D01*
X103353509Y-151436666D01*
X103353502Y-151436641D01*
X103334940Y-151232670D01*
X103356348Y-151028991D01*
X103356354Y-151028971D01*
X103356365Y-151028868D01*
X103416963Y-150833109D01*
X103514430Y-150652847D01*
X103645053Y-150494951D01*
X103803858Y-150365433D01*
X103984795Y-150269227D01*
X104180973Y-150209997D01*
X104384919Y-150190000D01*
X104395237Y-150190000D01*
X104404666Y-150190066D01*
X104404666Y-150190066D01*
G37*
G36*
X106944666Y-150190066D02*
X106944673Y-150190067D01*
X106949741Y-150190102D01*
X107153388Y-150212945D01*
X107348720Y-150274908D01*
X107528296Y-150373631D01*
X107685277Y-150505353D01*
X107813684Y-150665059D01*
X107908624Y-150846663D01*
X107966483Y-151043250D01*
X107966491Y-151043334D01*
X107966498Y-151043359D01*
X107985060Y-151247330D01*
X107963652Y-151451009D01*
X107963646Y-151451029D01*
X107963635Y-151451132D01*
X107903037Y-151646891D01*
X107805570Y-151827153D01*
X107674947Y-151985049D01*
X107516142Y-152114567D01*
X107335205Y-152210773D01*
X107139027Y-152270003D01*
X106935081Y-152290000D01*
X106924763Y-152290000D01*
X106915334Y-152289934D01*
X106915327Y-152289933D01*
X106910259Y-152289898D01*
X106706612Y-152267055D01*
X106511280Y-152205092D01*
X106331704Y-152106369D01*
X106174723Y-151974647D01*
X106046316Y-151814941D01*
X105951376Y-151633337D01*
X105893517Y-151436750D01*
X105893509Y-151436666D01*
X105893502Y-151436641D01*
X105874940Y-151232670D01*
X105896348Y-151028991D01*
X105896354Y-151028971D01*
X105896365Y-151028868D01*
X105956963Y-150833109D01*
X106054430Y-150652847D01*
X106185053Y-150494951D01*
X106343858Y-150365433D01*
X106524795Y-150269227D01*
X106720973Y-150209997D01*
X106924919Y-150190000D01*
X106935237Y-150190000D01*
X106944666Y-150190066D01*
X106944666Y-150190066D01*
G37*
G36*
X138900000Y-151940000D02*
X136800000Y-151940000D01*
X136800000Y-149840000D01*
X138900000Y-149840000D01*
X138900000Y-151940000D01*
X138900000Y-151940000D01*
G37*
G36*
X141154666Y-148140066D02*
X141154673Y-148140067D01*
X141159741Y-148140102D01*
X141363388Y-148162945D01*
X141558720Y-148224908D01*
X141738296Y-148323631D01*
X141895277Y-148455353D01*
X142023684Y-148615059D01*
X142118624Y-148796663D01*
X142176483Y-148993250D01*
X142176491Y-148993334D01*
X142176498Y-148993359D01*
X142195060Y-149197330D01*
X142173652Y-149401009D01*
X142173646Y-149401029D01*
X142173635Y-149401132D01*
X142113037Y-149596891D01*
X142015570Y-149777153D01*
X141884947Y-149935049D01*
X141726142Y-150064567D01*
X141545205Y-150160773D01*
X141349027Y-150220003D01*
X141145081Y-150240000D01*
X141134763Y-150240000D01*
X141125334Y-150239934D01*
X141125327Y-150239933D01*
X141120259Y-150239898D01*
X140916612Y-150217055D01*
X140721280Y-150155092D01*
X140541704Y-150056369D01*
X140384723Y-149924647D01*
X140256316Y-149764941D01*
X140161376Y-149583337D01*
X140103517Y-149386750D01*
X140103509Y-149386666D01*
X140103502Y-149386641D01*
X140084940Y-149182670D01*
X140106348Y-148978991D01*
X140106354Y-148978971D01*
X140106365Y-148978868D01*
X140166963Y-148783109D01*
X140264430Y-148602847D01*
X140395053Y-148444951D01*
X140553858Y-148315433D01*
X140734795Y-148219227D01*
X140930973Y-148159997D01*
X141134919Y-148140000D01*
X141145237Y-148140000D01*
X141154666Y-148140066D01*
X141154666Y-148140066D01*
G37*
G36*
X104404666Y-147650066D02*
X104404673Y-147650067D01*
X104409741Y-147650102D01*
X104613388Y-147672945D01*
X104808720Y-147734908D01*
X104988296Y-147833631D01*
X105145277Y-147965353D01*
X105273684Y-148125059D01*
X105368624Y-148306663D01*
X105426483Y-148503250D01*
X105426491Y-148503334D01*
X105426498Y-148503359D01*
X105445060Y-148707330D01*
X105423652Y-148911009D01*
X105423646Y-148911029D01*
X105423635Y-148911132D01*
X105363037Y-149106891D01*
X105265570Y-149287153D01*
X105134947Y-149445049D01*
X104976142Y-149574567D01*
X104795205Y-149670773D01*
X104599027Y-149730003D01*
X104395081Y-149750000D01*
X104384763Y-149750000D01*
X104375334Y-149749934D01*
X104375327Y-149749933D01*
X104370259Y-149749898D01*
X104166612Y-149727055D01*
X103971280Y-149665092D01*
X103791704Y-149566369D01*
X103634723Y-149434647D01*
X103506316Y-149274941D01*
X103411376Y-149093337D01*
X103353517Y-148896750D01*
X103353509Y-148896666D01*
X103353502Y-148896641D01*
X103334940Y-148692670D01*
X103356348Y-148488991D01*
X103356354Y-148488971D01*
X103356365Y-148488868D01*
X103416963Y-148293109D01*
X103514430Y-148112847D01*
X103645053Y-147954951D01*
X103803858Y-147825433D01*
X103984795Y-147729227D01*
X104180973Y-147669997D01*
X104384919Y-147650000D01*
X104395237Y-147650000D01*
X104404666Y-147650066D01*
X104404666Y-147650066D01*
G37*
G36*
X106944666Y-147650066D02*
X106944673Y-147650067D01*
X106949741Y-147650102D01*
X107153388Y-147672945D01*
X107348720Y-147734908D01*
X107528296Y-147833631D01*
X107685277Y-147965353D01*
X107813684Y-148125059D01*
X107908624Y-148306663D01*
X107966483Y-148503250D01*
X107966491Y-148503334D01*
X107966498Y-148503359D01*
X107985060Y-148707330D01*
X107963652Y-148911009D01*
X107963646Y-148911029D01*
X107963635Y-148911132D01*
X107903037Y-149106891D01*
X107805570Y-149287153D01*
X107674947Y-149445049D01*
X107516142Y-149574567D01*
X107335205Y-149670773D01*
X107139027Y-149730003D01*
X106935081Y-149750000D01*
X106924763Y-149750000D01*
X106915334Y-149749934D01*
X106915327Y-149749933D01*
X106910259Y-149749898D01*
X106706612Y-149727055D01*
X106511280Y-149665092D01*
X106331704Y-149566369D01*
X106174723Y-149434647D01*
X106046316Y-149274941D01*
X105951376Y-149093337D01*
X105893517Y-148896750D01*
X105893509Y-148896666D01*
X105893502Y-148896641D01*
X105874940Y-148692670D01*
X105896348Y-148488991D01*
X105896354Y-148488971D01*
X105896365Y-148488868D01*
X105956963Y-148293109D01*
X106054430Y-148112847D01*
X106185053Y-147954951D01*
X106343858Y-147825433D01*
X106524795Y-147729227D01*
X106720973Y-147669997D01*
X106924919Y-147650000D01*
X106935237Y-147650000D01*
X106944666Y-147650066D01*
X106944666Y-147650066D01*
G37*
G36*
X124490000Y-148090000D02*
X122390000Y-148090000D01*
X122390000Y-147190000D01*
X124490000Y-147190000D01*
X124490000Y-148090000D01*
X124490000Y-148090000D01*
G37*
G36*
X117147500Y-143717500D02*
X117152449Y-143752324D01*
X117166904Y-143784391D01*
X117189720Y-143811161D01*
X117219090Y-143830515D01*
X117222500Y-143831571D01*
X117222500Y-145542500D01*
X117047500Y-145542500D01*
X117012676Y-145547449D01*
X116980609Y-145561904D01*
X116953839Y-145584720D01*
X116934485Y-145614090D01*
X116924080Y-145647690D01*
X116922500Y-145667500D01*
X116922500Y-147892500D01*
X116022500Y-147892500D01*
X116022500Y-147622900D01*
X116017551Y-147588076D01*
X116003096Y-147556009D01*
X115980280Y-147529239D01*
X115950910Y-147509885D01*
X115917310Y-147499480D01*
X115897500Y-147497900D01*
X113178300Y-147497900D01*
X113178300Y-145827900D01*
X115897500Y-145827900D01*
X115932324Y-145822951D01*
X115964391Y-145808496D01*
X115983159Y-145792500D01*
X116097500Y-145792500D01*
X116132324Y-145787551D01*
X116164391Y-145773096D01*
X116191161Y-145750280D01*
X116210515Y-145720910D01*
X116220920Y-145687310D01*
X116222500Y-145667500D01*
X116222500Y-145032100D01*
X116217551Y-144997276D01*
X116203096Y-144965209D01*
X116180280Y-144938439D01*
X116150910Y-144919085D01*
X116117310Y-144908680D01*
X116097500Y-144907100D01*
X115057900Y-144907100D01*
X115057900Y-143237100D01*
X116122500Y-143237100D01*
X116157324Y-143232151D01*
X116189391Y-143217696D01*
X116216161Y-143194880D01*
X116235515Y-143165510D01*
X116245920Y-143131910D01*
X116247500Y-143112100D01*
X116247500Y-141742500D01*
X117147500Y-141742500D01*
X117147500Y-143717500D01*
X117147500Y-143717500D01*
G37*
G36*
X141154666Y-145600066D02*
X141154673Y-145600067D01*
X141159741Y-145600102D01*
X141363388Y-145622945D01*
X141558720Y-145684908D01*
X141738296Y-145783631D01*
X141895277Y-145915353D01*
X142023684Y-146075059D01*
X142118624Y-146256663D01*
X142176483Y-146453250D01*
X142176491Y-146453334D01*
X142176498Y-146453359D01*
X142195060Y-146657330D01*
X142173652Y-146861009D01*
X142173646Y-146861029D01*
X142173635Y-146861132D01*
X142113037Y-147056891D01*
X142015570Y-147237153D01*
X141884947Y-147395049D01*
X141726142Y-147524567D01*
X141545205Y-147620773D01*
X141349027Y-147680003D01*
X141145081Y-147700000D01*
X141134763Y-147700000D01*
X141125334Y-147699934D01*
X141125327Y-147699933D01*
X141120259Y-147699898D01*
X140916612Y-147677055D01*
X140721280Y-147615092D01*
X140541704Y-147516369D01*
X140384723Y-147384647D01*
X140256316Y-147224941D01*
X140161376Y-147043337D01*
X140103517Y-146846750D01*
X140103509Y-146846666D01*
X140103502Y-146846641D01*
X140084940Y-146642670D01*
X140106348Y-146438991D01*
X140106354Y-146438971D01*
X140106365Y-146438868D01*
X140166963Y-146243109D01*
X140264430Y-146062847D01*
X140395053Y-145904951D01*
X140553858Y-145775433D01*
X140734795Y-145679227D01*
X140930973Y-145619997D01*
X141134919Y-145600000D01*
X141145237Y-145600000D01*
X141154666Y-145600066D01*
X141154666Y-145600066D01*
G37*
G36*
X106944666Y-145110066D02*
X106944673Y-145110067D01*
X106949741Y-145110102D01*
X107153388Y-145132945D01*
X107348720Y-145194908D01*
X107528296Y-145293631D01*
X107685277Y-145425353D01*
X107813684Y-145585059D01*
X107908624Y-145766663D01*
X107966483Y-145963250D01*
X107966491Y-145963334D01*
X107966498Y-145963359D01*
X107985060Y-146167330D01*
X107963652Y-146371009D01*
X107963646Y-146371029D01*
X107963635Y-146371132D01*
X107903037Y-146566891D01*
X107805570Y-146747153D01*
X107674947Y-146905049D01*
X107516142Y-147034567D01*
X107335205Y-147130773D01*
X107139027Y-147190003D01*
X106935081Y-147210000D01*
X106924763Y-147210000D01*
X106915334Y-147209934D01*
X106915327Y-147209933D01*
X106910259Y-147209898D01*
X106706612Y-147187055D01*
X106511280Y-147125092D01*
X106331704Y-147026369D01*
X106174723Y-146894647D01*
X106046316Y-146734941D01*
X105951376Y-146553337D01*
X105893517Y-146356750D01*
X105893509Y-146356666D01*
X105893502Y-146356641D01*
X105874940Y-146152670D01*
X105896348Y-145948991D01*
X105896354Y-145948971D01*
X105896365Y-145948868D01*
X105956963Y-145753109D01*
X106054430Y-145572847D01*
X106185053Y-145414951D01*
X106343858Y-145285433D01*
X106524795Y-145189227D01*
X106720973Y-145129997D01*
X106924919Y-145110000D01*
X106935237Y-145110000D01*
X106944666Y-145110066D01*
X106944666Y-145110066D01*
G37*
G36*
X104404666Y-145110066D02*
X104404673Y-145110067D01*
X104409741Y-145110102D01*
X104613388Y-145132945D01*
X104808720Y-145194908D01*
X104988296Y-145293631D01*
X105145277Y-145425353D01*
X105273684Y-145585059D01*
X105368624Y-145766663D01*
X105426483Y-145963250D01*
X105426491Y-145963334D01*
X105426498Y-145963359D01*
X105445060Y-146167330D01*
X105423652Y-146371009D01*
X105423646Y-146371029D01*
X105423635Y-146371132D01*
X105363037Y-146566891D01*
X105265570Y-146747153D01*
X105134947Y-146905049D01*
X104976142Y-147034567D01*
X104795205Y-147130773D01*
X104599027Y-147190003D01*
X104395081Y-147210000D01*
X104384763Y-147210000D01*
X104375334Y-147209934D01*
X104375327Y-147209933D01*
X104370259Y-147209898D01*
X104166612Y-147187055D01*
X103971280Y-147125092D01*
X103791704Y-147026369D01*
X103634723Y-146894647D01*
X103506316Y-146734941D01*
X103411376Y-146553337D01*
X103353517Y-146356750D01*
X103353509Y-146356666D01*
X103353502Y-146356641D01*
X103334940Y-146152670D01*
X103356348Y-145948991D01*
X103356354Y-145948971D01*
X103356365Y-145948868D01*
X103416963Y-145753109D01*
X103514430Y-145572847D01*
X103645053Y-145414951D01*
X103803858Y-145285433D01*
X103984795Y-145189227D01*
X104180973Y-145129997D01*
X104384919Y-145110000D01*
X104395237Y-145110000D01*
X104404666Y-145110066D01*
X104404666Y-145110066D01*
G37*
G36*
X141154666Y-143060066D02*
X141154673Y-143060067D01*
X141159741Y-143060102D01*
X141363388Y-143082945D01*
X141558720Y-143144908D01*
X141738296Y-143243631D01*
X141895277Y-143375353D01*
X142023684Y-143535059D01*
X142118624Y-143716663D01*
X142176483Y-143913250D01*
X142176491Y-143913334D01*
X142176498Y-143913359D01*
X142195060Y-144117330D01*
X142173652Y-144321009D01*
X142173646Y-144321029D01*
X142173635Y-144321132D01*
X142113037Y-144516891D01*
X142015570Y-144697153D01*
X141884947Y-144855049D01*
X141726142Y-144984567D01*
X141545205Y-145080773D01*
X141349027Y-145140003D01*
X141145081Y-145160000D01*
X141134763Y-145160000D01*
X141125334Y-145159934D01*
X141125327Y-145159933D01*
X141120259Y-145159898D01*
X140916612Y-145137055D01*
X140721280Y-145075092D01*
X140541704Y-144976369D01*
X140384723Y-144844647D01*
X140256316Y-144684941D01*
X140161376Y-144503337D01*
X140103517Y-144306750D01*
X140103509Y-144306666D01*
X140103502Y-144306641D01*
X140084940Y-144102670D01*
X140106348Y-143898991D01*
X140106354Y-143898971D01*
X140106365Y-143898868D01*
X140166963Y-143703109D01*
X140264430Y-143522847D01*
X140395053Y-143364951D01*
X140553858Y-143235433D01*
X140734795Y-143139227D01*
X140930973Y-143079997D01*
X141134919Y-143060000D01*
X141145237Y-143060000D01*
X141154666Y-143060066D01*
X141154666Y-143060066D01*
G37*
G36*
X114472500Y-142942500D02*
X113247500Y-142942500D01*
X113212676Y-142947449D01*
X113180609Y-142961904D01*
X113153839Y-142984720D01*
X113134485Y-143014090D01*
X113124080Y-143047690D01*
X113122500Y-143067500D01*
X113122500Y-143112100D01*
X113127449Y-143146924D01*
X113141904Y-143178991D01*
X113164720Y-143205761D01*
X113194090Y-143225115D01*
X113227690Y-143235520D01*
X113247500Y-143237100D01*
X114137100Y-143237100D01*
X114137100Y-144907100D01*
X113178300Y-144907100D01*
X113178300Y-144617500D01*
X113173351Y-144582676D01*
X113158896Y-144550609D01*
X113136080Y-144523839D01*
X113106710Y-144504485D01*
X113073110Y-144494080D01*
X113053300Y-144492500D01*
X112122500Y-144492500D01*
X112122500Y-142792500D01*
X113147500Y-142792500D01*
X113182324Y-142787551D01*
X113214391Y-142773096D01*
X113241161Y-142750280D01*
X113260515Y-142720910D01*
X113270920Y-142687310D01*
X113272500Y-142667500D01*
X113272500Y-141792500D01*
X114472500Y-141792500D01*
X114472500Y-142942500D01*
X114472500Y-142942500D01*
G37*
G36*
X106944666Y-142570066D02*
X106944673Y-142570067D01*
X106949741Y-142570102D01*
X107153388Y-142592945D01*
X107348720Y-142654908D01*
X107528296Y-142753631D01*
X107685277Y-142885353D01*
X107813684Y-143045059D01*
X107908624Y-143226663D01*
X107966483Y-143423250D01*
X107966491Y-143423334D01*
X107966498Y-143423359D01*
X107985060Y-143627330D01*
X107963652Y-143831009D01*
X107963646Y-143831029D01*
X107963635Y-143831132D01*
X107903037Y-144026891D01*
X107805570Y-144207153D01*
X107674947Y-144365049D01*
X107516142Y-144494567D01*
X107335205Y-144590773D01*
X107139027Y-144650003D01*
X106935081Y-144670000D01*
X106924763Y-144670000D01*
X106915334Y-144669934D01*
X106915327Y-144669933D01*
X106910259Y-144669898D01*
X106706612Y-144647055D01*
X106511280Y-144585092D01*
X106331704Y-144486369D01*
X106174723Y-144354647D01*
X106046316Y-144194941D01*
X105951376Y-144013337D01*
X105893517Y-143816750D01*
X105893509Y-143816666D01*
X105893502Y-143816641D01*
X105874940Y-143612670D01*
X105896348Y-143408991D01*
X105896354Y-143408971D01*
X105896365Y-143408868D01*
X105956963Y-143213109D01*
X106054430Y-143032847D01*
X106185053Y-142874951D01*
X106343858Y-142745433D01*
X106524795Y-142649227D01*
X106720973Y-142589997D01*
X106924919Y-142570000D01*
X106935237Y-142570000D01*
X106944666Y-142570066D01*
X106944666Y-142570066D01*
G37*
G36*
X104404666Y-142570066D02*
X104404673Y-142570067D01*
X104409741Y-142570102D01*
X104613388Y-142592945D01*
X104808720Y-142654908D01*
X104988296Y-142753631D01*
X105145277Y-142885353D01*
X105273684Y-143045059D01*
X105368624Y-143226663D01*
X105426483Y-143423250D01*
X105426491Y-143423334D01*
X105426498Y-143423359D01*
X105445060Y-143627330D01*
X105423652Y-143831009D01*
X105423646Y-143831029D01*
X105423635Y-143831132D01*
X105363037Y-144026891D01*
X105265570Y-144207153D01*
X105134947Y-144365049D01*
X104976142Y-144494567D01*
X104795205Y-144590773D01*
X104599027Y-144650003D01*
X104395081Y-144670000D01*
X104384763Y-144670000D01*
X104375334Y-144669934D01*
X104375327Y-144669933D01*
X104370259Y-144669898D01*
X104166612Y-144647055D01*
X103971280Y-144585092D01*
X103791704Y-144486369D01*
X103634723Y-144354647D01*
X103506316Y-144194941D01*
X103411376Y-144013337D01*
X103353517Y-143816750D01*
X103353509Y-143816666D01*
X103353502Y-143816641D01*
X103334940Y-143612670D01*
X103356348Y-143408991D01*
X103356354Y-143408971D01*
X103356365Y-143408868D01*
X103416963Y-143213109D01*
X103514430Y-143032847D01*
X103645053Y-142874951D01*
X103803858Y-142745433D01*
X103984795Y-142649227D01*
X104180973Y-142589997D01*
X104384919Y-142570000D01*
X104395237Y-142570000D01*
X104404666Y-142570066D01*
X104404666Y-142570066D01*
G37*
G36*
X122510000Y-144550000D02*
X121510000Y-144550000D01*
X121510000Y-142850000D01*
X122510000Y-142850000D01*
X122510000Y-144550000D01*
X122510000Y-144550000D01*
G37*
G36*
X123860000Y-144550000D02*
X122860000Y-144550000D01*
X122860000Y-142850000D01*
X123860000Y-142850000D01*
X123860000Y-144550000D01*
X123860000Y-144550000D01*
G37*
G36*
X121164949Y-138264824D02*
X121179404Y-138296891D01*
X121202220Y-138323661D01*
X121231590Y-138343015D01*
X121265190Y-138353420D01*
X121285000Y-138355000D01*
X121800000Y-138355000D01*
X121834824Y-138350051D01*
X121866891Y-138335596D01*
X121893661Y-138312780D01*
X121913015Y-138283410D01*
X121918716Y-138265000D01*
X123900028Y-138265000D01*
X123914404Y-138296891D01*
X123937220Y-138323661D01*
X123966590Y-138343015D01*
X124000190Y-138353420D01*
X124020000Y-138355000D01*
X124595000Y-138355000D01*
X124595000Y-142045000D01*
X124020000Y-142045000D01*
X123985176Y-142049949D01*
X123953109Y-142064404D01*
X123926339Y-142087220D01*
X123906985Y-142116590D01*
X123901284Y-142135000D01*
X121919972Y-142135000D01*
X121905596Y-142103109D01*
X121882780Y-142076339D01*
X121853410Y-142056985D01*
X121819810Y-142046580D01*
X121800000Y-142045000D01*
X121185000Y-142045000D01*
X121150176Y-142049949D01*
X121118109Y-142064404D01*
X121091339Y-142087220D01*
X121071985Y-142116590D01*
X121061580Y-142150190D01*
X121060000Y-142170000D01*
X121060000Y-143150000D01*
X118960000Y-143150000D01*
X118960000Y-141150000D01*
X121100000Y-141150000D01*
X121134824Y-141145051D01*
X121166891Y-141130596D01*
X121193661Y-141107780D01*
X121213015Y-141078410D01*
X121223420Y-141044810D01*
X121225000Y-141025000D01*
X121225000Y-140475000D01*
X121220051Y-140440176D01*
X121205596Y-140408109D01*
X121182780Y-140381339D01*
X121153410Y-140361985D01*
X121119810Y-140351580D01*
X121100000Y-140350000D01*
X119160000Y-140350000D01*
X119160000Y-139320000D01*
X122155000Y-139320000D01*
X122155000Y-141080000D01*
X122159949Y-141114824D01*
X122174404Y-141146891D01*
X122197220Y-141173661D01*
X122226590Y-141193015D01*
X122260190Y-141203420D01*
X122280000Y-141205000D01*
X123540000Y-141205000D01*
X123574824Y-141200051D01*
X123606891Y-141185596D01*
X123633661Y-141162780D01*
X123653015Y-141133410D01*
X123663420Y-141099810D01*
X123665000Y-141080000D01*
X123665000Y-139320000D01*
X123660051Y-139285176D01*
X123645596Y-139253109D01*
X123622780Y-139226339D01*
X123593410Y-139206985D01*
X123559810Y-139196580D01*
X123540000Y-139195000D01*
X122280000Y-139195000D01*
X122245176Y-139199949D01*
X122213109Y-139214404D01*
X122186339Y-139237220D01*
X122166985Y-139266590D01*
X122156580Y-139300190D01*
X122155000Y-139320000D01*
X119160000Y-139320000D01*
X119160000Y-138250000D01*
X121162842Y-138250000D01*
X121164949Y-138264824D01*
X121164949Y-138264824D01*
G37*
G36*
X115972500Y-142942500D02*
X114772500Y-142942500D01*
X114772500Y-141792500D01*
X115972500Y-141792500D01*
X115972500Y-142942500D01*
X115972500Y-142942500D01*
G37*
G36*
X141154666Y-140520066D02*
X141154673Y-140520067D01*
X141159741Y-140520102D01*
X141363388Y-140542945D01*
X141558720Y-140604908D01*
X141738296Y-140703631D01*
X141895277Y-140835353D01*
X142023684Y-140995059D01*
X142118624Y-141176663D01*
X142176483Y-141373250D01*
X142176491Y-141373334D01*
X142176498Y-141373359D01*
X142195060Y-141577330D01*
X142173652Y-141781009D01*
X142173646Y-141781029D01*
X142173635Y-141781132D01*
X142113037Y-141976891D01*
X142015570Y-142157153D01*
X141884947Y-142315049D01*
X141726142Y-142444567D01*
X141545205Y-142540773D01*
X141349027Y-142600003D01*
X141145081Y-142620000D01*
X141134763Y-142620000D01*
X141125334Y-142619934D01*
X141125327Y-142619933D01*
X141120259Y-142619898D01*
X140916612Y-142597055D01*
X140721280Y-142535092D01*
X140541704Y-142436369D01*
X140384723Y-142304647D01*
X140256316Y-142144941D01*
X140161376Y-141963337D01*
X140103517Y-141766750D01*
X140103509Y-141766666D01*
X140103502Y-141766641D01*
X140084940Y-141562670D01*
X140106348Y-141358991D01*
X140106354Y-141358971D01*
X140106365Y-141358868D01*
X140166963Y-141163109D01*
X140264430Y-140982847D01*
X140395053Y-140824951D01*
X140553858Y-140695433D01*
X140734795Y-140599227D01*
X140930973Y-140539997D01*
X141134919Y-140520000D01*
X141145237Y-140520000D01*
X141154666Y-140520066D01*
X141154666Y-140520066D01*
G37*
G36*
X105440000Y-142130000D02*
X103340000Y-142130000D01*
X103340000Y-140030000D01*
X105440000Y-140030000D01*
X105440000Y-142130000D01*
X105440000Y-142130000D01*
G37*
G36*
X106944666Y-140030066D02*
X106944673Y-140030067D01*
X106949741Y-140030102D01*
X107153388Y-140052945D01*
X107348720Y-140114908D01*
X107528296Y-140213631D01*
X107685277Y-140345353D01*
X107813684Y-140505059D01*
X107908624Y-140686663D01*
X107966483Y-140883250D01*
X107966491Y-140883334D01*
X107966498Y-140883359D01*
X107985060Y-141087330D01*
X107963652Y-141291009D01*
X107963646Y-141291029D01*
X107963635Y-141291132D01*
X107903037Y-141486891D01*
X107805570Y-141667153D01*
X107674947Y-141825049D01*
X107516142Y-141954567D01*
X107335205Y-142050773D01*
X107139027Y-142110003D01*
X106935081Y-142130000D01*
X106924763Y-142130000D01*
X106915334Y-142129934D01*
X106915327Y-142129933D01*
X106910259Y-142129898D01*
X106706612Y-142107055D01*
X106511280Y-142045092D01*
X106331704Y-141946369D01*
X106174723Y-141814647D01*
X106046316Y-141654941D01*
X105951376Y-141473337D01*
X105893517Y-141276750D01*
X105893509Y-141276666D01*
X105893502Y-141276641D01*
X105874940Y-141072670D01*
X105896348Y-140868991D01*
X105896354Y-140868971D01*
X105896365Y-140868868D01*
X105956963Y-140673109D01*
X106054430Y-140492847D01*
X106185053Y-140334951D01*
X106343858Y-140205433D01*
X106524795Y-140109227D01*
X106720973Y-140049997D01*
X106924919Y-140030000D01*
X106935237Y-140030000D01*
X106944666Y-140030066D01*
X106944666Y-140030066D01*
G37*
G36*
X136171009Y-139536348D02*
X136171029Y-139536354D01*
X136171132Y-139536365D01*
X136366891Y-139596963D01*
X136547153Y-139694430D01*
X136705049Y-139825053D01*
X136834567Y-139983858D01*
X136930773Y-140164795D01*
X136990003Y-140360973D01*
X137010000Y-140564919D01*
X137010000Y-140575237D01*
X137009934Y-140584666D01*
X137009933Y-140584673D01*
X137009898Y-140589741D01*
X136987055Y-140793388D01*
X136925092Y-140988720D01*
X136826369Y-141168296D01*
X136694647Y-141325277D01*
X136534941Y-141453684D01*
X136353337Y-141548624D01*
X136156750Y-141606483D01*
X136156666Y-141606491D01*
X136156641Y-141606498D01*
X135952670Y-141625060D01*
X135748991Y-141603652D01*
X135748971Y-141603646D01*
X135748868Y-141603635D01*
X135553109Y-141543037D01*
X135372847Y-141445570D01*
X135214951Y-141314947D01*
X135085433Y-141156142D01*
X134989227Y-140975205D01*
X134929997Y-140779027D01*
X134910000Y-140575081D01*
X134910000Y-140564763D01*
X134910066Y-140555334D01*
X134910067Y-140555327D01*
X134910102Y-140550259D01*
X134932945Y-140346612D01*
X134994908Y-140151280D01*
X135093631Y-139971704D01*
X135225353Y-139814723D01*
X135385059Y-139686316D01*
X135566663Y-139591376D01*
X135763250Y-139533517D01*
X135763334Y-139533509D01*
X135763359Y-139533502D01*
X135967330Y-139514940D01*
X136171009Y-139536348D01*
X136171009Y-139536348D01*
G37*
G36*
X134470000Y-141620000D02*
X132370000Y-141620000D01*
X132370000Y-139520000D01*
X134470000Y-139520000D01*
X134470000Y-141620000D01*
X134470000Y-141620000D01*
G37*
G36*
X131600000Y-141010000D02*
X130700000Y-141010000D01*
X130700000Y-138910000D01*
X131600000Y-138910000D01*
X131600000Y-141010000D01*
X131600000Y-141010000D01*
G37*
G36*
X125860000Y-140250000D02*
X124960000Y-140250000D01*
X124960000Y-138150000D01*
X125860000Y-138150000D01*
X125860000Y-140250000D01*
X125860000Y-140250000D01*
G37*
G36*
X141154666Y-137980066D02*
X141154673Y-137980067D01*
X141159741Y-137980102D01*
X141363388Y-138002945D01*
X141558720Y-138064908D01*
X141738296Y-138163631D01*
X141895277Y-138295353D01*
X142023684Y-138455059D01*
X142118624Y-138636663D01*
X142176483Y-138833250D01*
X142176491Y-138833334D01*
X142176498Y-138833359D01*
X142195060Y-139037330D01*
X142173652Y-139241009D01*
X142173646Y-139241029D01*
X142173635Y-139241132D01*
X142113037Y-139436891D01*
X142015570Y-139617153D01*
X141884947Y-139775049D01*
X141726142Y-139904567D01*
X141545205Y-140000773D01*
X141349027Y-140060003D01*
X141145081Y-140080000D01*
X141134763Y-140080000D01*
X141125334Y-140079934D01*
X141125327Y-140079933D01*
X141120259Y-140079898D01*
X140916612Y-140057055D01*
X140721280Y-139995092D01*
X140541704Y-139896369D01*
X140384723Y-139764647D01*
X140256316Y-139604941D01*
X140161376Y-139423337D01*
X140103517Y-139226750D01*
X140103509Y-139226666D01*
X140103502Y-139226641D01*
X140084940Y-139022670D01*
X140106348Y-138818991D01*
X140106354Y-138818971D01*
X140106365Y-138818868D01*
X140166963Y-138623109D01*
X140264430Y-138442847D01*
X140395053Y-138284951D01*
X140553858Y-138155433D01*
X140734795Y-138059227D01*
X140930973Y-137999997D01*
X141134919Y-137980000D01*
X141145237Y-137980000D01*
X141154666Y-137980066D01*
X141154666Y-137980066D01*
G37*
G36*
X132810000Y-138600000D02*
X129710000Y-138600000D01*
X129710000Y-136100000D01*
X132810000Y-136100000D01*
X132810000Y-138600000D01*
X132810000Y-138600000D01*
G37*
G36*
X138110000Y-138600000D02*
X135010000Y-138600000D01*
X135010000Y-136100000D01*
X138110000Y-136100000D01*
X138110000Y-138600000D01*
X138110000Y-138600000D01*
G37*
G36*
X114490000Y-137785000D02*
X112970000Y-137785000D01*
X112970000Y-134945000D01*
X114490000Y-134945000D01*
X114490000Y-137785000D01*
X114490000Y-137785000D01*
G37*
G36*
X142190000Y-137540000D02*
X140090000Y-137540000D01*
X140090000Y-135440000D01*
X142190000Y-135440000D01*
X142190000Y-137540000D01*
X142190000Y-137540000D01*
G37*
G36*
X129280000Y-135770000D02*
X128380000Y-135770000D01*
X128380000Y-133670000D01*
X129280000Y-133670000D01*
X129280000Y-135770000D01*
X129280000Y-135770000D01*
G37*
G36*
X132810000Y-135500000D02*
X129710000Y-135500000D01*
X129710000Y-133000000D01*
X132810000Y-133000000D01*
X132810000Y-135500000D01*
X132810000Y-135500000D01*
G37*
G36*
X138110000Y-135500000D02*
X135010000Y-135500000D01*
X135010000Y-133000000D01*
X138110000Y-133000000D01*
X138110000Y-135500000D01*
X138110000Y-135500000D01*
G37*
G36*
X126925525Y-131867882D02*
X126925550Y-131867890D01*
X126925647Y-131867900D01*
X127037509Y-131902527D01*
X127140516Y-131958222D01*
X127230742Y-132032864D01*
X127304753Y-132123610D01*
X127359728Y-132227003D01*
X127393573Y-132339104D01*
X127405000Y-132455645D01*
X127405000Y-133064511D01*
X127404978Y-133067659D01*
X127404977Y-133067667D01*
X127404942Y-133072732D01*
X127391889Y-133189102D01*
X127356481Y-133300720D01*
X127300068Y-133403335D01*
X127224798Y-133493039D01*
X127133538Y-133566414D01*
X127029764Y-133620665D01*
X126917429Y-133653727D01*
X126917348Y-133653734D01*
X126917319Y-133653743D01*
X126872887Y-133657786D01*
X126838654Y-133665871D01*
X126808029Y-133683172D01*
X126783437Y-133708321D01*
X126766825Y-133739324D01*
X126759507Y-133773729D01*
X126762065Y-133808810D01*
X126768647Y-133829905D01*
X126780029Y-133857521D01*
X126799857Y-133957654D01*
X126799857Y-133957685D01*
X126800022Y-133958521D01*
X126798380Y-134076118D01*
X126798190Y-134076953D01*
X126798190Y-134076979D01*
X126775576Y-134176519D01*
X126733697Y-134270578D01*
X126674351Y-134354708D01*
X126599788Y-134425712D01*
X126512857Y-134480881D01*
X126416870Y-134518112D01*
X126315475Y-134535990D01*
X126212533Y-134533834D01*
X126111979Y-134511726D01*
X126017633Y-134470507D01*
X125971339Y-134438332D01*
X125939919Y-134422521D01*
X125905338Y-134416090D01*
X125870334Y-134419547D01*
X125837679Y-134432620D01*
X125809959Y-134454272D01*
X125789369Y-134482789D01*
X125777538Y-134515914D01*
X125775000Y-134540976D01*
X125775000Y-135220000D01*
X119575000Y-135220000D01*
X119575000Y-134618976D01*
X119570051Y-134584152D01*
X119555596Y-134552085D01*
X119532780Y-134525315D01*
X119503410Y-134505961D01*
X119469810Y-134495556D01*
X119434642Y-134494923D01*
X119418732Y-134498284D01*
X119330239Y-134525001D01*
X119228266Y-134535000D01*
X118921565Y-134535000D01*
X118919476Y-134534985D01*
X118919469Y-134534984D01*
X118914404Y-134534949D01*
X118812580Y-134523527D01*
X118714914Y-134492546D01*
X118625126Y-134443185D01*
X118546636Y-134377323D01*
X118482433Y-134297471D01*
X118434962Y-134206668D01*
X118406033Y-134108375D01*
X118406025Y-134108291D01*
X118406018Y-134108266D01*
X118396741Y-134006335D01*
X118397730Y-133996922D01*
X119892113Y-133996922D01*
X119897597Y-134031666D01*
X119912543Y-134063507D01*
X119935768Y-134089923D01*
X119965433Y-134108823D01*
X119999189Y-134118710D01*
X120017098Y-134120000D01*
X121336035Y-134120000D01*
X121370859Y-134115051D01*
X121402926Y-134100596D01*
X121429696Y-134077780D01*
X121449050Y-134048410D01*
X121459455Y-134014810D01*
X121459776Y-133996922D01*
X121492113Y-133996922D01*
X121497597Y-134031666D01*
X121512543Y-134063507D01*
X121535768Y-134089923D01*
X121565433Y-134108823D01*
X121599189Y-134118710D01*
X121617098Y-134120000D01*
X122136035Y-134120000D01*
X122170859Y-134115051D01*
X122202926Y-134100596D01*
X122229696Y-134077780D01*
X122249050Y-134048410D01*
X122259455Y-134014810D01*
X122259776Y-133996922D01*
X122292113Y-133996922D01*
X122297597Y-134031666D01*
X122312543Y-134063507D01*
X122335768Y-134089923D01*
X122365433Y-134108823D01*
X122399189Y-134118710D01*
X122417098Y-134120000D01*
X122936035Y-134120000D01*
X122970859Y-134115051D01*
X123002926Y-134100596D01*
X123029696Y-134077780D01*
X123049050Y-134048410D01*
X123059455Y-134014810D01*
X123059776Y-133996922D01*
X123092113Y-133996922D01*
X123097597Y-134031666D01*
X123112543Y-134063507D01*
X123135768Y-134089923D01*
X123165433Y-134108823D01*
X123199189Y-134118710D01*
X123217098Y-134120000D01*
X123736035Y-134120000D01*
X123770859Y-134115051D01*
X123802926Y-134100596D01*
X123829696Y-134077780D01*
X123849050Y-134048410D01*
X123859455Y-134014810D01*
X123859776Y-133996922D01*
X123892113Y-133996922D01*
X123897597Y-134031666D01*
X123912543Y-134063507D01*
X123935768Y-134089923D01*
X123965433Y-134108823D01*
X123999189Y-134118710D01*
X124017098Y-134120000D01*
X125336035Y-134120000D01*
X125370859Y-134115051D01*
X125402926Y-134100596D01*
X125429696Y-134077780D01*
X125449050Y-134048410D01*
X125459455Y-134014810D01*
X125459776Y-133996928D01*
X125492113Y-133996928D01*
X125497598Y-134031671D01*
X125512546Y-134063511D01*
X125535772Y-134089927D01*
X125565438Y-134108825D01*
X125599194Y-134118711D01*
X125617098Y-134120000D01*
X125625118Y-134120000D01*
X125659942Y-134115051D01*
X125692009Y-134100596D01*
X125718779Y-134077780D01*
X125738133Y-134048410D01*
X125748538Y-134014810D01*
X125750106Y-133996763D01*
X125750126Y-133995345D01*
X125745668Y-133960454D01*
X125731667Y-133928187D01*
X125709231Y-133901098D01*
X125680136Y-133881331D01*
X125646687Y-133870453D01*
X125603427Y-133870482D01*
X125595387Y-133871900D01*
X125561952Y-133882822D01*
X125532883Y-133902627D01*
X125510483Y-133929746D01*
X125496524Y-133962031D01*
X125492113Y-133996928D01*
X125459776Y-133996928D01*
X125460088Y-133979642D01*
X125450898Y-133945689D01*
X125432613Y-133915642D01*
X125406680Y-133891878D01*
X125362876Y-133872916D01*
X125311979Y-133861726D01*
X125217630Y-133820506D01*
X125133088Y-133761747D01*
X125061569Y-133687688D01*
X125005791Y-133601137D01*
X124967890Y-133505411D01*
X124949305Y-133404147D01*
X124950742Y-133301196D01*
X124953378Y-133288796D01*
X124955778Y-133253703D01*
X124948307Y-133219332D01*
X124931556Y-133188403D01*
X124906852Y-133163365D01*
X124881154Y-133148259D01*
X124817633Y-133120507D01*
X124748166Y-133072226D01*
X124716745Y-133056415D01*
X124682164Y-133049983D01*
X124647161Y-133053440D01*
X124609847Y-133069328D01*
X124512854Y-133130882D01*
X124473199Y-133146263D01*
X124442521Y-133163470D01*
X124417852Y-133188542D01*
X124401144Y-133219495D01*
X124393721Y-133253877D01*
X124395783Y-133287084D01*
X124399857Y-133307655D01*
X124399857Y-133307686D01*
X124400022Y-133308521D01*
X124398380Y-133426118D01*
X124398190Y-133426953D01*
X124398190Y-133426979D01*
X124375576Y-133526519D01*
X124333697Y-133620578D01*
X124274351Y-133704708D01*
X124199788Y-133775712D01*
X124112857Y-133830881D01*
X124016870Y-133868112D01*
X123995392Y-133871899D01*
X123961956Y-133882820D01*
X123932887Y-133902623D01*
X123910485Y-133929741D01*
X123896525Y-133962026D01*
X123892113Y-133996922D01*
X123859776Y-133996922D01*
X123860088Y-133979642D01*
X123850898Y-133945689D01*
X123832613Y-133915642D01*
X123806680Y-133891878D01*
X123762876Y-133872916D01*
X123711979Y-133861726D01*
X123617632Y-133820507D01*
X123548166Y-133772226D01*
X123516745Y-133756415D01*
X123482164Y-133749983D01*
X123447161Y-133753440D01*
X123409847Y-133769328D01*
X123312854Y-133830882D01*
X123216870Y-133868112D01*
X123195392Y-133871899D01*
X123161956Y-133882820D01*
X123132887Y-133902623D01*
X123110485Y-133929741D01*
X123096525Y-133962026D01*
X123092113Y-133996922D01*
X123059776Y-133996922D01*
X123060088Y-133979642D01*
X123050898Y-133945689D01*
X123032613Y-133915642D01*
X123006680Y-133891878D01*
X122962876Y-133872916D01*
X122911979Y-133861726D01*
X122817632Y-133820507D01*
X122748166Y-133772226D01*
X122716745Y-133756415D01*
X122682164Y-133749983D01*
X122647161Y-133753440D01*
X122609847Y-133769328D01*
X122512854Y-133830882D01*
X122416870Y-133868112D01*
X122395392Y-133871899D01*
X122361956Y-133882820D01*
X122332887Y-133902623D01*
X122310485Y-133929741D01*
X122296525Y-133962026D01*
X122292113Y-133996922D01*
X122259776Y-133996922D01*
X122260088Y-133979642D01*
X122250898Y-133945689D01*
X122232613Y-133915642D01*
X122206680Y-133891878D01*
X122162876Y-133872916D01*
X122111979Y-133861726D01*
X122017632Y-133820507D01*
X121948166Y-133772226D01*
X121916745Y-133756415D01*
X121882164Y-133749983D01*
X121847161Y-133753440D01*
X121809847Y-133769328D01*
X121712854Y-133830882D01*
X121616870Y-133868112D01*
X121595392Y-133871899D01*
X121561956Y-133882820D01*
X121532887Y-133902623D01*
X121510485Y-133929741D01*
X121496525Y-133962026D01*
X121492113Y-133996922D01*
X121459776Y-133996922D01*
X121460088Y-133979642D01*
X121450898Y-133945689D01*
X121432613Y-133915642D01*
X121406680Y-133891878D01*
X121362876Y-133872916D01*
X121311979Y-133861726D01*
X121217630Y-133820506D01*
X121133088Y-133761747D01*
X121061569Y-133687688D01*
X121005791Y-133601137D01*
X120967890Y-133505411D01*
X120949305Y-133404147D01*
X120950742Y-133301196D01*
X120953378Y-133288796D01*
X120955778Y-133253703D01*
X120948307Y-133219332D01*
X120931556Y-133188403D01*
X120906852Y-133163365D01*
X120881154Y-133148259D01*
X120817633Y-133120507D01*
X120748166Y-133072226D01*
X120716745Y-133056415D01*
X120682164Y-133049983D01*
X120647161Y-133053440D01*
X120609847Y-133069328D01*
X120512854Y-133130882D01*
X120473199Y-133146263D01*
X120442521Y-133163470D01*
X120417852Y-133188542D01*
X120401144Y-133219495D01*
X120393721Y-133253877D01*
X120395783Y-133287084D01*
X120399857Y-133307655D01*
X120399857Y-133307686D01*
X120400022Y-133308521D01*
X120398380Y-133426118D01*
X120398190Y-133426953D01*
X120398190Y-133426979D01*
X120375576Y-133526519D01*
X120333697Y-133620578D01*
X120274351Y-133704708D01*
X120199788Y-133775712D01*
X120112857Y-133830881D01*
X120016870Y-133868112D01*
X119995392Y-133871899D01*
X119961956Y-133882820D01*
X119932887Y-133902623D01*
X119910485Y-133929741D01*
X119896525Y-133962026D01*
X119892113Y-133996922D01*
X118397730Y-133996922D01*
X118407439Y-133904557D01*
X118407447Y-133904532D01*
X118407457Y-133904434D01*
X118437756Y-133806554D01*
X118437803Y-133806468D01*
X118441328Y-133795079D01*
X118441218Y-133795045D01*
X118447275Y-133778682D01*
X118449813Y-133743600D01*
X118442477Y-133709200D01*
X118425847Y-133678205D01*
X118401241Y-133653070D01*
X118362168Y-133632850D01*
X118312491Y-133617473D01*
X118209484Y-133561778D01*
X118119258Y-133487136D01*
X118045247Y-133396390D01*
X117990272Y-133292997D01*
X117956427Y-133180896D01*
X117945000Y-133064355D01*
X117945000Y-132455489D01*
X117945022Y-132452341D01*
X117945023Y-132452333D01*
X117945058Y-132447268D01*
X117958111Y-132330898D01*
X117993519Y-132219280D01*
X118049932Y-132116665D01*
X118125202Y-132026961D01*
X118216462Y-131953586D01*
X118320236Y-131899335D01*
X118432571Y-131866273D01*
X118432652Y-131866266D01*
X118432681Y-131866257D01*
X118549188Y-131855654D01*
X118665525Y-131867882D01*
X118665550Y-131867890D01*
X118665647Y-131867900D01*
X118777509Y-131902527D01*
X118880516Y-131958222D01*
X118970742Y-132032864D01*
X119044753Y-132123610D01*
X119099728Y-132227003D01*
X119133573Y-132339104D01*
X119145000Y-132455645D01*
X119145000Y-133064511D01*
X119144978Y-133067658D01*
X119144977Y-133067666D01*
X119144942Y-133072732D01*
X119138740Y-133128024D01*
X119139665Y-133159417D01*
X119150455Y-133192895D01*
X119156874Y-133202397D01*
X119147668Y-133207824D01*
X119123544Y-133233422D01*
X119107721Y-133265287D01*
X119096481Y-133300720D01*
X119095455Y-133302586D01*
X119094764Y-133304765D01*
X119084209Y-133332684D01*
X119081428Y-133367748D01*
X119088526Y-133402199D01*
X119104941Y-133433308D01*
X119129373Y-133458612D01*
X119159886Y-133476108D01*
X119206188Y-133485000D01*
X119224909Y-133485000D01*
X119259733Y-133480051D01*
X119291800Y-133465596D01*
X119318570Y-133442780D01*
X119337924Y-133413410D01*
X119348329Y-133379810D01*
X119349897Y-133361745D01*
X119350658Y-133307245D01*
X119346196Y-133272355D01*
X119332770Y-133241425D01*
X119357455Y-133219892D01*
X119377742Y-133187435D01*
X119412710Y-133105849D01*
X119470874Y-133020902D01*
X119544437Y-132948864D01*
X119630591Y-132892488D01*
X119678767Y-132873023D01*
X119709202Y-132855389D01*
X119733519Y-132829974D01*
X119749792Y-132798791D01*
X119756734Y-132764309D01*
X119754887Y-132734560D01*
X119749305Y-132704147D01*
X119750742Y-132601192D01*
X119772147Y-132500490D01*
X119812710Y-132405849D01*
X119870874Y-132320902D01*
X119944437Y-132248864D01*
X120030591Y-132192488D01*
X120126052Y-132153918D01*
X120227188Y-132134626D01*
X120330143Y-132135344D01*
X120431000Y-132156048D01*
X120525917Y-132195946D01*
X120604491Y-132248946D01*
X120636128Y-132264317D01*
X120670796Y-132270265D01*
X120705748Y-132266320D01*
X120742835Y-132249913D01*
X120830591Y-132192488D01*
X120926052Y-132153918D01*
X121027188Y-132134626D01*
X121130143Y-132135344D01*
X121231000Y-132156048D01*
X121325917Y-132195946D01*
X121404491Y-132248946D01*
X121436128Y-132264317D01*
X121470796Y-132270265D01*
X121505748Y-132266320D01*
X121542835Y-132249913D01*
X121630591Y-132192488D01*
X121726052Y-132153918D01*
X121827188Y-132134626D01*
X121930143Y-132135344D01*
X122031000Y-132156048D01*
X122125913Y-132195945D01*
X122211272Y-132253521D01*
X122283818Y-132326574D01*
X122340797Y-132412334D01*
X122380029Y-132507521D01*
X122399857Y-132607654D01*
X122399857Y-132607685D01*
X122400022Y-132608521D01*
X122398380Y-132726118D01*
X122398190Y-132726953D01*
X122398190Y-132726979D01*
X122397521Y-132729926D01*
X122394632Y-132764982D01*
X122401623Y-132799454D01*
X122417942Y-132830613D01*
X122442295Y-132855993D01*
X122470976Y-132872852D01*
X122525917Y-132895947D01*
X122604491Y-132948946D01*
X122636128Y-132964317D01*
X122670796Y-132970265D01*
X122705748Y-132966320D01*
X122742835Y-132949913D01*
X122830591Y-132892488D01*
X122878767Y-132873023D01*
X122909202Y-132855389D01*
X122933519Y-132829974D01*
X122949792Y-132798791D01*
X122956734Y-132764309D01*
X122954887Y-132734560D01*
X122949305Y-132704147D01*
X122950742Y-132601192D01*
X122972147Y-132500490D01*
X123012710Y-132405849D01*
X123070874Y-132320902D01*
X123144437Y-132248864D01*
X123230591Y-132192488D01*
X123326052Y-132153918D01*
X123427188Y-132134626D01*
X123530143Y-132135344D01*
X123631000Y-132156048D01*
X123725917Y-132195946D01*
X123804491Y-132248946D01*
X123836128Y-132264317D01*
X123870796Y-132270265D01*
X123905748Y-132266320D01*
X123942835Y-132249913D01*
X124030591Y-132192488D01*
X124126052Y-132153918D01*
X124227188Y-132134626D01*
X124330143Y-132135344D01*
X124431000Y-132156048D01*
X124525917Y-132195946D01*
X124604491Y-132248946D01*
X124636128Y-132264317D01*
X124670796Y-132270265D01*
X124705748Y-132266320D01*
X124742835Y-132249913D01*
X124830591Y-132192488D01*
X124926052Y-132153918D01*
X125027188Y-132134626D01*
X125130143Y-132135344D01*
X125231000Y-132156048D01*
X125325913Y-132195945D01*
X125411272Y-132253521D01*
X125483818Y-132326574D01*
X125540797Y-132412334D01*
X125580029Y-132507521D01*
X125599857Y-132607654D01*
X125599857Y-132607685D01*
X125600022Y-132608521D01*
X125598380Y-132726118D01*
X125598190Y-132726953D01*
X125598190Y-132726979D01*
X125597521Y-132729926D01*
X125594632Y-132764982D01*
X125601623Y-132799454D01*
X125617942Y-132830613D01*
X125642295Y-132855993D01*
X125670976Y-132872852D01*
X125725913Y-132895945D01*
X125811272Y-132953521D01*
X125883818Y-133026574D01*
X125940797Y-133112334D01*
X125971777Y-133187499D01*
X125989622Y-133217810D01*
X126015206Y-133241949D01*
X126018729Y-133243756D01*
X126005717Y-133270790D01*
X125999868Y-133306871D01*
X125999857Y-133307686D01*
X126000022Y-133308521D01*
X125999072Y-133376579D01*
X126003374Y-133410219D01*
X126017380Y-133442485D01*
X126039820Y-133469571D01*
X126068917Y-133489333D01*
X126102369Y-133500207D01*
X126147325Y-133499860D01*
X126174435Y-133494688D01*
X126207715Y-133483301D01*
X126236504Y-133463093D01*
X126258525Y-133435665D01*
X126272032Y-133403188D01*
X126275956Y-133368233D01*
X126269987Y-133333569D01*
X126262755Y-133316475D01*
X126250272Y-133292997D01*
X126243257Y-133269763D01*
X126229719Y-133240581D01*
X126206613Y-133214061D01*
X126192886Y-133205227D01*
X126197518Y-133198916D01*
X126209607Y-133165884D01*
X126211552Y-133131173D01*
X126205000Y-133064355D01*
X126205000Y-132455489D01*
X126205022Y-132452341D01*
X126205023Y-132452333D01*
X126205058Y-132447268D01*
X126218111Y-132330898D01*
X126253519Y-132219280D01*
X126309932Y-132116665D01*
X126385202Y-132026961D01*
X126476462Y-131953586D01*
X126580236Y-131899335D01*
X126692571Y-131866273D01*
X126692652Y-131866266D01*
X126692681Y-131866257D01*
X126809188Y-131855654D01*
X126925525Y-131867882D01*
X126925525Y-131867882D01*
G37*
G36*
X109990000Y-131460000D02*
X107890000Y-131460000D01*
X107890000Y-129360000D01*
X109990000Y-129360000D01*
X109990000Y-131460000D01*
X109990000Y-131460000D01*
G37*
G36*
X104504666Y-129320066D02*
X104504673Y-129320067D01*
X104509741Y-129320102D01*
X104713388Y-129342945D01*
X104908720Y-129404908D01*
X105088296Y-129503631D01*
X105245277Y-129635353D01*
X105373684Y-129795059D01*
X105468624Y-129976663D01*
X105526483Y-130173250D01*
X105526491Y-130173334D01*
X105526498Y-130173359D01*
X105545060Y-130377330D01*
X105523652Y-130581009D01*
X105523646Y-130581029D01*
X105523635Y-130581132D01*
X105463037Y-130776891D01*
X105365570Y-130957153D01*
X105234947Y-131115049D01*
X105076142Y-131244567D01*
X104895205Y-131340773D01*
X104699027Y-131400003D01*
X104495081Y-131420000D01*
X104484763Y-131420000D01*
X104475334Y-131419934D01*
X104475327Y-131419933D01*
X104470259Y-131419898D01*
X104266612Y-131397055D01*
X104071280Y-131335092D01*
X103891704Y-131236369D01*
X103734723Y-131104647D01*
X103606316Y-130944941D01*
X103511376Y-130763337D01*
X103453517Y-130566750D01*
X103453509Y-130566666D01*
X103453502Y-130566641D01*
X103434940Y-130362670D01*
X103456348Y-130158991D01*
X103456354Y-130158971D01*
X103456365Y-130158868D01*
X103516963Y-129963109D01*
X103614430Y-129782847D01*
X103745053Y-129624951D01*
X103903858Y-129495433D01*
X104084795Y-129399227D01*
X104280973Y-129339997D01*
X104484919Y-129320000D01*
X104495237Y-129320000D01*
X104504666Y-129320066D01*
X104504666Y-129320066D01*
G37*
G36*
X140694666Y-129220066D02*
X140694673Y-129220067D01*
X140699741Y-129220102D01*
X140903388Y-129242945D01*
X141098720Y-129304908D01*
X141278296Y-129403631D01*
X141435277Y-129535353D01*
X141563684Y-129695059D01*
X141658624Y-129876663D01*
X141716483Y-130073250D01*
X141716491Y-130073334D01*
X141716498Y-130073359D01*
X141735060Y-130277330D01*
X141713652Y-130481009D01*
X141713646Y-130481029D01*
X141713635Y-130481132D01*
X141653037Y-130676891D01*
X141555570Y-130857153D01*
X141424947Y-131015049D01*
X141266142Y-131144567D01*
X141085205Y-131240773D01*
X140889027Y-131300003D01*
X140685081Y-131320000D01*
X140674763Y-131320000D01*
X140665334Y-131319934D01*
X140665327Y-131319933D01*
X140660259Y-131319898D01*
X140456612Y-131297055D01*
X140261280Y-131235092D01*
X140081704Y-131136369D01*
X139924723Y-131004647D01*
X139796316Y-130844941D01*
X139701376Y-130663337D01*
X139643517Y-130466750D01*
X139643509Y-130466666D01*
X139643502Y-130466641D01*
X139624940Y-130262670D01*
X139646348Y-130058991D01*
X139646354Y-130058971D01*
X139646365Y-130058868D01*
X139706963Y-129863109D01*
X139804430Y-129682847D01*
X139935053Y-129524951D01*
X140093858Y-129395433D01*
X140274795Y-129299227D01*
X140470973Y-129239997D01*
X140674919Y-129220000D01*
X140685237Y-129220000D01*
X140694666Y-129220066D01*
X140694666Y-129220066D01*
G37*
G36*
X133874666Y-129200066D02*
X133874673Y-129200067D01*
X133879741Y-129200102D01*
X134083388Y-129222945D01*
X134278720Y-129284908D01*
X134458296Y-129383631D01*
X134615277Y-129515353D01*
X134743684Y-129675059D01*
X134838624Y-129856663D01*
X134896483Y-130053250D01*
X134896491Y-130053334D01*
X134896498Y-130053359D01*
X134915060Y-130257330D01*
X134893652Y-130461009D01*
X134893646Y-130461029D01*
X134893635Y-130461132D01*
X134833037Y-130656891D01*
X134735570Y-130837153D01*
X134604947Y-130995049D01*
X134446142Y-131124567D01*
X134265205Y-131220773D01*
X134069027Y-131280003D01*
X133865081Y-131300000D01*
X133854763Y-131300000D01*
X133845334Y-131299934D01*
X133845327Y-131299933D01*
X133840259Y-131299898D01*
X133636612Y-131277055D01*
X133441280Y-131215092D01*
X133261704Y-131116369D01*
X133104723Y-130984647D01*
X132976316Y-130824941D01*
X132881376Y-130643337D01*
X132823517Y-130446750D01*
X132823509Y-130446666D01*
X132823502Y-130446641D01*
X132804940Y-130242670D01*
X132826348Y-130038991D01*
X132826354Y-130038971D01*
X132826365Y-130038868D01*
X132886963Y-129843109D01*
X132984430Y-129662847D01*
X133115053Y-129504951D01*
X133273858Y-129375433D01*
X133454795Y-129279227D01*
X133650973Y-129219997D01*
X133854919Y-129200000D01*
X133865237Y-129200000D01*
X133874666Y-129200066D01*
X133874666Y-129200066D01*
G37*
G36*
X130134666Y-129180066D02*
X130134673Y-129180067D01*
X130139741Y-129180102D01*
X130343388Y-129202945D01*
X130538720Y-129264908D01*
X130718296Y-129363631D01*
X130875277Y-129495353D01*
X131003684Y-129655059D01*
X131098624Y-129836663D01*
X131156483Y-130033250D01*
X131156491Y-130033334D01*
X131156498Y-130033359D01*
X131175060Y-130237330D01*
X131153652Y-130441009D01*
X131153646Y-130441029D01*
X131153635Y-130441132D01*
X131093037Y-130636891D01*
X130995570Y-130817153D01*
X130864947Y-130975049D01*
X130706142Y-131104567D01*
X130525205Y-131200773D01*
X130329027Y-131260003D01*
X130125081Y-131280000D01*
X130114763Y-131280000D01*
X130105334Y-131279934D01*
X130105327Y-131279933D01*
X130100259Y-131279898D01*
X129896612Y-131257055D01*
X129701280Y-131195092D01*
X129521704Y-131096369D01*
X129364723Y-130964647D01*
X129236316Y-130804941D01*
X129141376Y-130623337D01*
X129083517Y-130426750D01*
X129083509Y-130426666D01*
X129083502Y-130426641D01*
X129064940Y-130222670D01*
X129086348Y-130018991D01*
X129086354Y-130018971D01*
X129086365Y-130018868D01*
X129146963Y-129823109D01*
X129244430Y-129642847D01*
X129375053Y-129484951D01*
X129533858Y-129355433D01*
X129714795Y-129259227D01*
X129910973Y-129199997D01*
X130114919Y-129180000D01*
X130125237Y-129180000D01*
X130134666Y-129180066D01*
X130134666Y-129180066D01*
G37*
G36*
X114490000Y-129175000D02*
X112970000Y-129175000D01*
X112970000Y-126335000D01*
X114490000Y-126335000D01*
X114490000Y-129175000D01*
X114490000Y-129175000D01*
G37*
G36*
X108954666Y-126820066D02*
X108954673Y-126820067D01*
X108959741Y-126820102D01*
X109163388Y-126842945D01*
X109358720Y-126904908D01*
X109538296Y-127003631D01*
X109695277Y-127135353D01*
X109823684Y-127295059D01*
X109918624Y-127476663D01*
X109976483Y-127673250D01*
X109976491Y-127673334D01*
X109976498Y-127673359D01*
X109995060Y-127877330D01*
X109973652Y-128081009D01*
X109973646Y-128081029D01*
X109973635Y-128081132D01*
X109913037Y-128276891D01*
X109815570Y-128457153D01*
X109684947Y-128615049D01*
X109526142Y-128744567D01*
X109345205Y-128840773D01*
X109149027Y-128900003D01*
X108945081Y-128920000D01*
X108934763Y-128920000D01*
X108925334Y-128919934D01*
X108925327Y-128919933D01*
X108920259Y-128919898D01*
X108716612Y-128897055D01*
X108521280Y-128835092D01*
X108341704Y-128736369D01*
X108184723Y-128604647D01*
X108056316Y-128444941D01*
X107961376Y-128263337D01*
X107903517Y-128066750D01*
X107903509Y-128066666D01*
X107903502Y-128066641D01*
X107884940Y-127862670D01*
X107906348Y-127658991D01*
X107906354Y-127658971D01*
X107906365Y-127658868D01*
X107966963Y-127463109D01*
X108064430Y-127282847D01*
X108195053Y-127124951D01*
X108353858Y-126995433D01*
X108534795Y-126899227D01*
X108730973Y-126839997D01*
X108934919Y-126820000D01*
X108945237Y-126820000D01*
X108954666Y-126820066D01*
X108954666Y-126820066D01*
G37*
G36*
X105540000Y-128880000D02*
X103440000Y-128880000D01*
X103440000Y-126780000D01*
X105540000Y-126780000D01*
X105540000Y-128880000D01*
X105540000Y-128880000D01*
G37*
G36*
X141730000Y-128780000D02*
X139630000Y-128780000D01*
X139630000Y-126680000D01*
X141730000Y-126680000D01*
X141730000Y-128780000D01*
X141730000Y-128780000D01*
G37*
G36*
X134910000Y-128760000D02*
X132810000Y-128760000D01*
X132810000Y-126660000D01*
X134910000Y-126660000D01*
X134910000Y-128760000D01*
X134910000Y-128760000D01*
G37*
G36*
X131170000Y-128740000D02*
X129070000Y-128740000D01*
X129070000Y-126640000D01*
X131170000Y-126640000D01*
X131170000Y-128740000D01*
X131170000Y-128740000D01*
G37*
G36*
X127285525Y-125917882D02*
X127285550Y-125917890D01*
X127285647Y-125917900D01*
X127397509Y-125952527D01*
X127500516Y-126008222D01*
X127590742Y-126082864D01*
X127664753Y-126173610D01*
X127719728Y-126277003D01*
X127753573Y-126389104D01*
X127765000Y-126505645D01*
X127765000Y-127114511D01*
X127764978Y-127117659D01*
X127764977Y-127117667D01*
X127764942Y-127122732D01*
X127751889Y-127239102D01*
X127716481Y-127350720D01*
X127660068Y-127453335D01*
X127584798Y-127543039D01*
X127493538Y-127616414D01*
X127389764Y-127670665D01*
X127277429Y-127703727D01*
X127277348Y-127703734D01*
X127277319Y-127703743D01*
X127160812Y-127714346D01*
X127044475Y-127702118D01*
X127044450Y-127702110D01*
X127044353Y-127702100D01*
X126932491Y-127667473D01*
X126829484Y-127611778D01*
X126739258Y-127537136D01*
X126665247Y-127446390D01*
X126610272Y-127342997D01*
X126576427Y-127230896D01*
X126565000Y-127114355D01*
X126565000Y-126505489D01*
X126565022Y-126502341D01*
X126565023Y-126502333D01*
X126565058Y-126497268D01*
X126578111Y-126380898D01*
X126613519Y-126269280D01*
X126669932Y-126166665D01*
X126745202Y-126076961D01*
X126836462Y-126003586D01*
X126940236Y-125949335D01*
X127052571Y-125916273D01*
X127052652Y-125916266D01*
X127052681Y-125916257D01*
X127169188Y-125905654D01*
X127285525Y-125917882D01*
X127285525Y-125917882D01*
G37*
G36*
X118305525Y-125917882D02*
X118305550Y-125917890D01*
X118305647Y-125917900D01*
X118417509Y-125952527D01*
X118520516Y-126008222D01*
X118610742Y-126082864D01*
X118684753Y-126173610D01*
X118739728Y-126277003D01*
X118773573Y-126389104D01*
X118785000Y-126505645D01*
X118785000Y-127114511D01*
X118784978Y-127117659D01*
X118784977Y-127117667D01*
X118784942Y-127122732D01*
X118771889Y-127239102D01*
X118736481Y-127350720D01*
X118680068Y-127453335D01*
X118604798Y-127543039D01*
X118513538Y-127616414D01*
X118409764Y-127670665D01*
X118297429Y-127703727D01*
X118297348Y-127703734D01*
X118297319Y-127703743D01*
X118180812Y-127714346D01*
X118064475Y-127702118D01*
X118064450Y-127702110D01*
X118064353Y-127702100D01*
X117952491Y-127667473D01*
X117849484Y-127611778D01*
X117759258Y-127537136D01*
X117685247Y-127446390D01*
X117630272Y-127342997D01*
X117596427Y-127230896D01*
X117585000Y-127114355D01*
X117585000Y-126505489D01*
X117585022Y-126502341D01*
X117585023Y-126502333D01*
X117585058Y-126497268D01*
X117598111Y-126380898D01*
X117633519Y-126269280D01*
X117689932Y-126166665D01*
X117765202Y-126076961D01*
X117856462Y-126003586D01*
X117960236Y-125949335D01*
X118072571Y-125916273D01*
X118072652Y-125916266D01*
X118072681Y-125916257D01*
X118189188Y-125905654D01*
X118305525Y-125917882D01*
X118305525Y-125917882D01*
G37*
G36*
X127275525Y-121202882D02*
X127275550Y-121202890D01*
X127275647Y-121202900D01*
X127387509Y-121237527D01*
X127490516Y-121293222D01*
X127580742Y-121367864D01*
X127654753Y-121458610D01*
X127709728Y-121562003D01*
X127743573Y-121674104D01*
X127755000Y-121790645D01*
X127755000Y-122399511D01*
X127754978Y-122402659D01*
X127754977Y-122402667D01*
X127754942Y-122407732D01*
X127741889Y-122524102D01*
X127706481Y-122635720D01*
X127650068Y-122738335D01*
X127574798Y-122828039D01*
X127483538Y-122901414D01*
X127379764Y-122955665D01*
X127267429Y-122988727D01*
X127267348Y-122988734D01*
X127267319Y-122988743D01*
X127150812Y-122999346D01*
X127034475Y-122987118D01*
X127034450Y-122987110D01*
X127034353Y-122987100D01*
X126922491Y-122952473D01*
X126819484Y-122896778D01*
X126729258Y-122822136D01*
X126655247Y-122731390D01*
X126600272Y-122627997D01*
X126566427Y-122515896D01*
X126555000Y-122399355D01*
X126555000Y-121790489D01*
X126555022Y-121787341D01*
X126555023Y-121787333D01*
X126555058Y-121782268D01*
X126568111Y-121665898D01*
X126603519Y-121554280D01*
X126659932Y-121451665D01*
X126735202Y-121361961D01*
X126826462Y-121288586D01*
X126930236Y-121234335D01*
X127042571Y-121201273D01*
X127042652Y-121201266D01*
X127042681Y-121201257D01*
X127159188Y-121190654D01*
X127275525Y-121202882D01*
X127275525Y-121202882D01*
G37*
G36*
X118295525Y-121202882D02*
X118295550Y-121202890D01*
X118295647Y-121202900D01*
X118407509Y-121237527D01*
X118510516Y-121293222D01*
X118600742Y-121367864D01*
X118674753Y-121458610D01*
X118729728Y-121562003D01*
X118763573Y-121674104D01*
X118775000Y-121790645D01*
X118775000Y-122399511D01*
X118774978Y-122402659D01*
X118774977Y-122402667D01*
X118774942Y-122407732D01*
X118761889Y-122524102D01*
X118726481Y-122635720D01*
X118670068Y-122738335D01*
X118594798Y-122828039D01*
X118503538Y-122901414D01*
X118399764Y-122955665D01*
X118287429Y-122988727D01*
X118287348Y-122988734D01*
X118287319Y-122988743D01*
X118170812Y-122999346D01*
X118054475Y-122987118D01*
X118054450Y-122987110D01*
X118054353Y-122987100D01*
X117942491Y-122952473D01*
X117839484Y-122896778D01*
X117749258Y-122822136D01*
X117675247Y-122731390D01*
X117620272Y-122627997D01*
X117586427Y-122515896D01*
X117575000Y-122399355D01*
X117575000Y-121790489D01*
X117575022Y-121787341D01*
X117575023Y-121787333D01*
X117575058Y-121782268D01*
X117588111Y-121665898D01*
X117623519Y-121554280D01*
X117679932Y-121451665D01*
X117755202Y-121361961D01*
X117846462Y-121288586D01*
X117950236Y-121234335D01*
X118062571Y-121201273D01*
X118062652Y-121201266D01*
X118062681Y-121201257D01*
X118179188Y-121190654D01*
X118295525Y-121202882D01*
X118295525Y-121202882D01*
G37*
G36*
X125765000Y-114286024D02*
X125769949Y-114320848D01*
X125784404Y-114352915D01*
X125807220Y-114379685D01*
X125836590Y-114399039D01*
X125870190Y-114409444D01*
X125905358Y-114410077D01*
X125921268Y-114406716D01*
X126009761Y-114379999D01*
X126111734Y-114370000D01*
X126418435Y-114370000D01*
X126420524Y-114370015D01*
X126420531Y-114370016D01*
X126425596Y-114370051D01*
X126527420Y-114381473D01*
X126625086Y-114412454D01*
X126714874Y-114461815D01*
X126793364Y-114527677D01*
X126857567Y-114607529D01*
X126905038Y-114698332D01*
X126933967Y-114796625D01*
X126933975Y-114796709D01*
X126933982Y-114796734D01*
X126943259Y-114898665D01*
X126932561Y-115000443D01*
X126932553Y-115000468D01*
X126932543Y-115000566D01*
X126902244Y-115098446D01*
X126902197Y-115098532D01*
X126898672Y-115109921D01*
X126898782Y-115109955D01*
X126892725Y-115126318D01*
X126890187Y-115161400D01*
X126897523Y-115195800D01*
X126914153Y-115226795D01*
X126938759Y-115251930D01*
X126977832Y-115272150D01*
X127027509Y-115287527D01*
X127130516Y-115343222D01*
X127220742Y-115417864D01*
X127294753Y-115508610D01*
X127349728Y-115612003D01*
X127383573Y-115724104D01*
X127395000Y-115840645D01*
X127395000Y-116449511D01*
X127394978Y-116452659D01*
X127394977Y-116452667D01*
X127394942Y-116457732D01*
X127381889Y-116574102D01*
X127346481Y-116685720D01*
X127290068Y-116788335D01*
X127214798Y-116878039D01*
X127123538Y-116951414D01*
X127019764Y-117005665D01*
X126907429Y-117038727D01*
X126907348Y-117038734D01*
X126907319Y-117038743D01*
X126790812Y-117049346D01*
X126674475Y-117037118D01*
X126674450Y-117037110D01*
X126674353Y-117037100D01*
X126562491Y-117002473D01*
X126459484Y-116946778D01*
X126369258Y-116872136D01*
X126295247Y-116781390D01*
X126240272Y-116677997D01*
X126206427Y-116565896D01*
X126195000Y-116449355D01*
X126195000Y-115840489D01*
X126195022Y-115837341D01*
X126195023Y-115837333D01*
X126195058Y-115832268D01*
X126201044Y-115778900D01*
X126200119Y-115747502D01*
X126189328Y-115714024D01*
X126183279Y-115705070D01*
X126191335Y-115700320D01*
X126215459Y-115674722D01*
X126231280Y-115642862D01*
X126243519Y-115604280D01*
X126244545Y-115602413D01*
X126245240Y-115600223D01*
X126255791Y-115572316D01*
X126258572Y-115537252D01*
X126251474Y-115502801D01*
X126235059Y-115471692D01*
X126210627Y-115446388D01*
X126180114Y-115428892D01*
X126133812Y-115420000D01*
X126114138Y-115420000D01*
X126079314Y-115424949D01*
X126047247Y-115439404D01*
X126020477Y-115462220D01*
X126001123Y-115491590D01*
X125990718Y-115525190D01*
X125989362Y-115540817D01*
X125988505Y-115602152D01*
X125992807Y-115635788D01*
X126006063Y-115666325D01*
X125982328Y-115687029D01*
X125962741Y-115717886D01*
X125923698Y-115805577D01*
X125864351Y-115889708D01*
X125789788Y-115960712D01*
X125702857Y-116015881D01*
X125663199Y-116031263D01*
X125632521Y-116048470D01*
X125607852Y-116073542D01*
X125591144Y-116104495D01*
X125583721Y-116138877D01*
X125585783Y-116172084D01*
X125589857Y-116192655D01*
X125589857Y-116192686D01*
X125590022Y-116193521D01*
X125588380Y-116311118D01*
X125588190Y-116311953D01*
X125588190Y-116311979D01*
X125565576Y-116411519D01*
X125523697Y-116505578D01*
X125464351Y-116589708D01*
X125389788Y-116660712D01*
X125302857Y-116715881D01*
X125206870Y-116753112D01*
X125105475Y-116770990D01*
X125002533Y-116768834D01*
X124901979Y-116746726D01*
X124807632Y-116705507D01*
X124738166Y-116657226D01*
X124706745Y-116641415D01*
X124672164Y-116634983D01*
X124637161Y-116638440D01*
X124599847Y-116654328D01*
X124502854Y-116715882D01*
X124406870Y-116753112D01*
X124305475Y-116770990D01*
X124202533Y-116768834D01*
X124101979Y-116746726D01*
X124007632Y-116705507D01*
X123938166Y-116657226D01*
X123906745Y-116641415D01*
X123872164Y-116634983D01*
X123837161Y-116638440D01*
X123799847Y-116654328D01*
X123702854Y-116715882D01*
X123606870Y-116753112D01*
X123505475Y-116770990D01*
X123402533Y-116768834D01*
X123301979Y-116746726D01*
X123207630Y-116705506D01*
X123123088Y-116646747D01*
X123051569Y-116572688D01*
X122995791Y-116486137D01*
X122957890Y-116390411D01*
X122939305Y-116289147D01*
X122940742Y-116186196D01*
X122943378Y-116173796D01*
X122945778Y-116138703D01*
X122938307Y-116104332D01*
X122921556Y-116073403D01*
X122896852Y-116048365D01*
X122871154Y-116033259D01*
X122807633Y-116005507D01*
X122738166Y-115957226D01*
X122706745Y-115941415D01*
X122672164Y-115934983D01*
X122637161Y-115938440D01*
X122599847Y-115954328D01*
X122502854Y-116015882D01*
X122463199Y-116031263D01*
X122432521Y-116048470D01*
X122407852Y-116073542D01*
X122391144Y-116104495D01*
X122383721Y-116138877D01*
X122385783Y-116172084D01*
X122389857Y-116192655D01*
X122389857Y-116192686D01*
X122390022Y-116193521D01*
X122388380Y-116311118D01*
X122388190Y-116311953D01*
X122388190Y-116311979D01*
X122365576Y-116411519D01*
X122323697Y-116505578D01*
X122264351Y-116589708D01*
X122189788Y-116660712D01*
X122102857Y-116715881D01*
X122006870Y-116753112D01*
X121905475Y-116770990D01*
X121802533Y-116768834D01*
X121701979Y-116746726D01*
X121607632Y-116705507D01*
X121538166Y-116657226D01*
X121506745Y-116641415D01*
X121472164Y-116634983D01*
X121437161Y-116638440D01*
X121399847Y-116654328D01*
X121302854Y-116715882D01*
X121206870Y-116753112D01*
X121105475Y-116770990D01*
X121002533Y-116768834D01*
X120901979Y-116746726D01*
X120807632Y-116705507D01*
X120738166Y-116657226D01*
X120706745Y-116641415D01*
X120672164Y-116634983D01*
X120637161Y-116638440D01*
X120599847Y-116654328D01*
X120502854Y-116715882D01*
X120406870Y-116753112D01*
X120305475Y-116770990D01*
X120202533Y-116768834D01*
X120101979Y-116746726D01*
X120007630Y-116705506D01*
X119923088Y-116646747D01*
X119851569Y-116572688D01*
X119795791Y-116486137D01*
X119757890Y-116390411D01*
X119739305Y-116289147D01*
X119740742Y-116186196D01*
X119743378Y-116173796D01*
X119745778Y-116138703D01*
X119738307Y-116104332D01*
X119721556Y-116073403D01*
X119696852Y-116048365D01*
X119671154Y-116033259D01*
X119607630Y-116005506D01*
X119523088Y-115946747D01*
X119451569Y-115872688D01*
X119395792Y-115786138D01*
X119368752Y-115717844D01*
X119351331Y-115687287D01*
X119326087Y-115662794D01*
X119319776Y-115659444D01*
X119333374Y-115631192D01*
X119339222Y-115595112D01*
X119340126Y-115530326D01*
X119335663Y-115495436D01*
X119321657Y-115463171D01*
X119299217Y-115436085D01*
X119270119Y-115416323D01*
X119236668Y-115405450D01*
X119193429Y-115405482D01*
X119167328Y-115410085D01*
X119133892Y-115421006D01*
X119104823Y-115440810D01*
X119082422Y-115467929D01*
X119068464Y-115500215D01*
X119064052Y-115535111D01*
X119069537Y-115569855D01*
X119077410Y-115588837D01*
X119089728Y-115612003D01*
X119095831Y-115632217D01*
X119109372Y-115661405D01*
X119132478Y-115687925D01*
X119147493Y-115697586D01*
X119143192Y-115703278D01*
X119130643Y-115736138D01*
X119128338Y-115772705D01*
X119135000Y-115840645D01*
X119135000Y-116449511D01*
X119134978Y-116452659D01*
X119134977Y-116452667D01*
X119134942Y-116457732D01*
X119121889Y-116574102D01*
X119086481Y-116685720D01*
X119030068Y-116788335D01*
X118954798Y-116878039D01*
X118863538Y-116951414D01*
X118759764Y-117005665D01*
X118647429Y-117038727D01*
X118647348Y-117038734D01*
X118647319Y-117038743D01*
X118530812Y-117049346D01*
X118414475Y-117037118D01*
X118414450Y-117037110D01*
X118414353Y-117037100D01*
X118302491Y-117002473D01*
X118199484Y-116946778D01*
X118109258Y-116872136D01*
X118035247Y-116781390D01*
X117980272Y-116677997D01*
X117946427Y-116565896D01*
X117935000Y-116449355D01*
X117935000Y-115840489D01*
X117935022Y-115837341D01*
X117935023Y-115837333D01*
X117935058Y-115832268D01*
X117948111Y-115715898D01*
X117983519Y-115604280D01*
X118039932Y-115501665D01*
X118115202Y-115411961D01*
X118206462Y-115338586D01*
X118310236Y-115284335D01*
X118422571Y-115251273D01*
X118422652Y-115251266D01*
X118422681Y-115251257D01*
X118467362Y-115247191D01*
X118501594Y-115239106D01*
X118532218Y-115221804D01*
X118556811Y-115196656D01*
X118573423Y-115165652D01*
X118580740Y-115131247D01*
X118578182Y-115096166D01*
X118572254Y-115076690D01*
X118557890Y-115040411D01*
X118539305Y-114939147D01*
X118539689Y-114911577D01*
X119589072Y-114911577D01*
X119593374Y-114945218D01*
X119607379Y-114977484D01*
X119629819Y-115004570D01*
X119658916Y-115024333D01*
X119692367Y-115035206D01*
X119737326Y-115034860D01*
X119748202Y-115032785D01*
X119781482Y-115021398D01*
X119810271Y-115001190D01*
X119832291Y-114973761D01*
X119845798Y-114941284D01*
X119847585Y-114925358D01*
X119880183Y-114925358D01*
X119889373Y-114959311D01*
X119907658Y-114989358D01*
X119933591Y-115013122D01*
X119979101Y-115032447D01*
X120021000Y-115041048D01*
X120115913Y-115080945D01*
X120201272Y-115138521D01*
X120273818Y-115211574D01*
X120330797Y-115297334D01*
X120370029Y-115392521D01*
X120389857Y-115492654D01*
X120389857Y-115492685D01*
X120390022Y-115493521D01*
X120388380Y-115611118D01*
X120388190Y-115611953D01*
X120388190Y-115611979D01*
X120387521Y-115614926D01*
X120384632Y-115649982D01*
X120391623Y-115684454D01*
X120407942Y-115715613D01*
X120432295Y-115740993D01*
X120460976Y-115757852D01*
X120515917Y-115780947D01*
X120594491Y-115833946D01*
X120626128Y-115849317D01*
X120660796Y-115855265D01*
X120695748Y-115851320D01*
X120732835Y-115834913D01*
X120820591Y-115777488D01*
X120868767Y-115758023D01*
X120899202Y-115740389D01*
X120923519Y-115714974D01*
X120939792Y-115683791D01*
X120946734Y-115649309D01*
X120944887Y-115619560D01*
X120939305Y-115589147D01*
X120940742Y-115486192D01*
X120962147Y-115385490D01*
X121002710Y-115290849D01*
X121060874Y-115205902D01*
X121134437Y-115133864D01*
X121220591Y-115077488D01*
X121316052Y-115038918D01*
X121348199Y-115032786D01*
X121381479Y-115021399D01*
X121410269Y-115001192D01*
X121432290Y-114973764D01*
X121445797Y-114941287D01*
X121447585Y-114925358D01*
X121480183Y-114925358D01*
X121489373Y-114959311D01*
X121507658Y-114989358D01*
X121533591Y-115013122D01*
X121579101Y-115032447D01*
X121621000Y-115041048D01*
X121715917Y-115080946D01*
X121794491Y-115133946D01*
X121826128Y-115149317D01*
X121860796Y-115155265D01*
X121895748Y-115151320D01*
X121932835Y-115134913D01*
X122020591Y-115077488D01*
X122116052Y-115038918D01*
X122148199Y-115032786D01*
X122181479Y-115021399D01*
X122210269Y-115001192D01*
X122232290Y-114973764D01*
X122245797Y-114941287D01*
X122247585Y-114925358D01*
X122280183Y-114925358D01*
X122289373Y-114959311D01*
X122307658Y-114989358D01*
X122333591Y-115013122D01*
X122379101Y-115032447D01*
X122421000Y-115041048D01*
X122515917Y-115080946D01*
X122594491Y-115133946D01*
X122626128Y-115149317D01*
X122660796Y-115155265D01*
X122695748Y-115151320D01*
X122732835Y-115134913D01*
X122820591Y-115077488D01*
X122916052Y-115038918D01*
X122948199Y-115032786D01*
X122981479Y-115021399D01*
X123010269Y-115001192D01*
X123032290Y-114973764D01*
X123045797Y-114941287D01*
X123047585Y-114925358D01*
X123080183Y-114925358D01*
X123089373Y-114959311D01*
X123107658Y-114989358D01*
X123133591Y-115013122D01*
X123179101Y-115032447D01*
X123221000Y-115041048D01*
X123315917Y-115080946D01*
X123394491Y-115133946D01*
X123426128Y-115149317D01*
X123460796Y-115155265D01*
X123495748Y-115151320D01*
X123532835Y-115134913D01*
X123620591Y-115077488D01*
X123716052Y-115038918D01*
X123748199Y-115032786D01*
X123781479Y-115021399D01*
X123810269Y-115001192D01*
X123832290Y-114973764D01*
X123845797Y-114941287D01*
X123847585Y-114925358D01*
X123880183Y-114925358D01*
X123889373Y-114959311D01*
X123907658Y-114989358D01*
X123933591Y-115013122D01*
X123979101Y-115032447D01*
X124021000Y-115041048D01*
X124115913Y-115080945D01*
X124201272Y-115138521D01*
X124273818Y-115211574D01*
X124330797Y-115297334D01*
X124370029Y-115392521D01*
X124389857Y-115492654D01*
X124389857Y-115492685D01*
X124390022Y-115493521D01*
X124388380Y-115611118D01*
X124388190Y-115611953D01*
X124388190Y-115611979D01*
X124387521Y-115614926D01*
X124384632Y-115649982D01*
X124391623Y-115684454D01*
X124407942Y-115715613D01*
X124432295Y-115740993D01*
X124460976Y-115757852D01*
X124515917Y-115780947D01*
X124594491Y-115833946D01*
X124626128Y-115849317D01*
X124660796Y-115855265D01*
X124695748Y-115851320D01*
X124732835Y-115834913D01*
X124820591Y-115777488D01*
X124868767Y-115758023D01*
X124899202Y-115740389D01*
X124923519Y-115714974D01*
X124939792Y-115683791D01*
X124946734Y-115649309D01*
X124944887Y-115619560D01*
X124939305Y-115589147D01*
X124940742Y-115486192D01*
X124962147Y-115385490D01*
X125002710Y-115290849D01*
X125060874Y-115205902D01*
X125134437Y-115133864D01*
X125220591Y-115077488D01*
X125316052Y-115038918D01*
X125348199Y-115032786D01*
X125381479Y-115021399D01*
X125410269Y-115001192D01*
X125432290Y-114973764D01*
X125445797Y-114941287D01*
X125449722Y-114906332D01*
X125443754Y-114871668D01*
X125428364Y-114840039D01*
X125404773Y-114813950D01*
X125374847Y-114795466D01*
X125324776Y-114785000D01*
X124004236Y-114785000D01*
X123969412Y-114789949D01*
X123937345Y-114804404D01*
X123910575Y-114827220D01*
X123891221Y-114856590D01*
X123880816Y-114890190D01*
X123880183Y-114925358D01*
X123847585Y-114925358D01*
X123849722Y-114906332D01*
X123843754Y-114871668D01*
X123828364Y-114840039D01*
X123804773Y-114813950D01*
X123774847Y-114795466D01*
X123724776Y-114785000D01*
X123204236Y-114785000D01*
X123169412Y-114789949D01*
X123137345Y-114804404D01*
X123110575Y-114827220D01*
X123091221Y-114856590D01*
X123080816Y-114890190D01*
X123080183Y-114925358D01*
X123047585Y-114925358D01*
X123049722Y-114906332D01*
X123043754Y-114871668D01*
X123028364Y-114840039D01*
X123004773Y-114813950D01*
X122974847Y-114795466D01*
X122924776Y-114785000D01*
X122404236Y-114785000D01*
X122369412Y-114789949D01*
X122337345Y-114804404D01*
X122310575Y-114827220D01*
X122291221Y-114856590D01*
X122280816Y-114890190D01*
X122280183Y-114925358D01*
X122247585Y-114925358D01*
X122249722Y-114906332D01*
X122243754Y-114871668D01*
X122228364Y-114840039D01*
X122204773Y-114813950D01*
X122174847Y-114795466D01*
X122124776Y-114785000D01*
X121604236Y-114785000D01*
X121569412Y-114789949D01*
X121537345Y-114804404D01*
X121510575Y-114827220D01*
X121491221Y-114856590D01*
X121480816Y-114890190D01*
X121480183Y-114925358D01*
X121447585Y-114925358D01*
X121449722Y-114906332D01*
X121443754Y-114871668D01*
X121428364Y-114840039D01*
X121404773Y-114813950D01*
X121374847Y-114795466D01*
X121324776Y-114785000D01*
X120004236Y-114785000D01*
X119969412Y-114789949D01*
X119937345Y-114804404D01*
X119910575Y-114827220D01*
X119891221Y-114856590D01*
X119880816Y-114890190D01*
X119880183Y-114925358D01*
X119847585Y-114925358D01*
X119849722Y-114906329D01*
X119843753Y-114871665D01*
X119828363Y-114840037D01*
X119804770Y-114813948D01*
X119774844Y-114795465D01*
X119724776Y-114785000D01*
X119713929Y-114785000D01*
X119679105Y-114789949D01*
X119647038Y-114804404D01*
X119620268Y-114827220D01*
X119600914Y-114856590D01*
X119590509Y-114890190D01*
X119589152Y-114905821D01*
X119589072Y-114911577D01*
X118539689Y-114911577D01*
X118540742Y-114836192D01*
X118562147Y-114735490D01*
X118602710Y-114640849D01*
X118660874Y-114555902D01*
X118734437Y-114483864D01*
X118820591Y-114427488D01*
X118916052Y-114388918D01*
X119017188Y-114369626D01*
X119120143Y-114370344D01*
X119221000Y-114391048D01*
X119315913Y-114430945D01*
X119370101Y-114467495D01*
X119401739Y-114482865D01*
X119436407Y-114488813D01*
X119471359Y-114484868D01*
X119503828Y-114471341D01*
X119531243Y-114449304D01*
X119551433Y-114420501D01*
X119562800Y-114387215D01*
X119565000Y-114363865D01*
X119565000Y-113685000D01*
X125765000Y-113685000D01*
X125765000Y-114286024D01*
X125765000Y-114286024D01*
G37*
G36*
X126915000Y-111180000D02*
X126919949Y-111214824D01*
X126934404Y-111246891D01*
X126957220Y-111273661D01*
X126986590Y-111293015D01*
X127020190Y-111303420D01*
X127040000Y-111305000D01*
X127215000Y-111305000D01*
X127215000Y-113205000D01*
X125115000Y-113205000D01*
X125115000Y-111301447D01*
X125124824Y-111300051D01*
X125156891Y-111285596D01*
X125183661Y-111262780D01*
X125203015Y-111233410D01*
X125213420Y-111199810D01*
X125215000Y-111180000D01*
X125215000Y-110155000D01*
X126915000Y-110155000D01*
X126915000Y-111180000D01*
X126915000Y-111180000D01*
G37*
G36*
X117257220Y-110223661D02*
X117286590Y-110243015D01*
X117320190Y-110253420D01*
X117340000Y-110255000D01*
X119115000Y-110255000D01*
X119115000Y-111180000D01*
X119119949Y-111214824D01*
X119134404Y-111246891D01*
X119157220Y-111273661D01*
X119186590Y-111293015D01*
X119220190Y-111303420D01*
X119240000Y-111305000D01*
X120215000Y-111305000D01*
X120215000Y-113205000D01*
X118115000Y-113205000D01*
X118115000Y-111380000D01*
X118110051Y-111345176D01*
X118095596Y-111313109D01*
X118072780Y-111286339D01*
X118043410Y-111266985D01*
X118009810Y-111256580D01*
X117990000Y-111255000D01*
X117340000Y-111255000D01*
X117305176Y-111259949D01*
X117273109Y-111274404D01*
X117246339Y-111297220D01*
X117226985Y-111326590D01*
X117216580Y-111360190D01*
X117215000Y-111380000D01*
X117215000Y-112305000D01*
X115115000Y-112305000D01*
X115115000Y-110205000D01*
X117241315Y-110205000D01*
X117257220Y-110223661D01*
X117257220Y-110223661D01*
G37*
G36*
X130215000Y-112305000D02*
X128115000Y-112305000D01*
X128115000Y-110205000D01*
X130215000Y-110205000D01*
X130215000Y-112305000D01*
X130215000Y-112305000D01*
G37*
G36*
X123669404Y-108101891D02*
X123692220Y-108128661D01*
X123721590Y-108148015D01*
X123755190Y-108158420D01*
X123775000Y-108160000D01*
X124350000Y-108160000D01*
X124350000Y-111850000D01*
X123775000Y-111850000D01*
X123740176Y-111854949D01*
X123708109Y-111869404D01*
X123681339Y-111892220D01*
X123661985Y-111921590D01*
X123656284Y-111940000D01*
X121674972Y-111940000D01*
X121660596Y-111908109D01*
X121637780Y-111881339D01*
X121608410Y-111861985D01*
X121574810Y-111851580D01*
X121555000Y-111850000D01*
X120980000Y-111850000D01*
X120980000Y-109125000D01*
X121910000Y-109125000D01*
X121910000Y-110885000D01*
X121914949Y-110919824D01*
X121929404Y-110951891D01*
X121952220Y-110978661D01*
X121981590Y-110998015D01*
X122015190Y-111008420D01*
X122035000Y-111010000D01*
X123295000Y-111010000D01*
X123329824Y-111005051D01*
X123361891Y-110990596D01*
X123388661Y-110967780D01*
X123408015Y-110938410D01*
X123418420Y-110904810D01*
X123420000Y-110885000D01*
X123420000Y-109125000D01*
X123415051Y-109090176D01*
X123400596Y-109058109D01*
X123377780Y-109031339D01*
X123348410Y-109011985D01*
X123314810Y-109001580D01*
X123295000Y-109000000D01*
X122035000Y-109000000D01*
X122000176Y-109004949D01*
X121968109Y-109019404D01*
X121941339Y-109042220D01*
X121921985Y-109071590D01*
X121911580Y-109105190D01*
X121910000Y-109125000D01*
X120980000Y-109125000D01*
X120980000Y-108160000D01*
X121555000Y-108160000D01*
X121589824Y-108155051D01*
X121621891Y-108140596D01*
X121648661Y-108117780D01*
X121668015Y-108088410D01*
X121673716Y-108070000D01*
X123655028Y-108070000D01*
X123669404Y-108101891D01*
X123669404Y-108101891D01*
G37*
G36*
X116179666Y-107665066D02*
X116179673Y-107665067D01*
X116184741Y-107665102D01*
X116388388Y-107687945D01*
X116583720Y-107749908D01*
X116763296Y-107848631D01*
X116920277Y-107980353D01*
X117048684Y-108140059D01*
X117143624Y-108321663D01*
X117201483Y-108518250D01*
X117201491Y-108518334D01*
X117201498Y-108518359D01*
X117220060Y-108722330D01*
X117198652Y-108926009D01*
X117198646Y-108926029D01*
X117198635Y-108926132D01*
X117138037Y-109121891D01*
X117040570Y-109302153D01*
X116909947Y-109460049D01*
X116751142Y-109589567D01*
X116570205Y-109685773D01*
X116374027Y-109745003D01*
X116170081Y-109765000D01*
X116159763Y-109765000D01*
X116150334Y-109764934D01*
X116150327Y-109764933D01*
X116145259Y-109764898D01*
X115941612Y-109742055D01*
X115746280Y-109680092D01*
X115566704Y-109581369D01*
X115409723Y-109449647D01*
X115281316Y-109289941D01*
X115186376Y-109108337D01*
X115128517Y-108911750D01*
X115128509Y-108911666D01*
X115128502Y-108911641D01*
X115109940Y-108707670D01*
X115131348Y-108503991D01*
X115131354Y-108503971D01*
X115131365Y-108503868D01*
X115191963Y-108308109D01*
X115289430Y-108127847D01*
X115420053Y-107969951D01*
X115578858Y-107840433D01*
X115759795Y-107744227D01*
X115955973Y-107684997D01*
X116159919Y-107665000D01*
X116170237Y-107665000D01*
X116179666Y-107665066D01*
X116179666Y-107665066D01*
G37*
G36*
X129179666Y-107665066D02*
X129179673Y-107665067D01*
X129184741Y-107665102D01*
X129388388Y-107687945D01*
X129583720Y-107749908D01*
X129763296Y-107848631D01*
X129920277Y-107980353D01*
X130048684Y-108140059D01*
X130143624Y-108321663D01*
X130201483Y-108518250D01*
X130201491Y-108518334D01*
X130201498Y-108518359D01*
X130220060Y-108722330D01*
X130198652Y-108926009D01*
X130198646Y-108926029D01*
X130198635Y-108926132D01*
X130138037Y-109121891D01*
X130040570Y-109302153D01*
X129909947Y-109460049D01*
X129751142Y-109589567D01*
X129570205Y-109685773D01*
X129374027Y-109745003D01*
X129170081Y-109765000D01*
X129159763Y-109765000D01*
X129150334Y-109764934D01*
X129150327Y-109764933D01*
X129145259Y-109764898D01*
X128941612Y-109742055D01*
X128746280Y-109680092D01*
X128566704Y-109581369D01*
X128409723Y-109449647D01*
X128281316Y-109289941D01*
X128186376Y-109108337D01*
X128128517Y-108911750D01*
X128128509Y-108911666D01*
X128128502Y-108911641D01*
X128109940Y-108707670D01*
X128131348Y-108503991D01*
X128131354Y-108503971D01*
X128131365Y-108503868D01*
X128191963Y-108308109D01*
X128289430Y-108127847D01*
X128420053Y-107969951D01*
X128578858Y-107840433D01*
X128759795Y-107744227D01*
X128955973Y-107684997D01*
X129159919Y-107665000D01*
X129170237Y-107665000D01*
X129179666Y-107665066D01*
X129179666Y-107665066D01*
G37*
G36*
X127215000Y-109205000D02*
X125115000Y-109205000D01*
X125115000Y-108305000D01*
X127215000Y-108305000D01*
X127215000Y-109205000D01*
X127215000Y-109205000D01*
G37*
M02*
